<?xml version="1.0" encoding="UTF-8"?>
<svg width="160px" height="160px" viewBox="0 0 160 160" version="1.1" xmlns="http://www.w3.org/2000/svg" xmlns:xlink="http://www.w3.org/1999/xlink">
    <title>icon 04</title>
    <defs>
        <rect id="path-1" x="0" y="0" width="32" height="37" rx="1"></rect>
    </defs>
    <g id="Illustration" stroke="none" stroke-width="1" fill="none" fill-rule="evenodd">
        <g id="Group-64" transform="translate(1.000000, 1.000000)">
            <g id="Group-62" fill="#4A90E2" fill-opacity="0.8" stroke="#1560BD" stroke-width="2">
                <g id="rings">
                    <circle id="Oval" opacity="0.015" cx="79" cy="79" r="79"></circle>
                    <ellipse id="Oval" opacity="0.04" cx="79.4968553" cy="79.5" rx="71.5471698" ry="71.5"></ellipse>
                    <ellipse id="Oval" opacity="0.07" cx="79.4968553" cy="79.5" rx="62.6037736" ry="62.5"></ellipse>
                    <ellipse id="Oval" opacity="0.13" cx="79.4968553" cy="79" rx="43.7232704" ry="44"></ellipse>
                    <ellipse id="Oval" opacity="0.1" cx="79.4968553" cy="79" rx="19.8742138" ry="20"></ellipse>
                </g>
            </g>
            <g id="Group-63" transform="translate(14.000000, 27.000000)">
                <path d="M44.9642659,8.73061607 L44.9642659,27.2755717 L44.9613216,27.8200344 C44.8665128,36.50713 42.4536585,44.0333178 33.629797,51.2473056 L30.0323317,54.1759757 C26.2875359,57.2090843 23.7996307,59.1658175 22.5686161,60.0461751 L22.4825236,60.107993 L21.9700433,59.7360251 C20.1972639,58.4243096 16.6520725,55.5947364 11.3344689,51.2473056 C2.41869216,43.9581721 0.0481808824,36.3503005 0.000731441148,27.5481838 L4.86721774e-13,8.73061607 C5.48197069,8.73061607 12.9759089,5.82041071 22.4818145,4.26325641e-14 C31.9881447,5.82041071 39.4822952,8.73061607 44.9642659,8.73061607 Z" id="Path" stroke="#1560BD" stroke-width="2" fill="#EDF5FF" opacity="0.300000012" stroke-linejoin="round"></path>
                <path d="M22.5,58.858 L22.498,1.181 L22.5249704,1.19699606 C31.1537763,6.4195616 38.1557925,9.2531786 43.5777258,9.67523262 L43.964,9.701 L43.9642659,27.2755717 L43.9613362,27.8146268 C43.8579879,37.2827939 40.852994,44.0502845 32.9968502,50.4731103 L29.0324637,53.6987658 C26.4818929,55.7618946 24.5436017,57.3006539 23.2244989,58.3100026 L22.5,58.858 Z" id="Combined-Shape" fill="#1560BD" fill-rule="nonzero" opacity="0.200000003"></path>
                <path d="M39.4821329,13.735443 L39.4821329,27.9276979 L39.4799066,28.3443694 C39.4082164,34.9925101 37.5837221,40.7522206 30.9115062,46.2730078 L28.1912612,48.5142875 C25.3596113,50.8354929 23.4783668,52.3329597 22.5475277,53.006688 L22.4824283,53.0539965 L22.0949133,52.7693335 C20.7544155,51.7654917 18.0736977,49.6000498 14.0527597,46.2730078 C7.31104156,40.6947124 5.5185652,34.8724902 5.48268602,28.136325 L5.48213294,13.735443 C9.62735804,13.735443 15.2939444,11.5082942 22.4818922,7.0539965 C29.6701609,11.5082942 35.3369078,13.735443 39.4821329,13.735443 Z" id="Path" stroke="#1560BD" stroke-width="2" fill="#ABC7E8" opacity="0.300000012" stroke-linejoin="round"></path>
            </g>
            <g id="Group-57" opacity="0.300000012" transform="translate(95.000000, 81.000000)">
                <path d="M29.5714286,0 C33.8319109,0 37.2857143,3.45380336 37.2857143,7.71428571 L37.2857143,22.5 C37.2857143,26.7604824 33.8319109,30.2142857 29.5714286,30.2142857 L28.2857143,30.2142857 C29.6628399,30.2142857 30.7871221,29.1317346 30.8539959,27.7711974 L30.8571429,27.6428571 L30.8571429,9 C30.8571429,7.62287439 29.7745917,6.49859215 28.4140545,6.43171841 L28.2857143,6.42857143 L16.7142857,6.42857143 C15.3371601,6.42857143 14.2128779,7.51112259 14.1460041,8.87165978 L14.1428571,9 L14.1428571,27.6428571 C14.1428571,29.0199828 15.2254083,30.144265 16.5859455,30.2111387 L16.7142857,30.2142857 L15.4285714,30.2142857 C11.1680891,30.2142857 7.71428571,26.7604824 7.71428571,22.5 L7.71428571,7.71428571 C7.71428571,3.45380336 11.1680891,0 15.4285714,0 L29.5714286,0 Z" id="Path" stroke="#1560BD" stroke-width="2" fill="#D5E5F7"></path>
                <path d="M16.7142857,3.85714286 L28.2857143,3.85714286 C31.1260359,3.85714286 33.4285714,6.15967843 33.4285714,9 L33.4285714,26.3571429 L33.4243046,26.5686929 C33.3930656,27.3417548 33.1908605,28.0847111 32.8363531,28.755629 L32.8217143,28.7813571 L32.7725356,28.8074277 C32.2112278,29.0928556 31.6148635,29.3015499 30.9961009,29.4280051 L30.9529286,29.4364286 L31.007697,29.3534179 C31.2926906,28.9009163 31.4681058,28.3718444 31.4960779,27.8027573 L31.4998068,27.6586157 L31.5,9 C31.5,7.28445733 30.1528759,5.87355251 28.4456144,5.78963642 L28.3014728,5.78590746 L16.7142857,5.78571429 C14.998743,5.78571429 13.5878382,7.1328384 13.5039221,8.84009988 L13.5001932,8.98424147 L13.5,27.6428571 L13.5030972,27.7850919 C13.5277901,28.3510351 13.6991172,28.8799742 13.9805234,29.3340444 L14.0464286,29.4364286 L14.0038714,29.4279886 C13.3851244,29.3015187 12.7888171,29.0927999 12.227625,28.8073376 L12.1776429,28.7813571 L12.0707998,28.5707516 C11.7441103,27.8872506 11.5714286,27.1353756 11.5714286,26.3571429 L11.5714286,9 C11.5714286,6.15967843 13.8739641,3.85714286 16.7142857,3.85714286 Z" id="Combined-Shape" fill="#1560BD" fill-rule="nonzero" opacity="0.200000003"></path>
                <path d="M2.57142857,21.8571429 L42.4285714,21.8571429 C43.8487322,21.8571429 45,23.0084106 45,24.4285714 L45,51.4285714 C45,52.8487322 43.8487322,54 42.4285714,54 L2.57142857,54 C1.15126779,54 0,52.8487322 0,51.4285714 L0,24.4285714 C0,23.0084106 1.15126779,21.8571429 2.57142857,21.8571429 Z" id="Rectangle" stroke="#1560BD" stroke-width="2" fill="#FFFFFF"></path>
                <path d="M22.5,53.3571429 L22.5,22.5 L42.4285714,22.5 C43.493692,22.5 44.3571429,23.3634508 44.3571429,24.4285714 L44.3571429,51.4285714 C44.3571429,52.493692 43.493692,53.3571429 42.4285714,53.3571429 L22.5,53.3571429 Z" id="Combined-Shape" fill="#4A90E2" fill-rule="nonzero" opacity="0.200000003"></path>
                <path d="M0.642857143,44.3571429 L44.3571429,44.3571429 L44.3571429,50.3571429 C44.3571429,52.0139971 43.0139971,53.3571429 41.3571429,53.3571429 L3.64285714,53.3571429 C1.98600289,53.3571429 0.642857143,52.0139971 0.642857143,50.3571429 L0.642857143,44.3571429 L0.642857143,44.3571429 Z" id="Rectangle" fill="#4A90E2" opacity="0.669999957"></path>
                <rect id="Rectangle" fill="#1560BD" x="0" y="43.0714286" width="45" height="1.28571429"></rect>
            </g>
            <path d="M111,53 C113.209139,53 115,54.790861 115,57 L115,110 C115,112.209139 113.209139,114 111,114 L37,114 C34.790861,114 33,112.209139 33,110 L33,57 C33,54.790861 34.790861,53 37,53 L111,53 Z M84,58 L64,58 C62.8954305,58 62,58.8954305 62,60 C62,61.1045695 62.8954305,62 64,62 L64,62 L84,62 C85.1045695,62 86,61.1045695 86,60 C86,58.8954305 85.1045695,58 84,58 L84,58 Z" id="Combined-Shape" stroke="#1560BD" stroke-width="2" fill="#ECF5FF"></path>
            <g id="Group-36" opacity="0.5" transform="translate(88.500000, 90.000000) scale(-1, 1) translate(-88.500000, -90.000000) translate(77.000000, 79.000000)" fill="#4A90E2">
                <rect id="Rectangle" x="2" y="0" width="21" height="2" rx="1"></rect>
                <rect id="Rectangle" x="12" y="20" width="11" height="2" rx="1"></rect>
                <rect id="Rectangle" x="5" y="4" width="6" height="2" rx="1"></rect>
                <rect id="Rectangle" x="12" y="4" width="11" height="2" rx="1"></rect>
                <rect id="Rectangle" x="3" y="8" width="11" height="2" rx="1"></rect>
                <rect id="Rectangle" x="15" y="8" width="8" height="2" rx="1"></rect>
                <rect id="Rectangle" x="0" y="12" width="10" height="2" rx="1"></rect>
                <rect id="Rectangle" x="9" y="16" width="9" height="2" rx="1"></rect>
                <rect id="Rectangle" x="19" y="16" width="4" height="2" rx="1"></rect>
                <rect id="Rectangle" x="11" y="12" width="12" height="2" rx="1"></rect>
                <rect id="Rectangle" x="5" y="16" width="3" height="2" rx="1"></rect>
            </g>
            <path d="M111,54 L37,54 C35.4023191,54 34.0963391,55.24892 34.0050927,56.8237272 L34,57 L34,66 L114,66 L114,57 C114,55.4614925 112.841879,54.1934785 111.349863,54.0201832 L111.176273,54.0050927 L111,54 Z M84,57 C85.6568542,57 87,58.3431458 87,60 C87,61.5976809 85.75108,62.9036609 84.1762728,62.9949073 L84,63 L63.9632725,62.9993253 L63.7771604,62.9918038 C62.2155344,62.8765913 61,61.5736725 61,60 C61,58.4023191 62.24892,57.0963391 63.8237272,57.0050927 L64,57 L84,57 Z M84,59 L64,59 C63.4477153,59 63,59.4477153 63,60 C63,60.4839909 63.345492,60.8915502 63.7777443,60.9798939 L63.8874652,60.9951889 L64,61 L84,61 C84.5522847,61 85,60.5522847 85,60 C85,59.4477153 84.5522847,59 84,59 Z" id="Combined-Shape" fill="#4A90E2" fill-rule="nonzero" opacity="0.200000003"></path>
            <path d="M79,28 C80.1045695,28 81,28.8954305 81,30 L81,62 L67,62 L67,30 C67,28.8954305 67.8954305,28 69,28 L79,28 Z M74,32 C72.3431458,32 71,33.3431458 71,35 C71,36.6568542 72.3431458,38 74,38 C75.6568542,38 77,36.6568542 77,35 C77,33.3431458 75.6568542,32 74,32 Z" id="Combined-Shape" stroke="#1560BD" stroke-width="2" fill="#FFFFFF"></path>
            <circle id="Oval-Copy" stroke="#1560BD" stroke-width="2" cx="74" cy="50" r="3"></circle>
            <circle id="Oval-Copy" fill="#1560BD" cx="74" cy="50" r="1"></circle>
            <rect id="Rectangle" fill="#1560BD" opacity="0.300000012" x="68" y="42" width="12" height="2"></rect>
            <g id="profile" transform="translate(40.000000, 70.000000)">
                <mask id="mask-2" fill="white">
                    <use xlink:href="#path-1"></use>
                </mask>
                <use id="Rectangle" stroke="#1560BD" stroke-width="2" fill="#AAC9EE" xlink:href="#path-1"></use>
                <polygon id="Path-53" fill="#E5E5EA" mask="url(#mask-2)" points="2.5032849 35.9670748 3.8707843 32.1647136 9.27983654 29.4208437 11.5103096 28.9670748 13.3058167 30.0790216 17.4571259 30.5081756 19.9478156 30.0790216 21.144677 28.9670748 26.2559606 30.8888889 28.6058049 32.4670748 29.3992053 34.5940132 29.3992053 35.88816"></polygon>
                <rect id="Rectangle" fill="#FFFFFF" opacity="0.5" mask="url(#mask-2)" x="1" y="1" width="30" height="2"></rect>
                <g id="Group-55" mask="url(#mask-2)">
                    <g transform="translate(2.000000, 5.000000)" id="Group-53">
                        <polygon id="Path-17" fill="#4A90E2" points="5.61729459 47.3341394 22.3827054 47.3341394 22.3827054 80.8902642 15.5 80.8902642 15.5 54.5056276 12.5220821 54.5056276 12.5220821 80.8902642 5.61729459 80.8902642"></polygon>
                        <g id="Group-52" transform="translate(0.000000, 2.718615)" stroke="#1560BD" stroke-linecap="round" stroke-linejoin="round" stroke-width="2">
                            <g id="Group-51" transform="translate(0.000000, 0.000000)">
                                <path d="M13.9218915,51.6429474 L12.4625199,51.6429474 L12.4625199,79.5542384 L5.61729459,79.5542384 L5.61729459,31.4646991 C5.62892664,30.0702177 5.95422731,29.372977 6.59319661,29.372977" id="Path-13-Copy"></path>
                                <path d="M5.61729459,53.6162817 C3.4235002,52.7108787 1.7513208,52.1899969 1.7513208,47.7960023 C1.7513208,44.8666726 1.7513208,43.6827193 1.7513208,44.2441425 L-1.36779477e-13,35.6994018 C0.264566042,29.603839 1.05002939,25.8682657 2.35639004,24.492682 C4.31593101,22.4293064 9.27356675,21.4951305 9.76959305,20.5582659 C10.1002773,19.9336895 10.1867896,19.1776151 10.0291302,18.2900427" id="Path-15-Copy"></path>
                                <line x1="5.61729459" y1="44.6155243" x2="13.9218915" y2="44.6155243" id="Path-16-Copy"></line>
                                <line x1="10.1054796" y1="44.6155243" x2="5.61729459" y2="48.9938309" id="Path-17-Copy"></line>
                                <line x1="5.61729459" y1="47.6080926" x2="1.8707843" y2="47.6080926" id="Path-18-Copy"></line>
                                <line x1="5.61729459" y1="43.6159048" x2="1.8707843" y2="43.6159048" id="Path-18-Copy-2"></line>
                                <path d="M11.5886761,19.4276657 C8.44160218,17.3007843 6.0262604,15.1700284 6.0262604,11.6861404 L6.0262604,2.6311868 L6.0262604,2.6311868 L13.9218915,-9.83213511e-12 L14.0781085,-1.02868825e-11 L21.9737396,2.6311868 L21.9737396,2.6311868 L21.9737396,11.6861404 C21.9737396,15.1700284 19.5583978,17.3007843 16.4113239,19.4276657 C15.8106811,19.6755751 14.9808703,19.8072311 13.9218915,19.8226335 L13.9218915,19.8226335 L13.9218915,19.7995298 C12.9670574,19.7995298 12.1893189,19.6755751 11.5886761,19.4276657 Z" id="Combined-Shape" fill="#FFFFFF"></path>
                            </g>
                            <g id="Group-51" transform="translate(21.000000, 49.000000) scale(-1, 1) translate(-21.000000, -49.000000) translate(14.000000, 18.000000)">
                                <path d="M13.9218915,33.6429474 L12.4625199,33.6429474 L12.4625199,61.5542384 L5.61729459,61.5542384 L5.61729459,13.4646991 C5.62892664,12.0702177 5.95422731,11.372977 6.59319661,11.372977" id="Path-13-Copy"></path>
                                <path d="M5.61729459,35.6162817 C3.4235002,34.7108787 1.7513208,34.1899969 1.7513208,29.7960023 C1.7513208,26.8666726 1.7513208,25.6827193 1.7513208,26.2441425 L0,17.6994018 C0.264566042,11.603839 1.05002939,7.86826569 2.35639004,6.49268198 C4.31593101,4.42930642 9.27356675,3.49513048 9.76959305,2.55826587 C10.1002773,1.93368946 10.1867896,1.17761508 10.0291302,0.290042749" id="Path-15-Copy"></path>
                                <line x1="5.61729459" y1="26.6155243" x2="13.9218915" y2="26.6155243" id="Path-16-Copy"></line>
                                <line x1="10.1054796" y1="26.6155243" x2="5.61729459" y2="30.9938309" id="Path-17-Copy"></line>
                                <line x1="5.61729459" y1="29.6080926" x2="1.8707843" y2="29.6080926" id="Path-18-Copy"></line>
                                <line x1="5.61729459" y1="25.6159048" x2="1.8707843" y2="25.6159048" id="Path-18-Copy-2"></line>
                            </g>
                        </g>
                        <path d="M7.76218535,6.08687951 C7.49798892,6.76892455 6.55340878,8.9172437 5.39162741,8.39112718 C4.22984605,7.86501066 4.63968963,4.96368615 5.05273981,3.9704954 C5.46578999,2.97730464 6.450024,2.49056438 7.76218535,2.96276035 C8.40430787,1.9580942 11.091083,-1.50565464 17.8945204,0.747489125 C24.6979578,3.00063289 23.7080705,6.37783733 23.3509125,9.46680112 C22.3448939,8.75545192 21.9737396,8.20800658 21.1474482,7.50186207 C20.3211569,6.79571756 19.7443576,6.2375731 17.2991498,6.61342284 C14.8539421,6.98927257 10.6855607,7.24297005 7.76218535,6.08687951 Z" id="Path-13" stroke="#1560BD" stroke-width="2" fill="#C9DEF7" stroke-linejoin="round"></path>
                        <path d="M12.5220821,82.3188897 C12.446628,78.7293098 10.8912887,76.9345199 7.85606396,76.9345199 C4.82083925,76.9345199 3.44811104,78.3504352 3.73787932,81.1822657 C3.77437099,81.940015 4.42069682,82.3188897 5.67685682,82.3188897 C6.93301681,82.3188897 9.21475857,82.3188897 12.5220821,82.3188897 Z" id="Path-15" stroke="#1560BD" stroke-width="2" fill="#C9DEF7" stroke-linecap="round" stroke-linejoin="round"></path>
                        <path d="M24.3220821,82.3188897 C24.246628,78.7293098 22.6912887,76.9345199 19.656064,76.9345199 C16.6208393,76.9345199 15.248111,78.3504352 15.5378793,81.1822657 C15.574371,81.940015 16.2206968,82.3188897 17.4768568,82.3188897 C18.7330168,82.3188897 21.0147586,82.3188897 24.3220821,82.3188897 Z" id="Path-15" stroke="#1560BD" stroke-width="2" fill="#C9DEF7" stroke-linecap="round" stroke-linejoin="round" transform="translate(19.911041, 79.626705) scale(-1, 1) translate(-19.911041, -79.626705) "></path>
                        <circle id="Oval" fill="#1560BD" cx="10.2" cy="12.2345199" r="1.5"></circle>
                        <circle id="Oval" fill="#1560BD" cx="18.2" cy="12.2345199" r="1.5"></circle>
                        <path d="M12.3732213,17.8027431 C12.3732213,17.8027431 13.0569405,18.3816471 14.3687134,18.3816471 C15.6804862,18.3816471 15.9984691,17.8027431 15.9984691,17.8027431" id="Path-16" stroke="#1560BD" stroke-width="2" stroke-linecap="round"></path>
                        <path d="M13.4639826,14.7060603 C13.4639826,14.7060603 13.4629743,14.9086767 14.0781085,14.9086767 C14.6932427,14.9086767 14.8858452,14.7060603 14.8858452,14.7060603" id="Path-16" stroke="#1560BD" stroke-width="2" stroke-linecap="round"></path>
                        <path d="M8.84324062,23.9670748 C8.84324062,23.9670748 9.8915455,25.7557463 13.8930329,25.7557463 C17.8945204,25.7557463 19.144677,23.9670748 19.144677,23.9670748" id="Path-18" stroke="#1560BD" stroke-width="2"></path>
                    </g>
                </g>
            </g>
            <rect id="Rectangle" fill="#4A90E2" x="86" y="106" width="18" height="2" rx="1"></rect>
            <rect id="Rectangle" fill="#4A90E2" x="77" y="106" width="6" height="2" rx="1"></rect>
            <rect id="Rectangle" fill="#4A90E2" x="77" y="72" width="30" height="3" rx="1.5"></rect>
        </g>
    </g>
</svg>