<svg width="159" height="158" viewBox="0 0 159 158" fill="none" xmlns="http://www.w3.org/2000/svg">
<g id="Group 62">
<g id="Group 37">
<g id="Rings" opacity="0.4">
<path id="Oval" opacity="0.4" fill-rule="evenodd" clip-rule="evenodd" d="M79.0002 123.131C103.373 123.131 123.131 103.373 123.131 79.0001C123.131 54.6272 103.373 34.869 79.0002 34.869C54.6273 34.869 34.8691 54.6272 34.8691 79.0001C34.8691 103.373 54.6273 123.131 79.0002 123.131Z" fill="#4A90E2" fill-opacity="0.8" stroke="#1560BD" stroke-width="2"/>
<path id="Oval_2" opacity="0.2" fill-rule="evenodd" clip-rule="evenodd" d="M78.9999 141.655C113.603 141.655 141.655 113.604 141.655 79C141.655 44.3965 113.603 16.3448 78.9999 16.3448C44.3964 16.3448 16.3447 44.3965 16.3447 79C16.3447 113.604 44.3964 141.655 78.9999 141.655Z" fill="#4A90E2" fill-opacity="0.8" stroke="#1560BD" stroke-width="2"/>
<path id="Oval_3" opacity="0.1" fill-rule="evenodd" clip-rule="evenodd" d="M79.5452 150.372C119.264 150.372 151.462 118.174 151.462 78.4552C151.462 38.7364 119.264 6.53796 79.5452 6.53796C39.8264 6.53796 7.62793 38.7364 7.62793 78.4552C7.62793 118.174 39.8264 150.372 79.5452 150.372Z" fill="#4A90E2" fill-opacity="0.8" stroke="#1560BD" stroke-width="2"/>
<path id="Oval_4" opacity="0.04" fill-rule="evenodd" clip-rule="evenodd" d="M79 158C122.63 158 158 122.63 158 79C158 35.3695 122.63 0 79 0C35.3695 0 0 35.3695 0 79C0 122.63 35.3695 158 79 158Z" fill="#4A90E2" fill-opacity="0.8" stroke="#1560BD" stroke-width="2"/>
<path id="Oval_5" opacity="0.4" fill-rule="evenodd" clip-rule="evenodd" d="M79.5445 99.1586C90.3769 99.1586 99.1582 90.3772 99.1582 79.5448C99.1582 68.7124 90.3769 59.931 79.5445 59.931C68.7121 59.931 59.9307 68.7124 59.9307 79.5448C59.9307 90.3772 68.7121 99.1586 79.5445 99.1586Z" fill="#4A90E2" fill-opacity="0.8" stroke="#1560BD" stroke-width="2"/>
</g>
<path id="Path 4" opacity="0.2" d="M37.0938 128H117" stroke="#1560BD" stroke-width="2" stroke-linecap="round"/>
<path id="Path 4_2" opacity="0.2" d="M33 128H34" stroke="#1560BD" stroke-width="2" stroke-linecap="round"/>
<path id="Path 4_3" opacity="0.2" d="M120 128H123" stroke="#1560BD" stroke-width="2" stroke-linecap="round"/>
</g>
<g id="Group 36" opacity="0.5">
<rect id="Rectangle" x="16" y="83" width="21" height="2" rx="1" fill="#4A90E2"/>
<rect id="Rectangle_2" x="19" y="107" width="18" height="2" rx="1" fill="#4A90E2"/>
<rect id="Rectangle_3" x="31" y="111" width="6" height="2" rx="1" fill="#4A90E2"/>
<rect id="Rectangle_4" x="26" y="103" width="11" height="2" rx="1" fill="#4A90E2"/>
<rect id="Rectangle_5" x="19" y="87" width="6" height="2" rx="1" fill="#4A90E2"/>
<rect id="Rectangle_6" x="26" y="87" width="11" height="2" rx="1" fill="#4A90E2"/>
<rect id="Rectangle_7" x="17" y="91" width="11" height="2" rx="1" fill="#4A90E2"/>
<rect id="Rectangle_8" x="29" y="91" width="8" height="2" rx="1" fill="#4A90E2"/>
<rect id="Rectangle_9" x="14" y="95" width="10" height="2" rx="1" fill="#4A90E2"/>
<rect id="Rectangle_10" x="23" y="99" width="9" height="2" rx="1" fill="#4A90E2"/>
<rect id="Rectangle_11" x="33" y="99" width="4" height="2" rx="1" fill="#4A90E2"/>
<rect id="Rectangle_12" x="25" y="95" width="12" height="2" rx="1" fill="#4A90E2"/>
<rect id="Rectangle_13" x="19" y="99" width="3" height="2" rx="1" fill="#4A90E2"/>
</g>
<g id="Group 36_2" opacity="0.5">
<rect id="Rectangle_14" x="129" y="70" width="21" height="2" rx="1" transform="rotate(-180 129 70)" fill="#4A90E2"/>
<rect id="Rectangle_15" x="126" y="46" width="18" height="2" rx="1" transform="rotate(-180 126 46)" fill="#4A90E2"/>
<rect id="Rectangle_16" x="114" y="42" width="6" height="2" rx="1" transform="rotate(-180 114 42)" fill="#4A90E2"/>
<rect id="Rectangle_17" x="119" y="50" width="11" height="2" rx="1" transform="rotate(-180 119 50)" fill="#4A90E2"/>
<rect id="Rectangle_18" x="126" y="66" width="6" height="2" rx="1" transform="rotate(-180 126 66)" fill="#4A90E2"/>
<rect id="Rectangle_19" x="119" y="66" width="11" height="2" rx="1" transform="rotate(-180 119 66)" fill="#4A90E2"/>
<rect id="Rectangle_20" x="128" y="62" width="11" height="2" rx="1" transform="rotate(-180 128 62)" fill="#4A90E2"/>
<rect id="Rectangle_21" x="116" y="62" width="8" height="2" rx="1" transform="rotate(-180 116 62)" fill="#4A90E2"/>
<rect id="Rectangle_22" x="131" y="58" width="10" height="2" rx="1" transform="rotate(-180 131 58)" fill="#4A90E2"/>
<rect id="Rectangle_23" x="122" y="54" width="9" height="2" rx="1" transform="rotate(-180 122 54)" fill="#4A90E2"/>
<rect id="Rectangle_24" x="112" y="54" width="4" height="2" rx="1" transform="rotate(-180 112 54)" fill="#4A90E2"/>
<rect id="Rectangle_25" x="120" y="58" width="12" height="2" rx="1" transform="rotate(-180 120 58)" fill="#4A90E2"/>
<rect id="Rectangle_26" x="126" y="54" width="3" height="2" rx="1" transform="rotate(-180 126 54)" fill="#4A90E2"/>
</g>
<path id="Path" opacity="0.3" fill-rule="evenodd" clip-rule="evenodd" d="M56.705 25.1935C63.3216 30.8849 70.7413 33.7306 78.9643 33.7306V52.2756L78.9613 52.82C78.8665 61.5071 76.4537 69.0333 67.6298 76.2473L64.0323 79.176C60.2875 82.2091 57.7996 84.1658 56.5686 85.0462L56.4825 85.108L55.97 84.736C54.1973 83.4243 50.6521 80.5947 45.3345 76.2473C36.4187 68.9582 34.0482 61.3503 34.0007 52.5482L34 33.7306C42.223 33.7306 49.6427 30.8849 56.2592 25.1935L56.4818 25L56.705 25.1935Z" fill="#ABC7E8" stroke="#1560BD" stroke-width="2" stroke-linejoin="round"/>
<g id="Group 57">
<g id="Combined Shape">
<path fill-rule="evenodd" clip-rule="evenodd" d="M67 43C59.8203 43 54 48.8203 54 56V79C54 86.1797 59.8203 92 67 92H69C67.2717 92 65.7483 91.1231 64.8502 89.79C59.8043 88.7903 56 84.3394 56 79V56C56 49.9249 60.9249 45 67 45H89C95.0751 45 100 49.9249 100 56V79C100 84.3394 96.1957 88.7903 91.1498 89.79C90.2517 91.1231 88.7283 92 87 92H89C96.1797 92 102 86.1797 102 79V56C102 48.8203 96.1797 43 89 43H67Z" fill="#D5E5F7"/>
<path d="M64.8502 89.79L65.6796 89.2313L65.4491 88.8893L65.0445 88.8091L64.8502 89.79ZM91.1498 89.79L90.9555 88.8091L90.5509 88.8893L90.3204 89.2313L91.1498 89.79ZM55 56C55 49.3726 60.3726 44 67 44V42C59.268 42 53 48.268 53 56H55ZM55 79V56H53V79H55ZM67 91C60.3726 91 55 85.6274 55 79H53C53 86.732 59.268 93 67 93V91ZM69 91H67V93H69V91ZM69 91C67.6183 91 66.3997 90.3003 65.6796 89.2313L64.0208 90.3487C65.0968 91.946 66.9251 93 69 93V91ZM55 79C55 84.826 59.1507 89.6803 64.6559 90.771L65.0445 88.8091C60.4578 87.9004 57 83.8529 57 79H55ZM55 56V79H57V56H55ZM67 44C60.3726 44 55 49.3726 55 56H57C57 50.4772 61.4772 46 67 46V44ZM89 44H67V46H89V44ZM101 56C101 49.3726 95.6274 44 89 44V46C94.5228 46 99 50.4772 99 56H101ZM101 79V56H99V79H101ZM91.3441 90.771C96.8493 89.6803 101 84.826 101 79H99C99 83.8529 95.5422 87.9004 90.9555 88.8091L91.3441 90.771ZM90.3204 89.2313C89.6003 90.3003 88.3817 91 87 91V93C89.0749 93 90.9032 91.946 91.9792 90.3487L90.3204 89.2313ZM89 91H87V93H89V91ZM101 79C101 85.6274 95.6274 91 89 91V93C96.732 93 103 86.732 103 79H101ZM101 56V79H103V56H101ZM89 44C95.6274 44 101 49.3726 101 56H103C103 48.268 96.732 42 89 42V44ZM67 44H89V42H67V44Z" fill="#1560BD"/>
</g>
<path id="Combined Shape_2" opacity="0.2" d="M69 50H87C91.4183 50 95 53.5817 95 58V85L94.9934 85.3291C94.9448 86.5316 94.6302 87.6873 94.0788 88.731L94.056 88.771L93.9795 88.8116C93.1064 89.2556 92.1787 89.5802 91.2162 89.7769L91.149 89.79L91.2342 89.6609C91.6775 88.957 91.9504 88.134 91.9939 87.2487L91.9997 87.0245L92 58C92 55.3314 89.9045 53.1366 87.2487 53.0061L87.0245 53.0003L69 53C66.3314 53 64.1366 55.0955 64.0061 57.7513L64.0003 57.9755L64 87L64.0048 87.2213C64.0432 88.1016 64.3097 88.9244 64.7475 89.6307L64.85 89.79L64.7838 89.7769C63.8213 89.5801 62.8937 89.2555 62.0207 88.8114L61.943 88.771L61.7768 88.4434C61.2686 87.3802 61 86.2106 61 85V58C61 53.5817 64.5817 50 69 50Z" fill="#1560BD"/>
<path id="Combined Shape_3" d="M89 45H67C63.5472 45 60.4659 46.5909 58.4492 49.0796L58.2511 49.3315L58.124 49.502C60.298 47.4728 63.1573 46.1831 66.3099 46.018L66.6896 46.0036L67 46L89.0125 46.0001L89.3296 46.0041C92.4077 46.0808 95.2163 47.2257 97.4027 49.08L97.6728 49.3155L97.876 49.502L97.7489 49.3315C95.8586 46.8552 92.941 45.2053 89.6321 45.0179L89.2884 45.0037L89 45Z" fill="white"/>
<rect id="Rectangle_27" x="43" y="78" width="70" height="50" rx="4" fill="white" stroke="#1560BD" stroke-width="2"/>
<path id="Rectangle_28" opacity="0.67" d="M44 113H112V124C112 125.657 110.657 127 109 127H47C45.3431 127 44 125.657 44 124V113Z" fill="#4A90E2"/>
<path id="Combined Shape_4" opacity="0.3" d="M78 127V79H109C110.657 79 112 80.3431 112 82V124C112 125.657 110.657 127 109 127H78Z" fill="#4A90E2"/>
<rect id="Rectangle_29" x="43" y="111" width="70" height="2" fill="#1560BD"/>
<path id="Combined Shape_5" opacity="0.56" d="M109 79L109.176 79.0051C110.751 79.0963 112 80.4023 112 82V83.001L111.834 82.8802C111.094 82.3696 110.208 82.0532 109.249 82.0061L109.025 82.0003L47 82L46.7787 82.0048C45.845 82.0456 44.9761 82.3429 44.2421 82.8289L44 83.001V82C44 80.3431 45.3431 79 47 79H109Z" fill="white"/>
</g>
</g>
</svg>
