<?xml version="1.0" encoding="UTF-8"?>
<svg width="161px" height="160px" viewBox="0 0 161 160" version="1.1" xmlns="http://www.w3.org/2000/svg" xmlns:xlink="http://www.w3.org/1999/xlink">
    <title>icon 21</title>
    <defs>
        <rect id="path-1" x="48" y="32" width="58" height="107" rx="6"></rect>
    </defs>
    <g id="Illustration" stroke="none" stroke-width="1" fill="none" fill-rule="evenodd">
        <g id="Group-37" transform="translate(1.500000, 1.000000)">
            <g id="Group" fill="#4A90E2" fill-opacity="0.8" stroke="#1560BD" stroke-width="2">
                <g id="rings">
                    <circle id="Oval" opacity="0.015" cx="79" cy="79" r="79"></circle>
                    <ellipse id="Oval" opacity="0.04" cx="79.4968553" cy="79.5" rx="71.5471698" ry="71.5"></ellipse>
                    <ellipse id="Oval" opacity="0.07" cx="79.4968553" cy="79.5" rx="62.6037736" ry="62.5"></ellipse>
                    <ellipse id="Oval" opacity="0.13" cx="79.4968553" cy="79" rx="43.7232704" ry="44"></ellipse>
                    <ellipse id="Oval" opacity="0.1" cx="79.4968553" cy="79" rx="19.8742138" ry="20"></ellipse>
                </g>
            </g>
            <line x1="31.0934497" y1="139" x2="111" y2="139" id="Path-4" stroke="#1560BD" stroke-width="2" opacity="0.200000003" stroke-linecap="round"></line>
            <line x1="27" y1="139" x2="28" y2="139" id="Path-4" stroke="#1560BD" stroke-width="2" opacity="0.200000003" stroke-linecap="round"></line>
            <line x1="114" y1="139" x2="117" y2="139" id="Path-4" stroke="#1560BD" stroke-width="2" opacity="0.200000003" stroke-linecap="round"></line>
            <g id="Group-36" opacity="0.5" transform="translate(16.000000, 90.000000)" fill="#4A90E2">
                <rect id="Rectangle" x="2" y="0" width="21" height="2" rx="1"></rect>
                <rect id="Rectangle" x="5" y="24" width="18" height="2" rx="1"></rect>
                <rect id="Rectangle" x="17" y="28" width="6" height="2" rx="1"></rect>
                <rect id="Rectangle" x="12" y="20" width="11" height="2" rx="1"></rect>
                <rect id="Rectangle" x="5" y="4" width="6" height="2" rx="1"></rect>
                <rect id="Rectangle" x="12" y="4" width="11" height="2" rx="1"></rect>
                <rect id="Rectangle" x="3" y="8" width="11" height="2" rx="1"></rect>
                <rect id="Rectangle" x="15" y="8" width="8" height="2" rx="1"></rect>
                <rect id="Rectangle" x="0" y="12" width="10" height="2" rx="1"></rect>
                <rect id="Rectangle" x="9" y="16" width="9" height="2" rx="1"></rect>
                <rect id="Rectangle" x="19" y="16" width="4" height="2" rx="1"></rect>
                <rect id="Rectangle" x="11" y="12" width="12" height="2" rx="1"></rect>
                <rect id="Rectangle" x="5" y="16" width="3" height="2" rx="1"></rect>
            </g>
            <g id="Group-36" opacity="0.5" transform="translate(125.500000, 53.000000) scale(-1, 1) translate(-125.500000, -53.000000) translate(114.000000, 38.000000)" fill="#4A90E2">
                <rect id="Rectangle" x="2" y="0" width="21" height="2" rx="1"></rect>
                <rect id="Rectangle" x="5" y="24" width="18" height="2" rx="1"></rect>
                <rect id="Rectangle" x="17" y="28" width="6" height="2" rx="1"></rect>
                <rect id="Rectangle" x="12" y="20" width="11" height="2" rx="1"></rect>
                <rect id="Rectangle" x="5" y="4" width="6" height="2" rx="1"></rect>
                <rect id="Rectangle" x="12" y="4" width="11" height="2" rx="1"></rect>
                <rect id="Rectangle" x="3" y="8" width="11" height="2" rx="1"></rect>
                <rect id="Rectangle" x="15" y="8" width="8" height="2" rx="1"></rect>
                <rect id="Rectangle" x="0" y="12" width="10" height="2" rx="1"></rect>
                <rect id="Rectangle" x="9" y="16" width="9" height="2" rx="1"></rect>
                <rect id="Rectangle" x="19" y="16" width="4" height="2" rx="1"></rect>
                <rect id="Rectangle" x="11" y="12" width="12" height="2" rx="1"></rect>
                <rect id="Rectangle" x="5" y="16" width="3" height="2" rx="1"></rect>
            </g>
            <g id="Rectangle">
                <use fill="#FFFFFF" xlink:href="#path-1"></use>
                <use stroke="#1560BD" stroke-width="2" fill-opacity="0.12" fill="#4A90E2" xlink:href="#path-1"></use>
            </g>
            <polyline id="Path-52" stroke="#1560BD" stroke-width="2" stroke-linecap="round" stroke-linejoin="round" points="57 71 57 59 69 59"></polyline>
            <polyline id="Path-52" stroke="#1560BD" stroke-width="2" stroke-linecap="round" stroke-linejoin="round" transform="translate(92.000000, 65.000000) scale(-1, 1) translate(-92.000000, -65.000000) " points="86 71 86 59 98 59"></polyline>
            <polyline id="Path-52" stroke="#1560BD" stroke-width="2" stroke-linecap="round" stroke-linejoin="round" transform="translate(63.000000, 94.000000) scale(1, -1) translate(-63.000000, -94.000000) " points="57 100 57 88 69 88"></polyline>
            <polyline id="Path-52" stroke="#1560BD" stroke-width="2" stroke-linecap="round" stroke-linejoin="round" transform="translate(92.000000, 94.000000) scale(-1, -1) translate(-92.000000, -94.000000) " points="86 100 86 88 98 88"></polyline>
            <rect id="Rectangle" fill="#4A90E2" x="56" y="130" width="11" height="2" rx="1"></rect>
            <rect id="Rectangle" fill="#4A90E2" x="87" y="130" width="11" height="2" rx="1"></rect>
            <circle id="Oval" fill="#4A90E2" cx="77" cy="79" r="5"></circle>
            <path d="M100,33 C102.418186,33 104.435424,34.7166635 104.899538,36.9978152 L104.899,53.2312515 L49.1,109.030251 L49.098039,37.0098002 C49.557515,34.722679 51.5775809,33 54,33 L100,33 Z" id="Combined-Shape" fill="#4A90E2" fill-rule="nonzero" opacity="0.119999997"></path>
            <path d="M104.899538,52.0020251 L104.899,68.2354614 L49.1,124.034461 L49.098039,52.0140101 L49.098039,52.013 L49.1,115.034461 L104.899,59.2354614 L104.899125,52 C104.899263,52.000675 104.899401,52.00135 104.899538,52.0020251 Z" id="Combined-Shape" fill="#4A90E2" fill-rule="nonzero" opacity="0.119999997"></path>
            <path d="M100,33 L100.21689,33.0046195 C102.518125,33.1028356 104.41657,34.7565003 104.887639,36.941029 L104.899,37.002 L104.800686,36.9054341 C103.608036,35.7807458 102.019471,35.0695993 100.26177,35.004817 L100.018395,35.0001692 L54,35 L53.7604124,35.00403 C52.0105287,35.0629812 50.420199,35.7652413 49.2222454,36.8840324 L49.1,37.002 L49.1123611,36.941029 C49.5981511,34.6882338 51.6019215,33 54,33 L100,33 Z" id="Combined-Shape" fill="#FFFFFF" fill-rule="nonzero"></path>
            <path d="M100,134 L100.21689,134.00462 C102.518125,134.102836 104.41657,135.7565 104.887639,137.941029 L104.899,138.002 L104.800686,137.905434 C103.608036,136.780746 102.019471,136.069599 100.26177,136.004817 L100.018395,136.000169 L54,136 L53.7604124,136.00403 C52.0105287,136.062981 50.420199,136.765241 49.2222454,137.884032 L49.1,138.002 L49.1123611,137.941029 C49.5981511,135.688234 51.6019215,134 54,134 L100,134 Z" id="Combined-Shape" fill="#1560BD" fill-rule="nonzero" opacity="0.200000003" transform="translate(76.999500, 136.001000) scale(1, -1) translate(-76.999500, -136.001000) "></path>
            <path d="M64,32 L91,32 L91,35 C91,36.1045695 90.1045695,37 89,37 L66,37 C64.8954305,37 64,36.1045695 64,35 L64,32 L64,32 Z" id="Rectangle" stroke="#1560BD" stroke-width="2" fill="#4A90E2"></path>
        </g>
    </g>
</svg>