<svg width="159" height="158" viewBox="0 0 159 158" fill="none" xmlns="http://www.w3.org/2000/svg">
<g id="Group 37">
<g id="Rings" opacity="0.4">
<path id="Oval" opacity="0.4" fill-rule="evenodd" clip-rule="evenodd" d="M79.0002 123.131C103.373 123.131 123.131 103.373 123.131 79.0001C123.131 54.6272 103.373 34.869 79.0002 34.869C54.6273 34.869 34.8691 54.6272 34.8691 79.0001C34.8691 103.373 54.6273 123.131 79.0002 123.131Z" fill="#4A90E2" fill-opacity="0.8" stroke="#1560BD" stroke-width="2"/>
<path id="Oval_2" opacity="0.2" fill-rule="evenodd" clip-rule="evenodd" d="M78.9999 141.655C113.603 141.655 141.655 113.604 141.655 79C141.655 44.3965 113.603 16.3448 78.9999 16.3448C44.3964 16.3448 16.3447 44.3965 16.3447 79C16.3447 113.604 44.3964 141.655 78.9999 141.655Z" fill="#4A90E2" fill-opacity="0.8" stroke="#1560BD" stroke-width="2"/>
<path id="Oval_3" opacity="0.1" fill-rule="evenodd" clip-rule="evenodd" d="M79.5452 150.372C119.264 150.372 151.462 118.174 151.462 78.4552C151.462 38.7364 119.264 6.53796 79.5452 6.53796C39.8264 6.53796 7.62793 38.7364 7.62793 78.4552C7.62793 118.174 39.8264 150.372 79.5452 150.372Z" fill="#4A90E2" fill-opacity="0.8" stroke="#1560BD" stroke-width="2"/>
<path id="Oval_4" opacity="0.04" fill-rule="evenodd" clip-rule="evenodd" d="M79 158C122.63 158 158 122.63 158 79C158 35.3695 122.63 0 79 0C35.3695 0 0 35.3695 0 79C0 122.63 35.3695 158 79 158Z" fill="#4A90E2" fill-opacity="0.8" stroke="#1560BD" stroke-width="2"/>
<path id="Oval_5" opacity="0.4" fill-rule="evenodd" clip-rule="evenodd" d="M79.5445 99.1586C90.3769 99.1586 99.1582 90.3772 99.1582 79.5448C99.1582 68.7124 90.3769 59.931 79.5445 59.931C68.7121 59.931 59.9307 68.7124 59.9307 79.5448C59.9307 90.3772 68.7121 99.1586 79.5445 99.1586Z" fill="#4A90E2" fill-opacity="0.8" stroke="#1560BD" stroke-width="2"/>
</g>
<path id="Path 4" opacity="0.2" d="M31.0938 139H111" stroke="#1560BD" stroke-width="2" stroke-linecap="round"/>
<path id="Path 4_2" opacity="0.2" d="M27 139H28" stroke="#1560BD" stroke-width="2" stroke-linecap="round"/>
<path id="Path 4_3" opacity="0.2" d="M114 139H117" stroke="#1560BD" stroke-width="2" stroke-linecap="round"/>
<g id="Group 36" opacity="0.5">
<rect id="Rectangle" x="18" y="90" width="21" height="2" rx="1" fill="#4A90E2"/>
<rect id="Rectangle_2" x="21" y="114" width="18" height="2" rx="1" fill="#4A90E2"/>
<rect id="Rectangle_3" x="33" y="118" width="6" height="2" rx="1" fill="#4A90E2"/>
<rect id="Rectangle_4" x="28" y="110" width="11" height="2" rx="1" fill="#4A90E2"/>
<rect id="Rectangle_5" x="21" y="94" width="6" height="2" rx="1" fill="#4A90E2"/>
<rect id="Rectangle_6" x="28" y="94" width="11" height="2" rx="1" fill="#4A90E2"/>
<rect id="Rectangle_7" x="19" y="98" width="11" height="2" rx="1" fill="#4A90E2"/>
<rect id="Rectangle_8" x="31" y="98" width="8" height="2" rx="1" fill="#4A90E2"/>
<rect id="Rectangle_9" x="16" y="102" width="10" height="2" rx="1" fill="#4A90E2"/>
<rect id="Rectangle_10" x="25" y="106" width="9" height="2" rx="1" fill="#4A90E2"/>
<rect id="Rectangle_11" x="35" y="106" width="4" height="2" rx="1" fill="#4A90E2"/>
<rect id="Rectangle_12" x="27" y="102" width="12" height="2" rx="1" fill="#4A90E2"/>
<rect id="Rectangle_13" x="21" y="106" width="3" height="2" rx="1" fill="#4A90E2"/>
</g>
<g id="Group 36_2" opacity="0.5">
<rect id="Rectangle_14" width="21" height="2" rx="1" transform="matrix(-1 0 0 1 135 38)" fill="#4A90E2"/>
<rect id="Rectangle_15" width="18" height="2" rx="1" transform="matrix(-1 0 0 1 132 62)" fill="#4A90E2"/>
<rect id="Rectangle_16" width="6" height="2" rx="1" transform="matrix(-1 0 0 1 120 66)" fill="#4A90E2"/>
<rect id="Rectangle_17" width="11" height="2" rx="1" transform="matrix(-1 0 0 1 125 58)" fill="#4A90E2"/>
<rect id="Rectangle_18" width="6" height="2" rx="1" transform="matrix(-1 0 0 1 132 42)" fill="#4A90E2"/>
<rect id="Rectangle_19" width="11" height="2" rx="1" transform="matrix(-1 0 0 1 125 42)" fill="#4A90E2"/>
<rect id="Rectangle_20" width="11" height="2" rx="1" transform="matrix(-1 0 0 1 134 46)" fill="#4A90E2"/>
<rect id="Rectangle_21" width="8" height="2" rx="1" transform="matrix(-1 0 0 1 122 46)" fill="#4A90E2"/>
<rect id="Rectangle_22" width="10" height="2" rx="1" transform="matrix(-1 0 0 1 137 50)" fill="#4A90E2"/>
<rect id="Rectangle_23" width="9" height="2" rx="1" transform="matrix(-1 0 0 1 128 54)" fill="#4A90E2"/>
<rect id="Rectangle_24" width="4" height="2" rx="1" transform="matrix(-1 0 0 1 118 54)" fill="#4A90E2"/>
<rect id="Rectangle_25" width="12" height="2" rx="1" transform="matrix(-1 0 0 1 126 50)" fill="#4A90E2"/>
<rect id="Rectangle_26" width="3" height="2" rx="1" transform="matrix(-1 0 0 1 132 54)" fill="#4A90E2"/>
</g>
<g id="Rectangle_27">
<rect x="48" y="32" width="58" height="107" rx="6" fill="white"/>
<rect x="48" y="32" width="58" height="107" rx="6" fill="#4A90E2" fill-opacity="0.12"/>
<rect x="48" y="32" width="58" height="107" rx="6" stroke="#1560BD" stroke-width="2"/>
</g>
<path id="Path 52" d="M57 71V59H69" stroke="#1560BD" stroke-width="2" stroke-linecap="round" stroke-linejoin="round"/>
<path id="Path 52_2" d="M98 71V59H86" stroke="#1560BD" stroke-width="2" stroke-linecap="round" stroke-linejoin="round"/>
<path id="Path 52_3" d="M57 88V100H69" stroke="#1560BD" stroke-width="2" stroke-linecap="round" stroke-linejoin="round"/>
<path id="Path 52_4" d="M98 88V100H86" stroke="#1560BD" stroke-width="2" stroke-linecap="round" stroke-linejoin="round"/>
<rect id="Rectangle_28" x="56" y="130" width="11" height="2" rx="1" fill="#4A90E2"/>
<rect id="Rectangle_29" x="87" y="130" width="11" height="2" rx="1" fill="#4A90E2"/>
<path id="Oval_6" fill-rule="evenodd" clip-rule="evenodd" d="M77 84C79.7614 84 82 81.7614 82 79C82 76.2386 79.7614 74 77 74C74.2386 74 72 76.2386 72 79C72 81.7614 74.2386 84 77 84Z" fill="#4A90E2"/>
<path id="Combined Shape" opacity="0.12" fill-rule="evenodd" clip-rule="evenodd" d="M105 53.8374L49.4539 109.384L49.0004 109.837V38C49.0004 37.1397 49.2177 36.3301 49.6004 35.6231V107.823L104.399 53.0241V35.6213C104.783 36.3286 105 37.1389 105 38V53.8374Z" fill="#4A90E2"/>
<path id="Combined Shape_2" opacity="0.12" fill-rule="evenodd" clip-rule="evenodd" d="M104.399 60.4426L105 59.8416V68.8416L49.4532 124.388L48.9996 124.842V115.842L49.4532 115.388L49.5996 115.242V122.827L104.399 68.0284V60.4426Z" fill="#4A90E2"/>
<path id="Combined Shape_3" d="M99.9996 33L100.216 33.0046C102.518 33.1028 104.416 34.7565 104.887 36.941L104.899 37.002L104.8 36.9054C103.608 35.7807 102.019 35.0696 100.261 35.0048L100.018 35.0002L53.9996 35L53.76 35.004C52.0101 35.063 50.4198 35.7652 49.2219 36.884L49.0996 37.002L49.112 36.941C49.5978 34.6882 51.6015 33 53.9996 33H99.9996Z" fill="white"/>
<path id="Combined Shape_4" opacity="0.2" d="M99.9996 138.002L100.216 137.997C102.518 137.899 104.416 136.246 104.887 134.061L104.899 134L104.8 134.097C103.608 135.221 102.019 135.932 100.261 135.997L100.018 136.002L53.9996 136.002L53.76 135.998C52.0101 135.939 50.4198 135.237 49.2219 134.118L49.0996 134L49.112 134.061C49.5978 136.314 51.6015 138.002 53.9996 138.002H99.9996Z" fill="#1560BD"/>
<path id="Rectangle_30" d="M64 32H91V35C91 36.1046 90.1046 37 89 37H66C64.8954 37 64 36.1046 64 35V32Z" fill="#4A90E2" stroke="#1560BD" stroke-width="2"/>
</g>
</svg>
