<svg width="159" height="158" viewBox="0 0 159 158" fill="none" xmlns="http://www.w3.org/2000/svg">
<g id="Group 8">
<g id="Group 37">
<g id="Rings" opacity="0.4">
<path id="Oval" opacity="0.4" fill-rule="evenodd" clip-rule="evenodd" d="M79.0002 123.131C103.373 123.131 123.131 103.373 123.131 79C123.131 54.6271 103.373 34.869 79.0002 34.869C54.6273 34.869 34.8691 54.6271 34.8691 79C34.8691 103.373 54.6273 123.131 79.0002 123.131Z" fill="#4A90E2" fill-opacity="0.8" stroke="#1560BD" stroke-width="2"/>
<path id="Oval_2" opacity="0.2" fill-rule="evenodd" clip-rule="evenodd" d="M78.9999 141.655C113.603 141.655 141.655 113.604 141.655 79C141.655 44.3965 113.603 16.3448 78.9999 16.3448C44.3964 16.3448 16.3447 44.3965 16.3447 79C16.3447 113.604 44.3964 141.655 78.9999 141.655Z" fill="#4A90E2" fill-opacity="0.8" stroke="#1560BD" stroke-width="2"/>
<path id="Oval_3" opacity="0.1" fill-rule="evenodd" clip-rule="evenodd" d="M79.5452 150.372C119.264 150.372 151.462 118.174 151.462 78.4551C151.462 38.7364 119.264 6.5379 79.5452 6.5379C39.8264 6.5379 7.62793 38.7364 7.62793 78.4551C7.62793 118.174 39.8264 150.372 79.5452 150.372Z" fill="#4A90E2" fill-opacity="0.8" stroke="#1560BD" stroke-width="2"/>
<path id="Oval_4" opacity="0.04" fill-rule="evenodd" clip-rule="evenodd" d="M79 158C122.63 158 158 122.63 158 79C158 35.3695 122.63 0 79 0C35.3695 0 0 35.3695 0 79C0 122.63 35.3695 158 79 158Z" fill="#4A90E2" fill-opacity="0.8" stroke="#1560BD" stroke-width="2"/>
<path id="Oval_5" opacity="0.4" fill-rule="evenodd" clip-rule="evenodd" d="M79.5445 99.1586C90.3769 99.1586 99.1582 90.3772 99.1582 79.5448C99.1582 68.7124 90.3769 59.931 79.5445 59.931C68.7121 59.931 59.9307 68.7124 59.9307 79.5448C59.9307 90.3772 68.7121 99.1586 79.5445 99.1586Z" fill="#4A90E2" fill-opacity="0.8" stroke="#1560BD" stroke-width="2"/>
</g>
</g>
<g id="Group 70" opacity="0.4">
<path id="Path 59" d="M24.9163 24.0046V35.9258" stroke="#4A90E2" stroke-width="2" stroke-linecap="round" stroke-linejoin="round"/>
<path id="Path 59_2" d="M48.2913 24V35.9212" stroke="#4A90E2" stroke-width="2" stroke-linecap="round" stroke-linejoin="round"/>
<path id="Path 59_3" d="M55.6253 24V35.9212" stroke="#4A90E2" stroke-width="2" stroke-linecap="round" stroke-linejoin="round"/>
<path id="Path 59_4" d="M63.4163 24V35.9212" stroke="#4A90E2" stroke-width="2" stroke-linecap="round" stroke-linejoin="round"/>
<path id="Path 59_5" d="M70.7503 24V35.9212" stroke="#4A90E2" stroke-width="2" stroke-linecap="round" stroke-linejoin="round"/>
<path id="Path 59_6" d="M24.9163 43.2546V55.1758" stroke="#4A90E2" stroke-width="2" stroke-linecap="round" stroke-linejoin="round"/>
<path id="Path 59_7" d="M33.1663 43.2546V55.1758" stroke="#4A90E2" stroke-width="2" stroke-linecap="round" stroke-linejoin="round"/>
<path id="Path 59_8" d="M40.5003 43.2546V55.1758" stroke="#4A90E2" stroke-width="2" stroke-linecap="round" stroke-linejoin="round"/>
<path id="Path 59_9" d="M126.666 43.2546V55.1758" stroke="#4A90E2" stroke-width="2" stroke-linecap="round" stroke-linejoin="round"/>
<path id="Path 59_10" d="M134 43.2546V55.1758" stroke="#4A90E2" stroke-width="2" stroke-linecap="round" stroke-linejoin="round"/>
<path id="Path 59_11" d="M95.0413 24V35.9212" stroke="#4A90E2" stroke-width="2" stroke-linecap="round" stroke-linejoin="round"/>
<rect id="Rectangle" x="31.792" y="24.0046" width="9.16667" height="11.9167" rx="3" stroke="#4A90E2" stroke-width="2" stroke-linecap="round" stroke-linejoin="round"/>
<path id="Path 59_12" d="M64.3333 43.2546V55.1758" stroke="#4A90E2" stroke-width="2" stroke-linecap="round" stroke-linejoin="round"/>
<rect id="Rectangle_2" x="47.375" y="43.2546" width="9.16667" height="11.9167" rx="3" stroke="#4A90E2" stroke-width="2" stroke-linecap="round" stroke-linejoin="round"/>
<rect id="Rectangle_3" x="78.542" y="24.0046" width="9.16667" height="11.9167" rx="3" stroke="#4A90E2" stroke-width="2" stroke-linecap="round" stroke-linejoin="round"/>
<rect id="Rectangle_4" x="102.375" y="24.0046" width="9.16667" height="11.9167" rx="3" stroke="#4A90E2" stroke-width="2" stroke-linecap="round" stroke-linejoin="round"/>
<rect id="Rectangle_5" x="71.208" y="43.2546" width="9.16667" height="11.9167" rx="3" stroke="#4A90E2" stroke-width="2" stroke-linecap="round" stroke-linejoin="round"/>
<rect id="Rectangle_6" x="87.708" y="43.2546" width="9.16667" height="11.9167" rx="3" stroke="#4A90E2" stroke-width="2" stroke-linecap="round" stroke-linejoin="round"/>
<path id="Path 59_13" d="M118.416 24V35.9212" stroke="#4A90E2" stroke-width="2" stroke-linecap="round" stroke-linejoin="round"/>
<rect id="Rectangle_7" x="125.75" y="24.0046" width="9.16667" height="11.9167" rx="3" stroke="#4A90E2" stroke-width="2" stroke-linecap="round" stroke-linejoin="round"/>
<path id="Path 59_14" d="M24.9163 121.176V133.097" stroke="#4A90E2" stroke-width="2" stroke-linecap="round" stroke-linejoin="round"/>
<path id="Path 59_15" d="M48.2913 121.171V133.092" stroke="#4A90E2" stroke-width="2" stroke-linecap="round" stroke-linejoin="round"/>
<path id="Path 59_16" d="M55.6253 121.171V133.092" stroke="#4A90E2" stroke-width="2" stroke-linecap="round" stroke-linejoin="round"/>
<path id="Path 59_17" d="M63.4163 121.171V133.092" stroke="#4A90E2" stroke-width="2" stroke-linecap="round" stroke-linejoin="round"/>
<path id="Path 59_18" d="M70.7503 121.171V133.092" stroke="#4A90E2" stroke-width="2" stroke-linecap="round" stroke-linejoin="round"/>
<path id="Path 59_19" d="M95.0413 121.171V133.092" stroke="#4A90E2" stroke-width="2" stroke-linecap="round" stroke-linejoin="round"/>
<rect id="Rectangle_8" x="31.792" y="121.176" width="9.16667" height="11.9167" rx="3" stroke="#4A90E2" stroke-width="2" stroke-linecap="round" stroke-linejoin="round"/>
<rect id="Rectangle_9" x="78.542" y="121.176" width="9.16667" height="11.9167" rx="3" stroke="#4A90E2" stroke-width="2" stroke-linecap="round" stroke-linejoin="round"/>
<rect id="Rectangle_10" x="102.375" y="121.176" width="9.16667" height="11.9167" rx="3" stroke="#4A90E2" stroke-width="2" stroke-linecap="round" stroke-linejoin="round"/>
<path id="Path 59_20" d="M118.416 121.171V133.092" stroke="#4A90E2" stroke-width="2" stroke-linecap="round" stroke-linejoin="round"/>
<rect id="Rectangle_11" x="125.75" y="121.176" width="9.16667" height="11.9167" rx="3" stroke="#4A90E2" stroke-width="2" stroke-linecap="round" stroke-linejoin="round"/>
<path id="Path 59_21" d="M40.9583 62.5091V74.4303" stroke="#4A90E2" stroke-width="2" stroke-linecap="round" stroke-linejoin="round"/>
<path id="Path 59_22" d="M48.2913 62.5046V74.4258" stroke="#4A90E2" stroke-width="2" stroke-linecap="round" stroke-linejoin="round"/>
<path id="Path 59_23" d="M70.7503 62.5046V74.4258" stroke="#4A90E2" stroke-width="2" stroke-linecap="round" stroke-linejoin="round"/>
<path id="Path 59_24" d="M95.0413 62.5046V74.4258" stroke="#4A90E2" stroke-width="2" stroke-linecap="round" stroke-linejoin="round"/>
<rect id="Rectangle_12" x="24.458" y="62.5091" width="9.16667" height="11.9167" rx="3" stroke="#4A90E2" stroke-width="2" stroke-linecap="round" stroke-linejoin="round"/>
<rect id="Rectangle_13" x="78.542" y="62.5091" width="9.16667" height="11.9167" rx="3" stroke="#4A90E2" stroke-width="2" stroke-linecap="round" stroke-linejoin="round"/>
<rect id="Rectangle_14" x="55.625" y="62.5091" width="9.16667" height="11.9167" rx="3" stroke="#4A90E2" stroke-width="2" stroke-linecap="round" stroke-linejoin="round"/>
<rect id="Rectangle_15" x="102.375" y="62.5091" width="9.16667" height="11.9167" rx="3" stroke="#4A90E2" stroke-width="2" stroke-linecap="round" stroke-linejoin="round"/>
<path id="Path 59_25" d="M118.416 62.5046V74.4258" stroke="#4A90E2" stroke-width="2" stroke-linecap="round" stroke-linejoin="round"/>
<rect id="Rectangle_16" x="125.75" y="62.5091" width="9.16667" height="11.9167" rx="3" stroke="#4A90E2" stroke-width="2" stroke-linecap="round" stroke-linejoin="round"/>
<path id="Path 59_26" d="M24.4583 82.6758V94.597" stroke="#4A90E2" stroke-width="2" stroke-linecap="round" stroke-linejoin="round"/>
<path id="Path 59_27" d="M48.2913 82.6712V94.5924" stroke="#4A90E2" stroke-width="2" stroke-linecap="round" stroke-linejoin="round"/>
<path id="Path 59_28" d="M70.7503 82.6712V94.5924" stroke="#4A90E2" stroke-width="2" stroke-linecap="round" stroke-linejoin="round"/>
<path id="Path 59_29" d="M95.0413 82.6712V94.5924" stroke="#4A90E2" stroke-width="2" stroke-linecap="round" stroke-linejoin="round"/>
<rect id="Rectangle_17" x="31.792" y="82.6758" width="9.16667" height="11.9167" rx="3" stroke="#4A90E2" stroke-width="2" stroke-linecap="round" stroke-linejoin="round"/>
<rect id="Rectangle_18" x="78.542" y="82.6758" width="9.16667" height="11.9167" rx="3" stroke="#4A90E2" stroke-width="2" stroke-linecap="round" stroke-linejoin="round"/>
<rect id="Rectangle_19" x="55.625" y="82.6758" width="9.16667" height="11.9167" rx="3" stroke="#4A90E2" stroke-width="2" stroke-linecap="round" stroke-linejoin="round"/>
<rect id="Rectangle_20" x="102.375" y="82.6758" width="9.16667" height="11.9167" rx="3" stroke="#4A90E2" stroke-width="2" stroke-linecap="round" stroke-linejoin="round"/>
<path id="Path 59_30" d="M118.416 82.6712V94.5924" stroke="#4A90E2" stroke-width="2" stroke-linecap="round" stroke-linejoin="round"/>
<rect id="Rectangle_21" x="125.75" y="82.6758" width="9.16667" height="11.9167" rx="3" stroke="#4A90E2" stroke-width="2" stroke-linecap="round" stroke-linejoin="round"/>
<path id="Path 59_31" d="M102.833 43.2546V55.1758" stroke="#4A90E2" stroke-width="2" stroke-linecap="round" stroke-linejoin="round"/>
<rect id="Rectangle_22" x="110.625" y="43.2546" width="9.16667" height="11.9167" rx="3" stroke="#4A90E2" stroke-width="2" stroke-linecap="round" stroke-linejoin="round"/>
<path id="Path 59_32" d="M24.9163 101.921V113.842" stroke="#4A90E2" stroke-width="2" stroke-linecap="round" stroke-linejoin="round"/>
<path id="Path 59_33" d="M33.1663 101.921V113.842" stroke="#4A90E2" stroke-width="2" stroke-linecap="round" stroke-linejoin="round"/>
<path id="Path 59_34" d="M95.0413 101.921V113.842" stroke="#4A90E2" stroke-width="2" stroke-linecap="round" stroke-linejoin="round"/>
<path id="Path 59_35" d="M126.666 101.921V113.842" stroke="#4A90E2" stroke-width="2" stroke-linecap="round" stroke-linejoin="round"/>
<path id="Path 59_36" d="M134 101.921V113.842" stroke="#4A90E2" stroke-width="2" stroke-linecap="round" stroke-linejoin="round"/>
<path id="Path 59_37" d="M56.0833 101.921V113.842" stroke="#4A90E2" stroke-width="2" stroke-linecap="round" stroke-linejoin="round"/>
<rect id="Rectangle_23" x="39.125" y="101.921" width="9.16667" height="11.9167" rx="3" stroke="#4A90E2" stroke-width="2" stroke-linecap="round" stroke-linejoin="round"/>
<rect id="Rectangle_24" x="62.958" y="101.921" width="9.16667" height="11.9167" rx="3" stroke="#4A90E2" stroke-width="2" stroke-linecap="round" stroke-linejoin="round"/>
<path id="Path 59_38" d="M102.833 101.921V113.842" stroke="#4A90E2" stroke-width="2" stroke-linecap="round" stroke-linejoin="round"/>
<path id="Path 59_39" d="M79.0003 101.921V113.842" stroke="#4A90E2" stroke-width="2" stroke-linecap="round" stroke-linejoin="round"/>
<path id="Path 59_40" d="M86.7913 101.921V113.842" stroke="#4A90E2" stroke-width="2" stroke-linecap="round" stroke-linejoin="round"/>
<rect id="Rectangle_25" x="110.625" y="101.921" width="9.16667" height="11.9167" rx="3" stroke="#4A90E2" stroke-width="2" stroke-linecap="round" stroke-linejoin="round"/>
</g>
<g id="Group 71">
<g id="Group 69">
<g id="Group 68">
<rect id="Rectangle_26" x="102.222" y="109.541" width="7.52137" height="12.2222" transform="rotate(-45 102.222 109.541)" fill="#E5E5EA" stroke="#1560BD" stroke-width="2"/>
<rect id="Rectangle_27" opacity="0.2" x="103.552" y="109.541" width="2.82051" height="6.5812" transform="rotate(-45 103.552 109.541)" fill="#1560BD"/>
<rect id="Rectangle_28" x="106.211" y="117.518" width="13.1624" height="44.188" rx="5" transform="rotate(-45 106.211 117.518)" fill="#4A90E2" stroke="#1560BD" stroke-width="2"/>
<path id="Combined Shape" opacity="0.3" d="M111.529 113.529L141.445 143.445L140.115 144.775C138.647 146.244 136.266 146.244 134.797 144.775L110.199 120.177L110.07 120.041C108.732 118.565 108.775 116.283 110.199 114.859L111.529 113.529Z" fill="#1560BD"/>
</g>
<g id="Group 65">
<path id="Oval_6" fill-rule="evenodd" clip-rule="evenodd" d="M77.4275 112.333C95.6009 112.333 110.333 97.6008 110.333 79.4273C110.333 61.2539 95.6009 46.5214 77.4275 46.5214C59.254 46.5214 44.5215 61.2539 44.5215 79.4273C44.5215 97.6008 59.254 112.333 77.4275 112.333Z" fill="url(#paint0_linear)" stroke="#1560BD" stroke-width="2"/>
<path id="Combined Shape_2" fill-rule="evenodd" clip-rule="evenodd" d="M97.7946 53.5802C92.1922 49.1595 85.1179 46.5214 77.4275 46.5214C59.254 46.5214 44.5215 61.2539 44.5215 79.4273C44.5215 87.0869 47.1385 94.1353 51.5272 99.727L97.7946 53.5802ZM62.223 108.618C59.6872 107.294 57.3454 105.65 55.2514 103.739L101.636 57.1393C103.557 59.2248 105.212 61.5591 106.547 64.0884L62.223 108.618Z" fill="#4A90E2" fill-opacity="0.12"/>
<g id="Combined Shape_3">
<path fill-rule="evenodd" clip-rule="evenodd" d="M117.855 79.4273C117.855 101.755 99.7548 119.855 77.4273 119.855C55.0999 119.855 37 101.755 37 79.4273C37 57.0999 55.0999 39 77.4273 39C99.7548 39 117.855 57.0999 117.855 79.4273ZM110.333 79.4273C110.333 97.6008 95.6008 112.333 77.4273 112.333C59.2539 112.333 44.5214 97.6008 44.5214 79.4273C44.5214 61.2539 59.2539 46.5214 77.4273 46.5214C95.6008 46.5214 110.333 61.2539 110.333 79.4273Z" fill="url(#paint1_linear)"/>
<path d="M77.4273 120.855C100.307 120.855 118.855 102.307 118.855 79.4273H116.855C116.855 101.202 99.2025 118.855 77.4273 118.855V120.855ZM36 79.4273C36 102.307 54.5477 120.855 77.4273 120.855V118.855C55.6522 118.855 38 101.202 38 79.4273H36ZM77.4273 38C54.5477 38 36 56.5477 36 79.4273H38C38 57.6522 55.6522 40 77.4273 40V38ZM118.855 79.4273C118.855 56.5477 100.307 38 77.4273 38V40C99.2025 40 116.855 57.6522 116.855 79.4273H118.855ZM77.4273 113.333C96.1531 113.333 111.333 98.1531 111.333 79.4273H109.333C109.333 97.0485 95.0485 111.333 77.4273 111.333V113.333ZM43.5214 79.4273C43.5214 98.1531 58.7016 113.333 77.4273 113.333V111.333C59.8062 111.333 45.5214 97.0485 45.5214 79.4273H43.5214ZM77.4273 45.5214C58.7016 45.5214 43.5214 60.7016 43.5214 79.4273H45.5214C45.5214 61.8062 59.8062 47.5214 77.4273 47.5214V45.5214ZM111.333 79.4273C111.333 60.7016 96.1531 45.5214 77.4273 45.5214V47.5214C95.0485 47.5214 109.333 61.8062 109.333 79.4273H111.333Z" fill="#1560BD"/>
</g>
</g>
</g>
<g id="Group 67">
<g id="Group 66">
<path id="Path 55" d="M72.3301 61.4339C72.3301 61.4339 68.4914 66.1867 72.6318 71.534" stroke="#1560BD" stroke-width="2" stroke-linecap="round"/>
<path id="Path 56" d="M58.8696 75.5646L61.7591 73.9898C61.7591 73.9898 65.6801 71.7813 69.4664 74.6995" stroke="#1560BD" stroke-width="2" stroke-linecap="round"/>
<path id="Path 57" d="M56.6644 84.7588L59.0148 82.4084C59.0148 82.4084 62.2812 79.5513 65.4797 81.3091" stroke="#1560BD" stroke-width="2" stroke-linecap="round"/>
<path id="Path 58" d="M86.9678 61.6301C87.5321 62.1944 88.532 64.5655 86.5188 65.5854" stroke="#1560BD" stroke-width="2" stroke-linecap="round"/>
</g>
<g id="Group 66_2">
<path id="Path 55_2" d="M96.9629 86.0662C96.9629 86.0662 92.2101 89.9049 86.8628 85.7645" stroke="#1560BD" stroke-width="2" stroke-linecap="round"/>
<path id="Path 56_2" d="M82.8325 99.5268L84.4073 96.6372C84.4073 96.6372 86.6158 92.7163 83.6976 88.9299" stroke="#1560BD" stroke-width="2" stroke-linecap="round"/>
<path id="Path 57_2" d="M73.6381 101.732L75.9884 99.3813C75.9884 99.3813 78.8456 96.115 77.0877 92.9165" stroke="#1560BD" stroke-width="2" stroke-linecap="round"/>
<path id="Path 58_2" d="M96.7666 71.4291C96.2023 70.8648 93.8312 69.8649 92.8113 71.878" stroke="#1560BD" stroke-width="2" stroke-linecap="round"/>
</g>
<path id="Oval_7" fill-rule="evenodd" clip-rule="evenodd" d="M80.6408 78.2353C84.1266 81.7211 89.213 82.2863 92.0016 79.4976C94.7902 76.709 94.2251 71.6226 90.7393 68.1368C87.2535 64.651 82.1671 64.0859 79.3785 66.8745C76.5899 69.6631 77.155 74.7496 80.6408 78.2353Z" fill="#E5E5EA" stroke="#1560BD" stroke-width="2"/>
<path id="Oval_8" fill-rule="evenodd" clip-rule="evenodd" d="M65.656 93.2202C70.9208 98.485 81.5528 94.7762 87.7647 88.5643C91.6203 84.7087 90.8389 77.6762 86.0194 72.8567C81.1999 68.0373 74.1674 67.2559 70.3118 71.1115C64.0999 77.3234 60.3911 87.9553 65.656 93.2202Z" fill="#4A90E2" stroke="#1560BD" stroke-width="2"/>
<path id="Path 54" d="M65.6562 93.2202L85.6903 73.1861" stroke="#1560BD" stroke-width="2" stroke-linecap="round"/>
</g>
</g>
</g>
<defs>
<linearGradient id="paint0_linear" x1="45.0035" y1="47.4854" x2="45.0035" y2="112.333" gradientUnits="userSpaceOnUse">
<stop stop-color="#F1F9FF"/>
<stop offset="1" stop-color="#A5C6ED"/>
</linearGradient>
<linearGradient id="paint1_linear" x1="37" y1="39" x2="37" y2="119.855" gradientUnits="userSpaceOnUse">
<stop stop-color="white"/>
<stop offset="1" stop-color="#D8D8D8"/>
</linearGradient>
</defs>
</svg>
