<?xml version="1.0" encoding="UTF-8"?>
<svg width="160px" height="160px" viewBox="0 0 160 160" version="1.1" xmlns="http://www.w3.org/2000/svg" xmlns:xlink="http://www.w3.org/1999/xlink">
    <title>icon 12</title>
    <defs>
        <linearGradient x1="50%" y1="1.46484375%" x2="50%" y2="100%" id="linearGradient-1">
            <stop stop-color="#F1F9FF" offset="0%"></stop>
            <stop stop-color="#A5C6ED" offset="100%"></stop>
        </linearGradient>
        <linearGradient x1="50%" y1="0%" x2="50%" y2="100%" id="linearGradient-2">
            <stop stop-color="#FFFFFF" offset="0%"></stop>
            <stop stop-color="#D8D8D8" offset="100%"></stop>
        </linearGradient>
    </defs>
    <g id="Illustration" stroke="none" stroke-width="1" fill="none" fill-rule="evenodd">
        <g id="Group-8" transform="translate(1.000000, 1.000000)">
            <g id="Group-37" fill="#4A90E2" fill-opacity="0.8" stroke="#1560BD" stroke-width="2">
                <g id="rings">
                    <circle id="Oval" opacity="0.015" cx="79" cy="79" r="79"></circle>
                    <ellipse id="Oval" opacity="0.04" cx="79.4968553" cy="79.5" rx="71.5471698" ry="71.5"></ellipse>
                    <ellipse id="Oval" opacity="0.07" cx="79.4968553" cy="79.5" rx="62.6037736" ry="62.5"></ellipse>
                    <ellipse id="Oval" opacity="0.13" cx="79.4968553" cy="79" rx="43.7232704" ry="44"></ellipse>
                    <ellipse id="Oval" opacity="0.1" cx="79.4968553" cy="79" rx="19.8742138" ry="20"></ellipse>
                </g>
            </g>
            <g id="Group-70" opacity="0.400000006" transform="translate(24.000000, 24.000000)" stroke="#4A90E2" stroke-linecap="round" stroke-linejoin="round" stroke-width="2">
                <line x1="0.916666667" y1="0.00454981467" x2="0.916666667" y2="11.9257663" id="Path-59"></line>
                <line x1="24.2916667" y1="3.74515234e-14" x2="24.2916667" y2="11.9212165" id="Path-59"></line>
                <line x1="31.625" y1="3.74515234e-14" x2="31.625" y2="11.9212165" id="Path-59"></line>
                <line x1="39.4166667" y1="3.74515234e-14" x2="39.4166667" y2="11.9212165" id="Path-59"></line>
                <line x1="46.75" y1="3.74515234e-14" x2="46.75" y2="11.9212165" id="Path-59"></line>
                <line x1="0.916666667" y1="19.2545498" x2="0.916666667" y2="31.1757663" id="Path-59"></line>
                <line x1="9.16666667" y1="19.2545498" x2="9.16666667" y2="31.1757663" id="Path-59"></line>
                <line x1="16.5" y1="19.2545498" x2="16.5" y2="31.1757663" id="Path-59"></line>
                <line x1="102.666667" y1="19.2545498" x2="102.666667" y2="31.1757663" id="Path-59"></line>
                <line x1="110" y1="19.2545498" x2="110" y2="31.1757663" id="Path-59"></line>
                <line x1="71.0416667" y1="3.74515234e-14" x2="71.0416667" y2="11.9212165" id="Path-59"></line>
                <rect id="Rectangle" x="7.79166667" y="0.00454981467" width="9.16666667" height="11.9166667" rx="3"></rect>
                <line x1="40.3333333" y1="19.2545498" x2="40.3333333" y2="31.1757663" id="Path-59"></line>
                <rect id="Rectangle" x="23.375" y="19.2545498" width="9.16666667" height="11.9166667" rx="3"></rect>
                <rect id="Rectangle" x="54.5416667" y="0.00454981467" width="9.16666667" height="11.9166667" rx="3"></rect>
                <rect id="Rectangle" x="78.375" y="0.00454981467" width="9.16666667" height="11.9166667" rx="3"></rect>
                <rect id="Rectangle" x="47.2083333" y="19.2545498" width="9.16666667" height="11.9166667" rx="3"></rect>
                <rect id="Rectangle" x="63.7083333" y="19.2545498" width="9.16666667" height="11.9166667" rx="3"></rect>
                <line x1="94.4166667" y1="3.74515234e-14" x2="94.4166667" y2="11.9212165" id="Path-59"></line>
                <rect id="Rectangle" x="101.75" y="0.00454981467" width="9.16666667" height="11.9166667" rx="3"></rect>
                <line x1="0.916666667" y1="97.1757663" x2="0.916666667" y2="109.096983" id="Path-59"></line>
                <line x1="24.2916667" y1="97.1712165" x2="24.2916667" y2="109.092433" id="Path-59"></line>
                <line x1="31.625" y1="97.1712165" x2="31.625" y2="109.092433" id="Path-59"></line>
                <line x1="39.4166667" y1="97.1712165" x2="39.4166667" y2="109.092433" id="Path-59"></line>
                <line x1="46.75" y1="97.1712165" x2="46.75" y2="109.092433" id="Path-59"></line>
                <line x1="71.0416667" y1="97.1712165" x2="71.0416667" y2="109.092433" id="Path-59"></line>
                <rect id="Rectangle" x="7.79166667" y="97.1757663" width="9.16666667" height="11.9166667" rx="3"></rect>
                <rect id="Rectangle" x="54.5416667" y="97.1757663" width="9.16666667" height="11.9166667" rx="3"></rect>
                <rect id="Rectangle" x="78.375" y="97.1757663" width="9.16666667" height="11.9166667" rx="3"></rect>
                <line x1="94.4166667" y1="97.1712165" x2="94.4166667" y2="109.092433" id="Path-59"></line>
                <rect id="Rectangle" x="101.75" y="97.1757663" width="9.16666667" height="11.9166667" rx="3"></rect>
                <line x1="16.9583333" y1="38.5090996" x2="16.9583333" y2="50.4303161" id="Path-59"></line>
                <line x1="24.2916667" y1="38.5045498" x2="24.2916667" y2="50.4257663" id="Path-59"></line>
                <line x1="46.75" y1="38.5045498" x2="46.75" y2="50.4257663" id="Path-59"></line>
                <line x1="71.0416667" y1="38.5045498" x2="71.0416667" y2="50.4257663" id="Path-59"></line>
                <rect id="Rectangle" x="0.458333333" y="38.5090996" width="9.16666667" height="11.9166667" rx="3"></rect>
                <rect id="Rectangle" x="54.5416667" y="38.5090996" width="9.16666667" height="11.9166667" rx="3"></rect>
                <rect id="Rectangle" x="31.625" y="38.5090996" width="9.16666667" height="11.9166667" rx="3"></rect>
                <rect id="Rectangle" x="78.375" y="38.5090996" width="9.16666667" height="11.9166667" rx="3"></rect>
                <line x1="94.4166667" y1="38.5045498" x2="94.4166667" y2="50.4257663" id="Path-59"></line>
                <rect id="Rectangle" x="101.75" y="38.5090996" width="9.16666667" height="11.9166667" rx="3"></rect>
                <line x1="0.458333333" y1="58.6757663" x2="0.458333333" y2="70.5969828" id="Path-59"></line>
                <line x1="24.2916667" y1="58.6712165" x2="24.2916667" y2="70.592433" id="Path-59"></line>
                <line x1="46.75" y1="58.6712165" x2="46.75" y2="70.592433" id="Path-59"></line>
                <line x1="71.0416667" y1="58.6712165" x2="71.0416667" y2="70.592433" id="Path-59"></line>
                <rect id="Rectangle" x="7.79166667" y="58.6757663" width="9.16666667" height="11.9166667" rx="3"></rect>
                <rect id="Rectangle" x="54.5416667" y="58.6757663" width="9.16666667" height="11.9166667" rx="3"></rect>
                <rect id="Rectangle" x="31.625" y="58.6757663" width="9.16666667" height="11.9166667" rx="3"></rect>
                <rect id="Rectangle" x="78.375" y="58.6757663" width="9.16666667" height="11.9166667" rx="3"></rect>
                <line x1="94.4166667" y1="58.6712165" x2="94.4166667" y2="70.592433" id="Path-59"></line>
                <rect id="Rectangle" x="101.75" y="58.6757663" width="9.16666667" height="11.9166667" rx="3"></rect>
                <line x1="78.8333333" y1="19.2545498" x2="78.8333333" y2="31.1757663" id="Path-59"></line>
                <rect id="Rectangle" x="86.625" y="19.2545498" width="9.16666667" height="11.9166667" rx="3"></rect>
                <line x1="0.916666667" y1="77.9212165" x2="0.916666667" y2="89.842433" id="Path-59"></line>
                <line x1="9.16666667" y1="77.9212165" x2="9.16666667" y2="89.842433" id="Path-59"></line>
                <line x1="71.0416667" y1="77.9212165" x2="71.0416667" y2="89.842433" id="Path-59"></line>
                <line x1="102.666667" y1="77.9212165" x2="102.666667" y2="89.842433" id="Path-59"></line>
                <line x1="110" y1="77.9212165" x2="110" y2="89.842433" id="Path-59"></line>
                <line x1="32.0833333" y1="77.9212165" x2="32.0833333" y2="89.842433" id="Path-59"></line>
                <rect id="Rectangle" x="15.125" y="77.9212165" width="9.16666667" height="11.9166667" rx="3"></rect>
                <rect id="Rectangle" x="38.9583333" y="77.9212165" width="9.16666667" height="11.9166667" rx="3"></rect>
                <line x1="78.8333333" y1="77.9212165" x2="78.8333333" y2="89.842433" id="Path-59"></line>
                <line x1="55" y1="77.9212165" x2="55" y2="89.842433" id="Path-59"></line>
                <line x1="62.7916667" y1="77.9212165" x2="62.7916667" y2="89.842433" id="Path-59"></line>
                <rect id="Rectangle" x="86.625" y="77.9212165" width="9.16666667" height="11.9166667" rx="3"></rect>
            </g>
            <g id="Group-71" transform="translate(37.000000, 39.000000)">
                <g id="Group-69">
                    <g id="Group-68" transform="translate(86.495726, 86.495726) rotate(-45.000000) translate(-86.495726, -86.495726) translate(79.914530, 60.170940)">
                        <rect id="Rectangle" stroke="#1560BD" stroke-width="2" fill="#E5E5EA" x="2.82051282" y="0" width="7.52136752" height="12.2222222"></rect>
                        <rect id="Rectangle" fill="#1560BD" opacity="0.200000003" x="3.76068376" y="0.94017094" width="2.82051282" height="6.58119658"></rect>
                        <rect id="Rectangle" stroke="#1560BD" stroke-width="2" fill="#4A90E2" x="0" y="8.46153846" width="13.1623932" height="44.1880342" rx="5"></rect>
                        <path d="M6.58119658,9.4017094 L6.58119658,51.7094017 L4.7008547,51.7094017 C2.62388641,51.7094017 0.94017094,50.0256862 0.94017094,47.9487179 L0.94017094,13.1623932 L0.944773366,12.9746971 C1.04257542,10.9849276 2.68682484,9.4017094 4.7008547,9.4017094 L6.58119658,9.4017094 Z" id="Combined-Shape" fill="#1560BD" fill-rule="nonzero" opacity="0.300000012"></path>
                    </g>
                    <g id="Group-65">
                        <circle id="Oval" stroke="#1560BD" stroke-width="2" fill="url(#linearGradient-1)" cx="40.4273504" cy="40.4273504" r="32.9059829"></circle>
                        <path d="M64.6356415,18.1389275 C66.5567687,20.2244699 68.2118357,22.5588771 69.5469894,25.0882957 L25.2227183,69.6175472 C22.687036,68.2940524 20.3453177,66.6498481 18.2513773,64.7387483 Z M40.4273504,7.52136752 C48.1180336,7.52136752 55.1924994,10.1597075 60.7950224,14.5806619 L14.5277213,60.7277537 C10.138653,55.1359209 7.52136752,48.0872855 7.52136752,40.4273504 C7.52136752,22.2538779 22.2538779,7.52136752 40.4273504,7.52136752 Z" id="Combined-Shape" fill-opacity="0.12" fill="#4A90E2"></path>
                        <path d="M40.4273504,0 C62.7547595,0 80.8547009,18.0999413 80.8547009,40.4273504 C80.8547009,62.7547595 62.7547595,80.8547009 40.4273504,80.8547009 C18.0999413,80.8547009 0,62.7547595 0,40.4273504 C0,18.0999413 18.0999413,0 40.4273504,0 Z M40.4273504,7.52136752 C22.2538779,7.52136752 7.52136752,22.2538779 7.52136752,40.4273504 C7.52136752,58.600823 22.2538779,73.3333333 40.4273504,73.3333333 C58.600823,73.3333333 73.3333333,58.600823 73.3333333,40.4273504 C73.3333333,22.2538779 58.600823,7.52136752 40.4273504,7.52136752 Z" id="Combined-Shape" stroke="#1560BD" stroke-width="2" fill="url(#linearGradient-2)"></path>
                    </g>
                </g>
                <g id="Group-67" transform="translate(41.490552, 41.022810) rotate(-315.000000) translate(-41.490552, -41.022810) translate(23.990552, 22.022810)" stroke="#1560BD" stroke-width="2">
                    <g id="Group-66" stroke-linecap="round">
                        <path d="M-1.51334142e-13,10.2112839 C0.430929533,14.2613459 2.88266835,16.5708429 7.35521644,17.1397747" id="Path-55"></path>
                        <path d="M0.47386912,29.7212737 L1.40349898,26.5644642 C2.21075633,23.6750018 4.19466215,22.0256477 7.35521644,21.6164019" id="Path-56"></path>
                        <path d="M5.41603128,37.78161 L5.41603128,34.4576917 C5.60893994,31.5710379 6.87361709,29.788144 9.21006273,29.10901" id="Path-57"></path>
                        <path d="M10.4887552,-3.48395148e-14 C11.2867844,-3.48395148e-14 13.6704404,0.969551385 12.9681025,3.1142801" id="Path-58"></path>
                    </g>
                    <g id="Group-66" transform="translate(27.835386, 19.000000) scale(-1, 1) translate(-27.835386, -19.000000) translate(20.835386, 0.000000)" stroke-linecap="round">
                        <path d="M-1.51334142e-13,10.2112839 C0.430929533,14.2613459 2.88266835,16.5708429 7.35521644,17.1397747" id="Path-55"></path>
                        <path d="M0.47386912,29.7212737 L1.40349898,26.5644642 C2.21075633,23.6750018 4.19466215,22.0256477 7.35521644,21.6164019" id="Path-56"></path>
                        <path d="M5.41603128,37.78161 L5.41603128,34.4576917 C5.60893994,31.5710379 6.87361709,29.788144 9.21006273,29.10901" id="Path-57"></path>
                        <path d="M10.4887552,-3.48395148e-14 C11.2867844,-3.48395148e-14 13.6704404,0.969551385 12.9681025,3.1142801" id="Path-58"></path>
                    </g>
                    <ellipse id="Oval" fill="#E5E5EA" cx="17.7570652" cy="9.07428133" rx="8.92590506" ry="7.14072405"></ellipse>
                    <path d="M17.7570652,37.4068124 C25.2027099,37.4068124 30.0980992,27.2663992 30.0980992,18.4814091 C30.0980992,13.0287972 24.5728301,8.60858193 17.7570652,8.60858193 C10.9413004,8.60858193 5.41603128,13.0287972 5.41603128,18.4814091 C5.41603128,27.2663992 10.3114206,37.4068124 17.7570652,37.4068124 Z" id="Oval" fill="#4A90E2"></path>
                    <line x1="17.7570652" y1="37.4068124" x2="17.7570652" y2="9.07428133" id="Path-54" stroke-linecap="round"></line>
                </g>
            </g>
        </g>
    </g>
</svg>