<svg width="48" height="48" viewBox="0 0 48 48" fill="none" xmlns="http://www.w3.org/2000/svg">
<g id="Social / Icon active / Bitcointalk">
<path id="Oval" fill-rule="evenodd" clip-rule="evenodd" d="M24 48C37.2548 48 48 37.2548 48 24C48 10.7452 37.2548 0 24 0C10.7452 0 0 10.7452 0 24C0 37.2548 10.7452 48 24 48Z" fill="white"/>
<g id="Bitcoin">
<path id="Combined Shape" fill-rule="evenodd" clip-rule="evenodd" d="M20.6126 38.0184C28.1135 39.8887 35.7098 35.3242 37.5797 27.8242C39.4496 20.3237 34.8856 12.726 27.3851 10.8562C19.8863 8.9863 12.29 13.5512 10.421 21.0521C8.55026 28.5517 13.1147 36.1485 20.6126 38.0184ZM27.0937 18.9105C29.0331 19.5786 30.4515 20.58 30.1728 22.4429C29.9711 23.8066 29.2151 24.4668 28.2115 24.6982C29.5896 25.4157 30.2909 26.516 29.6229 28.4235C28.7938 30.7926 26.8242 30.9925 24.2049 30.4969L23.5692 33.0444L22.0331 32.6616L22.6605 30.1482C22.2624 30.0493 21.8555 29.9443 21.4364 29.8305L20.8068 32.3558L19.2725 31.973L19.9082 29.4206C19.7648 29.3839 19.6205 29.3463 19.4752 29.3084L19.4751 29.3084C19.2569 29.2514 19.0364 29.1939 18.8131 29.138L16.8142 28.6397L17.5768 26.8814C17.5768 26.8814 18.7086 27.1824 18.6933 27.16C19.1281 27.2677 19.3211 26.9842 19.3972 26.7952L20.4017 22.768C20.4394 22.777 20.4763 22.7863 20.5119 22.7952L20.512 22.7952L20.564 22.8082C20.5028 22.7837 20.4472 22.768 20.4043 22.757L21.1209 19.8822C21.1398 19.5559 21.0273 19.1442 20.4052 18.9889C20.4293 18.9727 19.2896 18.7115 19.2896 18.7115L19.6982 17.0709L21.8166 17.5998L21.8148 17.6077C22.1333 17.6869 22.4614 17.7621 22.7957 17.8382L23.4253 15.3156L24.9604 15.6984L24.3436 18.1716C24.7557 18.2657 25.1704 18.3606 25.5743 18.4612L26.1868 16.0042L27.7228 16.387L27.0937 18.9105ZM22.235 28.0598C23.4884 28.3909 26.2277 29.1144 26.6632 27.3644C27.1095 25.575 24.4528 24.9789 23.1565 24.688L23.1564 24.688C23.0116 24.6555 22.8837 24.6268 22.7791 24.6007L21.9356 27.9821C22.0215 28.0035 22.1223 28.0301 22.235 28.0598ZM27.1383 22.4154C26.7413 24.0059 24.4619 23.3976 23.4169 23.1188L23.4167 23.1187C23.3218 23.0934 23.2371 23.0708 23.1649 23.0528L23.9297 19.9859C24.0173 20.0078 24.1247 20.0315 24.2463 20.0585L24.2464 20.0585C25.3284 20.298 27.5438 20.7884 27.1383 22.4154Z" fill="#F7931A"/>
</g>
</g>
</svg>
