<svg width="48" height="48" viewBox="0 0 48 48" fill="none" xmlns="http://www.w3.org/2000/svg">
<g id="Social / Icon active / Facebook">
<path id="Oval" fill-rule="evenodd" clip-rule="evenodd" d="M24 48C37.2548 48 48 37.2548 48 24C48 10.7452 37.2548 0 24 0C10.7452 0 0 10.7452 0 24C0 37.2548 10.7452 48 24 48Z" fill="white"/>
<g id="023-facebook">
<path id="Path" d="M28.4991 14.6492H31.0553V10.1972C30.6143 10.1365 29.0976 10 27.3313 10C23.6458 10 21.1211 12.3182 21.1211 16.5788V20.5H17.0541V25.477H21.1211V38H26.1074V25.4782H30.0099L30.6294 20.5012H26.1063V17.0723C26.1074 15.6338 26.4948 14.6492 28.4991 14.6492Z" fill="#797C80"/>
</g>
</g>
</svg>
