<svg width="48" height="48" viewBox="0 0 48 48" fill="none" xmlns="http://www.w3.org/2000/svg">
<g id="Social / Icon active / Medium">
<path id="Oval" fill-rule="evenodd" clip-rule="evenodd" d="M24 48C37.2548 48 48 37.2548 48 24C48 10.7452 37.2548 0 24 0C10.7452 0 0 10.7452 0 24C0 37.2548 10.7452 48 24 48Z" fill="white"/>
<path id="Path" d="M35.7658 15.6416L38 13.5043V13.0364H30.2603L24.7443 26.7658L18.4688 13.0364H10.3535V13.5043L12.9633 16.6461C13.2177 16.8783 13.3507 17.2178 13.3168 17.5596V29.9064C13.3973 30.3509 13.2527 30.8083 12.94 31.1314L10 34.6944V35.1564H18.3358V34.6886L15.3958 31.1314C15.0773 30.8071 14.9268 30.3579 14.991 29.9064V19.2268L22.3083 35.1623H23.1588L29.4507 19.2268V31.9213C29.4507 32.2561 29.4507 32.3249 29.2313 32.5443L26.968 34.7341V35.2031H37.9487V34.7353L35.767 32.5991C35.5757 32.4544 35.4765 32.2118 35.5173 31.9761V16.2646C35.4765 16.0278 35.5745 15.7851 35.7658 15.6416Z" fill="#797C80"/>
</g>
</svg>
