<svg width="48" height="48" viewBox="0 0 48 48" fill="none" xmlns="http://www.w3.org/2000/svg">
<g id="Social / Icon active / Reddit">
<path id="Oval" fill-rule="evenodd" clip-rule="evenodd" d="M24 48C37.2548 48 48 37.2548 48 24C48 10.7452 37.2548 0 24 0C10.7452 0 0 10.7452 0 24C0 37.2548 10.7452 48 24 48Z" fill="white"/>
<path id="Shape" fill-rule="evenodd" clip-rule="evenodd" d="M32.5997 21.2425C33.1714 20.6638 33.9481 20.2923 34.8307 20.2923C38.0875 20.2947 39.1692 24.7205 36.2314 26.2505C36.3607 26.7233 36.4131 27.2496 36.4131 27.7514C36.4131 32.7595 30.8531 36.8174 23.9972 36.8174C17.1703 36.8174 11.6104 32.7595 11.6104 27.7514C11.6104 27.2496 11.6581 26.7466 11.7641 26.275C8.76575 24.7508 9.83815 20.2923 13.1124 20.2923C13.995 20.2923 14.802 20.6638 15.3737 21.2669C17.4824 19.7893 20.2862 18.8403 23.4022 18.7088L25.193 10.4858C25.2698 10.1924 25.5528 9.98281 25.8416 10.0608L31.5785 11.351C31.9686 10.5918 32.7511 10.0364 33.6581 10.0364C34.9599 10.0364 35.9951 11.1181 35.9951 12.4094C35.9951 13.7007 34.9529 14.7824 33.657 14.7824C32.3854 14.7824 31.3491 13.7287 31.3491 12.4385L26.1548 11.2555L24.5235 18.7146C27.6638 18.8159 30.498 19.766 32.5997 21.2425ZM18.8599 24.2187C17.5581 24.2187 16.5218 25.2771 16.5218 26.5917C16.5218 27.883 17.5639 28.9415 18.8599 28.9356C20.1325 28.9356 21.1689 27.883 21.1689 26.5917C21.1689 25.2701 20.1314 24.2187 18.8599 24.2187ZM29.1426 32.1785C26.999 34.3535 20.9499 34.3535 18.8051 32.1785C18.5688 31.9689 18.5688 31.5986 18.8051 31.3599C19.0112 31.1503 19.3769 31.1503 19.583 31.3599C21.2201 33.0634 26.6508 33.0925 28.359 31.3599C28.5651 31.1503 28.9307 31.1503 29.1368 31.3599C29.3778 31.5998 29.3778 31.97 29.1426 32.1785ZM26.787 26.5987C26.787 27.8888 27.8234 28.9403 29.0949 28.9403C30.3908 28.9403 31.4272 27.883 31.433 26.5987C31.433 25.2771 30.3908 24.2257 29.0949 24.2257C27.8234 24.2257 26.787 25.2841 26.787 26.5987Z" fill="#FF5722"/>
</g>
</svg>
