<svg width="48" height="48" viewBox="0 0 48 48" fill="none" xmlns="http://www.w3.org/2000/svg">
<g id="Social / Icon active / Telegram">
<path d="M0 0H48V48H0V0Z" fill="white"/>
<path id="Oval" fill-rule="evenodd" clip-rule="evenodd" d="M24 48C37.2548 48 48 37.2548 48 24C48 10.7452 37.2548 0 24 0C10.7452 0 0 10.7452 0 24C0 37.2548 10.7452 48 24 48Z" fill="white"/>
<path id="Path" d="M19.0197 28.4024L18.5574 34.9044C19.2188 34.9044 19.5052 34.6203 19.8487 34.2791L22.9495 31.3157L29.3746 36.0211C30.553 36.6778 31.3832 36.3319 31.7011 34.937L35.9185 15.1749L35.9197 15.1738C36.2934 13.4318 35.2897 12.7507 34.1416 13.178L9.35171 22.669C7.65985 23.3257 7.68546 24.2688 9.0641 24.6962L15.4019 26.6675L30.1233 17.456C30.8161 16.9972 31.4461 17.251 30.9279 17.7098L19.0197 28.4024Z" fill="#039BE5"/>
</g>
</svg>
