<svg width="48" height="48" viewBox="0 0 48 48" fill="none" xmlns="http://www.w3.org/2000/svg">
<g id="Social / Icon active / Twitter">
<path id="Oval" fill-rule="evenodd" clip-rule="evenodd" d="M24 48C37.2548 48 48 37.2548 48 24C48 10.7452 37.2548 0 24 0C10.7452 0 0 10.7452 0 24C0 37.2548 10.7452 48 24 48Z" fill="white"/>
<g id="096-twitter">
<path id="Path" d="M35.123 18.6917C36.2617 17.8832 37.2195 16.8741 38 15.7121V15.7109C36.9582 16.1671 35.8498 16.4704 34.6925 16.6174C35.8825 15.9069 36.7913 14.7904 37.2183 13.4452C36.1088 14.1067 34.8838 14.5734 33.5783 14.8347C32.5248 13.7124 31.0233 13.0182 29.3853 13.0182C26.2073 13.0182 23.6488 15.5977 23.6488 18.7594C23.6488 19.2144 23.6873 19.6519 23.7818 20.0684C19.0102 19.8351 14.7868 17.5484 11.9495 14.0636C11.4548 14.9234 11.1632 15.9069 11.1632 16.9651C11.1632 18.9531 12.1863 20.7147 13.7135 21.7356C12.7907 21.7181 11.8865 21.4497 11.12 21.0286V21.0916C11.12 23.8811 13.1092 26.1981 15.719 26.7324C15.2512 26.8607 14.7425 26.9214 14.214 26.9214C13.8465 26.9214 13.4755 26.9004 13.1278 26.8234C13.871 29.0961 15.9827 30.7679 18.491 30.8227C16.538 32.3499 14.0577 33.2704 11.3732 33.2704C10.903 33.2704 10.4515 33.2494 10 33.1922C12.5433 34.8314 15.5557 35.7682 18.806 35.7682C28.9362 35.7682 35.5383 27.3169 35.123 18.6917Z" fill="#797C80"/>
</g>
</g>
</svg>
