<svg width="48" height="48" viewBox="0 0 48 48" fill="none" xmlns="http://www.w3.org/2000/svg">
<g id="Social / Icon active / Wechat">
<path id="Oval" fill-rule="evenodd" clip-rule="evenodd" d="M24 48C37.2548 48 48 37.2548 48 24C48 10.7452 37.2548 0 24 0C10.7452 0 0 10.7452 0 24C0 37.2548 10.7452 48 24 48Z" fill="white"/>
<path id="Combined Shape" fill-rule="evenodd" clip-rule="evenodd" d="M25.8544 13.4839C28.0545 14.7016 29.8024 16.812 30.3105 19.3104C23.5203 18.8268 18.9232 24.2734 20.7154 29.4147C19.2646 29.4625 17.8138 29.248 16.4504 28.8087C15.9919 29.053 15.5335 29.3002 15.0753 29.5473L15.0753 29.5473L15.0752 29.5473C14.3969 29.9131 13.7188 30.2787 13.0408 30.6347C13.3554 29.6338 13.6875 28.6398 14.0371 27.6458C12.2297 26.4408 10.7405 24.6358 10.2359 22.4823C8.35743 15.2249 18.0783 9.07092 25.8858 13.4827V13.4839H25.8544ZM25.1529 17.7128C25.2251 16.7281 24.1437 15.9578 23.229 16.3261C22.207 16.6407 21.9599 18.1637 22.8304 18.7907C23.6694 19.5528 25.1645 18.8513 25.1552 17.7268L25.1529 17.7128ZM18.0958 18.0122C17.8954 18.9888 16.5914 19.4607 15.8282 18.8047C14.9437 18.1789 15.1919 16.6279 16.2302 16.3121C17.2475 15.9182 18.4035 16.9553 18.0958 18.0122ZM32.6597 33.8778C22.1312 36.9239 16.518 25.2557 24.9571 20.9068C29.5542 18.518 35.5671 20.2729 37.4502 24.5577C38.6563 27.2612 37.9408 30.5508 34.678 32.8756C34.9577 33.6902 35.2199 34.5082 35.4657 35.3356C35.081 35.1498 34.7088 34.9381 34.337 34.7266L34.337 34.7265C33.79 34.4153 33.2439 34.1046 32.6597 33.8778ZM26.0233 25.5809C26.5582 26.1612 27.6617 25.9328 27.9053 25.1695C28.2805 24.3118 27.2923 23.3202 26.437 23.6814C25.6633 23.9215 25.4337 25.0437 26.0233 25.5809ZM33.4754 25.279H33.4917C33.1922 25.9631 32.1621 26.1239 31.6564 25.5937C31.4416 25.3963 31.3609 25.111 31.2857 24.845C31.2757 24.8094 31.2657 24.7741 31.2555 24.7395C31.3767 24.2035 31.7449 23.6476 32.3392 23.622C33.1608 23.5078 33.8961 24.5263 33.4754 25.279Z" fill="#4CAF50"/>
</g>
</svg>
