<?xml version="1.0" encoding="UTF-8"?>
<svg width="600px" height="600px" viewBox="0 0 600 600" version="1.1" xmlns="http://www.w3.org/2000/svg" xmlns:xlink="http://www.w3.org/1999/xlink">
    <!-- Generator: Sketch 61.2 (89653) - https://sketch.com -->
    <title>Arrows</title>
    <desc>Created with Sketch.</desc>
    <g id="Arrows" stroke="none" stroke-width="1" fill="none" fill-rule="evenodd">
        <path d="M89.2836201,371.676523 L88.9850723,376.629522 C89.0949308,376.962068 89.102422,377.33058 88.9853938,377.685332 L88.9579257,377.762365 L88.9083937,377.891023 L88.0123387,392.747361 L83.8057687,391.191898 L66.7641388,435.614353 C66.430324,436.4845 65.4543203,436.919283 64.5841735,436.585468 C63.7396194,436.261471 63.305196,435.332506 63.5855906,434.482536 L63.6130587,434.405503 L80.6400187,390.021523 L76.2854922,388.411562 L89.2836201,371.676523 Z" id="Path" fill="#4A90E2" fill-rule="nonzero"></path>
        <path d="M182.048668,332.336184 L202.220082,338.826709 L181.985168,344.838746 L182.009989,339.912309 L135.620614,339.91234 C134.688633,339.91234 133.933114,339.156821 133.933114,338.22484 C133.933114,337.319488 134.646077,336.580657 135.541175,336.539177 L135.620614,336.53734 L182.027239,336.537309 L182.048668,332.336184 Z" id="Path" fill="#4A90E2" fill-rule="nonzero"></path>
        <path d="M135.571672,283.491151 L131.741977,304.25 L127.108894,301.859401 L120.08764,313.763008 C119.614137,314.565742 118.579543,314.832637 117.776808,314.359134 C116.998399,313.89998 116.723846,312.913224 117.13967,312.121894 L117.180682,312.048302 L124.104769,300.309526 L120.630942,298.517376 L135.571672,283.491151 Z" id="Path" fill="#8EC0FB" fill-rule="nonzero"></path>
        <path d="M169.033537,273.245684 L187.041152,284.260317 L183.595162,287.331434 L208.780746,314.942039 C209.408824,315.630592 209.359799,316.697933 208.671246,317.326011 C208.00421,317.934461 206.981691,317.907467 206.347419,317.279188 L206.287274,317.216511 L181.075537,289.576934 L177.707448,292.578974 L169.033537,273.245684 Z" id="Path" fill="#8EC0FB" fill-rule="nonzero"></path>
        <path d="M219.569699,210.838357 L207.933318,228.450597 L204.645404,224.491732 L179.51678,240.886161 C178.736226,241.395398 177.690643,241.175452 177.181406,240.394898 C176.6876,239.637997 176.879453,238.631886 177.603258,238.107273 L177.672668,238.059524 L202.474904,221.877982 L199.945471,218.832261 L219.569699,210.838357 Z" id="Path" fill="#8EC0FB" fill-rule="nonzero"></path>
        <path d="M342.30601,274.946053 L327.005977,289.489276 L324.54817,284.604178 L252.159696,315.882974 C251.304166,316.252643 250.310945,315.858775 249.941276,315.003244 C249.582479,314.172877 249.942966,313.212799 250.746723,312.819041 L250.821005,312.784824 L323.028295,281.583928 L321.386512,278.320583 L342.30601,274.946053 Z" id="Path" fill="#4A90E2" fill-rule="nonzero"></path>
        <path d="M180.75221,468.358829 L201.033827,474.496325 L180.906919,480.860595 L180.844766,475.843829 L88.6035319,475.358353 C87.6715643,475.353447 86.9200323,474.593961 86.9248907,473.661993 C86.929704,472.756653 87.646547,472.021586 88.5418509,471.984818 L88.6212978,471.9834 L180.802766,472.468454 L180.75221,468.358829 Z" id="Path" fill="#8EC0FB" fill-rule="nonzero"></path>
        <path d="M338.741368,418.374186 L324.767082,434.195554 L321.953546,429.642186 L261.618914,462.097706 C260.798145,462.539211 259.77487,462.231757 259.333365,461.410988 C258.90524,460.615091 259.181369,459.628775 259.946889,459.167157 L260.020083,459.12544 L320.176796,426.765936 L318.195585,423.55913 L338.741368,418.374186 Z" id="Path" fill="#8EC0FB" fill-rule="nonzero"></path>
        <path d="M264.077459,385.875 L250.103173,401.696368 L247.289637,397.143 L194.112243,425.959784 C193.291474,426.401289 192.2682,426.093835 191.826695,425.273067 C191.398569,424.47717 191.674698,423.490854 192.440218,423.029236 L192.513413,422.987518 L245.512887,394.26675 L243.531676,391.059944 L264.077459,385.875 Z" id="Path" fill="#8EC0FB" fill-rule="nonzero" transform="translate(227.851230, 406.018240) rotate(-59.000000) translate(-227.851230, -406.018240) "></path>
        <path d="M416.162107,460.798567 L437.201366,463.320955 L430.945369,466.584484 C430.70498,466.827169 430.390322,466.998271 430.034275,467.059355 L418.485374,473.083538 L417.531404,468.040567 L265.642799,479.873 C264.713634,479.945384 263.901718,479.250825 263.829335,478.32166 C263.759019,477.419042 264.412447,476.627069 265.301619,476.516196 L265.380675,476.508195 L416.900654,464.704192 L416.162107,460.798567 Z" id="Path" fill="#8EC0FB" fill-rule="nonzero"></path>
        <path d="M475.047503,315.021961 L464.032869,333.029575 L460.787925,329.388586 L391.818571,381.21977 C391.073524,381.779675 390.015652,381.629588 389.455747,380.884541 C388.912809,380.162072 389.037485,379.145449 389.724887,378.573968 L389.790976,378.521718 L458.53455,326.860336 L455.714212,323.695871 L475.047503,315.021961 Z" id="Path" fill="#8EC0FB" fill-rule="nonzero"></path>
        <path d="M492.374872,325.839974 L493.680956,346.908683 L488.999232,345.802724 L470.89492,408.183248 C470.635151,409.078294 469.698989,409.593289 468.803943,409.333521 C467.935221,409.081393 467.424524,408.192074 467.632749,407.321607 L467.65367,407.242544 L485.710482,345.025724 L481.513119,344.034346 L492.374872,325.839974 Z" id="Path" fill="#8EC0FB" fill-rule="nonzero"></path>
        <path d="M346.005785,186.646582 L366.884198,190.266623 L347.682923,199.036307 L347.018625,194.130832 L281.45872,200.207245 C280.530717,200.293254 279.708697,199.610683 279.622688,198.68268 C279.539136,197.781191 280.180873,196.979716 281.068323,196.855808 L281.147253,196.846648 L346.565625,190.783207 L346.005785,186.646582 Z" id="Path" fill="#8EC0FB" fill-rule="nonzero"></path>
        <path d="M261.249506,224.801693 L276.824579,239.049972 L272.332256,241.717943 L344.394129,376.279653 C344.834111,377.101239 344.52476,378.123942 343.703174,378.563925 C342.906485,378.990574 341.920683,378.712616 341.460485,377.946242 L341.418903,377.87297 L269.427506,243.443318 L266.075087,245.434837 L261.249506,224.801693 Z" id="Path" fill="#8EC0FB" fill-rule="nonzero"></path>
        <path d="M489.238363,127.331365 L487.232495,148.345 L482.918066,146.57599 L380.403901,370.561019 C380.016042,371.408458 379.014634,371.781021 378.167195,371.393162 C377.344681,371.01671 376.96952,370.062271 377.302796,369.231611 L377.335053,369.156457 L479.792441,145.294615 L475.664109,143.602581 L489.238363,127.331365 Z" id="Path" fill="#8EC0FB" fill-rule="nonzero"></path>
        <path d="M499.189783,129.292557 L506.942532,148.926488 L501.946762,149.337807 L501.946771,263.070447 C501.946771,264.002427 501.191251,264.757947 500.259271,264.757947 C499.353918,264.757947 498.615088,264.044983 498.573608,263.149885 L498.571771,263.070447 L498.571762,149.616057 L494.482012,149.9529 L499.189783,129.292557 Z" id="Path" fill="#8EC0FB" fill-rule="nonzero"></path>
        <path d="M529.61507,212.311968 L513.574871,226.034518 L511.753635,221.887968 L403.590636,257.804556 C402.706144,258.098258 401.751029,257.619327 401.457327,256.734835 C401.172263,255.876357 401.615052,254.95135 402.450066,254.629138 L402.527048,254.601526 L510.390885,218.784468 L508.547632,214.587032 L529.61507,212.311968 Z" id="Path" fill="#4A90E2" fill-rule="nonzero"></path>
        <path d="M518.411938,119.928723 L532.685924,135.48024 L528.580063,137.456598 L536.508866,155.032415 C536.892103,155.881954 536.514091,156.881317 535.664552,157.264554 C534.839999,157.63652 533.874306,157.291357 533.467807,156.493969 L533.432412,156.420241 L525.538063,138.920973 L521.420859,140.903929 L518.411938,119.928723 Z" id="Path" fill="#4A90E2" fill-rule="nonzero"></path>
        <path d="M475.584361,117.651974 L465.527268,136.211372 L462.21392,132.863849 L424.472001,165.065838 C423.763013,165.670754 422.697883,165.586387 422.092967,164.877399 C421.506954,164.190567 421.567817,163.169504 422.216769,162.556399 L422.281405,162.498365 L459.833045,130.458599 L456.731523,127.325824 L475.584361,117.651974 Z" id="Path" fill="#8EC0FB" fill-rule="nonzero"></path>
    </g>
</svg>