<?xml version="1.0" encoding="UTF-8"?>
<svg width="161px" height="214px" viewBox="0 0 161 214" version="1.1" xmlns="http://www.w3.org/2000/svg" xmlns:xlink="http://www.w3.org/1999/xlink">
    <!-- Generator: Sketch 61.2 (89653) - https://sketch.com -->
    <title>Persona</title>
    <desc>Created with Sketch.</desc>
    <defs>
        <radialGradient cx="50%" cy="93.751761%" fx="50%" fy="93.751761%" r="128.527539%" gradientTransform="translate(0.500000,0.937518),scale(0.448127,1.000000),rotate(-172.933125),translate(-0.500000,-0.937518)" id="radialGradient-1">
            <stop stop-color="#D6DEFF" offset="0%"></stop>
            <stop stop-color="#929AC6" offset="100%"></stop>
        </radialGradient>
        <linearGradient x1="50%" y1="32.7537632%" x2="50%" y2="100%" id="linearGradient-2">
            <stop stop-color="#B2B7E9" offset="0%"></stop>
            <stop stop-color="#DADDF4" offset="100%"></stop>
        </linearGradient>
        <linearGradient x1="99.0326197%" y1="70.0349076%" x2="8.36152199%" y2="27.0518978%" id="linearGradient-3">
            <stop stop-color="#A5A5A5" offset="0%"></stop>
            <stop stop-color="#FFFFFF" offset="100%"></stop>
        </linearGradient>
        <linearGradient x1="-10189.0468%" y1="343.287417%" x2="-10187.5095%" y2="351.251728%" id="linearGradient-4">
            <stop stop-color="#0A0A0A" offset="0%"></stop>
            <stop stop-color="#252525" offset="100%"></stop>
        </linearGradient>
        <linearGradient x1="-10189.0468%" y1="315.170132%" x2="-10187.5095%" y2="322.37091%" id="linearGradient-5">
            <stop stop-color="#0A0A0A" offset="0%"></stop>
            <stop stop-color="#252525" offset="100%"></stop>
        </linearGradient>
        <linearGradient x1="50.0425471%" y1="39.0735234%" x2="52.3374292%" y2="93.7391719%" id="linearGradient-6">
            <stop stop-color="#272539" offset="0%"></stop>
            <stop stop-color="#424451" offset="100%"></stop>
        </linearGradient>
        <linearGradient x1="47.3919186%" y1="23.1104183%" x2="59.6358983%" y2="159.1041%" id="linearGradient-7">
            <stop stop-color="#484665" offset="0%"></stop>
            <stop stop-color="#050607" offset="100%"></stop>
        </linearGradient>
        <linearGradient x1="59.4120666%" y1="99.4230605%" x2="36.702593%" y2="-1.59645471%" id="linearGradient-8">
            <stop stop-color="#471900" offset="0%"></stop>
            <stop stop-color="#FF5E00" offset="100%"></stop>
        </linearGradient>
        <linearGradient x1="99.0326197%" y1="91.2295273%" x2="8.36152199%" y2="2.77545454%" id="linearGradient-9">
            <stop stop-color="#A5A5A5" offset="0%"></stop>
            <stop stop-color="#FFFFFF" offset="100%"></stop>
        </linearGradient>
    </defs>
    <g id="Persona" stroke="none" stroke-width="1" fill="none" fill-rule="evenodd">
        <g id="Stand" transform="translate(40.621476, 136.000000)">
            <path d="M50.3785244,53 C77.9927619,53 100.378524,42.9264069 100.378524,30.5 C100.378524,27.4183074 100.870366,19.6745297 98.3785244,17 C90.822434,8.88993865 71.1445561,8 50.3785244,8 C31.1746853,8 10.7546038,9.85301486 2.37852445,17 C-1.28981314,20.1300508 0.378524446,26.7153207 0.378524446,30.5 C0.378524446,42.9264069 22.764287,53 50.3785244,53 Z" id="Oval-Copy" fill="url(#radialGradient-1)"></path>
            <ellipse id="Oval" fill="#F2F3FA" cx="50.3785244" cy="22.5" rx="50" ry="22.5"></ellipse>
            <path d="M38.4480672,20.0347016 C39.1201115,20.7508646 39.3079987,21.2329537 40.1061684,21.1850193 C41.1230705,21.2722833 42.0578535,21.6765676 42.770564,22.3373437 C43.1150727,22.6427417 43.3791958,23.0102387 43.5552855,23.4142485 C44.1166935,23.9462279 44.5093159,24.7650139 44.5741583,25.9022503 L44.6052624,26.5503172 C44.7433651,29.9192823 44.7597925,37.3007579 45.4244978,44.8906718 C42.3963059,44.7569081 39.4478575,44.5013535 36.6031155,44.1352532 C37.1549647,36.2350701 37.8308079,28.7812185 38.1504548,26.1675293 C36.3934675,25.0282347 34.6924598,23.8148062 33.0519467,22.5303725 C30.6580906,20.5155115 30.0340057,17.7405894 31.9748744,17.5193708 C33.0685432,17.4338787 37.7760228,19.3185385 38.4480672,20.0347016 Z M61.1201073,16.0707514 L61.2506484,16.1074171 C62.4068551,16.4150956 62.1867371,17.1425007 62.8416725,16.849913 C63.496608,16.5573254 66.2903106,17.8943881 66.2692023,19.0895034 C66.2602321,19.5973794 66.187045,19.9286652 65.9533307,20.2828473 C66.5376758,20.7939256 66.9704678,21.6779217 67.0985244,23.0575506 L67.1423846,23.5586949 C67.4374765,27.1135553 67.8398247,35.4834251 68.0920333,43.5464268 C64.8022055,44.1082039 61.3464131,44.5174807 57.7669758,44.7560544 C59.1370549,34.7629842 60.6449923,24.1818917 60.7085244,22.6975506 C60.7251893,22.3081999 60.8713019,21.9140293 61.1091006,21.5452901 L61.2165176,21.3889042 L60.2806082,21.0487896 C59.0607498,19.9519575 57.7557708,18.9544134 56.3786844,18.0661046 C54.5186435,16.9838811 53.638983,15.2981189 54.7195896,14.6958114 C55.762934,14.1142731 59.8021081,15.6848122 61.1201073,16.0707514 Z" id="Combined-Shape" fill="url(#linearGradient-2)" opacity="0.737862723"></path>
        </g>
        <g id="R-hand" transform="translate(64.645399, 30.119317)" fill-rule="nonzero">
            <path d="M8.74527885,21.28 C4.74527885,20.6 2.49527885,20.36 1.52527885,18.75 C0.815278853,17.57 2.81527885,18.66 3.44527885,18.54 C3.88527885,18.46 3.44527885,16.69 2.11527885,16.04 C0.785278853,15.39 -0.614721147,14.46 0.285278853,14.04 C1.46815879,13.6836963 2.74650076,13.843489 3.80527885,14.48 C4.72527885,15.09 6.03527885,15.81 6.43527885,17.2 C6.83527885,18.59 8.55527885,18.59 8.55527885,18.59 L8.74527885,21.28 Z" id="Path-Copy-22" fill="#F5D5D5"></path>
            <path d="M8.28527885,17.51 C28.7652789,12.8 35.4252789,-1.77635684e-15 35.4252789,-1.77635684e-15 L41.5752789,8.63 C41.5752789,8.63 31.1852789,22.89 9.87527885,22.19 C5.09527885,22.06 6.67527885,17.88 8.28527885,17.51 Z" id="Path-Copy-35" fill="url(#linearGradient-3)"></path>
        </g>
        <g id="Body" transform="translate(71.000000, 13.000000)" fill-rule="nonzero">
            <path d="M13.3206776,143.179317 C13.3206776,144.769317 13.7706776,145.539317 13.3206776,146.339317 C12.4557723,147.310539 11.1103498,147.699389 9.86067756,147.339317 C8.9272089,147.091195 8.0992207,146.54739 7.50067756,145.789317 C7.13067756,145.139317 6.62067756,145.219317 5.66067756,145.029317 C4.70067756,144.839317 0.660677564,142.029317 0.170677564,141.129317 C-0.639322436,139.499317 2.06067756,138.679317 5.02067756,139.609317 C7.56520454,140.502216 10.0589366,141.53376 12.4906776,142.699317 L13.3206776,143.179317 Z" id="Path-Copy-29" fill="url(#linearGradient-4)"></path>
            <path d="M35.9006776,138.469317 C36.0006776,141.189317 36.1106776,141.609317 35.3006776,142.469317 C34.4906776,143.329317 31.6406776,142.299317 31.3906776,141.629317 C31.1406776,140.959317 30.7906776,141.629317 29.7806776,141.029317 C28.7706776,140.429317 24.6306776,138.599317 24.3006776,137.409317 C23.9706776,136.219317 25.7406776,135.649317 27.7706776,136.199317 C29.3336752,136.544935 30.9222891,136.762324 32.5206776,136.849317 L35.9006776,138.469317 Z" id="Path-Copy-31" fill="url(#linearGradient-5)"></path>
            <path d="M40.5906776,59.499317 C39.4506776,81.739317 37.5906776,92.159317 37.9006776,99.879317 C38.2106776,107.599317 37.2606776,131.029317 36.7306776,136.739317 C36.2006776,142.449317 30.4506776,139.669317 30.3406776,137.099317 C30.2306776,134.529317 25.7906776,104.689317 25.2306776,97.849317 C24.6706776,91.009317 23.0106776,58.779317 23.0106776,58.779317 L40.5906776,59.499317 Z" id="Path-Copy-32" fill="url(#linearGradient-6)"></path>
            <path d="M32.6506776,75.629317 C21.8606776,100.629317 19.6506776,99.379317 16.9606776,110.189317 C14.2706776,120.999317 14.4806776,137.009317 14.2206776,141.569317 C13.9606776,146.129317 8.43067756,145.569317 7.88067756,141.929317 C7.33067756,138.289317 4.76067756,108.239317 5.56067756,101.089317 C6.36067756,93.939317 18.6706776,59.019317 18.6706776,59.019317 L30.0006776,64.739317 L32.6506776,75.629317 Z" id="Path-Copy-33" fill="url(#linearGradient-7)"></path>
            <path d="M27.2306776,16.449317 C26.0406776,14.749317 25.4406776,12.129317 25.9206776,10.729317 C26.4006776,9.32931698 27.6606776,2.07931698 22.0106776,0.349316977 C16.3606776,-1.38068302 12.2806776,3.59931698 13.5306776,9.02931698 C14.7806776,14.459317 15.5306776,17.469317 16.9806776,17.579317 C18.4306776,17.689317 18.9806776,17.339317 19.3406776,18.489317 C19.7006776,19.639317 25.8706776,18.119317 25.8706776,18.119317 L27.3006776,17.559317 L27.2306776,16.449317 Z" id="Path-Copy-34" fill="#FFAC91"></path>
            <path d="M28.5906776,16.739317 C16.8606776,24.349317 16.0006776,23.679317 13.1406776,34.109317 C11.0006776,41.929317 17.4606776,61.619317 13.1406776,72.289317 C11.6406776,76.049317 14.5506776,77.929317 17.7706776,77.059317 C21.9106776,75.949317 20.4306776,80.629317 27.3006776,82.809317 C33.9406776,84.909317 39.7806776,78.439317 41.5506776,71.619317 C42.4606776,68.119317 41.6606776,40.039317 41.2006776,38.079317 C38.2906776,25.609317 32.3806776,14.259317 28.5906776,16.739317 Z" id="Path-Copy-36" fill="url(#linearGradient-8)"></path>
            <path d="M27.2306776,16.449317 C28.1138406,17.0953043 28.904501,17.8590486 29.5806776,18.719317 C29.8306776,19.139317 23.6606776,21.809317 19.5806776,22.609317 L19.3506776,18.489317 C19.3506776,18.489317 27.5306776,17.719317 27.2306776,16.449317 Z" id="Path-Copy-37" fill="#115D1B"></path>
        </g>
        <g id="L-hand" transform="translate(48.000000, 39.738953)" fill-rule="nonzero">
            <path d="M10.7306776,32.6603644 C7.07067756,33.7903644 8.55067756,34.7303644 4.95067756,33.8603644 C1.35067756,32.9903644 1.36067756,32.9903644 0.630677564,32.1803644 C-0.369322436,31.0203644 -0.369322436,29.4103644 2.03067756,29.6903644 C4.43067756,29.9703644 5.66067756,30.4703644 5.82067756,30.1603644 C5.98067756,29.8503644 5.18067756,28.7103644 5.88067756,28.6003644 C6.58067756,28.4903644 6.64067756,29.1203644 7.15067756,29.8203644 C7.66067756,30.5203644 10.3306776,29.3303644 10.3306776,29.3303644 L10.7306776,32.6603644 Z" id="Path-Copy-23" fill="#F5D5D5"></path>
            <path d="M8.91067756,29.4403644 C29.4206776,18.6303644 30.4006776,18.2503644 36.3106776,5.60036442 C42.7206776,-8.15963558 45.1306776,7.42036442 44.8406776,10.1903644 C43.0406776,27.7903644 33.3706776,28.5403644 12.6006776,33.3103644 C7.93067756,34.4403644 7.46067756,30.2503644 8.91067756,29.4403644 Z" id="Path-Copy-38" fill="url(#linearGradient-9)"></path>
        </g>
    </g>
</svg>