<?xml version="1.0" encoding="UTF-8"?>
<svg width="161px" height="214px" viewBox="0 0 161 214" version="1.1" xmlns="http://www.w3.org/2000/svg" xmlns:xlink="http://www.w3.org/1999/xlink">
    <!-- Generator: Sketch 64 (93537) - https://sketch.com -->
    <title>Persona</title>
    <desc>Created with Sketch.</desc>
    <defs>
        <radialGradient cx="50%" cy="93.751761%" fx="50%" fy="93.751761%" r="128.527539%" gradientTransform="translate(0.500000,0.937518),scale(0.448127,1.000000),rotate(-172.933125),translate(-0.500000,-0.937518)" id="radialGradient-1">
            <stop stop-color="#D6DEFF" offset="0%"></stop>
            <stop stop-color="#929AC6" offset="100%"></stop>
        </radialGradient>
        <linearGradient x1="50%" y1="32.7537632%" x2="50%" y2="100%" id="linearGradient-2">
            <stop stop-color="#B2B7E9" offset="0%"></stop>
            <stop stop-color="#DADDF4" offset="100%"></stop>
        </linearGradient>
        <linearGradient x1="99.0326197%" y1="70.0349076%" x2="8.36152199%" y2="27.0518978%" id="linearGradient-3">
            <stop stop-color="#A5A5A5" offset="0%"></stop>
            <stop stop-color="#FFFFFF" offset="100%"></stop>
        </linearGradient>
        <linearGradient x1="-10189.0468%" y1="343.287417%" x2="-10187.5095%" y2="351.251728%" id="linearGradient-4">
            <stop stop-color="#0A0A0A" offset="0%"></stop>
            <stop stop-color="#252525" offset="100%"></stop>
        </linearGradient>
        <linearGradient x1="-10189.0468%" y1="315.170132%" x2="-10187.5095%" y2="322.37091%" id="linearGradient-5">
            <stop stop-color="#0A0A0A" offset="0%"></stop>
            <stop stop-color="#252525" offset="100%"></stop>
        </linearGradient>
        <linearGradient x1="50.04047%" y1="39.0735234%" x2="52.2233195%" y2="93.7391719%" id="linearGradient-6">
            <stop stop-color="#272539" offset="0%"></stop>
            <stop stop-color="#424451" offset="100%"></stop>
        </linearGradient>
        <linearGradient x1="47.3919186%" y1="23.1104183%" x2="59.6358983%" y2="159.1041%" id="linearGradient-7">
            <stop stop-color="#484665" offset="0%"></stop>
            <stop stop-color="#050607" offset="100%"></stop>
        </linearGradient>
        <linearGradient x1="59.5196556%" y1="99.4230605%" x2="36.5505907%" y2="-1.59645471%" id="linearGradient-8">
            <stop stop-color="#471900" offset="0%"></stop>
            <stop stop-color="#FF5E00" offset="100%"></stop>
        </linearGradient>
        <linearGradient x1="99.0326197%" y1="91.2295273%" x2="8.36152199%" y2="2.77545454%" id="linearGradient-9">
            <stop stop-color="#A5A5A5" offset="0%"></stop>
            <stop stop-color="#FFFFFF" offset="100%"></stop>
        </linearGradient>
    </defs>
    <g id="Persona" stroke="none" stroke-width="1" fill="none" fill-rule="evenodd">
        <g id="Stand" transform="translate(40.621476, 136.000000)">
            <path d="M50.3785244,53 C77.9927619,53 100.378524,42.9264069 100.378524,30.5 C100.378524,27.4183074 100.870366,19.6745297 98.3785244,17 C90.822434,8.88993865 71.1445561,8 50.3785244,8 C31.1746853,8 10.7546038,9.85301486 2.37852445,17 C-1.28981314,20.1300508 0.378524446,26.7153207 0.378524446,30.5 C0.378524446,42.9264069 22.764287,53 50.3785244,53 Z" id="Oval-Copy" fill="url(#radialGradient-1)"></path>
            <ellipse id="Oval" fill="#F2F3FA" cx="50.3785244" cy="22.5" rx="50" ry="22.5"></ellipse>
            <path d="M38.4480672,20.0347016 C39.1201115,20.7508646 39.3079987,21.2329537 40.1061684,21.1850193 C41.1230705,21.2722833 42.0578535,21.6765676 42.770564,22.3373437 C43.1150727,22.6427417 43.3791958,23.0102387 43.5552855,23.4142485 C44.1166935,23.9462279 44.5093159,24.7650139 44.5741583,25.9022503 L44.6052624,26.5503172 C44.7433651,29.9192823 44.7597925,37.3007579 45.4244978,44.8906718 C42.3963059,44.7569081 39.4478575,44.5013535 36.6031155,44.1352532 C37.1549647,36.2350701 37.8308079,28.7812185 38.1504548,26.1675293 C36.3934675,25.0282347 34.6924598,23.8148062 33.0519467,22.5303725 C30.6580906,20.5155115 30.0340057,17.7405894 31.9748744,17.5193708 C33.0685432,17.4338787 37.7760228,19.3185385 38.4480672,20.0347016 Z M61.1201073,16.0707514 L61.2506484,16.1074171 C62.4068551,16.4150956 62.1867371,17.1425007 62.8416725,16.849913 C63.496608,16.5573254 66.2903106,17.8943881 66.2692023,19.0895034 C66.2602321,19.5973794 66.187045,19.9286652 65.9533307,20.2828473 C66.5376758,20.7939256 66.9704678,21.6779217 67.0985244,23.0575506 L67.1423846,23.5586949 C67.4374765,27.1135553 67.8398247,35.4834251 68.0920333,43.5464268 C64.8022055,44.1082039 61.3464131,44.5174807 57.7669758,44.7560544 C59.1370549,34.7629842 60.6449923,24.1818917 60.7085244,22.6975506 C60.7251893,22.3081999 60.8713019,21.9140293 61.1091006,21.5452901 L61.2165176,21.3889042 L60.2806082,21.0487896 C59.0607498,19.9519575 57.7557708,18.9544134 56.3786844,18.0661046 C54.5186435,16.9838811 53.638983,15.2981189 54.7195896,14.6958114 C55.762934,14.1142731 59.8021081,15.6848122 61.1201073,16.0707514 Z" id="Combined-Shape" fill="url(#linearGradient-2)" opacity="0.737862723"></path>
        </g>
        <g id="R-hand" transform="translate(89.830988, 49.262602) rotate(-36.000000) translate(-89.830988, -49.262602) translate(68.830988, 37.762602)" fill-rule="nonzero">
            <path d="M8.74527885,21.28 C4.74527885,20.6 2.49527885,20.36 1.52527885,18.75 C0.815278853,17.57 2.81527885,18.66 3.44527885,18.54 C3.88527885,18.46 3.44527885,16.69 2.11527885,16.04 C0.785278853,15.39 -0.614721147,14.46 0.285278853,14.04 C1.46815879,13.6836963 2.74650076,13.843489 3.80527885,14.48 C4.72527885,15.09 6.03527885,15.81 6.43527885,17.2 C6.83527885,18.59 8.55527885,18.59 8.55527885,18.59 L8.74527885,21.28 Z" id="Path-Copy-22" fill="#F5D5D5"></path>
            <path d="M8.28527885,17.51 C28.7652789,12.8 35.4252789,-1.77635684e-15 35.4252789,-1.77635684e-15 L41.5752789,8.63 C41.5752789,8.63 31.1852789,22.89 9.87527885,22.19 C5.09527885,22.06 6.67527885,17.88 8.28527885,17.51 Z" id="Path-Copy-35" fill="url(#linearGradient-3)"></path>
        </g>
        <g id="Body" transform="translate(71.000000, 9.000000)" fill-rule="nonzero">
            <path d="M13.3206776,147.179317 C13.3206776,148.769317 13.7706776,149.539317 13.3206776,150.339317 C12.4557723,151.310539 11.1103498,151.699389 9.86067756,151.339317 C8.9272089,151.091195 8.0992207,150.54739 7.50067756,149.789317 C7.13067756,149.139317 6.62067756,149.219317 5.66067756,149.029317 C4.70067756,148.839317 0.660677564,146.029317 0.170677564,145.129317 C-0.639322436,143.499317 2.06067756,142.679317 5.02067756,143.609317 C7.56520454,144.502216 10.0589366,145.53376 12.4906776,146.699317 L13.3206776,147.179317 Z" id="Path-Copy-29" fill="url(#linearGradient-4)"></path>
            <path d="M35.9006776,142.469317 C36.0006776,145.189317 36.1106776,145.609317 35.3006776,146.469317 C34.4906776,147.329317 31.6406776,146.299317 31.3906776,145.629317 C31.1406776,144.959317 30.7906776,145.629317 29.7806776,145.029317 C28.7706776,144.429317 24.6306776,142.599317 24.3006776,141.409317 C23.9706776,140.219317 25.7406776,139.649317 27.7706776,140.199317 C29.3336752,140.544935 30.9222891,140.762324 32.5206776,140.849317 L35.9006776,142.469317 Z" id="Path-Copy-31" fill="url(#linearGradient-5)"></path>
            <path d="M40.154865,71.0001326 C39.0361108,88.1975437 37.6278209,97.084305 37.9006776,103.879317 C38.2106776,111.599317 37.2606776,135.029317 36.7306776,140.739317 C36.2006776,146.449317 30.4506776,143.669317 30.3406776,141.099317 C30.2306776,138.529317 25.7906776,108.689317 25.2306776,101.849317 C24.6706776,95.009317 23.0106776,62.779317 23.0106776,62.779317 C34.5416646,66.699167 40.2563938,69.4394388 40.154865,71.0001326 Z" id="Path-Copy-32" fill="url(#linearGradient-6)"></path>
            <path d="M32.6506776,79.629317 C21.8606776,104.629317 19.6506776,103.379317 16.9606776,114.189317 C14.2706776,124.999317 14.4806776,141.009317 14.2206776,145.569317 C13.9606776,150.129317 8.43067756,149.569317 7.88067756,145.929317 C7.33067756,142.289317 4.76067756,112.239317 5.56067756,105.089317 C6.36067756,97.939317 18.6706776,63.019317 18.6706776,63.019317 L30.0006776,68.739317 L32.6506776,79.629317 Z" id="Path-Copy-33" fill="url(#linearGradient-7)"></path>
            <path d="M30.1734546,20.2399568 C28.9834546,18.5399568 28.3834546,15.9199568 28.8634546,14.5199568 C29.3434546,13.1199568 30.6034546,5.86995684 24.9534546,4.13995684 C19.3034546,2.40995684 15.2234546,7.38995684 16.4734546,12.8199568 C17.7234546,18.2499568 18.4734546,21.2599568 19.9234546,21.3699568 C21.3734546,21.4799568 21.9234546,21.1299568 22.2834546,22.2799568 C22.6434546,23.4299568 28.8134546,21.9099568 28.8134546,21.9099568 L30.2434546,21.3499568 L30.1734546,20.2399568 Z" id="Path-Copy-34" fill="#FFAC91" transform="translate(23.245286, 13.250365) rotate(10.000000) translate(-23.245286, -13.250365) "></path>
            <path d="M29.6337109,21.5879128 C27.6260938,22.1647903 28.220992,23.1767841 26.8071223,23.9366347 C24.448786,25.2040663 20.210733,25.6027708 18.830988,26.7107829 C16.052692,28.9419094 14.7345726,32.2966158 13.1406776,38.109317 C11.0006776,45.929317 17.4606776,65.619317 13.1406776,76.289317 C11.6406776,80.049317 14.5506776,81.929317 17.7706776,81.059317 C21.9106776,79.949317 20.4306776,84.629317 27.3006776,86.809317 C33.9406776,88.909317 39.7806776,82.439317 41.5506776,75.619317 C42.4606776,72.119317 37.9480904,63.9951903 40.5906776,45.2997617 C43.3916505,25.4838061 33.5619943,20.4591428 29.6337109,21.5879128 Z" id="Path-Copy-36" fill="url(#linearGradient-8)"></path>
            <path d="M28.2282012,20.599591 C29.1113642,21.2455783 30.0538639,22.2225199 30.7300405,23.0827882 C30.9800405,23.5027882 28.0275771,26.556735 20.7300405,26.9727882 L20.5000405,22.8527882 C20.5000405,22.8527882 28.5282012,21.869591 28.2282012,20.599591 Z" id="Path-Copy-37" fill="#115D1B" transform="translate(25.622325, 23.786190) rotate(10.000000) translate(-25.622325, -23.786190) "></path>
            <path d="M18.6262248,1.65028097 C12.9662248,2.37028097 14.0662248,8.32028097 15.6262248,10.710281 C17.1862248,13.100281 17.2262248,12.270281 19.2762248,13.400281 C19.2762248,13.400281 19.6662248,13.190281 20.3962248,16.620281 L21.4862248,16.850281 C21.8462248,16.920281 21.0962248,15.850281 21.5762248,15.370281 C22.0562248,14.890281 23.8162248,15.900281 23.2562248,17.490281 C22.6962248,19.080281 22.6662248,18.630281 22.6662248,18.630281 C22.6662248,18.630281 24.1162248,20.110281 24.8862248,19.780281 C25.6562248,19.450281 29.4162248,19.000281 29.5262248,17.610281 C29.6362248,16.220281 31.1262248,14.230281 30.6262248,10.530281 C30.1262248,6.83028097 27.4762248,3.53028097 23.8262248,3.08028097 C20.1762248,2.63028097 19.9662248,1.47028097 18.6262248,1.65028097 Z" id="Path" fill="#27263A" transform="translate(22.549190, 10.729872) rotate(10.000000) translate(-22.549190, -10.729872) "></path>
        </g>
        <g id="L-hand" transform="translate(78.418755, 66.386011) rotate(-32.000000) translate(-78.418755, -66.386011) translate(55.918755, 48.886011)" fill-rule="nonzero">
            <path d="M10.7306776,32.6603644 C7.07067756,33.7903644 8.55067756,34.7303644 4.95067756,33.8603644 C1.35067756,32.9903644 1.36067756,32.9903644 0.630677564,32.1803644 C-0.369322436,31.0203644 -0.369322436,29.4103644 2.03067756,29.6903644 C4.43067756,29.9703644 5.66067756,30.4703644 5.82067756,30.1603644 C5.98067756,29.8503644 5.18067756,28.7103644 5.88067756,28.6003644 C6.58067756,28.4903644 6.64067756,29.1203644 7.15067756,29.8203644 C7.66067756,30.5203644 10.3306776,29.3303644 10.3306776,29.3303644 L10.7306776,32.6603644 Z" id="Path-Copy-23" fill="#F5D5D5"></path>
            <path d="M8.91067756,29.4403644 C29.4206776,18.6303644 30.4006776,18.2503644 36.3106776,5.60036442 C42.7206776,-8.15963558 45.1306776,7.42036442 44.8406776,10.1903644 C43.0406776,27.7903644 33.3706776,28.5403644 12.6006776,33.3103644 C7.93067756,34.4403644 7.46067756,30.2503644 8.91067756,29.4403644 Z" id="Path-Copy-38" fill="url(#linearGradient-9)"></path>
        </g>
    </g>
</svg>