<?xml version="1.0" encoding="UTF-8"?>
<svg width="759px" height="186px" viewBox="0 0 759 186" version="1.1" xmlns="http://www.w3.org/2000/svg" xmlns:xlink="http://www.w3.org/1999/xlink">
    <title>Group 13</title>
    <g id="Illustration" stroke="none" stroke-width="1" fill="none" fill-rule="evenodd">
        <g id="Group-13" transform="translate(1.000000, 1.000000)">
            <g id="Group-12" transform="translate(176.000000, 153.500000)">
                <text id="My-balance:-$60" font-family="Helvetica" font-size="12" font-weight="normal" fill="#000000" fill-opacity="0.87">
                    <tspan x="0" y="25">My balance: $60</tspan>
                </text>
                <text id="Peer-balance:-$40" font-family="Helvetica" font-size="12" font-weight="normal" fill="#000000" fill-opacity="0.87">
                    <tspan x="307.59375" y="25">Peer balance: $40</tspan>
                </text>
                <rect id="Rectangle" stroke="#456C91" fill="#FFFFFF" x="0" y="0" width="405" height="10" rx="2"></rect>
                <path d="M2,0 L255,0 L255,0 L255,10 L2,10 C0.8954305,10 1.3527075e-16,9.1045695 0,8 L0,2 C-1.3527075e-16,0.8954305 0.8954305,2.02906125e-16 2,0 Z" id="Rectangle" stroke="#456C91" fill="#98E677"></path>
            </g>
            <g id="Group" transform="translate(286.000000, 0.500000)" fill="#4A90E2" fill-opacity="0.8" stroke="#1560BD" stroke-width="2">
                <g id="rings">
                    <ellipse id="Oval" opacity="0.01" cx="79.5" cy="79" rx="79.5" ry="79"></ellipse>
                    <ellipse id="Oval" opacity="0.02" cx="80" cy="79.5" rx="72" ry="71.5"></ellipse>
                    <ellipse id="Oval" opacity="0.04" cx="80" cy="79.5" rx="63" ry="62.5"></ellipse>
                    <circle id="Oval" opacity="0.05" cx="80" cy="79" r="44"></circle>
                    <circle id="Oval" opacity="0.06" cx="80" cy="79" r="20"></circle>
                </g>
            </g>
            <g id="Group-47" transform="translate(124.000000, 36.500000)">
                <path d="M14,0 L81.8350515,0 C84.0441905,-4.05812251e-16 85.8350515,1.790861 85.8350515,4 L85.8350515,83 C85.8350515,85.209139 84.0441905,87 81.8350515,87 L14,87 C11.790861,87 10,85.209139 10,83 L10,4 C10,1.790861 11.790861,4.05812251e-16 14,0 Z" id="Rectangle" stroke="#1560BD" stroke-width="2" fill="#FFFFFF"></path>
                <line x1="4" y1="87" x2="96.9065503" y2="87" id="Path-4" stroke="#1560BD" stroke-width="2" opacity="0.200000003" stroke-linecap="round"></line>
                <line x1="0" y1="87" x2="1" y2="87" id="Path-4" stroke="#1560BD" stroke-width="2" opacity="0.200000003" stroke-linecap="round"></line>
                <line x1="101" y1="87" x2="104" y2="87" id="Path-4" stroke="#1560BD" stroke-width="2" opacity="0.200000003" stroke-linecap="round"></line>
                <path d="M10.8969072,0.896907216 L10.9378894,0.933537346 C11.8292927,1.71554541 12.9821513,2.20823579 14.2517613,2.2624224 L14.4654373,2.26717807 L82.2474227,2.26738144 L82.4484677,2.26272129 L82.6518178,2.24824164 C83.4600136,2.17266785 84.2042273,1.88678108 84.8295608,1.44634988 L84.9381443,1.3668866 L84.9381443,2.26738144 C84.9381443,3.70328953 83.8102208,4.88461548 82.3824495,4.95479394 L82.2254366,4.95837261 L14.4845361,4.95810309 C12.5031434,4.95810309 10.8969072,3.35186694 10.8969072,1.37047423 L10.8969072,0.896907216 Z" id="Combined-Shape" fill="#1560BD" fill-rule="nonzero" opacity="0.200000003" transform="translate(47.917526, 2.927640) scale(1, -1) translate(-47.917526, -2.927640) "></path>
                <path d="M10.8969072,82.5154639 L10.9378894,82.552094 C11.8292927,83.3341021 12.9821513,83.8267925 14.2517613,83.8809791 L14.4654373,83.8857348 L82.2474227,83.8859381 L82.4484677,83.881278 L82.6518178,83.8667983 C83.4600136,83.7912246 84.2042273,83.5053378 84.8295608,83.0649066 L84.9381443,82.9854433 L84.9381443,83.8859381 C84.9381443,85.3218462 83.8102208,86.5031722 82.3824495,86.5733506 L82.2254366,86.5769293 L14.4845361,86.5766598 C12.5031434,86.5766598 10.8969072,84.9704236 10.8969072,82.9890309 L10.8969072,82.5154639 Z" id="Combined-Shape" fill="#1560BD" fill-rule="nonzero" opacity="0.200000003"></path>
                <path d="M64,0.896907216 L82,0.896907216 C83.6568542,0.896907216 85,2.24005297 85,3.89690722 L85,82.8969072 C85,84.5537615 83.6568542,85.8969072 82,85.8969072 L64,85.8969072 L64,85.8969072 L64,0.896907216 Z" id="Rectangle" fill="#4A90E2"></path>
                <rect id="Rectangle" fill="#1560BD" x="63" y="0.896907216" width="1.79381443" height="86.1030928"></rect>
                <rect id="Rectangle" fill="#4A90E2" opacity="0.299999982" x="11" y="62" width="52" height="24"></rect>
                <path d="M20,68 L54,68 L54,75 C54,77.209139 52.209139,79 50,79 L24,79 C21.790861,79 20,77.209139 20,75 L20,68 L20,68 Z" id="Rectangle" stroke="#0B5DC0" stroke-width="2" fill="#7EB7F9"></path>
                <path d="M16.5,6 C17.3284271,6 18,6.67157288 18,7.5 L18,14.5 C18,15.3284271 17.3284271,16 16.5,16 C15.6715729,16 15,15.3284271 15,14.5 L15,7.5 C15,6.67157288 15.6715729,6 16.5,6 Z M23.5,6 C24.3284271,6 25,6.67157288 25,7.5 L25,14.5 C25,15.3284271 24.3284271,16 23.5,16 C22.6715729,16 22,15.3284271 22,14.5 L22,7.5 C22,6.67157288 22.6715729,6 23.5,6 Z M30.5,6 C31.3284271,6 32,6.67157288 32,7.5 L32,14.5 C32,15.3284271 31.3284271,16 30.5,16 C29.6715729,16 29,15.3284271 29,14.5 L29,7.5 C29,6.67157288 29.6715729,6 30.5,6 Z M37.5,6 C38.3284271,6 39,6.67157288 39,7.5 L39,14.5 C39,15.3284271 38.3284271,16 37.5,16 C36.6715729,16 36,15.3284271 36,14.5 L36,7.5 C36,6.67157288 36.6715729,6 37.5,6 Z M44.5,6 C45.3284271,6 46,6.67157288 46,7.5 L46,14.5 C46,15.3284271 45.3284271,16 44.5,16 C43.6715729,16 43,15.3284271 43,14.5 L43,7.5 C43,6.67157288 43.6715729,6 44.5,6 Z M51.5,6 C52.3284271,6 53,6.67157288 53,7.5 L53,14.5 C53,15.3284271 52.3284271,16 51.5,16 C50.6715729,16 50,15.3284271 50,14.5 L50,7.5 C50,6.67157288 50.6715729,6 51.5,6 Z M58.5,6 C59.3284271,6 60,6.67157288 60,7.5 L60,14.5 C60,15.3284271 59.3284271,16 58.5,16 C57.6715729,16 57,15.3284271 57,14.5 L57,7.5 C57,6.67157288 57.6715729,6 58.5,6 Z" id="Combined-Shape" fill="#4A90E2" opacity="0.300000012"></path>
                <path d="M16.5,22 C17.3284271,22 18,22.6715729 18,23.5 L18,30.5 C18,31.3284271 17.3284271,32 16.5,32 C15.6715729,32 15,31.3284271 15,30.5 L15,23.5 C15,22.6715729 15.6715729,22 16.5,22 Z M23.5,22 C24.3284271,22 25,22.6715729 25,23.5 L25,30.5 C25,31.3284271 24.3284271,32 23.5,32 C22.6715729,32 22,31.3284271 22,30.5 L22,23.5 C22,22.6715729 22.6715729,22 23.5,22 Z M30.5,22 C31.3284271,22 32,22.6715729 32,23.5 L32,30.5 C32,31.3284271 31.3284271,32 30.5,32 C29.6715729,32 29,31.3284271 29,30.5 L29,23.5 C29,22.6715729 29.6715729,22 30.5,22 Z M37.5,22 C38.3284271,22 39,22.6715729 39,23.5 L39,30.5 C39,31.3284271 38.3284271,32 37.5,32 C36.6715729,32 36,31.3284271 36,30.5 L36,23.5 C36,22.6715729 36.6715729,22 37.5,22 Z M44.5,22 C45.3284271,22 46,22.6715729 46,23.5 L46,30.5 C46,31.3284271 45.3284271,32 44.5,32 C43.6715729,32 43,31.3284271 43,30.5 L43,23.5 C43,22.6715729 43.6715729,22 44.5,22 Z M51.5,22 C52.3284271,22 53,22.6715729 53,23.5 L53,30.5 C53,31.3284271 52.3284271,32 51.5,32 C50.6715729,32 50,31.3284271 50,30.5 L50,23.5 C50,22.6715729 50.6715729,22 51.5,22 Z M58.5,22 C59.3284271,22 60,22.6715729 60,23.5 L60,30.5 C60,31.3284271 59.3284271,32 58.5,32 C57.6715729,32 57,31.3284271 57,30.5 L57,23.5 C57,22.6715729 57.6715729,22 58.5,22 Z" id="Combined-Shape" fill="#4A90E2" opacity="0.300000012"></path>
                <path d="M16.5,38 C17.3284271,38 18,38.6715729 18,39.5 L18,46.5 C18,47.3284271 17.3284271,48 16.5,48 C15.6715729,48 15,47.3284271 15,46.5 L15,39.5 C15,38.6715729 15.6715729,38 16.5,38 Z M23.5,38 C24.3284271,38 25,38.6715729 25,39.5 L25,46.5 C25,47.3284271 24.3284271,48 23.5,48 C22.6715729,48 22,47.3284271 22,46.5 L22,39.5 C22,38.6715729 22.6715729,38 23.5,38 Z M30.5,38 C31.3284271,38 32,38.6715729 32,39.5 L32,46.5 C32,47.3284271 31.3284271,48 30.5,48 C29.6715729,48 29,47.3284271 29,46.5 L29,39.5 C29,38.6715729 29.6715729,38 30.5,38 Z M37.5,38 C38.3284271,38 39,38.6715729 39,39.5 L39,46.5 C39,47.3284271 38.3284271,48 37.5,48 C36.6715729,48 36,47.3284271 36,46.5 L36,39.5 C36,38.6715729 36.6715729,38 37.5,38 Z M44.5,38 C45.3284271,38 46,38.6715729 46,39.5 L46,46.5 C46,47.3284271 45.3284271,48 44.5,48 C43.6715729,48 43,47.3284271 43,46.5 L43,39.5 C43,38.6715729 43.6715729,38 44.5,38 Z M51.5,38 C52.3284271,38 53,38.6715729 53,39.5 L53,46.5 C53,47.3284271 52.3284271,48 51.5,48 C50.6715729,48 50,47.3284271 50,46.5 L50,39.5 C50,38.6715729 50.6715729,38 51.5,38 Z M58.5,38 C59.3284271,38 60,38.6715729 60,39.5 L60,46.5 C60,47.3284271 59.3284271,48 58.5,48 C57.6715729,48 57,47.3284271 57,46.5 L57,39.5 C57,38.6715729 57.6715729,38 58.5,38 Z" id="Combined-Shape" fill="#4A90E2" opacity="0.300000012"></path>
                <path d="M16.5,53 C17.3284271,53 18,53.6715729 18,54.5 L18,61.5 C18,62.3284271 17.3284271,63 16.5,63 C15.6715729,63 15,62.3284271 15,61.5 L15,54.5 C15,53.6715729 15.6715729,53 16.5,53 Z M23.5,53 C24.3284271,53 25,53.6715729 25,54.5 L25,61.5 C25,62.3284271 24.3284271,63 23.5,63 C22.6715729,63 22,62.3284271 22,61.5 L22,54.5 C22,53.6715729 22.6715729,53 23.5,53 Z M30.5,53 C31.3284271,53 32,53.6715729 32,54.5 L32,61.5 C32,62.3284271 31.3284271,63 30.5,63 C29.6715729,63 29,62.3284271 29,61.5 L29,54.5 C29,53.6715729 29.6715729,53 30.5,53 Z M37.5,53 C38.3284271,53 39,53.6715729 39,54.5 L39,61.5 C39,62.3284271 38.3284271,63 37.5,63 C36.6715729,63 36,62.3284271 36,61.5 L36,54.5 C36,53.6715729 36.6715729,53 37.5,53 Z M44.5,53 C45.3284271,53 46,53.6715729 46,54.5 L46,61.5 C46,62.3284271 45.3284271,63 44.5,63 C43.6715729,63 43,62.3284271 43,61.5 L43,54.5 C43,53.6715729 43.6715729,53 44.5,53 Z M51.5,53 C52.3284271,53 53,53.6715729 53,54.5 L53,61.5 C53,62.3284271 52.3284271,63 51.5,63 C50.6715729,63 50,62.3284271 50,61.5 L50,54.5 C50,53.6715729 50.6715729,53 51.5,53 Z M58.5,53 C59.3284271,53 60,53.6715729 60,54.5 L60,61.5 C60,62.3284271 59.3284271,63 58.5,63 C57.6715729,63 57,62.3284271 57,61.5 L57,54.5 C57,53.6715729 57.6715729,53 58.5,53 Z" id="Combined-Shape" fill="#4A90E2" opacity="0.300000012"></path>
                <rect id="Rectangle" stroke="#0B5DC0" stroke-width="2" fill="#7EB7F9" x="69" y="10" width="11" height="20" rx="2"></rect>
                <path d="M18,36 L22,36 C23.1045695,36 24,36.8954305 24,38 L24,47 L24,47 L16,47 L16,38 C16,36.8954305 16.8954305,36 18,36 Z" id="Rectangle" stroke="#0B5DC0" stroke-width="2" fill="#7EB7F9"></path>
                <path d="M32,36 L36,36 C37.1045695,36 38,36.8954305 38,38 L38,47 L38,47 L30,47 L30,38 C30,36.8954305 30.8954305,36 32,36 Z" id="Rectangle" stroke="#0B5DC0" stroke-width="2" fill="#7EB7F9"></path>
                <path d="M53,36 L57,36 C58.1045695,36 59,36.8954305 59,38 L59,47 L59,47 L51,47 L51,38 C51,36.8954305 51.8954305,36 53,36 Z" id="Rectangle" stroke="#0B5DC0" stroke-width="2" fill="#7EB7F9"></path>
                <path d="M46,20 L50,20 C51.1045695,20 52,20.8954305 52,22 L52,31 L52,31 L44,31 L44,22 C44,20.8954305 44.8954305,20 46,20 Z" id="Rectangle" stroke="#0B5DC0" stroke-width="2" fill="#7EB7F9"></path>
                <path d="M18,51 L22,51 C23.1045695,51 24,51.8954305 24,53 L24,62 L24,62 L16,62 L16,53 C16,51.8954305 16.8954305,51 18,51 Z" id="Rectangle" stroke="#0B5DC0" stroke-width="2" fill="#7EB7F9"></path>
                <path d="M39,51 L43,51 C44.1045695,51 45,51.8954305 45,53 L45,62 L45,62 L37,62 L37,53 C37,51.8954305 37.8954305,51 39,51 Z" id="Rectangle" stroke="#0B5DC0" stroke-width="2" fill="#7EB7F9"></path>
                <path d="M53,51 L57,51 C58.1045695,51 59,51.8954305 59,53 L59,62 L59,62 L51,62 L51,53 C51,51.8954305 51.8954305,51 53,51 Z" id="Rectangle" stroke="#0B5DC0" stroke-width="2" fill="#7EB7F9"></path>
                <rect id="Rectangle" fill="#1560BD" x="10" y="61.1030928" width="54" height="2"></rect>
                <g id="Group-46" transform="translate(10.000000, 46.000000)" fill="#1560BD">
                    <rect id="Rectangle" x="0" y="0" width="54" height="2"></rect>
                    <rect id="Rectangle" opacity="0.2" x="0" y="2" width="54" height="3"></rect>
                </g>
                <g id="Group-45" transform="translate(10.000000, 30.000000)" fill="#1560BD">
                    <rect id="Rectangle" x="0" y="0" width="54" height="2"></rect>
                    <rect id="Rectangle" opacity="0.2" x="0" y="2" width="54" height="3"></rect>
                </g>
                <g id="Group-44" transform="translate(10.000000, 14.000000)" fill="#1560BD">
                    <rect id="Rectangle" x="0" y="0" width="54" height="2"></rect>
                    <rect id="Rectangle" opacity="0.2" x="0" y="2" width="54" height="3"></rect>
                </g>
                <rect id="Rectangle" fill="#1560BD" opacity="0.119999997" x="21" y="69" width="32" height="3"></rect>
                <circle id="Oval" fill="#FFFFFF" opacity="0.5" cx="78" cy="37" r="2"></circle>
                <circle id="Oval" fill="#FFFFFF" opacity="0.5" cx="71" cy="37" r="2"></circle>
                <circle id="Oval" fill="#FFFFFF" opacity="0.5" cx="78" cy="43" r="2"></circle>
                <circle id="Oval" fill="#FFFFFF" opacity="0.5" cx="71" cy="43" r="2"></circle>
                <circle id="Oval" fill="#FFFFFF" opacity="0.5" cx="78" cy="49" r="2"></circle>
                <circle id="Oval" fill="#FFFFFF" opacity="0.5" cx="71" cy="49" r="2"></circle>
                <rect id="Rectangle" fill="#FFFFFF" opacity="0.200000003" x="69" y="54" width="11" height="4" rx="2"></rect>
            </g>
            <g id="Group-47" transform="translate(529.000000, 36.500000)">
                <path d="M14,0 L81.8350515,0 C84.0441905,-4.05812251e-16 85.8350515,1.790861 85.8350515,4 L85.8350515,83 C85.8350515,85.209139 84.0441905,87 81.8350515,87 L14,87 C11.790861,87 10,85.209139 10,83 L10,4 C10,1.790861 11.790861,4.05812251e-16 14,0 Z" id="Rectangle" stroke="#1560BD" stroke-width="2" fill="#FFFFFF"></path>
                <line x1="4" y1="87" x2="96.9065503" y2="87" id="Path-4" stroke="#1560BD" stroke-width="2" opacity="0.200000003" stroke-linecap="round"></line>
                <line x1="0" y1="87" x2="1" y2="87" id="Path-4" stroke="#1560BD" stroke-width="2" opacity="0.200000003" stroke-linecap="round"></line>
                <line x1="101" y1="87" x2="104" y2="87" id="Path-4" stroke="#1560BD" stroke-width="2" opacity="0.200000003" stroke-linecap="round"></line>
                <path d="M10.8969072,0.896907216 L10.9378894,0.933537346 C11.8292927,1.71554541 12.9821513,2.20823579 14.2517613,2.2624224 L14.4654373,2.26717807 L82.2474227,2.26738144 L82.4484677,2.26272129 L82.6518178,2.24824164 C83.4600136,2.17266785 84.2042273,1.88678108 84.8295608,1.44634988 L84.9381443,1.3668866 L84.9381443,2.26738144 C84.9381443,3.70328953 83.8102208,4.88461548 82.3824495,4.95479394 L82.2254366,4.95837261 L14.4845361,4.95810309 C12.5031434,4.95810309 10.8969072,3.35186694 10.8969072,1.37047423 L10.8969072,0.896907216 Z" id="Combined-Shape" fill="#1560BD" fill-rule="nonzero" opacity="0.200000003" transform="translate(47.917526, 2.927640) scale(1, -1) translate(-47.917526, -2.927640) "></path>
                <path d="M10.8969072,82.5154639 L10.9378894,82.552094 C11.8292927,83.3341021 12.9821513,83.8267925 14.2517613,83.8809791 L14.4654373,83.8857348 L82.2474227,83.8859381 L82.4484677,83.881278 L82.6518178,83.8667983 C83.4600136,83.7912246 84.2042273,83.5053378 84.8295608,83.0649066 L84.9381443,82.9854433 L84.9381443,83.8859381 C84.9381443,85.3218462 83.8102208,86.5031722 82.3824495,86.5733506 L82.2254366,86.5769293 L14.4845361,86.5766598 C12.5031434,86.5766598 10.8969072,84.9704236 10.8969072,82.9890309 L10.8969072,82.5154639 Z" id="Combined-Shape" fill="#1560BD" fill-rule="nonzero" opacity="0.200000003"></path>
                <path d="M64,0.896907216 L82,0.896907216 C83.6568542,0.896907216 85,2.24005297 85,3.89690722 L85,82.8969072 C85,84.5537615 83.6568542,85.8969072 82,85.8969072 L64,85.8969072 L64,85.8969072 L64,0.896907216 Z" id="Rectangle" fill="#4A90E2"></path>
                <rect id="Rectangle" fill="#1560BD" x="63" y="0.896907216" width="1.79381443" height="86.1030928"></rect>
                <rect id="Rectangle" fill="#4A90E2" opacity="0.299999982" x="11" y="62" width="52" height="24"></rect>
                <path d="M20,68 L54,68 L54,75 C54,77.209139 52.209139,79 50,79 L24,79 C21.790861,79 20,77.209139 20,75 L20,68 L20,68 Z" id="Rectangle" stroke="#0B5DC0" stroke-width="2" fill="#7EB7F9"></path>
                <path d="M16.5,6 C17.3284271,6 18,6.67157288 18,7.5 L18,14.5 C18,15.3284271 17.3284271,16 16.5,16 C15.6715729,16 15,15.3284271 15,14.5 L15,7.5 C15,6.67157288 15.6715729,6 16.5,6 Z M23.5,6 C24.3284271,6 25,6.67157288 25,7.5 L25,14.5 C25,15.3284271 24.3284271,16 23.5,16 C22.6715729,16 22,15.3284271 22,14.5 L22,7.5 C22,6.67157288 22.6715729,6 23.5,6 Z M30.5,6 C31.3284271,6 32,6.67157288 32,7.5 L32,14.5 C32,15.3284271 31.3284271,16 30.5,16 C29.6715729,16 29,15.3284271 29,14.5 L29,7.5 C29,6.67157288 29.6715729,6 30.5,6 Z M37.5,6 C38.3284271,6 39,6.67157288 39,7.5 L39,14.5 C39,15.3284271 38.3284271,16 37.5,16 C36.6715729,16 36,15.3284271 36,14.5 L36,7.5 C36,6.67157288 36.6715729,6 37.5,6 Z M44.5,6 C45.3284271,6 46,6.67157288 46,7.5 L46,14.5 C46,15.3284271 45.3284271,16 44.5,16 C43.6715729,16 43,15.3284271 43,14.5 L43,7.5 C43,6.67157288 43.6715729,6 44.5,6 Z M51.5,6 C52.3284271,6 53,6.67157288 53,7.5 L53,14.5 C53,15.3284271 52.3284271,16 51.5,16 C50.6715729,16 50,15.3284271 50,14.5 L50,7.5 C50,6.67157288 50.6715729,6 51.5,6 Z M58.5,6 C59.3284271,6 60,6.67157288 60,7.5 L60,14.5 C60,15.3284271 59.3284271,16 58.5,16 C57.6715729,16 57,15.3284271 57,14.5 L57,7.5 C57,6.67157288 57.6715729,6 58.5,6 Z" id="Combined-Shape" fill="#4A90E2" opacity="0.300000012"></path>
                <path d="M16.5,22 C17.3284271,22 18,22.6715729 18,23.5 L18,30.5 C18,31.3284271 17.3284271,32 16.5,32 C15.6715729,32 15,31.3284271 15,30.5 L15,23.5 C15,22.6715729 15.6715729,22 16.5,22 Z M23.5,22 C24.3284271,22 25,22.6715729 25,23.5 L25,30.5 C25,31.3284271 24.3284271,32 23.5,32 C22.6715729,32 22,31.3284271 22,30.5 L22,23.5 C22,22.6715729 22.6715729,22 23.5,22 Z M30.5,22 C31.3284271,22 32,22.6715729 32,23.5 L32,30.5 C32,31.3284271 31.3284271,32 30.5,32 C29.6715729,32 29,31.3284271 29,30.5 L29,23.5 C29,22.6715729 29.6715729,22 30.5,22 Z M37.5,22 C38.3284271,22 39,22.6715729 39,23.5 L39,30.5 C39,31.3284271 38.3284271,32 37.5,32 C36.6715729,32 36,31.3284271 36,30.5 L36,23.5 C36,22.6715729 36.6715729,22 37.5,22 Z M44.5,22 C45.3284271,22 46,22.6715729 46,23.5 L46,30.5 C46,31.3284271 45.3284271,32 44.5,32 C43.6715729,32 43,31.3284271 43,30.5 L43,23.5 C43,22.6715729 43.6715729,22 44.5,22 Z M51.5,22 C52.3284271,22 53,22.6715729 53,23.5 L53,30.5 C53,31.3284271 52.3284271,32 51.5,32 C50.6715729,32 50,31.3284271 50,30.5 L50,23.5 C50,22.6715729 50.6715729,22 51.5,22 Z M58.5,22 C59.3284271,22 60,22.6715729 60,23.5 L60,30.5 C60,31.3284271 59.3284271,32 58.5,32 C57.6715729,32 57,31.3284271 57,30.5 L57,23.5 C57,22.6715729 57.6715729,22 58.5,22 Z" id="Combined-Shape" fill="#4A90E2" opacity="0.300000012"></path>
                <path d="M16.5,38 C17.3284271,38 18,38.6715729 18,39.5 L18,46.5 C18,47.3284271 17.3284271,48 16.5,48 C15.6715729,48 15,47.3284271 15,46.5 L15,39.5 C15,38.6715729 15.6715729,38 16.5,38 Z M23.5,38 C24.3284271,38 25,38.6715729 25,39.5 L25,46.5 C25,47.3284271 24.3284271,48 23.5,48 C22.6715729,48 22,47.3284271 22,46.5 L22,39.5 C22,38.6715729 22.6715729,38 23.5,38 Z M30.5,38 C31.3284271,38 32,38.6715729 32,39.5 L32,46.5 C32,47.3284271 31.3284271,48 30.5,48 C29.6715729,48 29,47.3284271 29,46.5 L29,39.5 C29,38.6715729 29.6715729,38 30.5,38 Z M37.5,38 C38.3284271,38 39,38.6715729 39,39.5 L39,46.5 C39,47.3284271 38.3284271,48 37.5,48 C36.6715729,48 36,47.3284271 36,46.5 L36,39.5 C36,38.6715729 36.6715729,38 37.5,38 Z M44.5,38 C45.3284271,38 46,38.6715729 46,39.5 L46,46.5 C46,47.3284271 45.3284271,48 44.5,48 C43.6715729,48 43,47.3284271 43,46.5 L43,39.5 C43,38.6715729 43.6715729,38 44.5,38 Z M51.5,38 C52.3284271,38 53,38.6715729 53,39.5 L53,46.5 C53,47.3284271 52.3284271,48 51.5,48 C50.6715729,48 50,47.3284271 50,46.5 L50,39.5 C50,38.6715729 50.6715729,38 51.5,38 Z M58.5,38 C59.3284271,38 60,38.6715729 60,39.5 L60,46.5 C60,47.3284271 59.3284271,48 58.5,48 C57.6715729,48 57,47.3284271 57,46.5 L57,39.5 C57,38.6715729 57.6715729,38 58.5,38 Z" id="Combined-Shape" fill="#4A90E2" opacity="0.300000012"></path>
                <path d="M16.5,53 C17.3284271,53 18,53.6715729 18,54.5 L18,61.5 C18,62.3284271 17.3284271,63 16.5,63 C15.6715729,63 15,62.3284271 15,61.5 L15,54.5 C15,53.6715729 15.6715729,53 16.5,53 Z M23.5,53 C24.3284271,53 25,53.6715729 25,54.5 L25,61.5 C25,62.3284271 24.3284271,63 23.5,63 C22.6715729,63 22,62.3284271 22,61.5 L22,54.5 C22,53.6715729 22.6715729,53 23.5,53 Z M30.5,53 C31.3284271,53 32,53.6715729 32,54.5 L32,61.5 C32,62.3284271 31.3284271,63 30.5,63 C29.6715729,63 29,62.3284271 29,61.5 L29,54.5 C29,53.6715729 29.6715729,53 30.5,53 Z M37.5,53 C38.3284271,53 39,53.6715729 39,54.5 L39,61.5 C39,62.3284271 38.3284271,63 37.5,63 C36.6715729,63 36,62.3284271 36,61.5 L36,54.5 C36,53.6715729 36.6715729,53 37.5,53 Z M44.5,53 C45.3284271,53 46,53.6715729 46,54.5 L46,61.5 C46,62.3284271 45.3284271,63 44.5,63 C43.6715729,63 43,62.3284271 43,61.5 L43,54.5 C43,53.6715729 43.6715729,53 44.5,53 Z M51.5,53 C52.3284271,53 53,53.6715729 53,54.5 L53,61.5 C53,62.3284271 52.3284271,63 51.5,63 C50.6715729,63 50,62.3284271 50,61.5 L50,54.5 C50,53.6715729 50.6715729,53 51.5,53 Z M58.5,53 C59.3284271,53 60,53.6715729 60,54.5 L60,61.5 C60,62.3284271 59.3284271,63 58.5,63 C57.6715729,63 57,62.3284271 57,61.5 L57,54.5 C57,53.6715729 57.6715729,53 58.5,53 Z" id="Combined-Shape" fill="#4A90E2" opacity="0.300000012"></path>
                <rect id="Rectangle" stroke="#0B5DC0" stroke-width="2" fill="#7EB7F9" x="69" y="10" width="11" height="20" rx="2"></rect>
                <path d="M18,36 L22,36 C23.1045695,36 24,36.8954305 24,38 L24,47 L24,47 L16,47 L16,38 C16,36.8954305 16.8954305,36 18,36 Z" id="Rectangle" stroke="#0B5DC0" stroke-width="2" fill="#7EB7F9"></path>
                <path d="M32,36 L36,36 C37.1045695,36 38,36.8954305 38,38 L38,47 L38,47 L30,47 L30,38 C30,36.8954305 30.8954305,36 32,36 Z" id="Rectangle" stroke="#0B5DC0" stroke-width="2" fill="#7EB7F9"></path>
                <path d="M53,36 L57,36 C58.1045695,36 59,36.8954305 59,38 L59,47 L59,47 L51,47 L51,38 C51,36.8954305 51.8954305,36 53,36 Z" id="Rectangle" stroke="#0B5DC0" stroke-width="2" fill="#7EB7F9"></path>
                <path d="M46,20 L50,20 C51.1045695,20 52,20.8954305 52,22 L52,31 L52,31 L44,31 L44,22 C44,20.8954305 44.8954305,20 46,20 Z" id="Rectangle" stroke="#0B5DC0" stroke-width="2" fill="#7EB7F9"></path>
                <path d="M18,51 L22,51 C23.1045695,51 24,51.8954305 24,53 L24,62 L24,62 L16,62 L16,53 C16,51.8954305 16.8954305,51 18,51 Z" id="Rectangle" stroke="#0B5DC0" stroke-width="2" fill="#7EB7F9"></path>
                <path d="M39,51 L43,51 C44.1045695,51 45,51.8954305 45,53 L45,62 L45,62 L37,62 L37,53 C37,51.8954305 37.8954305,51 39,51 Z" id="Rectangle" stroke="#0B5DC0" stroke-width="2" fill="#7EB7F9"></path>
                <path d="M53,51 L57,51 C58.1045695,51 59,51.8954305 59,53 L59,62 L59,62 L51,62 L51,53 C51,51.8954305 51.8954305,51 53,51 Z" id="Rectangle" stroke="#0B5DC0" stroke-width="2" fill="#7EB7F9"></path>
                <rect id="Rectangle" fill="#1560BD" x="10" y="61.1030928" width="54" height="2"></rect>
                <g id="Group-46" transform="translate(10.000000, 46.000000)" fill="#1560BD">
                    <rect id="Rectangle" x="0" y="0" width="54" height="2"></rect>
                    <rect id="Rectangle" opacity="0.2" x="0" y="2" width="54" height="3"></rect>
                </g>
                <g id="Group-45" transform="translate(10.000000, 30.000000)" fill="#1560BD">
                    <rect id="Rectangle" x="0" y="0" width="54" height="2"></rect>
                    <rect id="Rectangle" opacity="0.2" x="0" y="2" width="54" height="3"></rect>
                </g>
                <g id="Group-44" transform="translate(10.000000, 14.000000)" fill="#1560BD">
                    <rect id="Rectangle" x="0" y="0" width="54" height="2"></rect>
                    <rect id="Rectangle" opacity="0.2" x="0" y="2" width="54" height="3"></rect>
                </g>
                <rect id="Rectangle" fill="#1560BD" opacity="0.119999997" x="21" y="69" width="32" height="3"></rect>
                <circle id="Oval" fill="#FFFFFF" opacity="0.5" cx="78" cy="37" r="2"></circle>
                <circle id="Oval" fill="#FFFFFF" opacity="0.5" cx="71" cy="37" r="2"></circle>
                <circle id="Oval" fill="#FFFFFF" opacity="0.5" cx="78" cy="43" r="2"></circle>
                <circle id="Oval" fill="#FFFFFF" opacity="0.5" cx="71" cy="43" r="2"></circle>
                <circle id="Oval" fill="#FFFFFF" opacity="0.5" cx="78" cy="49" r="2"></circle>
                <circle id="Oval" fill="#FFFFFF" opacity="0.5" cx="71" cy="49" r="2"></circle>
                <rect id="Rectangle" fill="#FFFFFF" opacity="0.200000003" x="69" y="54" width="11" height="4" rx="2"></rect>
            </g>
            <path id="Path-12" d="M246.387107,63.5 C246.848328,63.5 247.222222,63.8738939 247.222222,64.3351154 L247.222222,64.3351154 L247.222,69.5 L514,69.5 C514.552285,69.5 515,69.9477153 515,70.5 C515,71.0128358 514.61396,71.4355072 514.116621,71.4932723 L514,71.5 L247.222,71.5 L247.222222,76.6647017 C247.222222,76.7511334 247.208807,76.8367738 247.182683,76.9186225 L247.134057,77.0381766 C246.927792,77.4507057 246.426161,77.6179161 246.013632,77.4116516 L246.013632,77.4116516 L233.684046,71.2468584 C233.522428,71.1660496 233.391379,71.0350012 233.310571,70.8733835 C233.104306,70.4608544 233.271517,69.9592232 233.684046,69.7529586 L233.684046,69.7529586 L246.013632,63.5881655 C246.129592,63.5301853 246.257459,63.5 246.387107,63.5 Z" fill="#4A90E2" fill-rule="nonzero" opacity="0.5"></path>
            <path id="Path-12" d="M246.387107,79.5 C246.848328,79.5 247.222222,79.8738939 247.222222,80.3351154 L247.222222,80.3351154 L247.222,85.5 L514,85.5 C514.552285,85.5 515,85.9477153 515,86.5 C515,87.0128358 514.61396,87.4355072 514.116621,87.4932723 L514,87.5 L247.222,87.5 L247.222222,92.6647017 C247.222222,92.7511334 247.208807,92.8367738 247.182683,92.9186225 L247.134057,93.0381766 C246.927792,93.4507057 246.426161,93.6179161 246.013632,93.4116516 L246.013632,93.4116516 L233.684046,87.2468584 C233.522428,87.1660496 233.391379,87.0350012 233.310571,86.8733835 C233.104306,86.4608544 233.271517,85.9592232 233.684046,85.7529586 L233.684046,85.7529586 L246.013632,79.5881655 C246.129592,79.5301853 246.257459,79.5 246.387107,79.5 Z" fill="#4A90E2" fill-rule="nonzero" opacity="0.5"></path>
            <g id="Group-55" transform="translate(0.000000, 40.500000)">
                <g id="Group-53" transform="translate(9.000000, 0.000000)">
                    <polygon id="Path-17" fill="#4A90E2" points="5.61729459 47.3341394 22.3827054 47.3341394 22.3827054 80.8902642 15.5 80.8902642 15.5 54.5056276 12.5220821 54.5056276 12.5220821 80.8902642 5.61729459 80.8902642"></polygon>
                    <g id="Group-52" transform="translate(0.000000, 2.718615)" stroke="#1560BD" stroke-linecap="round" stroke-linejoin="round" stroke-width="2">
                        <g id="Group-51" transform="translate(0.000000, 0.000000)">
                            <path d="M13.9218915,51.6429474 L12.4625199,51.6429474 L12.4625199,79.5542384 L5.61729459,79.5542384 L5.61729459,31.4646991 C5.62892664,30.0702177 5.95422731,29.372977 6.59319661,29.372977" id="Path-13-Copy"></path>
                            <path d="M5.61729459,53.6162817 C3.4235002,52.7108787 1.7513208,52.1899969 1.7513208,47.7960023 C1.7513208,44.8666726 1.7513208,43.6827193 1.7513208,44.2441425 L-1.36779477e-13,35.6994018 C0.264566042,29.603839 1.05002939,25.8682657 2.35639004,24.492682 C4.31593101,22.4293064 9.27356675,21.4951305 9.76959305,20.5582659 C10.1002773,19.9336895 10.1867896,19.1776151 10.0291302,18.2900427" id="Path-15-Copy"></path>
                            <line x1="5.61729459" y1="44.6155243" x2="13.9218915" y2="44.6155243" id="Path-16-Copy"></line>
                            <line x1="10.1054796" y1="44.6155243" x2="5.61729459" y2="48.9938309" id="Path-17-Copy"></line>
                            <line x1="5.61729459" y1="47.6080926" x2="1.8707843" y2="47.6080926" id="Path-18-Copy"></line>
                            <line x1="5.61729459" y1="43.6159048" x2="1.8707843" y2="43.6159048" id="Path-18-Copy-2"></line>
                            <path d="M13.9218915,19.7995298 C12.9670574,19.7995298 12.1893189,19.6755751 11.5886761,19.4276657 C8.44160218,17.3007843 6.0262604,15.1700284 6.0262604,11.6861404 C6.0262604,9.36354844 6.0262604,6.34523056 6.0262604,2.6311868 L13.9218915,8.8817842e-15" id="Path-19-Copy"></path>
                        </g>
                        <g id="Group-51" transform="translate(21.000000, 40.000000) scale(-1, 1) translate(-21.000000, -40.000000) translate(14.000000, 0.000000)">
                            <path d="M13.9218915,51.6429474 L12.4625199,51.6429474 L12.4625199,79.5542384 L5.61729459,79.5542384 L5.61729459,31.4646991 C5.62892664,30.0702177 5.95422731,29.372977 6.59319661,29.372977" id="Path-13-Copy"></path>
                            <path d="M5.61729459,53.6162817 C3.4235002,52.7108787 1.7513208,52.1899969 1.7513208,47.7960023 C1.7513208,44.8666726 1.7513208,43.6827193 1.7513208,44.2441425 L-1.36779477e-13,35.6994018 C0.264566042,29.603839 1.05002939,25.8682657 2.35639004,24.492682 C4.31593101,22.4293064 9.27356675,21.4951305 9.76959305,20.5582659 C10.1002773,19.9336895 10.1867896,19.1776151 10.0291302,18.2900427" id="Path-15-Copy"></path>
                            <line x1="5.61729459" y1="44.6155243" x2="13.9218915" y2="44.6155243" id="Path-16-Copy"></line>
                            <line x1="10.1054796" y1="44.6155243" x2="5.61729459" y2="48.9938309" id="Path-17-Copy"></line>
                            <line x1="5.61729459" y1="47.6080926" x2="1.8707843" y2="47.6080926" id="Path-18-Copy"></line>
                            <line x1="5.61729459" y1="43.6159048" x2="1.8707843" y2="43.6159048" id="Path-18-Copy-2"></line>
                            <path d="M13.9218915,19.7995298 C12.9670574,19.7995298 12.1893189,19.6755751 11.5886761,19.4276657 C8.44160218,17.3007843 6.0262604,15.1700284 6.0262604,11.6861404 C6.0262604,9.36354844 6.0262604,6.34523056 6.0262604,2.6311868 L13.9218915,8.8817842e-15" id="Path-19-Copy"></path>
                        </g>
                    </g>
                    <path d="M7.76218535,6.08687951 C7.49798892,6.76892455 6.55340878,8.9172437 5.39162741,8.39112718 C4.22984605,7.86501066 4.63968963,4.96368615 5.05273981,3.9704954 C5.46578999,2.97730464 6.450024,2.49056438 7.76218535,2.96276035 C8.40430787,1.9580942 11.091083,-1.50565464 17.8945204,0.747489125 C24.6979578,3.00063289 23.7080705,6.37783733 23.3509125,9.46680112 C22.3448939,8.75545192 21.9737396,8.20800658 21.1474482,7.50186207 C20.3211569,6.79571756 19.7443576,6.2375731 17.2991498,6.61342284 C14.8539421,6.98927257 10.6855607,7.24297005 7.76218535,6.08687951 Z" id="Path-13" stroke="#1560BD" stroke-width="2" fill="#C9DEF7" stroke-linejoin="round"></path>
                    <path d="M12.5220821,82.3188897 C12.446628,78.7293098 10.8912887,76.9345199 7.85606396,76.9345199 C4.82083925,76.9345199 3.44811104,78.3504352 3.73787932,81.1822657 C3.77437099,81.940015 4.42069682,82.3188897 5.67685682,82.3188897 C6.93301681,82.3188897 9.21475857,82.3188897 12.5220821,82.3188897 Z" id="Path-15" stroke="#1560BD" stroke-width="2" fill="#C9DEF7" stroke-linecap="round" stroke-linejoin="round"></path>
                    <path d="M24.3220821,82.3188897 C24.246628,78.7293098 22.6912887,76.9345199 19.656064,76.9345199 C16.6208393,76.9345199 15.248111,78.3504352 15.5378793,81.1822657 C15.574371,81.940015 16.2206968,82.3188897 17.4768568,82.3188897 C18.7330168,82.3188897 21.0147586,82.3188897 24.3220821,82.3188897 Z" id="Path-15" stroke="#1560BD" stroke-width="2" fill="#C9DEF7" stroke-linecap="round" stroke-linejoin="round" transform="translate(19.911041, 79.626705) scale(-1, 1) translate(-19.911041, -79.626705) "></path>
                    <circle id="Oval" fill="#1560BD" cx="10.2" cy="12.2345199" r="1.5"></circle>
                    <circle id="Oval" fill="#1560BD" cx="18.2" cy="12.2345199" r="1.5"></circle>
                    <path d="M12.3732213,17.8027431 C12.3732213,17.8027431 13.0569405,18.3816471 14.3687134,18.3816471 C15.6804862,18.3816471 15.9984691,17.8027431 15.9984691,17.8027431" id="Path-16" stroke="#1560BD" stroke-width="2" stroke-linecap="round"></path>
                    <path d="M13.4639826,14.7060603 C13.4639826,14.7060603 13.4629743,14.9086767 14.0781085,14.9086767 C14.6932427,14.9086767 14.8858452,14.7060603 14.8858452,14.7060603" id="Path-16" stroke="#1560BD" stroke-width="2" stroke-linecap="round"></path>
                    <path d="M8.84324062,23.9670748 C8.84324062,23.9670748 9.8915455,25.7557463 13.8930329,25.7557463 C17.8945204,25.7557463 19.144677,23.9670748 19.144677,23.9670748" id="Path-18" stroke="#1560BD" stroke-width="2"></path>
                </g>
                <g id="Group-54" transform="translate(0.000000, 81.334520)" opacity="0.200000003" stroke="#1560BD" stroke-linecap="round" stroke-width="2">
                    <line x1="5" y1="1" x2="36.5119617" y2="1" id="Path-4"></line>
                    <line x1="0" y1="1" x2="1" y2="1" id="Path-4"></line>
                    <line x1="40" y1="1" x2="46" y2="1" id="Path-4"></line>
                </g>
            </g>
            <g id="Group-55" transform="translate(711.000000, 40.500000)">
                <g id="Group-53" transform="translate(9.000000, 0.000000)">
                    <polygon id="Path-17" fill="#4A90E2" points="5.61729459 47.3341394 22.3827054 47.3341394 22.3827054 80.8902642 15.5 80.8902642 15.5 54.5056276 12.5220821 54.5056276 12.5220821 80.8902642 5.61729459 80.8902642"></polygon>
                    <g id="Group-52" transform="translate(0.000000, 2.718615)" stroke="#1560BD" stroke-linecap="round" stroke-linejoin="round" stroke-width="2">
                        <g id="Group-51" transform="translate(0.000000, 0.000000)">
                            <path d="M13.9218915,51.6429474 L12.4625199,51.6429474 L12.4625199,79.5542384 L5.61729459,79.5542384 L5.61729459,31.4646991 C5.62892664,30.0702177 5.95422731,29.372977 6.59319661,29.372977" id="Path-13-Copy"></path>
                            <path d="M5.61729459,53.6162817 C3.4235002,52.7108787 1.7513208,52.1899969 1.7513208,47.7960023 C1.7513208,44.8666726 1.7513208,43.6827193 1.7513208,44.2441425 L-1.36779477e-13,35.6994018 C0.264566042,29.603839 1.05002939,25.8682657 2.35639004,24.492682 C4.31593101,22.4293064 9.27356675,21.4951305 9.76959305,20.5582659 C10.1002773,19.9336895 10.1867896,19.1776151 10.0291302,18.2900427" id="Path-15-Copy"></path>
                            <line x1="5.61729459" y1="44.6155243" x2="13.9218915" y2="44.6155243" id="Path-16-Copy"></line>
                            <line x1="10.1054796" y1="44.6155243" x2="5.61729459" y2="48.9938309" id="Path-17-Copy"></line>
                            <line x1="5.61729459" y1="47.6080926" x2="1.8707843" y2="47.6080926" id="Path-18-Copy"></line>
                            <line x1="5.61729459" y1="43.6159048" x2="1.8707843" y2="43.6159048" id="Path-18-Copy-2"></line>
                            <path d="M13.9218915,19.7995298 C12.9670574,19.7995298 12.1893189,19.6755751 11.5886761,19.4276657 C8.44160218,17.3007843 6.0262604,15.1700284 6.0262604,11.6861404 C6.0262604,9.36354844 6.0262604,6.34523056 6.0262604,2.6311868 L13.9218915,8.8817842e-15" id="Path-19-Copy"></path>
                        </g>
                        <g id="Group-51" transform="translate(21.000000, 40.000000) scale(-1, 1) translate(-21.000000, -40.000000) translate(14.000000, 0.000000)">
                            <path d="M13.9218915,51.6429474 L12.4625199,51.6429474 L12.4625199,79.5542384 L5.61729459,79.5542384 L5.61729459,31.4646991 C5.62892664,30.0702177 5.95422731,29.372977 6.59319661,29.372977" id="Path-13-Copy"></path>
                            <path d="M5.61729459,53.6162817 C3.4235002,52.7108787 1.7513208,52.1899969 1.7513208,47.7960023 C1.7513208,44.8666726 1.7513208,43.6827193 1.7513208,44.2441425 L-1.36779477e-13,35.6994018 C0.264566042,29.603839 1.05002939,25.8682657 2.35639004,24.492682 C4.31593101,22.4293064 9.27356675,21.4951305 9.76959305,20.5582659 C10.1002773,19.9336895 10.1867896,19.1776151 10.0291302,18.2900427" id="Path-15-Copy"></path>
                            <line x1="5.61729459" y1="44.6155243" x2="13.9218915" y2="44.6155243" id="Path-16-Copy"></line>
                            <line x1="10.1054796" y1="44.6155243" x2="5.61729459" y2="48.9938309" id="Path-17-Copy"></line>
                            <line x1="5.61729459" y1="47.6080926" x2="1.8707843" y2="47.6080926" id="Path-18-Copy"></line>
                            <line x1="5.61729459" y1="43.6159048" x2="1.8707843" y2="43.6159048" id="Path-18-Copy-2"></line>
                            <path d="M13.9218915,19.7995298 C12.9670574,19.7995298 12.1893189,19.6755751 11.5886761,19.4276657 C8.44160218,17.3007843 6.0262604,15.1700284 6.0262604,11.6861404 C6.0262604,9.36354844 6.0262604,6.34523056 6.0262604,2.6311868 L13.9218915,8.8817842e-15" id="Path-19-Copy"></path>
                        </g>
                    </g>
                    <path d="M7.76218535,6.08687951 C7.49798892,6.76892455 6.55340878,8.9172437 5.39162741,8.39112718 C4.22984605,7.86501066 4.63968963,4.96368615 5.05273981,3.9704954 C5.46578999,2.97730464 6.450024,2.49056438 7.76218535,2.96276035 C8.40430787,1.9580942 11.091083,-1.50565464 17.8945204,0.747489125 C24.6979578,3.00063289 23.7080705,6.37783733 23.3509125,9.46680112 C22.3448939,8.75545192 21.9737396,8.20800658 21.1474482,7.50186207 C20.3211569,6.79571756 19.7443576,6.2375731 17.2991498,6.61342284 C14.8539421,6.98927257 10.6855607,7.24297005 7.76218535,6.08687951 Z" id="Path-13" stroke="#1560BD" stroke-width="2" fill="#C9DEF7" stroke-linejoin="round"></path>
                    <path d="M12.5220821,82.3188897 C12.446628,78.7293098 10.8912887,76.9345199 7.85606396,76.9345199 C4.82083925,76.9345199 3.44811104,78.3504352 3.73787932,81.1822657 C3.77437099,81.940015 4.42069682,82.3188897 5.67685682,82.3188897 C6.93301681,82.3188897 9.21475857,82.3188897 12.5220821,82.3188897 Z" id="Path-15" stroke="#1560BD" stroke-width="2" fill="#C9DEF7" stroke-linecap="round" stroke-linejoin="round"></path>
                    <path d="M24.3220821,82.3188897 C24.246628,78.7293098 22.6912887,76.9345199 19.656064,76.9345199 C16.6208393,76.9345199 15.248111,78.3504352 15.5378793,81.1822657 C15.574371,81.940015 16.2206968,82.3188897 17.4768568,82.3188897 C18.7330168,82.3188897 21.0147586,82.3188897 24.3220821,82.3188897 Z" id="Path-15" stroke="#1560BD" stroke-width="2" fill="#C9DEF7" stroke-linecap="round" stroke-linejoin="round" transform="translate(19.911041, 79.626705) scale(-1, 1) translate(-19.911041, -79.626705) "></path>
                    <circle id="Oval" fill="#1560BD" cx="10.2" cy="12.2345199" r="1.5"></circle>
                    <circle id="Oval" fill="#1560BD" cx="18.2" cy="12.2345199" r="1.5"></circle>
                    <path d="M12.3732213,17.8027431 C12.3732213,17.8027431 13.0569405,18.3816471 14.3687134,18.3816471 C15.6804862,18.3816471 15.9984691,17.8027431 15.9984691,17.8027431" id="Path-16" stroke="#1560BD" stroke-width="2" stroke-linecap="round"></path>
                    <path d="M13.4639826,14.7060603 C13.4639826,14.7060603 13.4629743,14.9086767 14.0781085,14.9086767 C14.6932427,14.9086767 14.8858452,14.7060603 14.8858452,14.7060603" id="Path-16" stroke="#1560BD" stroke-width="2" stroke-linecap="round"></path>
                    <path d="M8.84324062,23.9670748 C8.84324062,23.9670748 9.8915455,25.7557463 13.8930329,25.7557463 C17.8945204,25.7557463 19.144677,23.9670748 19.144677,23.9670748" id="Path-18" stroke="#1560BD" stroke-width="2"></path>
                </g>
                <g id="Group-54" transform="translate(0.000000, 81.334520)" opacity="0.200000003" stroke="#1560BD" stroke-linecap="round" stroke-width="2">
                    <line x1="5" y1="1" x2="36.5119617" y2="1" id="Path-4"></line>
                    <line x1="0" y1="1" x2="1" y2="1" id="Path-4"></line>
                    <line x1="40" y1="1" x2="46" y2="1" id="Path-4"></line>
                </g>
            </g>
            <path id="Path-12" d="M76.3871069,73.5 C76.8483283,73.5 77.2222222,73.8738939 77.2222222,74.3351154 L77.2222222,74.3351154 L77.222,79.5 L115,79.5 C115.552285,79.5 116,79.9477153 116,80.5 C116,81.0128358 115.61396,81.4355072 115.116621,81.4932723 L115,81.5 L77.222,81.5 L77.2222222,86.6647017 C77.2222222,86.7511334 77.2088065,86.8367738 77.1826834,86.9186225 L77.1340567,87.0381766 C76.9277922,87.4507057 76.426161,87.6179161 76.0136319,87.4116516 L76.0136319,87.4116516 L63.6840456,81.2468584 C63.5224279,81.1660496 63.3913795,81.0350012 63.3105706,80.8733835 C63.1043061,80.4608544 63.2715165,79.9592232 63.6840456,79.7529586 L63.6840456,79.7529586 L76.0136319,73.5881655 C76.1295922,73.5301853 76.2574593,73.5 76.3871069,73.5 Z" fill="#4A90E2" fill-rule="nonzero" opacity="0.5"></path>
            <path id="Path-12" d="M656.387107,73.5 C656.848328,73.5 657.222222,73.8738939 657.222222,74.3351154 L657.222222,74.3351154 L657.222,79.5 L695,79.5 C695.552285,79.5 696,79.9477153 696,80.5 C696,81.0128358 695.61396,81.4355072 695.116621,81.4932723 L695,81.5 L657.222,81.5 L657.222222,86.6647017 C657.222222,86.7511334 657.208807,86.8367738 657.182683,86.9186225 L657.134057,87.0381766 C656.927792,87.4507057 656.426161,87.6179161 656.013632,87.4116516 L656.013632,87.4116516 L643.684046,81.2468584 C643.522428,81.1660496 643.391379,81.0350012 643.310571,80.8733835 C643.104306,80.4608544 643.271517,79.9592232 643.684046,79.7529586 L643.684046,79.7529586 L656.013632,73.5881655 C656.129592,73.5301853 656.257459,73.5 656.387107,73.5 Z" fill="#4A90E2" fill-rule="nonzero" opacity="0.5"></path>
            <g id="Group-22" transform="translate(332.000000, 45.500000)">
                <circle id="Oval" stroke="#1560BD" stroke-width="2" fill="#A1CBFF" cx="33.6492381" cy="33.62" r="23"></circle>
                <circle id="Oval" fill="#B6D5F9" cx="33.6492381" cy="33.62" r="18"></circle>
                <path d="M42.8466192,7.45429438 L42.8466192,49.1796689 C41.2534661,49.7140539 39.578936,50.071063 37.8464901,50.2272352 L37.8464901,6.40672805 C39.578936,6.56290023 41.2534661,6.91990941 42.8466192,7.45429438 Z M32.8465347,6.51972171 L32.8465347,50.1142416 C22.1151331,48.6513725 13.8458202,39.4498778 13.8458202,28.3169816 C13.8458202,17.1840854 22.1151331,7.98259076 32.8465347,6.51972171 Z" id="Combined-Shape" fill="#FFFFFF" fill-rule="nonzero" opacity="0.300000012" transform="translate(28.346220, 28.316982) rotate(-315.000000) translate(-28.346220, -28.316982) "></path>
                <circle id="Oval" stroke="#1560BD" stroke-width="2" opacity="0.300000012" cx="33.6492381" cy="33.62" r="2"></circle>
                <path d="M33.6492381,50.62 C34.2015228,50.62 34.6492381,51.0677153 34.6492381,51.62 C34.6492381,52.1722847 34.2015228,52.62 33.6492381,52.62 C33.0969533,52.62 32.6492381,52.1722847 32.6492381,51.62 C32.6492381,51.0677153 33.0969533,50.62 33.6492381,50.62 Z M39.2739067,50.7478458 C39.4168485,51.2813119 39.100266,51.8296489 38.5667999,51.9725907 C38.0333338,52.1155325 37.4849969,51.79895 37.3420551,51.2654839 C37.1991132,50.7320178 37.5156957,50.1836809 38.0491618,50.040739 C38.5826279,49.8977972 39.1309649,50.2143797 39.2739067,50.7478458 Z M29.2493143,50.040739 C29.7827804,50.1836809 30.0993629,50.7320178 29.9564211,51.2654839 C29.8134793,51.79895 29.2651423,52.1155325 28.7316762,51.9725907 C28.1982101,51.8296489 27.8816276,51.2813119 28.0245694,50.7478458 C28.1675112,50.2143797 28.7158482,49.8977972 29.2493143,50.040739 Z M43.5152635,48.7084573 C43.7914059,49.1867499 43.6275307,49.7983403 43.1492381,50.0744827 C42.6709455,50.350625 42.059355,50.1867499 41.7832127,49.7084573 C41.5070703,49.2301646 41.6709455,48.6185742 42.1492381,48.3424319 C42.6275307,48.0662895 43.2391211,48.2301646 43.5152635,48.7084573 Z M25.1492381,48.3424319 C25.6275307,48.6185742 25.7914059,49.2301646 25.5152635,49.7084573 C25.2391211,50.1867499 24.6275307,50.350625 24.1492381,50.0744827 C23.6709455,49.7983403 23.5070703,49.1867499 23.7832127,48.7084573 C24.059355,48.2301646 24.6709455,48.0662895 25.1492381,48.3424319 Z M47.0842669,45.6408153 C47.4747912,46.0313396 47.4747912,46.6645046 47.0842669,47.0550288 C46.6937426,47.4455531 46.0605776,47.4455531 45.6700534,47.0550288 C45.2795291,46.6645046 45.2795291,46.0313396 45.6700534,45.6408153 C46.0605776,45.250291 46.6937426,45.250291 47.0842669,45.6408153 Z M21.6284228,45.6408153 C22.0189471,46.0313396 22.0189471,46.6645046 21.6284228,47.0550288 C21.2378985,47.4455531 20.6047335,47.4455531 20.2142092,47.0550288 C19.8236849,46.6645046 19.8236849,46.0313396 20.2142092,45.6408153 C20.6047335,45.250291 21.2378985,45.250291 21.6284228,45.6408153 Z M18.9268062,42.12 C19.2029486,42.5982926 19.0390734,43.209883 18.5607808,43.4860254 C18.0824882,43.7621678 17.4708978,43.5982926 17.1947554,43.12 C16.918613,42.6417074 17.0824882,42.030117 17.5607808,41.7539746 C18.0390734,41.4778322 18.6506638,41.6417074 18.9268062,42.12 Z M49.7376953,41.7539746 C50.215988,42.030117 50.3798631,42.6417074 50.1037207,43.12 C49.8275784,43.5982926 49.215988,43.7621678 48.7376953,43.4860254 C48.2594027,43.209883 48.0955276,42.5982926 48.3716699,42.12 C48.6478123,41.6417074 49.2594027,41.4778322 49.7376953,41.7539746 Z M17.228499,38.0199238 C17.3714408,38.5533899 17.0548584,39.1017268 16.5213922,39.2446686 C15.9879261,39.3876104 15.4395892,39.071028 15.2966474,38.5375619 C15.1537056,38.0040958 15.4702881,37.4557588 16.0037542,37.312817 C16.5372203,37.1698752 17.0855572,37.4864577 17.228499,38.0199238 Z M51.294722,37.312817 C51.8281881,37.4557588 52.1447706,38.0040958 52.0018288,38.5375619 C51.858887,39.071028 51.31055,39.3876104 50.7770839,39.2446686 C50.2436178,39.1017268 49.9270353,38.5533899 50.0699771,38.0199238 C50.2129189,37.4864577 50.7612559,37.1698752 51.294722,37.312817 Z M15.6492381,32.62 C16.2015228,32.62 16.6492381,33.0677153 16.6492381,33.62 C16.6492381,34.1722847 16.2015228,34.62 15.6492381,34.62 C15.0969533,34.62 14.6492381,34.1722847 14.6492381,33.62 C14.6492381,33.0677153 15.0969533,32.62 15.6492381,32.62 Z M51.6492381,32.62 C52.2015228,32.62 52.6492381,33.0677153 52.6492381,33.62 C52.6492381,34.1722847 52.2015228,34.62 51.6492381,34.62 C51.0969533,34.62 50.6492381,34.1722847 50.6492381,33.62 C50.6492381,33.0677153 51.0969533,32.62 51.6492381,32.62 Z M52.0018288,28.7024381 C52.1447706,29.2359042 51.8281881,29.7842412 51.294722,29.927183 C50.7612559,30.0701248 50.2129189,29.7535423 50.0699771,29.2200762 C49.9270353,28.6866101 50.2436178,28.1382732 50.7770839,27.9953314 C51.31055,27.8523896 51.858887,28.168972 52.0018288,28.7024381 Z M16.5213922,27.9953314 C17.0548584,28.1382732 17.3714408,28.6866101 17.228499,29.2200762 C17.0855572,29.7535423 16.5372203,30.0701248 16.0037542,29.927183 C15.4702881,29.7842412 15.1537056,29.2359042 15.2966474,28.7024381 C15.4395892,28.168972 15.9879261,27.8523896 16.5213922,27.9953314 Z M50.1037207,24.12 C50.3798631,24.5982926 50.215988,25.209883 49.7376953,25.4860254 C49.2594027,25.7621678 48.6478123,25.5982926 48.3716699,25.12 C48.0955276,24.6417074 48.2594027,24.030117 48.7376953,23.7539746 C49.215988,23.4778322 49.8275784,23.6417074 50.1037207,24.12 Z M18.5607808,23.7539746 C19.0390734,24.030117 19.2029486,24.6417074 18.9268062,25.12 C18.6506638,25.5982926 18.0390734,25.7621678 17.5607808,25.4860254 C17.0824882,25.209883 16.918613,24.5982926 17.1947554,24.12 C17.4708978,23.6417074 18.0824882,23.4778322 18.5607808,23.7539746 Z M47.0842669,20.1849712 C47.4747912,20.5754954 47.4747912,21.2086604 47.0842669,21.5991847 C46.6937426,21.989709 46.0605776,21.989709 45.6700534,21.5991847 C45.2795291,21.2086604 45.2795291,20.5754954 45.6700534,20.1849712 C46.0605776,19.7944469 46.6937426,19.7944469 47.0842669,20.1849712 Z M21.6284228,20.1849712 C22.0189471,20.5754954 22.0189471,21.2086604 21.6284228,21.5991847 C21.2378985,21.989709 20.6047335,21.989709 20.2142092,21.5991847 C19.8236849,21.2086604 19.8236849,20.5754954 20.2142092,20.1849712 C20.6047335,19.7944469 21.2378985,19.7944469 21.6284228,20.1849712 Z M25.5152635,17.5315427 C25.7914059,18.0098354 25.6275307,18.6214258 25.1492381,18.8975681 C24.6709455,19.1737105 24.059355,19.0098354 23.7832127,18.5315427 C23.5070703,18.0532501 23.6709455,17.4416597 24.1492381,17.1655173 C24.6275307,16.889375 25.2391211,17.0532501 25.5152635,17.5315427 Z M43.1492381,17.1655173 C43.6275307,17.4416597 43.7914059,18.0532501 43.5152635,18.5315427 C43.2391211,19.0098354 42.6275307,19.1737105 42.1492381,18.8975681 C41.6709455,18.6214258 41.5070703,18.0098354 41.7832127,17.5315427 C42.059355,17.0532501 42.6709455,16.889375 43.1492381,17.1655173 Z M29.9564211,15.9745161 C30.0993629,16.5079822 29.7827804,17.0563191 29.2493143,17.199261 C28.7158482,17.3422028 28.1675112,17.0256203 28.0245694,16.4921542 C27.8816276,15.9586881 28.1982101,15.4103511 28.7316762,15.2674093 C29.2651423,15.1244675 29.8134793,15.44105 29.9564211,15.9745161 Z M38.5667999,15.2674093 C39.100266,15.4103511 39.4168485,15.9586881 39.2739067,16.4921542 C39.1309649,17.0256203 38.5826279,17.3422028 38.0491618,17.199261 C37.5156957,17.0563191 37.1991132,16.5079822 37.3420551,15.9745161 C37.4849969,15.44105 38.0333338,15.1244675 38.5667999,15.2674093 Z M33.6492381,14.62 C34.2015228,14.62 34.6492381,15.0677153 34.6492381,15.62 C34.6492381,16.1722847 34.2015228,16.62 33.6492381,16.62 C33.0969533,16.62 32.6492381,16.1722847 32.6492381,15.62 C32.6492381,15.0677153 33.0969533,14.62 33.6492381,14.62 Z" id="Combined-Shape" fill="#1560BD"></path>
                <path d="M33.6492381,11.62 C45.7995026,11.62 55.6492381,21.4697355 55.6492381,33.62 C55.6492381,33.9552261 55.6417404,34.2887011 55.6269035,34.6202663 C55.1045271,22.9342549 45.464613,13.62 33.6492381,13.62 C21.8338631,13.62 12.193949,22.9342549 11.671528,34.6207324 C11.6567358,34.2887011 11.6492381,33.9552261 11.6492381,33.62 C11.6492381,21.4697355 21.4989736,11.62 33.6492381,11.62 Z" id="Combined-Shape" fill="#FFFFFF" fill-rule="nonzero" opacity="0.5"></path>
                <path d="M55.6492381,33.62 C55.6492381,45.7702645 45.7995026,55.62 33.6492381,55.62 C21.4989736,55.62 11.6492381,45.7702645 11.6492381,33.62 C11.6492381,33.2848552 11.6567322,32.9514607 11.6715619,32.619975 C12.1943655,44.3061475 21.8341184,53.62 33.6492381,53.62 C45.4643578,53.62 55.1041107,44.3061475 55.6269143,32.620025 C55.641744,32.9514607 55.6492381,33.2848552 55.6492381,33.62 Z" id="Combined-Shape" fill="#1560BD" fill-rule="nonzero" opacity="0.5"></path>
                <path d="M33.635457,60.1126984 C34.1482929,60.1126984 34.5709642,60.4987386 34.6287293,60.9960772 L34.635457,61.1126984 L34.635457,66.2709141 C34.635457,66.8231988 34.1877418,67.2709141 33.635457,67.2709141 C33.1226212,67.2709141 32.6999499,66.8848739 32.6421848,66.3875352 L32.635457,66.2709141 L32.635457,61.1126984 C32.635457,60.5604136 33.0831723,60.1126984 33.635457,60.1126984 Z M41.6880003,59.8374963 L41.7210121,59.9495497 L42.3013672,62.4407766 C42.4266719,62.9786587 42.0922119,63.5162779 41.5543298,63.6415827 C41.0548678,63.7579371 40.5556326,63.4778617 40.3865355,63.0065987 L40.3535237,62.8945453 L39.7731687,60.4033184 C39.6478639,59.8654363 39.9823239,59.3278171 40.5202061,59.2025124 C40.9812479,59.0951083 41.4420965,59.3254906 41.6432676,59.7322306 L41.6880003,59.8374963 Z M26.8084578,59.2304469 C27.2991818,59.379412 27.5914945,59.871582 27.5023054,60.3642562 L27.4748677,60.4778032 L26.7318565,62.9254465 C26.5714325,63.4539185 26.0129721,63.7522803 25.4845001,63.5918564 C24.9937762,63.4428913 24.7014635,62.9507212 24.7906526,62.458047 L24.8180902,62.3445 L25.5611015,59.8968567 C25.7215254,59.3683848 26.2799859,59.0700229 26.8084578,59.2304469 Z M20.3968364,56.5654207 C20.8409652,56.8218386 21.0139892,57.3674948 20.8153459,57.8270853 L20.7628618,57.9314461 L18.1837539,62.3985919 C17.9076115,62.8768845 17.2960211,63.0407597 16.8177285,62.7646173 C16.3735997,62.5081994 16.2005756,61.9625431 16.3992189,61.5029526 L16.4517031,61.3985919 L19.030811,56.9314461 C19.3069533,56.4531534 19.9185437,56.2892783 20.3968364,56.5654207 Z M48.1759662,56.8338131 L48.2401031,56.9314461 L50.819211,61.3985919 C51.0953533,61.8768845 50.9314782,62.4884749 50.4531856,62.7646173 C50.0090567,63.0210352 49.4499925,62.8980503 49.1512971,62.4962249 L49.0871602,62.3985919 L46.5080523,57.9314461 C46.2319099,57.4531534 46.3957851,56.841563 46.8740777,56.5654207 C47.2811958,56.3303709 47.7848916,56.4141249 48.0960852,56.7392241 L48.1759662,56.8338131 Z M53.7029903,52.2827521 L53.7944083,52.3689966 L55.542624,54.2362848 C55.9200822,54.639452 55.8992409,55.2722739 55.4960737,55.649732 C55.1239194,55.998155 54.5560829,56.0071985 54.1740445,55.6894262 L54.0826265,55.6031817 L52.3344108,53.7358935 C51.9569526,53.3327263 51.9777939,52.6999044 52.3809611,52.3224463 C52.7221026,52.0030586 53.2276714,51.9688439 53.6038307,52.210125 L53.7029903,52.2827521 Z M14.9197683,52.3987647 C15.2681912,52.7709191 15.2772347,53.3387555 14.9594624,53.7207939 L14.873218,53.812212 L13.0059297,55.5604276 C12.6027626,55.9378858 11.9699407,55.9170445 11.5924825,55.5138773 C11.2440596,55.141723 11.2350161,54.5738866 11.5527884,54.1918481 L11.6390328,54.1004301 L13.5063211,52.3522144 C13.9094882,51.9747563 14.5423101,51.9955975 14.9197683,52.3987647 Z M10.7054934,46.8740777 C10.9619113,47.3182066 10.8389264,47.8772708 10.437101,48.1759662 L10.339468,48.2401031 L5.87232218,50.819211 C5.39402956,51.0953533 4.78243915,50.9314782 4.50629677,50.4531856 C4.24987886,50.0090567 4.37286381,49.4499925 4.77468919,49.1512971 L4.87232218,49.0871602 L9.33946801,46.5080523 C9.81776064,46.2319099 10.429351,46.3957851 10.7054934,46.8740777 Z M57.8270853,46.4555681 L57.9314461,46.5080523 L62.3985919,49.0871602 C62.8768845,49.3633025 63.0407597,49.9748929 62.7646173,50.4531856 C62.5081994,50.8973144 61.9625431,51.0703384 61.5029526,50.8716951 L61.3985919,50.819211 L56.9314461,48.2401031 C56.4531534,47.9639607 56.2892783,47.3523703 56.5654207,46.8740777 C56.8021141,46.4641126 57.2852592,46.2851481 57.719669,46.4162792 L57.8270853,46.4555681 Z M60.3464526,39.7399092 L60.4599996,39.7673469 L62.9076429,40.5103581 C63.4361148,40.670782 63.7344767,41.2292425 63.5740528,41.7577144 C63.4250877,42.2484384 62.9329176,42.5407511 62.4402434,42.451562 L62.3266964,42.4241243 L59.8790531,41.6811131 C59.3505812,41.5206891 59.0522193,40.9622287 59.2126432,40.4337567 C59.3501495,39.9807808 59.7800907,39.6968653 60.2329235,39.726016 L60.3464526,39.7399092 Z M8.0426022,40.4595718 C8.17533388,40.9549332 7.91184308,41.4631169 7.44640151,41.6476345 L7.33549542,41.6843167 L4.84426854,42.3518389 C4.31080244,42.4947808 3.76246548,42.1781983 3.61952367,41.6447322 C3.48679199,41.1493708 3.75028279,40.6411871 4.21572436,40.4566695 L4.32663045,40.4199873 L6.81785733,39.7524651 C7.35132343,39.6095232 7.89966039,39.9261057 8.0426022,40.4595718 Z M66.2709141,32.635457 C66.8231988,32.635457 67.2709141,33.0831723 67.2709141,33.635457 C67.2709141,34.1482929 66.8848739,34.5709642 66.3875352,34.6287293 L66.2709141,34.635457 L61.1126984,34.635457 C60.5604136,34.635457 60.1126984,34.1877418 60.1126984,33.635457 C60.1126984,33.1226212 60.4987386,32.6999499 60.9960772,32.6421848 L61.1126984,32.635457 L66.2709141,32.635457 Z M6.1582157,32.635457 C6.71050045,32.635457 7.1582157,33.0831723 7.1582157,33.635457 C7.1582157,34.1482929 6.77217551,34.5709642 6.27483683,34.6287293 L6.1582157,34.635457 L1,34.635457 C0.44771525,34.635457 0,34.1877418 0,33.635457 C0,33.1226212 0.38604019,32.6999499 0.883378875,32.6421848 L1,32.635457 L6.1582157,32.635457 Z M4.74077581,24.8438299 L4.85516444,24.8675152 L7.34639132,25.5350374 C7.87985742,25.6779792 8.19643991,26.2263162 8.0534981,26.7597823 C7.92076642,27.2551437 7.43848484,27.5634983 6.94314185,27.4905744 L6.82875323,27.4668891 L4.33752635,26.7993668 C3.80406024,26.656425 3.48747775,26.1080881 3.63041957,25.574622 C3.75294112,25.1173653 4.173304,24.8194517 4.62685091,24.8336811 L4.74077581,24.8438299 Z M63.623779,25.6878848 C63.7401335,26.1873467 63.4600581,26.686582 62.9887951,26.855679 L62.8767417,26.8886908 L60.3855148,27.4690459 C59.8476327,27.5943506 59.3100135,27.2598906 59.1847088,26.7220085 C59.0683543,26.2225465 59.3484297,25.7233113 59.8196927,25.5542142 L59.9317461,25.5212024 L62.422973,24.9408474 C62.9608551,24.8155426 63.4984743,25.1500026 63.623779,25.6878848 Z M62.7646173,16.8177285 C63.0210352,17.2618574 62.8980503,17.8209216 62.4962249,18.119617 L62.3985919,18.1837539 L57.9314461,20.7628618 C57.4531534,21.0390041 56.841563,20.875129 56.5654207,20.3968364 C56.3090027,19.9527075 56.4319877,19.3936433 56.8338131,19.0949479 L56.9314461,19.030811 L61.3985919,16.4517031 C61.8768845,16.1755607 62.4884749,16.3394359 62.7646173,16.8177285 Z M5.76796146,16.3992189 L5.87232218,16.4517031 L10.339468,19.030811 C10.8177606,19.3069533 10.9816358,19.9185437 10.7054934,20.3968364 C10.4490755,20.8409652 9.90341923,21.0139892 9.44382874,20.8153459 L9.33946801,20.7628618 L4.87232218,18.1837539 C4.39402956,17.9076115 4.2301544,17.2960211 4.50629677,16.8177285 C4.76271469,16.3735997 5.30837097,16.2005756 5.76796146,16.3992189 Z M55.5792683,11.6927144 C55.9397523,12.0531984 55.9674818,12.6204294 55.6624569,13.0127206 L55.5792683,13.106928 L53.7555636,14.9306326 C53.3650394,15.3211569 52.7318744,15.3211569 52.3413501,14.9306326 C51.9808661,14.5701487 51.9531366,14.0029176 52.2581615,13.6106264 L52.3413501,13.5164191 L54.1650547,11.6927144 C54.555579,11.3021901 55.188744,11.3021901 55.5792683,11.6927144 Z M12.994917,11.5797577 L13.0891243,11.6629463 L14.912829,13.4866509 C15.3033533,13.8771752 15.3033533,14.5103402 14.912829,14.9008645 C14.552345,15.2613484 13.985114,15.289078 13.5928228,14.9840531 L13.4986154,14.9008645 L11.6749108,13.0771598 C11.2843865,12.6866355 11.2843865,12.0534705 11.6749108,11.6629463 C12.0053544,11.3325026 12.509523,11.2816651 12.8934205,11.5104338 L12.994917,11.5797577 Z M50.4531856,4.50629677 C50.8973144,4.76271469 51.0703384,5.30837097 50.8716951,5.76796146 L50.819211,5.87232218 L48.2401031,10.339468 C47.9639607,10.8177606 47.3523703,10.9816358 46.8740777,10.7054934 C46.4299488,10.4490755 46.2569248,9.90341923 46.4555681,9.44382874 L46.5080523,9.33946801 L49.0871602,4.87232218 C49.3633025,4.39402956 49.9748929,4.2301544 50.4531856,4.50629677 Z M18.119617,4.77468919 L18.1837539,4.87232218 L20.7628618,9.33946801 C21.0390041,9.81776064 20.875129,10.429351 20.3968364,10.7054934 C19.9527075,10.9619113 19.3936433,10.8389264 19.0949479,10.437101 L19.030811,10.339468 L16.4517031,5.87232218 C16.1755607,5.39402956 16.3394359,4.78243915 16.8177285,4.50629677 C17.2248466,4.27124702 17.7285424,4.35500106 18.039736,4.68010021 L18.119617,4.77468919 Z M41.6675926,3.64822318 C42.162954,3.78095487 42.4713086,4.26323644 42.3983846,4.75857943 L42.3746994,4.87296806 L41.7071771,7.36419494 C41.5642353,7.89766104 41.0158984,8.21424353 40.4824323,8.07130172 C39.9870709,7.93857004 39.6787163,7.45628846 39.7516402,6.96094547 L39.7753255,6.84655685 L40.4428477,4.35532997 C40.5857895,3.82186386 41.1341265,3.50528137 41.6675926,3.64822318 Z M26.785545,4.23352798 L26.8222273,4.34443407 L27.4897495,6.83566095 C27.6326913,7.36912705 27.3161088,7.91746401 26.7826427,8.06040582 C26.2872813,8.1931375 25.7790976,7.9296467 25.5945801,7.46420513 L25.5578978,7.35329904 L24.8903756,4.86207216 C24.7474338,4.32860606 25.0640163,3.7802691 25.5974824,3.63732729 C26.0547391,3.51480573 26.5229212,3.72989387 26.7373716,4.12979173 L26.785545,4.23352798 Z M33.635457,0 C34.1482929,0 34.5709642,0.38604019 34.6287293,0.883378875 L34.635457,1 L34.635457,6.1582157 C34.635457,6.71050045 34.1877418,7.1582157 33.635457,7.1582157 C33.1226212,7.1582157 32.6999499,6.77217551 32.6421848,6.27483683 L32.635457,6.1582157 L32.635457,1 C32.635457,0.44771525 33.0831723,0 33.635457,0 Z" id="Combined-Shape" fill="#1560BD" fill-rule="nonzero" opacity="0.300000012"></path>
            </g>
        </g>
    </g>
</svg>