<svg width="759" height="186" viewBox="0 0 759 186" fill="none" xmlns="http://www.w3.org/2000/svg">
<g id="Group 13">
<g id="Group 12" clip-path="url(#clip0)">
<path id="My balance: $60" d="M181.969 181.5L179.062 173.906H179.016C179.07 174.508 179.098 175.223 179.098 176.051V181.5H178.178V172.934H179.678L182.391 180H182.438L185.174 172.934H186.662V181.5H185.666V175.98C185.666 175.348 185.693 174.66 185.748 173.918H185.701L182.771 181.5H181.969ZM187.852 175.078H188.895L190.301 178.74C190.609 179.576 190.801 180.18 190.875 180.551H190.922C190.973 180.352 191.078 180.012 191.238 179.531C191.402 179.047 191.934 177.562 192.832 175.078H193.875L191.115 182.391C190.842 183.113 190.521 183.625 190.154 183.926C189.791 184.23 189.344 184.383 188.812 184.383C188.516 184.383 188.223 184.35 187.934 184.283V183.504C188.148 183.551 188.389 183.574 188.654 183.574C189.322 183.574 189.799 183.199 190.084 182.449L190.441 181.535L187.852 175.078ZM201.023 174.973C201.867 174.973 202.521 175.262 202.986 175.84C203.455 176.414 203.689 177.229 203.689 178.283C203.689 179.338 203.453 180.158 202.98 180.744C202.512 181.326 201.859 181.617 201.023 181.617C200.605 181.617 200.223 181.541 199.875 181.389C199.531 181.232 199.242 180.994 199.008 180.674H198.938L198.732 181.5H198.035V172.383H199.008V174.598C199.008 175.094 198.992 175.539 198.961 175.934H199.008C199.461 175.293 200.133 174.973 201.023 174.973ZM200.883 175.787C200.219 175.787 199.74 175.979 199.447 176.361C199.154 176.74 199.008 177.381 199.008 178.283C199.008 179.186 199.158 179.832 199.459 180.223C199.76 180.609 200.242 180.803 200.906 180.803C201.504 180.803 201.949 180.586 202.242 180.152C202.535 179.715 202.682 179.088 202.682 178.271C202.682 177.436 202.535 176.812 202.242 176.402C201.949 175.992 201.496 175.787 200.883 175.787ZM209.344 181.5L209.15 180.586H209.104C208.783 180.988 208.463 181.262 208.143 181.406C207.826 181.547 207.43 181.617 206.953 181.617C206.316 181.617 205.816 181.453 205.453 181.125C205.094 180.797 204.914 180.33 204.914 179.725C204.914 178.428 205.951 177.748 208.025 177.686L209.115 177.65V177.252C209.115 176.748 209.006 176.377 208.787 176.139C208.572 175.896 208.227 175.775 207.75 175.775C207.215 175.775 206.609 175.939 205.934 176.268L205.635 175.523C205.951 175.352 206.297 175.217 206.672 175.119C207.051 175.021 207.43 174.973 207.809 174.973C208.574 174.973 209.141 175.143 209.508 175.482C209.879 175.822 210.064 176.367 210.064 177.117V181.5H209.344ZM207.146 180.814C207.752 180.814 208.227 180.648 208.57 180.316C208.918 179.984 209.092 179.52 209.092 178.922V178.342L208.119 178.383C207.346 178.41 206.787 178.531 206.443 178.746C206.104 178.957 205.934 179.287 205.934 179.736C205.934 180.088 206.039 180.355 206.25 180.539C206.465 180.723 206.764 180.814 207.146 180.814ZM213.047 181.5H212.074V172.383H213.047V181.5ZM219.059 181.5L218.865 180.586H218.818C218.498 180.988 218.178 181.262 217.857 181.406C217.541 181.547 217.145 181.617 216.668 181.617C216.031 181.617 215.531 181.453 215.168 181.125C214.809 180.797 214.629 180.33 214.629 179.725C214.629 178.428 215.666 177.748 217.74 177.686L218.83 177.65V177.252C218.83 176.748 218.721 176.377 218.502 176.139C218.287 175.896 217.941 175.775 217.465 175.775C216.93 175.775 216.324 175.939 215.648 176.268L215.35 175.523C215.666 175.352 216.012 175.217 216.387 175.119C216.766 175.021 217.145 174.973 217.523 174.973C218.289 174.973 218.855 175.143 219.223 175.482C219.594 175.822 219.779 176.367 219.779 177.117V181.5H219.059ZM216.861 180.814C217.467 180.814 217.941 180.648 218.285 180.316C218.633 179.984 218.807 179.52 218.807 178.922V178.342L217.834 178.383C217.061 178.41 216.502 178.531 216.158 178.746C215.818 178.957 215.648 179.287 215.648 179.736C215.648 180.088 215.754 180.355 215.965 180.539C216.18 180.723 216.479 180.814 216.861 180.814ZM226.184 181.5V177.346C226.184 176.822 226.064 176.432 225.826 176.174C225.588 175.916 225.215 175.787 224.707 175.787C224.035 175.787 223.543 175.969 223.23 176.332C222.918 176.695 222.762 177.295 222.762 178.131V181.5H221.789V175.078H222.58L222.738 175.957H222.785C222.984 175.641 223.264 175.396 223.623 175.225C223.982 175.049 224.383 174.961 224.824 174.961C225.598 174.961 226.18 175.148 226.57 175.523C226.961 175.895 227.156 176.49 227.156 177.311V181.5H226.184ZM231.727 181.617C230.797 181.617 230.076 181.332 229.564 180.762C229.057 180.188 228.803 179.377 228.803 178.33C228.803 177.256 229.061 176.426 229.576 175.84C230.096 175.254 230.834 174.961 231.791 174.961C232.1 174.961 232.408 174.994 232.717 175.061C233.025 175.127 233.268 175.205 233.443 175.295L233.145 176.121C232.93 176.035 232.695 175.965 232.441 175.91C232.188 175.852 231.963 175.822 231.768 175.822C230.463 175.822 229.811 176.654 229.811 178.318C229.811 179.107 229.969 179.713 230.285 180.135C230.605 180.557 231.078 180.768 231.703 180.768C232.238 180.768 232.787 180.652 233.35 180.422V181.283C232.92 181.506 232.379 181.617 231.727 181.617ZM237.592 181.617C236.643 181.617 235.893 181.328 235.342 180.75C234.795 180.172 234.521 179.369 234.521 178.342C234.521 177.307 234.775 176.484 235.283 175.875C235.795 175.266 236.48 174.961 237.34 174.961C238.145 174.961 238.781 175.227 239.25 175.758C239.719 176.285 239.953 176.982 239.953 177.85V178.465H235.529C235.549 179.219 235.738 179.791 236.098 180.182C236.461 180.572 236.971 180.768 237.627 180.768C238.318 180.768 239.002 180.623 239.678 180.334V181.201C239.334 181.35 239.008 181.455 238.699 181.518C238.395 181.584 238.025 181.617 237.592 181.617ZM237.328 175.775C236.812 175.775 236.4 175.943 236.092 176.279C235.787 176.615 235.607 177.08 235.553 177.674H238.91C238.91 177.061 238.773 176.592 238.5 176.268C238.227 175.939 237.836 175.775 237.328 175.775ZM241.477 180.879C241.477 180.617 241.535 180.42 241.652 180.287C241.773 180.15 241.945 180.082 242.168 180.082C242.395 180.082 242.57 180.15 242.695 180.287C242.824 180.42 242.889 180.617 242.889 180.879C242.889 181.133 242.824 181.328 242.695 181.465C242.566 181.602 242.391 181.67 242.168 181.67C241.969 181.67 241.803 181.609 241.67 181.488C241.541 181.363 241.477 181.16 241.477 180.879ZM241.477 175.705C241.477 175.178 241.707 174.914 242.168 174.914C242.648 174.914 242.889 175.178 242.889 175.705C242.889 175.959 242.824 176.154 242.695 176.291C242.566 176.428 242.391 176.496 242.168 176.496C241.969 176.496 241.803 176.436 241.67 176.314C241.541 176.189 241.477 175.986 241.477 175.705ZM252.973 178.869C252.973 179.4 252.773 179.84 252.375 180.188C251.977 180.531 251.42 180.748 250.705 180.838V182.197H249.949V180.891C249.512 180.891 249.088 180.857 248.678 180.791C248.268 180.721 247.932 180.625 247.67 180.504V179.59C247.994 179.734 248.367 179.854 248.789 179.947C249.215 180.037 249.602 180.082 249.949 180.082V177.504C249.148 177.25 248.586 176.955 248.262 176.619C247.941 176.283 247.781 175.85 247.781 175.318C247.781 174.807 247.979 174.387 248.373 174.059C248.771 173.73 249.297 173.531 249.949 173.461V172.395H250.705V173.449C251.424 173.469 252.117 173.613 252.785 173.883L252.48 174.65C251.898 174.42 251.307 174.283 250.705 174.24V176.783C251.318 176.979 251.777 177.17 252.082 177.357C252.387 177.541 252.611 177.754 252.756 177.996C252.9 178.234 252.973 178.525 252.973 178.869ZM251.977 178.945C251.977 178.664 251.889 178.438 251.713 178.266C251.541 178.09 251.205 177.916 250.705 177.744V180.023C251.553 179.906 251.977 179.547 251.977 178.945ZM248.771 175.307C248.771 175.604 248.859 175.842 249.035 176.021C249.211 176.201 249.516 176.371 249.949 176.531V174.264C249.562 174.326 249.27 174.449 249.07 174.633C248.871 174.812 248.771 175.037 248.771 175.307ZM254.455 177.838C254.455 176.154 254.781 174.896 255.434 174.064C256.09 173.229 257.059 172.811 258.34 172.811C258.781 172.811 259.129 172.848 259.383 172.922V173.76C259.082 173.662 258.738 173.613 258.352 173.613C257.434 173.613 256.732 173.9 256.248 174.475C255.764 175.045 255.498 175.943 255.451 177.17H255.521C255.951 176.498 256.631 176.162 257.561 176.162C258.33 176.162 258.936 176.395 259.377 176.859C259.822 177.324 260.045 177.955 260.045 178.752C260.045 179.643 259.801 180.344 259.312 180.855C258.828 181.363 258.172 181.617 257.344 181.617C256.457 181.617 255.754 181.285 255.234 180.621C254.715 179.953 254.455 179.025 254.455 177.838ZM257.332 180.791C257.887 180.791 258.316 180.617 258.621 180.27C258.93 179.918 259.084 179.412 259.084 178.752C259.084 178.186 258.941 177.74 258.656 177.416C258.371 177.092 257.945 176.93 257.379 176.93C257.027 176.93 256.705 177.002 256.412 177.146C256.119 177.291 255.885 177.49 255.709 177.744C255.537 177.998 255.451 178.262 255.451 178.535C255.451 178.938 255.529 179.312 255.686 179.66C255.842 180.008 256.062 180.283 256.348 180.486C256.637 180.689 256.965 180.791 257.332 180.791ZM266.9 177.205C266.9 178.686 266.666 179.791 266.197 180.521C265.732 181.252 265.02 181.617 264.059 181.617C263.137 181.617 262.436 181.244 261.955 180.498C261.475 179.748 261.234 178.65 261.234 177.205C261.234 175.713 261.467 174.605 261.932 173.883C262.396 173.16 263.105 172.799 264.059 172.799C264.988 172.799 265.693 173.176 266.174 173.93C266.658 174.684 266.9 175.775 266.9 177.205ZM262.219 177.205C262.219 178.451 262.365 179.359 262.658 179.93C262.951 180.496 263.418 180.779 264.059 180.779C264.707 180.779 265.176 180.492 265.465 179.918C265.758 179.34 265.904 178.436 265.904 177.205C265.904 175.975 265.758 175.074 265.465 174.504C265.176 173.93 264.707 173.643 264.059 173.643C263.418 173.643 262.951 173.926 262.658 174.492C262.365 175.055 262.219 175.959 262.219 177.205Z" fill="black" fill-opacity="0.87"/>
<path id="Peer balance: $40" d="M489.387 175.43C489.387 176.297 489.09 176.965 488.496 177.434C487.906 177.898 487.061 178.131 485.959 178.131H484.951V181.5H483.955V172.934H486.176C488.316 172.934 489.387 173.766 489.387 175.43ZM484.951 177.275H485.848C486.73 177.275 487.369 177.133 487.764 176.848C488.158 176.562 488.355 176.105 488.355 175.477C488.355 174.91 488.17 174.488 487.799 174.211C487.428 173.934 486.85 173.795 486.064 173.795H484.951V177.275ZM493.752 181.617C492.803 181.617 492.053 181.328 491.502 180.75C490.955 180.172 490.682 179.369 490.682 178.342C490.682 177.307 490.936 176.484 491.443 175.875C491.955 175.266 492.641 174.961 493.5 174.961C494.305 174.961 494.941 175.227 495.41 175.758C495.879 176.285 496.113 176.982 496.113 177.85V178.465H491.689C491.709 179.219 491.898 179.791 492.258 180.182C492.621 180.572 493.131 180.768 493.787 180.768C494.479 180.768 495.162 180.623 495.838 180.334V181.201C495.494 181.35 495.168 181.455 494.859 181.518C494.555 181.584 494.186 181.617 493.752 181.617ZM493.488 175.775C492.973 175.775 492.561 175.943 492.252 176.279C491.947 176.615 491.768 177.08 491.713 177.674H495.07C495.07 177.061 494.934 176.592 494.66 176.268C494.387 175.939 493.996 175.775 493.488 175.775ZM500.49 181.617C499.541 181.617 498.791 181.328 498.24 180.75C497.693 180.172 497.42 179.369 497.42 178.342C497.42 177.307 497.674 176.484 498.182 175.875C498.693 175.266 499.379 174.961 500.238 174.961C501.043 174.961 501.68 175.227 502.148 175.758C502.617 176.285 502.852 176.982 502.852 177.85V178.465H498.428C498.447 179.219 498.637 179.791 498.996 180.182C499.359 180.572 499.869 180.768 500.525 180.768C501.217 180.768 501.9 180.623 502.576 180.334V181.201C502.232 181.35 501.906 181.455 501.598 181.518C501.293 181.584 500.924 181.617 500.49 181.617ZM500.227 175.775C499.711 175.775 499.299 175.943 498.99 176.279C498.686 176.615 498.506 177.08 498.451 177.674H501.809C501.809 177.061 501.672 176.592 501.398 176.268C501.125 175.939 500.734 175.775 500.227 175.775ZM507.445 174.961C507.73 174.961 507.986 174.984 508.213 175.031L508.078 175.934C507.812 175.875 507.578 175.846 507.375 175.846C506.855 175.846 506.41 176.057 506.039 176.479C505.672 176.9 505.488 177.426 505.488 178.055V181.5H504.516V175.078H505.318L505.43 176.268H505.477C505.715 175.85 506.002 175.527 506.338 175.301C506.674 175.074 507.043 174.961 507.445 174.961ZM515.52 174.973C516.363 174.973 517.018 175.262 517.482 175.84C517.951 176.414 518.186 177.229 518.186 178.283C518.186 179.338 517.949 180.158 517.477 180.744C517.008 181.326 516.355 181.617 515.52 181.617C515.102 181.617 514.719 181.541 514.371 181.389C514.027 181.232 513.738 180.994 513.504 180.674H513.434L513.229 181.5H512.531V172.383H513.504V174.598C513.504 175.094 513.488 175.539 513.457 175.934H513.504C513.957 175.293 514.629 174.973 515.52 174.973ZM515.379 175.787C514.715 175.787 514.236 175.979 513.943 176.361C513.65 176.74 513.504 177.381 513.504 178.283C513.504 179.186 513.654 179.832 513.955 180.223C514.256 180.609 514.738 180.803 515.402 180.803C516 180.803 516.445 180.586 516.738 180.152C517.031 179.715 517.178 179.088 517.178 178.271C517.178 177.436 517.031 176.812 516.738 176.402C516.445 175.992 515.992 175.787 515.379 175.787ZM523.84 181.5L523.646 180.586H523.6C523.279 180.988 522.959 181.262 522.639 181.406C522.322 181.547 521.926 181.617 521.449 181.617C520.812 181.617 520.312 181.453 519.949 181.125C519.59 180.797 519.41 180.33 519.41 179.725C519.41 178.428 520.447 177.748 522.521 177.686L523.611 177.65V177.252C523.611 176.748 523.502 176.377 523.283 176.139C523.068 175.896 522.723 175.775 522.246 175.775C521.711 175.775 521.105 175.939 520.43 176.268L520.131 175.523C520.447 175.352 520.793 175.217 521.168 175.119C521.547 175.021 521.926 174.973 522.305 174.973C523.07 174.973 523.637 175.143 524.004 175.482C524.375 175.822 524.561 176.367 524.561 177.117V181.5H523.84ZM521.643 180.814C522.248 180.814 522.723 180.648 523.066 180.316C523.414 179.984 523.588 179.52 523.588 178.922V178.342L522.615 178.383C521.842 178.41 521.283 178.531 520.939 178.746C520.6 178.957 520.43 179.287 520.43 179.736C520.43 180.088 520.535 180.355 520.746 180.539C520.961 180.723 521.26 180.814 521.643 180.814ZM527.543 181.5H526.57V172.383H527.543V181.5ZM533.555 181.5L533.361 180.586H533.314C532.994 180.988 532.674 181.262 532.354 181.406C532.037 181.547 531.641 181.617 531.164 181.617C530.527 181.617 530.027 181.453 529.664 181.125C529.305 180.797 529.125 180.33 529.125 179.725C529.125 178.428 530.162 177.748 532.236 177.686L533.326 177.65V177.252C533.326 176.748 533.217 176.377 532.998 176.139C532.783 175.896 532.438 175.775 531.961 175.775C531.426 175.775 530.82 175.939 530.145 176.268L529.846 175.523C530.162 175.352 530.508 175.217 530.883 175.119C531.262 175.021 531.641 174.973 532.02 174.973C532.785 174.973 533.352 175.143 533.719 175.482C534.09 175.822 534.275 176.367 534.275 177.117V181.5H533.555ZM531.357 180.814C531.963 180.814 532.438 180.648 532.781 180.316C533.129 179.984 533.303 179.52 533.303 178.922V178.342L532.33 178.383C531.557 178.41 530.998 178.531 530.654 178.746C530.314 178.957 530.145 179.287 530.145 179.736C530.145 180.088 530.25 180.355 530.461 180.539C530.676 180.723 530.975 180.814 531.357 180.814ZM540.68 181.5V177.346C540.68 176.822 540.561 176.432 540.322 176.174C540.084 175.916 539.711 175.787 539.203 175.787C538.531 175.787 538.039 175.969 537.727 176.332C537.414 176.695 537.258 177.295 537.258 178.131V181.5H536.285V175.078H537.076L537.234 175.957H537.281C537.48 175.641 537.76 175.396 538.119 175.225C538.479 175.049 538.879 174.961 539.32 174.961C540.094 174.961 540.676 175.148 541.066 175.523C541.457 175.895 541.652 176.49 541.652 177.311V181.5H540.68ZM546.223 181.617C545.293 181.617 544.572 181.332 544.061 180.762C543.553 180.188 543.299 179.377 543.299 178.33C543.299 177.256 543.557 176.426 544.072 175.84C544.592 175.254 545.33 174.961 546.287 174.961C546.596 174.961 546.904 174.994 547.213 175.061C547.521 175.127 547.764 175.205 547.939 175.295L547.641 176.121C547.426 176.035 547.191 175.965 546.938 175.91C546.684 175.852 546.459 175.822 546.264 175.822C544.959 175.822 544.307 176.654 544.307 178.318C544.307 179.107 544.465 179.713 544.781 180.135C545.102 180.557 545.574 180.768 546.199 180.768C546.734 180.768 547.283 180.652 547.846 180.422V181.283C547.416 181.506 546.875 181.617 546.223 181.617ZM552.088 181.617C551.139 181.617 550.389 181.328 549.838 180.75C549.291 180.172 549.018 179.369 549.018 178.342C549.018 177.307 549.271 176.484 549.779 175.875C550.291 175.266 550.977 174.961 551.836 174.961C552.641 174.961 553.277 175.227 553.746 175.758C554.215 176.285 554.449 176.982 554.449 177.85V178.465H550.025C550.045 179.219 550.234 179.791 550.594 180.182C550.957 180.572 551.467 180.768 552.123 180.768C552.814 180.768 553.498 180.623 554.174 180.334V181.201C553.83 181.35 553.504 181.455 553.195 181.518C552.891 181.584 552.521 181.617 552.088 181.617ZM551.824 175.775C551.309 175.775 550.896 175.943 550.588 176.279C550.283 176.615 550.104 177.08 550.049 177.674H553.406C553.406 177.061 553.27 176.592 552.996 176.268C552.723 175.939 552.332 175.775 551.824 175.775ZM555.973 180.879C555.973 180.617 556.031 180.42 556.148 180.287C556.27 180.15 556.441 180.082 556.664 180.082C556.891 180.082 557.066 180.15 557.191 180.287C557.32 180.42 557.385 180.617 557.385 180.879C557.385 181.133 557.32 181.328 557.191 181.465C557.062 181.602 556.887 181.67 556.664 181.67C556.465 181.67 556.299 181.609 556.166 181.488C556.037 181.363 555.973 181.16 555.973 180.879ZM555.973 175.705C555.973 175.178 556.203 174.914 556.664 174.914C557.145 174.914 557.385 175.178 557.385 175.705C557.385 175.959 557.32 176.154 557.191 176.291C557.062 176.428 556.887 176.496 556.664 176.496C556.465 176.496 556.299 176.436 556.166 176.314C556.037 176.189 555.973 175.986 555.973 175.705ZM567.469 178.869C567.469 179.4 567.27 179.84 566.871 180.188C566.473 180.531 565.916 180.748 565.201 180.838V182.197H564.445V180.891C564.008 180.891 563.584 180.857 563.174 180.791C562.764 180.721 562.428 180.625 562.166 180.504V179.59C562.49 179.734 562.863 179.854 563.285 179.947C563.711 180.037 564.098 180.082 564.445 180.082V177.504C563.645 177.25 563.082 176.955 562.758 176.619C562.438 176.283 562.277 175.85 562.277 175.318C562.277 174.807 562.475 174.387 562.869 174.059C563.268 173.73 563.793 173.531 564.445 173.461V172.395H565.201V173.449C565.92 173.469 566.613 173.613 567.281 173.883L566.977 174.65C566.395 174.42 565.803 174.283 565.201 174.24V176.783C565.814 176.979 566.273 177.17 566.578 177.357C566.883 177.541 567.107 177.754 567.252 177.996C567.396 178.234 567.469 178.525 567.469 178.869ZM566.473 178.945C566.473 178.664 566.385 178.438 566.209 178.266C566.037 178.09 565.701 177.916 565.201 177.744V180.023C566.049 179.906 566.473 179.547 566.473 178.945ZM563.268 175.307C563.268 175.604 563.355 175.842 563.531 176.021C563.707 176.201 564.012 176.371 564.445 176.531V174.264C564.059 174.326 563.766 174.449 563.566 174.633C563.367 174.812 563.268 175.037 563.268 175.307ZM574.887 179.531H573.615V181.5H572.684V179.531H568.518V178.682L572.584 172.887H573.615V178.646H574.887V179.531ZM572.684 178.646V175.799C572.684 175.24 572.703 174.609 572.742 173.906H572.695C572.508 174.281 572.332 174.592 572.168 174.838L569.49 178.646H572.684ZM581.396 177.205C581.396 178.686 581.162 179.791 580.693 180.521C580.229 181.252 579.516 181.617 578.555 181.617C577.633 181.617 576.932 181.244 576.451 180.498C575.971 179.748 575.73 178.65 575.73 177.205C575.73 175.713 575.963 174.605 576.428 173.883C576.893 173.16 577.602 172.799 578.555 172.799C579.484 172.799 580.189 173.176 580.67 173.93C581.154 174.684 581.396 175.775 581.396 177.205ZM576.715 177.205C576.715 178.451 576.861 179.359 577.154 179.93C577.447 180.496 577.914 180.779 578.555 180.779C579.203 180.779 579.672 180.492 579.961 179.918C580.254 179.34 580.4 178.436 580.4 177.205C580.4 175.975 580.254 175.074 579.961 174.504C579.672 173.93 579.203 173.643 578.555 173.643C577.914 173.643 577.447 173.926 577.154 174.492C576.861 175.055 576.715 175.959 576.715 177.205Z" fill="black" fill-opacity="0.87"/>
<rect id="Rectangle" x="177" y="154.5" width="405" height="10" rx="2" fill="white" stroke="#456C91"/>
<path id="Rectangle_2" d="M177 156.5C177 155.395 177.895 154.5 179 154.5H432V164.5H179C177.895 164.5 177 163.605 177 162.5V156.5Z" fill="#98E677" stroke="#456C91"/>
</g>
<g id="Rings" opacity="0.2">
<path id="Oval" opacity="0.4" fill-rule="evenodd" clip-rule="evenodd" d="M367 124.5C391.301 124.5 411 104.801 411 80.5C411 56.1995 391.301 36.5 367 36.5C342.699 36.5 323 56.1995 323 80.5C323 104.801 342.699 124.5 367 124.5Z" fill="#4A90E2" fill-opacity="0.8" stroke="#1560BD" stroke-width="2"/>
<path id="Oval_2" opacity="0.2" fill-rule="evenodd" clip-rule="evenodd" d="M367 143.5C401.794 143.5 430 115.518 430 81C430 46.4822 401.794 18.5 367 18.5C332.206 18.5 304 46.4822 304 81C304 115.518 332.206 143.5 367 143.5Z" fill="#4A90E2" fill-opacity="0.8" stroke="#1560BD" stroke-width="2"/>
<path id="Oval_3" opacity="0.1" fill-rule="evenodd" clip-rule="evenodd" d="M367 152.5C406.765 152.5 439 120.488 439 81C439 41.5116 406.765 9.5 367 9.5C327.235 9.5 295 41.5116 295 81C295 120.488 327.235 152.5 367 152.5Z" fill="#4A90E2" fill-opacity="0.8" stroke="#1560BD" stroke-width="2"/>
<path id="Oval_4" opacity="0.04" fill-rule="evenodd" clip-rule="evenodd" d="M366.5 159.5C410.407 159.5 446 124.13 446 80.5C446 36.8695 410.407 1.5 366.5 1.5C322.593 1.5 287 36.8695 287 80.5C287 124.13 322.593 159.5 366.5 159.5Z" fill="#4A90E2" fill-opacity="0.8" stroke="#1560BD" stroke-width="2"/>
<path id="Oval_5" opacity="0.4" fill-rule="evenodd" clip-rule="evenodd" d="M367 100.5C378.046 100.5 387 91.5457 387 80.5C387 69.4543 378.046 60.5 367 60.5C355.954 60.5 347 69.4543 347 80.5C347 91.5457 355.954 100.5 367 100.5Z" fill="#4A90E2" fill-opacity="0.8" stroke="#1560BD" stroke-width="2"/>
</g>
<g id="Group 47">
<path id="Rectangle_3" fill-rule="evenodd" clip-rule="evenodd" d="M135 41.5C135 39.2909 136.791 37.5 139 37.5H206.835C209.044 37.5 210.835 39.2909 210.835 41.5V120.5C210.835 122.709 209.044 124.5 206.835 124.5H139C136.791 124.5 135 122.709 135 120.5V41.5Z" fill="white" stroke="#1560BD" stroke-width="2"/>
<path id="Path 4" opacity="0.2" d="M129 124.5H221.907" stroke="#1560BD" stroke-width="2" stroke-linecap="round"/>
<path id="Path 4_2" opacity="0.2" d="M125 124.5H126" stroke="#1560BD" stroke-width="2" stroke-linecap="round"/>
<path id="Path 4_3" opacity="0.2" d="M226 124.5H229" stroke="#1560BD" stroke-width="2" stroke-linecap="round"/>
<path id="Combined Shape" opacity="0.2" d="M135.896 42.4584L135.937 42.4217C136.829 41.6397 137.982 41.147 139.251 41.0929L139.465 41.0881L207.247 41.0879L207.448 41.0926L207.651 41.107C208.46 41.1826 209.204 41.4685 209.829 41.9089L209.938 41.9884V41.0879C209.938 39.652 208.81 38.4707 207.382 38.4005L207.225 38.3969L139.484 38.3972C137.503 38.3972 135.896 40.0034 135.896 41.9848V42.4584Z" fill="#1560BD"/>
<path id="Combined Shape_2" opacity="0.2" d="M135.896 120.015L135.937 120.052C136.829 120.834 137.982 121.327 139.251 121.381L139.465 121.386L207.247 121.386L207.448 121.381L207.651 121.367C208.46 121.291 209.204 121.005 209.829 120.565L209.938 120.485V121.386C209.938 122.822 208.81 124.003 207.382 124.073L207.225 124.077L139.484 124.077C137.503 124.077 135.896 122.47 135.896 120.489V120.015Z" fill="#1560BD"/>
<path id="Rectangle_4" d="M189 38.3969H207C208.657 38.3969 210 39.74 210 41.3969V120.397C210 122.054 208.657 123.397 207 123.397H189V38.3969Z" fill="#4A90E2"/>
<rect id="Rectangle_5" x="188" y="38.3969" width="1.79381" height="86.1031" fill="#1560BD"/>
<rect id="Rectangle_6" opacity="0.3" x="136" y="99.5" width="52" height="24" fill="#4A90E2"/>
<path id="Rectangle_7" d="M145 105.5H179V112.5C179 114.709 177.209 116.5 175 116.5H149C146.791 116.5 145 114.709 145 112.5V105.5Z" fill="#7EB7F9" stroke="#0B5DC0" stroke-width="2"/>
<path id="Combined Shape_3" opacity="0.3" fill-rule="evenodd" clip-rule="evenodd" d="M140 45C140 44.1716 140.672 43.5 141.5 43.5C142.328 43.5 143 44.1716 143 45V52C143 52.8284 142.328 53.5 141.5 53.5C140.672 53.5 140 52.8284 140 52V45ZM147 45C147 44.1716 147.672 43.5 148.5 43.5C149.328 43.5 150 44.1716 150 45V52C150 52.8284 149.328 53.5 148.5 53.5C147.672 53.5 147 52.8284 147 52V45ZM155.5 43.5C154.672 43.5 154 44.1716 154 45V52C154 52.8284 154.672 53.5 155.5 53.5C156.328 53.5 157 52.8284 157 52V45C157 44.1716 156.328 43.5 155.5 43.5ZM161 45C161 44.1716 161.672 43.5 162.5 43.5C163.328 43.5 164 44.1716 164 45V52C164 52.8284 163.328 53.5 162.5 53.5C161.672 53.5 161 52.8284 161 52V45ZM169.5 43.5C168.672 43.5 168 44.1716 168 45V52C168 52.8284 168.672 53.5 169.5 53.5C170.328 53.5 171 52.8284 171 52V45C171 44.1716 170.328 43.5 169.5 43.5ZM175 45C175 44.1716 175.672 43.5 176.5 43.5C177.328 43.5 178 44.1716 178 45V52C178 52.8284 177.328 53.5 176.5 53.5C175.672 53.5 175 52.8284 175 52V45ZM183.5 43.5C182.672 43.5 182 44.1716 182 45V52C182 52.8284 182.672 53.5 183.5 53.5C184.328 53.5 185 52.8284 185 52V45C185 44.1716 184.328 43.5 183.5 43.5Z" fill="#4A90E2"/>
<path id="Combined Shape_4" opacity="0.3" fill-rule="evenodd" clip-rule="evenodd" d="M140 61C140 60.1716 140.672 59.5 141.5 59.5C142.328 59.5 143 60.1716 143 61V68C143 68.8284 142.328 69.5 141.5 69.5C140.672 69.5 140 68.8284 140 68V61ZM147 61C147 60.1716 147.672 59.5 148.5 59.5C149.328 59.5 150 60.1716 150 61V68C150 68.8284 149.328 69.5 148.5 69.5C147.672 69.5 147 68.8284 147 68V61ZM155.5 59.5C154.672 59.5 154 60.1716 154 61V68C154 68.8284 154.672 69.5 155.5 69.5C156.328 69.5 157 68.8284 157 68V61C157 60.1716 156.328 59.5 155.5 59.5ZM161 61C161 60.1716 161.672 59.5 162.5 59.5C163.328 59.5 164 60.1716 164 61V68C164 68.8284 163.328 69.5 162.5 69.5C161.672 69.5 161 68.8284 161 68V61ZM169.5 59.5C168.672 59.5 168 60.1716 168 61V68C168 68.8284 168.672 69.5 169.5 69.5C170.328 69.5 171 68.8284 171 68V61C171 60.1716 170.328 59.5 169.5 59.5ZM175 61C175 60.1716 175.672 59.5 176.5 59.5C177.328 59.5 178 60.1716 178 61V68C178 68.8284 177.328 69.5 176.5 69.5C175.672 69.5 175 68.8284 175 68V61ZM183.5 59.5C182.672 59.5 182 60.1716 182 61V68C182 68.8284 182.672 69.5 183.5 69.5C184.328 69.5 185 68.8284 185 68V61C185 60.1716 184.328 59.5 183.5 59.5Z" fill="#4A90E2"/>
<path id="Combined Shape_5" opacity="0.3" fill-rule="evenodd" clip-rule="evenodd" d="M140 77C140 76.1716 140.672 75.5 141.5 75.5C142.328 75.5 143 76.1716 143 77V84C143 84.8284 142.328 85.5 141.5 85.5C140.672 85.5 140 84.8284 140 84V77ZM147 77C147 76.1716 147.672 75.5 148.5 75.5C149.328 75.5 150 76.1716 150 77V84C150 84.8284 149.328 85.5 148.5 85.5C147.672 85.5 147 84.8284 147 84V77ZM155.5 75.5C154.672 75.5 154 76.1716 154 77V84C154 84.8284 154.672 85.5 155.5 85.5C156.328 85.5 157 84.8284 157 84V77C157 76.1716 156.328 75.5 155.5 75.5ZM161 77C161 76.1716 161.672 75.5 162.5 75.5C163.328 75.5 164 76.1716 164 77V84C164 84.8284 163.328 85.5 162.5 85.5C161.672 85.5 161 84.8284 161 84V77ZM169.5 75.5C168.672 75.5 168 76.1716 168 77V84C168 84.8284 168.672 85.5 169.5 85.5C170.328 85.5 171 84.8284 171 84V77C171 76.1716 170.328 75.5 169.5 75.5ZM175 77C175 76.1716 175.672 75.5 176.5 75.5C177.328 75.5 178 76.1716 178 77V84C178 84.8284 177.328 85.5 176.5 85.5C175.672 85.5 175 84.8284 175 84V77ZM183.5 75.5C182.672 75.5 182 76.1716 182 77V84C182 84.8284 182.672 85.5 183.5 85.5C184.328 85.5 185 84.8284 185 84V77C185 76.1716 184.328 75.5 183.5 75.5Z" fill="#4A90E2"/>
<path id="Combined Shape_6" opacity="0.3" fill-rule="evenodd" clip-rule="evenodd" d="M140 92C140 91.1716 140.672 90.5 141.5 90.5C142.328 90.5 143 91.1716 143 92V99C143 99.8284 142.328 100.5 141.5 100.5C140.672 100.5 140 99.8284 140 99V92ZM147 92C147 91.1716 147.672 90.5 148.5 90.5C149.328 90.5 150 91.1716 150 92V99C150 99.8284 149.328 100.5 148.5 100.5C147.672 100.5 147 99.8284 147 99V92ZM155.5 90.5C154.672 90.5 154 91.1716 154 92V99C154 99.8284 154.672 100.5 155.5 100.5C156.328 100.5 157 99.8284 157 99V92C157 91.1716 156.328 90.5 155.5 90.5ZM161 92C161 91.1716 161.672 90.5 162.5 90.5C163.328 90.5 164 91.1716 164 92V99C164 99.8284 163.328 100.5 162.5 100.5C161.672 100.5 161 99.8284 161 99V92ZM169.5 90.5C168.672 90.5 168 91.1716 168 92V99C168 99.8284 168.672 100.5 169.5 100.5C170.328 100.5 171 99.8284 171 99V92C171 91.1716 170.328 90.5 169.5 90.5ZM175 92C175 91.1716 175.672 90.5 176.5 90.5C177.328 90.5 178 91.1716 178 92V99C178 99.8284 177.328 100.5 176.5 100.5C175.672 100.5 175 99.8284 175 99V92ZM183.5 90.5C182.672 90.5 182 91.1716 182 92V99C182 99.8284 182.672 100.5 183.5 100.5C184.328 100.5 185 99.8284 185 99V92C185 91.1716 184.328 90.5 183.5 90.5Z" fill="#4A90E2"/>
<rect id="Rectangle_8" x="194" y="47.5" width="11" height="20" rx="2" fill="#7EB7F9" stroke="#0B5DC0" stroke-width="2"/>
<path id="Rectangle_9" d="M141 75.5C141 74.3954 141.895 73.5 143 73.5H147C148.105 73.5 149 74.3954 149 75.5V84.5H141V75.5Z" fill="#7EB7F9" stroke="#0B5DC0" stroke-width="2"/>
<path id="Rectangle_10" d="M155 75.5C155 74.3954 155.895 73.5 157 73.5H161C162.105 73.5 163 74.3954 163 75.5V84.5H155V75.5Z" fill="#7EB7F9" stroke="#0B5DC0" stroke-width="2"/>
<path id="Rectangle_11" d="M176 75.5C176 74.3954 176.895 73.5 178 73.5H182C183.105 73.5 184 74.3954 184 75.5V84.5H176V75.5Z" fill="#7EB7F9" stroke="#0B5DC0" stroke-width="2"/>
<path id="Rectangle_12" d="M169 59.5C169 58.3954 169.895 57.5 171 57.5H175C176.105 57.5 177 58.3954 177 59.5V68.5H169V59.5Z" fill="#7EB7F9" stroke="#0B5DC0" stroke-width="2"/>
<path id="Rectangle_13" d="M141 90.5C141 89.3954 141.895 88.5 143 88.5H147C148.105 88.5 149 89.3954 149 90.5V99.5H141V90.5Z" fill="#7EB7F9" stroke="#0B5DC0" stroke-width="2"/>
<path id="Rectangle_14" d="M162 90.5C162 89.3954 162.895 88.5 164 88.5H168C169.105 88.5 170 89.3954 170 90.5V99.5H162V90.5Z" fill="#7EB7F9" stroke="#0B5DC0" stroke-width="2"/>
<path id="Rectangle_15" d="M176 90.5C176 89.3954 176.895 88.5 178 88.5H182C183.105 88.5 184 89.3954 184 90.5V99.5H176V90.5Z" fill="#7EB7F9" stroke="#0B5DC0" stroke-width="2"/>
<rect id="Rectangle_16" x="135" y="98.6031" width="54" height="2" fill="#1560BD"/>
<g id="Group 46">
<rect id="Rectangle_17" x="135" y="83.5" width="54" height="2" fill="#1560BD"/>
<rect id="Rectangle_18" opacity="0.2" x="135" y="85.5" width="54" height="3" fill="#1560BD"/>
</g>
<g id="Group 45">
<rect id="Rectangle_19" x="135" y="67.5" width="54" height="2" fill="#1560BD"/>
<rect id="Rectangle_20" opacity="0.2" x="135" y="69.5" width="54" height="3" fill="#1560BD"/>
</g>
<g id="Group 44">
<rect id="Rectangle_21" x="135" y="51.5" width="54" height="2" fill="#1560BD"/>
<rect id="Rectangle_22" opacity="0.2" x="135" y="53.5" width="54" height="3" fill="#1560BD"/>
</g>
<rect id="Rectangle_23" opacity="0.12" x="146" y="106.5" width="32" height="3" fill="#1560BD"/>
<path id="Oval_6" opacity="0.5" fill-rule="evenodd" clip-rule="evenodd" d="M203 76.5C204.105 76.5 205 75.6046 205 74.5C205 73.3954 204.105 72.5 203 72.5C201.895 72.5 201 73.3954 201 74.5C201 75.6046 201.895 76.5 203 76.5Z" fill="white"/>
<path id="Oval_7" opacity="0.5" fill-rule="evenodd" clip-rule="evenodd" d="M196 76.5C197.105 76.5 198 75.6046 198 74.5C198 73.3954 197.105 72.5 196 72.5C194.895 72.5 194 73.3954 194 74.5C194 75.6046 194.895 76.5 196 76.5Z" fill="white"/>
<path id="Oval_8" opacity="0.5" fill-rule="evenodd" clip-rule="evenodd" d="M203 82.5C204.105 82.5 205 81.6046 205 80.5C205 79.3954 204.105 78.5 203 78.5C201.895 78.5 201 79.3954 201 80.5C201 81.6046 201.895 82.5 203 82.5Z" fill="white"/>
<path id="Oval_9" opacity="0.5" fill-rule="evenodd" clip-rule="evenodd" d="M196 82.5C197.105 82.5 198 81.6046 198 80.5C198 79.3954 197.105 78.5 196 78.5C194.895 78.5 194 79.3954 194 80.5C194 81.6046 194.895 82.5 196 82.5Z" fill="white"/>
<path id="Oval_10" opacity="0.5" fill-rule="evenodd" clip-rule="evenodd" d="M203 88.5C204.105 88.5 205 87.6046 205 86.5C205 85.3954 204.105 84.5 203 84.5C201.895 84.5 201 85.3954 201 86.5C201 87.6046 201.895 88.5 203 88.5Z" fill="white"/>
<path id="Oval_11" opacity="0.5" fill-rule="evenodd" clip-rule="evenodd" d="M196 88.5C197.105 88.5 198 87.6046 198 86.5C198 85.3954 197.105 84.5 196 84.5C194.895 84.5 194 85.3954 194 86.5C194 87.6046 194.895 88.5 196 88.5Z" fill="white"/>
<rect id="Rectangle_24" opacity="0.2" x="194" y="91.5" width="11" height="4" rx="2" fill="white"/>
</g>
<g id="Group 47_2">
<path id="Rectangle_25" fill-rule="evenodd" clip-rule="evenodd" d="M540 41.5C540 39.2909 541.791 37.5 544 37.5H611.835C614.044 37.5 615.835 39.2909 615.835 41.5V120.5C615.835 122.709 614.044 124.5 611.835 124.5H544C541.791 124.5 540 122.709 540 120.5V41.5Z" fill="white" stroke="#1560BD" stroke-width="2"/>
<path id="Path 4_4" opacity="0.2" d="M534 124.5H626.907" stroke="#1560BD" stroke-width="2" stroke-linecap="round"/>
<path id="Path 4_5" opacity="0.2" d="M530 124.5H531" stroke="#1560BD" stroke-width="2" stroke-linecap="round"/>
<path id="Path 4_6" opacity="0.2" d="M631 124.5H634" stroke="#1560BD" stroke-width="2" stroke-linecap="round"/>
<path id="Combined Shape_7" opacity="0.2" d="M540.896 42.4584L540.937 42.4217C541.829 41.6397 542.982 41.147 544.251 41.0929L544.465 41.0881L612.247 41.0879L612.448 41.0926L612.651 41.107C613.46 41.1826 614.204 41.4685 614.829 41.9089L614.938 41.9884V41.0879C614.938 39.652 613.81 38.4707 612.382 38.4005L612.225 38.3969L544.484 38.3972C542.503 38.3972 540.896 40.0034 540.896 41.9848V42.4584Z" fill="#1560BD"/>
<path id="Combined Shape_8" opacity="0.2" d="M540.896 120.015L540.937 120.052C541.829 120.834 542.982 121.327 544.251 121.381L544.465 121.386L612.247 121.386L612.448 121.381L612.651 121.367C613.46 121.291 614.204 121.005 614.829 120.565L614.938 120.485V121.386C614.938 122.822 613.81 124.003 612.382 124.073L612.225 124.077L544.484 124.077C542.503 124.077 540.896 122.47 540.896 120.489V120.015Z" fill="#1560BD"/>
<path id="Rectangle_26" d="M594 38.3969H612C613.657 38.3969 615 39.74 615 41.3969V120.397C615 122.054 613.657 123.397 612 123.397H594V38.3969Z" fill="#4A90E2"/>
<rect id="Rectangle_27" x="593" y="38.3969" width="1.79381" height="86.1031" fill="#1560BD"/>
<rect id="Rectangle_28" opacity="0.3" x="541" y="99.5" width="52" height="24" fill="#4A90E2"/>
<path id="Rectangle_29" d="M550 105.5H584V112.5C584 114.709 582.209 116.5 580 116.5H554C551.791 116.5 550 114.709 550 112.5V105.5Z" fill="#7EB7F9" stroke="#0B5DC0" stroke-width="2"/>
<path id="Combined Shape_9" opacity="0.3" fill-rule="evenodd" clip-rule="evenodd" d="M545 45C545 44.1716 545.672 43.5 546.5 43.5C547.328 43.5 548 44.1716 548 45V52C548 52.8284 547.328 53.5 546.5 53.5C545.672 53.5 545 52.8284 545 52V45ZM552 45C552 44.1716 552.672 43.5 553.5 43.5C554.328 43.5 555 44.1716 555 45V52C555 52.8284 554.328 53.5 553.5 53.5C552.672 53.5 552 52.8284 552 52V45ZM560.5 43.5C559.672 43.5 559 44.1716 559 45V52C559 52.8284 559.672 53.5 560.5 53.5C561.328 53.5 562 52.8284 562 52V45C562 44.1716 561.328 43.5 560.5 43.5ZM566 45C566 44.1716 566.672 43.5 567.5 43.5C568.328 43.5 569 44.1716 569 45V52C569 52.8284 568.328 53.5 567.5 53.5C566.672 53.5 566 52.8284 566 52V45ZM574.5 43.5C573.672 43.5 573 44.1716 573 45V52C573 52.8284 573.672 53.5 574.5 53.5C575.328 53.5 576 52.8284 576 52V45C576 44.1716 575.328 43.5 574.5 43.5ZM580 45C580 44.1716 580.672 43.5 581.5 43.5C582.328 43.5 583 44.1716 583 45V52C583 52.8284 582.328 53.5 581.5 53.5C580.672 53.5 580 52.8284 580 52V45ZM588.5 43.5C587.672 43.5 587 44.1716 587 45V52C587 52.8284 587.672 53.5 588.5 53.5C589.328 53.5 590 52.8284 590 52V45C590 44.1716 589.328 43.5 588.5 43.5Z" fill="#4A90E2"/>
<path id="Combined Shape_10" opacity="0.3" fill-rule="evenodd" clip-rule="evenodd" d="M545 61C545 60.1716 545.672 59.5 546.5 59.5C547.328 59.5 548 60.1716 548 61V68C548 68.8284 547.328 69.5 546.5 69.5C545.672 69.5 545 68.8284 545 68V61ZM552 61C552 60.1716 552.672 59.5 553.5 59.5C554.328 59.5 555 60.1716 555 61V68C555 68.8284 554.328 69.5 553.5 69.5C552.672 69.5 552 68.8284 552 68V61ZM560.5 59.5C559.672 59.5 559 60.1716 559 61V68C559 68.8284 559.672 69.5 560.5 69.5C561.328 69.5 562 68.8284 562 68V61C562 60.1716 561.328 59.5 560.5 59.5ZM566 61C566 60.1716 566.672 59.5 567.5 59.5C568.328 59.5 569 60.1716 569 61V68C569 68.8284 568.328 69.5 567.5 69.5C566.672 69.5 566 68.8284 566 68V61ZM574.5 59.5C573.672 59.5 573 60.1716 573 61V68C573 68.8284 573.672 69.5 574.5 69.5C575.328 69.5 576 68.8284 576 68V61C576 60.1716 575.328 59.5 574.5 59.5ZM580 61C580 60.1716 580.672 59.5 581.5 59.5C582.328 59.5 583 60.1716 583 61V68C583 68.8284 582.328 69.5 581.5 69.5C580.672 69.5 580 68.8284 580 68V61ZM588.5 59.5C587.672 59.5 587 60.1716 587 61V68C587 68.8284 587.672 69.5 588.5 69.5C589.328 69.5 590 68.8284 590 68V61C590 60.1716 589.328 59.5 588.5 59.5Z" fill="#4A90E2"/>
<path id="Combined Shape_11" opacity="0.3" fill-rule="evenodd" clip-rule="evenodd" d="M545 77C545 76.1716 545.672 75.5 546.5 75.5C547.328 75.5 548 76.1716 548 77V84C548 84.8284 547.328 85.5 546.5 85.5C545.672 85.5 545 84.8284 545 84V77ZM552 77C552 76.1716 552.672 75.5 553.5 75.5C554.328 75.5 555 76.1716 555 77V84C555 84.8284 554.328 85.5 553.5 85.5C552.672 85.5 552 84.8284 552 84V77ZM560.5 75.5C559.672 75.5 559 76.1716 559 77V84C559 84.8284 559.672 85.5 560.5 85.5C561.328 85.5 562 84.8284 562 84V77C562 76.1716 561.328 75.5 560.5 75.5ZM566 77C566 76.1716 566.672 75.5 567.5 75.5C568.328 75.5 569 76.1716 569 77V84C569 84.8284 568.328 85.5 567.5 85.5C566.672 85.5 566 84.8284 566 84V77ZM574.5 75.5C573.672 75.5 573 76.1716 573 77V84C573 84.8284 573.672 85.5 574.5 85.5C575.328 85.5 576 84.8284 576 84V77C576 76.1716 575.328 75.5 574.5 75.5ZM580 77C580 76.1716 580.672 75.5 581.5 75.5C582.328 75.5 583 76.1716 583 77V84C583 84.8284 582.328 85.5 581.5 85.5C580.672 85.5 580 84.8284 580 84V77ZM588.5 75.5C587.672 75.5 587 76.1716 587 77V84C587 84.8284 587.672 85.5 588.5 85.5C589.328 85.5 590 84.8284 590 84V77C590 76.1716 589.328 75.5 588.5 75.5Z" fill="#4A90E2"/>
<path id="Combined Shape_12" opacity="0.3" fill-rule="evenodd" clip-rule="evenodd" d="M545 92C545 91.1716 545.672 90.5 546.5 90.5C547.328 90.5 548 91.1716 548 92V99C548 99.8284 547.328 100.5 546.5 100.5C545.672 100.5 545 99.8284 545 99V92ZM552 92C552 91.1716 552.672 90.5 553.5 90.5C554.328 90.5 555 91.1716 555 92V99C555 99.8284 554.328 100.5 553.5 100.5C552.672 100.5 552 99.8284 552 99V92ZM560.5 90.5C559.672 90.5 559 91.1716 559 92V99C559 99.8284 559.672 100.5 560.5 100.5C561.328 100.5 562 99.8284 562 99V92C562 91.1716 561.328 90.5 560.5 90.5ZM566 92C566 91.1716 566.672 90.5 567.5 90.5C568.328 90.5 569 91.1716 569 92V99C569 99.8284 568.328 100.5 567.5 100.5C566.672 100.5 566 99.8284 566 99V92ZM574.5 90.5C573.672 90.5 573 91.1716 573 92V99C573 99.8284 573.672 100.5 574.5 100.5C575.328 100.5 576 99.8284 576 99V92C576 91.1716 575.328 90.5 574.5 90.5ZM580 92C580 91.1716 580.672 90.5 581.5 90.5C582.328 90.5 583 91.1716 583 92V99C583 99.8284 582.328 100.5 581.5 100.5C580.672 100.5 580 99.8284 580 99V92ZM588.5 90.5C587.672 90.5 587 91.1716 587 92V99C587 99.8284 587.672 100.5 588.5 100.5C589.328 100.5 590 99.8284 590 99V92C590 91.1716 589.328 90.5 588.5 90.5Z" fill="#4A90E2"/>
<rect id="Rectangle_30" x="599" y="47.5" width="11" height="20" rx="2" fill="#7EB7F9" stroke="#0B5DC0" stroke-width="2"/>
<path id="Rectangle_31" d="M546 75.5C546 74.3954 546.895 73.5 548 73.5H552C553.105 73.5 554 74.3954 554 75.5V84.5H546V75.5Z" fill="#7EB7F9" stroke="#0B5DC0" stroke-width="2"/>
<path id="Rectangle_32" d="M560 75.5C560 74.3954 560.895 73.5 562 73.5H566C567.105 73.5 568 74.3954 568 75.5V84.5H560V75.5Z" fill="#7EB7F9" stroke="#0B5DC0" stroke-width="2"/>
<path id="Rectangle_33" d="M581 75.5C581 74.3954 581.895 73.5 583 73.5H587C588.105 73.5 589 74.3954 589 75.5V84.5H581V75.5Z" fill="#7EB7F9" stroke="#0B5DC0" stroke-width="2"/>
<path id="Rectangle_34" d="M574 59.5C574 58.3954 574.895 57.5 576 57.5H580C581.105 57.5 582 58.3954 582 59.5V68.5H574V59.5Z" fill="#7EB7F9" stroke="#0B5DC0" stroke-width="2"/>
<path id="Rectangle_35" d="M546 90.5C546 89.3954 546.895 88.5 548 88.5H552C553.105 88.5 554 89.3954 554 90.5V99.5H546V90.5Z" fill="#7EB7F9" stroke="#0B5DC0" stroke-width="2"/>
<path id="Rectangle_36" d="M567 90.5C567 89.3954 567.895 88.5 569 88.5H573C574.105 88.5 575 89.3954 575 90.5V99.5H567V90.5Z" fill="#7EB7F9" stroke="#0B5DC0" stroke-width="2"/>
<path id="Rectangle_37" d="M581 90.5C581 89.3954 581.895 88.5 583 88.5H587C588.105 88.5 589 89.3954 589 90.5V99.5H581V90.5Z" fill="#7EB7F9" stroke="#0B5DC0" stroke-width="2"/>
<rect id="Rectangle_38" x="540" y="98.6031" width="54" height="2" fill="#1560BD"/>
<g id="Group 46_2">
<rect id="Rectangle_39" x="540" y="83.5" width="54" height="2" fill="#1560BD"/>
<rect id="Rectangle_40" opacity="0.2" x="540" y="85.5" width="54" height="3" fill="#1560BD"/>
</g>
<g id="Group 45_2">
<rect id="Rectangle_41" x="540" y="67.5" width="54" height="2" fill="#1560BD"/>
<rect id="Rectangle_42" opacity="0.2" x="540" y="69.5" width="54" height="3" fill="#1560BD"/>
</g>
<g id="Group 44_2">
<rect id="Rectangle_43" x="540" y="51.5" width="54" height="2" fill="#1560BD"/>
<rect id="Rectangle_44" opacity="0.2" x="540" y="53.5" width="54" height="3" fill="#1560BD"/>
</g>
<rect id="Rectangle_45" opacity="0.12" x="551" y="106.5" width="32" height="3" fill="#1560BD"/>
<path id="Oval_12" opacity="0.5" fill-rule="evenodd" clip-rule="evenodd" d="M608 76.5C609.105 76.5 610 75.6046 610 74.5C610 73.3954 609.105 72.5 608 72.5C606.895 72.5 606 73.3954 606 74.5C606 75.6046 606.895 76.5 608 76.5Z" fill="white"/>
<path id="Oval_13" opacity="0.5" fill-rule="evenodd" clip-rule="evenodd" d="M601 76.5C602.105 76.5 603 75.6046 603 74.5C603 73.3954 602.105 72.5 601 72.5C599.895 72.5 599 73.3954 599 74.5C599 75.6046 599.895 76.5 601 76.5Z" fill="white"/>
<path id="Oval_14" opacity="0.5" fill-rule="evenodd" clip-rule="evenodd" d="M608 82.5C609.105 82.5 610 81.6046 610 80.5C610 79.3954 609.105 78.5 608 78.5C606.895 78.5 606 79.3954 606 80.5C606 81.6046 606.895 82.5 608 82.5Z" fill="white"/>
<path id="Oval_15" opacity="0.5" fill-rule="evenodd" clip-rule="evenodd" d="M601 82.5C602.105 82.5 603 81.6046 603 80.5C603 79.3954 602.105 78.5 601 78.5C599.895 78.5 599 79.3954 599 80.5C599 81.6046 599.895 82.5 601 82.5Z" fill="white"/>
<path id="Oval_16" opacity="0.5" fill-rule="evenodd" clip-rule="evenodd" d="M608 88.5C609.105 88.5 610 87.6046 610 86.5C610 85.3954 609.105 84.5 608 84.5C606.895 84.5 606 85.3954 606 86.5C606 87.6046 606.895 88.5 608 88.5Z" fill="white"/>
<path id="Oval_17" opacity="0.5" fill-rule="evenodd" clip-rule="evenodd" d="M601 88.5C602.105 88.5 603 87.6046 603 86.5C603 85.3954 602.105 84.5 601 84.5C599.895 84.5 599 85.3954 599 86.5C599 87.6046 599.895 88.5 601 88.5Z" fill="white"/>
<rect id="Rectangle_46" opacity="0.2" x="599" y="91.5" width="11" height="4" rx="2" fill="white"/>
</g>
<path id="Path 12" opacity="0.5" d="M235 71.5L245 77.2735V65.7265L235 71.5ZM515 72.5C515.552 72.5 516 72.0523 516 71.5C516 70.9477 515.552 70.5 515 70.5V72.5ZM244 72.5H515V70.5H244V72.5Z" fill="#4A90E2"/>
<path id="Path 12_2" opacity="0.5" d="M515 87.5L505 93.2735V81.7265L515 87.5ZM235 88.5C234.448 88.5 234 88.0523 234 87.5C234 86.9477 234.448 86.5 235 86.5V88.5ZM506 88.5H235V86.5H506V88.5Z" fill="#4A90E2"/>
<g id="Group 55">
<g id="Group 53">
<path id="Path 17" fill-rule="evenodd" clip-rule="evenodd" d="M15.6172 88.8342H32.3826V122.39H25.4999V96.0057H22.522V122.39H15.6172V88.8342Z" fill="#4A90E2"/>
<g id="Group 52">
<g id="Group 51">
<path id="Path 13 Copy" d="M23.9218 95.8616H22.4624V123.773H15.6172V75.6833C15.6172 75.6833 15.6346 73.5916 16.5931 73.5916" stroke="#1560BD" stroke-width="2" stroke-linecap="round" stroke-linejoin="round"/>
<path id="Path 15 Copy" d="M15.6173 97.8349C13.4235 96.9295 11.7513 96.4086 11.7513 92.0146C11.7513 87.6206 11.7513 88.4628 11.7513 88.4628L10 79.918C10 79.918 10.3968 70.7747 12.3564 68.7113C14.3159 66.6479 19.2736 65.7138 19.7696 64.7769C20.2656 63.84 20.0291 62.5087 20.0291 62.5087" stroke="#1560BD" stroke-width="2" stroke-linecap="round" stroke-linejoin="round"/>
<path id="Path 16 Copy" d="M15.6172 88.8342H23.9218" stroke="#1560BD" stroke-width="2" stroke-linecap="round" stroke-linejoin="round"/>
<path id="Path 17 Copy" d="M20.1054 88.8342L15.6172 93.2125" stroke="#1560BD" stroke-width="2" stroke-linecap="round" stroke-linejoin="round"/>
<path id="Path 18 Copy" d="M15.6176 91.8267H11.8711" stroke="#1560BD" stroke-width="2" stroke-linecap="round" stroke-linejoin="round"/>
<path id="Path 18 Copy 2" d="M15.6176 87.8345H11.8711" stroke="#1560BD" stroke-width="2" stroke-linecap="round" stroke-linejoin="round"/>
<path id="Path 19 Copy" d="M23.921 64.0182C23.921 64.0182 22.4888 64.0182 21.5878 63.6463C18.4407 61.5194 16.0254 59.3887 16.0254 55.9048C16.0254 52.4209 16.0254 46.8498 16.0254 46.8498L23.921 44.2186" stroke="#1560BD" stroke-width="2" stroke-linecap="round" stroke-linejoin="round"/>
</g>
<g id="Group 51_2">
<path id="Path 13 Copy_2" d="M24.0782 95.8616H25.5376V123.773H32.3828V75.6833C32.3828 75.6833 32.3654 73.5916 31.4069 73.5916" stroke="#1560BD" stroke-width="2" stroke-linecap="round" stroke-linejoin="round"/>
<path id="Path 15 Copy_2" d="M32.3827 97.8349C34.5765 96.9295 36.2487 96.4086 36.2487 92.0146C36.2487 87.6206 36.2487 88.4628 36.2487 88.4628L38 79.918C38 79.918 37.6032 70.7747 35.6436 68.7113C33.6841 66.6479 28.7264 65.7138 28.2304 64.7769C27.7344 63.84 27.9709 62.5087 27.9709 62.5087" stroke="#1560BD" stroke-width="2" stroke-linecap="round" stroke-linejoin="round"/>
<path id="Path 16 Copy_2" d="M32.3828 88.8342H24.0782" stroke="#1560BD" stroke-width="2" stroke-linecap="round" stroke-linejoin="round"/>
<path id="Path 17 Copy_2" d="M27.8946 88.8342L32.3828 93.2125" stroke="#1560BD" stroke-width="2" stroke-linecap="round" stroke-linejoin="round"/>
<path id="Path 18 Copy_2" d="M32.3824 91.8267H36.1289" stroke="#1560BD" stroke-width="2" stroke-linecap="round" stroke-linejoin="round"/>
<path id="Path 18 Copy 2_2" d="M32.3824 87.8345H36.1289" stroke="#1560BD" stroke-width="2" stroke-linecap="round" stroke-linejoin="round"/>
<path id="Path 19 Copy_2" d="M24.079 64.0182C24.079 64.0182 25.5112 64.0182 26.4122 63.6463C29.5593 61.5194 31.9746 59.3887 31.9746 55.9048C31.9746 52.4209 31.9746 46.8498 31.9746 46.8498L24.079 44.2186" stroke="#1560BD" stroke-width="2" stroke-linecap="round" stroke-linejoin="round"/>
</g>
</g>
<path id="Path 13" fill-rule="evenodd" clip-rule="evenodd" d="M17.7617 47.5869C17.4975 48.2689 16.5529 50.4172 15.3912 49.8911C14.2294 49.365 14.6392 46.4637 15.0523 45.4705C15.4653 44.4773 16.4496 43.9906 17.7617 44.4628C18.4038 43.4581 21.0906 39.9943 27.8941 42.2475C34.6975 44.5006 33.7076 47.8778 33.3504 50.9668C32.3444 50.2555 31.9733 49.708 31.147 49.0019C30.3207 48.2957 29.7439 47.7376 27.2987 48.1134C24.8535 48.4893 20.6851 48.743 17.7617 47.5869Z" fill="#C9DEF7" stroke="#1560BD" stroke-width="2" stroke-linejoin="round"/>
<path id="Path 15" fill-rule="evenodd" clip-rule="evenodd" d="M22.5213 123.819C22.5213 123.819 22.4081 118.435 17.8553 118.435C13.3024 118.435 13.7371 122.682 13.7371 122.682C13.7371 122.682 13.7918 123.819 15.6761 123.819C17.5603 123.819 22.5213 123.819 22.5213 123.819Z" fill="#C9DEF7" stroke="#1560BD" stroke-width="2" stroke-linecap="round" stroke-linejoin="round"/>
<path id="Path 15_2" fill-rule="evenodd" clip-rule="evenodd" d="M25.5002 123.819C25.5002 123.819 25.6134 118.435 30.1662 118.435C34.719 118.435 34.2844 122.682 34.2844 122.682C34.2844 122.682 34.2296 123.819 32.3454 123.819C30.4612 123.819 25.5002 123.819 25.5002 123.819Z" fill="#C9DEF7" stroke="#1560BD" stroke-width="2" stroke-linecap="round" stroke-linejoin="round"/>
<path id="Oval_18" fill-rule="evenodd" clip-rule="evenodd" d="M20.1992 55.2345C21.0276 55.2345 21.6992 54.5629 21.6992 53.7345C21.6992 52.9061 21.0276 52.2345 20.1992 52.2345C19.3708 52.2345 18.6992 52.9061 18.6992 53.7345C18.6992 54.5629 19.3708 55.2345 20.1992 55.2345Z" fill="#1560BD"/>
<path id="Oval_19" fill-rule="evenodd" clip-rule="evenodd" d="M28.1992 55.2345C29.0276 55.2345 29.6992 54.5629 29.6992 53.7345C29.6992 52.9061 29.0276 52.2345 28.1992 52.2345C27.3708 52.2345 26.6992 52.9061 26.6992 53.7345C26.6992 54.5629 27.3708 55.2345 28.1992 55.2345Z" fill="#1560BD"/>
<path id="Path 16" d="M22.373 59.3028C22.373 59.3028 23.0568 59.8817 24.3685 59.8817C25.6803 59.8817 25.9983 59.3028 25.9983 59.3028" stroke="#1560BD" stroke-width="2" stroke-linecap="round"/>
<path id="Path 16_2" d="M23.4648 56.2061C23.4648 56.2061 23.4638 56.4087 24.079 56.4087C24.6941 56.4087 24.8867 56.2061 24.8867 56.2061" stroke="#1560BD" stroke-width="2" stroke-linecap="round"/>
<path id="Path 18" d="M18.8438 65.4671C18.8438 65.4671 19.8921 67.2558 23.8935 67.2558C27.895 67.2558 29.1452 65.4671 29.1452 65.4671" stroke="#1560BD" stroke-width="2"/>
</g>
<g id="Group 54">
<path id="Path 4_7" opacity="0.2" d="M6 123.835H37.512" stroke="#1560BD" stroke-width="2" stroke-linecap="round"/>
<path id="Path 4_8" opacity="0.2" d="M1 123.835H2" stroke="#1560BD" stroke-width="2" stroke-linecap="round"/>
<path id="Path 4_9" opacity="0.2" d="M41 123.835H47" stroke="#1560BD" stroke-width="2" stroke-linecap="round"/>
</g>
</g>
<g id="Group 55_2">
<g id="Group 53_2">
<path id="Path 17_2" fill-rule="evenodd" clip-rule="evenodd" d="M726.617 88.8342H743.383V122.39H736.5V96.0057H733.522V122.39H726.617V88.8342Z" fill="#4A90E2"/>
<g id="Group 52_2">
<g id="Group 51_3">
<path id="Path 13 Copy_3" d="M734.922 95.8616H733.462V123.773H726.617V75.6833C726.617 75.6833 726.635 73.5916 727.593 73.5916" stroke="#1560BD" stroke-width="2" stroke-linecap="round" stroke-linejoin="round"/>
<path id="Path 15 Copy_3" d="M726.617 97.8349C724.424 96.9295 722.751 96.4086 722.751 92.0146C722.751 87.6206 722.751 88.4628 722.751 88.4628L721 79.918C721 79.918 721.397 70.7747 723.356 68.7113C725.316 66.6479 730.274 65.7138 730.77 64.7769C731.266 63.84 731.029 62.5087 731.029 62.5087" stroke="#1560BD" stroke-width="2" stroke-linecap="round" stroke-linejoin="round"/>
<path id="Path 16 Copy_3" d="M726.617 88.8342H734.922" stroke="#1560BD" stroke-width="2" stroke-linecap="round" stroke-linejoin="round"/>
<path id="Path 17 Copy_3" d="M731.105 88.8342L726.617 93.2125" stroke="#1560BD" stroke-width="2" stroke-linecap="round" stroke-linejoin="round"/>
<path id="Path 18 Copy_3" d="M726.618 91.8267H722.871" stroke="#1560BD" stroke-width="2" stroke-linecap="round" stroke-linejoin="round"/>
<path id="Path 18 Copy 2_3" d="M726.618 87.8345H722.871" stroke="#1560BD" stroke-width="2" stroke-linecap="round" stroke-linejoin="round"/>
<path id="Path 19 Copy_3" d="M734.921 64.0182C734.921 64.0182 733.489 64.0182 732.588 63.6463C729.441 61.5194 727.025 59.3887 727.025 55.9048C727.025 52.4209 727.025 46.8498 727.025 46.8498L734.921 44.2186" stroke="#1560BD" stroke-width="2" stroke-linecap="round" stroke-linejoin="round"/>
</g>
<g id="Group 51_4">
<path id="Path 13 Copy_4" d="M735.078 95.8616H736.538V123.773H743.383V75.6833C743.383 75.6833 743.365 73.5916 742.407 73.5916" stroke="#1560BD" stroke-width="2" stroke-linecap="round" stroke-linejoin="round"/>
<path id="Path 15 Copy_4" d="M743.383 97.8349C745.576 96.9295 747.249 96.4086 747.249 92.0146C747.249 87.6206 747.249 88.4628 747.249 88.4628L749 79.918C749 79.918 748.603 70.7747 746.644 68.7113C744.684 66.6479 739.726 65.7138 739.23 64.7769C738.734 63.84 738.971 62.5087 738.971 62.5087" stroke="#1560BD" stroke-width="2" stroke-linecap="round" stroke-linejoin="round"/>
<path id="Path 16 Copy_4" d="M743.383 88.8342H735.078" stroke="#1560BD" stroke-width="2" stroke-linecap="round" stroke-linejoin="round"/>
<path id="Path 17 Copy_4" d="M738.895 88.8342L743.383 93.2125" stroke="#1560BD" stroke-width="2" stroke-linecap="round" stroke-linejoin="round"/>
<path id="Path 18 Copy_4" d="M743.382 91.8267H747.129" stroke="#1560BD" stroke-width="2" stroke-linecap="round" stroke-linejoin="round"/>
<path id="Path 18 Copy 2_4" d="M743.382 87.8345H747.129" stroke="#1560BD" stroke-width="2" stroke-linecap="round" stroke-linejoin="round"/>
<path id="Path 19 Copy_4" d="M735.079 64.0182C735.079 64.0182 736.511 64.0182 737.412 63.6463C740.559 61.5194 742.975 59.3887 742.975 55.9048C742.975 52.4209 742.975 46.8498 742.975 46.8498L735.079 44.2186" stroke="#1560BD" stroke-width="2" stroke-linecap="round" stroke-linejoin="round"/>
</g>
</g>
<path id="Path 13_2" fill-rule="evenodd" clip-rule="evenodd" d="M728.762 47.5869C728.498 48.2689 727.553 50.4172 726.391 49.8911C725.229 49.365 725.639 46.4637 726.052 45.4705C726.465 44.4773 727.45 43.9906 728.762 44.4628C729.404 43.4581 732.091 39.9943 738.894 42.2475C745.697 44.5006 744.708 47.8778 744.35 50.9668C743.344 50.2555 742.973 49.708 742.147 49.0019C741.321 48.2957 740.744 47.7376 738.299 48.1134C735.853 48.4893 731.685 48.743 728.762 47.5869Z" fill="#C9DEF7" stroke="#1560BD" stroke-width="2" stroke-linejoin="round"/>
<path id="Path 15_3" fill-rule="evenodd" clip-rule="evenodd" d="M733.521 123.819C733.521 123.819 733.408 118.435 728.855 118.435C724.302 118.435 724.737 122.682 724.737 122.682C724.737 122.682 724.792 123.819 726.676 123.819C728.56 123.819 733.521 123.819 733.521 123.819Z" fill="#C9DEF7" stroke="#1560BD" stroke-width="2" stroke-linecap="round" stroke-linejoin="round"/>
<path id="Path 15_4" fill-rule="evenodd" clip-rule="evenodd" d="M736.5 123.819C736.5 123.819 736.613 118.435 741.166 118.435C745.719 118.435 745.284 122.682 745.284 122.682C745.284 122.682 745.23 123.819 743.345 123.819C741.461 123.819 736.5 123.819 736.5 123.819Z" fill="#C9DEF7" stroke="#1560BD" stroke-width="2" stroke-linecap="round" stroke-linejoin="round"/>
<path id="Oval_20" fill-rule="evenodd" clip-rule="evenodd" d="M731.199 55.2345C732.028 55.2345 732.699 54.5629 732.699 53.7345C732.699 52.9061 732.028 52.2345 731.199 52.2345C730.371 52.2345 729.699 52.9061 729.699 53.7345C729.699 54.5629 730.371 55.2345 731.199 55.2345Z" fill="#1560BD"/>
<path id="Oval_21" fill-rule="evenodd" clip-rule="evenodd" d="M739.199 55.2345C740.028 55.2345 740.699 54.5629 740.699 53.7345C740.699 52.9061 740.028 52.2345 739.199 52.2345C738.371 52.2345 737.699 52.9061 737.699 53.7345C737.699 54.5629 738.371 55.2345 739.199 55.2345Z" fill="#1560BD"/>
<path id="Path 16_3" d="M733.373 59.3028C733.373 59.3028 734.057 59.8817 735.369 59.8817C736.68 59.8817 736.998 59.3028 736.998 59.3028" stroke="#1560BD" stroke-width="2" stroke-linecap="round"/>
<path id="Path 16_4" d="M734.465 56.2061C734.465 56.2061 734.464 56.4087 735.079 56.4087C735.694 56.4087 735.887 56.2061 735.887 56.2061" stroke="#1560BD" stroke-width="2" stroke-linecap="round"/>
<path id="Path 18_2" d="M729.844 65.4671C729.844 65.4671 730.892 67.2558 734.894 67.2558C738.895 67.2558 740.145 65.4671 740.145 65.4671" stroke="#1560BD" stroke-width="2"/>
</g>
<g id="Group 54_2">
<path id="Path 4_10" opacity="0.2" d="M717 123.835H748.512" stroke="#1560BD" stroke-width="2" stroke-linecap="round"/>
<path id="Path 4_11" opacity="0.2" d="M712 123.835H713" stroke="#1560BD" stroke-width="2" stroke-linecap="round"/>
<path id="Path 4_12" opacity="0.2" d="M752 123.835H758" stroke="#1560BD" stroke-width="2" stroke-linecap="round"/>
</g>
</g>
<path id="Path 12_3" opacity="0.5" d="M116 81.5L106 87.2735V75.7265L116 81.5ZM65 82.5C64.4477 82.5 64 82.0523 64 81.5C64 80.9477 64.4477 80.5 65 80.5V82.5ZM107 82.5H65V80.5H107V82.5Z" fill="#4A90E2"/>
<path id="Path 12_4" opacity="0.5" d="M645 81.5L655 87.2735V75.7265L645 81.5ZM696 82.5C696.552 82.5 697 82.0523 697 81.5C697 80.9477 696.552 80.5 696 80.5V82.5ZM654 82.5H696V80.5H654V82.5Z" fill="#4A90E2"/>
<g id="Group 23">
<g id="Group 22">
<path id="Oval_22" fill-rule="evenodd" clip-rule="evenodd" d="M366.648 103.12C379.351 103.12 389.648 92.8225 389.648 80.12C389.648 67.4174 379.351 57.12 366.648 57.12C353.946 57.12 343.648 67.4174 343.648 80.12C343.648 92.8225 353.946 103.12 366.648 103.12Z" fill="#A1CBFF" stroke="#1560BD" stroke-width="2"/>
<path id="Oval_23" fill-rule="evenodd" clip-rule="evenodd" d="M366.648 98.12C376.59 98.12 384.648 90.0611 384.648 80.12C384.648 70.1789 376.59 62.12 366.648 62.12C356.707 62.12 348.648 70.1789 348.648 80.12C348.648 90.0611 356.707 98.12 366.648 98.12Z" fill="#B6D5F9"/>
<path id="Combined Shape_13" opacity="0.3" fill-rule="evenodd" clip-rule="evenodd" d="M379.941 62.5858C371.318 56.0324 358.965 56.6917 351.093 64.5637C343.221 72.4357 342.562 84.789 349.115 93.4116L379.941 62.5858ZM352.571 97.0272L383.557 66.0413C384.671 67.3767 385.603 68.8131 386.351 70.3174L356.847 99.8221C355.342 99.0734 353.906 98.1418 352.571 97.0272Z" fill="white"/>
<path id="Oval_24" opacity="0.3" fill-rule="evenodd" clip-rule="evenodd" d="M366.648 82.12C367.753 82.12 368.648 81.2246 368.648 80.12C368.648 79.0154 367.753 78.12 366.648 78.12C365.544 78.12 364.648 79.0154 364.648 80.12C364.648 81.2246 365.544 82.12 366.648 82.12Z" stroke="#1560BD" stroke-width="2"/>
<path id="Combined Shape_14" fill-rule="evenodd" clip-rule="evenodd" d="M372.628 66.685C373.018 67.0755 373.018 67.7087 372.628 68.0992C372.237 68.4897 371.604 68.4897 371.213 68.0992C370.823 67.7087 370.823 67.0755 371.213 66.685C371.604 66.2944 372.237 66.2944 372.628 66.685ZM409.397 55.3713C409.788 55.7618 410.421 55.7618 410.811 55.3713C411.202 54.9807 411.202 54.3476 410.811 53.957C410.421 53.5665 409.788 53.5665 409.397 53.957C409.007 54.3476 409.007 54.9807 409.397 55.3713ZM385.44 80.7321C385.467 80.6969 385.492 80.6597 385.514 80.6206C385.576 80.5145 385.616 80.3996 385.635 80.282C385.642 80.2436 385.646 80.2053 385.648 80.1671C385.64 80.3217 385.597 80.4768 385.514 80.62C385.47 80.6978 385.416 80.7673 385.355 80.8279C385.329 80.8544 385.301 80.8791 385.272 80.9022C385.264 80.9083 385.256 80.9143 385.249 80.9202C385.216 80.9443 385.183 80.9667 385.147 80.987C385.085 81.0229 385.02 81.0515 384.952 81.0729C384.896 81.0909 384.839 81.1036 384.782 81.1113C384.723 81.1193 384.662 81.122 384.601 81.1191C384.447 81.1119 384.292 81.0687 384.148 80.986C384.006 80.9036 383.891 80.7912 383.807 80.6614C383.799 80.648 383.79 80.6344 383.783 80.6207L383.783 80.6207C383.761 80.5828 383.741 80.5436 383.725 80.5034C383.708 80.463 383.694 80.4214 383.682 80.379C383.686 80.394 383.691 80.4089 383.695 80.4238C383.678 80.3679 383.665 80.3112 383.657 80.2542C383.651 80.2094 383.648 80.164 383.648 80.1181C383.648 80.0747 383.651 80.0317 383.657 79.9892C383.668 79.9041 383.69 79.8196 383.724 79.7376C383.81 79.5292 383.961 79.3623 384.147 79.2547L384.147 79.2546C384 79.3394 383.873 79.4627 383.782 79.62M384.696 79.1209C384.766 79.1244 384.837 79.1352 384.907 79.1541C384.951 79.1657 384.992 79.1799 385.033 79.1966C384.924 79.1511 384.81 79.1263 384.696 79.1209ZM385.32 79.3784C385.357 79.4121 385.391 79.4484 385.423 79.4871C385.447 79.5169 385.47 79.5479 385.49 79.5797C385.443 79.5063 385.386 79.4384 385.32 79.3784ZM385.44 80.7321C385.414 80.7655 385.386 80.7976 385.355 80.8279L385.44 80.7321ZM398.083 93.555C398.474 93.1645 398.474 92.5313 398.083 92.1408C397.693 91.7503 397.06 91.7503 396.669 92.1408C396.279 92.5313 396.279 93.1645 396.669 93.555C397.06 93.9455 397.693 93.9455 398.083 93.555ZM376.148 65.3976C376.627 65.1214 376.791 64.5098 376.514 64.0315C376.238 63.5532 375.627 63.3894 375.148 63.6655C374.67 63.9417 374.506 64.5532 374.782 65.0315C375.059 65.5098 375.67 65.6737 376.148 65.3976ZM416.325 62.986C415.847 63.2622 415.235 63.0983 414.959 62.62C414.683 62.1417 414.847 61.5301 415.325 61.254C415.804 60.9778 416.415 61.1417 416.691 61.62C416.968 62.0983 416.804 62.7099 416.325 62.986ZM394.514 95.2085C394.791 95.6867 394.627 96.2983 394.148 96.5745C393.67 96.8506 393.059 96.6867 392.782 96.2085C392.506 95.7302 392.67 95.1186 393.148 94.8424C393.627 94.5663 394.238 94.7302 394.514 95.2085ZM367.648 62.12C367.648 62.6723 367.201 63.12 366.648 63.12C366.096 63.12 365.648 62.6723 365.648 62.12C365.648 61.5677 366.096 61.12 366.648 61.12C367.201 61.12 367.648 61.5677 367.648 62.12ZM401.648 80.12C401.648 80.6723 402.096 81.12 402.648 81.12C403.201 81.12 403.648 80.6723 403.648 80.12C403.648 79.5677 403.201 79.12 402.648 79.12C402.096 79.12 401.648 79.5677 401.648 80.12ZM365.648 80.12C365.648 80.6723 366.096 81.12 366.648 81.12C367.201 81.12 367.648 80.6723 367.648 80.12C367.648 79.5677 367.201 79.12 366.648 79.12C366.096 79.12 365.648 79.5677 365.648 80.12ZM380.249 63.6993C380.782 63.5563 381.099 63.008 380.956 62.4745C380.813 61.941 380.264 61.6245 379.731 61.7674C379.197 61.9103 378.881 62.4587 379.024 62.9921C379.167 63.5256 379.715 63.8422 380.249 63.6993ZM419.681 71.7684C419.147 71.9114 418.599 71.5948 418.456 71.0613C418.313 70.5279 418.629 69.9795 419.163 69.8366C419.696 69.6936 420.245 70.0102 420.388 70.5437C420.531 71.0772 420.214 71.6255 419.681 71.7684ZM390.273 97.2478C390.416 97.7813 390.099 98.3296 389.566 98.4726C389.033 98.6155 388.484 98.2989 388.341 97.7655C388.198 97.232 388.515 96.6837 389.048 96.5407C389.582 96.3978 390.13 96.7144 390.273 97.2478ZM367.648 98.12C367.648 98.6723 367.201 99.12 366.648 99.12C366.096 99.12 365.648 98.6723 365.648 98.12C365.648 97.5677 366.096 97.12 366.648 97.12C367.201 97.12 367.648 97.5677 367.648 98.12ZM389.048 63.6993C389.582 63.8422 390.13 63.5256 390.273 62.9921C390.416 62.4587 390.099 61.9103 389.566 61.7674C389.033 61.6245 388.484 61.941 388.341 62.4745C388.198 63.008 388.515 63.5563 389.048 63.6993ZM419.163 90.4034C418.629 90.2605 418.313 89.7121 418.456 89.1787C418.599 88.6452 419.147 88.3286 419.681 88.4716C420.214 88.6145 420.531 89.1628 420.388 89.6963C420.245 90.2298 419.696 90.5463 419.163 90.4034ZM380.956 97.7655C380.813 98.2989 380.264 98.6155 379.731 98.4726C379.197 98.3296 378.881 97.7813 379.024 97.2478C379.167 96.7144 379.715 96.3978 380.249 96.5407C380.782 96.6837 381.099 97.232 380.956 97.7655ZM394.514 65.0315C394.238 65.5098 393.627 65.6737 393.148 65.3976C392.67 65.1214 392.506 64.5098 392.782 64.0315C393.059 63.5532 393.67 63.3894 394.148 63.6655C394.627 63.9417 394.791 64.5532 394.514 65.0315ZM414.959 97.62C414.683 98.0983 414.847 98.7099 415.325 98.986C415.804 99.2622 416.415 99.0983 416.691 98.62C416.968 98.1417 416.804 97.5301 416.325 97.254C415.847 96.9778 415.235 97.1417 414.959 97.62ZM375.148 96.5745C375.627 96.8506 376.238 96.6867 376.514 96.2085C376.791 95.7302 376.627 95.1186 376.148 94.8424C375.67 94.5663 375.059 94.7302 374.782 95.2085C374.506 95.6867 374.67 96.2983 375.148 96.5745Z" fill="#1560BD"/>
<path id="Combined Shape_15" opacity="0.5" fill-rule="evenodd" clip-rule="evenodd" d="M388.648 80.12C388.648 67.9697 378.799 58.12 366.648 58.12C354.498 58.12 344.648 67.9697 344.648 80.12C344.648 80.4551 344.656 80.7885 344.671 81.12C345.194 69.4339 354.833 60.12 366.648 60.12C378.464 60.12 388.103 69.4339 388.626 81.12C388.641 80.7885 388.648 80.4551 388.648 80.12Z" fill="white"/>
<path id="Combined Shape_16" opacity="0.5" fill-rule="evenodd" clip-rule="evenodd" d="M344.671 79.12C344.656 79.4515 344.648 79.7849 344.648 80.12C344.648 92.2703 354.498 102.12 366.648 102.12C378.799 102.12 388.648 92.2703 388.648 80.12C388.648 79.7849 388.641 79.4515 388.626 79.12C388.103 90.8062 378.464 100.12 366.648 100.12C354.833 100.12 345.194 90.8062 344.671 79.12Z" fill="#1560BD"/>
<path id="Combined Shape_17" opacity="0.3" fill-rule="evenodd" clip-rule="evenodd" d="M367.629 47.3834C367.571 46.886 367.148 46.5 366.635 46.5C366.083 46.5 365.635 46.9477 365.635 47.5V52.6582L365.642 52.7748C365.7 53.2722 366.123 53.6582 366.635 53.6582C367.188 53.6582 367.635 53.2105 367.635 52.6582V47.5L367.629 47.3834ZM359.786 50.7335L359.822 50.8444L360.49 53.3357C360.633 53.8691 360.316 54.4175 359.783 54.5604C359.287 54.6931 358.779 54.4296 358.595 53.9642L358.558 53.8533L357.89 51.3621C357.747 50.8286 358.064 50.2803 358.597 50.1373C359.055 50.0148 359.523 50.2299 359.737 50.6298L359.786 50.7335ZM375.398 51.2586C375.471 50.7632 375.163 50.281 374.668 50.1482C374.134 50.0053 373.586 50.3219 373.443 50.8553L372.775 53.3466L372.752 53.4609C372.679 53.9563 372.987 54.4386 373.482 54.5713C374.016 54.7142 374.564 54.3977 374.707 53.8642L375.375 51.373L375.398 51.2586ZM383.872 52.268C384.07 51.8084 383.897 51.2627 383.453 51.0063C382.975 50.7302 382.363 50.894 382.087 51.3723L379.508 55.8395L379.456 55.9438C379.257 56.4034 379.43 56.9491 379.874 57.2055C380.352 57.4816 380.964 57.3178 381.24 56.8395L383.819 52.3723L383.872 52.268ZM345.995 58.0798L346.089 58.1629L347.913 59.9867C348.303 60.3772 348.303 61.0103 347.913 61.4009C347.552 61.7613 346.985 61.7891 346.593 61.4841L346.499 61.4009L344.675 59.5772C344.284 59.1866 344.284 58.5535 344.675 58.1629C345.005 57.8325 345.51 57.7817 345.893 58.0104L345.995 58.0798ZM388.662 59.5127C388.967 59.1204 388.94 58.5532 388.579 58.1927C388.189 57.8022 387.556 57.8022 387.165 58.1927L385.341 60.0164L385.258 60.1106C384.953 60.5029 384.981 61.0701 385.341 61.4306C385.732 61.8212 386.365 61.8212 386.756 61.4306L388.579 59.6069L388.662 59.5127ZM395.496 64.6196C395.898 64.3209 396.021 63.7619 395.765 63.3177C395.488 62.8394 394.877 62.6756 394.399 62.9517L389.931 65.5308L389.834 65.5949C389.432 65.8936 389.309 66.4527 389.565 66.8968C389.842 67.3751 390.453 67.539 390.931 67.2629L395.399 64.6838L395.496 64.6196ZM337.855 71.3675L337.741 71.3438L337.627 71.3337C337.173 71.3195 336.753 71.6174 336.63 72.0746C336.487 72.6081 336.804 73.1564 337.338 73.2994L339.829 73.9669L339.943 73.9906C340.438 74.0635 340.921 73.7551 341.053 73.2598C341.196 72.7263 340.88 72.178 340.346 72.035L337.855 71.3675ZM339.158 79.1355C339.711 79.1355 340.158 79.5832 340.158 80.1355C340.158 80.6483 339.772 81.071 339.275 81.1287L339.158 81.1355H334C333.448 81.1355 333 80.6877 333 80.1355C333 79.6226 333.386 79.1999 333.883 79.1422L334 79.1355H339.158ZM400.271 80.1355C400.271 79.5832 399.823 79.1355 399.271 79.1355H394.113L393.996 79.1422C393.499 79.1999 393.113 79.6226 393.113 80.1355C393.113 80.6877 393.56 81.1355 394.113 81.1355H399.271L399.388 81.1287C399.885 81.071 400.271 80.6483 400.271 80.1355ZM341.043 86.9596C341.175 87.4549 340.912 87.9631 340.446 88.1476L340.335 88.1843L337.844 88.8518C337.311 88.9948 336.762 88.6782 336.62 88.1447C336.487 87.6494 336.75 87.1412 337.216 86.9567L337.327 86.92L339.818 86.2525C340.351 86.1095 340.9 86.4261 341.043 86.9596ZM393.46 86.2673L393.346 86.2399L393.233 86.226C392.78 86.1969 392.35 86.4808 392.213 86.9338C392.052 87.4622 392.351 88.0207 392.879 88.1811L395.327 88.9241L395.44 88.9516C395.933 89.0407 396.425 88.7484 396.574 88.2577C396.734 87.7292 396.436 87.1708 395.908 87.0104L393.46 86.2673ZM343.437 94.676C343.839 94.3773 343.962 93.8182 343.705 93.3741C343.429 92.8958 342.818 92.7319 342.339 93.008L337.872 95.5872L337.775 95.6513C337.373 95.95 337.25 96.5091 337.506 96.9532C337.782 97.4315 338.394 97.5954 338.872 97.3192L343.339 94.7401L343.437 94.676ZM386.794 98.869L386.703 98.7828L386.604 98.7101C386.228 98.4688 385.722 98.5031 385.381 98.8224C384.978 99.1999 384.957 99.8327 385.334 100.236L387.083 102.103L387.174 102.189C387.556 102.507 388.124 102.498 388.496 102.15C388.899 101.772 388.92 101.139 388.543 100.736L386.794 98.869ZM353.815 104.327C354.014 103.867 353.841 103.322 353.397 103.065C352.919 102.789 352.307 102.953 352.031 103.431L349.452 107.899L349.399 108.003C349.201 108.463 349.374 109.008 349.818 109.265C350.296 109.541 350.908 109.377 351.184 108.899L353.763 104.431L353.815 104.327ZM374.721 106.45L374.688 106.337L374.643 106.232C374.442 105.825 373.981 105.595 373.52 105.703C372.982 105.828 372.648 106.365 372.773 106.903L373.354 109.395L373.387 109.507C373.556 109.978 374.055 110.258 374.554 110.142C375.092 110.016 375.427 109.479 375.301 108.941L374.721 106.45ZM367.629 107.496C367.571 106.999 367.148 106.613 366.635 106.613C366.083 106.613 365.635 107.06 365.635 107.613V112.771L365.642 112.888C365.7 113.385 366.123 113.771 366.635 113.771C367.188 113.771 367.635 113.323 367.635 112.771V107.613L367.629 107.496ZM359.808 105.73C360.299 105.879 360.591 106.372 360.502 106.864L360.475 106.978L359.732 109.425C359.571 109.954 359.013 110.252 358.485 110.092C357.994 109.943 357.701 109.451 357.791 108.958L357.818 108.844L358.561 106.397C358.722 105.868 359.28 105.57 359.808 105.73ZM381.176 103.334L381.24 103.431L383.819 107.899C384.095 108.377 383.931 108.988 383.453 109.265C383.009 109.521 382.45 109.398 382.151 108.996L382.087 108.899L379.508 104.431C379.232 103.953 379.396 103.342 379.874 103.065C380.281 102.83 380.785 102.914 381.096 103.239L381.176 103.334ZM347.92 98.8988C348.268 99.2709 348.277 99.8388 347.959 100.221L347.873 100.312L346.006 102.06C345.603 102.438 344.97 102.417 344.592 102.014C344.244 101.642 344.235 101.074 344.553 100.692L344.639 100.6L346.506 98.8522C346.909 98.4748 347.542 98.4956 347.92 98.8988ZM390.827 92.9556L390.931 93.008L395.399 95.5872C395.877 95.8633 396.041 96.4749 395.765 96.9532C395.508 97.3973 394.963 97.5703 394.503 97.3717L394.399 97.3192L389.931 94.7401C389.453 94.464 389.289 93.8524 389.565 93.3741C389.802 92.9641 390.285 92.7851 390.72 92.9163L390.827 92.9556ZM396.624 72.1879C396.74 72.6873 396.46 73.1866 395.989 73.3557L395.877 73.3887L393.386 73.969C392.848 74.0944 392.31 73.7599 392.185 73.222C392.068 72.7225 392.348 72.2233 392.82 72.0542L392.932 72.0212L395.423 71.4408C395.961 71.3155 396.498 71.65 396.624 72.1879ZM338.768 62.8992L338.872 62.9517L343.339 65.5308C343.818 65.807 343.982 66.4185 343.705 66.8968C343.449 67.341 342.903 67.514 342.444 67.3153L342.339 67.2629L337.872 64.6838C337.394 64.4076 337.23 63.796 337.506 63.3177C337.763 62.8736 338.308 62.7006 338.768 62.8992ZM351.12 51.2747L351.184 51.3723L353.763 55.8395C354.039 56.3178 353.875 56.9294 353.397 57.2055C352.953 57.4619 352.394 57.3389 352.095 56.9371L352.031 56.8395L349.452 52.3723C349.176 51.894 349.339 51.2824 349.818 51.0063C350.225 50.7712 350.729 50.855 351.04 51.1801L351.12 51.2747Z" fill="#1560BD"/>
</g>
</g>
</g>
<defs>
<clipPath id="clip0">
<rect width="405" height="31" fill="white" transform="translate(177 154.5)"/>
</clipPath>
</defs>
</svg>
