<?xml version="1.0" encoding="UTF-8"?>
<svg width="151px" height="160px" viewBox="0 0 151 160" version="1.1" xmlns="http://www.w3.org/2000/svg" xmlns:xlink="http://www.w3.org/1999/xlink">
    <title>icon 17</title>
    <defs>
        <text id="text-1" font-family="Helvetica" font-size="20" font-weight="normal" fill="#1560BD">
            <tspan x="16.2385336" y="27.38">1</tspan>
        </text>
        <filter x="-4.5%" y="-5.6%" width="108.9%" height="111.1%" filterUnits="objectBoundingBox" id="filter-2">
            <feOffset dx="0" dy="-1" in="SourceAlpha" result="shadowOffsetOuter1"></feOffset>
            <feColorMatrix values="0 0 0 0 1   0 0 0 0 1   0 0 0 0 1  0 0 0 0.5 0" type="matrix" in="shadowOffsetOuter1" result="shadowMatrixOuter1"></feColorMatrix>
            <feOffset dx="0" dy="1" in="SourceAlpha" result="shadowOffsetOuter2"></feOffset>
            <feColorMatrix values="0 0 0 0 0.082   0 0 0 0 0.376   0 0 0 0 0.741  0 0 0 0.5 0" type="matrix" in="shadowOffsetOuter2" result="shadowMatrixOuter2"></feColorMatrix>
            <feMerge>
                <feMergeNode in="shadowMatrixOuter1"></feMergeNode>
                <feMergeNode in="shadowMatrixOuter2"></feMergeNode>
            </feMerge>
        </filter>
    </defs>
    <g id="Illustration" stroke="none" stroke-width="1" fill="none" fill-rule="evenodd">
        <g id="icon-17" transform="translate(1.500000, 1.000000)">
            <g id="Group" fill="#4A90E2" fill-opacity="0.8" stroke="#1560BD" stroke-width="2">
                <g id="rings">
                    <ellipse id="Oval" opacity="0.015" cx="74" cy="79" rx="74" ry="79"></ellipse>
                    <ellipse id="Oval" opacity="0.04" cx="74.4654088" cy="79.5" rx="67.0188679" ry="71.5"></ellipse>
                    <ellipse id="Oval" opacity="0.07" cx="74.4654088" cy="79.5" rx="58.6415094" ry="62.5"></ellipse>
                    <ellipse id="Oval" opacity="0.13" cx="74.4654088" cy="79" rx="40.9559748" ry="44"></ellipse>
                    <ellipse id="Oval" opacity="0.1" cx="74.4654088" cy="79" rx="18.6163522" ry="20"></ellipse>
                </g>
            </g>
            <g id="Group-20" transform="translate(2.000000, 13.000000)">
                <line x1="32.7564103" y1="11" x2="114.179487" y2="11" id="Path-3" stroke="#1560BD" stroke-width="2"></line>
                <g id="Group-16" transform="translate(80.487179, 7.000000)">
                    <g id="Group-18" transform="translate(14.038462, 48.000000)">
                        <path d="M37.1067906,0 L37.1067906,37.3956044 L37.0874599,37.3957532 C36.8887389,39.4191175 35.1823822,41 33.1067906,41 L33.1067906,41 L4.84333615,41 C2.63419715,41 0.843336151,39.209139 0.843336151,37 L0.843336151,37 L0.843336151,36.9450549 L4.63833615,36.945 L4.63834883,0 L37.1067906,0 Z" id="Combined-Shape" stroke="#1560BD" stroke-width="2" fill="#FFFFFF"></path>
                        <path d="M0,17.1208791 L4.63834883,17.1208791 L4.63834883,38.6808256 C4.63834883,39.9616702 3.60001908,41 2.31917442,41 C1.03832975,41 6.37410717e-15,39.9616702 0,38.6808256 L0,17.1208791 L0,17.1208791 Z" id="Rectangle" stroke="#1560BD" stroke-width="2" fill="#D9E5F2"></path>
                        <path d="M0.421668076,38.5093626 L0.440935271,38.5277633 C0.86001576,38.9205947 1.40201569,39.1680912 1.99890464,39.1953111 L2.09936134,39.1977 L35.4201183,39.1978022 L35.5146368,39.1954612 L35.6102389,39.1881876 C35.9902006,39.1502241 36.340082,39.0066126 36.6340736,38.7853679 L36.6851226,38.7454505 L36.6851226,39.1978022 C36.6851226,39.9191116 36.1548455,40.512535 35.4835993,40.5477882 L35.4097819,40.5495859 L2.10834038,40.5494505 C1.17681699,40.5494505 0.421668076,39.7425791 0.421668076,38.7472527 L0.421668076,38.5093626 Z" id="Combined-Shape" fill="#1560BD" fill-rule="nonzero" opacity="0.119999997"></path>
                    </g>
                    <g id="Group-70" opacity="0.600000024" transform="translate(23.397436, 54.000000)" stroke="#4A90E2" stroke-linecap="round" stroke-linejoin="round" stroke-width="2">
                        <line x1="0.512852888" y1="0.00271986166" x2="0.512852888" y2="7.1291771" id="Path-59"></line>
                        <line x1="13.5906015" y1="0" x2="13.5906015" y2="7.12645724" id="Path-59"></line>
                        <line x1="17.6934246" y1="0" x2="17.6934246" y2="7.12645724" id="Path-59"></line>
                        <line x1="22.0526742" y1="0" x2="22.0526742" y2="7.12645724" id="Path-59"></line>
                        <line x1="0.512852888" y1="11.5102956" x2="0.512852888" y2="18.6367529" id="Path-59"></line>
                        <line x1="5.12852888" y1="11.5102956" x2="5.12852888" y2="18.6367529" id="Path-59"></line>
                        <line x1="9.23135198" y1="11.5102956" x2="9.23135198" y2="18.6367529" id="Path-59"></line>
                        <rect id="Rectangle" x="4.35924955" y="0.00271986166" width="5.12852888" height="7.12373737" rx="2.56426444"></rect>
                        <line x1="22.5655271" y1="11.5102956" x2="22.5655271" y2="18.6367529" id="Path-59"></line>
                        <rect id="Rectangle" x="13.0777486" y="11.5102956" width="5.12852888" height="7.12373737" rx="2.56426444"></rect>
                        <line x1="9.48777843" y1="23.0205912" x2="9.48777843" y2="30.1470485" id="Path-59"></line>
                        <line x1="13.5906015" y1="23.0178714" x2="13.5906015" y2="30.1443286" id="Path-59"></line>
                        <rect id="Rectangle" x="0.256426444" y="23.0205912" width="5.12852888" height="7.12373737" rx="2.56426444"></rect>
                        <rect id="Rectangle" x="17.6934246" y="23.0205912" width="5.12852888" height="7.12373737" rx="2.56426444"></rect>
                    </g>
                    <path d="M64.8595514,81.0008861 C60.3505224,95.5240935 47.5350437,106 32.4296307,106 C17.3242177,106 4.50873894,95.5240935 -0.000290065039,81.0008861 Z" id="Combined-Shape" stroke="#1560BD" stroke-width="2" fill="#C8DDF6" stroke-linejoin="round"></path>
                    <path d="M63.5351179,82 L56.7582845,82 L56.7207436,82.1664017 C54.7697424,90.4139922 50.9946087,97.2493881 46.1618962,101.646491 L45.8230239,101.949296 L45.7090794,102.047 L46.0306645,101.895993 C53.7474888,98.1916082 59.9628597,91.4130085 63.211365,82.8867459 L63.3920642,82.4022697 L63.5351179,82 Z" id="Combined-Shape" fill="#1560BD" fill-rule="nonzero" opacity="0.200000003"></path>
                    <path d="M63.5332461,82 L63.4693997,82.1878065 C63.0250495,83.4281181 62.5157181,84.6398068 61.9441036,85.8177208 L61.8523743,86 L3.0059512,86 L2.91515776,85.8177208 C2.34354325,84.6398068 1.83421188,83.4281181 1.38986166,82.1878065 L1.32507941,82 L63.5332461,82 Z" id="Combined-Shape" fill="#ECF5FF" fill-rule="nonzero"></path>
                    <path d="M18.8910072,82.0010605 L10.4360409,82 L10.4778782,82.1477922 C13.5935822,93.0970035 20.3112631,101.353143 28.4556642,104.725682 L28.8710053,104.892948 L29.1539897,105 L28.9922455,104.850689 C24.3978976,100.52189 20.8104477,92.6405498 19.022264,82.7531097 L18.8910072,82.0010605 Z" id="Combined-Shape" fill="#FFFFFF" fill-rule="nonzero"></path>
                    <polyline id="Path-2" stroke="#1560BD" stroke-width="2" points="-2.06148489e-13 81.7279221 33.3655281 3.72792206 64.8592614 81.7279221"></polyline>
                    <ellipse id="Oval" stroke="#1560BD" stroke-width="2" fill="#FFFFFF" cx="33.3655281" cy="3.5" rx="4.27564103" ry="4.5"></ellipse>
                </g>
                <g id="Group-19" transform="translate(0.000000, 7.000000)">
                    <g id="Group-81" transform="translate(10.436041, 48.000000)">
                        <ellipse id="Oval" stroke="#1560BD" stroke-width="2" fill="#A1CBFF" cx="21.525641" cy="23" rx="21.525641" ry="23"></ellipse>
                        <ellipse id="Oval" fill="#B6D5F9" cx="21.525641" cy="23" rx="16.8461538" ry="18"></ellipse>
                        <path d="M39.9651229,13.1981648 L12.3521286,42.7024601 C10.9441677,41.9537979 9.59973678,41.02217 8.34988824,39.9075762 L37.3493982,8.92179839 C38.3925437,10.257253 39.2644519,11.6937682 39.9651229,13.1981648 Z M33.9657537,5.46619455 L5.11579747,36.2921752 C-1.01792666,27.6695237 -0.401027914,15.3157972 6.96649371,7.44365081 C14.2441675,-0.332493794 25.6144644,-1.07049806 33.6689688,5.22963801 L33.9657537,5.46619455 Z" id="Shape" fill="#FFFFFF" fill-rule="nonzero" opacity="0.300000012"></path>
                        <path d="M21.525641,40 C22.0425229,40 22.4615385,40.4477153 22.4615385,41 C22.4615385,41.5522847 22.0425229,42 21.525641,42 C21.0087591,42 20.5897436,41.5522847 20.5897436,41 C20.5897436,40.4477153 21.0087591,40 21.525641,40 Z M27.0883913,40.1444368 C27.2313332,40.6779029 26.9424724,41.2188118 26.4432029,41.3525907 C25.9439333,41.4863696 25.4233181,41.1623591 25.2803763,40.628893 C25.1374345,40.0954269 25.4262952,39.5545179 25.9255648,39.420739 C26.4248344,39.2869602 26.9454495,39.6109707 27.0883913,40.1444368 Z M17.1257173,39.420739 C17.6249868,39.5545179 17.9138475,40.0954269 17.7709057,40.628893 C17.6279639,41.1623591 17.1073487,41.4863696 16.6080792,41.3525907 C16.1088096,41.2188118 15.8199489,40.6779029 15.9628907,40.1444368 C16.1058325,39.6109707 16.6264477,39.2869602 17.1257173,39.420739 Z M31.336152,38.1205086 C31.6122944,38.5988012 31.4732739,39.1960417 31.025641,39.4544827 C30.5780082,39.7129236 29.9912724,39.5346986 29.7151301,39.056406 C29.4389877,38.5781134 29.5780082,37.9808728 30.025641,37.7224319 C30.4732739,37.4639909 31.0600096,37.6422159 31.336152,38.1205086 Z M13.025641,37.7224319 C13.4732739,37.9808728 13.6122944,38.5781134 13.336152,39.056406 C13.0600096,39.5346986 12.4732739,39.7129236 12.025641,39.4544827 C11.5780082,39.1960417 11.4389877,38.5988012 11.7151301,38.1205086 C11.9912724,37.6422159 12.5780082,37.4639909 13.025641,37.7224319 Z M34.9153425,35.0661426 C35.3058668,35.4566669 35.3261606,36.0695382 34.9606699,36.4350288 C34.5951792,36.8005195 33.982308,36.7802258 33.5917837,36.3897015 C33.2012594,35.9991772 33.1809656,35.386306 33.5464563,35.0208153 C33.911947,34.6553246 34.5248182,34.6756183 34.9153425,35.0661426 Z M9.50482575,35.0208153 C9.87031643,35.386306 9.85002268,35.9991772 9.45949839,36.3897015 C9.0689741,36.7802258 8.45610287,36.8005195 8.09061218,36.4350288 C7.7251215,36.0695382 7.74541525,35.4566669 8.13593954,35.0661426 C8.52646383,34.6756183 9.13933506,34.6553246 9.50482575,35.0208153 Z M6.80320916,31.5 C7.0616501,31.9476328 6.8834251,32.5343686 6.40513248,32.810511 C5.92683985,33.0866533 5.32959929,32.9476328 5.07115835,32.5 C4.81271741,32.0523672 4.99094242,31.4656314 5.46923504,31.189489 C5.94752766,30.9133467 6.54476822,31.0523672 6.80320916,31.5 Z M37.582047,31.189489 C38.0603396,31.4656314 38.2385646,32.0523672 37.9801237,32.5 C37.7216828,32.9476328 37.1244422,33.0866533 36.6461496,32.810511 C36.167857,32.5343686 35.9896319,31.9476328 36.2480729,31.5 C36.5065138,31.0523672 37.1037544,30.9133467 37.582047,31.189489 Z M5.10490198,27.3999238 C5.23868085,27.8991933 4.91467034,28.4198085 4.38120423,28.5627503 C3.84773813,28.7056921 3.3068292,28.4168314 3.17305033,27.9175619 C3.03927145,27.4182923 3.36328197,26.8976771 3.89674807,26.7547353 C4.43021418,26.6117935 4.9711231,26.9006542 5.10490198,27.3999238 Z M39.154534,26.7547353 C39.6880001,26.8976771 40.0120106,27.4182923 39.8782317,27.9175619 C39.7444529,28.4168314 39.2035439,28.7056921 38.6700778,28.5627503 C38.1366117,28.4198085 37.8126012,27.8991933 37.9463801,27.3999238 C38.0801589,26.9006542 38.6210679,26.6117935 39.154534,26.7547353 Z M3.52564103,22.0641026 C4.07792578,22.0641026 4.52564103,22.4831181 4.52564103,23 C4.52564103,23.5168819 4.07792578,23.9358974 3.52564103,23.9358974 C2.97335628,23.9358974 2.52564103,23.5168819 2.52564103,23 C2.52564103,22.4831181 2.97335628,22.0641026 3.52564103,22.0641026 Z M39.525641,22.0641026 C40.0779258,22.0641026 40.525641,22.4831181 40.525641,23 C40.525641,23.5168819 40.0779258,23.9358974 39.525641,23.9358974 C38.9733563,23.9358974 38.525641,23.5168819 38.525641,23 C38.525641,22.4831181 38.9733563,22.0641026 39.525641,22.0641026 Z M39.8782317,18.0824381 C40.0120106,18.5817077 39.6880001,19.1023229 39.154534,19.2452647 C38.6210679,19.3882065 38.0801589,19.0993458 37.9463801,18.6000762 C37.8126012,18.1008067 38.1366117,17.5801915 38.6700778,17.4372497 C39.2035439,17.2943079 39.7444529,17.5831686 39.8782317,18.0824381 Z M4.38120423,17.4372497 C4.91467034,17.5801915 5.23868085,18.1008067 5.10490198,18.6000762 C4.9711231,19.0993458 4.43021418,19.3882065 3.89674807,19.2452647 C3.36328197,19.1023229 3.03927145,18.5817077 3.17305033,18.0824381 C3.3068292,17.5831686 3.84773813,17.2943079 4.38120423,17.4372497 Z M37.9801237,13.5 C38.2385646,13.9476328 38.0603396,14.5343686 37.582047,14.810511 C37.1037544,15.0866533 36.5065138,14.9476328 36.2480729,14.5 C35.9896319,14.0523672 36.167857,13.4656314 36.6461496,13.189489 C37.1244422,12.9133467 37.7216828,13.0523672 37.9801237,13.5 Z M6.40513248,13.189489 C6.8834251,13.4656314 7.0616501,14.0523672 6.80320916,14.5 C6.54476822,14.9476328 5.94752766,15.0866533 5.46923504,14.810511 C4.99094242,14.5343686 4.81271741,13.9476328 5.07115835,13.5 C5.32959929,13.0523672 5.92683985,12.9133467 6.40513248,13.189489 Z M34.9606699,9.56497116 C35.3261606,9.93046184 35.3058668,10.5433331 34.9153425,10.9338574 C34.5248182,11.3243817 33.911947,11.3446754 33.5464563,10.9791847 C33.1809656,10.613694 33.2012594,10.0008228 33.5917837,9.61029852 C33.982308,9.21977422 34.5951792,9.19948047 34.9606699,9.56497116 Z M9.45949839,9.61029852 C9.85002268,10.0008228 9.87031643,10.613694 9.50482575,10.9791847 C9.13933506,11.3446754 8.52646383,11.3243817 8.13593954,10.9338574 C7.74541525,10.5433331 7.7251215,9.93046184 8.09061218,9.56497116 C8.45610287,9.19948047 9.0689741,9.21977422 9.45949839,9.61029852 Z M13.336152,6.94359401 C13.6122944,7.42188664 13.4732739,8.0191272 13.025641,8.27756814 C12.5780082,8.53600908 11.9912724,8.35778407 11.7151301,7.87949145 C11.4389877,7.40119883 11.5780082,6.80395827 12.025641,6.54551733 C12.4732739,6.28707639 13.0600096,6.46530139 13.336152,6.94359401 Z M31.025641,6.54551733 C31.4732739,6.80395827 31.6122944,7.40119883 31.336152,7.87949145 C31.0600096,8.35778407 30.4732739,8.53600908 30.025641,8.27756814 C29.5780082,8.0191272 29.4389877,7.42188664 29.7151301,6.94359401 C29.9912724,6.46530139 30.5780082,6.28707639 31.025641,6.54551733 Z M17.7709057,5.37110705 C17.9138475,5.90457315 17.6249868,6.44548208 17.1257173,6.57926095 C16.6264477,6.71303983 16.1058325,6.38902931 15.9628907,5.85556321 C15.8199489,5.3220971 16.1088096,4.78118818 16.6080792,4.6474093 C17.1073487,4.51363043 17.6279639,4.83764094 17.7709057,5.37110705 Z M26.4432029,4.6474093 C26.9424724,4.78118818 27.2313332,5.3220971 27.0883913,5.85556321 C26.9454495,6.38902931 26.4248344,6.71303983 25.9255648,6.57926095 C25.4262952,6.44548208 25.1374345,5.90457315 25.2803763,5.37110705 C25.4233181,4.83764094 25.9439333,4.51363043 26.4432029,4.6474093 Z M21.525641,4 C22.0425229,4 22.4615385,4.44771525 22.4615385,5 C22.4615385,5.55228475 22.0425229,6 21.525641,6 C21.0087591,6 20.5897436,5.55228475 20.5897436,5 C20.5897436,4.44771525 21.0087591,4 21.525641,4 Z" id="Combined-Shape" fill="#1560BD"></path>
                        <path d="M21.525641,1 C32.8970424,1 42.1153846,10.8497355 42.1153846,23 C42.1153846,23.3348896 42.1083816,23.6680315 42.0945235,23.9992676 C41.6050771,12.3137243 32.5833051,3 21.525641,3 C10.4676619,3 1.445691,12.3142549 0.956758521,24.0007324 C0.942914527,23.6687011 0.935897436,23.3352261 0.935897436,23 C0.935897436,10.8497355 10.1542396,1 21.525641,1 Z" id="Combined-Shape" fill="#FFFFFF" fill-rule="nonzero" opacity="0.5"></path>
                        <path d="M42.1153846,23 C42.1153846,35.1502645 32.8970424,45 21.525641,45 C10.1542396,45 0.935897436,35.1502645 0.935897436,23 C0.935897436,22.6648552 0.942911122,22.3314607 0.956790218,21.999975 C1.44659621,33.6866796 10.4682167,43 21.525641,43 C32.5833813,43 41.6052013,33.6861475 42.0944918,22.000025 C42.1083568,22.3307893 42.1153846,22.6645177 42.1153846,23 Z" id="Combined-Shape" fill="#1560BD" fill-rule="nonzero" opacity="0.5"></path>
                        <g id="1" fill="#1560BD" fill-opacity="1">
                            <use filter="url(#filter-2)" xlink:href="#text-1"></use>
                            <use xlink:href="#text-1"></use>
                        </g>
                    </g>
                    <path d="M64.8595514,81.0008861 C60.3505224,95.5240935 47.5350437,106 32.4296307,106 C17.3242177,106 4.50873894,95.5240935 -0.000290065039,81.0008861 Z" id="Combined-Shape" stroke="#1560BD" stroke-width="2" fill="#C8DDF6" stroke-linejoin="round"></path>
                    <path d="M63.5351179,82 L56.7582845,82 L56.7207436,82.1664017 C54.7697424,90.4139922 50.9946087,97.2493881 46.1618962,101.646491 L45.8230239,101.949296 L45.7090794,102.047 L46.0306645,101.895993 C53.7474888,98.1916082 59.9628597,91.4130085 63.211365,82.8867459 L63.3920642,82.4022697 L63.5351179,82 Z" id="Combined-Shape" fill="#1560BD" fill-rule="nonzero" opacity="0.200000003"></path>
                    <path d="M63.5332461,82 L63.4693997,82.1878065 C63.0250495,83.4281181 62.5157181,84.6398068 61.9441036,85.8177208 L61.8523743,86 L3.0059512,86 L2.91515776,85.8177208 C2.34354325,84.6398068 1.83421188,83.4281181 1.38986166,82.1878065 L1.32507941,82 L63.5332461,82 Z" id="Combined-Shape" fill="#ECF5FF" fill-rule="nonzero"></path>
                    <path d="M18.8910072,82.0010605 L10.4360409,82 L10.4778782,82.1477922 C13.5935822,93.0970035 20.3112631,101.353143 28.4556642,104.725682 L28.8710053,104.892948 L29.1539897,105 L28.9922455,104.850689 C24.3978976,100.52189 20.8104477,92.6405498 19.022264,82.7531097 L18.8910072,82.0010605 Z" id="Combined-Shape" fill="#FFFFFF" fill-rule="nonzero"></path>
                    <polyline id="Path-2" stroke="#1560BD" stroke-width="2" points="-2.06148489e-13 81.7279221 33.3655281 3.72792206 64.8592614 81.7279221"></polyline>
                    <ellipse id="Oval" stroke="#1560BD" stroke-width="2" fill="#FFFFFF" cx="33.3655281" cy="3.5" rx="4.27564103" ry="4.5"></ellipse>
                </g>
                <ellipse id="Oval" stroke="#1560BD" stroke-width="2" fill="#D4E4F6" cx="73.4679487" cy="10.5" rx="10.8269231" ry="11.5"></ellipse>
            </g>
        </g>
    </g>
</svg>