<?xml version="1.0" encoding="UTF-8"?>
<svg width="241px" height="177px" viewBox="0 0 241 177" version="1.1" xmlns="http://www.w3.org/2000/svg" xmlns:xlink="http://www.w3.org/1999/xlink">
    <title>icon 26</title>
    <defs>
        <filter x="-98.0%" y="-100.0%" width="296.6%" height="300.0%" filterUnits="objectBoundingBox" id="filter-1">
            <feOffset dx="0" dy="10" in="SourceAlpha" result="shadowOffsetOuter1"></feOffset>
            <feGaussianBlur stdDeviation="5" in="shadowOffsetOuter1" result="shadowBlurOuter1"></feGaussianBlur>
            <feColorMatrix values="0 0 0 0 0   0 0 0 0 0   0 0 0 0 0  0 0 0 0.04 0" type="matrix" in="shadowBlurOuter1" result="shadowMatrixOuter1"></feColorMatrix>
            <feMerge>
                <feMergeNode in="shadowMatrixOuter1"></feMergeNode>
                <feMergeNode in="SourceGraphic"></feMergeNode>
            </feMerge>
        </filter>
        <filter x="-98.0%" y="-100.0%" width="296.6%" height="300.0%" filterUnits="objectBoundingBox" id="filter-2">
            <feOffset dx="0" dy="10" in="SourceAlpha" result="shadowOffsetOuter1"></feOffset>
            <feGaussianBlur stdDeviation="5" in="shadowOffsetOuter1" result="shadowBlurOuter1"></feGaussianBlur>
            <feColorMatrix values="0 0 0 0 0   0 0 0 0 0   0 0 0 0 0  0 0 0 0.04 0" type="matrix" in="shadowBlurOuter1" result="shadowMatrixOuter1"></feColorMatrix>
            <feMerge>
                <feMergeNode in="shadowMatrixOuter1"></feMergeNode>
                <feMergeNode in="SourceGraphic"></feMergeNode>
            </feMerge>
        </filter>
        <filter x="-98.0%" y="-100.0%" width="296.6%" height="300.0%" filterUnits="objectBoundingBox" id="filter-3">
            <feOffset dx="0" dy="10" in="SourceAlpha" result="shadowOffsetOuter1"></feOffset>
            <feGaussianBlur stdDeviation="5" in="shadowOffsetOuter1" result="shadowBlurOuter1"></feGaussianBlur>
            <feColorMatrix values="0 0 0 0 0   0 0 0 0 0   0 0 0 0 0  0 0 0 0.04 0" type="matrix" in="shadowBlurOuter1" result="shadowMatrixOuter1"></feColorMatrix>
            <feMerge>
                <feMergeNode in="shadowMatrixOuter1"></feMergeNode>
                <feMergeNode in="SourceGraphic"></feMergeNode>
            </feMerge>
        </filter>
    </defs>
    <g id="Illustration" stroke="none" stroke-width="1" fill="none" fill-rule="evenodd">
        <g id="icon-26" transform="translate(30.000000, 30.000000)">
            <path d="M30.4869788,24.8375666 L31.1389469,25.643015 C26.9913986,31.4757477 24.0163049,38.4425959 22.9461382,46.087745 C22.9078571,46.3612211 22.6551279,46.5518842 22.3816518,46.5136031 C22.1081757,46.475322 21.9175126,46.2225928 21.9557937,45.9491167 C23.062404,38.0436187 26.1627597,30.8448305 30.4869788,24.8375666 Z M71.1398569,8.47323285 C71.3976581,8.57219342 71.5264238,8.86140592 71.4274632,9.11920703 C71.3285026,9.37700815 71.0392901,9.50577385 70.781489,9.40681327 C63.5486387,6.63038216 55.358444,7.58018976 47.8054434,11.2639612 L47.1604974,10.4684048 C55.0075539,6.58413916 63.5632177,5.56483355 71.1398569,8.47323285 Z" id="Combined-Shape" fill="#1560BD" fill-rule="nonzero"></path>
            <polygon id="Path-51" fill="#1560BD" transform="translate(68.109571, 9.118780) rotate(-159.000000) translate(-68.109571, -9.118780) " points="63.1095708 10.6665102 71.9638337 6.11878004 71.8662299 9.26073979 73.1095708 12.11878"></polygon>
            <path d="M111.848107,88.2899981 C117.893124,94.127596 125.389035,97.5619064 133.125935,97.1564327 C133.401699,97.1419806 133.636965,97.3538156 133.651418,97.6295795 C133.66587,97.9053435 133.454035,98.1406101 133.178271,98.1550623 C125.073517,98.5798144 117.251397,94.9663661 110.988631,88.8470661 L111.848107,88.2899981 Z M98.4716781,46.9016833 L98.5615829,46.9094063 C98.8335036,46.9575075 99.0149452,47.2169365 98.9668439,47.4888573 C97.6221667,55.0904425 98.2987449,62.6355814 100.440829,69.4644437 L99.5720001,70.0294035 C97.3157253,62.9798523 96.5916358,55.1752702 97.9821319,47.3146673 C98.0248885,47.07296 98.2346202,46.9027424 98.4716781,46.9016833 L98.4716781,46.9016833 Z" id="Shape" fill="#1560BD" fill-rule="nonzero"></path>
            <polygon id="Path-51" fill="#1560BD" transform="translate(130.495782, 96.604700) scale(1, -1) rotate(-177.000000) translate(-130.495782, -96.604700) " points="125.495782 98.1524306 134.350045 93.6047005 134.252442 96.7466602 135.495782 99.6047005"></polygon>
            <g id="Group-24" transform="translate(53.818844, 44.749757) rotate(-40.000000) translate(-53.818844, -44.749757) translate(31.818844, 39.249757)">
                <line x1="43.1720291" y1="4.66370561" x2="8.43856649" y2="5.16377255" id="Path-50" stroke="#4A90E2" stroke-width="3" stroke-linecap="round"></line>
                <polygon id="Path-51" fill="#4A90E2" points="-2.27373675e-13 5.83057731 15.1226446 0 14.2104903 5.36843739 15.4910006 10.548337"></polygon>
            </g>
            <g id="Group-24" transform="translate(130.897673, 56.885723) rotate(-310.000000) translate(-130.897673, -56.885723) translate(106.897673, 51.385723)">
                <line x1="46.8795133" y1="5.63620768" x2="8.43856649" y2="5.16377255" id="Path-50" stroke="#4A90E2" stroke-width="3" stroke-linecap="round"></line>
                <polygon id="Path-51" fill="#4A90E2" points="-4.54747351e-13 5.83057731 15.1226446 0 14.2104903 5.36843739 15.4910006 10.548337"></polygon>
            </g>
            <g id="Sphere" filter="url(#filter-1)" transform="translate(0.000000, 55.000000)" stroke="#1560BD" stroke-linejoin="round" stroke-width="2">
                <polygon id="Path-17" fill="#FFFFFF" points="10.500907 10.6788525 20.0213137 19.7229224 25.9693425 7.99807532"></polygon>
                <polygon id="Path-18" fill="#E4F0FF" points="10.500907 10.6788525 16.5446555 0.0597306175 25.9693425 7.99807532"></polygon>
                <polygon id="Path-19" fill="#E4F0FF" points="8.66743623 25.6998469 10.500907 10.6788525 20.0213137 19.7229224"></polygon>
                <polygon id="Path-20" fill="#CCE1FA" points="10.500907 10.6788525 0.228152996 16.6490756 8.66743623 25.6998469"></polygon>
                <polygon id="Path-21" fill="#CCE1FA" points="16.5446555 0.0597306175 5.36452999 5.36929154 10.500907 10.6788525"></polygon>
                <polygon id="Path-22" fill="#B6D5F9" points="5.36452999 5.36929154 0.228152996 16.6490756 10.500907 10.6788525"></polygon>
                <polygon id="Path-27" fill="#CCE1FA" points="25.9693425 7.99807532 28.9695037 1.066408 16.5446555 0.0597306175"></polygon>
                <polygon id="Path-29" fill="#B6D5F9" points="25.9693425 7.99807532 37.7779311 10.6788525 28.9695037 1.066408"></polygon>
                <polygon id="Path-30" fill="#CCE1FA" points="33.0954043 21.4758536 25.9693425 7.99807532 37.7779311 10.6788525"></polygon>
                <polygon id="Path-31" fill="#A0CCFF" points="37.7779311 10.6788525 33.0954043 21.4758536 40.2637296 22.9098401"></polygon>
                <polygon id="Path-33" fill="#E4F0FF" points="25.9693425 7.99807532 20.0213137 19.7229224 33.0954043 21.4758536"></polygon>
                <polygon id="Path-34" fill="#A0CCFF" points="0.228152996 16.6490756 1.49922617 29.42212 8.66743623 25.6998469"></polygon>
                <polygon id="Path-36" fill="#4A90E2" points="8.66743623 25.6998469 10.9545927 37.376763 1.49922617 29.42212"></polygon>
                <polygon id="Path-38" fill="#CCE1FA" points="8.66743623 25.6998469 22.4283589 32.5726263 20.0213137 19.7229224"></polygon>
                <polygon id="Path-39" fill="#A0CCFF" points="8.66743623 25.6998469 10.9545927 37.376763 22.4283589 32.5726263"></polygon>
                <polygon id="Path-41" fill="#CCE1FA" points="20.0213137 19.7229224 33.0954043 21.4758536 22.4283589 32.5726263"></polygon>
                <polygon id="Path-42" fill="#4A90E2" points="33.0954043 21.4758536 33.8866785 33.3994415 40.2637296 22.9098401"></polygon>
                <polygon id="Path-44" fill="#A0CCFF" points="33.8866785 33.3994415 33.0954043 21.4758536 22.4283589 32.5726263"></polygon>
                <polygon id="Path-46" fill="#4A90E2" points="33.8866785 33.3994415 23.2330595 39.9298494 22.4283589 32.5726263"></polygon>
                <polygon id="Path-48" fill="#4A90E2" points="10.9545927 37.376763 23.2330595 39.9298494 22.4283589 32.5726263"></polygon>
            </g>
            <g id="Sphere" filter="url(#filter-2)" transform="translate(76.000000, 0.000000)" stroke="#1560BD" stroke-linejoin="round" stroke-width="2">
                <polygon id="Path-17" fill="#FFFFFF" points="10.500907 10.6788525 20.0213137 19.7229224 25.9693425 7.99807532"></polygon>
                <polygon id="Path-18" fill="#E4F0FF" points="10.500907 10.6788525 16.5446555 0.0597306175 25.9693425 7.99807532"></polygon>
                <polygon id="Path-19" fill="#E4F0FF" points="8.66743623 25.6998469 10.500907 10.6788525 20.0213137 19.7229224"></polygon>
                <polygon id="Path-20" fill="#CCE1FA" points="10.500907 10.6788525 0.228152996 16.6490756 8.66743623 25.6998469"></polygon>
                <polygon id="Path-21" fill="#CCE1FA" points="16.5446555 0.0597306175 5.36452999 5.36929154 10.500907 10.6788525"></polygon>
                <polygon id="Path-22" fill="#B6D5F9" points="5.36452999 5.36929154 0.228152996 16.6490756 10.500907 10.6788525"></polygon>
                <polygon id="Path-27" fill="#CCE1FA" points="25.9693425 7.99807532 28.9695037 1.066408 16.5446555 0.0597306175"></polygon>
                <polygon id="Path-29" fill="#B6D5F9" points="25.9693425 7.99807532 37.7779311 10.6788525 28.9695037 1.066408"></polygon>
                <polygon id="Path-30" fill="#CCE1FA" points="33.0954043 21.4758536 25.9693425 7.99807532 37.7779311 10.6788525"></polygon>
                <polygon id="Path-31" fill="#A0CCFF" points="37.7779311 10.6788525 33.0954043 21.4758536 40.2637296 22.9098401"></polygon>
                <polygon id="Path-33" fill="#E4F0FF" points="25.9693425 7.99807532 20.0213137 19.7229224 33.0954043 21.4758536"></polygon>
                <polygon id="Path-34" fill="#A0CCFF" points="0.228152996 16.6490756 1.49922617 29.42212 8.66743623 25.6998469"></polygon>
                <polygon id="Path-36" fill="#4A90E2" points="8.66743623 25.6998469 10.9545927 37.376763 1.49922617 29.42212"></polygon>
                <polygon id="Path-38" fill="#CCE1FA" points="8.66743623 25.6998469 22.4283589 32.5726263 20.0213137 19.7229224"></polygon>
                <polygon id="Path-39" fill="#A0CCFF" points="8.66743623 25.6998469 10.9545927 37.376763 22.4283589 32.5726263"></polygon>
                <polygon id="Path-41" fill="#CCE1FA" points="20.0213137 19.7229224 33.0954043 21.4758536 22.4283589 32.5726263"></polygon>
                <polygon id="Path-42" fill="#4A90E2" points="33.0954043 21.4758536 33.8866785 33.3994415 40.2637296 22.9098401"></polygon>
                <polygon id="Path-44" fill="#A0CCFF" points="33.8866785 33.3994415 33.0954043 21.4758536 22.4283589 32.5726263"></polygon>
                <polygon id="Path-46" fill="#4A90E2" points="33.8866785 33.3994415 23.2330595 39.9298494 22.4283589 32.5726263"></polygon>
                <polygon id="Path-48" fill="#4A90E2" points="10.9545927 37.376763 23.2330595 39.9298494 22.4283589 32.5726263"></polygon>
            </g>
            <g id="Sphere" filter="url(#filter-3)" transform="translate(140.000000, 77.000000)" stroke="#1560BD" stroke-linejoin="round" stroke-width="2">
                <polygon id="Path-17" fill="#FFFFFF" points="10.500907 10.6788525 20.0213137 19.7229224 25.9693425 7.99807532"></polygon>
                <polygon id="Path-18" fill="#E4F0FF" points="10.500907 10.6788525 16.5446555 0.0597306175 25.9693425 7.99807532"></polygon>
                <polygon id="Path-19" fill="#E4F0FF" points="8.66743623 25.6998469 10.500907 10.6788525 20.0213137 19.7229224"></polygon>
                <polygon id="Path-20" fill="#CCE1FA" points="10.500907 10.6788525 0.228152996 16.6490756 8.66743623 25.6998469"></polygon>
                <polygon id="Path-21" fill="#CCE1FA" points="16.5446555 0.0597306175 5.36452999 5.36929154 10.500907 10.6788525"></polygon>
                <polygon id="Path-22" fill="#B6D5F9" points="5.36452999 5.36929154 0.228152996 16.6490756 10.500907 10.6788525"></polygon>
                <polygon id="Path-27" fill="#CCE1FA" points="25.9693425 7.99807532 28.9695037 1.066408 16.5446555 0.0597306175"></polygon>
                <polygon id="Path-29" fill="#B6D5F9" points="25.9693425 7.99807532 37.7779311 10.6788525 28.9695037 1.066408"></polygon>
                <polygon id="Path-30" fill="#CCE1FA" points="33.0954043 21.4758536 25.9693425 7.99807532 37.7779311 10.6788525"></polygon>
                <polygon id="Path-31" fill="#A0CCFF" points="37.7779311 10.6788525 33.0954043 21.4758536 40.2637296 22.9098401"></polygon>
                <polygon id="Path-33" fill="#E4F0FF" points="25.9693425 7.99807532 20.0213137 19.7229224 33.0954043 21.4758536"></polygon>
                <polygon id="Path-34" fill="#A0CCFF" points="0.228152996 16.6490756 1.49922617 29.42212 8.66743623 25.6998469"></polygon>
                <polygon id="Path-36" fill="#4A90E2" points="8.66743623 25.6998469 10.9545927 37.376763 1.49922617 29.42212"></polygon>
                <polygon id="Path-38" fill="#CCE1FA" points="8.66743623 25.6998469 22.4283589 32.5726263 20.0213137 19.7229224"></polygon>
                <polygon id="Path-39" fill="#A0CCFF" points="8.66743623 25.6998469 10.9545927 37.376763 22.4283589 32.5726263"></polygon>
                <polygon id="Path-41" fill="#CCE1FA" points="20.0213137 19.7229224 33.0954043 21.4758536 22.4283589 32.5726263"></polygon>
                <polygon id="Path-42" fill="#4A90E2" points="33.0954043 21.4758536 33.8866785 33.3994415 40.2637296 22.9098401"></polygon>
                <polygon id="Path-44" fill="#A0CCFF" points="33.8866785 33.3994415 33.0954043 21.4758536 22.4283589 32.5726263"></polygon>
                <polygon id="Path-46" fill="#4A90E2" points="33.8866785 33.3994415 23.2330595 39.9298494 22.4283589 32.5726263"></polygon>
                <polygon id="Path-48" fill="#4A90E2" points="10.9545927 37.376763 23.2330595 39.9298494 22.4283589 32.5726263"></polygon>
            </g>
            <path d="M98.9160156,83.7304688 L98.9160156,78.3164062 L99.9707031,78.3164062 L99.9707031,77.484375 L98.9277344,77.484375 C98.9277344,76.8046875 98.9589844,76.3818359 99.0214844,76.2158203 C99.0839844,76.0498047 99.2753906,75.9667969 99.5957031,75.9667969 C99.6386719,75.9667969 99.6845703,75.9677734 99.7333984,75.9697266 C99.7822266,75.9716797 99.8613281,75.9765625 99.9707031,75.984375 L99.9707031,75.984375 L99.9707031,75.0234375 C99.8808594,75.015625 99.8007812,75.0097656 99.7304688,75.0058594 C99.6601562,75.0019531 99.5917969,75 99.5253906,75 C98.8222656,75 98.3476562,75.1796875 98.1015625,75.5390625 C97.9648438,75.7421875 97.8886719,76.0625 97.8730469,76.5 L97.8730469,76.5 L97.8730469,77.484375 L97,77.484375 L97,78.3164062 L97.8730469,78.3164062 L97.8730469,83.7304688 L98.9160156,83.7304688 Z M103.392578,83.953125 C103.712891,83.953125 104,83.921875 104.253906,83.859375 C104.726562,83.75 105.123047,83.5390625 105.443359,83.2265625 C105.634766,83.046875 105.807617,82.8154297 105.961914,82.5322266 C106.116211,82.2490234 106.207031,81.9921875 106.234375,81.7617188 L106.234375,81.7617188 L105.197266,81.7617188 C105.119141,82.0390625 104.986328,82.2832031 104.798828,82.4941406 C104.470703,82.8574219 104.03125,83.0390625 103.480469,83.0390625 C102.890625,83.0390625 102.455078,82.8466797 102.173828,82.4619141 C101.892578,82.0771484 101.742188,81.5664062 101.722656,80.9296875 L101.722656,80.9296875 L106.322266,80.9296875 C106.322266,80.296875 106.291016,79.8359375 106.228516,79.546875 C106.158203,79.125 106.017578,78.7558594 105.806641,78.4394531 C105.587891,78.1074219 105.269531,77.8369141 104.851562,77.6279297 C104.433594,77.4189453 104.001953,77.3144531 103.556641,77.3144531 C102.673828,77.3144531 101.958984,77.6289062 101.412109,78.2578125 C100.865234,78.8867188 100.591797,79.7050781 100.591797,80.7128906 C100.591797,81.7363281 100.863281,82.5322266 101.40625,83.1005859 C101.949219,83.6689453 102.611328,83.953125 103.392578,83.953125 Z M105.238281,80.0917969 L101.751953,80.0917969 C101.771484,79.5527344 101.945312,79.1083984 102.273438,78.7587891 C102.601562,78.4091797 103.007812,78.234375 103.492188,78.234375 C104.167969,78.234375 104.650391,78.4882812 104.939453,78.9960938 C105.095703,79.2695312 105.195312,79.6347656 105.238281,80.0917969 L105.238281,80.0917969 Z M110.066406,83.953125 C110.386719,83.953125 110.673828,83.921875 110.927734,83.859375 C111.400391,83.75 111.796875,83.5390625 112.117188,83.2265625 C112.308594,83.046875 112.481445,82.8154297 112.635742,82.5322266 C112.790039,82.2490234 112.880859,81.9921875 112.908203,81.7617188 L112.908203,81.7617188 L111.871094,81.7617188 C111.792969,82.0390625 111.660156,82.2832031 111.472656,82.4941406 C111.144531,82.8574219 110.705078,83.0390625 110.154297,83.0390625 C109.564453,83.0390625 109.128906,82.8466797 108.847656,82.4619141 C108.566406,82.0771484 108.416016,81.5664062 108.396484,80.9296875 L108.396484,80.9296875 L112.996094,80.9296875 C112.996094,80.296875 112.964844,79.8359375 112.902344,79.546875 C112.832031,79.125 112.691406,78.7558594 112.480469,78.4394531 C112.261719,78.1074219 111.943359,77.8369141 111.525391,77.6279297 C111.107422,77.4189453 110.675781,77.3144531 110.230469,77.3144531 C109.347656,77.3144531 108.632812,77.6289062 108.085938,78.2578125 C107.539062,78.8867188 107.265625,79.7050781 107.265625,80.7128906 C107.265625,81.7363281 107.537109,82.5322266 108.080078,83.1005859 C108.623047,83.6689453 109.285156,83.953125 110.066406,83.953125 Z M111.912109,80.0917969 L108.425781,80.0917969 C108.445312,79.5527344 108.619141,79.1083984 108.947266,78.7587891 C109.275391,78.4091797 109.681641,78.234375 110.166016,78.234375 C110.841797,78.234375 111.324219,78.4882812 111.613281,78.9960938 C111.769531,79.2695312 111.869141,79.6347656 111.912109,80.0917969 L111.912109,80.0917969 Z" id="fee" fill="#1560BD" fill-rule="nonzero"></path>
            <path d="M33.9160156,20.7304688 L33.9160156,15.3164062 L34.9707031,15.3164062 L34.9707031,14.484375 L33.9277344,14.484375 C33.9277344,13.8046875 33.9589844,13.3818359 34.0214844,13.2158203 C34.0839844,13.0498047 34.2753906,12.9667969 34.5957031,12.9667969 C34.6386719,12.9667969 34.6845703,12.9677734 34.7333984,12.9697266 C34.7822266,12.9716797 34.8613281,12.9765625 34.9707031,12.984375 L34.9707031,12.984375 L34.9707031,12.0234375 C34.8808594,12.015625 34.8007812,12.0097656 34.7304688,12.0058594 C34.6601562,12.0019531 34.5917969,12 34.5253906,12 C33.8222656,12 33.3476562,12.1796875 33.1015625,12.5390625 C32.9648438,12.7421875 32.8886719,13.0625 32.8730469,13.5 L32.8730469,13.5 L32.8730469,14.484375 L32,14.484375 L32,15.3164062 L32.8730469,15.3164062 L32.8730469,20.7304688 L33.9160156,20.7304688 Z M38.3925781,20.953125 C38.7128906,20.953125 39,20.921875 39.2539062,20.859375 C39.7265625,20.75 40.1230469,20.5390625 40.4433594,20.2265625 C40.6347656,20.046875 40.8076172,19.8154297 40.9619141,19.5322266 C41.1162109,19.2490234 41.2070312,18.9921875 41.234375,18.7617188 L41.234375,18.7617188 L40.1972656,18.7617188 C40.1191406,19.0390625 39.9863281,19.2832031 39.7988281,19.4941406 C39.4707031,19.8574219 39.03125,20.0390625 38.4804688,20.0390625 C37.890625,20.0390625 37.4550781,19.8466797 37.1738281,19.4619141 C36.8925781,19.0771484 36.7421875,18.5664062 36.7226562,17.9296875 L36.7226562,17.9296875 L41.3222656,17.9296875 C41.3222656,17.296875 41.2910156,16.8359375 41.2285156,16.546875 C41.1582031,16.125 41.0175781,15.7558594 40.8066406,15.4394531 C40.5878906,15.1074219 40.2695312,14.8369141 39.8515625,14.6279297 C39.4335938,14.4189453 39.0019531,14.3144531 38.5566406,14.3144531 C37.6738281,14.3144531 36.9589844,14.6289062 36.4121094,15.2578125 C35.8652344,15.8867188 35.5917969,16.7050781 35.5917969,17.7128906 C35.5917969,18.7363281 35.8632812,19.5322266 36.40625,20.1005859 C36.9492188,20.6689453 37.6113281,20.953125 38.3925781,20.953125 Z M40.2382812,17.0917969 L36.7519531,17.0917969 C36.7714844,16.5527344 36.9453125,16.1083984 37.2734375,15.7587891 C37.6015625,15.4091797 38.0078125,15.234375 38.4921875,15.234375 C39.1679688,15.234375 39.6503906,15.4882812 39.9394531,15.9960938 C40.0957031,16.2695312 40.1953125,16.6347656 40.2382812,17.0917969 L40.2382812,17.0917969 Z M45.0664062,20.953125 C45.3867188,20.953125 45.6738281,20.921875 45.9277344,20.859375 C46.4003906,20.75 46.796875,20.5390625 47.1171875,20.2265625 C47.3085938,20.046875 47.4814453,19.8154297 47.6357422,19.5322266 C47.7900391,19.2490234 47.8808594,18.9921875 47.9082031,18.7617188 L47.9082031,18.7617188 L46.8710938,18.7617188 C46.7929688,19.0390625 46.6601562,19.2832031 46.4726562,19.4941406 C46.1445312,19.8574219 45.7050781,20.0390625 45.1542969,20.0390625 C44.5644531,20.0390625 44.1289062,19.8466797 43.8476562,19.4619141 C43.5664062,19.0771484 43.4160156,18.5664062 43.3964844,17.9296875 L43.3964844,17.9296875 L47.9960938,17.9296875 C47.9960938,17.296875 47.9648438,16.8359375 47.9023438,16.546875 C47.8320312,16.125 47.6914062,15.7558594 47.4804688,15.4394531 C47.2617188,15.1074219 46.9433594,14.8369141 46.5253906,14.6279297 C46.1074219,14.4189453 45.6757812,14.3144531 45.2304688,14.3144531 C44.3476562,14.3144531 43.6328125,14.6289062 43.0859375,15.2578125 C42.5390625,15.8867188 42.265625,16.7050781 42.265625,17.7128906 C42.265625,18.7363281 42.5371094,19.5322266 43.0800781,20.1005859 C43.6230469,20.6689453 44.2851562,20.953125 45.0664062,20.953125 Z M46.9121094,17.0917969 L43.4257812,17.0917969 C43.4453125,16.5527344 43.6191406,16.1083984 43.9472656,15.7587891 C44.2753906,15.4091797 44.6816406,15.234375 45.1660156,15.234375 C45.8417969,15.234375 46.3242188,15.4882812 46.6132812,15.9960938 C46.7695312,16.2695312 46.8691406,16.6347656 46.9121094,17.0917969 L46.9121094,17.0917969 Z" id="fee" fill="#1560BD" fill-rule="nonzero"></path>
        </g>
    </g>
</svg>