<?xml version="1.0" encoding="UTF-8"?>
<svg width="160px" height="160px" viewBox="0 0 160 160" version="1.1" xmlns="http://www.w3.org/2000/svg" xmlns:xlink="http://www.w3.org/1999/xlink">
    <title>Group 42</title>
    <g id="Pages" stroke="none" stroke-width="1" fill="none" fill-rule="evenodd">
        <g id="Platform-–-Self-Sovereign-Identity-(Desktop)" transform="translate(-186.000000, -2691.000000)">
            <g id="Group-80" transform="translate(187.000000, 1881.000000)">
                <g id="Group-42" transform="translate(0.000000, 811.000000)">
                    <g id="Building-blocks" fill="#4A90E2" fill-opacity="0.8" opacity="0.400000006" stroke="#1560BD" stroke-width="2">
                        <g id="Rings">
                            <circle id="Oval" cx="79.106469" cy="79.106469" r="43.9716981"></circle>
                            <circle id="Oval" opacity="0.200000003" cx="79.106469" cy="79.106469" r="62.4973046"></circle>
                            <circle id="Oval" opacity="0.100000001" cx="79" cy="79" r="71.7601078"></circle>
                            <circle id="Oval" opacity="0.0399999991" cx="79" cy="79" r="79"></circle>
                            <circle id="Oval" cx="79.106469" cy="79.106469" r="19.6967655"></circle>
                        </g>
                    </g>
                    <g id="Group-11" opacity="0.5" transform="translate(71.000000, 32.000000)">
                        <path d="M27.8,1.13686838e-13 C27.9104569,1.13686838e-13 28.0104489,0.08954305 28.0233382,0.2 L28.5357276,4.58883104 C30.0828163,4.72449012 31.5847933,5.01326528 33.0256914,5.43954423 L35.1571933,1.619012 C35.2113715,1.52189562 35.3380187,1.47743388 35.4400676,1.51970393 L37.8421543,2.51468085 C37.9442033,2.5569509 38.0023171,2.67794314 37.9719553,2.78492459 L36.7942226,6.93244091 C38.1911965,7.63648899 39.5030498,8.47936044 40.7107076,9.4424041 L44.0197456,6.82592887 C44.1069646,6.75693815 44.240986,6.76432662 44.3190909,6.84243148 L46.1575685,8.68090911 C46.2356734,8.75901397 46.2430618,8.89303544 46.1740711,8.98025444 L43.6143463,12.2174681 C44.6185282,13.3667677 45.5037393,14.6184377 46.2513351,15.9542478 L50.114062,14.8215311 C50.2207744,14.7902368 50.3422692,14.8472926 50.3854281,14.9489688 L51.4013291,17.3422814 C51.4444881,17.4439576 51.4011332,17.5709879 51.3044933,17.6260115 L47.865793,19.58418 C48.3986676,21.1589309 48.7545267,22.8124969 48.9103232,24.5223431 L52.8,24.9766618 C52.9104569,24.9895511 53,25.0895431 53,25.2 L53,27.8 C53,27.9104569 52.9104569,28.0104489 52.8,28.0233382 L48.9103232,28.4776569 C48.7606111,30.120728 48.4261574,31.711829 47.9274131,33.2309633 L51.380988,35.1571933 C51.4781044,35.2113715 51.5225661,35.3380187 51.4802961,35.4400676 L50.4853191,37.8421543 C50.4430491,37.9442033 50.3220569,38.0023171 50.2150754,37.9719553 L46.3466005,36.873715 C45.5793208,38.2741956 44.6615217,39.5840257 43.6143463,40.7825319 L46.1740711,44.0197456 C46.2430618,44.1069646 46.2356734,44.240986 46.1575685,44.3190909 L44.3190909,46.1575685 C44.240986,46.2356734 44.1069646,46.2430618 44.0197456,46.1740711 L40.7107076,43.5575959 C39.552518,44.4811913 38.2984942,45.2942578 36.9654617,45.9803437 L38.1784689,50.114062 C38.2097632,50.2207744 38.1527074,50.3422692 38.0510312,50.3854281 L35.6577186,51.4013291 C35.5560424,51.4444881 35.4290121,51.4011332 35.3739885,51.3044933 L33.2105101,47.5049231 C31.7133804,47.9617153 30.1490835,48.2696991 28.5357276,48.411169 L28.0233382,52.8 C28.0125971,52.8920475 27.9413681,52.9695714 27.8540016,52.9928558 L27.8,53 L25.2,53 C25.1079525,53 25.0231725,52.9378173 24.9900102,52.8531679 L24.9766618,52.8 L24.4642724,48.411169 C22.9171837,48.2755099 21.4152067,47.9867347 19.9743086,47.5604558 L17.8428067,51.380988 C17.7976582,51.4619183 17.702184,51.5062829 17.6125574,51.4943612 L17.5599324,51.4802961 L15.1578457,50.4853191 C15.0728049,50.4500941 15.0182746,50.3602009 15.0200306,50.2693044 L15.0280447,50.2150754 L16.2057774,46.0675591 C14.8088035,45.363511 13.4969502,44.5206396 12.2892924,43.5575959 L8.98025444,46.1740711 C8.90757194,46.2315634 8.80238773,46.2360146 8.72414571,46.1907017 L8.68090911,46.1575685 L6.84243148,44.3190909 C6.7773441,44.2540035 6.76136532,44.1500851 6.79777223,44.0667797 L6.82592887,44.0197456 L9.3856537,40.7825319 C8.38147179,39.6332323 7.49626075,38.3815623 6.74866494,37.0457522 L2.88593802,38.1784689 C2.79701099,38.2045475 2.69781846,38.1692718 2.64224822,38.0979485 L2.61457185,38.0510312 L1.59867092,35.6577186 C1.56270511,35.5729885 1.58681835,35.4706513 1.651781,35.4070501 L1.69550669,35.3739885 L5.13420702,33.41582 C4.6013324,31.8410691 4.2454733,30.1875031 4.08967683,28.4776569 L0.2,28.0233382 C0.107952542,28.0125971 0.030428625,27.9413681 0.00714419329,27.8540016 L7.46069873e-13,27.8 L7.46069873e-13,25.2 C7.46069873e-13,25.1079525 0.0621826736,25.0231725 0.146832078,24.9900102 L0.2,24.9766618 L4.08967683,24.5223431 C4.23938894,22.879272 4.57384261,21.288171 5.07258685,19.7690367 L1.619012,17.8428067 C1.53808168,17.7976582 1.49371709,17.702184 1.50563879,17.6125574 L1.51970393,17.5599324 L2.51468085,15.1578457 C2.54990589,15.0728049 2.63979912,15.0182746 2.73069562,15.0200306 L2.78492459,15.0280447 L6.65339947,16.126285 C7.42067918,14.7258044 8.3384783,13.4159743 9.3856537,12.2174681 L6.82592887,8.98025444 C6.76843661,8.90757194 6.76398544,8.80238773 6.8092983,8.72414571 L6.84243148,8.68090911 L8.68090911,6.84243148 C8.7459965,6.7773441 8.84991486,6.76136532 8.93322029,6.79777223 L8.98025444,6.82592887 L12.2892924,9.4424041 C13.447482,8.51880872 14.7015058,7.70574219 16.0345383,7.01965627 L14.8215311,2.88593802 C14.7954525,2.79701099 14.8307282,2.69781846 14.9020515,2.64224822 L14.9489688,2.61457185 L17.3422814,1.59867092 C17.4270115,1.56270511 17.5293487,1.58681835 17.5929499,1.651781 L17.6260115,1.69550669 L19.7894899,5.49507689 C21.2866196,5.0382847 22.8509165,4.73030087 24.4642724,4.58883104 L24.9766618,0.2 C24.9895511,0.08954305 25.0895431,1.13686838e-13 25.2,1.13686838e-13 L27.8,1.13686838e-13 Z M26.5,23 C24.5670034,23 23,24.5670034 23,26.5 C23,28.4329966 24.5670034,30 26.5,30 C28.4329966,30 30,28.4329966 30,26.5 C30,24.5670034 28.4329966,23 26.5,23 Z" id="Combined-Shape" stroke="#1560BD" stroke-width="2" fill="#E5E5EA"></path>
                        <path d="M1.36,25.847 L1,25.889 L1,27.11 L1.06,27.117 L1.12620968,26.8033886 L1.19717308,26.4948636 L1.2718702,26.1874008 L1.36,25.847 Z M51.639,25.847 L51.7281298,26.1874008 L51.8028269,26.4948636 L51.8737903,26.8033886 L51.939,27.117 L52,27.11 L52,25.889 L51.639,25.847 Z M3.174,16.178 L2.707,17.304 L4.656,18.392 L4.84575586,18.1039142 C5.00752355,17.8608544 5.17306624,17.6209393 5.34228588,17.3842349 L5.59886078,17.0315945 L5.7,16.895 L3.174,16.178 Z M49.734,15.975 L47.17,16.726 L47.2683715,16.8540591 C47.4447236,17.0880502 47.6174107,17.3253675 47.7863321,17.5659435 L48.0368774,17.929243 L48.233,18.224 L50.21,17.097 L49.734,15.975 Z M27.11,1 L25.889,1 L25.3630692,5.51385564 L24.5516239,5.58500859 C23.2152508,5.70219072 21.9025942,5.93979344 20.6261261,6.293073 L20.0813204,6.45154696 L19.3162711,6.68497264 L17.098,2.789 L15.975,3.265 L17.2266825,7.53075879 L16.4921639,7.90880124 C15.4044137,8.46864515 14.368056,9.11883384 13.3943498,9.85123278 L12.9127698,10.2242454 L12.2919322,10.7193308 L8.9,8.037 L8.037,8.9 L10.494,12.007 L10.7332159,11.8216129 C14.9199106,8.62708222 20.0532746,6.72187288 25.5217272,6.51819766 L26.0519578,6.50381275 L26.5,6.5 C32.2053351,6.5 37.5909858,8.35304064 41.9757313,11.6027319 L42.383848,11.9114683 L42.505,12.007 L44.962,8.9 L44.099,8.037 L40.7080678,10.7193308 L40.0872302,10.2242454 C39.073083,9.41551637 37.9858748,8.69851333 36.8392004,8.08299392 L36.3441673,7.82544162 L35.6066558,7.45374993 L36.821,3.174 L35.695,2.707 L33.5091828,6.62542516 L32.7420031,6.39846078 C31.5489828,6.04551463 30.3230376,5.79436653 29.0744872,5.64891075 L28.4483761,5.58500859 L27.6369308,5.51385564 L27.11,1 Z" id="Combined-Shape" fill="#FFFFFF" fill-rule="nonzero"></path>
                        <path d="M26.5,14.5 C33.4035594,14.5 39,19.872583 39,26.5 C39,33.127417 33.4035594,38.5 26.5,38.5 C19.5964406,38.5 14,33.127417 14,26.5 C14,19.872583 19.5964406,14.5 26.5,14.5 Z M26.5,23 C24.5670034,23 23,24.5670034 23,26.5 C23,28.4329966 24.5670034,30 26.5,30 C28.4329966,30 30,28.4329966 30,26.5 C30,24.5670034 28.4329966,23 26.5,23 Z" id="Combined-Shape" stroke="#1560BD" stroke-width="2" fill-opacity="0.4" fill="#4A90E2" opacity="0.699999988"></path>
                    </g>
                    <g id="Group-43" transform="translate(60.000000, 71.000000)">
                        <rect id="Rectangle" stroke="#1560BD" stroke-width="2" fill="#D9E5F2" x="1" y="1" width="72" height="25" rx="5"></rect>
                        <path d="M1.44770008,20.5223091 L1.49339288,20.5631496 C2.48725633,21.4350436 3.77262737,21.9843651 5.18816955,22.04478 L5.42640599,22.0500824 L69,22.0503091 L69.2241536,22.0451133 L69.4508773,22.0289693 C70.3519692,21.9447089 71.1817247,21.6259616 71.8789356,21.1349061 L72,21.0463091 L72,22.0503091 C72,23.6512641 70.7424301,24.9683746 69.1505472,25.0466196 L68.9754867,25.0506096 L5.44770008,25.0503091 C3.23856108,25.0503091 1.44770008,23.2594481 1.44770008,21.0503091 L1.44770008,20.5223091 Z" id="Combined-Shape" fill="#1560BD" fill-rule="nonzero" opacity="0.119999997"></path>
                        <rect id="Rectangle" fill="#1560BD" x="63" y="11.5223091" width="3" height="3" rx="1.5"></rect>
                        <rect id="Rectangle" fill="#1560BD" x="58" y="11.5223091" width="3" height="3" rx="1.5"></rect>
                        <rect id="Rectangle" fill="#1560BD" x="53" y="11.5223091" width="3" height="3" rx="1.5"></rect>
                        <rect id="Rectangle" fill="#1560BD" x="48" y="11.5223091" width="3" height="3" rx="1.5"></rect>
                        <path d="M1.44770008,1.5223091 L1.49339288,1.56314958 C2.48725633,2.43504363 3.77262737,2.98436509 5.18816955,3.04478005 L5.42640599,3.05008235 L69,3.0503091 L69.2241536,3.04511329 L69.4508773,3.02896931 C70.3519692,2.94470888 71.1817247,2.62596156 71.8789356,2.13490609 L72,2.0463091 L72,3.0503091 C72,4.65126409 70.7424301,5.96837463 69.1505472,6.04661959 L68.9754867,6.05060959 L5.44770008,6.0503091 C3.23856108,6.0503091 1.44770008,4.2594481 1.44770008,2.0503091 L1.44770008,1.5223091 Z" id="Path" fill-opacity="0.3" fill="#FFFFFF" fill-rule="nonzero" transform="translate(36.723850, 3.786459) scale(1, -1) translate(-36.723850, -3.786459) "></path>
                        <rect id="Rectangle" stroke="#1560BD" stroke-width="2" fill="#D9E5F2" x="1" y="26.5223091" width="72" height="25" rx="5"></rect>
                        <path d="M1.44770008,46.0446182 L1.49339288,46.0854587 C2.48725633,46.9573527 3.77262737,47.5066742 5.18816955,47.5670891 L5.42640599,47.5723914 L69,47.5726182 L69.2241536,47.5674224 L69.4508773,47.5512784 C70.3519692,47.467018 71.1817247,47.1482707 71.8789356,46.6572152 L72,46.5686182 L72,47.5726182 C72,49.1735732 70.7424301,50.4906837 69.1505472,50.5689287 L68.9754867,50.5729187 L5.44770008,50.5726182 C3.23856108,50.5726182 1.44770008,48.7817572 1.44770008,46.5726182 L1.44770008,46.0446182 Z" id="Combined-Shape" fill="#1560BD" fill-rule="nonzero" opacity="0.119999997"></path>
                        <rect id="Rectangle" fill="#1560BD" x="63" y="37.0446182" width="3" height="3" rx="1.5"></rect>
                        <rect id="Rectangle" fill="#1560BD" x="58" y="37.0446182" width="3" height="3" rx="1.5"></rect>
                        <rect id="Rectangle" fill="#1560BD" x="53" y="37.0446182" width="3" height="3" rx="1.5"></rect>
                        <rect id="Rectangle" fill="#1560BD" x="48" y="37.0446182" width="3" height="3" rx="1.5"></rect>
                        <path d="M1.44770008,27.0446182 L1.49339288,27.0854587 C2.48725633,27.9573527 3.77262737,28.5066742 5.18816955,28.5670891 L5.42640599,28.5723914 L69,28.5726182 L69.2241536,28.5674224 L69.4508773,28.5512784 C70.3519692,28.467018 71.1817247,28.1482707 71.8789356,27.6572152 L72,27.5686182 L72,28.5726182 C72,30.1735732 70.7424301,31.4906837 69.1505472,31.5689287 L68.9754867,31.5729187 L5.44770008,31.5726182 C3.23856108,31.5726182 1.44770008,29.7817572 1.44770008,27.5726182 L1.44770008,27.0446182 Z" id="Path" fill-opacity="0.3" fill="#FFFFFF" fill-rule="nonzero" transform="translate(36.723850, 29.308768) scale(1, -1) translate(-36.723850, -29.308768) "></path>
                        <rect id="Rectangle" stroke="#1560BD" stroke-width="2" fill="#D9E5F2" x="1" y="52.5223091" width="72" height="25" rx="5"></rect>
                        <path d="M1.44770008,72.0446182 L1.49339288,72.0854587 C2.48725633,72.9573527 3.77262737,73.5066742 5.18816955,73.5670891 L5.42640599,73.5723914 L69,73.5726182 L69.2241536,73.5674224 L69.4508773,73.5512784 C70.3519692,73.467018 71.1817247,73.1482707 71.8789356,72.6572152 L72,72.5686182 L72,73.5726182 C72,75.1735732 70.7424301,76.4906837 69.1505472,76.5689287 L68.9754867,76.5729187 L5.44770008,76.5726182 C3.23856108,76.5726182 1.44770008,74.7817572 1.44770008,72.5726182 L1.44770008,72.0446182 Z" id="Combined-Shape" fill="#1560BD" fill-rule="nonzero" opacity="0.119999997"></path>
                        <rect id="Rectangle" fill="#1560BD" x="63" y="63.0446182" width="3" height="3" rx="1.5"></rect>
                        <rect id="Rectangle" fill="#1560BD" x="58" y="63.0446182" width="3" height="3" rx="1.5"></rect>
                        <rect id="Rectangle" fill="#1560BD" x="53" y="63.0446182" width="3" height="3" rx="1.5"></rect>
                        <rect id="Rectangle" fill="#1560BD" x="48" y="63.0446182" width="3" height="3" rx="1.5"></rect>
                        <path d="M1.44770008,53.0446182 L1.49339288,53.0854587 C2.48725633,53.9573527 3.77262737,54.5066742 5.18816955,54.5670891 L5.42640599,54.5723914 L69,54.5726182 L69.2241536,54.5674224 L69.4508773,54.5512784 C70.3519692,54.467018 71.1817247,54.1482707 71.8789356,53.6572152 L72,53.5686182 L72,54.5726182 C72,56.1735732 70.7424301,57.4906837 69.1505472,57.5689287 L68.9754867,57.5729187 L5.44770008,57.5726182 C3.23856108,57.5726182 1.44770008,55.7817572 1.44770008,53.5726182 L1.44770008,53.0446182 Z" id="Path" fill-opacity="0.3" fill="#FFFFFF" fill-rule="nonzero" transform="translate(36.723850, 55.308768) scale(1, -1) translate(-36.723850, -55.308768) "></path>
                    </g>
                    <path d="M99,144.477691 C99,146.68683 97.209139,148.477691 95,148.477691 L95,148.477691 L17,148.477691 C14.790861,148.477691 13,146.68683 13,144.477691 L13,144.477691 L13,139.477691 L22,139.477691 L22,57.4776909 L99,57.4776909 Z" id="Combined-Shape" stroke="#1560BD" stroke-width="2" fill="#FFFFFF"></path>
                    <path d="M11,95.4776909 L22,95.4776909 L22,143.477691 C22,146.239115 19.7614237,148.477691 17,148.477691 L16,148.477691 C13.2385763,148.477691 11,146.239115 11,143.477691 L11,95.4776909 L11,95.4776909 Z" id="Rectangle" stroke="#1560BD" stroke-width="2" fill="#D9E5F2"></path>
                    <rect id="Rectangle" fill="#E5E5EA" x="28" y="128.477691" width="3" height="3" rx="1.5"></rect>
                    <path d="M12,142.949691 L12.0456928,142.990531 C13.0395563,143.862425 14.3249273,144.411747 15.7404695,144.472162 L15.9787059,144.477464 L95,144.477691 L95.2241536,144.472495 L95.4508773,144.456351 C96.3519692,144.372091 97.1817247,144.053343 97.8789356,143.562288 L98,143.473691 L98,144.477691 C98,146.078646 96.7424301,147.395756 95.1505472,147.474001 L94.9754867,147.477991 L16,147.477691 C13.790861,147.477691 12,145.68683 12,143.477691 L12,142.949691 Z" id="Combined-Shape" fill="#1560BD" fill-rule="nonzero" opacity="0.119999997"></path>
                    <rect id="Rectangle" fill="#E5E5EA" x="28" y="133.477691" width="9" height="3" rx="1.5"></rect>
                    <rect id="Rectangle" fill="#E5E5EA" x="38" y="133.477691" width="6" height="3" rx="1.5"></rect>
                    <rect id="Rectangle" fill="#E5E5EA" x="74" y="76.4776909" width="18" height="3" rx="1.5"></rect>
                    <rect id="Rectangle" fill="#E5E5EA" x="74" y="106.477691" width="18" height="3" rx="1.5"></rect>
                    <rect id="Rectangle" fill="#E5E5EA" x="74" y="101.477691" width="6" height="3" rx="1.5"></rect>
                    <rect id="Rectangle" fill="#E5E5EA" x="81" y="101.477691" width="11" height="3" rx="1.5"></rect>
                    <rect id="Rectangle" fill="#E5E5EA" x="28" y="123.477691" width="9" height="3" rx="1.5"></rect>
                    <rect id="Rectangle" fill="#E5E5EA" x="51" y="123.477691" width="9" height="3" rx="1.5"></rect>
                    <rect id="Rectangle" fill="#E5E5EA" x="61" y="123.477691" width="8" height="3" rx="1.5"></rect>
                    <rect id="Rectangle" fill="#E5E5EA" x="51" y="128.477691" width="6" height="3" rx="1.5"></rect>
                    <rect id="Rectangle" fill="#E5E5EA" x="58" y="128.477691" width="11" height="3" rx="1.5"></rect>
                    <rect id="Rectangle" fill="#E5E5EA" x="51" y="133.477691" width="9" height="3" rx="1.5"></rect>
                    <rect id="Rectangle" fill="#E5E5EA" x="32" y="128.477691" width="9" height="3" rx="1.5"></rect>
                    <rect id="Rectangle" fill="#E5E5EA" x="42" y="128.477691" width="4" height="3" rx="1.5"></rect>
                    <rect id="Rectangle" fill="#E5E5EA" x="38" y="123.477691" width="8" height="3" rx="1.5"></rect>
                    <rect id="Rectangle" fill="#E5E5EA" x="74" y="81.4776909" width="6" height="3" rx="1.5"></rect>
                    <rect id="Rectangle" fill="#E5E5EA" x="81" y="81.4776909" width="11" height="3" rx="1.5"></rect>
                    <rect id="Rectangle" fill="#E5E5EA" x="74" y="86.4776909" width="9" height="3" rx="1.5"></rect>
                    <rect id="Rectangle" fill="#E5E5EA" x="84" y="86.4776909" width="8" height="3" rx="1.5"></rect>
                    <rect id="Rectangle" fill="#E5E5EA" x="74" y="91.4776909" width="5" height="3" rx="1.5"></rect>
                    <rect id="Rectangle" fill="#E5E5EA" x="78" y="96.4776909" width="9" height="3" rx="1.5"></rect>
                    <rect id="Rectangle" fill="#E5E5EA" x="88" y="96.4776909" width="4" height="3" rx="1.5"></rect>
                    <rect id="Rectangle" fill="#E5E5EA" x="80" y="91.4776909" width="12" height="3" rx="1.5"></rect>
                    <rect id="Rectangle" fill="#E5E5EA" x="74" y="96.4776909" width="3" height="3" rx="1.5"></rect>
                    <rect id="Rectangle" stroke="#1560BD" stroke-width="2" fill-opacity="0.12" fill="#4A90E2" x="75" y="115.477691" width="16" height="20" rx="1"></rect>
                    <rect id="Rectangle" fill="#94BDED" x="23" y="58.4776909" width="75" height="9"></rect>
                    <rect id="Rectangle" fill="#1560BD" x="37" y="61.4776909" width="24" height="3" rx="1.5"></rect>
                    <rect id="Rectangle" fill="#1560BD" x="27" y="61.4776909" width="7" height="3" rx="1.5"></rect>
                    <line x1="4.09344968" y1="148.477691" x2="105.5" y2="148.477691" id="Path-4" stroke="#1560BD" stroke-width="2" opacity="0.200000003" stroke-linecap="round"></line>
                    <line x1="0" y1="148.477691" x2="1" y2="148.477691" id="Path-4" stroke="#1560BD" stroke-width="2" opacity="0.200000003" stroke-linecap="round"></line>
                    <line x1="109" y1="148.477691" x2="112" y2="148.477691" id="Path-4" stroke="#1560BD" stroke-width="2" opacity="0.200000003" stroke-linecap="round"></line>
                    <g id="Ei-sc-github" transform="translate(28.000000, 77.000000)" fill="#1560BD">
                        <path d="M20,0 C8.93333333,0 0,8.93333333 0,20 C0,28.8 5.73333333,36.2666667 13.7333333,38.9333333 C14.8,39.0666667 15.0666667,38.5333333 15.0666667,38 L15.0666667,34.5333333 C9.46666667,35.7333333 8.26666667,31.8666667 8.26666667,31.8666667 C7.33333333,29.6 6,28.9333333 6,28.9333333 C4.13333333,27.7333333 6.13333333,27.7333333 6.13333333,27.7333333 C8.13333333,27.8666667 9.2,29.7333333 9.2,29.7333333 C10.9333333,32.8 13.8666667,31.8666667 15.0666667,31.3333333 C15.2,30 15.7333333,29.2 16.4,28.6666667 C12,28.1333333 7.33333333,26.4 7.33333333,18.8 C7.33333333,16.6666667 8.13333333,14.8 9.33333333,13.4666667 C9.06666667,12.9333333 8.4,10.9333333 9.46666667,8.13333333 C9.46666667,8.13333333 11.2,7.6 14.9333333,10.1333333 C16.5333333,9.73333333 18.2666667,9.46666667 20,9.46666667 C21.7333333,9.46666667 23.4666667,9.73333333 25.0666667,10.1333333 C28.9333333,7.6 30.5333333,8.13333333 30.5333333,8.13333333 C31.6,10.9333333 30.9333333,12.9333333 30.6666667,13.4666667 C32,14.8 32.6666667,16.6666667 32.6666667,18.8 C32.6666667,26.5333333 28,28.1333333 23.6,28.6666667 C24.2666667,29.3333333 24.9333333,30.5333333 24.9333333,32.4 L24.9333333,37.8666667 C24.9333333,38.4 25.3333333,39.0666667 26.2666667,38.8 C34.2666667,36.1333333 39.8666667,28.6666667 39.8666667,19.8666667 C40,8.93333333 31.0666667,0 20,0 Z" id="Path"></path>
                    </g>
                </g>
            </g>
        </g>
    </g>
</svg>