<svg width="48" height="48" viewBox="0 0 48 48" fill="none" xmlns="http://www.w3.org/2000/svg">
<g id="Social / Icon / Discord">
<path id="Oval" fill-rule="evenodd" clip-rule="evenodd" d="M24 48C37.2548 48 48 37.2548 48 24C48 10.7452 37.2548 0 24 0C10.7452 0 0 10.7452 0 24C0 37.2548 10.7452 48 24 48Z" fill="#E5E5EA"/>
<path id="Combined Shape" fill-rule="evenodd" clip-rule="evenodd" d="M30.6455 34.7287H14.01C12.3487 34.7287 11 33.4862 11 31.84V12.8933C11 11.3323 12.351 10.0035 14.0158 10.0035L33.5773 10C35.2433 10 36.5873 11.3265 36.6667 12.8875V38L33.4933 35.3482L31.7515 33.7872L29.851 32.1562L30.6455 34.7287ZM21.5338 16.629C21.5338 16.629 19.5517 16.5543 17.4132 18.1107C17.4132 18.1107 15.2747 21.7787 15.2747 26.3007C15.2747 26.3007 16.46 28.3307 19.7103 28.4077C19.7103 28.4077 20.1852 27.7858 20.6647 27.2387C18.8388 26.6927 18.1283 25.6007 18.1283 25.6007L18.7385 25.911C18.8564 25.9589 18.9747 26.0075 19.0939 26.0565L19.0943 26.0567C20.7797 26.7499 22.6348 27.5129 25.777 27.003L25.8262 26.9921L25.8263 26.9921C26.5204 26.8383 27.2156 26.6843 27.9097 26.3788C28.037 26.3145 28.1724 26.2503 28.3149 26.1826L28.3152 26.1825L28.3152 26.1825L28.3153 26.1825L28.3154 26.1824C28.6899 26.0046 29.1132 25.8037 29.5652 25.519C29.5652 25.519 28.8535 26.611 26.9518 27.157C27.3438 27.7007 27.8945 28.3237 27.8945 28.3237C30.5586 28.2663 31.8881 26.8931 32.3207 26.4464C32.416 26.3479 32.4678 26.2944 32.4807 26.31C32.4807 21.795 30.3293 18.12 30.3293 18.12C28.4067 16.7142 26.61 16.6512 26.2705 16.65L26.0535 16.8635C28.5093 17.5635 29.6982 18.6567 29.6982 18.6567C26.1352 16.902 22.2863 16.8017 18.7618 18.1877C18.2077 18.4245 17.8903 18.5797 17.8903 18.5797C17.8903 18.5797 19.0768 17.4107 21.6937 16.7865L21.5338 16.629ZM26.526 24.8995C27.3555 24.8995 28.031 24.1995 28.031 23.3362C28.031 22.4787 27.359 21.7787 26.526 21.7787V21.7822C25.7 21.7822 25.0233 22.4798 25.021 23.3432C25.021 24.1995 25.6965 24.8995 26.526 24.8995ZM22.6433 23.3362C22.6433 24.1995 21.9678 24.8995 21.1383 24.8995C20.3088 24.8995 19.6333 24.1995 19.6333 23.3432C19.6333 22.4798 20.3088 21.7822 21.1383 21.7822L21.143 21.7787C21.9725 21.7787 22.6433 22.4787 22.6433 23.3362Z" fill="#797C80"/>
</g>
</svg>
