<svg width="48" height="48" viewBox="0 0 48 48" fill="none" xmlns="http://www.w3.org/2000/svg">
<g id="Social / Icon / Youtube">
<path id="Oval" fill-rule="evenodd" clip-rule="evenodd" d="M24 48C37.2548 48 48 37.2548 48 24C48 10.7452 37.2548 0 24 0C10.7452 0 0 10.7452 0 24C0 37.2548 10.7452 48 24 48Z" fill="#E5E5EA"/>
<path id="Shape" fill-rule="evenodd" clip-rule="evenodd" d="M37.4166 17.0929L37.3817 16.8647C37.7881 19.0712 38 21.3464 38 23.6717C38 23.766 38 23.8604 37.9988 23.9395C38 24.0257 38 24.1119 38 24.1969C38 26.521 37.7881 28.7962 37.4178 30.7734L37.412 30.7978C37.0801 31.9715 36.1672 32.896 34.9854 33.2384C32.7835 33.8311 24.0401 33.831 24.0401 33.831C24.0401 33.831 15.2711 33.8311 13.0948 33.2384L13.0704 33.2326C11.9118 32.896 11.0001 31.9715 10.6624 30.7734L10.6985 31.0039C9.84266 26.4523 9.84848 21.3441 10.6624 17.0929L10.6682 17.0685C11.0001 15.8947 11.913 14.9702 13.0936 14.6279C15.2943 14.0247 24.0389 14.0364 24.0389 14.0364C24.0389 14.0364 32.8056 14.0364 34.9842 14.6279L35.0087 14.6337C36.1672 14.9702 37.079 15.8947 37.4166 17.0929ZM21.2421 19.693V28.1849L28.5381 23.9454L21.2421 19.693Z" fill="#797C80"/>
</g>
</svg>
