<svg width="160" height="160" viewBox="0 0 160 160" fill="none" xmlns="http://www.w3.org/2000/svg">
<g id="Group 30">
<g id="Rings" opacity="0.4">
<path id="Oval" opacity="0.4" fill-rule="evenodd" clip-rule="evenodd" d="M80.1065 124.078C104.391 124.078 124.078 104.391 124.078 80.1065C124.078 55.8216 104.391 36.1348 80.1065 36.1348C55.8216 36.1348 36.1348 55.8216 36.1348 80.1065C36.1348 104.391 55.8216 124.078 80.1065 124.078Z" fill="#4A90E2" fill-opacity="0.8" stroke="#1560BD" stroke-width="2"/>
<path id="Oval_2" opacity="0.2" fill-rule="evenodd" clip-rule="evenodd" d="M80.1065 142.604C114.623 142.604 142.604 114.623 142.604 80.1065C142.604 45.5902 114.623 17.6092 80.1065 17.6092C45.5902 17.6092 17.6092 45.5902 17.6092 80.1065C17.6092 114.623 45.5902 142.604 80.1065 142.604Z" fill="#4A90E2" fill-opacity="0.8" stroke="#1560BD" stroke-width="2"/>
<path id="Oval_3" opacity="0.1" fill-rule="evenodd" clip-rule="evenodd" d="M80 151.76C119.632 151.76 151.76 119.632 151.76 80C151.76 40.368 119.632 8.2399 80 8.2399C40.368 8.2399 8.23989 40.368 8.23989 80C8.23989 119.632 40.368 151.76 80 151.76Z" fill="#4A90E2" fill-opacity="0.8" stroke="#1560BD" stroke-width="2"/>
<path id="Oval_4" opacity="0.04" fill-rule="evenodd" clip-rule="evenodd" d="M80 159C123.63 159 159 123.63 159 80C159 36.3695 123.63 1 80 1C36.3695 1 1 36.3695 1 80C1 123.63 36.3695 159 80 159Z" fill="#4A90E2" fill-opacity="0.8" stroke="#1560BD" stroke-width="2"/>
<path id="Oval_5" opacity="0.4" fill-rule="evenodd" clip-rule="evenodd" d="M80.1065 99.8032C90.9847 99.8032 99.8032 90.9847 99.8032 80.1065C99.8032 69.2282 90.9847 60.4097 80.1065 60.4097C69.2282 60.4097 60.4097 69.2282 60.4097 80.1065C60.4097 90.9847 69.2282 99.8032 80.1065 99.8032Z" fill="#4A90E2" fill-opacity="0.8" stroke="#1560BD" stroke-width="2"/>
</g>
<g id="Group 29" opacity="0.5">
<rect id="Rectangle" x="112" y="147.333" width="7.08333" height="2.83333" fill="#C4DEFC" stroke="#1560BD" stroke-width="2" stroke-linejoin="round"/>
<rect id="Rectangle_2" x="105.766" y="147.461" width="7.08333" height="2.83333" transform="rotate(-30 105.766 147.461)" fill="#8DBFF9" stroke="#1560BD" stroke-width="2" stroke-linejoin="round"/>
</g>
<g id="Group 28" opacity="0.5">
<g id="Group 27">
<rect id="Rectangle_3" x="58.25" y="144.333" width="7.08333" height="2.83333" fill="#C4DEFC" stroke="#1560BD" stroke-width="2" stroke-linejoin="round"/>
<rect id="Rectangle_4" x="58.25" y="138.667" width="7.08333" height="2.83333" fill="#C4DEFC" stroke="#1560BD" stroke-width="2" stroke-linejoin="round"/>
<rect id="Rectangle_5" x="58.25" y="147.167" width="7.08333" height="2.83333" fill="#8DBFF9" stroke="#1560BD" stroke-width="2" stroke-linejoin="round"/>
<rect id="Rectangle_6" x="58.25" y="141.5" width="7.08333" height="2.83333" fill="#8DBFF9" stroke="#1560BD" stroke-width="2" stroke-linejoin="round"/>
</g>
<g id="Group 27_2">
<rect id="Rectangle_7" x="54" y="144.333" width="7.08333" height="2.83333" fill="#C4DEFC" stroke="#1560BD" stroke-width="2" stroke-linejoin="round"/>
<rect id="Rectangle_8" x="54" y="147.167" width="7.08333" height="2.83333" fill="#8DBFF9" stroke="#1560BD" stroke-width="2" stroke-linejoin="round"/>
<rect id="Rectangle_9" x="54" y="141.5" width="7.08333" height="2.83333" fill="#8DBFF9" stroke="#1560BD" stroke-width="2" stroke-linejoin="round"/>
</g>
<g id="Group 27_3">
<rect id="Rectangle_10" x="65.3333" y="144.333" width="7.08333" height="2.83333" fill="#C4DEFC" stroke="#1560BD" stroke-width="2" stroke-linejoin="round"/>
<rect id="Rectangle_11" x="65.3333" y="147.167" width="7.08333" height="2.83333" fill="#8DBFF9" stroke="#1560BD" stroke-width="2" stroke-linejoin="round"/>
<rect id="Rectangle_12" x="65.3333" y="141.5" width="7.08333" height="2.83333" fill="#8DBFF9" stroke="#1560BD" stroke-width="2" stroke-linejoin="round"/>
</g>
<g id="Group 27_4">
<rect id="Rectangle_13" x="65.3333" y="135.833" width="7.08333" height="2.83333" fill="#C4DEFC" stroke="#1560BD" stroke-width="2" stroke-linejoin="round"/>
<rect id="Rectangle_14" x="65.3333" y="138.667" width="7.08333" height="2.83333" fill="#8DBFF9" stroke="#1560BD" stroke-width="2" stroke-linejoin="round"/>
<rect id="Rectangle_15" x="65.3333" y="133" width="7.08333" height="2.83333" fill="#8DBFF9" stroke="#1560BD" stroke-width="2" stroke-linejoin="round"/>
</g>
</g>
<path id="Path 4" opacity="0.2" d="M33.0934 150H134.5" stroke="#1560BD" stroke-width="2" stroke-linecap="round"/>
<path id="Path 4_2" opacity="0.2" d="M29 150H30" stroke="#1560BD" stroke-width="2" stroke-linecap="round"/>
<path id="Path 4_3" opacity="0.2" d="M138 150H141" stroke="#1560BD" stroke-width="2" stroke-linecap="round"/>
<g id="Group 26" opacity="0.5">
<g id="Group 25">
<rect id="Rectangle_16" x="60" y="32" width="48" height="4" fill="#C4DEFC" stroke="#1560BD" stroke-width="2" stroke-linejoin="round"/>
<rect id="Rectangle_17" x="60" y="36" width="48" height="4" fill="#8DBFF9" stroke="#1560BD" stroke-width="2" stroke-linejoin="round"/>
<rect id="Rectangle_18" x="60" y="28" width="48" height="4" fill="#8DBFF9" stroke="#1560BD" stroke-width="2" stroke-linejoin="round"/>
<rect id="Rectangle_19" x="80" y="27" width="9" height="13" fill="white" stroke="#1560BD" stroke-width="2" stroke-linejoin="round"/>
</g>
<rect id="Rectangle_20" x="16" y="96" width="122" height="7" fill="#E5E5EA" stroke="#1560BD" stroke-width="2" stroke-linejoin="round"/>
<rect id="Rectangle_21" x="16" y="54" width="122" height="7" fill="#E5E5EA" stroke="#1560BD" stroke-width="2" stroke-linejoin="round"/>
<g id="Group 25_2">
<rect id="Rectangle_22" x="40" y="45" width="48" height="4" fill="#C4DEFC" stroke="#1560BD" stroke-width="2" stroke-linejoin="round"/>
<rect id="Rectangle_23" x="40" y="49" width="48" height="4" fill="#8DBFF9" stroke="#1560BD" stroke-width="2" stroke-linejoin="round"/>
<rect id="Rectangle_24" x="40" y="41" width="48" height="4" fill="#8DBFF9" stroke="#1560BD" stroke-width="2" stroke-linejoin="round"/>
<rect id="Rectangle_25" x="60" y="39" width="9" height="14" fill="white" stroke="#1560BD" stroke-width="2" stroke-linejoin="round"/>
</g>
<g id="Group 25_3">
<rect id="Rectangle_26" x="80" y="45" width="48" height="4" fill="#C4DEFC" stroke="#1560BD" stroke-width="2" stroke-linejoin="round"/>
<rect id="Rectangle_27" x="80" y="49" width="48" height="4" fill="#8DBFF9" stroke="#1560BD" stroke-width="2" stroke-linejoin="round"/>
<rect id="Rectangle_28" x="80" y="41" width="48" height="4" fill="#8DBFF9" stroke="#1560BD" stroke-width="2" stroke-linejoin="round"/>
<rect id="Rectangle_29" x="100" y="39" width="9" height="14" fill="white" stroke="#1560BD" stroke-width="2" stroke-linejoin="round"/>
</g>
<g id="Group 24">
<path id="Rectangle_30" fill-rule="evenodd" clip-rule="evenodd" d="M20.6749 88H33.3251L36 96H18L20.6749 88Z" fill="#4A90E2" stroke="#1560BD" stroke-width="2" stroke-linejoin="round"/>
<path id="Rectangle_31" fill-rule="evenodd" clip-rule="evenodd" d="M39.6749 88H52.3251L55 96H37L39.6749 88Z" fill="#4A90E2" stroke="#1560BD" stroke-width="2" stroke-linejoin="round"/>
<path id="Rectangle_32" fill-rule="evenodd" clip-rule="evenodd" d="M31.6749 80H44.3251L47 88H29L31.6749 80Z" fill="#4A90E2" stroke="#1560BD" stroke-width="2" stroke-linejoin="round"/>
<path id="Rectangle_33" fill-rule="evenodd" clip-rule="evenodd" d="M40.6749 72H53.3251L56 80H38L40.6749 72Z" fill="#4A90E2" stroke="#1560BD" stroke-width="2" stroke-linejoin="round"/>
<path id="Rectangle_34" fill-rule="evenodd" clip-rule="evenodd" d="M50.6749 80H63.3251L66 88H48L50.6749 80Z" fill="#4A90E2" stroke="#1560BD" stroke-width="2" stroke-linejoin="round"/>
<path id="Rectangle_35" fill-rule="evenodd" clip-rule="evenodd" d="M58.6749 88H71.3251L74 96H56L58.6749 88Z" fill="#4A90E2" stroke="#1560BD" stroke-width="2" stroke-linejoin="round"/>
<path id="Rectangle_36" fill-rule="evenodd" clip-rule="evenodd" d="M101.675 88H114.325L117 96H99L101.675 88Z" fill="#4A90E2" stroke="#1560BD" stroke-width="2" stroke-linejoin="round"/>
<path id="Rectangle_37" fill-rule="evenodd" clip-rule="evenodd" d="M111.675 72H124.325L127 80H109L111.675 72Z" fill="#4A90E2" stroke="#1560BD" stroke-width="2" stroke-linejoin="round"/>
<path id="Rectangle_38" fill-rule="evenodd" clip-rule="evenodd" d="M120.675 80H133.325L136 88H118L120.675 80Z" fill="#4A90E2" stroke="#1560BD" stroke-width="2" stroke-linejoin="round"/>
<path id="Rectangle_39" fill-rule="evenodd" clip-rule="evenodd" d="M102.675 80H115.325L118 88H100L102.675 80Z" fill="#4A90E2" stroke="#1560BD" stroke-width="2" stroke-linejoin="round"/>
<path id="Rectangle_40" fill-rule="evenodd" clip-rule="evenodd" d="M120.675 88H133.325L136 96H118L120.675 88Z" fill="#4A90E2" stroke="#1560BD" stroke-width="2" stroke-linejoin="round"/>
</g>
</g>
<g id="Group 23">
<path id="Path 5" d="M84.1686 81.1694C84.1686 81.1694 87.5756 90.2187 87.5756 95.9069C87.5756 101.595 84.7202 107.326 84.7202 112.917C84.7202 118.507 86.3171 125 86.3171 125" stroke="#1560BD" stroke-width="2" stroke-linecap="round" stroke-linejoin="round"/>
<g id="Group 22">
<path id="Oval_6" fill-rule="evenodd" clip-rule="evenodd" d="M79.6492 88C92.3518 88 102.649 77.7025 102.649 65C102.649 52.2975 92.3518 42 79.6492 42C66.9467 42 56.6492 52.2975 56.6492 65C56.6492 77.7025 66.9467 88 79.6492 88Z" fill="#A1CBFF" stroke="#1560BD" stroke-width="2"/>
<path id="Oval_7" fill-rule="evenodd" clip-rule="evenodd" d="M79.6492 83C89.5904 83 97.6492 74.9411 97.6492 65C97.6492 55.0589 89.5904 47 79.6492 47C69.7081 47 61.6492 55.0589 61.6492 65C61.6492 74.9411 69.7081 83 79.6492 83Z" fill="#B6D5F9"/>
<path id="Combined Shape" opacity="0.3" fill-rule="evenodd" clip-rule="evenodd" d="M92.9408 47.4658C84.3182 40.9124 71.9649 41.5717 64.0929 49.4437C56.2209 57.3156 55.5616 69.669 62.115 78.2916L92.9408 47.4658ZM65.5705 81.9072L96.5564 50.9213C97.671 52.2567 98.6026 53.6931 99.3513 55.1974L69.8466 84.7021C68.3423 83.9534 66.9059 83.0218 65.5705 81.9072Z" fill="white"/>
<path id="Oval_8" opacity="0.3" fill-rule="evenodd" clip-rule="evenodd" d="M79.6492 67C80.7538 67 81.6492 66.1046 81.6492 65C81.6492 63.8954 80.7538 63 79.6492 63C78.5447 63 77.6492 63.8954 77.6492 65C77.6492 66.1046 78.5447 67 79.6492 67Z" stroke="#1560BD" stroke-width="2"/>
<path id="Combined Shape_2" fill-rule="evenodd" clip-rule="evenodd" d="M85.6284 51.565C86.0189 51.9555 86.0189 52.5887 85.6284 52.9792C85.2379 53.3697 84.6047 53.3697 84.2142 52.9792C83.8237 52.5887 83.8237 51.9555 84.2142 51.565C84.6047 51.1744 85.2379 51.1744 85.6284 51.565ZM122.398 40.2513C122.788 40.6418 123.422 40.6418 123.812 40.2513C124.203 39.8607 124.203 39.2276 123.812 38.837C123.422 38.4465 122.788 38.4465 122.398 38.837C122.007 39.2276 122.007 39.8607 122.398 40.2513ZM98.4404 65.6121C98.4676 65.5769 98.4927 65.5397 98.5152 65.5006C98.5766 65.3945 98.6169 65.2796 98.6361 65.162C98.6425 65.1236 98.6465 65.0853 98.6483 65.0471C98.6412 65.2017 98.5979 65.3568 98.5153 65.5C98.4703 65.5778 98.4166 65.6473 98.3559 65.7079C98.3294 65.7344 98.3016 65.7591 98.2727 65.7822C98.265 65.7883 98.2573 65.7943 98.2495 65.8002C98.2173 65.8243 98.1834 65.8467 98.1481 65.867C98.0857 65.9029 98.0204 65.9315 97.9532 65.9529C97.897 65.9709 97.84 65.9836 97.7828 65.9913C97.7235 65.9993 97.663 66.002 97.602 65.9991C97.4475 65.9919 97.2924 65.9487 97.1492 65.866C97.0064 65.7836 96.8916 65.6712 96.8082 65.5414C96.7996 65.528 96.7913 65.5144 96.7833 65.5007L96.7834 65.5007C96.7616 65.4628 96.7423 65.4236 96.7256 65.3834C96.7088 65.343 96.6946 65.3014 96.6832 65.259C96.6872 65.274 96.6916 65.2889 96.6963 65.3038C96.6784 65.2479 96.6657 65.1912 96.658 65.1342C96.6519 65.0894 96.6489 65.044 96.649 64.9981C96.649 64.9547 96.6519 64.9117 96.6576 64.8692C96.6687 64.7842 96.6911 64.6996 96.7251 64.6176C96.811 64.4092 96.9623 64.2423 97.1479 64.1347L97.1478 64.1346C97.0011 64.2194 96.874 64.3427 96.7832 64.5M97.6973 64.0009C97.7671 64.0044 97.8377 64.0152 97.9081 64.0341C97.9513 64.0457 97.9932 64.0599 98.0335 64.0767C97.9244 64.0311 97.8107 64.0063 97.6973 64.0009ZM98.3204 64.2584C98.3576 64.2921 98.392 64.3285 98.4235 64.3671C98.448 64.3969 98.4705 64.4279 98.491 64.4597C98.4439 64.3863 98.3869 64.3184 98.3204 64.2584ZM98.4404 65.6121C98.4145 65.6456 98.3863 65.6776 98.3559 65.7079L98.4404 65.6121ZM111.084 78.435C111.475 78.0445 111.475 77.4113 111.084 77.0208C110.694 76.6303 110.061 76.6303 109.67 77.0208C109.28 77.4113 109.28 78.0445 109.67 78.435C110.061 78.8256 110.694 78.8256 111.084 78.435ZM89.1492 50.2776C89.6275 50.0014 89.7914 49.3898 89.5153 48.9115C89.2391 48.4333 88.6275 48.2694 88.1492 48.5455C87.6709 48.8217 87.5071 49.4333 87.7832 49.9115C88.0594 50.3898 88.6709 50.5537 89.1492 50.2776ZM129.326 47.866C128.848 48.1422 128.236 47.9783 127.96 47.5C127.684 47.0217 127.848 46.4101 128.326 46.134C128.804 45.8578 129.416 46.0217 129.692 46.5C129.968 46.9783 129.804 47.5899 129.326 47.866ZM107.515 80.0885C107.791 80.5667 107.628 81.1783 107.149 81.4545C106.671 81.7306 106.059 81.5667 105.783 81.0885C105.507 80.6102 105.671 79.9986 106.149 79.7224C106.628 79.4463 107.239 79.6102 107.515 80.0885ZM80.6492 47C80.6492 47.5523 80.2015 48 79.6492 48C79.097 48 78.6492 47.5523 78.6492 47C78.6492 46.4477 79.097 46 79.6492 46C80.2015 46 80.6492 46.4477 80.6492 47ZM114.649 65C114.649 65.5523 115.097 66 115.649 66C116.202 66 116.649 65.5523 116.649 65C116.649 64.4477 116.202 64 115.649 64C115.097 64 114.649 64.4477 114.649 65ZM78.6492 65C78.6492 65.5523 79.097 66 79.6492 66C80.2015 66 80.6492 65.5523 80.6492 65C80.6492 64.4477 80.2015 64 79.6492 64C79.097 64 78.6492 64.4477 78.6492 65ZM93.2493 48.5793C93.7828 48.4363 94.0994 47.888 93.9564 47.3545C93.8135 46.821 93.2651 46.5045 92.7317 46.6474C92.1982 46.7904 91.8816 47.3387 92.0246 47.8722C92.1675 48.4056 92.7158 48.7222 93.2493 48.5793ZM132.681 56.6484C132.148 56.7914 131.6 56.4748 131.457 55.9413C131.314 55.4079 131.63 54.8595 132.164 54.7166C132.697 54.5736 133.246 54.8902 133.388 55.4237C133.531 55.9572 133.215 56.5055 132.681 56.6484ZM103.274 82.1278C103.417 82.6613 103.1 83.2096 102.567 83.3526C102.033 83.4955 101.485 83.1789 101.342 82.6455C101.199 82.112 101.516 81.5637 102.049 81.4207C102.583 81.2778 103.131 81.5944 103.274 82.1278ZM80.6492 83C80.6492 83.5523 80.2015 84 79.6492 84C79.097 84 78.6492 83.5523 78.6492 83C78.6492 82.4477 79.097 82 79.6492 82C80.2015 82 80.6492 82.4477 80.6492 83ZM102.049 48.5793C102.583 48.7222 103.131 48.4056 103.274 47.8722C103.417 47.3387 103.1 46.7904 102.567 46.6474C102.033 46.5045 101.485 46.821 101.342 47.3545C101.199 47.888 101.516 48.4363 102.049 48.5793ZM132.164 75.2834C131.63 75.1405 131.314 74.5921 131.457 74.0587C131.6 73.5252 132.148 73.2086 132.681 73.3516C133.215 73.4945 133.531 74.0428 133.388 74.5763C133.246 75.1098 132.697 75.4264 132.164 75.2834ZM93.9564 82.6455C93.8135 83.1789 93.2651 83.4955 92.7317 83.3526C92.1982 83.2096 91.8816 82.6613 92.0246 82.1278C92.1675 81.5944 92.7158 81.2778 93.2493 81.4207C93.7828 81.5637 94.0994 82.112 93.9564 82.6455ZM107.515 49.9115C107.239 50.3898 106.628 50.5537 106.149 50.2776C105.671 50.0014 105.507 49.3898 105.783 48.9115C106.059 48.4333 106.671 48.2694 107.149 48.5455C107.628 48.8217 107.791 49.4333 107.515 49.9115ZM127.96 82.5C127.684 82.9783 127.848 83.5899 128.326 83.866C128.804 84.1422 129.416 83.9783 129.692 83.5C129.968 83.0217 129.804 82.4101 129.326 82.134C128.848 81.8578 128.236 82.0217 127.96 82.5ZM88.1492 81.4545C88.6275 81.7306 89.2391 81.5667 89.5153 81.0885C89.7914 80.6102 89.6275 79.9986 89.1492 79.7224C88.6709 79.4463 88.0594 79.6102 87.7832 80.0885C87.5071 80.5667 87.6709 81.1783 88.1492 81.4545Z" fill="#1560BD"/>
<path id="Combined Shape_3" opacity="0.5" fill-rule="evenodd" clip-rule="evenodd" d="M101.649 65C101.649 52.8497 91.7995 43 79.6492 43C67.499 43 57.6492 52.8497 57.6492 65C57.6492 65.3351 57.6567 65.6685 57.6716 66C58.1944 54.3139 67.8341 45 79.6492 45C91.4644 45 101.104 54.3139 101.627 66C101.642 65.6685 101.649 65.3351 101.649 65Z" fill="white"/>
<path id="Combined Shape_4" opacity="0.5" fill-rule="evenodd" clip-rule="evenodd" d="M57.6716 64C57.6567 64.3315 57.6492 64.6649 57.6492 65C57.6492 77.1503 67.499 87 79.6492 87C91.7995 87 101.649 77.1503 101.649 65C101.649 64.6649 101.642 64.3315 101.627 64C101.104 75.6861 91.4644 85 79.6492 85C67.8341 85 58.1944 75.6861 57.6716 64Z" fill="#1560BD"/>
<path id="Combined Shape_5" opacity="0.3" fill-rule="evenodd" clip-rule="evenodd" d="M80.6287 32.2634C80.571 31.766 80.1483 31.38 79.6355 31.38C79.0832 31.38 78.6355 31.8277 78.6355 32.38V37.5382L78.6422 37.6548C78.6999 38.1522 79.1226 38.5382 79.6355 38.5382C80.1877 38.5382 80.6355 38.0905 80.6355 37.5382V32.38L80.6287 32.2634ZM72.7855 35.6135L72.8222 35.7244L73.4897 38.2157C73.6327 38.7491 73.3161 39.2975 72.7826 39.4404C72.2873 39.5731 71.7791 39.3097 71.5946 38.8442L71.5579 38.7333L70.8904 36.2421C70.7474 35.7086 71.064 35.1603 71.5975 35.0173C72.0547 34.8948 72.5229 35.1099 72.7374 35.5098L72.7855 35.6135ZM88.3984 36.1386C88.4713 35.6432 88.163 35.161 87.6676 35.0282C87.1341 34.8853 86.5858 35.2019 86.4428 35.7353L85.7753 38.2266L85.7516 38.341C85.6787 38.8363 85.9871 39.3186 86.4824 39.4513C87.0159 39.5942 87.5642 39.2777 87.7072 38.7442L88.3747 36.253L88.3984 36.1386ZM96.8717 37.148C97.0703 36.6884 96.8973 36.1427 96.4532 35.8863C95.9749 35.6102 95.3633 35.774 95.0872 36.2523L92.508 40.7195L92.4556 40.8238C92.2569 41.2834 92.4299 41.8291 92.8741 42.0855C93.3524 42.3616 93.964 42.1978 94.2401 41.7195L96.8192 37.2523L96.8717 37.148ZM58.9949 42.9598L59.0891 43.043L60.9128 44.8667C61.3034 45.2572 61.3034 45.8903 60.9128 46.2809C60.5523 46.6414 59.9851 46.6691 59.5928 46.3641L59.4986 46.2809L57.6749 44.4572C57.2844 44.0666 57.2844 43.4335 57.6749 43.043C58.0054 42.7125 58.5095 42.6617 58.8934 42.8904L58.9949 42.9598ZM101.662 44.3927C101.967 44.0004 101.94 43.4332 101.579 43.0727C101.189 42.6822 100.556 42.6822 100.165 43.0727L98.3414 44.8964L98.2582 44.9906C97.9531 45.3829 97.9809 45.9502 98.3414 46.3106C98.7319 46.7012 99.365 46.7012 99.7556 46.3106L101.579 44.4869L101.662 44.3927ZM108.496 49.4996C108.898 49.2009 109.021 48.6419 108.765 48.1977C108.488 47.7194 107.877 47.5556 107.399 47.8317L102.931 50.4108L102.834 50.475C102.432 50.7736 102.309 51.3327 102.565 51.7768C102.842 52.2551 103.453 52.419 103.931 52.1429L108.399 49.5638L108.496 49.4996ZM50.8552 56.2475L50.7408 56.2238L50.6269 56.2137C50.1733 56.1995 49.7529 56.4974 49.6304 56.9546C49.4875 57.4881 49.8041 58.0364 50.3375 58.1794L52.8288 58.8469L52.9431 58.8706C53.4385 58.9435 53.9208 58.6351 54.0535 58.1398C54.1964 57.6063 53.8799 57.058 53.3464 56.915L50.8552 56.2475ZM52.1582 64.0155C52.7105 64.0155 53.1582 64.4632 53.1582 65.0155C53.1582 65.5283 52.7722 65.951 52.2748 66.0087L52.1582 66.0155H47C46.4477 66.0155 46 65.5677 46 65.0155C46 64.5026 46.386 64.08 46.8834 64.0222L47 64.0155H52.1582ZM113.271 65.0155C113.271 64.4632 112.823 64.0155 112.271 64.0155H107.113L106.996 64.0222C106.499 64.08 106.113 64.5026 106.113 65.0155C106.113 65.5677 106.56 66.0155 107.113 66.0155H112.271L112.388 66.0087C112.885 65.951 113.271 65.5283 113.271 65.0155ZM54.0426 71.8396C54.1753 72.3349 53.9118 72.8431 53.4464 73.0276L53.3355 73.0643L50.8443 73.7318C50.3108 73.8748 49.7625 73.5582 49.6195 73.0247C49.4868 72.5294 49.7503 72.0212 50.2157 71.8367L50.3266 71.8L52.8179 71.1325C53.3513 70.9895 53.8997 71.3061 54.0426 71.8396ZM106.46 71.1474L106.346 71.1199L106.233 71.106C105.78 71.0769 105.35 71.3608 105.213 71.8138C105.052 72.3422 105.351 72.9007 105.879 73.0611L108.327 73.8041L108.44 73.8316C108.933 73.9208 109.425 73.6284 109.574 73.1377C109.734 72.6092 109.436 72.0508 108.908 71.8904L106.46 71.1474ZM56.4371 79.556C56.8389 79.2573 56.9619 78.6982 56.7055 78.2541C56.4294 77.7758 55.8178 77.6119 55.3395 77.8881L50.8723 80.4672L50.7747 80.5313C50.3729 80.83 50.2499 81.3891 50.5063 81.8332C50.7824 82.3115 51.394 82.4754 51.8723 82.1992L56.3395 79.6201L56.4371 79.556ZM99.7944 83.749L99.703 83.6628L99.6038 83.5901C99.2277 83.3488 98.7221 83.3831 98.381 83.7024C97.9778 84.0799 97.957 84.7127 98.3344 85.1159L100.083 86.9832L100.174 87.0694C100.556 87.3872 101.124 87.3782 101.496 87.0297C101.899 86.6523 101.92 86.0195 101.543 85.6163L99.7944 83.749ZM66.8153 89.2071C67.014 88.7475 66.841 88.2018 66.3968 87.9454C65.9185 87.6693 65.307 87.8332 65.0308 88.3115L62.4517 92.7786L62.3992 92.883C62.2006 93.3425 62.3736 93.8882 62.8177 94.1446C63.296 94.4208 63.9076 94.2569 64.1838 93.7786L66.7629 89.3115L66.8153 89.2071ZM87.721 91.3296L87.688 91.2175L87.6433 91.1122C87.4421 90.7055 86.9813 90.4751 86.5202 90.5825C85.9823 90.7078 85.6479 91.2454 85.7732 91.7833L86.3535 94.2746L86.3865 94.3866C86.5556 94.8579 87.0549 95.1379 87.5543 95.0216C88.0922 94.8963 88.4267 94.3587 88.3014 93.8208L87.721 91.3296ZM80.6287 92.3761C80.571 91.8787 80.1483 91.4927 79.6355 91.4927C79.0832 91.4927 78.6355 91.9404 78.6355 92.4927V97.6509L78.6422 97.7675C78.6999 98.2649 79.1226 98.6509 79.6355 98.6509C80.1877 98.6509 80.6355 98.2032 80.6355 97.6509V92.4927L80.6287 92.3761ZM72.8085 90.6105C73.2992 90.7594 73.5915 91.2516 73.5023 91.7443L73.4749 91.8578L72.7319 94.3055C72.5714 94.8339 72.013 95.1323 71.4845 94.9719C70.9938 94.8229 70.7015 94.3307 70.7907 93.8381L70.8181 93.7245L71.5611 91.2769C71.7215 90.7484 72.28 90.45 72.8085 90.6105ZM94.176 88.2138L94.2401 88.3115L96.8192 92.7786C97.0954 93.2569 96.9315 93.8685 96.4532 94.1446C96.0091 94.401 95.45 94.2781 95.1513 93.8762L95.0872 93.7786L92.508 89.3115C92.2319 88.8332 92.3958 88.2216 92.8741 87.9454C93.2812 87.7104 93.7849 87.7941 94.0961 88.1192L94.176 88.2138ZM60.9198 83.7788C61.2682 84.1509 61.2772 84.7188 60.9595 85.1008L60.8732 85.1922L59.0059 86.9404C58.6028 87.3179 57.9699 87.2971 57.5925 86.8939C57.2441 86.5217 57.235 85.9539 57.5528 85.5719L57.639 85.4804L59.5063 83.7322C59.9095 83.3548 60.5423 83.3756 60.9198 83.7788ZM103.827 77.8356L103.931 77.8881L108.399 80.4672C108.877 80.7433 109.041 81.3549 108.765 81.8332C108.508 82.2773 107.963 82.4503 107.503 82.2517L107.399 82.1992L102.931 79.6201C102.453 79.344 102.289 78.7324 102.565 78.2541C102.802 77.8441 103.285 77.6651 103.72 77.7963L103.827 77.8356ZM109.624 57.0679C109.74 57.5674 109.46 58.0666 108.989 58.2357L108.877 58.2687L106.386 58.8491C105.848 58.9744 105.31 58.6399 105.185 58.102C105.068 57.6026 105.348 57.1033 105.82 56.9342L105.932 56.9012L108.423 56.3209C108.961 56.1955 109.498 56.53 109.624 57.0679ZM51.768 47.7792L51.8723 47.8317L56.3395 50.4108C56.8178 50.687 56.9816 51.2985 56.7055 51.7768C56.4491 52.221 55.9034 52.394 55.4438 52.1954L55.3395 52.1429L50.8723 49.5638C50.394 49.2876 50.2302 48.676 50.5063 48.1977C50.7627 47.7536 51.3084 47.5806 51.768 47.7792ZM64.1196 36.1547L64.1838 36.2523L66.7629 40.7195C67.039 41.1978 66.8751 41.8094 66.3968 42.0855C65.9527 42.3419 65.3936 42.2189 65.0949 41.8171L65.0308 41.7195L62.4517 37.2523C62.1756 36.774 62.3394 36.1624 62.8177 35.8863C63.2248 35.6513 63.7285 35.735 64.0397 36.0601L64.1196 36.1547Z" fill="#1560BD"/>
</g>
<path id="Path 6" fill-rule="evenodd" clip-rule="evenodd" d="M85.067 109.947C85.067 109.947 87.5756 96.4719 102.136 99.2287C96.8154 113.796 85.067 109.947 85.067 109.947Z" fill="#D6E9FF" stroke="#1560BD" stroke-width="2" stroke-linejoin="round"/>
<path id="Path 6_2" fill-rule="evenodd" clip-rule="evenodd" d="M84.7066 112.38C84.7066 112.38 84.7877 101.275 75 102.003C75.5856 111.643 84.7066 112.38 84.7066 112.38Z" fill="#93BBEB" stroke="#1560BD" stroke-width="2" stroke-linejoin="round"/>
<path id="Rectangle_41" fill-rule="evenodd" clip-rule="evenodd" d="M69 125H102C102.552 125 102.932 125.466 102.848 126.042L99.4974 148.958C99.4133 149.534 98.9909 150 98.554 150H72.446C72.0091 150 71.5867 149.534 71.5026 148.958L68.1523 126.042C68.0682 125.466 68.4477 125 69 125Z" fill="#93BBEB" stroke="#1560BD" stroke-width="2"/>
<path id="Combined Shape_6" opacity="0.2" fill-rule="evenodd" clip-rule="evenodd" d="M69.887 131L69.4483 128H101.551L101.112 131H69.887ZM72.446 149H98.554C98.4862 149 98.4748 148.981 98.481 148.94L98.508 148.814L98.9193 146H72.0806L72.492 148.814C72.4966 148.845 72.5034 148.872 72.5092 148.896C72.5234 148.953 72.5316 148.986 72.4869 148.996L72.446 149Z" fill="#1560BD"/>
<rect id="Rectangle_42" x="65" y="119" width="41" height="8" rx="1" fill="#93BBEB" stroke="#1560BD" stroke-width="2"/>
<rect id="Rectangle_43" opacity="0.246187" x="66" y="120" width="39" height="2" fill="white"/>
<rect id="Rectangle_44" opacity="0.246187" x="66" y="124" width="39" height="2" fill="#1560BD"/>
<rect id="Rectangle_45" opacity="0.2" x="71" y="120" width="5" height="6" fill="white"/>
<path id="Rectangle_46" opacity="0.2" fill-rule="evenodd" clip-rule="evenodd" d="M71 128H76L76.9284 149H74.2195L71 128Z" fill="white"/>
</g>
</g>
</svg>
