<svg width="170" height="160" viewBox="0 0 170 160" fill="none" xmlns="http://www.w3.org/2000/svg">
<g id="Group 8">
<g id="Group 32">
<g id="Group 21">
<g id="Rings" opacity="0.4">
<path id="Oval" opacity="0.4" fill-rule="evenodd" clip-rule="evenodd" d="M80.1065 124.078C104.391 124.078 124.078 104.391 124.078 80.1065C124.078 55.8216 104.391 36.1348 80.1065 36.1348C55.8216 36.1348 36.1348 55.8216 36.1348 80.1065C36.1348 104.391 55.8216 124.078 80.1065 124.078Z" fill="#4A90E2" fill-opacity="0.8" stroke="#1560BD" stroke-width="2"/>
<path id="Oval_2" opacity="0.2" fill-rule="evenodd" clip-rule="evenodd" d="M80.1067 142.604C114.623 142.604 142.604 114.623 142.604 80.1064C142.604 45.5901 114.623 17.6091 80.1067 17.6091C45.5904 17.6091 17.6094 45.5901 17.6094 80.1064C17.6094 114.623 45.5904 142.604 80.1067 142.604Z" fill="#4A90E2" fill-opacity="0.8" stroke="#1560BD" stroke-width="2"/>
<path id="Oval_3" opacity="0.1" fill-rule="evenodd" clip-rule="evenodd" d="M80.0003 151.76C119.632 151.76 151.76 119.632 151.76 80C151.76 40.368 119.632 8.23987 80.0003 8.23987C40.3683 8.23987 8.24023 40.368 8.24023 80C8.24023 119.632 40.3683 151.76 80.0003 151.76Z" fill="#4A90E2" fill-opacity="0.8" stroke="#1560BD" stroke-width="2"/>
<path id="Oval_4" opacity="0.04" fill-rule="evenodd" clip-rule="evenodd" d="M80 159C123.63 159 159 123.63 159 80C159 36.3695 123.63 1 80 1C36.3695 1 1 36.3695 1 80C1 123.63 36.3695 159 80 159Z" fill="#4A90E2" fill-opacity="0.8" stroke="#1560BD" stroke-width="2"/>
<path id="Oval_5" opacity="0.4" fill-rule="evenodd" clip-rule="evenodd" d="M80.1069 99.8032C90.9851 99.8032 99.8037 90.9847 99.8037 80.1064C99.8037 69.2282 90.9851 60.4097 80.1069 60.4097C69.2287 60.4097 60.4102 69.2282 60.4102 80.1064C60.4102 90.9847 69.2287 99.8032 80.1069 99.8032Z" fill="#4A90E2" fill-opacity="0.8" stroke="#1560BD" stroke-width="2"/>
</g>
<g id="Group 20" opacity="0.5">
<rect id="Rectangle" x="91" y="34" width="45" height="43" fill="#4A90E2" fill-opacity="0.12" stroke="#1560BD" stroke-width="2"/>
<rect id="Rectangle_2" x="84" y="27" width="59" height="57" fill="white" fill-opacity="0.12" stroke="#1560BD" stroke-width="2"/>
<path id="Rectangle_3" opacity="0.1" fill-rule="evenodd" clip-rule="evenodd" d="M93 35H135L93 69V35Z" fill="#4A90E2"/>
</g>
<path id="Path 4" opacity="0.2" d="M38.1318 148.5H162" stroke="#1560BD" stroke-width="2" stroke-linecap="round"/>
<path id="Path 4_2" opacity="0.2" d="M34 148.5H35" stroke="#1560BD" stroke-width="2" stroke-linecap="round"/>
<path id="Path 4_3" opacity="0.2" d="M166 148.5H169" stroke="#1560BD" stroke-width="2" stroke-linecap="round"/>
</g>
<g id="Group 15">
<rect id="Rectangle_4" x="48.415" y="48.2452" width="19.0189" height="75.1698" stroke="#1560BD" stroke-width="2"/>
<g id="Group 13">
<rect id="Rectangle_5" x="26.6797" y="41" width="19.0189" height="82.4151" rx="1" fill="#A6CFFF" stroke="#1560BD" stroke-width="2"/>
<rect id="Rectangle_6" opacity="0.2" x="26.6797" y="47.3396" width="19.0189" height="57.0566" stroke="#1560BD" stroke-width="2"/>
<rect id="Rectangle_7" opacity="0.2" width="19.0189" height="8.15094" transform="matrix(1 0 0 -1 26.6797 117.075)" stroke="#1560BD" stroke-width="2"/>
<rect id="Rectangle_8" opacity="0.2" x="27.585" y="41.9056" width="2.71698" height="80.6038" fill="white"/>
<rect id="Rectangle_9" opacity="0.2" x="42.0762" y="41.9056" width="2.71698" height="80.6038" fill="#1560BD"/>
<path id="Oval_6" opacity="0.5" fill-rule="evenodd" clip-rule="evenodd" d="M36.1891 60.9245C38.9401 60.9245 41.1703 58.6944 41.1703 55.9434C41.1703 53.1924 38.9401 50.9623 36.1891 50.9623C33.4381 50.9623 31.208 53.1924 31.208 55.9434C31.208 58.6944 33.4381 60.9245 36.1891 60.9245Z" stroke="white" stroke-width="2"/>
<rect id="Rectangle_10" opacity="0.5" x="34.8311" y="65.4529" width="1.81132" height="18.1132" rx="0.90566" fill="white"/>
<rect id="Rectangle_11" opacity="0.5" x="37.5479" y="65.4529" width="2.71698" height="21.7358" rx="1.35849" fill="white"/>
<rect id="Rectangle_12" opacity="0.5" x="32.1133" y="65.4529" width="1.81132" height="27.1698" rx="0.90566" fill="white"/>
<path id="Oval_7" fill-rule="evenodd" clip-rule="evenodd" d="M36.189 58.2075C37.4394 58.2075 38.4531 57.1938 38.4531 55.9434C38.4531 54.6929 37.4394 53.6792 36.189 53.6792C34.9385 53.6792 33.9248 54.6929 33.9248 55.9434C33.9248 57.1938 34.9385 58.2075 36.189 58.2075Z" stroke="white" stroke-width="2"/>
</g>
<rect id="Rectangle_13" x="46.6035" y="45.5283" width="2.71698" height="77.8868" rx="1" fill="#4A90E2" stroke="#1560BD" stroke-width="2"/>
<rect id="Rectangle_14" x="64.7168" y="45.5283" width="2.71698" height="77.8868" rx="1" fill="#4A90E2" stroke="#1560BD" stroke-width="2"/>
<path id="Shape" opacity="0.2" fill-rule="evenodd" clip-rule="evenodd" d="M53.2725 49.151V120.698H51.1318V49.151H53.2725ZM56.4835 49.151V120.698H54.3428V49.151H56.4835ZM59.6944 49.151V120.698H57.5538V49.151H59.6944ZM62.9054 49.151V120.698H60.7648V49.151H62.9054Z" fill="#1560BD"/>
<g id="Group 14">
<g id="Group 13_2">
<rect id="Rectangle_15" x="67.7744" y="47.3438" width="17.5559" height="76.0755" rx="1" transform="rotate(-5 67.7744 47.3438)" fill="#D0E6FF" stroke="#1560BD" stroke-width="2"/>
<rect id="Rectangle_16" opacity="0.2" x="68.2842" y="53.1735" width="17.5559" height="52.6676" transform="rotate(-5 68.2842 53.1735)" stroke="#1560BD" stroke-width="2"/>
<rect id="Rectangle_17" opacity="0.2" x="68.6797" y="48.1038" width="2.50798" height="74.4035" transform="rotate(-5 68.6797 48.1038)" fill="white"/>
<rect id="Rectangle_18" opacity="0.2" x="82.8379" y="46.8651" width="1.67199" height="74.4035" transform="rotate(-5 82.8379 46.8651)" fill="#1560BD"/>
<rect id="Rectangle_19" opacity="0.5" x="81.2236" y="76.3778" width="1.67199" height="11.7039" rx="0.835994" transform="rotate(-5 81.2236 76.3778)" fill="white"/>
<rect id="Rectangle_20" opacity="0.5" x="82.3896" y="89.7029" width="1.67199" height="3.34398" rx="0.835994" transform="rotate(-5 82.3896 89.7029)" fill="white"/>
<rect id="Rectangle_21" opacity="0.5" x="75.3945" y="76.8878" width="1.67199" height="10.8679" rx="0.835994" transform="rotate(-5 75.3945 76.8878)" fill="white"/>
</g>
<rect id="Rectangle_22" opacity="0.2" x="68.6797" y="48.1038" width="1.67199" height="74.4035" transform="rotate(-5 68.6797 48.1038)" fill="#1560BD"/>
<rect id="Rectangle_23" opacity="0.5" x="77.8926" y="76.6693" width="1.67199" height="21.7358" rx="0.835994" transform="rotate(-5 77.8926 76.6693)" fill="white"/>
<g id="Rectangle_24">
<mask id="path-35-inside-1" fill="white">
<rect x="73.5" y="55.2347" width="7.52395" height="16.7199" rx="1" transform="rotate(-5 73.5 55.2347)"/>
</mask>
<rect x="73.5" y="55.2347" width="7.52395" height="16.7199" rx="1" transform="rotate(-5 73.5 55.2347)" stroke="white" stroke-width="4" mask="url(#path-35-inside-1)"/>
</g>
<g id="Rectangle_25">
<mask id="path-36-inside-2" fill="white">
<rect x="78.1631" y="108.535" width="7.52395" height="6.68795" rx="1" transform="rotate(-5 78.1631 108.535)"/>
</mask>
<rect x="78.1631" y="108.535" width="7.52395" height="6.68795" rx="1" transform="rotate(-5 78.1631 108.535)" stroke="white" stroke-width="4" mask="url(#path-36-inside-2)"/>
</g>
</g>
<g id="Group 12">
<path id="Rectangle_26" fill-rule="evenodd" clip-rule="evenodd" d="M17.623 127.538C17.623 127.262 17.8469 127.038 18.123 127.038H25.0601C25.4071 127.038 25.6486 127.382 25.53 127.709L22.271 136.671C22.1992 136.868 22.0114 137 21.8011 137H18.123C17.8469 137 17.623 136.776 17.623 136.5V127.538Z" fill="#4A90E2" stroke="#1560BD" stroke-width="2"/>
<path id="Rectangle_27" fill-rule="evenodd" clip-rule="evenodd" d="M115.434 127.538C115.434 127.262 115.21 127.038 114.934 127.038H107.997C107.65 127.038 107.408 127.382 107.527 127.709L110.786 136.671C110.857 136.868 111.045 137 111.256 137H114.934C115.21 137 115.434 136.776 115.434 136.5V127.538Z" fill="#4A90E2" stroke="#1560BD" stroke-width="2"/>
<rect id="Rectangle_28" x="14" y="121.604" width="105.057" height="9.96226" rx="0.5" fill="#4A90E2" stroke="#1560BD" stroke-width="2"/>
<rect id="Rectangle_29" x="14.9053" y="122.509" width="103.245" height="1.81132" fill="#7CB3F4"/>
</g>
</g>
</g>
<g id="Group 35">
<g id="Group 6">
<g id="Group 5">
<g id="Group 4">
<rect id="Rectangle_30" x="49.1025" y="69" width="97.2308" height="79" rx="2" fill="white" stroke="#1560BD" stroke-width="2"/>
<rect id="Rectangle_31" x="52" y="72" width="91" height="65" fill="#4A90E2" fill-opacity="0.12" stroke="#1560BD" stroke-width="2"/>
<rect id="Rectangle_32" x="61" y="81" width="76" height="32" rx="1" fill="white"/>
<path id="Rectangle_33" opacity="0.1" fill-rule="evenodd" clip-rule="evenodd" d="M52 72H144V75L52 124.667V72Z" fill="#4A90E2"/>
<path id="Rectangle_34" d="M41 139.897H156.462V144C156.462 146.209 154.671 148 152.462 148H45C42.7909 148 41 146.209 41 144V139.897Z" fill="#C1DAF9" stroke="#1560BD" stroke-width="2"/>
<path id="Rectangle_35" d="M82 139.897H114C114 141.554 112.657 142.897 111 142.897H85C83.3431 142.897 82 141.554 82 139.897Z" fill="#4A90E2"/>
<rect id="Rectangle_36" opacity="0.12" x="52" y="72" width="92" height="3" fill="#1560BD"/>
<path id="Rectangle_37" fill-rule="evenodd" clip-rule="evenodd" d="M52 127.859L144 77V83.0769V85.1026L52 135.962V127.859Z" fill="#4A90E2" fill-opacity="0.12"/>
</g>
</g>
</g>
<g id="g4165">
<path id="path4167" fill-rule="evenodd" clip-rule="evenodd" d="M97.3559 107.139H97.3366C97.1949 107.377 97.0048 107.564 96.7665 107.699C96.5282 107.834 96.2512 107.902 95.9356 107.902C95.6586 107.902 95.3913 107.855 95.1335 107.762C94.8759 107.669 94.6472 107.525 94.4475 107.332C94.2479 107.139 94.0885 106.889 93.9693 106.583C93.8501 106.277 93.7906 105.912 93.7906 105.487V103.061H94.9404V105.487C94.9404 105.944 95.0498 106.282 95.2689 106.501C95.4879 106.72 95.781 106.83 96.1481 106.83C96.5024 106.83 96.7922 106.717 97.0177 106.491C97.2432 106.266 97.3559 105.931 97.3559 105.487V103.061H98.5057V107.67C98.5057 108.089 98.4445 108.445 98.3221 108.738C98.1997 109.031 98.0306 109.271 97.8148 109.458C97.599 109.645 97.3462 109.781 97.0563 109.868C96.7665 109.955 96.4573 109.999 96.1288 109.999C95.8518 109.999 95.5893 109.967 95.3413 109.902C95.0934 109.838 94.8679 109.738 94.665 109.603C94.4621 109.467 94.2882 109.297 94.1432 109.091C93.9983 108.884 93.8936 108.64 93.8292 108.356H94.979C95.1658 108.788 95.5491 109.004 96.1288 109.004C96.5217 109.004 96.8245 108.902 97.037 108.699C97.2496 108.496 97.3559 108.163 97.3559 107.699V107.139ZM89.0657 100.974H87.916V105.409C87.916 105.796 87.9788 106.147 88.1044 106.462C88.23 106.778 88.404 107.047 88.6262 107.269C88.8484 107.491 89.1157 107.662 89.4282 107.781C89.7405 107.9 90.0867 107.96 90.4668 107.96C90.8404 107.96 91.185 107.897 91.5007 107.772C91.8163 107.646 92.0884 107.472 92.3171 107.25C92.5457 107.028 92.7229 106.762 92.8485 106.453C92.9741 106.144 93.0369 105.809 93.0369 105.448C93.0369 105.023 92.9677 104.654 92.8292 104.342C92.6907 104.029 92.5103 103.768 92.2881 103.559C92.0659 103.35 91.813 103.193 91.5296 103.09C91.2462 102.987 90.9628 102.936 90.6794 102.936C90.3187 102.936 90.0014 103.007 89.7277 103.148C89.4539 103.29 89.2397 103.483 89.0851 103.728H89.0657V100.974ZM91.491 106.487C91.2333 106.754 90.8919 106.888 90.4668 106.888C90.0417 106.888 89.7019 106.754 89.4475 106.487C89.193 106.219 89.0657 105.873 89.0657 105.448C89.0657 105.023 89.193 104.677 89.4475 104.409C89.7019 104.142 90.0417 104.008 90.4668 104.008C90.8919 104.008 91.2333 104.142 91.491 104.409C91.7486 104.677 91.8774 105.023 91.8774 105.448C91.8774 105.873 91.7486 106.219 91.491 106.487ZM103.371 106.863C103.464 106.615 103.511 106.327 103.511 105.999V105.873H102.361V105.999C102.361 106.327 102.287 106.557 102.139 106.689C101.991 106.822 101.797 106.888 101.559 106.888C101.321 106.888 101.127 106.82 100.979 106.685C100.831 106.549 100.757 106.321 100.757 105.999V104.105H103.221V103.061H100.757V101.467H99.6071V105.999C99.6071 106.327 99.6539 106.615 99.7472 106.863C99.8407 107.111 99.9743 107.316 100.148 107.477C100.322 107.638 100.528 107.759 100.767 107.839C101.005 107.92 101.269 107.96 101.559 107.96C101.849 107.96 102.113 107.92 102.351 107.839C102.59 107.759 102.796 107.638 102.97 107.477C103.144 107.316 103.277 107.111 103.371 106.863ZM105.259 105.854V105.873C105.337 106.195 105.493 106.45 105.728 106.636C105.963 106.823 106.261 106.917 106.622 106.917C107.137 106.917 107.514 106.765 107.752 106.462H108.979C108.799 106.92 108.503 107.284 108.09 107.554C107.678 107.825 107.189 107.96 106.622 107.96C106.242 107.96 105.896 107.897 105.583 107.772C105.271 107.646 105 107.472 104.772 107.25C104.543 107.028 104.366 106.762 104.24 106.453C104.115 106.144 104.052 105.809 104.052 105.448C104.052 105.087 104.115 104.752 104.24 104.443C104.366 104.134 104.543 103.868 104.772 103.646C105 103.424 105.271 103.25 105.583 103.124C105.896 102.999 106.242 102.936 106.622 102.936C106.995 102.936 107.34 102.999 107.656 103.124C107.971 103.25 108.24 103.424 108.462 103.646C108.685 103.868 108.859 104.134 108.984 104.443C109.11 104.752 109.173 105.087 109.173 105.448V105.854H105.259ZM105.767 104.231C105.995 104.063 106.28 103.979 106.622 103.979C106.957 103.979 107.24 104.063 107.472 104.231C107.704 104.398 107.865 104.627 107.955 104.917V104.936H105.288V104.917C105.379 104.627 105.538 104.398 105.767 104.231Z" fill="#456C91"/>
<path id="path4169" fill-rule="evenodd" clip-rule="evenodd" d="M76.4319 85.1042C82.7423 85.1042 87.8598 90.2217 87.8598 96.5321C87.8598 102.842 82.7423 107.96 76.4319 107.96C70.1215 107.96 65.0039 102.842 65.0039 96.5321C65.0039 90.2217 70.1215 85.1042 76.4319 85.1042ZM76.4319 86.353C82.0527 86.353 86.6109 90.9113 86.6109 96.5321C86.6109 102.153 82.0527 106.711 76.4319 106.711C70.8111 106.711 66.2528 102.153 66.2528 96.5321C66.2528 90.9113 70.8111 86.353 76.4319 86.353Z" fill="#456C91"/>
</g>
<rect id="Rectangle_38" x="60" y="118" width="37" height="3" rx="1.5" fill="#1560BD" fill-opacity="0.24"/>
<rect id="Rectangle_39" x="60" y="123" width="12" height="3" rx="1.5" fill="#1560BD" fill-opacity="0.22"/>
<rect id="Rectangle_40" x="74" y="123" width="23" height="3" rx="1.5" fill="#1560BD" fill-opacity="0.22"/>
<rect id="Rectangle_41" x="60" y="128" width="19" height="3" rx="1.5" fill="#1560BD" fill-opacity="0.22"/>
<rect id="Rectangle_42" x="101" y="118" width="16" height="3" rx="1.5" fill="#1560BD" fill-opacity="0.24"/>
<rect id="Rectangle_43" x="101" y="123" width="12" height="3" rx="1.5" fill="#1560BD" fill-opacity="0.22"/>
<rect id="Rectangle_44" x="101" y="128" width="19" height="3" rx="1.5" fill="#1560BD" fill-opacity="0.22"/>
<rect id="Rectangle_45" x="81" y="128" width="16" height="3" rx="1.5" fill="#1560BD" fill-opacity="0.22"/>
</g>
</g>
</svg>
