<?xml version="1.0" encoding="UTF-8"?>
<svg width="160px" height="160px" viewBox="0 0 160 160" version="1.1" xmlns="http://www.w3.org/2000/svg" xmlns:xlink="http://www.w3.org/1999/xlink">
    <title>icon 06</title>
    <g id="Illustration" stroke="none" stroke-width="1" fill="none" fill-rule="evenodd">
        <g id="icon-06" transform="translate(1.000000, 1.000000)">
            <g id="Group-21">
                <g id="Group" fill="#4A90E2" fill-opacity="0.8" stroke="#1560BD" stroke-width="2">
                    <g id="rings">
                        <circle id="Oval" opacity="0.015" cx="79" cy="79" r="79"></circle>
                        <ellipse id="Oval" opacity="0.04" cx="79.4968553" cy="79.5" rx="71.5471698" ry="71.5"></ellipse>
                        <ellipse id="Oval" opacity="0.07" cx="79.4968553" cy="79.5" rx="62.6037736" ry="62.5"></ellipse>
                        <ellipse id="Oval" opacity="0.13" cx="79.4968553" cy="79" rx="43.7232704" ry="44"></ellipse>
                        <ellipse id="Oval" opacity="0.1" cx="79.4968553" cy="79" rx="19.8742138" ry="20"></ellipse>
                    </g>
                </g>
                <g id="Group-20" opacity="0.5" transform="translate(83.000000, 26.000000)">
                    <rect id="Rectangle" stroke="#1560BD" stroke-width="2" fill-opacity="0.12" fill="#4A90E2" x="7" y="7" width="45" height="43"></rect>
                    <rect id="Rectangle" stroke="#1560BD" stroke-width="2" fill-opacity="0.12" fill="#FFFFFF" x="0" y="0" width="59" height="57"></rect>
                    <polygon id="Rectangle" fill="#4A90E2" opacity="0.100000001" points="9 8 51 8 9 42"></polygon>
                </g>
                <line x1="47.0934497" y1="147.5" x2="148.5" y2="147.5" id="Path-4" stroke="#1560BD" stroke-width="2" opacity="0.200000003" stroke-linecap="round"></line>
                <line x1="43" y1="147.5" x2="44" y2="147.5" id="Path-4" stroke="#1560BD" stroke-width="2" opacity="0.200000003" stroke-linecap="round"></line>
                <line x1="152" y1="147.5" x2="155" y2="147.5" id="Path-4" stroke="#1560BD" stroke-width="2" opacity="0.200000003" stroke-linecap="round"></line>
            </g>
            <g id="Group-15" transform="translate(20.000000, 31.000000)">
                <rect id="Rectangle" stroke="#1560BD" stroke-width="2" x="41.5849057" y="8.75471698" width="22.9811321" height="90.8301887"></rect>
                <g id="Group-13" transform="translate(15.320755, 0.000000)">
                    <rect id="Rectangle" stroke="#1560BD" stroke-width="2" fill="#A6CFFF" x="0" y="0" width="22.9811321" height="99.5849057" rx="1"></rect>
                    <rect id="Rectangle" stroke="#1560BD" stroke-width="2" opacity="0.200000003" x="0" y="7.66037736" width="22.9811321" height="68.9433962"></rect>
                    <rect id="Rectangle" stroke="#1560BD" stroke-width="2" opacity="0.200000003" transform="translate(11.490566, 87.000000) scale(1, -1) translate(-11.490566, -87.000000) " x="0" y="82.0754717" width="22.9811321" height="9.8490566"></rect>
                    <rect id="Rectangle" fill="#FFFFFF" opacity="0.2" x="1.09433962" y="1.09433962" width="3.28301887" height="97.3962264"></rect>
                    <rect id="Rectangle" fill="#1560BD" opacity="0.2" x="18.6037736" y="1.09433962" width="3.28301887" height="97.3962264"></rect>
                    <circle id="Oval" stroke="#FFFFFF" stroke-width="2" opacity="0.5" cx="11.490566" cy="18.0566038" r="6.01886792"></circle>
                    <rect id="Rectangle" fill="#FFFFFF" opacity="0.5" x="9.8490566" y="29.5471698" width="2.18867925" height="21.8867925" rx="1"></rect>
                    <rect id="Rectangle" fill="#FFFFFF" opacity="0.5" x="13.1320755" y="29.5471698" width="3.28301887" height="26.2641509" rx="1.5"></rect>
                    <rect id="Rectangle" fill="#FFFFFF" opacity="0.5" x="6.56603774" y="29.5471698" width="2.18867925" height="32.8301887" rx="1"></rect>
                    <circle id="Oval" stroke="#FFFFFF" stroke-width="2" cx="11.490566" cy="18.0566038" r="2.73584906"></circle>
                </g>
                <rect id="Rectangle" stroke="#1560BD" stroke-width="2" fill="#4A90E2" x="39.3962264" y="5.47169811" width="3.28301887" height="94.1132075" rx="1"></rect>
                <rect id="Rectangle" stroke="#1560BD" stroke-width="2" fill="#4A90E2" x="61.2830189" y="5.47169811" width="3.28301887" height="94.1132075" rx="1"></rect>
                <path d="M47.4545455,9.8490566 L47.4545455,96.3018868 L44.8679245,96.3018868 L44.8679245,9.8490566 L47.4545455,9.8490566 Z M51.3344768,9.8490566 L51.3344768,96.3018868 L48.7478559,96.3018868 L48.7478559,9.8490566 L51.3344768,9.8490566 Z M55.2144082,9.8490566 L55.2144082,96.3018868 L52.6277873,96.3018868 L52.6277873,9.8490566 L55.2144082,9.8490566 Z M59.0943396,9.8490566 L59.0943396,96.3018868 L56.5077187,96.3018868 L56.5077187,9.8490566 L59.0943396,9.8490566 Z" id="Shape" fill="#1560BD" opacity="0.2"></path>
                <g id="Group-14" transform="translate(79.550073, 52.528302) rotate(-5.000000) translate(-79.550073, -52.528302) translate(68.943396, 6.566038)">
                    <g id="Group-13">
                        <rect id="Rectangle" stroke="#1560BD" stroke-width="2" fill="#D0E6FF" x="0" y="0" width="21.2133527" height="91.9245283" rx="1"></rect>
                        <rect id="Rectangle" stroke="#1560BD" stroke-width="2" opacity="0.200000003" x="0" y="7.07111756" width="21.2133527" height="63.6400581"></rect>
                        <rect id="Rectangle" fill="#FFFFFF" opacity="0.2" x="1.01015965" y="1.01015965" width="3.03047896" height="89.904209"></rect>
                        <rect id="Rectangle" fill="#1560BD" opacity="0.2" x="18.1828737" y="1.01015965" width="2.0203193" height="89.904209"></rect>
                        <rect id="Rectangle" fill="#FFFFFF" opacity="0.5" x="13.1320755" y="36.3657475" width="2.0203193" height="14.1422351" rx="1.01015965"></rect>
                        <rect id="Rectangle" fill="#FFFFFF" opacity="0.5" x="13.1320755" y="52.5283019" width="2.0203193" height="4.04063861" rx="1.01015965"></rect>
                        <rect id="Rectangle" fill="#FFFFFF" opacity="0.5" x="6.06095791" y="36.3657475" width="2.0203193" height="13.1320755" rx="1"></rect>
                    </g>
                    <rect id="Rectangle" fill="#1560BD" opacity="0.2" x="1.01015965" y="1.01015965" width="2.0203193" height="89.904209"></rect>
                    <rect id="Rectangle" fill="#FFFFFF" opacity="0.5" x="9.09143687" y="36.3657475" width="2.0203193" height="26.2641509" rx="1"></rect>
                    <rect id="Rectangle" stroke="#FFFFFF" stroke-width="2" x="7.06095791" y="11.1015965" width="7.09143687" height="18.203193" rx="1"></rect>
                    <rect id="Rectangle" stroke="#FFFFFF" stroke-width="2" x="7.06095791" y="75.7518142" width="7.09143687" height="6.08127721" rx="1"></rect>
                </g>
                <g id="Group-12" transform="translate(0.000000, 97.396226)">
                    <path d="M4.87735849,6.56603774 L13.5125651,6.56603774 C13.7887075,6.56603774 14.0125651,6.78989536 14.0125651,7.06603774 C14.0125651,7.12431399 14.0023773,7.18214162 13.9824618,7.23690927 L9.96873968,18.2746451 C9.8968871,18.4722397 9.70909619,18.6037736 9.49884297,18.6037736 L4.87735849,18.6037736 C4.60121612,18.6037736 4.37735849,18.379916 4.37735849,18.1037736 L4.37735849,7.06603774 C4.37735849,6.78989536 4.60121612,6.56603774 4.87735849,6.56603774 Z" id="Rectangle" stroke="#1560BD" stroke-width="2" fill="#4A90E2"></path>
                    <path d="M113.216981,6.56603774 L121.852188,6.56603774 C122.12833,6.56603774 122.352188,6.78989536 122.352188,7.06603774 C122.352188,7.12431399 122.342,7.18214162 122.322084,7.23690927 L118.308362,18.2746451 C118.23651,18.4722397 118.048719,18.6037736 117.838466,18.6037736 L113.216981,18.6037736 C112.940839,18.6037736 112.716981,18.379916 112.716981,18.1037736 L112.716981,7.06603774 C112.716981,6.78989536 112.940839,6.56603774 113.216981,6.56603774 Z" id="Rectangle" stroke="#1560BD" stroke-width="2" fill="#4A90E2" transform="translate(117.641509, 12.584906) scale(-1, 1) translate(-117.641509, -12.584906) "></path>
                    <rect id="Rectangle" stroke="#1560BD" stroke-width="2" fill="#4A90E2" x="0" y="0" width="126.943396" height="12.0377358" rx="0.5"></rect>
                    <rect id="Rectangle" fill="#7CB3F4" x="1.09433962" y="1.09433962" width="124.754717" height="2.18867925"></rect>
                </g>
            </g>
            <g id="Group-33" transform="translate(74.000000, 75.000000)">
                <circle id="Oval" stroke="#1560BD" stroke-width="2" fill="#FFFFFF" cx="36.6655232" cy="36" r="36"></circle>
                <path d="M64.2414496,12.8563584 C69.4989107,19.1141278 72.6655232,27.1872629 72.6655232,36 C72.6655232,44.8125845 69.4990204,52.8855926 64.2417227,59.1433165 C57.6375497,54.7755779 47.7349803,52 36.6655232,52 C25.596066,52 15.6934966,54.7755779 9.08969824,59.1423542 C3.83202592,52.8855926 0.665523156,44.8125845 0.665523156,36 C0.665523156,27.1872629 3.83213558,19.1141278 9.08959667,12.8563584 C15.6934966,17.2244221 25.596066,20 36.6655232,20 C47.6007612,20 57.3972374,17.2913227 63.9996803,13.0157857 Z" id="Combined-Shape" stroke="#1560BD" stroke-width="2" fill="#FFFFFF" opacity="0.24"></path>
                <ellipse id="Oval" stroke="#1560BD" stroke-width="2" opacity="0.24" cx="36.6655232" cy="36" rx="20" ry="36"></ellipse>
                <line x1="0.665523156" y1="36" x2="72.2692967" y2="36" id="Path-7" stroke="#1560BD" stroke-width="2" fill="#D8D8D8" opacity="0.24"></line>
                <line x1="36.5" y1="0.165523156" x2="36.5" y2="71.7692967" id="Path-7" stroke="#1560BD" stroke-width="2" fill="#D8D8D8" opacity="0.24"></line>
                <rect id="Rectangle" fill="#FFFFFF" x="12.6655232" y="26" width="49" height="21"></rect>
                <text id="WIKI" font-family="Nunito-Bold, Nunito" font-size="19" font-weight="bold" fill="#1560BD">
                    <tspan x="14.5115232" y="43">WIKI</tspan>
                </text>
            </g>
        </g>
    </g>
</svg>