<?xml version="1.0" encoding="UTF-8"?>
<svg width="147px" height="147px" viewBox="0 0 147 147" version="1.1" xmlns="http://www.w3.org/2000/svg" xmlns:xlink="http://www.w3.org/1999/xlink">
    <title>icon 23</title>
    <g id="Illustration" stroke="none" stroke-width="1" fill="none" fill-rule="evenodd">
        <g id="icon-23" transform="translate(1.000000, 1.000000)">
            <g id="News">
                <g id="Group-31" opacity="0.5" transform="translate(7.000000, 18.000000)">
                    <path d="M30,0 C32.209139,-4.05812251e-16 34,1.790861 34,4 L34,20 C34,22.209139 32.209139,24 30,24 L25,24 L25,31 L18,24 L4,24 C1.790861,24 2.705415e-16,22.209139 0,20 L0,4 C-2.705415e-16,1.790861 1.790861,4.05812251e-16 4,0 L30,0 Z" id="Combined-Shape" stroke="#1560BD" stroke-width="2" fill="#FFFFFF" stroke-linejoin="round"></path>
                    <rect id="Rectangle" fill="#4A90E2" x="5" y="6" width="24" height="2" rx="1"></rect>
                    <rect id="Rectangle" fill="#4A90E2" x="5" y="11" width="24" height="2" rx="1"></rect>
                    <rect id="Rectangle" fill="#4A90E2" x="5" y="16" width="18" height="2" rx="1"></rect>
                </g>
                <g id="Group" fill="#4A90E2" fill-opacity="0.8" stroke="#1560BD" stroke-width="2">
                    <g id="rings">
                        <circle id="Oval" opacity="0.015" cx="72.5" cy="72.5" r="72.5"></circle>
                        <ellipse id="Oval" opacity="0.04" cx="72.9559748" cy="72.9588608" rx="65.6603774" ry="65.6170886"></ellipse>
                        <ellipse id="Oval" opacity="0.07" cx="72.9559748" cy="72.9588608" rx="57.4528302" ry="57.3575949"></ellipse>
                        <ellipse id="Oval" opacity="0.13" cx="72.9559748" cy="72.5" rx="40.1257862" ry="40.3797468"></ellipse>
                        <ellipse id="Oval" opacity="0.1" cx="72.9559748" cy="72.5" rx="18.2389937" ry="18.3544304"></ellipse>
                    </g>
                </g>
                <g id="Group-4" opacity="0.5" transform="translate(93.000000, 25.000000)">
                    <rect id="Rectangle" stroke="#1560BD" stroke-width="2" fill="#FFFFFF" x="0" y="0" width="33" height="42" rx="2"></rect>
                    <rect id="Rectangle" stroke="#1560BD" stroke-width="2" fill-opacity="0.12" fill="#4A90E2" x="0" y="3" width="33" height="32"></rect>
                    <polygon id="Rectangle" fill="#4A90E2" opacity="0.100000001" points="1 4 32 4 1 29"></polygon>
                    <circle id="Oval" stroke="#1560BD" stroke-width="2" fill="#4A90E2" cx="16.5" cy="38.5" r="1"></circle>
                </g>
                <g id="Group-2" transform="translate(25.000000, 34.000000)">
                    <path d="M88,87 C88,89.209139 86.209139,91 84,91 L84,91 L6,91 C3.790861,91 2,89.209139 2,87 L2,87 L2,82 L11,82 L11,0 L88,0 Z" id="Combined-Shape" stroke="#1560BD" stroke-width="2" fill="#FFFFFF"></path>
                    <path d="M0,38 L11,38 L11,86 C11,88.7614237 8.76142375,91 6,91 L5,91 C2.23857625,91 3.38176876e-16,88.7614237 0,86 L0,38 L0,38 Z" id="Rectangle" stroke="#1560BD" stroke-width="2" fill="#D9E5F2"></path>
                    <path d="M1,85.472 L1.0456928,85.5128405 C2.03955625,86.3847345 3.32492729,86.934056 4.74046947,86.9944709 L4.97870591,86.9997733 L84,87 L84.2241536,86.9948042 L84.4508773,86.9786602 C85.3519692,86.8943998 86.1817247,86.5756525 86.8789356,86.084597 L87,85.996 L87,87 C87,88.600955 85.7424301,89.9180655 84.1505472,89.9963105 L83.9754867,90.0003005 L5,90 C2.790861,90 1,88.209139 1,86 L1,85.472 Z" id="Combined-Shape" fill="#1560BD" fill-rule="nonzero" opacity="0.119999997"></path>
                    <rect id="Rectangle" fill="#E5E5EA" x="17" y="57" width="9" height="3" rx="1.5"></rect>
                    <rect id="Rectangle" fill="#E5E5EA" x="27" y="57" width="8" height="3" rx="1.5"></rect>
                    <rect id="Rectangle" fill="#E5E5EA" x="17" y="77" width="9" height="3" rx="1.5"></rect>
                    <rect id="Rectangle" fill="#E5E5EA" x="27" y="77" width="6" height="3" rx="1.5"></rect>
                    <rect id="Rectangle" fill="#E5E5EA" x="17" y="62" width="6" height="3" rx="1.5"></rect>
                    <rect id="Rectangle" fill="#E5E5EA" x="24" y="62" width="11" height="3" rx="1.5"></rect>
                    <rect id="Rectangle" fill="#E5E5EA" x="40" y="57" width="18" height="3" rx="1.5"></rect>
                    <rect id="Rectangle" fill="#E5E5EA" x="63" y="32" width="18" height="3" rx="1.5"></rect>
                    <rect id="Rectangle" fill="#E5E5EA" x="40" y="62" width="6" height="3" rx="1.5"></rect>
                    <rect id="Rectangle" fill="#E5E5EA" x="47" y="62" width="11" height="3" rx="1.5"></rect>
                    <rect id="Rectangle" fill="#E5E5EA" x="63" y="62" width="18" height="3" rx="1.5"></rect>
                    <rect id="Rectangle" fill="#E5E5EA" x="63" y="57" width="6" height="3" rx="1.5"></rect>
                    <rect id="Rectangle" fill="#E5E5EA" x="70" y="57" width="11" height="3" rx="1.5"></rect>
                    <rect id="Rectangle" fill="#E5E5EA" x="17" y="67" width="9" height="3" rx="1.5"></rect>
                    <rect id="Rectangle" fill="#E5E5EA" x="21" y="72" width="9" height="3" rx="1.5"></rect>
                    <rect id="Rectangle" fill="#E5E5EA" x="31" y="72" width="4" height="3" rx="1.5"></rect>
                    <rect id="Rectangle" fill="#E5E5EA" x="27" y="67" width="8" height="3" rx="1.5"></rect>
                    <rect id="Rectangle" fill="#E5E5EA" x="63" y="37" width="6" height="3" rx="1.5"></rect>
                    <rect id="Rectangle" fill="#E5E5EA" x="70" y="37" width="11" height="3" rx="1.5"></rect>
                    <rect id="Rectangle" fill="#E5E5EA" x="63" y="42" width="9" height="3" rx="1.5"></rect>
                    <rect id="Rectangle" fill="#E5E5EA" x="73" y="42" width="8" height="3" rx="1.5"></rect>
                    <rect id="Rectangle" fill="#E5E5EA" x="17" y="72" width="3" height="3" rx="1.5"></rect>
                    <rect id="Rectangle" fill="#E5E5EA" x="63" y="47" width="5" height="3" rx="1.5"></rect>
                    <rect id="Rectangle" fill="#E5E5EA" x="67" y="52" width="9" height="3" rx="1.5"></rect>
                    <rect id="Rectangle" fill="#E5E5EA" x="77" y="52" width="4" height="3" rx="1.5"></rect>
                    <rect id="Rectangle" fill="#E5E5EA" x="69" y="47" width="12" height="3" rx="1.5"></rect>
                    <rect id="Rectangle" fill="#E5E5EA" x="63" y="52" width="3" height="3" rx="1.5"></rect>
                </g>
                <rect id="Rectangle" stroke="#1560BD" stroke-width="2" fill-opacity="0.12" fill="#4A90E2" x="42" y="66" width="41" height="21"></rect>
                <rect id="Rectangle" stroke="#1560BD" stroke-width="2" fill-opacity="0.12" fill="#4A90E2" x="65" y="103" width="41" height="11"></rect>
                <rect id="Rectangle" fill="#1560BD" x="51" y="42" width="24" height="3" rx="1.5"></rect>
                <rect id="Rectangle" fill="#1560BD" x="41" y="42" width="7" height="3" rx="1.5"></rect>
                <polygon id="Rectangle" fill="#4A90E2" opacity="0.100000001" points="43 67 82 67 43 84"></polygon>
                <line x1="18.0934497" y1="125" x2="119.5" y2="125" id="Path-4" stroke="#1560BD" stroke-width="2" opacity="0.200000003" stroke-linecap="round"></line>
                <line x1="14" y1="125" x2="15" y2="125" id="Path-4" stroke="#1560BD" stroke-width="2" opacity="0.200000003" stroke-linecap="round"></line>
                <line x1="123" y1="125" x2="126" y2="125" id="Path-4" stroke="#1560BD" stroke-width="2" opacity="0.200000003" stroke-linecap="round"></line>
            </g>
            <g id="Group-78" transform="translate(17.000000, 42.000000)">
                <rect id="Rectangle" stroke="#1560BD" stroke-width="2" fill="#C8DDF6" x="0" y="0" width="79" height="55" rx="4"></rect>
                <path d="M75,25 C76.0167667,25 76.9449276,25.379366 77.6506591,26.0042741 L45.3395351,53.0909204 C41.9983922,55.8919109 37.1300695,55.8952641 33.7850712,53.0988789 L1.36138046,25.9936561 C2.06561251,25.3750713 2.98900496,25 4,25 L75,25 Z" id="Combined-Shape" stroke="#1560BD" stroke-width="2" fill="#E5F1FF" transform="translate(39.506020, 40.096959) scale(1, -1) translate(-39.506020, -40.096959) "></path>
                <path d="M75,51 L75.1762728,51.0050927 C76.75108,51.0963391 78,52.4023191 78,54 L78,55.001 L77.8343308,54.8801525 C77.0937155,54.369552 76.2077508,54.0532392 75.2487335,54.0061011 L75.0245133,54.0003005 L4,54 L3.77874587,54.0048178 C2.84503493,54.045557 1.97607447,54.3428797 1.24213678,54.8289447 L1,55.001 L1,54 C1,52.3431458 2.34314575,51 4,51 L75,51 Z" id="Combined-Shape" fill="#1560BD" fill-rule="nonzero" opacity="0.200000003" transform="translate(39.500000, 53.000500) scale(1, -1) translate(-39.500000, -53.000500) "></path>
                <path d="M75,-3.55271368e-15 C77.1231657,-3.9427329e-15 78.8599763,1.65418313 78.9919439,3.74406162 L45.227308,33.1254945 C41.8458762,36.0680838 36.8144913,36.0737768 33.4264091,33.1388473 L-1.82609483e-12,4.183 L-1.82609483e-12,4 C-1.82636537e-12,1.790861 1.790861,-3.14690143e-15 4,-3.55271368e-15 L75,-3.55271368e-15 Z" id="Combined-Shape" fill="#1560BD" opacity="0.2"></path>
                <path d="M75,-1.77635684e-15 C76.0167667,-1.96313384e-15 76.9449276,0.37936598 77.6506591,1.00427414 L45.3395351,28.0909204 C41.9983922,30.8919109 37.1300695,30.8952641 33.7850712,28.0988789 L1.36138046,0.993656143 C2.06561251,0.375071311 2.98900496,-1.59064006e-15 4,-1.77635684e-15 L75,-1.77635684e-15 Z" id="Combined-Shape" stroke="#1560BD" stroke-width="2" fill="#E5F1FF"></path>
            </g>
        </g>
    </g>
</svg>