<?xml version="1.0" encoding="UTF-8"?>
<svg width="160px" height="160px" viewBox="0 0 160 160" version="1.1" xmlns="http://www.w3.org/2000/svg" xmlns:xlink="http://www.w3.org/1999/xlink">
    <title>icon 24</title>
    <g id="Illustration" stroke="none" stroke-width="1" fill="none" fill-rule="evenodd">
        <g id="icon-24" transform="translate(1.000000, 1.000000)">
            <g id="Group-30">
                <g id="Group" fill="#4A90E2" fill-opacity="0.8" stroke="#1560BD" stroke-width="2">
                    <g id="rings">
                        <circle id="Oval" opacity="0.015" cx="79" cy="79" r="79"></circle>
                        <ellipse id="Oval" opacity="0.04" cx="79.4968553" cy="79.5" rx="71.5471698" ry="71.5"></ellipse>
                        <ellipse id="Oval" opacity="0.07" cx="79.4968553" cy="79.5" rx="62.6037736" ry="62.5"></ellipse>
                        <ellipse id="Oval" opacity="0.13" cx="79.4968553" cy="79" rx="43.7232704" ry="44"></ellipse>
                        <ellipse id="Oval" opacity="0.1" cx="79.4968553" cy="79" rx="19.8742138" ry="20"></ellipse>
                    </g>
                </g>
                <g id="Group-15" opacity="0.5" transform="translate(21.000000, 62.000000)">
                    <rect id="Rectangle" stroke="#1560BD" stroke-width="2" x="27.245283" y="5.73584906" width="15.0566038" height="59.509434"></rect>
                    <g id="Group-13" transform="translate(10.037736, 0.000000)">
                        <rect id="Rectangle" stroke="#1560BD" stroke-width="2" fill="#A6CFFF" x="0" y="0" width="15.0566038" height="65.245283" rx="1"></rect>
                        <rect id="Rectangle" stroke="#1560BD" stroke-width="2" opacity="0.200000003" x="0" y="5.01886792" width="15.0566038" height="45.1698113"></rect>
                        <rect id="Rectangle" stroke="#1560BD" stroke-width="2" opacity="0.200000003" transform="translate(7.528302, 57.000000) scale(1, -1) translate(-7.528302, -57.000000) " x="0" y="53.7735849" width="15.0566038" height="6.45283019"></rect>
                        <rect id="Rectangle" fill="#FFFFFF" opacity="0.2" x="0.716981132" y="0.716981132" width="2.1509434" height="63.8113208"></rect>
                        <rect id="Rectangle" fill="#1560BD" opacity="0.2" x="12.1886792" y="0.716981132" width="2.1509434" height="63.8113208"></rect>
                        <circle id="Oval" stroke="#FFFFFF" stroke-width="2" opacity="0.5" cx="7.52830189" cy="11.8301887" r="3.94339623"></circle>
                        <rect id="Rectangle" fill="#FFFFFF" opacity="0.5" x="6.45283019" y="19.3584906" width="1.43396226" height="14.3396226" rx="0.716981132"></rect>
                        <rect id="Rectangle" fill="#FFFFFF" opacity="0.5" x="8.60377358" y="19.3584906" width="2.1509434" height="17.2075472" rx="1.0754717"></rect>
                        <rect id="Rectangle" fill="#FFFFFF" opacity="0.5" x="4.30188679" y="19.3584906" width="1.43396226" height="21.509434" rx="0.716981132"></rect>
                        <circle id="Oval" stroke="#FFFFFF" stroke-width="2" cx="7.52830189" cy="11.8301887" r="1.79245283"></circle>
                    </g>
                    <rect id="Rectangle" stroke="#1560BD" stroke-width="2" fill="#4A90E2" x="25.8113208" y="3.58490566" width="2.1509434" height="61.6603774" rx="1"></rect>
                    <rect id="Rectangle" stroke="#1560BD" stroke-width="2" fill="#4A90E2" x="40.1509434" y="3.58490566" width="2.1509434" height="61.6603774" rx="1"></rect>
                    <path d="M31.0909091,6.45283019 L31.0909091,63.0943396 L29.3962264,63.0943396 L29.3962264,6.45283019 L31.0909091,6.45283019 Z M33.6329331,6.45283019 L33.6329331,63.0943396 L31.9382504,63.0943396 L31.9382504,6.45283019 L33.6329331,6.45283019 Z M36.1749571,6.45283019 L36.1749571,63.0943396 L34.4802744,63.0943396 L34.4802744,6.45283019 L36.1749571,6.45283019 Z M38.7169811,6.45283019 L38.7169811,63.0943396 L37.0222985,63.0943396 L37.0222985,6.45283019 L38.7169811,6.45283019 Z" id="Shape" fill="#1560BD" opacity="0.2"></path>
                    <g id="Group-14" transform="translate(52.119013, 34.415094) rotate(-5.000000) translate(-52.119013, -34.415094) translate(45.169811, 4.301887)">
                        <g id="Group-13">
                            <rect id="Rectangle" stroke="#1560BD" stroke-width="2" fill="#D0E6FF" x="0" y="0" width="13.8984035" height="60.2264151" rx="1"></rect>
                            <rect id="Rectangle" stroke="#1560BD" stroke-width="2" opacity="0.200000003" x="0" y="4.63280116" width="13.8984035" height="41.6952104"></rect>
                            <rect id="Rectangle" fill="#FFFFFF" opacity="0.2" x="0.661828737" y="0.661828737" width="1.98548621" height="58.9027576"></rect>
                            <rect id="Rectangle" fill="#1560BD" opacity="0.2" x="11.9129173" y="0.661828737" width="1.32365747" height="58.9027576"></rect>
                            <rect id="Rectangle" fill="#FFFFFF" opacity="0.5" x="8.60377358" y="23.8258345" width="1.32365747" height="9.26560232" rx="0.661828737"></rect>
                            <rect id="Rectangle" fill="#FFFFFF" opacity="0.5" x="8.60377358" y="34.4150943" width="1.32365747" height="2.64731495" rx="0.661828737"></rect>
                            <rect id="Rectangle" fill="#FFFFFF" opacity="0.5" x="3.97097242" y="23.8258345" width="1.32365747" height="8.60377358" rx="0.661828737"></rect>
                        </g>
                        <rect id="Rectangle" fill="#1560BD" opacity="0.2" x="0.661828737" y="0.661828737" width="1.32365747" height="58.9027576"></rect>
                        <rect id="Rectangle" fill="#FFFFFF" opacity="0.5" x="5.95645864" y="23.8258345" width="1.32365747" height="17.2075472" rx="0.661828737"></rect>
                        <rect id="Rectangle" stroke="#FFFFFF" stroke-width="2" x="4.97097242" y="7.61828737" width="3.95645864" height="11.2365747" rx="1"></rect>
                        <rect id="Rectangle" stroke="#FFFFFF" stroke-width="2" x="4.97097242" y="49.9753266" width="3.95645864" height="3.2946299" rx="1"></rect>
                    </g>
                    <g id="Group-12" transform="translate(0.000000, 63.811321)">
                        <path d="M3.36792453,4.30188679 L8.60690472,4.30188679 C8.8830471,4.30188679 9.10690472,4.52574442 9.10690472,4.80188679 C9.10690472,4.86016305 9.09671694,4.91799068 9.07680143,4.97275832 L6.57251327,11.8595508 C6.50066069,12.0571454 6.31286978,12.1886792 6.10261656,12.1886792 L3.36792453,12.1886792 C3.09178215,12.1886792 2.86792453,11.9648216 2.86792453,11.6886792 L2.86792453,4.80188679 C2.86792453,4.52574442 3.09178215,4.30188679 3.36792453,4.30188679 Z" id="Rectangle" stroke="#1560BD" stroke-width="2" fill="#4A90E2"></path>
                        <path d="M74.3490566,4.30188679 L79.5880368,4.30188679 C79.8641792,4.30188679 80.0880368,4.52574442 80.0880368,4.80188679 C80.0880368,4.86016305 80.077849,4.91799068 80.0579335,4.97275832 L77.5536453,11.8595508 C77.4817928,12.0571454 77.2940019,12.1886792 77.0837486,12.1886792 L74.3490566,12.1886792 C74.0729142,12.1886792 73.8490566,11.9648216 73.8490566,11.6886792 L73.8490566,4.80188679 C73.8490566,4.52574442 74.0729142,4.30188679 74.3490566,4.30188679 Z" id="Rectangle" stroke="#1560BD" stroke-width="2" fill="#4A90E2" transform="translate(77.075472, 8.245283) scale(-1, 1) translate(-77.075472, -8.245283) "></path>
                        <rect id="Rectangle" stroke="#1560BD" stroke-width="2" fill="#4A90E2" x="0" y="0" width="83.1698113" height="7.88679245" rx="0.5"></rect>
                        <rect id="Rectangle" fill="#7CB3F4" x="0.716981132" y="0.716981132" width="81.7358491" height="1.43396226"></rect>
                    </g>
                </g>
                <g id="Group-74" transform="translate(60.000000, 30.380000)">
                    <g id="Group-29" opacity="0.5" transform="translate(59.000000, 112.120000)" stroke="#1560BD" stroke-linejoin="round" stroke-width="2">
                        <rect id="Rectangle" fill="#C4DEFC" x="7" y="3.83333333" width="7.08333333" height="2.83333333"></rect>
                        <rect id="Rectangle" fill="#8DBFF9" transform="translate(4.541667, 3.416667) rotate(-30.000000) translate(-4.541667, -3.416667) " x="1" y="2" width="7.08333333" height="2.83333333"></rect>
                    </g>
                    <g id="Group-28" opacity="0.5" transform="translate(8.000000, 101.620000)" stroke="#1560BD" stroke-linejoin="round" stroke-width="2">
                        <g id="Group-27" transform="translate(4.250000, 5.666667)">
                            <rect id="Rectangle" fill="#C4DEFC" x="0" y="5.66666667" width="7.08333333" height="2.83333333"></rect>
                            <rect id="Rectangle" fill="#C4DEFC" x="0" y="0" width="7.08333333" height="2.83333333"></rect>
                            <rect id="Rectangle" fill="#8DBFF9" x="0" y="8.5" width="7.08333333" height="2.83333333"></rect>
                            <rect id="Rectangle" fill="#8DBFF9" x="0" y="2.83333333" width="7.08333333" height="2.83333333"></rect>
                        </g>
                        <g id="Group-27" transform="translate(0.000000, 8.500000)">
                            <rect id="Rectangle" fill="#C4DEFC" x="0" y="2.83333333" width="7.08333333" height="2.83333333"></rect>
                            <rect id="Rectangle" fill="#8DBFF9" x="0" y="5.66666667" width="7.08333333" height="2.83333333"></rect>
                            <rect id="Rectangle" fill="#8DBFF9" x="0" y="0" width="7.08333333" height="2.83333333"></rect>
                        </g>
                        <g id="Group-27" transform="translate(11.333333, 8.500000)">
                            <rect id="Rectangle" fill="#C4DEFC" x="0" y="2.83333333" width="7.08333333" height="2.83333333"></rect>
                            <rect id="Rectangle" fill="#8DBFF9" x="0" y="5.66666667" width="7.08333333" height="2.83333333"></rect>
                            <rect id="Rectangle" fill="#8DBFF9" x="0" y="0" width="7.08333333" height="2.83333333"></rect>
                        </g>
                        <g id="Group-27" transform="translate(11.333333, 0.000000)">
                            <rect id="Rectangle" fill="#C4DEFC" x="0" y="2.83333333" width="7.08333333" height="2.83333333"></rect>
                            <rect id="Rectangle" fill="#8DBFF9" x="0" y="5.66666667" width="7.08333333" height="2.83333333"></rect>
                            <rect id="Rectangle" fill="#8DBFF9" x="0" y="0" width="7.08333333" height="2.83333333"></rect>
                        </g>
                    </g>
                    <g id="Group-23">
                        <path d="M38.1686092,49.7893599 C40.4399065,55.8222749 41.5755552,60.7348005 41.5755552,64.5269366 C41.5755552,70.2151409 38.7201676,75.9462617 38.7201676,81.5365524 C38.7201676,85.2634129 39.2524763,89.2912288 40.3170938,93.62" id="Path-5" stroke="#1560BD" stroke-width="2" stroke-linecap="round" stroke-linejoin="round"></path>
                        <g id="Group-22">
                            <circle id="Oval" stroke="#1560BD" stroke-width="2" fill="#A1CBFF" cx="33.6492381" cy="33.62" r="23"></circle>
                            <circle id="Oval" fill="#B6D5F9" cx="33.6492381" cy="33.62" r="18"></circle>
                            <path d="M42.8466192,7.45429438 L42.8466192,49.1796689 C41.2534661,49.7140539 39.578936,50.071063 37.8464901,50.2272352 L37.8464901,6.40672805 C39.578936,6.56290023 41.2534661,6.91990941 42.8466192,7.45429438 Z M32.8465347,6.51972171 L32.8465347,50.1142416 C22.1151331,48.6513725 13.8458202,39.4498778 13.8458202,28.3169816 C13.8458202,17.1840854 22.1151331,7.98259076 32.8465347,6.51972171 Z" id="Combined-Shape" fill="#FFFFFF" fill-rule="nonzero" opacity="0.300000012" transform="translate(28.346220, 28.316982) rotate(-315.000000) translate(-28.346220, -28.316982) "></path>
                            <path d="M33.6492381,50.62 C34.2015228,50.62 34.6492381,51.0677153 34.6492381,51.62 C34.6492381,52.1722847 34.2015228,52.62 33.6492381,52.62 C33.0969533,52.62 32.6492381,52.1722847 32.6492381,51.62 C32.6492381,51.0677153 33.0969533,50.62 33.6492381,50.62 Z M39.2739067,50.7478458 C39.4168485,51.2813119 39.100266,51.8296489 38.5667999,51.9725907 C38.0333338,52.1155325 37.4849969,51.79895 37.3420551,51.2654839 C37.1991132,50.7320178 37.5156957,50.1836809 38.0491618,50.040739 C38.5826279,49.8977972 39.1309649,50.2143797 39.2739067,50.7478458 Z M29.2493143,50.040739 C29.7827804,50.1836809 30.0993629,50.7320178 29.9564211,51.2654839 C29.8134793,51.79895 29.2651423,52.1155325 28.7316762,51.9725907 C28.1982101,51.8296489 27.8816276,51.2813119 28.0245694,50.7478458 C28.1675112,50.2143797 28.7158482,49.8977972 29.2493143,50.040739 Z M43.5152635,48.7084573 C43.7914059,49.1867499 43.6275307,49.7983403 43.1492381,50.0744827 C42.6709455,50.350625 42.059355,50.1867499 41.7832127,49.7084573 C41.5070703,49.2301646 41.6709455,48.6185742 42.1492381,48.3424319 C42.6275307,48.0662895 43.2391211,48.2301646 43.5152635,48.7084573 Z M25.1492381,48.3424319 C25.6275307,48.6185742 25.7914059,49.2301646 25.5152635,49.7084573 C25.2391211,50.1867499 24.6275307,50.350625 24.1492381,50.0744827 C23.6709455,49.7983403 23.5070703,49.1867499 23.7832127,48.7084573 C24.059355,48.2301646 24.6709455,48.0662895 25.1492381,48.3424319 Z M47.0842669,45.6408153 C47.4747912,46.0313396 47.4747912,46.6645046 47.0842669,47.0550288 C46.6937426,47.4455531 46.0605776,47.4455531 45.6700534,47.0550288 C45.2795291,46.6645046 45.2795291,46.0313396 45.6700534,45.6408153 C46.0605776,45.250291 46.6937426,45.250291 47.0842669,45.6408153 Z M21.6284228,45.6408153 C22.0189471,46.0313396 22.0189471,46.6645046 21.6284228,47.0550288 C21.2378985,47.4455531 20.6047335,47.4455531 20.2142092,47.0550288 C19.8236849,46.6645046 19.8236849,46.0313396 20.2142092,45.6408153 C20.6047335,45.250291 21.2378985,45.250291 21.6284228,45.6408153 Z M18.9268062,42.12 C19.2029486,42.5982926 19.0390734,43.209883 18.5607808,43.4860254 C18.0824882,43.7621678 17.4708978,43.5982926 17.1947554,43.12 C16.918613,42.6417074 17.0824882,42.030117 17.5607808,41.7539746 C18.0390734,41.4778322 18.6506638,41.6417074 18.9268062,42.12 Z M49.7376953,41.7539746 C50.215988,42.030117 50.3798631,42.6417074 50.1037207,43.12 C49.8275784,43.5982926 49.215988,43.7621678 48.7376953,43.4860254 C48.2594027,43.209883 48.0955276,42.5982926 48.3716699,42.12 C48.6478123,41.6417074 49.2594027,41.4778322 49.7376953,41.7539746 Z M17.228499,38.0199238 C17.3714408,38.5533899 17.0548584,39.1017268 16.5213922,39.2446686 C15.9879261,39.3876104 15.4395892,39.071028 15.2966474,38.5375619 C15.1537056,38.0040958 15.4702881,37.4557588 16.0037542,37.312817 C16.5372203,37.1698752 17.0855572,37.4864577 17.228499,38.0199238 Z M51.294722,37.312817 C51.8281881,37.4557588 52.1447706,38.0040958 52.0018288,38.5375619 C51.858887,39.071028 51.31055,39.3876104 50.7770839,39.2446686 C50.2436178,39.1017268 49.9270353,38.5533899 50.0699771,38.0199238 C50.2129189,37.4864577 50.7612559,37.1698752 51.294722,37.312817 Z M15.6492381,32.62 C16.2015228,32.62 16.6492381,33.0677153 16.6492381,33.62 C16.6492381,34.1722847 16.2015228,34.62 15.6492381,34.62 C15.0969533,34.62 14.6492381,34.1722847 14.6492381,33.62 C14.6492381,33.0677153 15.0969533,32.62 15.6492381,32.62 Z M51.6492381,32.62 C52.2015228,32.62 52.6492381,33.0677153 52.6492381,33.62 C52.6492381,34.1722847 52.2015228,34.62 51.6492381,34.62 C51.0969533,34.62 50.6492381,34.1722847 50.6492381,33.62 C50.6492381,33.0677153 51.0969533,32.62 51.6492381,32.62 Z M52.0018288,28.7024381 C52.1447706,29.2359042 51.8281881,29.7842412 51.294722,29.927183 C50.7612559,30.0701248 50.2129189,29.7535423 50.0699771,29.2200762 C49.9270353,28.6866101 50.2436178,28.1382732 50.7770839,27.9953314 C51.31055,27.8523896 51.858887,28.168972 52.0018288,28.7024381 Z M16.5213922,27.9953314 C17.0548584,28.1382732 17.3714408,28.6866101 17.228499,29.2200762 C17.0855572,29.7535423 16.5372203,30.0701248 16.0037542,29.927183 C15.4702881,29.7842412 15.1537056,29.2359042 15.2966474,28.7024381 C15.4395892,28.168972 15.9879261,27.8523896 16.5213922,27.9953314 Z M50.1037207,24.12 C50.3798631,24.5982926 50.215988,25.209883 49.7376953,25.4860254 C49.2594027,25.7621678 48.6478123,25.5982926 48.3716699,25.12 C48.0955276,24.6417074 48.2594027,24.030117 48.7376953,23.7539746 C49.215988,23.4778322 49.8275784,23.6417074 50.1037207,24.12 Z M18.5607808,23.7539746 C19.0390734,24.030117 19.2029486,24.6417074 18.9268062,25.12 C18.6506638,25.5982926 18.0390734,25.7621678 17.5607808,25.4860254 C17.0824882,25.209883 16.918613,24.5982926 17.1947554,24.12 C17.4708978,23.6417074 18.0824882,23.4778322 18.5607808,23.7539746 Z M47.0842669,20.1849712 C47.4747912,20.5754954 47.4747912,21.2086604 47.0842669,21.5991847 C46.6937426,21.989709 46.0605776,21.989709 45.6700534,21.5991847 C45.2795291,21.2086604 45.2795291,20.5754954 45.6700534,20.1849712 C46.0605776,19.7944469 46.6937426,19.7944469 47.0842669,20.1849712 Z M21.6284228,20.1849712 C22.0189471,20.5754954 22.0189471,21.2086604 21.6284228,21.5991847 C21.2378985,21.989709 20.6047335,21.989709 20.2142092,21.5991847 C19.8236849,21.2086604 19.8236849,20.5754954 20.2142092,20.1849712 C20.6047335,19.7944469 21.2378985,19.7944469 21.6284228,20.1849712 Z M25.5152635,17.5315427 C25.7914059,18.0098354 25.6275307,18.6214258 25.1492381,18.8975681 C24.6709455,19.1737105 24.059355,19.0098354 23.7832127,18.5315427 C23.5070703,18.0532501 23.6709455,17.4416597 24.1492381,17.1655173 C24.6275307,16.889375 25.2391211,17.0532501 25.5152635,17.5315427 Z M43.1492381,17.1655173 C43.6275307,17.4416597 43.7914059,18.0532501 43.5152635,18.5315427 C43.2391211,19.0098354 42.6275307,19.1737105 42.1492381,18.8975681 C41.6709455,18.6214258 41.5070703,18.0098354 41.7832127,17.5315427 C42.059355,17.0532501 42.6709455,16.889375 43.1492381,17.1655173 Z M29.9564211,15.9745161 C30.0993629,16.5079822 29.7827804,17.0563191 29.2493143,17.199261 C28.7158482,17.3422028 28.1675112,17.0256203 28.0245694,16.4921542 C27.8816276,15.9586881 28.1982101,15.4103511 28.7316762,15.2674093 C29.2651423,15.1244675 29.8134793,15.44105 29.9564211,15.9745161 Z M38.5667999,15.2674093 C39.100266,15.4103511 39.4168485,15.9586881 39.2739067,16.4921542 C39.1309649,17.0256203 38.5826279,17.3422028 38.0491618,17.199261 C37.5156957,17.0563191 37.1991132,16.5079822 37.3420551,15.9745161 C37.4849969,15.44105 38.0333338,15.1244675 38.5667999,15.2674093 Z M33.6492381,14.62 C34.2015228,14.62 34.6492381,15.0677153 34.6492381,15.62 C34.6492381,16.1722847 34.2015228,16.62 33.6492381,16.62 C33.0969533,16.62 32.6492381,16.1722847 32.6492381,15.62 C32.6492381,15.0677153 33.0969533,14.62 33.6492381,14.62 Z" id="Combined-Shape" fill="#1560BD"></path>
                            <path d="M33.6492381,11.62 C45.7995026,11.62 55.6492381,21.4697355 55.6492381,33.62 C55.6492381,33.9552261 55.6417404,34.2887011 55.6269035,34.6202663 C55.1045271,22.9342549 45.464613,13.62 33.6492381,13.62 C21.8338631,13.62 12.193949,22.9342549 11.671528,34.6207324 C11.6567358,34.2887011 11.6492381,33.9552261 11.6492381,33.62 C11.6492381,21.4697355 21.4989736,11.62 33.6492381,11.62 Z" id="Combined-Shape" fill="#FFFFFF" fill-rule="nonzero" opacity="0.5"></path>
                            <path d="M55.6492381,33.62 C55.6492381,45.7702645 45.7995026,55.62 33.6492381,55.62 C21.4989736,55.62 11.6492381,45.7702645 11.6492381,33.62 C11.6492381,33.2845177 11.6567473,32.9507893 11.6716067,32.6189736 C12.1943655,44.3061475 21.8341184,53.62 33.6492381,53.62 C45.4643578,53.62 55.1041107,44.3061475 55.6269143,32.620025 C55.6417289,32.9507893 55.6492381,33.2845177 55.6492381,33.62 Z" id="Combined-Shape" fill="#1560BD" fill-rule="nonzero" opacity="0.5"></path>
                            <path d="M33.635457,60.1126984 C34.1482929,60.1126984 34.5709642,60.4987386 34.6287293,60.9960772 L34.635457,61.1126984 L34.635457,66.2709141 C34.635457,66.8231988 34.1877418,67.2709141 33.635457,67.2709141 C33.1226212,67.2709141 32.6999499,66.8848739 32.6421848,66.3875352 L32.635457,66.2709141 L32.635457,61.1126984 C32.635457,60.5604136 33.0831723,60.1126984 33.635457,60.1126984 Z M41.6880003,59.8374963 L41.7210121,59.9495497 L42.3013672,62.4407766 C42.4266719,62.9786587 42.0922119,63.5162779 41.5543298,63.6415827 C41.0548678,63.7579371 40.5556326,63.4778617 40.3865355,63.0065987 L40.3535237,62.8945453 L39.7731687,60.4033184 C39.6478639,59.8654363 39.9823239,59.3278171 40.5202061,59.2025124 C40.9812479,59.0951083 41.4420965,59.3254906 41.6432676,59.7322306 L41.6880003,59.8374963 Z M26.8084578,59.2304469 C27.2991818,59.379412 27.5914945,59.871582 27.5023054,60.3642562 L27.4748677,60.4778032 L26.7318565,62.9254465 C26.5714325,63.4539185 26.0129721,63.7522803 25.4845001,63.5918564 C24.9937762,63.4428913 24.7014635,62.9507212 24.7906526,62.458047 L24.8180902,62.3445 L25.5611015,59.8968567 C25.7215254,59.3683848 26.2799859,59.0700229 26.8084578,59.2304469 Z M20.3968364,56.5654207 C20.8409652,56.8218386 21.0139892,57.3674948 20.8153459,57.8270853 L20.7628618,57.9314461 L18.1837539,62.3985919 C17.9076115,62.8768845 17.2960211,63.0407597 16.8177285,62.7646173 C16.3735997,62.5081994 16.2005756,61.9625431 16.3992189,61.5029526 L16.4517031,61.3985919 L19.030811,56.9314461 C19.3069533,56.4531534 19.9185437,56.2892783 20.3968364,56.5654207 Z M48.1759662,56.8338131 L48.2401031,56.9314461 L50.819211,61.3985919 C51.0953533,61.8768845 50.9314782,62.4884749 50.4531856,62.7646173 C50.0090567,63.0210352 49.4499925,62.8980503 49.1512971,62.4962249 L49.0871602,62.3985919 L46.5080523,57.9314461 C46.2319099,57.4531534 46.3957851,56.841563 46.8740777,56.5654207 C47.2811958,56.3303709 47.7848916,56.4141249 48.0960852,56.7392241 L48.1759662,56.8338131 Z M53.7029903,52.2827521 L53.7944083,52.3689966 L55.542624,54.2362848 C55.9200822,54.639452 55.8992409,55.2722739 55.4960737,55.649732 C55.1239194,55.998155 54.5560829,56.0071985 54.1740445,55.6894262 L54.0826265,55.6031817 L52.3344108,53.7358935 C51.9569526,53.3327263 51.9777939,52.6999044 52.3809611,52.3224463 C52.7221026,52.0030586 53.2276714,51.9688439 53.6038307,52.210125 L53.7029903,52.2827521 Z M14.9197683,52.3987647 C15.2681912,52.7709191 15.2772347,53.3387555 14.9594624,53.7207939 L14.873218,53.812212 L13.0059297,55.5604276 C12.6027626,55.9378858 11.9699407,55.9170445 11.5924825,55.5138773 C11.2440596,55.141723 11.2350161,54.5738866 11.5527884,54.1918481 L11.6390328,54.1004301 L13.5063211,52.3522144 C13.9094882,51.9747563 14.5423101,51.9955975 14.9197683,52.3987647 Z M10.7054934,46.8740777 C10.9619113,47.3182066 10.8389264,47.8772708 10.437101,48.1759662 L10.339468,48.2401031 L5.87232218,50.819211 C5.39402956,51.0953533 4.78243915,50.9314782 4.50629677,50.4531856 C4.24987886,50.0090567 4.37286381,49.4499925 4.77468919,49.1512971 L4.87232218,49.0871602 L9.33946801,46.5080523 C9.81776064,46.2319099 10.429351,46.3957851 10.7054934,46.8740777 Z M57.8270853,46.4555681 L57.9314461,46.5080523 L62.3985919,49.0871602 C62.8768845,49.3633025 63.0407597,49.9748929 62.7646173,50.4531856 C62.5081994,50.8973144 61.9625431,51.0703384 61.5029526,50.8716951 L61.3985919,50.819211 L56.9314461,48.2401031 C56.4531534,47.9639607 56.2892783,47.3523703 56.5654207,46.8740777 C56.8021141,46.4641126 57.2852592,46.2851481 57.719669,46.4162792 L57.8270853,46.4555681 Z M60.3464526,39.7399092 L60.4599996,39.7673469 L62.9076429,40.5103581 C63.4361148,40.670782 63.7344767,41.2292425 63.5740528,41.7577144 C63.4250877,42.2484384 62.9329176,42.5407511 62.4402434,42.451562 L62.3266964,42.4241243 L59.8790531,41.6811131 C59.3505812,41.5206891 59.0522193,40.9622287 59.2126432,40.4337567 C59.3501495,39.9807808 59.7800907,39.6968653 60.2329235,39.726016 L60.3464526,39.7399092 Z M8.0426022,40.4595718 C8.17533388,40.9549332 7.91184308,41.4631169 7.44640151,41.6476345 L7.33549542,41.6843167 L4.84426854,42.3518389 C4.31080244,42.4947808 3.76246548,42.1781983 3.61952367,41.6447322 C3.48679199,41.1493708 3.75028279,40.6411871 4.21572436,40.4566695 L4.32663045,40.4199873 L6.81785733,39.7524651 C7.35132343,39.6095232 7.89966039,39.9261057 8.0426022,40.4595718 Z M66.2709141,32.635457 C66.8231988,32.635457 67.2709141,33.0831723 67.2709141,33.635457 C67.2709141,34.1482929 66.8848739,34.5709642 66.3875352,34.6287293 L66.2709141,34.635457 L61.1126984,34.635457 C60.5604136,34.635457 60.1126984,34.1877418 60.1126984,33.635457 C60.1126984,33.1226212 60.4987386,32.6999499 60.9960772,32.6421848 L61.1126984,32.635457 L66.2709141,32.635457 Z M6.1582157,32.635457 C6.71050045,32.635457 7.1582157,33.0831723 7.1582157,33.635457 C7.1582157,34.1482929 6.77217551,34.5709642 6.27483683,34.6287293 L6.1582157,34.635457 L1,34.635457 C0.44771525,34.635457 0,34.1877418 0,33.635457 C0,33.1226212 0.38604019,32.6999499 0.883378875,32.6421848 L1,32.635457 L6.1582157,32.635457 Z M4.74077581,24.8438299 L4.85516444,24.8675152 L7.34639132,25.5350374 C7.87985742,25.6779792 8.19643991,26.2263162 8.0534981,26.7597823 C7.92076642,27.2551437 7.43848484,27.5634983 6.94314185,27.4905744 L6.82875323,27.4668891 L4.33752635,26.7993668 C3.80406024,26.656425 3.48747775,26.1080881 3.63041957,25.574622 C3.75294112,25.1173653 4.173304,24.8194517 4.62685091,24.8336811 L4.74077581,24.8438299 Z M63.623779,25.6878848 C63.7401335,26.1873467 63.4600581,26.686582 62.9887951,26.855679 L62.8767417,26.8886908 L60.3855148,27.4690459 C59.8476327,27.5943506 59.3100135,27.2598906 59.1847088,26.7220085 C59.0683543,26.2225465 59.3484297,25.7233113 59.8196927,25.5542142 L59.9317461,25.5212024 L62.422973,24.9408474 C62.9608551,24.8155426 63.4984743,25.1500026 63.623779,25.6878848 Z M62.7646173,16.8177285 C63.0210352,17.2618574 62.8980503,17.8209216 62.4962249,18.119617 L62.3985919,18.1837539 L57.9314461,20.7628618 C57.4531534,21.0390041 56.841563,20.875129 56.5654207,20.3968364 C56.3090027,19.9527075 56.4319877,19.3936433 56.8338131,19.0949479 L56.9314461,19.030811 L61.3985919,16.4517031 C61.8768845,16.1755607 62.4884749,16.3394359 62.7646173,16.8177285 Z M5.76796146,16.3992189 L5.87232218,16.4517031 L10.339468,19.030811 C10.8177606,19.3069533 10.9816358,19.9185437 10.7054934,20.3968364 C10.4490755,20.8409652 9.90341923,21.0139892 9.44382874,20.8153459 L9.33946801,20.7628618 L4.87232218,18.1837539 C4.39402956,17.9076115 4.2301544,17.2960211 4.50629677,16.8177285 C4.76271469,16.3735997 5.30837097,16.2005756 5.76796146,16.3992189 Z M55.5792683,11.6927144 C55.9397523,12.0531984 55.9674818,12.6204294 55.6624569,13.0127206 L55.5792683,13.106928 L53.7555636,14.9306326 C53.3650394,15.3211569 52.7318744,15.3211569 52.3413501,14.9306326 C51.9808661,14.5701487 51.9531366,14.0029176 52.2581615,13.6106264 L52.3413501,13.5164191 L54.1650547,11.6927144 C54.555579,11.3021901 55.188744,11.3021901 55.5792683,11.6927144 Z M12.994917,11.5797577 L13.0891243,11.6629463 L14.912829,13.4866509 C15.3033533,13.8771752 15.3033533,14.5103402 14.912829,14.9008645 C14.552345,15.2613484 13.985114,15.289078 13.5928228,14.9840531 L13.4986154,14.9008645 L11.6749108,13.0771598 C11.2843865,12.6866355 11.2843865,12.0534705 11.6749108,11.6629463 C12.0053544,11.3325026 12.509523,11.2816651 12.8934205,11.5104338 L12.994917,11.5797577 Z M50.4531856,4.50629677 C50.8973144,4.76271469 51.0703384,5.30837097 50.8716951,5.76796146 L50.819211,5.87232218 L48.2401031,10.339468 C47.9639607,10.8177606 47.3523703,10.9816358 46.8740777,10.7054934 C46.4299488,10.4490755 46.2569248,9.90341923 46.4555681,9.44382874 L46.5080523,9.33946801 L49.0871602,4.87232218 C49.3633025,4.39402956 49.9748929,4.2301544 50.4531856,4.50629677 Z M18.119617,4.77468919 L18.1837539,4.87232218 L20.7628618,9.33946801 C21.0390041,9.81776064 20.875129,10.429351 20.3968364,10.7054934 C19.9527075,10.9619113 19.3936433,10.8389264 19.0949479,10.437101 L19.030811,10.339468 L16.4517031,5.87232218 C16.1755607,5.39402956 16.3394359,4.78243915 16.8177285,4.50629677 C17.2248466,4.27124702 17.7285424,4.35500106 18.039736,4.68010021 L18.119617,4.77468919 Z M41.6675926,3.64822318 C42.162954,3.78095487 42.4713086,4.26323644 42.3983846,4.75857943 L42.3746994,4.87296806 L41.7071771,7.36419494 C41.5642353,7.89766104 41.0158984,8.21424353 40.4824323,8.07130172 C39.9870709,7.93857004 39.6787163,7.45628846 39.7516402,6.96094547 L39.7753255,6.84655685 L40.4428477,4.35532997 C40.5857895,3.82186386 41.1341265,3.50528137 41.6675926,3.64822318 Z M26.785545,4.23352798 L26.8222273,4.34443407 L27.4897495,6.83566095 C27.6326913,7.36912705 27.3161088,7.91746401 26.7826427,8.06040582 C26.2872813,8.1931375 25.7790976,7.9296467 25.5945801,7.46420513 L25.5578978,7.35329904 L24.8903756,4.86207216 C24.7474338,4.32860606 25.0640163,3.7802691 25.5974824,3.63732729 C26.0547391,3.51480573 26.5229212,3.72989387 26.7373716,4.12979173 L26.785545,4.23352798 Z M33.635457,0 C34.1482929,0 34.5709642,0.38604019 34.6287293,0.883378875 L34.635457,1 L34.635457,6.1582157 C34.635457,6.71050045 34.1877418,7.1582157 33.635457,7.1582157 C33.1226212,7.1582157 32.6999499,6.77217551 32.6421848,6.27483683 L32.635457,6.1582157 L32.635457,1 C32.635457,0.44771525 33.0831723,0 33.635457,0 Z" id="Combined-Shape" fill="#1560BD" fill-rule="nonzero" opacity="0.300000012"></path>
                        </g>
                        <path d="M39.0670317,78.5665095 C39.0670317,78.5665095 41.5755552,65.0919006 56.1364782,67.8486355 C50.8154281,82.4158742 39.0670317,78.5665095 39.0670317,78.5665095 Z" id="Path-6" stroke="#1560BD" stroke-width="2" fill="#D6E9FF" stroke-linejoin="round"></path>
                        <path d="M29.0001074,81.0000754 C29.0001074,81.0000754 28.9190485,69.8953695 38.7067069,70.6227979 C38.1211088,80.2625946 29.0001074,81.0000754 29.0001074,81.0000754 Z" id="Path-6" stroke="#1560BD" stroke-width="2" fill="#93BBEB" stroke-linejoin="round" transform="translate(33.853353, 75.794317) scale(-1, 1) translate(-33.853353, -75.794317) "></path>
                        <path d="M23,93.62 L56,93.62 C56.5522847,93.62 56.9318196,94.0863701 56.8477148,94.6616667 L53.4974411,117.578333 C53.4133363,118.15363 52.9909452,118.62 52.5540041,118.62 L26.4459959,118.62 C26.0090548,118.62 25.5866637,118.15363 25.5025589,117.578333 L22.1522852,94.6616667 C22.0681804,94.0863701 22.4477153,93.62 23,93.62 Z" id="Rectangle" stroke="#1560BD" stroke-width="2" fill="#93BBEB"></path>
                        <path d="M52.918,114.62 L52.5079591,117.433677 L52.4809718,117.560203 C52.4748462,117.600531 52.4862504,117.62 52.5540041,117.62 L26.4459959,117.62 L26.4868522,117.616328 C26.54986,117.601596 26.5079174,117.542276 26.4920409,117.433677 L26.081,114.62 L52.918,114.62 Z M55.551,96.62 L55.112,99.62 L23.888,99.62 L23.449,96.62 L55.551,96.62 Z" id="Combined-Shape" fill="#1560BD" fill-rule="nonzero" opacity="0.200000003"></path>
                        <rect id="Rectangle" stroke="#1560BD" stroke-width="2" fill="#93BBEB" x="19" y="87.62" width="41" height="8" rx="1"></rect>
                        <rect id="Rectangle" fill="#FFFFFF" opacity="0.246186756" x="20" y="88.62" width="39" height="2"></rect>
                        <rect id="Rectangle" fill="#1560BD" opacity="0.246186756" x="20" y="92.62" width="39" height="2"></rect>
                        <rect id="Rectangle" fill="#FFFFFF" opacity="0.200000003" x="25" y="88.62" width="5" height="6"></rect>
                        <polygon id="Rectangle" fill="#FFFFFF" opacity="0.200000003" points="25 96.62 30 96.62 30.9284261 117.62 28.2195057 117.62"></polygon>
                    </g>
                </g>
                <line x1="32.0934497" y1="149" x2="133.5" y2="149" id="Path-4" stroke="#1560BD" stroke-width="2" opacity="0.200000003" stroke-linecap="round"></line>
                <line x1="28" y1="149" x2="29" y2="149" id="Path-4" stroke="#1560BD" stroke-width="2" opacity="0.200000003" stroke-linecap="round"></line>
                <line x1="137" y1="149" x2="140" y2="149" id="Path-4" stroke="#1560BD" stroke-width="2" opacity="0.200000003" stroke-linecap="round"></line>
            </g>
            <polyline id="Path-64" stroke="#FFFFFF" stroke-width="4" stroke-linejoin="round" points="83 62.8030184 91.2186151 71.0216335 104.962947 57"></polyline>
        </g>
    </g>
</svg>