<svg width="159" height="160" viewBox="0 0 159 160" fill="none" xmlns="http://www.w3.org/2000/svg">
<g opacity="0.4">
<path opacity="0.4" fill-rule="evenodd" clip-rule="evenodd" d="M79.1084 124.078C103.393 124.078 123.08 104.391 123.08 80.1065C123.08 55.8216 103.393 36.1348 79.1084 36.1348C54.8235 36.1348 35.1367 55.8216 35.1367 80.1065C35.1367 104.391 54.8235 124.078 79.1084 124.078Z" fill="#4A90E2" fill-opacity="0.8" stroke="#1560BD" stroke-width="2"/>
<path opacity="0.2" fill-rule="evenodd" clip-rule="evenodd" d="M79.1067 142.604C113.623 142.604 141.604 114.623 141.604 80.1065C141.604 45.5902 113.623 17.6092 79.1067 17.6092C44.5904 17.6092 16.6094 45.5902 16.6094 80.1065C16.6094 114.623 44.5904 142.604 79.1067 142.604Z" fill="#4A90E2" fill-opacity="0.8" stroke="#1560BD" stroke-width="2"/>
<path opacity="0.1" fill-rule="evenodd" clip-rule="evenodd" d="M78.9984 151.76C118.63 151.76 150.758 119.632 150.758 80C150.758 40.368 118.63 8.2399 78.9984 8.2399C39.3664 8.2399 7.23828 40.368 7.23828 80C7.23828 119.632 39.3664 151.76 78.9984 151.76Z" fill="#4A90E2" fill-opacity="0.8" stroke="#1560BD" stroke-width="2"/>
<path opacity="0.04" fill-rule="evenodd" clip-rule="evenodd" d="M79 159C122.63 159 158 123.63 158 80C158 36.3695 122.63 1 79 1C35.3695 1 0 36.3695 0 80C0 123.63 35.3695 159 79 159Z" fill="#4A90E2" fill-opacity="0.8" stroke="#1560BD" stroke-width="2"/>
<path opacity="0.4" fill-rule="evenodd" clip-rule="evenodd" d="M79.1069 99.8032C89.9851 99.8032 98.8037 90.9847 98.8037 80.1065C98.8037 69.2282 89.9851 60.4097 79.1069 60.4097C68.2287 60.4097 59.4102 69.2282 59.4102 80.1065C59.4102 90.9847 68.2287 99.8032 79.1069 99.8032Z" fill="#4A90E2" fill-opacity="0.8" stroke="#1560BD" stroke-width="2"/>
</g>
<g opacity="0.5">
<rect x="48.2461" y="68.7358" width="15.0566" height="59.5094" stroke="#1560BD" stroke-width="2"/>
<rect x="31.0391" y="63" width="15.0566" height="65.2453" rx="1" fill="#A6CFFF" stroke="#1560BD" stroke-width="2"/>
<rect opacity="0.2" x="31.0391" y="68.0189" width="15.0566" height="45.1698" stroke="#1560BD" stroke-width="2"/>
<rect opacity="0.2" width="15.0566" height="6.45283" transform="matrix(1 0 0 -1 31.0391 123.226)" stroke="#1560BD" stroke-width="2"/>
<rect opacity="0.2" x="31.7578" y="63.717" width="2.15094" height="63.8113" fill="white"/>
<rect opacity="0.2" x="43.2266" y="63.717" width="2.15094" height="63.8113" fill="#1560BD"/>
<path opacity="0.5" fill-rule="evenodd" clip-rule="evenodd" d="M38.5684 78.7736C40.7463 78.7736 42.5118 77.0081 42.5118 74.8302C42.5118 72.6523 40.7463 70.8868 38.5684 70.8868C36.3905 70.8868 34.625 72.6523 34.625 74.8302C34.625 77.0081 36.3905 78.7736 38.5684 78.7736Z" stroke="white" stroke-width="2"/>
<rect opacity="0.5" x="37.4922" y="82.3585" width="1.43396" height="14.3396" rx="0.716981" fill="white"/>
<rect opacity="0.5" x="39.6445" y="82.3585" width="2.15094" height="17.2075" rx="1.07547" fill="white"/>
<rect opacity="0.5" x="35.3398" y="82.3585" width="1.43396" height="21.5094" rx="0.716981" fill="white"/>
<path fill-rule="evenodd" clip-rule="evenodd" d="M38.5659 76.6227C39.5558 76.6227 40.3583 75.8201 40.3583 74.8302C40.3583 73.8403 39.5558 73.0378 38.5659 73.0378C37.5759 73.0378 36.7734 73.8403 36.7734 74.8302C36.7734 75.8201 37.5759 76.6227 38.5659 76.6227Z" stroke="white" stroke-width="2"/>
<rect x="46.8125" y="66.5849" width="2.15094" height="61.6604" rx="1" fill="#4A90E2" stroke="#1560BD" stroke-width="2"/>
<rect x="61.1523" y="66.5849" width="2.15094" height="61.6604" rx="1" fill="#4A90E2" stroke="#1560BD" stroke-width="2"/>
<path opacity="0.2" fill-rule="evenodd" clip-rule="evenodd" d="M52.0892 69.4528V126.094H50.3945V69.4528H52.0892ZM54.6312 69.4528V126.094H52.9366V69.4528H54.6312ZM57.1733 69.4528V126.094H55.4786V69.4528H57.1733ZM59.7153 69.4528V126.094H58.0206V69.4528H59.7153Z" fill="#1560BD"/>
<rect x="63.5703" y="68.0221" width="13.8984" height="60.2264" rx="1" transform="rotate(-5 63.5703 68.0221)" fill="#D0E6FF" stroke="#1560BD" stroke-width="2"/>
<rect opacity="0.2" x="63.9727" y="72.6373" width="13.8984" height="41.6952" transform="rotate(-5 63.9727 72.6373)" stroke="#1560BD" stroke-width="2"/>
<rect opacity="0.2" x="64.2891" y="68.6237" width="1.98549" height="58.9028" transform="rotate(-5 64.2891 68.6237)" fill="white"/>
<rect opacity="0.2" x="75.4961" y="67.6432" width="1.32366" height="58.9028" transform="rotate(-5 75.4961 67.6432)" fill="#1560BD"/>
<rect opacity="0.5" x="74.2188" y="91.0074" width="1.32366" height="9.2656" rx="0.661829" transform="rotate(-5 74.2188 91.0074)" fill="white"/>
<rect opacity="0.5" x="75.1406" y="101.556" width="1.32366" height="2.64732" rx="0.661829" transform="rotate(-5 75.1406 101.556)" fill="white"/>
<rect opacity="0.5" x="69.6016" y="91.4112" width="1.32366" height="8.60377" rx="0.661829" transform="rotate(-5 69.6016 91.4112)" fill="white"/>
<rect opacity="0.2" x="64.2891" y="68.6237" width="1.32366" height="58.9028" transform="rotate(-5 64.2891 68.6237)" fill="#1560BD"/>
<rect opacity="0.5" x="71.582" y="91.2382" width="1.32366" height="17.2075" rx="0.661829" transform="rotate(-5 71.582 91.2382)" fill="white"/>
<mask id="path-29-inside-1" fill="white">
<rect x="68.1016" y="74.2691" width="5.95646" height="13.2366" rx="1" transform="rotate(-5 68.1016 74.2691)"/>
</mask>
<rect x="68.1016" y="74.2691" width="5.95646" height="13.2366" rx="1" transform="rotate(-5 68.1016 74.2691)" stroke="white" stroke-width="4" mask="url(#path-29-inside-1)"/>
<mask id="path-30-inside-2" fill="white">
<rect x="71.793" y="116.465" width="5.95646" height="5.29463" rx="1" transform="rotate(-5 71.793 116.465)"/>
</mask>
<rect x="71.793" y="116.465" width="5.95646" height="5.29463" rx="1" transform="rotate(-5 71.793 116.465)" stroke="white" stroke-width="4" mask="url(#path-30-inside-2)"/>
<path fill-rule="evenodd" clip-rule="evenodd" d="M23.8672 131.613C23.8672 131.337 24.091 131.113 24.3672 131.113H29.6062C29.9532 131.113 30.1946 131.458 30.0761 131.784L27.5718 138.671C27.4999 138.868 27.3121 139 27.1019 139H24.3672C24.091 139 23.8672 138.776 23.8672 138.5V131.613Z" fill="#4A90E2" stroke="#1560BD" stroke-width="2"/>
<path fill-rule="evenodd" clip-rule="evenodd" d="M101.301 131.613C101.301 131.337 101.077 131.113 100.801 131.113H95.5618C95.2148 131.113 94.9733 131.458 95.0919 131.784L97.5962 138.671C97.668 138.868 97.8558 139 98.0661 139H100.801C101.077 139 101.301 138.776 101.301 138.5V131.613Z" fill="#4A90E2" stroke="#1560BD" stroke-width="2"/>
<rect x="21" y="126.811" width="83.1698" height="7.88679" rx="0.5" fill="#4A90E2" stroke="#1560BD" stroke-width="2"/>
<rect x="21.7188" y="127.528" width="81.7358" height="1.43396" fill="#7CB3F4"/>
</g>
<g opacity="0.5">
<rect x="126" y="147.333" width="7.08333" height="2.83333" fill="#C4DEFC" stroke="#1560BD" stroke-width="2" stroke-linejoin="round"/>
<rect x="119.766" y="147.461" width="7.08333" height="2.83333" transform="rotate(-30 119.766 147.461)" fill="#8DBFF9" stroke="#1560BD" stroke-width="2" stroke-linejoin="round"/>
</g>
<g opacity="0.5">
<rect x="72.25" y="144.333" width="7.08333" height="2.83333" fill="#C4DEFC" stroke="#1560BD" stroke-width="2" stroke-linejoin="round"/>
<rect x="72.25" y="138.667" width="7.08333" height="2.83333" fill="#C4DEFC" stroke="#1560BD" stroke-width="2" stroke-linejoin="round"/>
<rect x="72.25" y="147.167" width="7.08333" height="2.83333" fill="#8DBFF9" stroke="#1560BD" stroke-width="2" stroke-linejoin="round"/>
<rect x="72.25" y="141.5" width="7.08333" height="2.83333" fill="#8DBFF9" stroke="#1560BD" stroke-width="2" stroke-linejoin="round"/>
<rect x="68" y="144.333" width="7.08333" height="2.83333" fill="#C4DEFC" stroke="#1560BD" stroke-width="2" stroke-linejoin="round"/>
<rect x="68" y="147.167" width="7.08333" height="2.83333" fill="#8DBFF9" stroke="#1560BD" stroke-width="2" stroke-linejoin="round"/>
<rect x="68" y="141.5" width="7.08333" height="2.83333" fill="#8DBFF9" stroke="#1560BD" stroke-width="2" stroke-linejoin="round"/>
<rect x="79.332" y="144.333" width="7.08333" height="2.83333" fill="#C4DEFC" stroke="#1560BD" stroke-width="2" stroke-linejoin="round"/>
<rect x="79.332" y="147.167" width="7.08333" height="2.83333" fill="#8DBFF9" stroke="#1560BD" stroke-width="2" stroke-linejoin="round"/>
<rect x="79.332" y="141.5" width="7.08333" height="2.83333" fill="#8DBFF9" stroke="#1560BD" stroke-width="2" stroke-linejoin="round"/>
<rect x="79.332" y="135.833" width="7.08333" height="2.83333" fill="#C4DEFC" stroke="#1560BD" stroke-width="2" stroke-linejoin="round"/>
<rect x="79.332" y="138.667" width="7.08333" height="2.83333" fill="#8DBFF9" stroke="#1560BD" stroke-width="2" stroke-linejoin="round"/>
<rect x="79.332" y="133" width="7.08333" height="2.83333" fill="#8DBFF9" stroke="#1560BD" stroke-width="2" stroke-linejoin="round"/>
</g>
<path d="M98.168 81.1694C98.168 81.1694 101.575 90.2187 101.575 95.9069C101.575 101.595 98.7195 107.326 98.7195 112.917C98.7195 118.507 100.316 125 100.316 125" stroke="#1560BD" stroke-width="2" stroke-linecap="round" stroke-linejoin="round"/>
<path fill-rule="evenodd" clip-rule="evenodd" d="M93.6484 88C106.351 88 116.648 77.7025 116.648 65C116.648 52.2975 106.351 42 93.6484 42C80.9459 42 70.6484 52.2975 70.6484 65C70.6484 77.7025 80.9459 88 93.6484 88Z" fill="#A1CBFF" stroke="#1560BD" stroke-width="2"/>
<path fill-rule="evenodd" clip-rule="evenodd" d="M93.6484 83C103.59 83 111.648 74.9411 111.648 65C111.648 55.0589 103.59 47 93.6484 47C83.7073 47 75.6484 55.0589 75.6484 65C75.6484 74.9411 83.7073 83 93.6484 83Z" fill="#B6D5F9"/>
<path opacity="0.3" fill-rule="evenodd" clip-rule="evenodd" d="M106.941 47.4658C98.3184 40.9124 85.965 41.5717 78.093 49.4437C70.2211 57.3156 69.5618 69.669 76.1152 78.2916L106.941 47.4658ZM79.5707 81.9072L110.557 50.9213C111.671 52.2567 112.603 53.6931 113.351 55.1974L83.8468 84.7021C82.3425 83.9534 80.9061 83.0218 79.5707 81.9072Z" fill="white"/>
<path fill-rule="evenodd" clip-rule="evenodd" d="M99.6276 51.565C100.018 51.9555 100.018 52.5887 99.6276 52.9792C99.2371 53.3697 98.6039 53.3697 98.2134 52.9792C97.8229 52.5887 97.8229 51.9555 98.2134 51.565C98.6039 51.1744 99.2371 51.1744 99.6276 51.565ZM136.397 40.2513C136.788 40.6418 137.421 40.6418 137.811 40.2513C138.202 39.8607 138.202 39.2276 137.811 38.837C137.421 38.4465 136.788 38.4465 136.397 38.837C136.007 39.2276 136.007 39.8607 136.397 40.2513ZM112.44 65.6121C112.467 65.5769 112.492 65.5397 112.514 65.5006C112.576 65.3945 112.616 65.2796 112.635 65.162C112.642 65.1236 112.646 65.0853 112.648 65.0471C112.64 65.2017 112.597 65.3568 112.514 65.5C112.47 65.5778 112.416 65.6473 112.355 65.7079C112.328 65.7348 112.3 65.7599 112.27 65.7833C112.264 65.7887 112.257 65.7941 112.25 65.7994C112.218 65.8232 112.185 65.8453 112.15 65.8654C112.087 65.9021 112.021 65.9312 111.952 65.9529C111.896 65.9709 111.839 65.9836 111.782 65.9913C111.723 65.9993 111.662 66.002 111.601 65.9991C111.447 65.9919 111.292 65.9487 111.148 65.866C111.071 65.8211 111.001 65.7673 110.941 65.7067M110.649 64.9526C110.646 65.0139 110.649 65.0746 110.657 65.1342C110.665 65.1912 110.678 65.248 110.696 65.304C110.717 65.3721 110.746 65.4384 110.783 65.5015C110.803 65.5363 110.825 65.5696 110.849 65.6013M110.942 64.2921C110.881 64.3527 110.827 64.4222 110.782 64.5C110.7 64.6431 110.657 64.7982 110.649 64.9526M110.942 64.2921C110.953 64.281 110.964 64.2701 110.976 64.2594C110.993 64.2443 111.01 64.2297 111.028 64.2157C110.998 64.2394 110.969 64.2648 110.942 64.2921ZM111.696 64.0009C111.733 64.0027 111.771 64.0067 111.809 64.013C111.928 64.0321 112.043 64.0726 112.15 64.1343C112.188 64.1568 112.225 64.1817 112.26 64.2089C112.294 64.2348 112.326 64.2629 112.356 64.2933C112.383 64.3201 112.408 64.3483 112.431 64.3776C112.418 64.3605 112.404 64.3438 112.389 64.3277M112.431 64.3776C112.437 64.3849 112.443 64.3923 112.449 64.3998L112.431 64.3776ZM112.44 65.6121C112.414 65.6456 112.386 65.6776 112.355 65.7079L112.44 65.6121ZM125.083 78.435C125.474 78.0445 125.474 77.4113 125.083 77.0208C124.693 76.6303 124.06 76.6303 123.669 77.0208C123.279 77.4113 123.279 78.0445 123.669 78.435C124.06 78.8256 124.693 78.8256 125.083 78.435ZM103.148 50.2776C103.627 50.0014 103.791 49.3898 103.514 48.9115C103.238 48.4333 102.627 48.2694 102.148 48.5455C101.67 48.8217 101.506 49.4333 101.782 49.9115C102.059 50.3898 102.67 50.5537 103.148 50.2776ZM143.325 47.866C142.847 48.1422 142.235 47.9783 141.959 47.5C141.683 47.0217 141.847 46.4101 142.325 46.134C142.804 45.8578 143.415 46.0217 143.691 46.5C143.968 46.9783 143.804 47.5899 143.325 47.866ZM121.514 80.0885C121.791 80.5667 121.627 81.1783 121.148 81.4545C120.67 81.7306 120.059 81.5667 119.782 81.0885C119.506 80.6102 119.67 79.9986 120.148 79.7224C120.627 79.4463 121.238 79.6102 121.514 80.0885ZM94.6484 47C94.6484 47.5523 94.2007 48 93.6484 48C93.0962 48 92.6484 47.5523 92.6484 47C92.6484 46.4477 93.0962 46 93.6484 46C94.2007 46 94.6484 46.4477 94.6484 47ZM128.648 65C128.648 65.5523 129.096 66 129.648 66C130.201 66 130.648 65.5523 130.648 65C130.648 64.4477 130.201 64 129.648 64C129.096 64 128.648 64.4477 128.648 65ZM92.6484 65C92.6484 65.5523 93.0962 66 93.6484 66C94.2007 66 94.6484 65.5523 94.6484 65C94.6484 64.4477 94.2007 64 93.6484 64C93.0962 64 92.6484 64.4477 92.6484 65ZM107.249 48.5793C107.782 48.4363 108.099 47.888 107.956 47.3545C107.813 46.821 107.264 46.5045 106.731 46.6474C106.197 46.7904 105.881 47.3387 106.024 47.8722C106.167 48.4056 106.715 48.7222 107.249 48.5793ZM146.681 56.6484C146.147 56.7914 145.599 56.4748 145.456 55.9413C145.313 55.4079 145.629 54.8595 146.163 54.7166C146.696 54.5736 147.245 54.8902 147.388 55.4237C147.531 55.9572 147.214 56.5055 146.681 56.6484ZM117.273 82.1278C117.416 82.6613 117.099 83.2096 116.566 83.3526C116.033 83.4955 115.484 83.1789 115.341 82.6455C115.198 82.112 115.515 81.5637 116.048 81.4207C116.582 81.2778 117.13 81.5944 117.273 82.1278ZM94.6484 83C94.6484 83.5523 94.2007 84 93.6484 84C93.0962 84 92.6484 83.5523 92.6484 83C92.6484 82.4477 93.0962 82 93.6484 82C94.2007 82 94.6484 82.4477 94.6484 83ZM116.048 48.5793C116.582 48.7222 117.13 48.4056 117.273 47.8722C117.416 47.3387 117.099 46.7904 116.566 46.6474C116.033 46.5045 115.484 46.821 115.341 47.3545C115.198 47.888 115.515 48.4363 116.048 48.5793ZM146.163 75.2834C145.629 75.1405 145.313 74.5921 145.456 74.0587C145.599 73.5252 146.147 73.2086 146.681 73.3516C147.214 73.4945 147.531 74.0428 147.388 74.5763C147.245 75.1098 146.696 75.4264 146.163 75.2834ZM107.956 82.6455C107.813 83.1789 107.264 83.4955 106.731 83.3526C106.197 83.2096 105.881 82.6613 106.024 82.1278C106.167 81.5944 106.715 81.2778 107.249 81.4207C107.782 81.5637 108.099 82.112 107.956 82.6455ZM121.514 49.9115C121.238 50.3898 120.627 50.5537 120.148 50.2776C119.67 50.0014 119.506 49.3898 119.782 48.9115C120.059 48.4333 120.67 48.2694 121.148 48.5455C121.627 48.8217 121.791 49.4333 121.514 49.9115ZM141.959 82.5C141.683 82.9783 141.847 83.5899 142.325 83.866C142.804 84.1422 143.415 83.9783 143.691 83.5C143.968 83.0217 143.804 82.4101 143.325 82.134C142.847 81.8578 142.235 82.0217 141.959 82.5ZM102.148 81.4545C102.627 81.7306 103.238 81.5667 103.514 81.0885C103.791 80.6102 103.627 79.9986 103.148 79.7224C102.67 79.4463 102.059 79.6102 101.782 80.0885C101.506 80.5667 101.67 81.1783 102.148 81.4545Z" fill="#1560BD"/>
<path opacity="0.5" fill-rule="evenodd" clip-rule="evenodd" d="M115.648 65C115.648 52.8497 105.799 43 93.6484 43C81.4982 43 71.6484 52.8497 71.6484 65C71.6484 65.3351 71.6559 65.6685 71.6708 66C72.1936 54.3139 81.8333 45 93.6484 45C105.464 45 115.103 54.3139 115.626 66C115.641 65.6685 115.648 65.3351 115.648 65Z" fill="white"/>
<path opacity="0.5" fill-rule="evenodd" clip-rule="evenodd" d="M71.6708 64C71.6559 64.3315 71.6484 64.6649 71.6484 65C71.6484 77.1503 81.4982 87 93.6484 87C105.799 87 115.648 77.1503 115.648 65C115.648 64.6649 115.641 64.3315 115.626 64C115.103 75.6861 105.464 85 93.6484 85C81.8333 85 72.1936 75.6861 71.6708 64Z" fill="#1560BD"/>
<path opacity="0.3" fill-rule="evenodd" clip-rule="evenodd" d="M94.6287 32.2634C94.571 31.766 94.1483 31.38 93.6355 31.38C93.0832 31.38 92.6355 31.8277 92.6355 32.38V37.5382L92.6422 37.6548C92.6999 38.1522 93.1226 38.5382 93.6355 38.5382C94.1877 38.5382 94.6355 38.0905 94.6355 37.5382V32.38L94.6287 32.2634ZM86.7855 35.6135L86.8222 35.7244L87.4897 38.2157C87.6327 38.7491 87.3161 39.2975 86.7826 39.4404C86.2873 39.5731 85.7791 39.3097 85.5946 38.8442L85.5579 38.7333L84.8904 36.2421C84.7474 35.7086 85.064 35.1603 85.5975 35.0173C86.0547 34.8948 86.5229 35.1099 86.7374 35.5098L86.7855 35.6135ZM102.398 36.1386C102.471 35.6432 102.163 35.161 101.668 35.0282C101.134 34.8853 100.586 35.2019 100.443 35.7353L99.7753 38.2266L99.7516 38.341C99.6787 38.8363 99.9871 39.3186 100.482 39.4513C101.016 39.5942 101.564 39.2777 101.707 38.7442L102.375 36.253L102.398 36.1386ZM110.872 37.148C111.07 36.6884 110.897 36.1427 110.453 35.8863C109.975 35.6102 109.363 35.774 109.087 36.2523L106.508 40.7195L106.456 40.8238C106.257 41.2834 106.43 41.8291 106.874 42.0855C107.352 42.3616 107.964 42.1978 108.24 41.7195L110.819 37.2523L110.872 37.148ZM72.9949 42.9598L73.0891 43.043L74.9128 44.8667C75.3034 45.2572 75.3034 45.8903 74.9128 46.2809C74.5523 46.6414 73.9851 46.6691 73.5928 46.3641L73.4986 46.2809L71.6749 44.4572C71.2844 44.0666 71.2844 43.4335 71.6749 43.043C72.0054 42.7125 72.5095 42.6617 72.8934 42.8904L72.9949 42.9598ZM115.662 44.3927C115.967 44.0004 115.94 43.4332 115.579 43.0727C115.189 42.6822 114.556 42.6822 114.165 43.0727L112.341 44.8964L112.258 44.9906C111.953 45.3829 111.981 45.9502 112.341 46.3106C112.732 46.7012 113.365 46.7012 113.756 46.3106L115.579 44.4869L115.662 44.3927ZM122.496 49.4996C122.898 49.2009 123.021 48.6419 122.765 48.1977C122.488 47.7194 121.877 47.5556 121.399 47.8317L116.931 50.4108L116.834 50.475C116.432 50.7736 116.309 51.3327 116.565 51.7768C116.842 52.2551 117.453 52.419 117.931 52.1429L122.399 49.5638L122.496 49.4996ZM64.8552 56.2475L64.7408 56.2238L64.6269 56.2137C64.1733 56.1995 63.7529 56.4974 63.6304 56.9546C63.4875 57.4881 63.8041 58.0364 64.3375 58.1794L66.8288 58.8469L66.9431 58.8706C67.4385 58.9435 67.9208 58.6351 68.0535 58.1398C68.1964 57.6063 67.8799 57.058 67.3464 56.915L64.8552 56.2475ZM66.1582 64.0155C66.7105 64.0155 67.1582 64.4632 67.1582 65.0155C67.1582 65.5283 66.7722 65.951 66.2748 66.0087L66.1582 66.0155H61C60.4477 66.0155 60 65.5677 60 65.0155C60 64.5026 60.386 64.08 60.8834 64.0222L61 64.0155H66.1582ZM127.271 65.0155C127.271 64.4632 126.823 64.0155 126.271 64.0155H121.113L120.996 64.0222C120.499 64.08 120.113 64.5026 120.113 65.0155C120.113 65.5677 120.56 66.0155 121.113 66.0155H126.271L126.388 66.0087C126.885 65.951 127.271 65.5283 127.271 65.0155ZM68.0426 71.8396C68.1753 72.3349 67.9118 72.8431 67.4464 73.0276L67.3355 73.0643L64.8443 73.7318C64.3108 73.8748 63.7625 73.5582 63.6195 73.0247C63.4868 72.5294 63.7503 72.0212 64.2157 71.8367L64.3266 71.8L66.8179 71.1325C67.3513 70.9895 67.8997 71.3061 68.0426 71.8396ZM120.46 71.1474L120.346 71.1199L120.233 71.106C119.78 71.0769 119.35 71.3608 119.213 71.8138C119.052 72.3422 119.351 72.9007 119.879 73.0611L122.327 73.8041L122.44 73.8316C122.933 73.9208 123.425 73.6284 123.574 73.1377C123.734 72.6092 123.436 72.0508 122.908 71.8904L120.46 71.1474ZM70.4371 79.556C70.8389 79.2573 70.9619 78.6982 70.7055 78.2541C70.4294 77.7758 69.8178 77.6119 69.3395 77.8881L64.8723 80.4672L64.7747 80.5313C64.3729 80.83 64.2499 81.3891 64.5063 81.8332C64.7824 82.3115 65.394 82.4754 65.8723 82.1992L70.3395 79.6201L70.4371 79.556ZM113.794 83.749L113.703 83.6628L113.604 83.5901C113.228 83.3488 112.722 83.3831 112.381 83.7024C111.978 84.0799 111.957 84.7127 112.334 85.1159L114.083 86.9832L114.174 87.0694C114.556 87.3872 115.124 87.3782 115.496 87.0297C115.899 86.6523 115.92 86.0195 115.543 85.6163L113.794 83.749ZM80.8153 89.2071C81.014 88.7475 80.841 88.2018 80.3968 87.9454C79.9185 87.6693 79.307 87.8332 79.0308 88.3115L76.4517 92.7786L76.3992 92.883C76.2006 93.3425 76.3736 93.8882 76.8177 94.1446C77.296 94.4208 77.9076 94.2569 78.1838 93.7786L80.7629 89.3115L80.8153 89.2071ZM101.721 91.3296L101.688 91.2175L101.643 91.1122C101.442 90.7055 100.981 90.4751 100.52 90.5825C99.9823 90.7078 99.6479 91.2454 99.7732 91.7833L100.354 94.2746L100.387 94.3866C100.556 94.8579 101.055 95.1379 101.554 95.0216C102.092 94.8963 102.427 94.3587 102.301 93.8208L101.721 91.3296ZM94.6287 92.3761C94.571 91.8787 94.1483 91.4927 93.6355 91.4927C93.0832 91.4927 92.6355 91.9404 92.6355 92.4927V97.6509L92.6422 97.7675C92.6999 98.2649 93.1226 98.6509 93.6355 98.6509C94.1877 98.6509 94.6355 98.2032 94.6355 97.6509V92.4927L94.6287 92.3761ZM86.8085 90.6105C87.2992 90.7594 87.5915 91.2516 87.5023 91.7443L87.4749 91.8578L86.7319 94.3055C86.5714 94.8339 86.013 95.1323 85.4845 94.9719C84.9938 94.8229 84.7015 94.3307 84.7907 93.8381L84.8181 93.7245L85.5611 91.2769C85.7215 90.7484 86.28 90.45 86.8085 90.6105ZM108.176 88.2138L108.24 88.3115L110.819 92.7786C111.095 93.2569 110.931 93.8685 110.453 94.1446C110.009 94.401 109.45 94.2781 109.151 93.8762L109.087 93.7786L106.508 89.3115C106.232 88.8332 106.396 88.2216 106.874 87.9454C107.281 87.7104 107.785 87.7941 108.096 88.1192L108.176 88.2138ZM74.9198 83.7788C75.2682 84.1509 75.2772 84.7188 74.9595 85.1008L74.8732 85.1922L73.0059 86.9404C72.6028 87.3179 71.9699 87.2971 71.5925 86.8939C71.2441 86.5217 71.235 85.9539 71.5528 85.5719L71.639 85.4804L73.5063 83.7322C73.9095 83.3548 74.5423 83.3756 74.9198 83.7788ZM117.827 77.8356L117.931 77.8881L122.399 80.4672C122.877 80.7433 123.041 81.3549 122.765 81.8332C122.508 82.2773 121.963 82.4503 121.503 82.2517L121.399 82.1992L116.931 79.6201C116.453 79.344 116.289 78.7324 116.565 78.2541C116.802 77.8441 117.285 77.6651 117.72 77.7963L117.827 77.8356ZM123.624 57.0679C123.74 57.5674 123.46 58.0666 122.989 58.2357L122.877 58.2687L120.386 58.8491C119.848 58.9744 119.31 58.6399 119.185 58.102C119.068 57.6026 119.348 57.1033 119.82 56.9342L119.932 56.9012L122.423 56.3209C122.961 56.1955 123.498 56.53 123.624 57.0679ZM65.768 47.7792L65.8723 47.8317L70.3395 50.4108C70.8178 50.687 70.9816 51.2985 70.7055 51.7768C70.4491 52.221 69.9034 52.394 69.4438 52.1954L69.3395 52.1429L64.8723 49.5638C64.394 49.2876 64.2302 48.676 64.5063 48.1977C64.7627 47.7536 65.3084 47.5806 65.768 47.7792ZM78.1196 36.1547L78.1838 36.2523L80.7629 40.7195C81.039 41.1978 80.8751 41.8094 80.3968 42.0855C79.9527 42.3419 79.3936 42.2189 79.0949 41.8171L79.0308 41.7195L76.4517 37.2523C76.1756 36.774 76.3394 36.1624 76.8177 35.8863C77.2248 35.6513 77.7285 35.735 78.0397 36.0601L78.1196 36.1547Z" fill="#1560BD"/>
<path fill-rule="evenodd" clip-rule="evenodd" d="M99.0664 109.947C99.0664 109.947 101.575 96.4719 116.136 99.2287C110.815 113.796 99.0664 109.947 99.0664 109.947Z" fill="#D6E9FF" stroke="#1560BD" stroke-width="2" stroke-linejoin="round"/>
<path fill-rule="evenodd" clip-rule="evenodd" d="M98.7069 112.38C98.7069 112.38 98.788 101.275 89.0003 102.003C89.5859 111.643 98.7069 112.38 98.7069 112.38Z" fill="#93BBEB" stroke="#1560BD" stroke-width="2" stroke-linejoin="round"/>
<path fill-rule="evenodd" clip-rule="evenodd" d="M83 125H116C116.552 125 116.932 125.466 116.848 126.042L113.497 148.958C113.413 149.534 112.991 150 112.554 150H86.446C86.0091 150 85.5867 149.534 85.5026 148.958L82.1523 126.042C82.0682 125.466 82.4477 125 83 125Z" fill="#93BBEB" stroke="#1560BD" stroke-width="2"/>
<path opacity="0.2" fill-rule="evenodd" clip-rule="evenodd" d="M83.8873 131L83.4485 128H115.551L115.112 131H83.8873ZM86.4462 149H112.554C112.486 149 112.475 148.981 112.481 148.94L112.508 148.814L112.92 146H86.0808L86.4923 148.814C86.4969 148.845 86.5037 148.872 86.5094 148.896C86.5236 148.953 86.5318 148.986 86.4871 148.996L86.4462 149Z" fill="#1560BD"/>
<rect x="79" y="119" width="41" height="8" rx="1" fill="#93BBEB" stroke="#1560BD" stroke-width="2"/>
<rect opacity="0.246187" x="80" y="120" width="39" height="2" fill="white"/>
<rect opacity="0.246187" x="80" y="124" width="39" height="2" fill="#1560BD"/>
<rect opacity="0.2" x="85" y="120" width="5" height="6" fill="white"/>
<path opacity="0.2" fill-rule="evenodd" clip-rule="evenodd" d="M85 128H90L90.9284 149H88.2195L85 128Z" fill="white"/>
<path opacity="0.2" d="M32.0938 150H133.5" stroke="#1560BD" stroke-width="2" stroke-linecap="round"/>
<path opacity="0.2" d="M28 150H29" stroke="#1560BD" stroke-width="2" stroke-linecap="round"/>
<path opacity="0.2" d="M137 150H140" stroke="#1560BD" stroke-width="2" stroke-linecap="round"/>
<path d="M83 63.803L91.2186 72.0216L104.963 58" stroke="white" stroke-width="4" stroke-linejoin="round"/>
</svg>
