<svg width="147" height="147" viewBox="0 0 147 147" fill="none" xmlns="http://www.w3.org/2000/svg">
<g opacity="0.4">
<path opacity="0.4" fill-rule="evenodd" clip-rule="evenodd" d="M73.5 114C95.8675 114 114 95.8675 114 73.5C114 51.1325 95.8675 33 73.5 33C51.1325 33 33 51.1325 33 73.5C33 95.8675 51.1325 114 73.5 114Z" fill="#4A90E2" fill-opacity="0.8" stroke="#1560BD" stroke-width="2"/>
<path opacity="0.2" fill-rule="evenodd" clip-rule="evenodd" d="M73.5 131C105.256 131 131 105.256 131 73.5C131 41.7436 105.256 16 73.5 16C41.7436 16 16 41.7436 16 73.5C16 105.256 41.7436 131 73.5 131Z" fill="#4A90E2" fill-opacity="0.8" stroke="#1560BD" stroke-width="2"/>
<path opacity="0.1" fill-rule="evenodd" clip-rule="evenodd" d="M74 139C110.451 139 140 109.451 140 73C140 36.5492 110.451 7 74 7C37.5492 7 8 36.5492 8 73C8 109.451 37.5492 139 74 139Z" fill="#4A90E2" fill-opacity="0.8" stroke="#1560BD" stroke-width="2"/>
<path opacity="0.04" fill-rule="evenodd" clip-rule="evenodd" d="M73.5 146C113.541 146 146 113.541 146 73.5C146 33.4594 113.541 1 73.5 1C33.4594 1 1 33.4594 1 73.5C1 113.541 33.4594 146 73.5 146Z" fill="#4A90E2" fill-opacity="0.8" stroke="#1560BD" stroke-width="2"/>
<path opacity="0.4" fill-rule="evenodd" clip-rule="evenodd" d="M74 92C83.9411 92 92 83.9411 92 74C92 64.0589 83.9411 56 74 56C64.0589 56 56 64.0589 56 74C56 83.9411 64.0589 92 74 92Z" fill="#4A90E2" fill-opacity="0.8" stroke="#1560BD" stroke-width="2"/>
</g>
<g opacity="0.5">
<rect x="3" y="39" width="33" height="42" rx="2" fill="white" stroke="#1560BD" stroke-width="2"/>
<rect x="3" y="42" width="33" height="32" fill="#4A90E2" fill-opacity="0.12" stroke="#1560BD" stroke-width="2"/>
<path opacity="0.1" fill-rule="evenodd" clip-rule="evenodd" d="M4 43H35L4 68V43Z" fill="#4A90E2"/>
<path d="M20 77.5C20 77.7761 19.7761 78 19.5 78C19.2239 78 19 77.7761 19 77.5C19 77.2239 19.2239 77 19.5 77C19.7761 77 20 77.2239 20 77.5Z" fill="#4A90E2" stroke="#1560BD" stroke-width="2"/>
</g>
<rect x="15.1016" y="50" width="97.2308" height="79" rx="2" fill="white" stroke="#1560BD" stroke-width="2"/>
<rect x="18" y="53" width="91" height="65" fill="#4A90E2" fill-opacity="0.12" stroke="#1560BD" stroke-width="2"/>
<path opacity="0.1" fill-rule="evenodd" clip-rule="evenodd" d="M18 53H110V56L18 105.667V53Z" fill="#4A90E2"/>
<g opacity="0.5">
<path fill-rule="evenodd" clip-rule="evenodd" d="M30 64C27.7909 64 26 65.7909 26 68V84C26 86.2091 27.7909 88 30 88H44L51 95V88H56C58.2091 88 60 86.2091 60 84V68C60 65.7909 58.2091 64 56 64H30Z" fill="white"/>
<path d="M44 88L44.7071 87.2929C44.5196 87.1054 44.2652 87 44 87V88ZM51 95L50.2929 95.7071C50.5789 95.9931 51.009 96.0787 51.3827 95.9239C51.7564 95.7691 52 95.4045 52 95H51ZM51 88V87C50.4477 87 50 87.4477 50 88H51ZM27 68C27 66.3431 28.3431 65 30 65V63C27.2386 63 25 65.2386 25 68H27ZM27 84V68H25V84H27ZM30 87C28.3431 87 27 85.6569 27 84H25C25 86.7614 27.2386 89 30 89V87ZM44 87H30V89H44V87ZM51.7071 94.2929L44.7071 87.2929L43.2929 88.7071L50.2929 95.7071L51.7071 94.2929ZM50 88V95H52V88H50ZM56 87H51V89H56V87ZM59 84C59 85.6569 57.6569 87 56 87V89C58.7614 89 61 86.7614 61 84H59ZM59 68V84H61V68H59ZM56 65C57.6569 65 59 66.3431 59 68H61C61 65.2386 58.7614 63 56 63V65ZM30 65H56V63H30V65Z" fill="#1560BD"/>
<rect x="31" y="70" width="24" height="2" rx="1" fill="#4A90E2"/>
<rect x="31" y="75" width="24" height="2" rx="1" fill="#4A90E2"/>
<rect x="31" y="80" width="18" height="2" rx="1" fill="#4A90E2"/>
</g>
<path d="M7 120.897H122.462V125C122.462 127.209 120.671 129 118.462 129H11C8.79086 129 7 127.209 7 125V120.897Z" fill="#C1DAF9" stroke="#1560BD" stroke-width="2"/>
<path d="M48 122H80C80 123.657 78.6569 125 77 125H51C49.3431 125 48 123.657 48 122Z" fill="#4A90E2"/>
<rect opacity="0.12" x="18" y="53" width="92" height="3" fill="#1560BD"/>
<path fill-rule="evenodd" clip-rule="evenodd" d="M18 108.859L110 58V64.0769V66.1026L18 116.962V108.859Z" fill="#4A90E2" fill-opacity="0.12"/>
<rect x="26" y="99" width="37" height="3" rx="1.5" fill="#1560BD" fill-opacity="0.24"/>
<rect x="26" y="104" width="12" height="3" rx="1.5" fill="#1560BD" fill-opacity="0.22"/>
<rect x="40" y="104" width="23" height="3" rx="1.5" fill="#1560BD" fill-opacity="0.22"/>
<rect x="26" y="109" width="19" height="3" rx="1.5" fill="#1560BD" fill-opacity="0.22"/>
<rect x="67" y="99" width="16" height="3" rx="1.5" fill="#1560BD" fill-opacity="0.24"/>
<rect x="67" y="104" width="12" height="3" rx="1.5" fill="#1560BD" fill-opacity="0.22"/>
<rect x="67" y="109" width="19" height="3" rx="1.5" fill="#1560BD" fill-opacity="0.22"/>
<rect x="47" y="109" width="16" height="3" rx="1.5" fill="#1560BD" fill-opacity="0.22"/>
<path fill-rule="evenodd" clip-rule="evenodd" d="M84.6641 97C104.546 97 120.664 80.8823 120.664 61C120.664 41.1177 104.546 25 84.6641 25C64.7818 25 48.6641 41.1177 48.6641 61C48.6641 80.8823 64.7818 97 84.6641 97Z" fill="white" stroke="#1560BD" stroke-width="2"/>
<g opacity="0.24">
<path fill-rule="evenodd" clip-rule="evenodd" d="M84.6641 45C73.5942 45 63.6913 42.2242 57.0875 37.8571C51.8304 44.1148 48.6641 52.1876 48.6641 61C48.6641 69.8124 51.8304 77.8852 57.0875 84.1428C63.6913 79.7758 73.5942 77 84.6641 77C95.7339 77 105.637 79.7758 112.241 84.1428C117.498 77.8852 120.664 69.8124 120.664 61C120.664 52.1876 117.498 44.1148 112.241 37.8571C105.637 42.2242 95.7339 45 84.6641 45Z" fill="white"/>
<path d="M57.0875 37.8571L57.6391 37.023L56.8953 36.5312L56.3218 37.2139L57.0875 37.8571ZM57.0875 84.1428L56.3218 84.7861L56.8953 85.4688L57.6391 84.977L57.0875 84.1428ZM112.241 84.1428L111.689 84.977L112.433 85.4688L113.006 84.7861L112.241 84.1428ZM112.241 37.8571L113.006 37.2139L112.433 36.5312L111.689 37.023L112.241 37.8571ZM56.5359 38.6912C63.34 43.1907 73.4471 46 84.6641 46V44C73.7412 44 64.0426 41.2576 57.6391 37.023L56.5359 38.6912ZM49.6641 61C49.6641 52.4316 52.7418 44.5846 57.8531 38.5004L56.3218 37.2139C50.919 43.645 47.6641 51.9437 47.6641 61H49.6641ZM57.8531 83.4996C52.7418 77.4154 49.6641 69.5684 49.6641 61H47.6641C47.6641 70.0563 50.919 78.355 56.3218 84.7861L57.8531 83.4996ZM84.6641 76C73.4471 76 63.3399 78.8092 56.5359 83.3087L57.6391 84.977C64.0426 80.7423 73.7412 78 84.6641 78V76ZM112.792 83.3087C105.988 78.8092 95.881 76 84.6641 76V78C95.5869 78 105.286 80.7423 111.689 84.977L112.792 83.3087ZM119.664 61C119.664 69.5684 116.586 77.4154 111.475 83.4996L113.006 84.7861C118.409 78.355 121.664 70.0563 121.664 61H119.664ZM111.475 38.5004C116.586 44.5846 119.664 52.4316 119.664 61H121.664C121.664 51.9437 118.409 43.645 113.006 37.2139L111.475 38.5004ZM84.6641 46C95.881 46 105.988 43.1907 112.792 38.6912L111.689 37.023C105.286 41.2576 95.5869 44 84.6641 44V46Z" fill="#1560BD"/>
</g>
<path opacity="0.24" fill-rule="evenodd" clip-rule="evenodd" d="M84.6641 97C95.7098 97 104.664 80.8823 104.664 61C104.664 41.1177 95.7098 25 84.6641 25C73.6184 25 64.6641 41.1177 64.6641 61C64.6641 80.8823 73.6184 97 84.6641 97Z" stroke="#1560BD" stroke-width="2"/>
<g opacity="0.24">
<path fill-rule="evenodd" clip-rule="evenodd" d="M48.6655 61H120.269H48.6655Z" fill="#D8D8D8"/>
<path d="M48.6655 61H120.269" stroke="#1560BD" stroke-width="2"/>
</g>
<g opacity="0.24">
<path fill-rule="evenodd" clip-rule="evenodd" d="M84.5 25.1655V96.7693V25.1655Z" fill="#D8D8D8"/>
<path d="M84.5 25.1655V96.7693" stroke="#1560BD" stroke-width="2"/>
</g>
<mask id="path-38-outside-1" maskUnits="userSpaceOnUse" x="61" y="38" width="46" height="47" fill="black">
<rect fill="white" x="61" y="38" width="46" height="47"/>
<path fill-rule="evenodd" clip-rule="evenodd" d="M83.3012 42C83.4433 42 83.4789 43.5632 83.3723 45.4817L83.3313 46.2012C83.1597 49.4151 83.3459 50.2007 86.0499 55.9763L87.3006 58.6362C90.5221 65.52 91.7924 68.95 91.7924 70.742C91.7924 72.4118 90.3357 74.7567 87.4224 77.8121L87.1017 78.1408C85.0232 80.2575 84.1387 80.881 83.8341 80.4411C83.7275 80.299 83.9762 78.9845 84.3671 77.5279L84.5703 76.7361C85.5435 72.867 85.2642 72.1825 80.9891 63.0803L80.2472 61.5017C75.6187 51.5888 75.586 49.7934 78.8602 45.837C80.2458 44.1672 82.7683 42 83.3012 42ZM71.0086 46.2633C71.3639 46.2633 71.4704 47.0094 71.4349 49.3898L71.4185 50.1806C71.3821 52.5194 71.5595 52.8952 73.46 56.9217L74.1518 58.4031C78.3257 67.387 78.5991 68.9497 77.0128 71.346L76.8938 71.5194C75.0144 74.2173 71.5415 77.327 71.5415 76.2488L71.5444 76.2187C71.5729 76.0176 71.8102 75.0809 72.1099 74.0816L72.1881 73.802C72.976 70.8927 72.5859 69.2694 69.6585 63.1391L69.365 62.5096C66.2774 55.8661 65.6254 53.7388 66.1768 51.9123C66.6031 50.4556 70.227 46.2633 71.0086 46.2633ZM95.7715 49.3898C95.8781 47.2936 95.807 46.2633 95.5228 46.2633C94.8478 46.2633 92.6095 48.3595 91.4726 50.0648L91.4178 50.1486C89.7034 52.7915 89.9273 54.3551 93.4601 61.9672L94.4212 64.0281C96.7986 69.162 97.1443 70.4682 96.7701 72.3643L96.7307 72.554C96.5531 73.4421 96.3044 74.6856 96.1978 75.3251C95.9 76.8144 96.3112 76.7931 98.0919 75.1176L98.5071 74.7211C100.603 72.6605 102.451 69.8894 102.451 68.7525C102.451 67.5988 100.83 63.4638 98.3636 58.2044L95.6649 52.4807L95.7715 49.3898Z"/>
</mask>
<path fill-rule="evenodd" clip-rule="evenodd" d="M83.3012 42C83.4433 42 83.4789 43.5632 83.3723 45.4817L83.3313 46.2012C83.1597 49.4151 83.3459 50.2007 86.0499 55.9763L87.3006 58.6362C90.5221 65.52 91.7924 68.95 91.7924 70.742C91.7924 72.4118 90.3357 74.7567 87.4224 77.8121L87.1017 78.1408C85.0232 80.2575 84.1387 80.881 83.8341 80.4411C83.7275 80.299 83.9762 78.9845 84.3671 77.5279L84.5703 76.7361C85.5435 72.867 85.2642 72.1825 80.9891 63.0803L80.2472 61.5017C75.6187 51.5888 75.586 49.7934 78.8602 45.837C80.2458 44.1672 82.7683 42 83.3012 42ZM71.0086 46.2633C71.3639 46.2633 71.4704 47.0094 71.4349 49.3898L71.4185 50.1806C71.3821 52.5194 71.5595 52.8952 73.46 56.9217L74.1518 58.4031C78.3257 67.387 78.5991 68.9497 77.0128 71.346L76.8938 71.5194C75.0144 74.2173 71.5415 77.327 71.5415 76.2488L71.5444 76.2187C71.5729 76.0176 71.8102 75.0809 72.1099 74.0816L72.1881 73.802C72.976 70.8927 72.5859 69.2694 69.6585 63.1391L69.365 62.5096C66.2774 55.8661 65.6254 53.7388 66.1768 51.9123C66.6031 50.4556 70.227 46.2633 71.0086 46.2633ZM95.7715 49.3898C95.8781 47.2936 95.807 46.2633 95.5228 46.2633C94.8478 46.2633 92.6095 48.3595 91.4726 50.0648L91.4178 50.1486C89.7034 52.7915 89.9273 54.3551 93.4601 61.9672L94.4212 64.0281C96.7986 69.162 97.1443 70.4682 96.7701 72.3643L96.7307 72.554C96.5531 73.4421 96.3044 74.6856 96.1978 75.3251C95.9 76.8144 96.3112 76.7931 98.0919 75.1176L98.5071 74.7211C100.603 72.6605 102.451 69.8894 102.451 68.7525C102.451 67.5988 100.83 63.4638 98.3636 58.2044L95.6649 52.4807L95.7715 49.3898Z" fill="#1560BD"/>
<path d="M83.3723 45.4817L87.3658 45.709L87.3661 45.7036L83.3723 45.4817ZM83.3313 46.2012L79.3378 45.974L79.337 45.9879L83.3313 46.2012ZM86.0499 55.9763L82.4273 57.6723L82.4301 57.6783L86.0499 55.9763ZM87.3006 58.6362L90.9235 56.9408L90.9204 56.9342L87.3006 58.6362ZM87.4224 77.8121L90.2853 80.6057L90.3014 80.5891L90.3174 80.5724L87.4224 77.8121ZM87.1017 78.1408L89.9557 80.9434L89.9645 80.9344L87.1017 78.1408ZM83.8341 80.4411L87.1229 78.1643L87.0797 78.1019L87.0342 78.0412L83.8341 80.4411ZM84.3671 77.5279L88.2304 78.5644L88.236 78.5435L88.2414 78.5225L84.3671 77.5279ZM84.5703 76.7361L88.4447 77.7308L88.4471 77.7213L88.4495 77.7118L84.5703 76.7361ZM80.9891 63.0803L84.6096 61.3798L84.6093 61.3791L80.9891 63.0803ZM80.2472 61.5017L76.6228 63.1939L76.627 63.2029L80.2472 61.5017ZM78.8602 45.837L75.782 43.2827L75.7787 43.2867L78.8602 45.837ZM71.4349 49.3898L75.4341 49.4727L75.4343 49.4611L75.4345 49.4495L71.4349 49.3898ZM71.4185 50.1806L67.4194 50.0977L67.4192 50.108L67.419 50.1183L71.4185 50.1806ZM73.46 56.9217L77.0843 55.2293L77.0808 55.2218L77.0773 55.2143L73.46 56.9217ZM74.1518 58.4031L77.7794 56.7177L77.7761 56.7106L74.1518 58.4031ZM77.0128 71.346L80.3111 73.6089L80.3299 73.5816L80.3482 73.554L77.0128 71.346ZM76.8938 71.5194L80.1759 73.8059L80.1841 73.7941L80.1921 73.7824L76.8938 71.5194ZM71.5415 76.2488L67.5595 75.8702L67.5415 76.0591V76.2488H71.5415ZM71.5444 76.2187L67.584 75.6573L67.571 75.7484L67.5623 75.84L71.5444 76.2187ZM72.1099 74.0816L75.9412 75.231L75.9522 75.1946L75.9624 75.158L72.1099 74.0816ZM72.1881 73.802L76.0405 74.8783L76.0448 74.863L76.049 74.8477L72.1881 73.802ZM69.6585 63.1391L66.0332 64.8294L66.041 64.8461L66.049 64.8627L69.6585 63.1391ZM69.365 62.5096L65.7376 64.1954L65.7397 64.1999L69.365 62.5096ZM66.1768 51.9123L70.0061 53.0683L70.011 53.0521L70.0157 53.0359L66.1768 51.9123ZM95.7715 49.3898L91.7766 49.1867L91.775 49.2193L91.7739 49.2519L95.7715 49.3898ZM91.4726 50.0648L88.1444 47.846L88.1343 47.8613L88.1242 47.8766L91.4726 50.0648ZM91.4178 50.1486L88.0694 47.9604L88.0621 47.9718L91.4178 50.1486ZM93.4601 61.9672L89.8318 63.6511L89.8349 63.6578L93.4601 61.9672ZM94.4212 64.0281L98.0509 62.3472L98.0464 62.3375L94.4212 64.0281ZM96.7701 72.3643L100.687 73.1764L100.691 73.1577L100.694 73.1389L96.7701 72.3643ZM96.7307 72.554L92.814 71.7419L92.8112 71.7557L92.8084 71.7695L96.7307 72.554ZM96.1978 75.3251L100.12 76.1096L100.133 76.0463L100.143 75.9827L96.1978 75.3251ZM98.0919 75.1176L100.833 78.0308L100.843 78.0209L100.854 78.0108L98.0919 75.1176ZM98.5071 74.7211L101.269 77.6143L101.29 77.5941L101.311 77.5736L98.5071 74.7211ZM98.3636 58.2044L101.985 56.5058L101.982 56.4985L98.3636 58.2044ZM95.6649 52.4807L91.6673 52.3429L91.6339 53.3107L92.0469 54.1866L95.6649 52.4807ZM87.3661 45.7036C87.4233 44.6736 87.4452 43.6968 87.4291 42.9369C87.4215 42.5763 87.4037 42.1636 87.3575 41.7873C87.3384 41.6317 87.2921 41.2816 87.1712 40.8902C87.1193 40.7222 86.9732 40.271 86.6425 39.7809C86.385 39.3992 85.3296 38 83.3012 38V46C81.2906 46 80.2521 44.613 80.0107 44.2552C79.6961 43.7889 79.5652 43.3732 79.5277 43.2517C79.4739 43.0777 79.4475 42.9442 79.4368 42.8867C79.4245 42.8202 79.4187 42.7753 79.417 42.7611C79.4142 42.7379 79.4252 42.8359 79.4309 43.1059C79.4415 43.6073 79.4278 44.3714 79.3784 45.2599L87.3661 45.7036ZM87.3249 46.4284L87.3658 45.709L79.3787 45.2545L79.3378 45.974L87.3249 46.4284ZM89.6726 54.2802C88.2831 51.3124 87.7244 49.9959 87.469 49.0673C87.2804 48.3814 87.2462 47.9022 87.3256 46.4145L79.337 45.9879C79.2448 47.7141 79.2179 49.2346 79.7555 51.1889C80.2263 52.9005 81.1127 54.8645 82.4273 57.6723L89.6726 54.2802ZM90.9204 56.9342L89.6697 54.2742L82.4301 57.6783L83.6808 60.3382L90.9204 56.9342ZM95.7924 70.742C95.7924 69.0789 95.2426 67.1965 94.5049 65.2076C93.7258 63.1069 92.5463 60.4083 90.9235 56.9408L83.6777 60.3316C85.2765 63.7479 86.3428 66.2063 87.0042 67.9895C87.3335 68.8774 87.5403 69.5394 87.6618 70.0281C87.7217 70.2687 87.7557 70.4467 87.7741 70.5722C87.7928 70.6987 87.7924 70.7502 87.7924 70.742H95.7924ZM90.3174 80.5724C91.8748 78.9389 93.1716 77.3645 94.1012 75.8624C94.9894 74.4272 95.7924 72.6632 95.7924 70.742H87.7924C87.7924 70.4906 87.867 70.734 87.2986 71.6525C86.7715 72.5041 85.8833 73.6298 84.5275 75.0518L90.3174 80.5724ZM89.9645 80.9344L90.2853 80.6057L84.5596 75.0185L84.2388 75.3472L89.9645 80.9344ZM80.5454 82.718C80.9883 83.3578 81.6696 83.972 82.6073 84.3137C83.5055 84.641 84.3318 84.6064 84.9182 84.4964C85.9515 84.3026 86.7353 83.781 87.1057 83.5201C87.9568 82.9208 88.9265 81.9915 89.9557 80.9434L84.2476 75.3383C83.1984 76.4067 82.6865 76.8476 82.4996 76.9792C82.351 77.0838 82.7267 76.7679 83.4436 76.6335C83.8717 76.5532 84.5627 76.5116 85.3462 76.7971C86.169 77.097 86.7561 77.6345 87.1229 78.1643L80.5454 82.718ZM80.5037 76.4913C80.2889 77.2918 80.1026 78.0912 79.9807 78.7503C79.9221 79.0673 79.863 79.4334 79.8325 79.7843C79.8182 79.9485 79.7997 80.222 79.8155 80.536C79.8233 80.6915 79.8438 80.9536 79.9128 81.2655C79.967 81.5103 80.1289 82.1675 80.6341 82.8411L87.0342 78.0412C87.3002 78.3959 87.4559 78.728 87.546 78.9563C87.6386 79.1911 87.6921 79.3936 87.7237 79.5365C87.7849 79.8128 87.8002 80.0307 87.8053 80.1338C87.8112 80.2512 87.8094 80.3394 87.8078 80.3847C87.8061 80.4335 87.8034 80.466 87.8024 80.4773C87.8008 80.4963 87.8083 80.416 87.8474 80.2046C87.921 79.8067 88.0544 79.2205 88.2304 78.5644L80.5037 76.4913ZM80.696 75.7415L80.4927 76.5332L88.2414 78.5225L88.4447 77.7308L80.696 75.7415ZM77.3686 64.7809C79.589 69.5083 80.5189 71.5494 80.8853 72.9104C81.1072 73.7344 81.1122 74.0864 80.6911 75.7604L88.4495 77.7118C89.0016 75.5167 89.3536 73.5919 88.6103 70.8308C88.0116 68.6067 86.6643 65.7545 84.6096 61.3798L77.3686 64.7809ZM76.627 63.2029L77.3689 64.7816L84.6093 61.3791L83.8674 59.8004L76.627 63.2029ZM75.7787 43.2867C73.9227 45.5294 72.2979 48.0034 72.6034 51.7598C72.8503 54.7966 74.3873 58.4061 76.6228 63.1939L83.8716 59.8094C81.4786 54.6844 80.685 52.4397 80.577 51.1115C80.5276 50.5029 80.5235 50.101 81.9418 48.3873L75.7787 43.2867ZM83.3012 38C82.2 38 81.3562 38.4518 81.198 38.5325C80.8582 38.7056 80.5505 38.9038 80.3094 39.0698C79.8144 39.4105 79.2858 39.834 78.7884 40.2629C77.7988 41.1162 76.6529 42.2332 75.782 43.2827L81.9385 48.3913C82.4532 47.771 83.2613 46.9695 84.0125 46.3217C84.3855 46.0001 84.6741 45.7774 84.8453 45.6596C84.9372 45.5964 84.9248 45.6122 84.8304 45.6603C84.7825 45.6847 84.653 45.7487 84.4615 45.8135C84.3078 45.8655 83.8821 46 83.3012 46V38ZM75.4345 49.4495C75.4518 48.2861 75.4447 47.2154 75.331 46.3886C75.281 46.0257 75.1584 45.2532 74.7284 44.4776C74.4884 44.0448 74.0726 43.4635 73.3793 42.9921C72.6385 42.4885 71.8045 42.2633 71.0086 42.2633V50.2633C70.3014 50.2633 69.5485 50.0615 68.8815 49.608C68.2618 49.1867 67.9123 48.6823 67.7317 48.3566C67.4206 47.7953 67.389 47.3581 67.4056 47.4792C67.4251 47.6206 67.4535 48.1131 67.4354 49.3301L75.4345 49.4495ZM75.4177 50.2635L75.4341 49.4727L67.4358 49.3069L67.4194 50.0977L75.4177 50.2635ZM77.0773 55.2143C76.0652 53.0701 75.7048 52.2831 75.5316 51.7277C75.4453 51.4507 75.4019 51.2796 75.418 50.2429L67.419 50.1183C67.3987 51.4204 67.4259 52.6066 67.8942 54.1088C68.2758 55.3327 68.9543 56.7468 69.8427 58.6291L77.0773 55.2143ZM77.7761 56.7106L77.0843 55.2293L69.8357 58.6141L70.5274 60.0955L77.7761 56.7106ZM80.3482 73.554C80.8798 72.751 81.4559 71.7225 81.735 70.4054C82.0163 69.0781 81.9295 67.7836 81.6521 66.5C81.1471 64.1626 79.8125 61.0937 77.7794 56.7177L70.5242 60.0885C72.665 64.6963 73.5541 66.9007 73.8326 68.1897C73.947 68.7193 73.892 68.8263 73.9089 68.7467C73.9236 68.6773 73.939 68.7429 73.6774 69.1381L80.3482 73.554ZM80.1921 73.7824L80.3111 73.6089L73.7144 69.0831L73.5954 69.2565L80.1921 73.7824ZM67.5415 76.2488C67.5415 76.7888 67.6411 77.7815 68.3402 78.7477C69.125 79.8325 70.2426 80.3102 71.1762 80.4321C71.9916 80.5387 72.6545 80.3839 73.0028 80.2815C73.3892 80.1679 73.7103 80.0206 73.9391 79.9032C74.7623 79.481 75.564 78.8284 76.1693 78.2907C77.4776 77.1286 79.0342 75.4447 80.1759 73.8059L73.6117 69.233C72.8739 70.292 71.7544 71.5119 70.8564 72.3096C70.3586 72.7519 70.1746 72.8432 70.2879 72.785C70.3392 72.7587 70.5001 72.6787 70.746 72.6064C70.9537 72.5453 71.4958 72.4059 72.2125 72.4995C73.0475 72.6086 74.0887 73.0452 74.8217 74.0584C75.469 74.953 75.5415 75.8437 75.5415 76.2488H67.5415ZM67.5623 75.84L67.5595 75.8702L75.5235 76.6275L75.5264 76.5973L67.5623 75.84ZM68.2786 72.9323C67.9974 73.8698 67.6625 75.1032 67.584 75.6573L75.5048 76.78C75.4895 76.8876 75.4747 76.9536 75.4796 76.93C75.4807 76.9247 75.4858 76.9011 75.4966 76.8552C75.5179 76.7645 75.5511 76.6308 75.5956 76.4604C75.6843 76.1208 75.8056 75.683 75.9412 75.231L68.2786 72.9323ZM68.3356 72.7257L68.2575 73.0053L75.9624 75.158L76.0405 74.8783L68.3356 72.7257ZM66.049 64.8627C67.5362 67.9771 68.1734 69.5449 68.4249 70.6032C68.6023 71.3495 68.5888 71.7903 68.3272 72.7563L76.049 74.8477C76.5753 72.9044 76.7608 71.0789 76.2082 68.7536C75.7298 66.7404 74.7083 64.4314 73.2681 61.4154L66.049 64.8627ZM65.7397 64.1999L66.0332 64.8294L73.2838 61.4488L72.9903 60.8193L65.7397 64.1999ZM62.3475 50.7563C61.7614 52.6976 61.9694 54.5472 62.5769 56.5603C63.1503 58.4604 64.204 60.8956 65.7376 64.1954L72.9924 60.8237C71.4384 57.4801 70.6223 55.5298 70.2357 54.2489C70.0517 53.6392 70.0098 53.3208 70.0017 53.1774C69.996 53.0779 70.0053 53.0709 70.0061 53.0683L62.3475 50.7563ZM71.0086 42.2633C70.1503 42.2633 69.4939 42.5268 69.1997 42.6582C68.8501 42.8142 68.5632 42.9917 68.3622 43.1269C67.9584 43.3984 67.5885 43.7122 67.2897 43.9845C66.6753 44.5443 66.0205 45.2423 65.4255 45.9348C64.8246 46.6341 64.2161 47.4079 63.7078 48.1457C63.2893 48.7532 62.6416 49.7507 62.3378 50.7887L70.0157 53.0359C69.9473 53.2696 69.8878 53.344 69.9697 53.1969C70.0316 53.0857 70.1377 52.9137 70.2956 52.6845C70.6111 52.2266 71.0373 51.6791 71.4934 51.1483C71.9554 50.6107 72.3797 50.1696 72.6779 49.8978C72.8354 49.7543 72.8802 49.7292 72.8259 49.7658C72.7996 49.7835 72.6711 49.8695 72.4607 49.9634C72.3056 50.0326 71.7691 50.2633 71.0086 50.2633V42.2633ZM95.5228 50.2633C94.1778 50.2633 93.1914 49.5955 92.6415 48.9823C92.1706 48.4571 91.9801 47.9482 91.9183 47.7705C91.7895 47.3999 91.7924 47.1771 91.8055 47.3473C91.8247 47.5971 91.8286 48.1643 91.7766 49.1867L99.7663 49.5929C99.8209 48.5191 99.8426 47.5232 99.7819 46.7337C99.755 46.3844 99.6935 45.7729 99.4748 45.1436C99.368 44.8366 99.1262 44.2308 98.5974 43.6412C97.9896 42.9634 96.9389 42.2633 95.5228 42.2633V50.2633ZM94.8008 52.2836C95.1599 51.745 95.7859 51.0249 96.4072 50.4422C96.7135 50.155 96.9347 49.9804 97.041 49.9069C97.0976 49.8677 97.0497 49.9074 96.914 49.9717C96.8428 50.0054 96.7021 50.0676 96.5046 50.1255C96.3196 50.1798 95.9746 50.2633 95.5228 50.2633V42.2633C94.5456 42.2633 93.7905 42.5991 93.4892 42.7418C93.0974 42.9274 92.755 43.1441 92.4891 43.3281C91.9503 43.7009 91.4144 44.157 90.9346 44.6069C89.9838 45.4987 88.9222 46.6793 88.1444 47.846L94.8008 52.2836ZM94.7662 52.3369L94.821 52.253L88.1242 47.8766L88.0695 47.9604L94.7662 52.3369ZM97.0884 60.2833C95.269 56.3632 94.5921 54.5716 94.4151 53.5266C94.3799 53.319 94.3765 53.198 94.378 53.1383C94.3792 53.0847 94.3848 53.0595 94.3893 53.042C94.4005 52.9986 94.4532 52.8194 94.7736 52.3255L88.0621 47.9718C87.5252 48.7993 86.963 49.8067 86.6444 51.0376C86.3138 52.315 86.3095 53.5759 86.5274 54.8623C86.9169 57.1628 88.1183 59.9591 89.8318 63.6511L97.0884 60.2833ZM98.0464 62.3375L97.0853 60.2766L89.8349 63.6578L90.796 65.7187L98.0464 62.3375ZM100.694 73.1389C101 71.5916 100.989 70.1566 100.48 68.3338C100.043 66.7704 99.2228 64.878 98.0509 62.3472L90.7915 65.709C91.997 68.3121 92.5384 69.6397 92.7751 70.4869C92.9394 71.0748 92.9146 71.2409 92.8458 71.5898L100.694 73.1389ZM100.647 73.366L100.687 73.1764L92.8534 71.5522L92.814 71.7419L100.647 73.366ZM100.143 75.9827C100.237 75.4238 100.468 74.2617 100.653 73.3384L92.8084 71.7695C92.6378 72.6226 92.3723 73.9475 92.2522 74.6675L100.143 75.9827ZM95.3508 72.2044C94.9349 72.5957 94.7018 72.7916 94.5948 72.8723C94.5416 72.9124 94.5976 72.8643 94.7375 72.789C94.8272 72.7408 95.281 72.4961 95.9703 72.4277C96.8143 72.3439 98.0682 72.5424 99.0647 73.5674C99.8857 74.4119 100.043 75.3382 100.082 75.621C100.156 76.1677 100.047 76.4772 100.12 76.1096L92.2755 74.5407C92.2001 74.9177 92.0309 75.783 92.1537 76.6921C92.2164 77.1562 92.4259 78.2154 93.3287 79.144C94.4069 80.253 95.7724 80.4866 96.7605 80.3886C97.5938 80.3059 98.2242 79.9974 98.5255 79.8354C98.877 79.6465 99.1797 79.4345 99.4108 79.2603C99.8724 78.9123 100.358 78.4772 100.833 78.0308L95.3508 72.2044ZM95.745 71.828L95.3297 72.2245L100.854 78.0108L101.269 77.6143L95.745 71.828ZM98.4507 68.7525C98.4507 68.3901 98.5178 68.1633 98.5251 68.1383C98.5384 68.0924 98.5355 68.1152 98.4895 68.216C98.3961 68.421 98.2159 68.7503 97.9305 69.181C97.361 70.0406 96.5529 71.0331 95.703 71.8687L101.311 77.5736C102.557 76.3486 103.721 74.9252 104.599 73.5998C105.038 72.9381 105.451 72.2326 105.769 71.5338C106.034 70.9516 106.451 69.9219 106.451 68.7525H98.4507ZM94.7421 59.903C95.9522 62.4829 96.934 64.7438 97.604 66.4673C97.9406 67.3332 98.18 68.0165 98.3291 68.5112C98.5208 69.1475 98.4507 69.115 98.4507 68.7525H106.451C106.451 67.8131 106.178 66.8312 105.989 66.2032C105.757 65.4339 105.437 64.5384 105.06 63.5689C104.304 61.6216 103.242 59.1853 101.985 56.5058L94.7421 59.903ZM92.0469 54.1866L94.7455 59.9102L101.982 56.4985L99.2829 50.7749L92.0469 54.1866ZM91.7739 49.2519L91.6673 52.3429L99.6625 52.6186L99.7691 49.5276L91.7739 49.2519Z" fill="white" mask="url(#path-38-outside-1)"/>
</svg>
