<?xml version="1.0" encoding="UTF-8"?>
<svg width="148px" height="147px" viewBox="0 0 148 147" version="1.1" xmlns="http://www.w3.org/2000/svg" xmlns:xlink="http://www.w3.org/1999/xlink">
    <title>icon 25</title>
    <g id="Illustration" stroke="none" stroke-width="1" fill="none" fill-rule="evenodd">
        <g id="icon-25" transform="translate(1.500000, 1.000000)">
            <g id="Group-35">
                <g id="Group" fill="#4A90E2" fill-opacity="0.8" stroke="#1560BD" stroke-width="2">
                    <g id="rings">
                        <circle id="Oval" opacity="0.015" cx="72.5" cy="72.5" r="72.5"></circle>
                        <ellipse id="Oval" opacity="0.04" cx="72.9559748" cy="72.9588608" rx="65.6603774" ry="65.6170886"></ellipse>
                        <ellipse id="Oval" opacity="0.07" cx="72.9559748" cy="72.9588608" rx="57.4528302" ry="57.3575949"></ellipse>
                        <ellipse id="Oval" opacity="0.13" cx="72.9559748" cy="72.5" rx="40.1257862" ry="40.3797468"></ellipse>
                        <ellipse id="Oval" opacity="0.1" cx="72.9559748" cy="72.5" rx="18.2389937" ry="18.3544304"></ellipse>
                    </g>
                </g>
                <g id="Group-4" opacity="0.5" transform="translate(2.000000, 38.000000)">
                    <rect id="Rectangle" stroke="#1560BD" stroke-width="2" fill="#FFFFFF" x="0" y="0" width="33" height="42" rx="2"></rect>
                    <rect id="Rectangle" stroke="#1560BD" stroke-width="2" fill-opacity="0.12" fill="#4A90E2" x="0" y="3" width="33" height="32"></rect>
                    <polygon id="Rectangle" fill="#4A90E2" opacity="0.100000001" points="1 4 32 4 1 29"></polygon>
                    <circle id="Oval" stroke="#1560BD" stroke-width="2" fill="#4A90E2" cx="16.5" cy="38.5" r="1"></circle>
                </g>
                <g id="Group-4" transform="translate(6.000000, 49.000000)">
                    <rect id="Rectangle" stroke="#1560BD" stroke-width="2" fill="#FFFFFF" x="8.1025641" y="0" width="97.2307692" height="79" rx="2"></rect>
                    <rect id="Rectangle" stroke="#1560BD" stroke-width="2" fill-opacity="0.12" fill="#4A90E2" x="11" y="3" width="91" height="65"></rect>
                    <polygon id="Rectangle" fill="#4A90E2" opacity="0.100000001" points="11 3 103 3 103 6 11 55.6666667"></polygon>
                    <g id="Group-31" opacity="0.5" transform="translate(19.000000, 14.000000)">
                        <path d="M30,0 C32.209139,-4.05812251e-16 34,1.790861 34,4 L34,20 C34,22.209139 32.209139,24 30,24 L25,24 L25,31 L18,24 L4,24 C1.790861,24 2.705415e-16,22.209139 0,20 L0,4 C-2.705415e-16,1.790861 1.790861,4.05812251e-16 4,0 L30,0 Z" id="Combined-Shape" stroke="#1560BD" stroke-width="2" fill="#FFFFFF" stroke-linejoin="round"></path>
                        <rect id="Rectangle" fill="#4A90E2" x="5" y="6" width="24" height="2" rx="1"></rect>
                        <rect id="Rectangle" fill="#4A90E2" x="5" y="11" width="24" height="2" rx="1"></rect>
                        <rect id="Rectangle" fill="#4A90E2" x="5" y="16" width="18" height="2" rx="1"></rect>
                    </g>
                    <path d="M0,70.8974359 L115.461538,70.8974359 L115.461538,75 C115.461538,77.209139 113.670677,79 111.461538,79 L4,79 C1.790861,79 2.705415e-16,77.209139 0,75 L0,70.8974359 L0,70.8974359 Z" id="Rectangle" stroke="#1560BD" stroke-width="2" fill="#C1DAF9"></path>
                    <path d="M41,72 L73,72 C73,73.6568542 71.6568542,75 70,75 L44,75 C42.3431458,75 41,73.6568542 41,72 L41,72 L41,72 Z" id="Rectangle" fill="#4A90E2"></path>
                    <rect id="Rectangle" fill="#1560BD" opacity="0.119999997" x="11" y="3" width="92" height="3"></rect>
                    <polygon id="Rectangle" fill-opacity="0.12" fill="#4A90E2" points="11 58.8589804 103 8 103 14.0769231 103 16.1025641 11 66.9615445"></polygon>
                </g>
                <rect id="Rectangle" fill-opacity="0.24" fill="#1560BD" x="25" y="98" width="37" height="3" rx="1.5"></rect>
                <rect id="Rectangle" fill-opacity="0.22" fill="#1560BD" x="25" y="103" width="12" height="3" rx="1.5"></rect>
                <rect id="Rectangle" fill-opacity="0.22" fill="#1560BD" x="39" y="103" width="23" height="3" rx="1.5"></rect>
                <rect id="Rectangle" fill-opacity="0.22" fill="#1560BD" x="25" y="108" width="19" height="3" rx="1.5"></rect>
                <rect id="Rectangle" fill-opacity="0.24" fill="#1560BD" x="66" y="98" width="16" height="3" rx="1.5"></rect>
                <rect id="Rectangle" fill-opacity="0.22" fill="#1560BD" x="66" y="103" width="12" height="3" rx="1.5"></rect>
                <rect id="Rectangle" fill-opacity="0.22" fill="#1560BD" x="66" y="108" width="19" height="3" rx="1.5"></rect>
                <rect id="Rectangle" fill-opacity="0.22" fill="#1560BD" x="46" y="108" width="16" height="3" rx="1.5"></rect>
            </g>
            <g id="Group-33" transform="translate(47.000000, 24.000000)" stroke="#1560BD" stroke-width="2">
                <circle id="Oval" fill="#FFFFFF" cx="36.6655232" cy="36" r="36"></circle>
                <path d="M64.2414496,12.8563584 C69.4989107,19.1141278 72.6655232,27.1872629 72.6655232,36 C72.6655232,44.8125845 69.4990204,52.8855926 64.2417227,59.1433165 C57.6375497,54.7755779 47.7349803,52 36.6655232,52 C25.596066,52 15.6934966,54.7755779 9.08969824,59.1423542 C3.83202592,52.8855926 0.665523156,44.8125845 0.665523156,36 C0.665523156,27.1872629 3.83213558,19.1141278 9.08959667,12.8563584 C15.6934966,17.2244221 25.596066,20 36.6655232,20 C47.6007612,20 57.3972374,17.2913227 63.9996803,13.0157857 Z" id="Combined-Shape" fill="#FFFFFF" opacity="0.24"></path>
                <ellipse id="Oval" opacity="0.24" cx="36.6655232" cy="36" rx="20" ry="36"></ellipse>
                <line x1="0.665523156" y1="36" x2="72.2692967" y2="36" id="Path-7" fill="#D8D8D8" opacity="0.24"></line>
                <line x1="36.5" y1="0.165523156" x2="36.5" y2="71.7692967" id="Path-7" fill="#D8D8D8" opacity="0.24"></line>
            </g>
            <path d="M82.3012142,39 C82.5609464,39 83.2305546,39.3426163 84.0620652,39.8923808 C84.1250068,40.07454 84.1850178,40.2799968 84.2456577,40.5318766 C84.3978053,41.163852 84.4204719,41.533802 84.4298342,41.9925584 C84.4434803,42.6612136 84.4254294,43.5803705 84.3690406,44.5953366 L84.3690406,44.5953366 L84.3284881,45.3078779 C84.1730344,48.2187095 84.4224822,48.9192742 86.8598362,54.1252648 L86.8598362,54.1252648 L88.1120838,56.7884785 C91.5591415,64.1543242 92.7923703,67.8319545 92.7923703,69.7420306 C92.7923703,71.6952219 91.3519089,74.5403813 87.8699199,78.1922234 C86.5507099,79.5371066 85.6505863,80.3634435 85.0401207,80.8107154 C84.4624021,81.2339943 84.0002483,81.4220131 83.6640938,81.5020293 C82.9398137,81.5942361 82.5371262,81.4719399 82.245721,81.3135208 C81.4629071,80.8879528 80.4621984,79.6466748 81.4324813,76.0203522 L81.4324813,76.0203522 L81.6307285,75.2482401 C82.5151694,71.7319763 82.0163717,71.1010404 78.1790004,62.9309758 L78.1790004,62.9309758 L77.4350099,61.3477987 C74.988318,56.1076734 73.8078788,52.984819 73.6027633,50.6682148 C73.3592026,47.9174046 74.2410025,46.0733228 76.3211095,43.5598629 C78.1869022,41.3113435 81.6266021,39 82.3012142,39 Z M70.0085781,43.263342 C70.280252,43.263342 70.8407706,43.4995384 71.5365216,43.9616283 C72.177366,44.6179357 72.2681139,45.0634915 72.3506329,45.668631 C72.4248848,46.2131448 72.4546578,47.0901643 72.434602,48.4254882 L72.434602,48.4254882 L72.4181995,49.2167922 C72.3868649,51.2550824 72.6193092,51.5736423 74.2721567,55.0754776 L74.2721567,55.0754776 L74.9655545,56.56038 C79.9114366,67.2057197 79.4756327,68.7381669 77.6804902,71.4499781 C76.5676063,73.0499157 75.0805425,74.6764255 73.8642835,75.7663199 C73.1036646,76.4479135 72.4182904,76.931274 71.9502702,77.1600965 C71.7697351,77.248363 71.5394472,77.3388923 71.2669147,77.4272282 C70.7382408,77.4183187 70.2949725,77.2582608 69.9327652,77.0072981 C69.0042089,76.3639286 68.4478656,75.011902 69.188327,72.5261295 C69.938861,69.7370252 69.3859858,68.3034433 66.8497678,62.9925937 L66.8497678,62.9925937 L66.5513239,62.3525046 C63.0181397,54.7502641 62.6437372,52.3827038 63.2621604,50.3341663 C63.5253051,49.4613022 64.6426885,47.7576929 65.9020174,46.2853892 C67.5980362,44.3025437 69.4387272,43.263342 70.0085781,43.263342 Z M94.5227946,43.263342 C94.8157175,43.263342 95.3681429,43.5145461 96.0363213,43.9426931 C96.6659807,44.8512957 96.7399799,45.2855745 96.786211,45.8667653 C96.8318618,46.4406606 96.8286844,47.3082179 96.7697443,48.4748781 L96.7697443,48.4748781 L96.6804042,51.0657406 L99.1742676,56.3550967 C101.839761,62.0379679 103.450725,66.5119938 103.450725,67.752471 C103.450725,69.1230038 101.500876,72.6039622 98.8984715,75.1579453 L98.8984715,75.1579453 L98.4678424,75.5690729 C97.0020425,76.9495047 96.0390328,77.3463148 95.5867013,77.3958706 C95.3245026,77.4245961 94.8695202,77.3765614 94.1964243,77.130321 C94.0314716,76.9649418 93.8694462,76.7640908 93.7049115,76.5173466 C93.0531377,75.5399149 93.0510474,74.8756742 93.2305218,73.9636113 C93.3423702,73.3005413 93.5908531,72.0553539 93.7689352,71.1649572 C94.1265796,69.3612549 93.6300909,68.2386262 91.6085926,63.8733996 L91.6085926,63.8733996 L90.6459454,61.8091549 C86.4334648,52.732618 86.774788,51.0895909 88.7399549,48.0602034 C90.428165,45.5252831 93.6438112,43.263342 94.5227946,43.263342 Z" id="Shape" stroke="#FFFFFF" stroke-width="4" fill="#1560BD" fill-rule="nonzero"></path>
        </g>
    </g>
</svg>