<svg width="180" height="60" viewBox="0 0 180 60" fill="none" xmlns="http://www.w3.org/2000/svg">
<g id="AppStore">
<g id="Group">
<g id="Group_2">
<path id="Path" d="M165.202 0.000195H14.302C13.752 0.000195 13.2085 0.000195 12.6599 0.003195C12.2007 0.006195 11.7451 0.01491 11.2815 0.022245C10.2743 0.0340977 9.26941 0.122709 8.27565 0.28731C7.28329 0.455494 6.32201 0.772569 5.42433 1.22781C4.52775 1.6869 3.70852 2.28345 2.99636 2.9958C2.28045 3.70615 1.68369 4.52722 1.22903 5.42743C0.7731 6.32586 0.456961 7.2886 0.291525 8.28242C0.124516 9.27497 0.0346476 10.279 0.022725 11.2854C0.008805 11.7453 0.007335 12.2067 0 12.6667V47.3381C0.007335 47.8038 0.008805 48.255 0.022725 48.7209C0.0346512 49.7273 0.12452 50.7313 0.291525 51.7238C0.456504 52.7182 0.772662 53.6815 1.22903 54.5802C1.68349 55.4776 2.28033 56.2953 2.99636 57.0017C3.70582 57.7172 4.52558 58.3142 5.42433 58.7697C6.322 59.2262 7.28318 59.5452 8.27565 59.7159C9.26958 59.8792 10.2743 59.9679 11.2815 59.9811C11.7451 59.9913 12.2007 59.9972 12.6599 59.9972C13.2085 60.0002 13.752 60.0002 14.302 60.0002H165.202C165.741 60.0002 166.289 60.0002 166.828 59.9972C167.285 59.9972 167.754 59.9913 168.211 59.9811C169.216 59.9686 170.219 59.8799 171.211 59.7159C172.207 59.544 173.171 59.2251 174.073 58.7697C174.971 58.3139 175.79 57.717 176.499 57.0017C177.213 56.2925 177.811 55.4754 178.271 54.5802C178.724 53.6808 179.038 52.7176 179.2 51.7238C179.367 50.7312 179.46 49.7274 179.479 48.7209C179.484 48.255 179.484 47.8038 179.484 47.3381C179.496 46.7931 179.496 46.2512 179.496 45.6974V14.3044C179.496 13.7551 179.496 13.2102 179.484 12.6667C179.484 12.2067 179.484 11.7453 179.479 11.2854C179.46 10.2788 179.367 9.27505 179.2 8.28236C179.037 7.28912 178.724 6.32645 178.271 5.42737C177.346 3.62299 175.877 2.15423 174.073 1.22767C173.171 0.773546 172.207 0.456556 171.211 0.287175C170.219 0.121849 169.216 0.0332066 168.211 0.022035C167.754 0.014715 167.285 0.005925 166.828 0.003C166.289 0 165.741 0 165.202 0V0.000195Z" fill="#A6A6A6"/>
<path id="Path_2" d="M12.6672 58.6877C12.2102 58.6877 11.7642 58.6819 11.3108 58.6717C10.3715 58.6595 9.43435 58.5777 8.50709 58.427C7.64248 58.2781 6.8049 58.0011 6.02198 57.6052C5.24625 57.2125 4.53871 56.6977 3.92648 56.0803C3.30539 55.4702 2.78831 54.7626 2.39572 53.9855C1.9988 53.2034 1.72411 52.3651 1.58122 51.4997C1.42691 50.5699 1.34342 49.6297 1.33147 48.6872C1.32196 48.3709 1.30951 47.3176 1.30951 47.3176V12.6668C1.30951 12.6668 1.32277 11.6296 1.33154 11.3249C1.34298 10.384 1.42599 9.44522 1.57984 8.51684C1.723 7.64912 1.9979 6.80837 2.39503 6.02369C2.78618 5.24716 3.30039 4.53903 3.91774 3.92676C4.53439 3.30868 5.24419 2.79115 6.02125 2.39306C6.80237 1.99838 7.63836 1.72334 8.50123 1.57715C9.43153 1.425 10.3719 1.34274 11.3145 1.33106L12.668 1.31274H166.821L168.19 1.33179C169.124 1.34289 170.056 1.42442 170.978 1.57568C171.85 1.72371 172.694 2.00067 173.484 2.39745C175.041 3.19972 176.308 4.46899 177.107 6.02735C177.498 6.80661 177.768 7.6405 177.91 8.50073C178.065 9.43673 178.153 10.3829 178.17 11.3315C178.175 11.7563 178.175 12.2126 178.175 12.6668C178.187 13.2293 178.187 13.7646 178.187 14.3044V45.6974C178.187 46.2424 178.187 46.7741 178.175 47.3102C178.175 47.798 178.175 48.2449 178.169 48.7048C178.151 49.6366 178.066 50.5658 177.913 51.485C177.773 52.3566 177.499 53.2015 177.103 53.99C176.707 54.7587 176.193 55.4601 175.579 56.0686C174.966 56.6893 174.258 57.2072 173.48 57.6023C172.692 58.0013 171.849 58.2794 170.978 58.427C170.051 58.5785 169.114 58.6603 168.174 58.6717C167.735 58.6819 167.275 58.6877 166.828 58.6877L165.202 58.6907L12.6672 58.6877Z" fill="black"/>
</g>
<g id="_Group_">
<g id="_Group_2">
<g id="_Group_3">
<path id="_Path_" d="M37.1533 30.4512C37.1861 27.9065 38.5202 25.556 40.6881 24.2231C39.3143 22.261 37.0956 21.0615 34.7014 20.9866C32.1825 20.7222 29.7406 22.4939 28.4571 22.4939C27.1487 22.4939 25.1724 21.0129 23.0443 21.0567C20.2443 21.1471 17.6972 22.7005 16.3349 25.1485C13.4339 30.1711 15.5978 37.5527 18.3767 41.6126C19.7671 43.6006 21.392 45.8213 23.5182 45.7425C25.5988 45.6562 26.3758 44.4158 28.8873 44.4158C31.3754 44.4158 32.1045 45.7425 34.2738 45.6925C36.5063 45.6562 37.913 43.6956 39.2545 41.6887C40.2535 40.2722 41.0222 38.7066 41.5322 37.05C38.8806 35.9285 37.1564 33.3303 37.1533 30.4512V30.4512Z" fill="white"/>
<path id="_Path_2" d="M33.0559 18.3165C34.2732 16.8552 34.8729 14.9769 34.7277 13.0806C32.8679 13.2759 31.15 14.1647 29.9163 15.57C28.698 16.9564 28.0809 18.7703 28.2007 20.6121C30.0854 20.6315 31.8749 19.7854 33.0559 18.3165V18.3165Z" fill="white"/>
</g>
</g>
<g id="Group_3">
<path id="Shape" fill-rule="evenodd" clip-rule="evenodd" d="M56.3533 40.7095H63.4534L65.157 45.7442H68.2156L61.4905 27.1172H58.366L51.6409 45.7442H54.6482L56.3533 40.7095ZM62.7166 38.3863H57.0886L59.8646 30.2154H59.9422L62.7166 38.3863Z" fill="white"/>
<path id="Shape_2" fill-rule="evenodd" clip-rule="evenodd" d="M77.072 45.8863C80.4807 45.8863 82.7395 43.1749 82.7395 38.9547C82.7395 34.7462 80.4675 32.0216 77.0207 32.0216C75.2472 31.9644 73.5857 32.8868 72.6965 34.4224H72.6453V32.1637H69.947V50.2369H72.7346V43.5103H72.7991C73.6504 45.0556 75.3101 45.9785 77.072 45.8863ZM76.2854 34.3975C78.4533 34.3975 79.8742 36.2052 79.8742 38.9547C79.8742 41.7291 78.4534 43.5235 76.2854 43.5235C74.1555 43.5235 72.7229 41.691 72.7229 38.9547C72.7229 36.2432 74.1555 34.3975 76.2854 34.3975Z" fill="white"/>
<path id="Shape_3" fill-rule="evenodd" clip-rule="evenodd" d="M92.0193 45.8863C95.428 45.8863 97.6868 43.1749 97.6868 38.9547C97.6868 34.7462 95.4148 32.0216 91.968 32.0216C90.1944 31.9644 88.5329 32.8868 87.6437 34.4224H87.5925V32.1636H84.8942V50.2369H87.6818V43.5103H87.7463C88.5977 45.0556 90.2573 45.9785 92.0193 45.8863ZM91.2326 34.3975C93.4006 34.3975 94.8215 36.2052 94.8215 38.9547H94.8215C94.8215 41.7291 93.4006 43.5235 91.2326 43.5235C89.1028 43.5235 87.6701 41.691 87.6701 38.9547C87.6701 36.2432 89.1028 34.3975 91.2326 34.3975Z" fill="white"/>
<path id="Path_3" d="M107.566 40.5543C107.772 42.4015 109.567 43.6143 112.019 43.6143C114.368 43.6143 116.059 42.4014 116.059 40.7359C116.059 39.29 115.039 38.4244 112.625 37.8311L110.211 37.2495C106.791 36.4234 105.203 34.8237 105.203 32.228C105.203 29.0142 108.004 26.8066 111.981 26.8066C115.917 26.8066 118.615 29.0142 118.706 32.228H115.892C115.723 30.3691 114.187 29.2471 111.941 29.2471C109.696 29.2471 108.159 30.3823 108.159 32.0347C108.159 33.3516 109.14 34.1265 111.541 34.7197L113.593 35.2236C117.415 36.1274 119.003 37.6626 119.003 40.3872C119.003 43.872 116.227 46.0546 111.812 46.0546C107.681 46.0546 104.892 43.9233 104.712 40.5541L107.566 40.5543Z" fill="white"/>
<path id="Path_4" d="M125.019 28.9497V32.1636H127.602V34.3711H125.019V41.8579C125.019 43.021 125.536 43.563 126.672 43.563C126.978 43.5576 127.284 43.5361 127.589 43.4985V45.6928C127.078 45.7882 126.559 45.8314 126.04 45.8217C123.291 45.8217 122.218 44.789 122.218 42.1552V34.3711H120.244V32.1636H122.218V28.9497H125.019Z" fill="white"/>
<path id="Shape_4" fill-rule="evenodd" clip-rule="evenodd" d="M135.538 31.9966C131.614 31.9966 129.097 34.6816 129.097 38.9546C129.097 43.2392 131.589 45.9126 135.538 45.9126C139.489 45.9126 141.981 43.2393 141.981 38.9546C141.981 34.6816 139.476 31.9966 135.538 31.9966ZM135.538 34.2935C137.797 34.2935 139.14 36.0234 139.14 38.9546H139.14C139.14 41.8975 137.797 43.6143 135.538 43.6143C133.28 43.6143 131.938 41.8975 131.938 38.9546C131.938 36.0366 133.28 34.2935 135.538 34.2935Z" fill="white"/>
<path id="Path_5" d="M144.279 32.1635H146.938V34.475H147.002C147.373 32.987 148.736 31.9629 150.269 32.0214C150.59 32.0203 150.91 32.0552 151.224 32.1254V34.7329C150.818 34.6089 150.395 34.552 149.971 34.5644C149.152 34.5312 148.359 34.8578 147.8 35.4585C147.242 36.0592 146.974 36.874 147.067 37.6889V45.7441H144.279L144.279 32.1635Z" fill="white"/>
<path id="Shape_5" fill-rule="evenodd" clip-rule="evenodd" d="M158.229 45.9126C161.301 45.9126 163.701 44.2207 164.076 41.7554L161.429 41.7554C160.921 43.0155 159.646 43.7923 158.293 43.6655C157.279 43.7029 156.297 43.3026 155.598 42.5667C154.899 41.8307 154.55 40.8299 154.64 39.8188V39.6504H164.232V38.6953C164.232 34.5776 161.869 31.9966 158.112 31.9966C154.291 31.9966 151.826 34.7593 151.826 39.019C151.826 43.2656 154.278 45.9126 158.229 45.9126ZM161.443 37.7021L154.653 37.7022C154.651 36.7853 155.015 35.9054 155.664 35.2582C156.314 34.6109 157.195 34.2499 158.112 34.2554C159.021 34.2358 159.898 34.5967 160.53 35.251C161.163 35.9052 161.493 36.7937 161.443 37.7021Z" fill="white"/>
</g>
</g>
</g>
<g id="_Group_4">
<g id="Group_4">
<path id="Shape_6" fill-rule="evenodd" clip-rule="evenodd" d="M59.8976 14.3236C59.0818 13.4622 57.9227 13.0119 56.7393 13.0968H53.5063V22.0471H56.7393C59.4053 22.0471 60.9507 20.4035 60.9507 17.5441C61.0999 16.3671 60.7134 15.1851 59.8976 14.3236ZM56.584 20.7813H54.8965V14.3617H56.584C57.4252 14.315 58.2433 14.6467 58.8145 15.266C59.3857 15.8854 59.6502 16.7276 59.5356 17.5623C59.6591 18.4005 59.3984 19.2498 58.8258 19.8742C58.2532 20.4987 57.4297 20.8319 56.584 20.7813Z" fill="white"/>
<path id="Shape_7" fill-rule="evenodd" clip-rule="evenodd" d="M64.0191 15.6431C62.9857 16.2843 62.4052 17.456 62.521 18.6667C62.403 19.8787 62.9829 21.0526 64.0173 21.6952C65.0516 22.3379 66.361 22.3379 67.3953 21.6952C68.4296 21.0526 69.0096 19.8787 68.8916 18.6667C69.0074 17.456 68.4269 16.2843 67.3935 15.6431C66.3601 15.0018 65.0525 15.0018 64.0191 15.6431ZM65.7085 16.3464C66.8628 16.3464 67.5205 17.2026 67.5205 18.6667H67.5205C67.5205 20.1366 66.8628 20.9921 65.7085 20.9921C64.5498 20.9921 63.898 20.1425 63.898 18.6667C63.898 17.2026 64.5498 16.3464 65.7085 16.3464Z" fill="white"/>
<path id="Path_6" d="M77.3599 22.0469H75.977L74.5811 17.0723H74.4756L73.0855 22.0469H71.7158L69.854 15.2925H71.2061L72.416 20.4465H72.5156L73.9043 15.2925H75.1831L76.5718 20.4465H76.6772L77.8813 15.2925H79.2143L77.3599 22.0469Z" fill="white"/>
<path id="Path_7" d="M80.7803 15.2926H82.0635V16.3656H82.1631C82.5095 15.5756 83.3189 15.0923 84.1787 15.1622C84.8444 15.1122 85.4968 15.3675 85.9516 15.8563C86.4064 16.345 86.6143 17.014 86.5166 17.6744V22.0469H85.1836V18.0091C85.1836 16.9237 84.7119 16.3839 83.7261 16.3839C83.2745 16.3629 82.8363 16.5401 82.5263 16.8691C82.2163 17.1981 82.0655 17.6461 82.1133 18.0956V22.047H80.7803L80.7803 15.2926Z" fill="white"/>
<path id="Path_8" d="M88.6406 12.6558H89.9736V22.0469H88.6406V12.6558Z" fill="white"/>
<path id="Shape_8" fill-rule="evenodd" clip-rule="evenodd" d="M93.325 15.6431C92.2916 16.2844 91.7109 17.4561 91.8267 18.6668C91.7088 19.8788 92.2889 21.0527 93.3233 21.6954C94.3576 22.338 95.667 22.338 96.7014 21.6954C97.7358 21.0527 98.3159 19.8788 98.198 18.6668C98.3137 17.4561 97.7331 16.2844 96.6996 15.6431C95.6662 15.0018 94.3585 15.0018 93.325 15.6431ZM95.0142 16.3465C96.1684 16.3465 96.8262 17.2027 96.8262 18.6668H96.8262C96.8262 20.1368 96.1685 20.9922 95.0142 20.9923C93.8555 20.9923 93.2037 20.1427 93.2037 18.6668C93.2037 17.2027 93.8555 16.3465 95.0142 16.3465Z" fill="white"/>
<path id="Shape_9" fill-rule="evenodd" clip-rule="evenodd" d="M102.114 18.1203C100.507 18.22 99.6013 18.9209 99.6013 20.1367C99.6036 20.7132 99.8496 21.2618 100.279 21.647C100.708 22.0321 101.279 22.2178 101.853 22.1582C102.671 22.196 103.446 21.7908 103.882 21.0977H103.987V22.0469H105.27V17.4319C105.27 16.0051 104.315 15.1621 102.622 15.1621C101.09 15.1621 99.9983 15.9062 99.8621 17.0664H101.153C101.301 16.5889 101.816 16.3157 102.56 16.3157C103.471 16.3157 103.943 16.7185 103.943 17.4319V18.0149L102.114 18.1203ZM103.943 18.9949V19.5596C103.914 19.99 103.711 20.3903 103.382 20.6686C103.052 20.9469 102.623 21.0796 102.194 21.0361C101.469 21.0361 100.942 20.6823 100.942 20.0744C100.942 19.479 101.364 19.1626 102.294 19.1003L103.943 18.9949Z" fill="white"/>
<path id="Shape_10" fill-rule="evenodd" clip-rule="evenodd" d="M109.826 15.1804C108.119 15.1804 107.022 16.5325 107.022 18.6668C107.022 20.8062 108.108 22.1583 109.826 22.1582C110.697 22.1903 111.514 21.7364 111.947 20.9797H112.052V22.0469H113.33V12.6558H111.997V16.3654H111.897C111.495 15.6025 110.688 15.1407 109.826 15.1804ZM110.204 20.9615C109.075 20.9615 108.399 20.0994 108.399 18.6668H108.399C108.399 17.2459 109.082 16.378 110.204 16.378C111.32 16.378 112.022 17.2649 112.022 18.6726C112.022 20.087 111.327 20.9615 110.204 20.9615Z" fill="white"/>
<path id="Shape_11" fill-rule="evenodd" clip-rule="evenodd" d="M120.343 15.6431C119.31 16.2843 118.729 17.456 118.845 18.6667C118.727 19.8787 119.307 21.0526 120.341 21.6952C121.376 22.3379 122.685 22.3379 123.719 21.6952C124.754 21.0526 125.334 19.8787 125.216 18.6667C125.331 17.456 124.751 16.2843 123.717 15.6431C122.684 15.0018 121.376 15.0018 120.343 15.6431ZM122.032 16.3464C123.187 16.3464 123.844 17.2026 123.844 18.6667C123.844 20.1366 123.187 20.9921 122.032 20.9921C120.874 20.9921 120.222 20.1425 120.222 18.6667C120.222 17.2026 120.874 16.3464 122.032 16.3464Z" fill="white"/>
<path id="Path_9" d="M127.004 15.2926H128.287V16.3656H128.387C128.733 15.5756 129.543 15.0923 130.403 15.1622C131.068 15.1122 131.721 15.3675 132.175 15.8563C132.63 16.345 132.838 17.014 132.74 17.6744V22.0469H131.407V18.0091C131.407 16.9237 130.936 16.3839 129.95 16.3839C129.498 16.3629 129.06 16.5401 128.75 16.8691C128.44 17.1981 128.289 17.6461 128.337 18.0956V22.047H127.004V15.2926Z" fill="white"/>
<path id="Path_10" d="M140.273 13.6108V15.3232H141.736V16.446H140.273V19.9192C140.273 20.6267 140.564 20.9365 141.228 20.9365C141.398 20.936 141.567 20.9257 141.736 20.9058V22.0161C141.497 22.0589 141.254 22.0817 141.011 22.0842C139.529 22.0842 138.938 21.5627 138.938 20.2605V16.446H137.866V15.3232H138.938V13.6108H140.273Z" fill="white"/>
<path id="Path_11" d="M143.557 12.6558H144.878V16.3779H144.984C145.347 15.581 146.17 15.0971 147.043 15.168C147.705 15.132 148.349 15.393 148.798 15.8799C149.248 16.3669 149.458 17.029 149.369 17.686V22.0469H148.035V18.0149C148.035 16.936 147.532 16.3896 146.591 16.3896C146.127 16.3516 145.67 16.5202 145.342 16.8504C145.014 17.1805 144.849 17.6386 144.89 18.102V22.0469H143.557L143.557 12.6558Z" fill="white"/>
<path id="Shape_12" fill-rule="evenodd" clip-rule="evenodd" d="M154.215 22.1773C155.535 22.3205 156.768 21.4973 157.142 20.2233L155.859 20.2232C155.539 20.7969 154.904 21.1203 154.252 21.0421C153.749 21.0476 153.267 20.8408 152.924 20.4724C152.582 20.104 152.411 19.6083 152.453 19.1071V19.0324H157.222V18.5672C157.222 16.4462 156.089 15.1622 154.209 15.1622C153.306 15.1545 152.444 15.539 151.847 16.216C151.249 16.8931 150.975 17.796 151.095 18.691C150.972 19.5835 151.247 20.4851 151.848 21.1564C152.449 21.8278 153.314 22.2011 154.215 22.1773ZM155.864 18.0465H152.453C152.447 17.5807 152.629 17.1323 152.958 16.8028C153.288 16.4734 153.736 16.2909 154.202 16.2967C154.661 16.2862 155.104 16.4702 155.421 16.8034C155.737 17.1367 155.898 17.5881 155.864 18.0465Z" fill="white"/>
</g>
</g>
</g>
</svg>
