<svg width="203" height="60" viewBox="0 0 203 60" fill="none" xmlns="http://www.w3.org/2000/svg">
<g id="GooglePlayStore">
<path id="Path" d="M195.472 60H7.52101C3.37586 60 0 56.6185 0 52.5V7.5C0 3.36658 3.37586 0 7.52101 0H195.472C199.613 0 202.993 3.36658 202.993 7.5V52.5C202.993 56.6185 199.613 60 195.472 60Z" fill="black"/>
<path id="Shape" fill-rule="evenodd" clip-rule="evenodd" d="M195.472 1.20075C198.948 1.20075 201.794 4.03242 201.794 7.5V52.5C201.794 55.9676 198.967 58.7993 195.472 58.7993H7.52101C4.04432 58.7993 1.19873 55.9676 1.19873 52.5V7.5C1.19873 4.03242 4.02564 1.20075 7.52101 1.20075C7.52101 1.20075 195.472 1.20075 195.472 1.20075ZM195.472 0H7.52101C3.37586 0 0 3.38155 0 7.5V52.5C0 56.6334 3.37586 60 7.52101 60H195.472C199.613 60 202.993 56.6334 202.993 52.5V7.5C202.993 3.38155 199.613 0 195.472 0Z" fill="#A6A6A6"/>
<path id="Shape_2" fill-rule="evenodd" clip-rule="evenodd" d="M103.535 18.4377C104.439 19.3729 105.582 19.8479 106.937 19.8479C108.293 19.8479 109.436 19.3766 110.336 18.434C111.232 17.5213 111.695 16.3654 111.71 14.9963C111.71 13.6609 111.247 12.505 110.336 11.5587C109.417 10.6235 108.274 10.1484 106.934 10.1484C105.578 10.1484 104.435 10.6235 103.535 11.5587C102.624 12.4751 102.161 13.631 102.161 14.9963C102.139 16.2756 102.639 17.5287 103.535 18.4377ZM63.1854 18.4564C64.1265 19.3804 65.2767 19.8479 66.6024 19.8479C67.9841 19.8479 69.1268 19.3841 70.0007 18.4714C70.7699 17.7008 71.1583 16.6572 71.1583 15.3666C71.1583 15.1422 71.1247 14.8991 71.0911 14.6634L71.0724 14.5362H66.4343V15.9352H69.6795C69.5973 16.5973 69.3658 17.121 68.9924 17.4951C68.3613 18.131 67.5509 18.4527 66.5874 18.4527C65.6837 18.4527 64.8958 18.131 64.246 17.4951C63.5925 16.8554 63.2601 16.0175 63.2601 15.0038C63.2601 13.9901 63.5925 13.1522 64.246 12.5125C64.8958 11.8766 65.6837 11.5549 66.5874 11.5549C67.5995 11.5549 68.365 11.8878 68.9364 12.5686L69.0409 12.6921L70.0529 11.6971L69.9633 11.5886C69.6011 11.1584 69.1119 10.8068 68.5106 10.5487C67.8982 10.2831 67.2596 10.1522 66.6024 10.1522C65.258 10.1522 64.1078 10.6198 63.1854 11.5437C62.2519 12.4639 61.7776 13.6272 61.7776 15.0001C61.7776 16.3729 62.2519 17.5362 63.1854 18.4564ZM120.232 19.6497H118.801L114.421 12.6285L114.458 13.8928V19.6459H113.028V10.3504H114.66L114.705 10.4215L118.824 17.035L118.786 15.7744V10.3504H120.232V19.6497ZM94.7408 19.6497H96.186V11.7494H98.6992V10.3504H92.2276V11.7494H94.7408V19.6497ZM91.0475 19.6497H89.6023V10.3504H91.0475V19.6497ZM81.4801 19.6497H82.9253V11.7494H85.4385V10.3504H78.9669V11.7494H81.4801V19.6497ZM78.0519 19.6347H72.5101V10.3504H78.0519V11.7494H73.9591V14.3006H77.6524V15.6846H73.9591V18.2357H78.0519V19.6347ZM106.937 18.4489C106.026 18.4489 105.242 18.1235 104.596 17.4764C103.965 16.8442 103.647 16.0063 103.647 15.0001C103.647 13.9938 103.968 13.1597 104.603 12.5237C105.238 11.8691 106.004 11.5512 106.941 11.5512C107.848 11.5512 108.636 11.8766 109.282 12.5237C109.914 13.1559 110.235 13.9938 110.235 15.0001C110.235 16.0063 109.914 16.8405 109.279 17.4764C108.64 18.131 107.875 18.4489 106.937 18.4489Z" fill="white"/>
<path id="Shape_3" fill-rule="evenodd" clip-rule="evenodd" d="M102.027 32.6334C98.4976 32.6334 95.6371 35.3154 95.6371 39.0149C95.6371 42.6808 98.5163 45.3965 102.027 45.3965C105.556 45.3965 108.416 42.6957 108.416 39.0149C108.416 35.3154 105.556 32.6334 102.027 32.6334ZM102.027 42.8678C100.096 42.8678 98.4341 41.2668 98.4341 39C98.4341 36.6995 100.1 35.1321 102.027 35.1321C103.957 35.1321 105.619 36.6995 105.619 39C105.623 41.2818 103.957 42.8678 102.027 42.8678ZM88.0862 32.6334C84.5572 32.6334 81.6967 35.3154 81.6967 39.0149C81.6967 42.6808 84.5759 45.3965 88.0862 45.3965C91.6151 45.3965 94.4757 42.6957 94.4757 39.0149C94.4757 35.3154 91.6114 32.6334 88.0862 32.6334ZM88.0862 42.8678C86.1555 42.8678 84.4937 41.2668 84.4937 39C84.4937 36.6995 86.1592 35.1321 88.0862 35.1321C90.0168 35.1321 91.6786 36.6995 91.6786 39C91.6786 41.2818 90.0168 42.8678 88.0862 42.8678ZM71.4981 34.5822V37.283H77.9698C77.7719 38.798 77.2715 39.9164 76.5059 40.6832C75.5574 41.6334 74.0935 42.6658 71.5131 42.6658C67.536 42.6658 64.4252 39.4488 64.4252 35.465C64.4252 31.4813 67.536 28.2643 71.5131 28.2643C73.6603 28.2643 75.225 29.1134 76.3864 30.1982L78.2984 28.283C76.6852 26.7344 74.5379 25.5486 71.528 25.5486C66.0721 25.5486 61.4938 30 61.4938 35.4501C61.4938 40.9152 66.0684 45.3516 71.528 45.3516C74.4744 45.3516 76.6852 44.3865 78.4328 42.5685C80.2141 40.7842 80.778 38.2668 80.778 36.2356C80.778 35.6034 80.7295 35.0349 80.6287 34.5523H71.4944C71.4981 34.5486 71.4981 34.5822 71.4981 34.5822ZM139.348 36.6845C138.814 35.2518 137.201 32.6184 133.892 32.6184C130.613 32.6184 127.887 35.2032 127.887 39C127.887 42.5835 130.583 45.3815 134.209 45.3815C137.122 45.3815 138.818 43.5972 139.516 42.5498L137.354 41.0985C136.637 42.1645 135.64 42.864 134.224 42.864C132.794 42.864 131.793 42.2132 131.128 40.9301L139.647 37.3952C139.647 37.399 139.348 36.6845 139.348 36.6845ZM130.662 38.8167C130.594 36.3516 132.574 35.0985 133.989 35.0985C135.106 35.0985 136.035 35.6483 136.353 36.4488L130.662 38.8167ZM123.742 45H126.539V26.2518H123.742V45ZM119.149 34.0511H119.048C118.417 33.2992 117.218 32.6184 115.687 32.6184C112.509 32.6184 109.581 35.4202 109.581 39.0187C109.581 42.6022 112.494 45.3703 115.687 45.3703C117.199 45.3703 118.417 44.6857 119.048 43.9189H119.149V44.8354C119.149 47.2705 117.849 48.5835 115.754 48.5835C114.04 48.5835 112.976 47.3491 112.543 46.3167L110.111 47.3341C110.81 49.0174 112.673 51.101 115.75 51.101C119.029 51.101 121.807 49.167 121.807 44.4501V33H119.164V34.0511C119.167 34.0511 119.149 34.0511 119.149 34.0511ZM115.937 42.8678C114.006 42.8678 112.393 41.2518 112.393 39.0187C112.393 36.7668 114.006 35.1359 115.937 35.1359C117.849 35.1359 119.332 36.7855 119.332 39.0187C119.35 41.2518 117.853 42.8678 115.937 42.8678ZM152.444 26.2518H145.756V45H148.553V37.9002H152.448C155.544 37.9002 158.587 35.6521 158.587 32.0835C158.587 28.5149 155.555 26.2518 152.444 26.2518ZM152.526 35.2818H148.549V28.8478H152.526C154.621 28.8478 155.805 30.5798 155.805 32.0648C155.805 33.5349 154.606 35.2818 152.526 35.2818ZM169.798 32.5997C167.766 32.5997 165.671 33.5012 164.805 35.465L167.285 36.4975C167.819 35.465 168.797 35.1134 169.831 35.1134C171.28 35.1134 172.744 35.9813 172.778 37.5299V37.7281C172.277 37.4438 171.179 37.0099 169.865 37.0099C167.187 37.0099 164.473 38.4763 164.473 41.2256C164.473 43.7431 166.668 45.3591 169.114 45.3591C170.993 45.3591 172.027 44.5099 172.673 43.5261H172.774V44.9775H175.47V37.7955C175.47 34.4513 172.991 32.5997 169.798 32.5997ZM169.447 42.8678C168.532 42.8678 167.251 42.4189 167.251 41.2668C167.251 39.8154 168.849 39.2655 170.212 39.2655C171.445 39.2655 172.027 39.5311 172.759 39.8977C172.557 41.581 171.138 42.8528 169.447 42.8678ZM185.307 33L182.095 41.1321H181.994L178.667 33H175.657L180.65 44.3678L177.804 50.6857H180.717L188.399 33H185.307ZM160.13 45H162.927V26.2518H160.13V45Z" fill="white"/>
<path id="Path_2" fill-rule="evenodd" clip-rule="evenodd" d="M15.6246 11.3005C15.1914 11.768 14.9412 12.4825 14.9412 13.4177V46.586C14.9412 47.5212 15.1914 48.2356 15.6395 48.6845L15.7553 48.7855L34.3076 30.202V29.7867L15.7403 11.1995L15.6246 11.3005Z" fill="url(#paint0_linear)"/>
<path id="Path_3" fill-rule="evenodd" clip-rule="evenodd" d="M40.4805 36.4151L34.2927 30.2169V29.783L40.4805 23.5847L40.6149 23.667L47.9343 27.8341C50.0293 29.0161 50.0293 30.9688 47.9343 32.1658L40.6149 36.3328L40.4805 36.4151Z" fill="url(#paint1_linear)"/>
<path id="Path_4" fill-rule="evenodd" clip-rule="evenodd" d="M40.6149 36.3329L34.2927 30L15.6246 48.6995C16.308 49.4327 17.4544 49.515 18.7353 48.8005L40.6149 36.3329" fill="url(#paint2_linear)"/>
<path id="Path_5" fill-rule="evenodd" clip-rule="evenodd" d="M40.6149 23.6672L18.7353 11.2183C17.4544 10.4851 16.3042 10.5861 15.6246 11.3193L34.2927 30.0001L40.6149 23.6672Z" fill="url(#paint3_linear)"/>
<path id="Path_6" opacity="0.2" d="M40.4805 36.1982L18.7503 48.5648C17.5366 49.2643 16.4536 49.2157 15.7553 48.5798L15.6395 48.6957L15.7553 48.7967C16.4536 49.4289 17.5366 49.4813 18.7503 48.7818L40.6299 36.3329L40.4805 36.1982Z" fill="black"/>
<path id="Path_7" opacity="0.12" d="M47.9343 31.9489L40.4619 36.1983L40.5963 36.3329L47.9156 32.1658C48.965 31.5673 49.4803 30.7818 49.4803 30C49.4169 30.7182 48.8828 31.399 47.9343 31.9489Z" fill="black"/>
<path id="Path_8" opacity="0.25" fill-rule="evenodd" clip-rule="evenodd" d="M18.7353 11.4352L47.9343 28.0511C48.8828 28.5861 49.4168 29.2856 49.499 30C49.499 29.2182 48.9836 28.4327 47.9343 27.8342L18.7353 11.2182C16.6403 10.0175 14.9412 11.02 14.9412 13.4177V13.6347C14.9412 11.2332 16.6403 10.2494 18.7353 11.4352Z" fill="white"/>
</g>
<defs>
<linearGradient id="paint0_linear" x1="26.158" y1="-11.3273" x2="-3.56564" y2="-3.42261" gradientUnits="userSpaceOnUse">
<stop stop-color="#00A0FF"/>
<stop offset="0.00657" stop-color="#00A1FF"/>
<stop offset="0.2601" stop-color="#00BEFF"/>
<stop offset="0.5122" stop-color="#00D2FF"/>
<stop offset="0.7604" stop-color="#00DFFF"/>
<stop offset="1" stop-color="#00E3FF"/>
</linearGradient>
<linearGradient id="paint1_linear" x1="50.6663" y1="14.7201" x2="14.432" y2="14.7201" gradientUnits="userSpaceOnUse">
<stop stop-color="#FFE000"/>
<stop offset="0.4087" stop-color="#FFBD00"/>
<stop offset="0.7754" stop-color="#FFA500"/>
<stop offset="1" stop-color="#FF9C00"/>
</linearGradient>
<linearGradient id="paint2_linear" x1="15.0705" y1="20.2894" x2="-8.8458" y2="60.4753" gradientUnits="userSpaceOnUse">
<stop stop-color="#FF3A44"/>
<stop offset="1" stop-color="#C31162"/>
</linearGradient>
<linearGradient id="paint3_linear" x1="1.04628" y1="6.13974" x2="11.7151" y2="24.0877" gradientUnits="userSpaceOnUse">
<stop stop-color="#32A071"/>
<stop offset="0.0685" stop-color="#2DA771"/>
<stop offset="0.4762" stop-color="#15CF74"/>
<stop offset="0.8009" stop-color="#06E775"/>
<stop offset="1" stop-color="#00F076"/>
</linearGradient>
</defs>
</svg>
