<svg width="168" height="62" viewBox="0 0 168 62" fill="none" xmlns="http://www.w3.org/2000/svg">
<g id="Microsoft">
<g id="Layer_2">
<rect id="Rectangle" x="1.44226" y="1.44238" width="165.288" height="59.1346" rx="7" fill="black" stroke="#A6A6A6"/>
</g>
<g id="Layer_1">
<rect id="Rectangle_2" x="14.5576" y="14.1924" width="16.1154" height="16.1154" fill="#F25022"/>
<rect id="Rectangle_3" x="32.3461" y="14.1924" width="16.1154" height="16.1154" fill="#7FBA00"/>
<rect id="Rectangle_4" x="14.5576" y="31.9617" width="16.1154" height="16.1154" fill="#00A4EF"/>
<rect id="Rectangle_5" x="32.3461" y="31.9617" width="16.1154" height="16.1154" fill="#FFB900"/>
<path id="Shape" fill-rule="evenodd" clip-rule="evenodd" d="M80.0384 31.1539C79.6922 31.4808 79.5192 31.8654 79.5192 32.3462C79.5192 32.8077 79.6922 33.1923 79.9999 33.5192C80.3461 33.8462 80.7499 34 81.2499 34C81.7499 34 82.1538 33.8462 82.4999 33.5192C82.8461 33.2116 83.0192 32.8077 83.0192 32.3462C83.0192 31.9039 82.8461 31.5 82.5192 31.1731C82.1922 30.8462 81.7692 30.6731 81.2692 30.6731C80.7884 30.6731 80.3845 30.8269 80.0384 31.1539ZM79.8269 48.0769H82.6922V35.8654H79.8269V48.0769Z" fill="white"/>
<path id="Path" d="M91.423 45.9808C91.8461 45.9808 92.3269 45.8846 92.8461 45.6923C93.3653 45.5 93.8269 45.2308 94.2692 44.9038V47.5769C93.8076 47.8461 93.2884 48.0384 92.7115 48.1731C92.1346 48.3077 91.4807 48.3846 90.7884 48.3846C88.9999 48.3846 87.5384 47.8077 86.4038 46.6731C85.2692 45.5384 84.7115 44.0769 84.7115 42.3269C84.7115 40.3654 85.2884 38.75 86.4423 37.4808C87.5961 36.2115 89.2115 35.5769 91.3269 35.5769C91.8653 35.5769 92.4038 35.6538 92.9615 35.7884C93.5192 35.9231 93.9423 36.0961 94.2692 36.2692V39.0192C93.8269 38.6923 93.3653 38.4423 92.9038 38.2692C92.4423 38.0961 91.9615 38 91.4807 38C90.3461 38 89.4423 38.3654 88.7307 39.0961C88.0384 39.8269 87.6923 40.8269 87.6923 42.0769C87.6923 43.3077 88.0192 44.2692 88.6923 44.9615C89.3653 45.6538 90.2692 45.9808 91.423 45.9808" fill="white"/>
<path id="Path_2" d="M102.442 35.6731C102.673 35.6731 102.885 35.6923 103.058 35.7116C103.231 35.75 103.404 35.7885 103.519 35.8269V38.7308C103.365 38.6154 103.154 38.5192 102.865 38.4231C102.577 38.3269 102.231 38.2692 101.808 38.2692C101.096 38.2692 100.5 38.5577 100.019 39.1539C99.5384 39.75 99.2884 40.6539 99.2884 41.9039V48.0769H96.423V35.8654H99.2884V37.7885H99.3268C99.5961 37.1154 99.9807 36.5962 100.519 36.2308C101.058 35.8654 101.692 35.6731 102.442 35.6731" fill="white"/>
<path id="Shape_2" fill-rule="evenodd" clip-rule="evenodd" d="M105.385 37.3461C104.25 38.5384 103.673 40.1346 103.673 42.1538C103.673 44.0769 104.231 45.5961 105.365 46.6923C106.461 47.8077 107.981 48.3654 109.865 48.3654C111.827 48.3654 113.385 47.7884 114.519 46.6154C115.654 45.4423 116.231 43.8654 116.231 41.8846C116.231 39.9615 115.692 38.4231 114.615 37.2884C113.538 36.1538 112.038 35.5769 110.135 35.5769C108.115 35.5769 106.519 36.1731 105.385 37.3461ZM107.538 44.9808C106.961 44.3077 106.673 43.3269 106.673 42.0577C106.673 40.75 106.961 39.7692 107.538 39.0577C108.135 38.3461 108.942 38 110 38C111.019 38 111.827 38.3269 112.385 39C112.942 39.6731 113.231 40.6731 113.231 41.9808C113.231 43.3077 112.942 44.3077 112.404 44.9808C111.865 45.6538 111.058 45.9808 110.019 45.9808C108.942 45.9808 108.115 45.6538 107.538 44.9808Z" fill="white"/>
<path id="Path_3" d="M120.5 39.0771C120.5 39.4809 120.635 39.8079 120.885 40.0386C121.154 40.2694 121.731 40.5579 122.615 40.9232C123.769 41.3848 124.577 41.904 125.038 42.4809C125.5 43.0579 125.731 43.7502 125.731 44.5579C125.731 45.7117 125.288 46.6348 124.404 47.3271C123.519 48.0194 122.327 48.3656 120.827 48.3656C120.327 48.3656 119.769 48.3079 119.154 48.1732C118.538 48.0579 118.019 47.8848 117.596 47.7117V44.8848C118.115 45.2502 118.673 45.5386 119.288 45.7502C119.885 45.9617 120.442 46.0771 120.923 46.0771C121.577 46.0771 122.058 45.9809 122.365 45.8079C122.673 45.6348 122.827 45.3271 122.827 44.8848C122.827 44.4809 122.673 44.154 122.346 43.8848C122.019 43.6156 121.423 43.2886 120.519 42.9425C119.461 42.5002 118.711 42.0002 118.269 41.4425C117.827 40.8848 117.596 40.1732 117.596 39.3271C117.596 38.2309 118.038 37.3271 118.904 36.6156C119.769 35.904 120.904 35.5579 122.308 35.5579C122.731 35.5579 123.211 35.5963 123.75 35.6925C124.288 35.7886 124.731 35.904 125.077 36.0579V38.7886C124.692 38.5386 124.25 38.3271 123.75 38.1348C123.25 37.9617 122.731 37.8656 122.25 37.8656C121.711 37.8656 121.269 37.9809 120.981 38.1925C120.654 38.404 120.5 38.7117 120.5 39.0771" fill="white"/>
<path id="Shape_3" fill-rule="evenodd" clip-rule="evenodd" d="M128.711 37.3461C127.577 38.5384 127 40.1346 127 42.1538C127 44.0769 127.558 45.5961 128.692 46.6923C129.788 47.8077 131.308 48.3654 133.192 48.3654C135.154 48.3654 136.711 47.7884 137.846 46.6154C138.981 45.4423 139.558 43.8654 139.558 41.8846C139.558 39.9615 139.019 38.4231 137.942 37.2884C136.865 36.1538 135.365 35.5769 133.461 35.5769C131.442 35.5769 129.846 36.1731 128.711 37.3461ZM130.846 44.9808C130.269 44.3077 129.981 43.3269 129.981 42.0577C129.981 40.75 130.269 39.7692 130.846 39.0577C131.442 38.3461 132.25 38 133.308 38C134.327 38 135.134 38.3269 135.692 39C136.25 39.6731 136.538 40.6731 136.538 41.9808C136.538 43.3077 136.25 44.3077 135.711 44.9808C135.173 45.6538 134.365 45.9808 133.327 45.9808C132.25 45.9808 131.423 45.6538 130.846 44.9808Z" fill="white"/>
<path id="Path_4" d="M149.038 38.2309V44.5002C149.038 45.8079 149.346 46.7694 149.942 47.4232C150.538 48.0771 151.462 48.3848 152.673 48.3848C153.077 48.3848 153.5 48.3463 153.923 48.2502C154.346 48.154 154.654 48.0771 154.827 47.9617V45.5771C154.654 45.6925 154.442 45.7886 154.212 45.8656C153.981 45.9425 153.769 45.9809 153.615 45.9809C153.038 45.9809 152.596 45.8271 152.327 45.5194C152.058 45.2117 151.923 44.6732 151.923 43.9232V38.2117H154.846V35.8656H151.942V32.2502L149.058 33.1348V35.8848H144.769V34.404C144.769 33.6732 144.923 33.1156 145.25 32.7309C145.577 32.3463 146.038 32.1732 146.635 32.1732C146.942 32.1732 147.212 32.2117 147.462 32.2886C147.692 32.3656 147.865 32.4425 147.962 32.5002V30.0194C147.75 29.9425 147.519 29.904 147.25 29.8656C146.981 29.8271 146.673 29.8079 146.327 29.8079C145.019 29.8079 143.942 30.2117 143.115 31.0386C142.288 31.8656 141.865 32.904 141.865 34.1925V35.8848H139.827V38.2309H141.865V48.0963H144.769V38.2309H149.038V38.2309Z" fill="white"/>
<path id="Path_5" d="M77.0576 31.0386V48.077H74.0961V34.7309H74.0576L68.7691 48.077H66.8076L61.3845 34.7309H61.3461V48.077H58.6153V31.0386H62.8461L67.7499 43.6732H67.8268L72.9999 31.0386H77.0576Z" fill="white"/>
<path id="Path_6" d="M66.3846 23.6731C65.3653 24.25 64.2115 24.5385 62.923 24.5385C61.9423 24.5385 61.0769 24.3269 60.3076 23.8846C59.5576 23.4615 58.9615 22.8462 58.5576 22.0577C58.1538 21.2692 57.9423 20.3846 57.9423 19.4038C57.9423 18.3654 58.173 17.4231 58.6153 16.6154C59.0576 15.8077 59.6923 15.1538 60.5192 14.6923C61.3461 14.2308 62.2692 14 63.3076 14C63.8269 14 64.3461 14.0577 64.8653 14.1538C65.3846 14.25 65.8076 14.3846 66.1346 14.5385V16.0769C65.3653 15.5577 64.3846 15.3077 63.1923 15.3077C62.4807 15.3077 61.8461 15.4808 61.2692 15.8269C60.6923 16.1731 60.25 16.6538 59.9423 17.25C59.6346 17.8654 59.4807 18.5577 59.4807 19.3269C59.4807 20.5385 59.8076 21.5 60.4423 22.2115C61.0769 22.9231 61.9615 23.2692 63.0769 23.2692C63.7884 23.2692 64.423 23.1346 64.9615 22.8462V20.2115H62.7884V18.9423H66.3846V23.6731Z" fill="white"/>
<path id="Shape_4" fill-rule="evenodd" clip-rule="evenodd" d="M69.6346 21.1154H74.6538V20.4039C74.6538 19.3077 74.3846 18.4616 73.8461 17.8462C73.3076 17.2308 72.5576 16.9231 71.6153 16.9231C70.9807 16.9231 70.3846 17.0962 69.8653 17.4231C69.3461 17.75 68.923 18.2116 68.6346 18.8077C68.3461 19.3846 68.1923 20.0577 68.1923 20.7885C68.1923 21.9808 68.5 22.9039 69.0961 23.5577C69.6923 24.2116 70.5576 24.5385 71.6538 24.5385C72.1153 24.5385 72.5769 24.4808 73.0192 24.3654C73.4615 24.25 73.8269 24.0769 74.1153 23.8846V22.6539C73.4615 23.1539 72.7115 23.4039 71.8461 23.4039C71.1923 23.4039 70.673 23.1923 70.2692 22.8077C69.8846 22.4039 69.6538 21.8462 69.6346 21.1154ZM72.8269 18.5769C73.1153 18.9039 73.2692 19.3846 73.2692 20.0192H69.6346C69.75 19.4231 69.9615 18.9423 70.3269 18.5962C70.6923 18.25 71.1153 18.0769 71.5961 18.0769C72.1346 18.0769 72.5384 18.25 72.8269 18.5769Z" fill="white"/>
<path id="Path_7" d="M80.1346 24.2885C80 24.3654 79.8269 24.4231 79.5769 24.4616C79.3461 24.5 79.1346 24.5192 78.9423 24.5192C77.5961 24.5192 76.923 23.7692 76.923 22.2885V18.25H75.6923V17.0962H76.923V15.3654L78.3269 14.9231V17.0769H80.1153V18.2308H78.3269V22.0385C78.3269 22.5192 78.4038 22.8654 78.5576 23.0577C78.7115 23.25 78.9807 23.3462 79.3846 23.3462C79.6538 23.3462 79.9038 23.2692 80.1153 23.1154V24.2885H80.1346Z" fill="white"/>
<path id="Shape_5" fill-rule="evenodd" clip-rule="evenodd" d="M86.8461 15.1155C87.0192 14.9425 87.0961 14.7502 87.0961 14.5194C87.0961 14.2694 87.0192 14.0771 86.8268 13.8848C86.6538 13.7117 86.4422 13.6348 86.2115 13.6348C85.9807 13.6348 85.7692 13.7309 85.5961 13.8848C85.423 14.0386 85.3268 14.2502 85.3268 14.5002C85.3268 14.7502 85.4038 14.9617 85.5768 15.1155C85.7499 15.2886 85.9615 15.3655 86.2115 15.3655C86.4615 15.3655 86.673 15.2886 86.8461 15.1155ZM85.4999 24.3655H86.9038V17.0963H85.4999V24.3655Z" fill="white"/>
<path id="Path_8" d="M92.9999 24.2885C92.8653 24.3654 92.6922 24.4231 92.4422 24.4616C92.2115 24.5 91.9999 24.5192 91.8076 24.5192C90.4615 24.5192 89.7884 23.7692 89.7884 22.2885V18.25H88.5576V17.0962H89.7884V15.3654L91.1922 14.9231V17.0769H92.9807V18.2308H91.1922V22.0385C91.1922 22.5192 91.2692 22.8654 91.423 23.0577C91.5768 23.25 91.8461 23.3462 92.2499 23.3462C92.5192 23.3462 92.7692 23.2692 92.9807 23.1154V24.2885H92.9999Z" fill="white"/>
<path id="Path_9" d="M102.192 14.7885C101.962 14.6732 101.712 14.5962 101.423 14.5962C100.635 14.5962 100.25 15.077 100.25 16.0385V17.077H101.904V18.2308H100.25V24.3462H98.8461V18.2501H97.6154V17.0962H98.8461V15.9808C98.8461 15.2116 99.0577 14.5962 99.5 14.1347C99.9423 13.6732 100.538 13.4424 101.308 13.4424C101.692 13.4424 101.981 13.4808 102.212 13.577V14.7885H102.192Z" fill="white"/>
<path id="Path_10" d="M107.365 18.5001C107.288 18.4424 107.135 18.3847 106.942 18.3271C106.75 18.2886 106.577 18.2501 106.442 18.2501C105.942 18.2501 105.538 18.4809 105.231 18.9232C104.923 19.3655 104.769 19.9424 104.769 20.654V24.3655H103.365V17.0963H104.769V18.5578H104.808C104.962 18.0578 105.212 17.6732 105.538 17.3847C105.865 17.0963 106.25 16.9617 106.673 16.9617C106.962 16.9617 107.192 17.0001 107.346 17.0578V18.5001H107.365Z" fill="white"/>
<path id="Shape_6" fill-rule="evenodd" clip-rule="evenodd" d="M114.365 23.5C115.038 22.8077 115.385 21.8654 115.385 20.6923C115.385 19.5192 115.077 18.5962 114.423 17.9231C113.808 17.25 112.942 16.9231 111.846 16.9231C110.673 16.9231 109.75 17.2692 109.077 17.9616C108.404 18.6539 108.058 19.5962 108.058 20.8077C108.058 21.9423 108.385 22.8462 109.038 23.5192C109.692 24.1923 110.577 24.5385 111.673 24.5385C112.788 24.5385 113.692 24.1923 114.365 23.5ZM113.385 18.7692C113.75 19.2116 113.942 19.8654 113.942 20.7308C113.942 21.5962 113.75 22.25 113.404 22.7308C113.038 23.1731 112.5 23.4039 111.788 23.4039C111.077 23.4039 110.538 23.1731 110.135 22.7116C109.731 22.25 109.538 21.6154 109.538 20.7885C109.538 19.9423 109.731 19.2692 110.135 18.8077C110.538 18.3269 111.096 18.0962 111.788 18.0962C112.481 18.0962 113 18.3269 113.385 18.7692Z" fill="white"/>
<path id="Path_11" d="M127.942 24.3653H126.538V20.2307C126.538 19.4807 126.423 18.9423 126.192 18.5961C125.961 18.25 125.558 18.0961 125 18.0961C124.538 18.0961 124.135 18.3077 123.827 18.7307C123.5 19.1538 123.346 19.673 123.346 20.25V24.3653H121.942V20.0961C121.942 18.7692 121.423 18.0961 120.404 18.0961C119.923 18.0961 119.519 18.3077 119.211 18.7115C118.904 19.1153 118.75 19.6346 118.75 20.2692V24.3846H117.346V17.0961H118.75V18.2307H118.769C119.288 17.3461 120.058 16.923 121.038 16.923C121.5 16.923 121.923 17.0577 122.308 17.3077C122.673 17.5577 122.942 17.923 123.115 18.3846C123.404 17.8846 123.731 17.5192 124.135 17.2692C124.538 17.0384 125 16.9038 125.538 16.9038C127.135 16.9038 127.923 17.8846 127.923 19.8653V24.3653H127.942Z" fill="white"/>
</g>
</g>
</svg>
