<svg width="12" height="13" viewBox="0 0 12 13" fill="none" xmlns="http://www.w3.org/2000/svg">
<path d="M3.1551 0.0488L3.244 0.0642803L3.32873 0.095323C3.51628 0.183928 3.63007 0.381028 3.61303 0.587755L3.59755 0.676653L3.16701 2.28471C4.01033 1.77698 4.98392 1.50002 6 1.50002C7.51441 1.50002 8.93194 2.11577 9.9618 3.18503C10.9421 4.20283 11.5 5.55816 11.5 7.00002C11.5 10.0376 9.03757 12.5 6 12.5C2.96243 12.5 0.5 10.0376 0.5 7.00002C0.5 6.72388 0.723858 6.50002 1 6.50002C1.27614 6.50002 1.5 6.72388 1.5 7.00002C1.5 9.4853 3.51472 11.5 6 11.5C8.48528 11.5 10.5 9.4853 10.5 7.00002C10.5 5.8195 10.0441 4.71202 9.24155 3.87874C8.3983 3.00322 7.23985 2.50002 6 2.50002C5.10236 2.50002 4.24663 2.76346 3.52094 3.24363L5.36532 3.73851L5.45005 3.76956C5.66439 3.87082 5.7824 4.11379 5.71887 4.35089C5.65534 4.58798 5.43166 4.7394 5.1954 4.71992L5.1065 4.70444L1.72576 3.79857L2.63163 0.417834L2.66267 0.333105C2.75127 0.145554 2.94838 0.0317585 3.1551 0.0488Z" fill="#4A90E2"/>
</svg>
