<?xml version="1.0" encoding="UTF-8"?>
<svg width="181px" height="160px" viewBox="0 0 181 160" version="1.1" xmlns="http://www.w3.org/2000/svg" xmlns:xlink="http://www.w3.org/1999/xlink">
    <title>icon 11</title>
    <g id="Illustration" stroke="none" stroke-width="1" fill="none" fill-rule="evenodd">
        <g id="Documentation" transform="translate(1.000000, 1.000000)">
            <g id="Group-11" opacity="0.5" transform="translate(67.000000, 29.000000)">
                <path d="M27.8,1.13686838e-13 C27.9104569,1.13686838e-13 28.0104489,0.08954305 28.0233382,0.2 L28.5357276,4.58883104 C30.0828163,4.72449012 31.5847933,5.01326528 33.0256914,5.43954423 L35.1571933,1.619012 C35.2113715,1.52189562 35.3380187,1.47743388 35.4400676,1.51970393 L37.8421543,2.51468085 C37.9442033,2.5569509 38.0023171,2.67794314 37.9719553,2.78492459 L36.7942226,6.93244091 C38.1911965,7.63648899 39.5030498,8.47936044 40.7107076,9.4424041 L44.0197456,6.82592887 C44.1069646,6.75693815 44.240986,6.76432662 44.3190909,6.84243148 L46.1575685,8.68090911 C46.2356734,8.75901397 46.2430618,8.89303544 46.1740711,8.98025444 L43.6143463,12.2174681 C44.6185282,13.3667677 45.5037393,14.6184377 46.2513351,15.9542478 L50.114062,14.8215311 C50.2207744,14.7902368 50.3422692,14.8472926 50.3854281,14.9489688 L51.4013291,17.3422814 C51.4444881,17.4439576 51.4011332,17.5709879 51.3044933,17.6260115 L47.865793,19.58418 C48.3986676,21.1589309 48.7545267,22.8124969 48.9103232,24.5223431 L52.8,24.9766618 C52.9104569,24.9895511 53,25.0895431 53,25.2 L53,27.8 C53,27.9104569 52.9104569,28.0104489 52.8,28.0233382 L48.9103232,28.4776569 C48.7606111,30.120728 48.4261574,31.711829 47.9274131,33.2309633 L51.380988,35.1571933 C51.4781044,35.2113715 51.5225661,35.3380187 51.4802961,35.4400676 L50.4853191,37.8421543 C50.4430491,37.9442033 50.3220569,38.0023171 50.2150754,37.9719553 L46.3466005,36.873715 C45.5793208,38.2741956 44.6615217,39.5840257 43.6143463,40.7825319 L46.1740711,44.0197456 C46.2430618,44.1069646 46.2356734,44.240986 46.1575685,44.3190909 L44.3190909,46.1575685 C44.240986,46.2356734 44.1069646,46.2430618 44.0197456,46.1740711 L40.7107076,43.5575959 C39.552518,44.4811913 38.2984942,45.2942578 36.9654617,45.9803437 L38.1784689,50.114062 C38.2097632,50.2207744 38.1527074,50.3422692 38.0510312,50.3854281 L35.6577186,51.4013291 C35.5560424,51.4444881 35.4290121,51.4011332 35.3739885,51.3044933 L33.2105101,47.5049231 C31.7133804,47.9617153 30.1490835,48.2696991 28.5357276,48.411169 L28.0233382,52.8 C28.0125971,52.8920475 27.9413681,52.9695714 27.8540016,52.9928558 L27.8,53 L25.2,53 C25.1079525,53 25.0231725,52.9378173 24.9900102,52.8531679 L24.9766618,52.8 L24.4642724,48.411169 C22.9171837,48.2755099 21.4152067,47.9867347 19.9743086,47.5604558 L17.8428067,51.380988 C17.7976582,51.4619183 17.702184,51.5062829 17.6125574,51.4943612 L17.5599324,51.4802961 L15.1578457,50.4853191 C15.0728049,50.4500941 15.0182746,50.3602009 15.0200306,50.2693044 L15.0280447,50.2150754 L16.2057774,46.0675591 C14.8088035,45.363511 13.4969502,44.5206396 12.2892924,43.5575959 L8.98025444,46.1740711 C8.90757194,46.2315634 8.80238773,46.2360146 8.72414571,46.1907017 L8.68090911,46.1575685 L6.84243148,44.3190909 C6.7773441,44.2540035 6.76136532,44.1500851 6.79777223,44.0667797 L6.82592887,44.0197456 L9.3856537,40.7825319 C8.38147179,39.6332323 7.49626075,38.3815623 6.74866494,37.0457522 L2.88593802,38.1784689 C2.79701099,38.2045475 2.69781846,38.1692718 2.64224822,38.0979485 L2.61457185,38.0510312 L1.59867092,35.6577186 C1.56270511,35.5729885 1.58681835,35.4706513 1.651781,35.4070501 L1.69550669,35.3739885 L5.13420702,33.41582 C4.6013324,31.8410691 4.2454733,30.1875031 4.08967683,28.4776569 L0.2,28.0233382 C0.107952542,28.0125971 0.030428625,27.9413681 0.00714419329,27.8540016 L7.46069873e-13,27.8 L7.46069873e-13,25.2 C7.46069873e-13,25.1079525 0.0621826736,25.0231725 0.146832078,24.9900102 L0.2,24.9766618 L4.08967683,24.5223431 C4.23938894,22.879272 4.57384261,21.288171 5.07258685,19.7690367 L1.619012,17.8428067 C1.53808168,17.7976582 1.49371709,17.702184 1.50563879,17.6125574 L1.51970393,17.5599324 L2.51468085,15.1578457 C2.54990589,15.0728049 2.63979912,15.0182746 2.73069562,15.0200306 L2.78492459,15.0280447 L6.65339947,16.126285 C7.42067918,14.7258044 8.3384783,13.4159743 9.3856537,12.2174681 L6.82592887,8.98025444 C6.76843661,8.90757194 6.76398544,8.80238773 6.8092983,8.72414571 L6.84243148,8.68090911 L8.68090911,6.84243148 C8.7459965,6.7773441 8.84991486,6.76136532 8.93322029,6.79777223 L8.98025444,6.82592887 L12.2892924,9.4424041 C13.447482,8.51880872 14.7015058,7.70574219 16.0345383,7.01965627 L14.8215311,2.88593802 C14.7954525,2.79701099 14.8307282,2.69781846 14.9020515,2.64224822 L14.9489688,2.61457185 L17.3422814,1.59867092 C17.4270115,1.56270511 17.5293487,1.58681835 17.5929499,1.651781 L17.6260115,1.69550669 L19.7894899,5.49507689 C21.2866196,5.0382847 22.8509165,4.73030087 24.4642724,4.58883104 L24.9766618,0.2 C24.9895511,0.08954305 25.0895431,1.13686838e-13 25.2,1.13686838e-13 L27.8,1.13686838e-13 Z M26.5,23 C24.5670034,23 23,24.5670034 23,26.5 C23,28.4329966 24.5670034,30 26.5,30 C28.4329966,30 30,28.4329966 30,26.5 C30,24.5670034 28.4329966,23 26.5,23 Z" id="Combined-Shape" stroke="#1560BD" stroke-width="2" fill="#E5E5EA"></path>
                <path d="M1.36,25.847 L1,25.889 L1,27.11 L1.06,27.117 L1.12620968,26.8033886 L1.19717308,26.4948636 L1.2718702,26.1874008 L1.36,25.847 Z M51.639,25.847 L51.7281298,26.1874008 L51.8028269,26.4948636 L51.8737903,26.8033886 L51.939,27.117 L52,27.11 L52,25.889 L51.639,25.847 Z M3.174,16.178 L2.707,17.304 L4.656,18.392 L4.84575586,18.1039142 C5.00752355,17.8608544 5.17306624,17.6209393 5.34228588,17.3842349 L5.59886078,17.0315945 L5.7,16.895 L3.174,16.178 Z M49.734,15.975 L47.17,16.726 L47.2683715,16.8540591 C47.4447236,17.0880502 47.6174107,17.3253675 47.7863321,17.5659435 L48.0368774,17.929243 L48.233,18.224 L50.21,17.097 L49.734,15.975 Z M27.11,1 L25.889,1 L25.3630692,5.51385564 L24.5516239,5.58500859 C23.2152508,5.70219072 21.9025942,5.93979344 20.6261261,6.293073 L20.0813204,6.45154696 L19.3162711,6.68497264 L17.098,2.789 L15.975,3.265 L17.2266825,7.53075879 L16.4921639,7.90880124 C15.4044137,8.46864515 14.368056,9.11883384 13.3943498,9.85123278 L12.9127698,10.2242454 L12.2919322,10.7193308 L8.9,8.037 L8.037,8.9 L10.494,12.007 L10.7332159,11.8216129 C14.9199106,8.62708222 20.0532746,6.72187288 25.5217272,6.51819766 L26.0519578,6.50381275 L26.5,6.5 C32.2053351,6.5 37.5909858,8.35304064 41.9757313,11.6027319 L42.383848,11.9114683 L42.505,12.007 L44.962,8.9 L44.099,8.037 L40.7080678,10.7193308 L40.0872302,10.2242454 C39.073083,9.41551637 37.9858748,8.69851333 36.8392004,8.08299392 L36.3441673,7.82544162 L35.6066558,7.45374993 L36.821,3.174 L35.695,2.707 L33.5091828,6.62542516 L32.7420031,6.39846078 C31.5489828,6.04551463 30.3230376,5.79436653 29.0744872,5.64891075 L28.4483761,5.58500859 L27.6369308,5.51385564 L27.11,1 Z" id="Combined-Shape" fill="#FFFFFF" fill-rule="nonzero"></path>
                <path d="M26.5,14.5 C33.4035594,14.5 39,19.872583 39,26.5 C39,33.127417 33.4035594,38.5 26.5,38.5 C19.5964406,38.5 14,33.127417 14,26.5 C14,19.872583 19.5964406,14.5 26.5,14.5 Z M26.5,23 C24.5670034,23 23,24.5670034 23,26.5 C23,28.4329966 24.5670034,30 26.5,30 C28.4329966,30 30,28.4329966 30,26.5 C30,24.5670034 28.4329966,23 26.5,23 Z" id="Combined-Shape" stroke="#1560BD" stroke-width="2" fill-opacity="0.4" fill="#4A90E2" opacity="0.699999988"></path>
            </g>
            <g id="Group-7">
                <g id="Group" fill="#4A90E2" fill-opacity="0.8" stroke="#1560BD" stroke-width="2">
                    <g id="rings">
                        <circle id="Oval" opacity="0.015" cx="79" cy="79" r="79"></circle>
                        <ellipse id="Oval" opacity="0.04" cx="79.4968553" cy="79.5" rx="71.5471698" ry="71.5"></ellipse>
                        <ellipse id="Oval" opacity="0.07" cx="79.4968553" cy="79.5" rx="62.6037736" ry="62.5"></ellipse>
                        <ellipse id="Oval" opacity="0.13" cx="79.4968553" cy="79" rx="43.7232704" ry="44"></ellipse>
                        <ellipse id="Oval" opacity="0.1" cx="79.4968553" cy="79" rx="19.8742138" ry="20"></ellipse>
                    </g>
                </g>
                <g id="Group-6" opacity="0.5" transform="translate(107.000000, 89.000000)">
                    <g id="Group-4">
                        <rect id="Rectangle" stroke="#1560BD" stroke-width="2" fill-opacity="0.12" fill="#4A90E2" x="5.02564103" y="0" width="60.3076923" height="49" rx="1"></rect>
                        <polygon id="Rectangle" fill="#4A90E2" opacity="0.100000001" points="5.02564103 1.25641026 65.3333333 1.25641026 5.02564103 33.9230769"></polygon>
                        <path d="M0,43.974359 L71.6153846,43.974359 L71.6153846,47 C71.6153846,48.1045695 70.7199541,49 69.6153846,49 L2,49 C0.8954305,49 1.3527075e-16,48.1045695 0,47 L0,43.974359 L0,43.974359 Z" id="Rectangle" stroke="#1560BD" stroke-width="2" fill="#FFFFFF"></path>
                        <rect id="Rectangle" fill="#FFFFFF" x="6.28205128" y="1.25641026" width="57.7948718" height="2.51282051"></rect>
                        <polygon id="Rectangle" fill-opacity="0.12" fill="#4A90E2" points="6.28205128 35.3146743 64.0769231 3.76923077 64.0769231 7.53846154 64.0769231 8.79487179 6.28205128 40.3403153"></polygon>
                    </g>
                </g>
                <g id="Group-2" transform="translate(53.000000, 55.000000)">
                    <path d="M5,0 L90,0 C92.209139,-4.05812251e-16 94,1.790861 94,4 L94,83 L94,83 L1,83 L1,4 C1,1.790861 2.790861,4.05812251e-16 5,0 Z" id="Combined-Shape" stroke="#1560BD" stroke-width="2" fill="#FFFFFF"></path>
                    <path d="M90,0 C92.209139,-4.05812251e-16 94,1.790861 94,4 L93.9997209,12 L0.88372093,12 L0.88372093,4 C0.88372093,1.790861 2.67458193,4.05812251e-16 4.88372093,0 L90,0 Z" id="Combined-Shape" stroke="#1560BD" stroke-width="2" fill-opacity="0.2" fill="#4A90E2"></path>
                    <circle id="Oval" stroke="#1560BD" stroke-width="2" fill="#FFFFFF" cx="8" cy="6" r="2"></circle>
                    <circle id="Oval" stroke="#1560BD" stroke-width="2" fill="#FFFFFF" cx="15" cy="6" r="2"></circle>
                    <circle id="Oval" stroke="#1560BD" stroke-width="2" fill="#FFFFFF" cx="22" cy="6" r="2"></circle>
                    <rect id="Rectangle" stroke="#1560BD" stroke-width="2" fill="#FFFFFF" x="45" y="4" width="45" height="4" rx="2"></rect>
                    <rect id="Rectangle" fill="#4A90E2" x="2" y="13" width="39" height="69"></rect>
                    <path d="M41,60 L47.5,60 C48.3284271,60 49,60.6715729 49,61.5 C49,62.3284271 48.3284271,63 47.5,63 L41,63 L41,63 L41,60 Z" id="Rectangle" fill="#E5E5EA"></path>
                    <rect id="Rectangle" fill="#E5E5EA" x="59" y="60" width="20" height="3" rx="1.5"></rect>
                    <path d="M41,75 L43.5,75 C44.3284271,75 45,75.6715729 45,76.5 C45,77.3284271 44.3284271,78 43.5,78 L41,78 L41,78 L41,75 Z" id="Rectangle" fill="#E5E5EA"></path>
                    <rect id="Rectangle" fill="#E5E5EA" x="59" y="75" width="11" height="3" rx="1.5"></rect>
                    <g id="Group-9" transform="translate(6.000000, 18.000000)" fill="#FFFFFF">
                        <rect id="Rectangle" x="0" y="0" width="6" height="3" rx="1.5"></rect>
                        <rect id="Rectangle" opacity="0.379999995" x="11" y="1.13686838e-13" width="7" height="3" rx="1.5"></rect>
                        <rect id="Rectangle" opacity="0.379999995" x="18" y="10" width="10" height="3" rx="1.5"></rect>
                        <rect id="Rectangle" opacity="0.379999995" x="20" y="1.13686838e-13" width="5" height="3" rx="1.5"></rect>
                        <rect id="Rectangle" opacity="0.379999995" x="11" y="10" width="5" height="3" rx="1.5"></rect>
                        <rect id="Rectangle" opacity="0.379999995" x="11" y="5" width="7" height="3" rx="1.5"></rect>
                        <rect id="Rectangle" opacity="0.379999995" x="20" y="5" width="11" height="3" rx="1.5"></rect>
                    </g>
                    <g id="Group-9" transform="translate(6.000000, 33.000000)" fill="#FFFFFF">
                        <rect id="Rectangle" x="0" y="0" width="6" height="3" rx="1.5"></rect>
                        <rect id="Rectangle" opacity="0.379999995" x="11" y="1.13686838e-13" width="7" height="3" rx="1.5"></rect>
                        <rect id="Rectangle" opacity="0.379999995" x="18" y="10" width="7" height="3" rx="1.5"></rect>
                        <rect id="Rectangle" opacity="0.379999995" x="20" y="1.13686838e-13" width="5" height="3" rx="1.5"></rect>
                        <rect id="Rectangle" opacity="0.379999995" x="11" y="10" width="5" height="3" rx="1.5"></rect>
                        <rect id="Rectangle" opacity="0.379999995" x="11" y="5" width="3" height="3" rx="1.5"></rect>
                        <rect id="Rectangle" opacity="0.379999995" x="16" y="5" width="12" height="3" rx="1.5"></rect>
                    </g>
                    <g id="Group-9" transform="translate(6.000000, 48.000000)" fill="#FFFFFF">
                        <rect id="Rectangle" x="0" y="0" width="6" height="3" rx="1.5"></rect>
                        <rect id="Rectangle" opacity="0.379999995" x="11" y="1.13686838e-13" width="7" height="3" rx="1.5"></rect>
                        <rect id="Rectangle" opacity="0.379999995" x="18" y="10" width="9" height="3" rx="1.5"></rect>
                        <rect id="Rectangle" opacity="0.379999995" x="20" y="1.13686838e-13" width="3" height="3" rx="1.5"></rect>
                        <rect id="Rectangle" opacity="0.379999995" x="11" y="10" width="5" height="3" rx="1.5"></rect>
                        <rect id="Rectangle" opacity="0.379999995" x="11" y="5" width="7" height="3" rx="1.5"></rect>
                        <rect id="Rectangle" opacity="0.379999995" x="20" y="5" width="9" height="3" rx="1.5"></rect>
                    </g>
                    <g id="Group-9" transform="translate(6.000000, 63.000000)" fill="#FFFFFF">
                        <rect id="Rectangle" x="0" y="0" width="6" height="3" rx="1.5"></rect>
                        <rect id="Rectangle" opacity="0.379999995" x="11" y="1.13686838e-13" width="7" height="3" rx="1.5"></rect>
                        <rect id="Rectangle" opacity="0.379999995" x="18" y="10" width="3" height="3" rx="1.5"></rect>
                        <rect id="Rectangle" opacity="0.379999995" x="20" y="1.13686838e-13" width="3" height="3" rx="1.5"></rect>
                        <rect id="Rectangle" opacity="0.379999995" x="11" y="10" width="5" height="3" rx="1.5"></rect>
                        <rect id="Rectangle" opacity="0.379999995" x="11" y="5" width="7" height="3" rx="1.5"></rect>
                        <rect id="Rectangle" opacity="0.379999995" x="20" y="5" width="11" height="3" rx="1.5"></rect>
                    </g>
                    <path d="M41,65 L47.5,65 C48.3284271,65 49,65.6715729 49,66.5 C49,67.3284271 48.3284271,68 47.5,68 L41,68 L41,68 L41,65 Z" id="Rectangle" fill="#E5E5EA"></path>
                    <rect id="Rectangle" fill="#E5E5EA" x="59" y="65" width="25" height="3" rx="1.5"></rect>
                    <rect id="Rectangle" fill-opacity="0.12" fill="#4A90E2" x="41" y="46" width="11" height="10"></rect>
                    <rect id="Rectangle" fill="#4A90E2" opacity="0.23" x="59" y="46" width="29" height="10"></rect>
                    <rect id="Rectangle" fill="#4A90E2" opacity="0.379999995" x="41" y="18" width="47" height="15"></rect>
                    <rect id="Rectangle" fill="#E5E5EA" x="59" y="70" width="7" height="3" rx="1.5"></rect>
                    <rect id="Rectangle" fill="#E5E5EA" x="66" y="70" width="13" height="3" rx="1.5"></rect>
                    <rect id="Rectangle" fill="#E5E5EA" x="41" y="37" width="9" height="3" rx="1.5"></rect>
                    <rect id="Rectangle" fill="#E5E5EA" x="52" y="37" width="15" height="3" rx="1.5"></rect>
                </g>
                <line x1="27.0934497" y1="138" x2="128.5" y2="138" id="Path-4" stroke="#1560BD" stroke-width="2" opacity="0.200000003" stroke-linecap="round"></line>
                <line x1="23" y1="138" x2="24" y2="138" id="Path-4" stroke="#1560BD" stroke-width="2" opacity="0.200000003" stroke-linecap="round"></line>
                <line x1="142" y1="138" x2="145" y2="138" id="Path-4" stroke="#1560BD" stroke-width="2" opacity="0.200000003" stroke-linecap="round"></line>
            </g>
            <g id="Group-10" transform="translate(22.000000, 78.000000)">
                <path d="M43.4166667,25.3333333 L43.4166667,55 C43.4166667,57.7614237 41.1780904,60 38.4166667,60 L17,60 C14.2385763,60 12,57.7614237 12,55 L11.9992397,52.4423262 C11.4438454,52.535069 10.8733924,52.5833333 10.2916667,52.5833333 C4.60773612,52.5833333 0,47.9755972 0,42.2916667 C0,36.6077361 4.60773612,32 10.2916667,32 C10.8733924,32 11.4438454,32.0482644 11.9992397,32.1410072 L12,25.3333333 L43.4166667,25.3333333 Z M10.375,35.3333333 C6.48599489,35.3333333 3.33333333,38.4859949 3.33333333,42.375 C3.33333333,46.2640051 6.48599489,49.4166667 10.375,49.4166667 C10.9341634,49.4166667 11.4781046,49.3514921 11.9996412,49.2283253 L11.9996412,35.5216747 C11.4781046,35.3985079 10.9341634,35.3333333 10.375,35.3333333 Z" id="Combined-Shape" stroke="#1560BD" stroke-width="2" fill="#93BBEB"></path>
                <polygon id="Rectangle-7" fill="#CFE1F6" points="15.2125 26.3333333 34.2125 26.3333333 26.8099026 56.3333333 15.2125 56.3333333"></polygon>
                <path d="M22.6666667,9.6969697 C21.595569,9.6969697 20.7272727,8.82867345 20.7272727,7.75757576 C20.7272727,6.68647806 21.595569,5.81818182 22.6666667,5.81818182 L22.7797538,5.81165796 C23.2620216,5.75564331 23.6363636,5.34578021 23.6363636,4.84848485 C23.6363636,4.312936 23.2022155,3.87878788 22.6666667,3.87878788 L22.6666667,3.87878788 L18.7878788,3.87878788 C17.7167811,3.87878788 16.8484848,3.01049164 16.8484848,1.93939394 C16.8484848,0.868296243 17.7167811,1.96757455e-16 18.7878788,0 L27.5151515,0 C28.5862492,-4.1880206e-16 29.4545455,0.868296243 29.4545455,1.93939394 C29.4545455,2.95948698 28.6669752,3.79563313 27.666714,3.87295296 L27.5151515,3.87878788 C26.9796027,3.87878788 26.5454545,4.312936 26.5454545,4.84848485 C26.5454545,5.3840337 26.9796027,5.81818182 27.5151515,5.81818182 L27.5151515,5.81818182 L40.1212121,5.81818182 C41.1923098,5.81818182 42.0606061,6.68647806 42.0606061,7.75757576 C42.0606061,8.82867345 41.1923098,9.6969697 40.1212121,9.6969697 L32.3636364,9.6969697 C31.8280875,9.6969697 31.3939394,10.1311178 31.3939394,10.6666667 C31.3939394,11.2022155 31.8280875,11.6363636 32.3636364,11.6363636 L32.3636364,11.6363636 C33.4347341,11.6363636 34.3030303,12.5046599 34.3030303,13.5757576 C34.3030303,14.6468553 33.4347341,15.5151515 32.3636364,15.5151515 L27.5151515,15.5151515 C26.9796027,15.5151515 26.5454545,15.9492996 26.5454545,16.4848485 C26.5454545,17.0203973 26.9796027,17.4545455 27.5151515,17.4545455 L27.5151515,17.4545455 L30.4242424,17.4545455 C31.4953401,17.4545455 32.3636364,18.3228417 32.3636364,19.3939394 C32.3636364,20.4650371 31.4953401,21.3333333 30.4242424,21.3333333 L22.6666667,21.3333333 C21.595569,21.3333333 20.7272727,20.4650371 20.7272727,19.3939394 C20.7272727,18.3228417 21.595569,17.4545455 22.6666667,17.4545455 L22.7797538,17.4480216 C23.2620216,17.3920069 23.6363636,16.9821438 23.6363636,16.4848485 C23.6363636,15.9492996 23.2022155,15.5151515 22.6666667,15.5151515 L22.6666667,15.5151515 L13.9393939,15.5151515 C12.8682962,15.5151515 12,14.6468553 12,13.5757576 C12,12.5046599 12.8682962,11.6363636 13.9393939,11.6363636 L24.6060606,11.6363636 L24.7191478,11.6298398 C25.2014156,11.5738251 25.5757576,11.163962 25.5757576,10.6666667 C25.5757576,10.1311178 25.1416095,9.6969697 24.6060606,9.6969697 L24.6060606,9.6969697 L22.6666667,9.6969697 Z" id="Combined-Shape" fill="#8EBAED" opacity="0.618243129"></path>
                <polygon id="Combined-Shape" fill="#FFFFFF" points="20.8333333 41.5833333 20.8333333 24.3504146 21.9166667 24.3504146 21.9166667 41.5833333 24.0833333 42.6666667 24.0833333 50.25 18.6666667 50.25 18.6666667 42.6666667"></polygon>
            </g>
        </g>
    </g>
</svg>