<svg width="181" height="160" viewBox="0 0 181 160" fill="none" xmlns="http://www.w3.org/2000/svg">
<g id="Documentation">
<g id="Group 11" opacity="0.5">
<g id="Combined Shape">
<path fill-rule="evenodd" clip-rule="evenodd" d="M95.8 30H93.2C93.0895 30 92.9896 30.0895 92.9767 30.2L91.9731 38.8C91.9602 38.9105 92.102 39 92.2898 39H96.7102C96.898 39 97.0398 38.9105 97.0269 38.8L96.0233 30.2C96.0104 30.0895 95.9105 30 95.8 30ZM144.972 57.8C144.972 57.9105 144.883 58.0104 144.772 58.0233L140.883 58.4772C139.86 69.7011 130.217 78.5 118.472 78.5C116.203 78.5 114.012 78.1715 111.946 77.5604L109.815 81.381C109.761 81.4781 109.634 81.5226 109.532 81.4803L107.13 80.4853C107.028 80.443 106.97 80.3221 107 80.2151L108.178 76.0673C106.781 75.3632 105.469 74.5202 104.261 73.5571L100.953 76.1741C100.865 76.2431 100.731 76.2357 100.653 76.1576L98.8147 74.3191C98.7366 74.241 98.7292 74.107 98.7982 74.0197L101.358 70.7831C100.354 69.6336 99.4687 68.3817 98.7209 67.0457L94.8582 68.1785C94.7515 68.2098 94.63 68.1527 94.5869 68.051L93.571 65.6577C93.5278 65.556 93.5712 65.429 93.6678 65.374L97.1066 63.4161C96.6876 62.1778 96.378 60.8909 96.1891 59.5662C97.2687 58.9702 98 57.8205 98 56.5C98 55.1795 97.2687 54.0298 96.1891 53.4338C97.7149 42.735 107.11 34.5 118.472 34.5C120.742 34.5 122.933 34.8285 124.998 35.4396L127.129 31.619C127.184 31.5219 127.31 31.4774 127.412 31.5197L129.814 32.5147C129.917 32.557 129.975 32.6779 129.944 32.7849L128.767 36.9327C130.164 37.6368 131.476 38.4798 132.684 39.4429L135.992 36.8259C136.079 36.7569 136.213 36.7643 136.291 36.8424L138.13 38.6809C138.208 38.759 138.215 38.893 138.146 38.9803L135.586 42.2169C136.591 43.3664 137.476 44.6183 138.224 45.9543L142.086 44.8215C142.193 44.7902 142.315 44.8473 142.358 44.949L143.374 47.3423C143.417 47.444 143.373 47.571 143.277 47.626L139.838 49.5839C140.371 51.1589 140.727 52.8127 140.883 54.5228L144.772 54.9767C144.883 54.9896 144.972 55.0895 144.972 55.2V57.8ZM164.605 77.016L165.6 74.6139C165.642 74.5118 165.598 74.3852 165.501 74.331L157.939 70.1128C157.842 70.0586 157.705 70.1553 157.634 70.3288L155.942 74.4127C155.87 74.5862 155.899 74.7515 156.006 74.7818L164.335 77.1458C164.442 77.1761 164.563 77.118 164.605 77.016ZM95.8 83H93.2C93.0895 83 92.9896 82.9105 92.9767 82.8L91.9731 74.2C91.9602 74.0895 92.102 74 92.2898 74H96.7102C96.898 74 97.0398 74.0895 97.0269 74.2L96.0233 82.8C96.0104 82.9105 95.9105 83 95.8 83ZM136.997 103.468L139.39 102.452C139.492 102.409 139.549 102.287 139.518 102.181L137.081 93.8722C137.05 93.7655 136.884 93.7385 136.711 93.8119L132.642 95.539C132.469 95.6124 132.374 95.7503 132.429 95.8469L136.713 103.371C136.768 103.468 136.895 103.511 136.997 103.468ZM155.081 91.2701L153.242 93.1085C153.164 93.1867 153.03 93.194 152.943 93.125L146.152 87.7535C146.065 87.6846 146.102 87.521 146.235 87.3882L149.36 84.2625C149.493 84.1297 149.657 84.0928 149.726 84.18L155.097 90.9707C155.166 91.0579 155.159 91.192 155.081 91.2701Z" fill="#E5E5EA"/>
<path d="M92.9767 30.2L91.9834 30.0841V30.0841L92.9767 30.2ZM91.9731 38.8L92.9664 38.9159V38.9159L91.9731 38.8ZM97.0269 38.8L96.0336 38.9159V38.9159L97.0269 38.8ZM96.0233 30.2L97.0166 30.0841V30.0841L96.0233 30.2ZM144.772 58.0233L144.888 59.0166L144.772 58.0233ZM140.883 58.4772L140.767 57.484L139.96 57.5781L139.887 58.3865L140.883 58.4772ZM111.946 77.5604L112.23 76.6015L111.463 76.3745L111.073 77.0732L111.946 77.5604ZM109.815 81.381L108.942 80.8938L108.942 80.8938L109.815 81.381ZM109.532 81.4803L109.915 80.5564L109.915 80.5564L109.532 81.4803ZM107.13 80.4853L106.747 81.4092L106.747 81.4092L107.13 80.4853ZM107 80.2151L107.962 80.4881L107.962 80.4881L107 80.2151ZM108.178 76.0673L109.14 76.3403L109.365 75.5459L108.628 75.1743L108.178 76.0673ZM104.261 73.5571L104.884 72.7753L104.264 72.2801L103.641 72.7728L104.261 73.5571ZM100.953 76.1741L100.332 75.3898L100.332 75.3898L100.953 76.1741ZM100.653 76.1576L101.36 75.4505L100.653 76.1576ZM98.8147 74.3191L98.1076 75.0262H98.1076L98.8147 74.3191ZM98.7982 74.0197L98.0139 73.3994H98.0139L98.7982 74.0197ZM101.358 70.7831L102.143 71.4035L102.659 70.7513L102.111 70.1251L101.358 70.7831ZM98.7209 67.0457L99.5936 66.5573L99.2043 65.8618L98.4395 66.0861L98.7209 67.0457ZM94.8582 68.1785L95.1396 69.1381L95.1397 69.1381L94.8582 68.1785ZM94.5869 68.051L93.6664 68.4418L93.6664 68.4418L94.5869 68.051ZM93.571 65.6577L92.6505 66.0484L92.6505 66.0485L93.571 65.6577ZM93.6678 65.374L94.1626 66.243L94.1626 66.243L93.6678 65.374ZM97.1066 63.4161L97.6014 64.2851L98.3183 63.8769L98.0538 63.0955L97.1066 63.4161ZM96.1891 59.5662L95.7058 58.6907L95.1017 59.0242L95.1991 59.7074L96.1891 59.5662ZM96.1891 53.4338L95.1991 53.2926L95.1017 53.9758L95.7058 54.3093L96.1891 53.4338ZM124.998 35.4396L124.714 36.3985L125.482 36.6255L125.871 35.9268L124.998 35.4396ZM127.129 31.619L126.256 31.1318L126.256 31.1318L127.129 31.619ZM127.412 31.5197L127.795 30.5958L127.795 30.5958L127.412 31.5197ZM129.814 32.5147L129.432 33.4386L129.432 33.4386L129.814 32.5147ZM129.944 32.7849L130.906 33.0579V33.0579L129.944 32.7849ZM128.767 36.9327L127.805 36.6597L127.58 37.4541L128.317 37.8257L128.767 36.9327ZM132.684 39.4429L132.06 40.2247L132.681 40.7199L133.304 40.2272L132.684 39.4429ZM135.992 36.8259L135.372 36.0416V36.0416L135.992 36.8259ZM136.291 36.8424L135.584 37.5495L135.584 37.5495L136.291 36.8424ZM138.13 38.6809L138.837 37.9738L138.837 37.9738L138.13 38.6809ZM138.146 38.9803L137.362 38.3599L137.362 38.3599L138.146 38.9803ZM135.586 42.2169L134.802 41.5965L134.286 42.2487L134.833 42.8749L135.586 42.2169ZM138.224 45.9543L137.351 46.4427L137.74 47.1382L138.505 46.9139L138.224 45.9543ZM142.086 44.8215L141.805 43.8619L141.805 43.8619L142.086 44.8215ZM142.358 44.949L143.278 44.5582V44.5582L142.358 44.949ZM143.374 47.3423L142.453 47.733V47.733L143.374 47.3423ZM143.277 47.626L143.772 48.495V48.495L143.277 47.626ZM139.838 49.5839L139.343 48.7149L138.626 49.1231L138.891 49.9045L139.838 49.5839ZM140.883 54.5228L139.887 54.6135L139.96 55.4219L140.767 55.516L140.883 54.5228ZM144.772 54.9767L144.888 53.9834L144.772 54.9767ZM165.6 74.6139L166.524 74.9966L166.524 74.9965L165.6 74.6139ZM164.605 77.016L163.681 76.6333L163.681 76.6333L164.605 77.016ZM165.501 74.331L165.014 75.2043L165.014 75.2043L165.501 74.331ZM157.939 70.1128L158.427 69.2395L158.427 69.2395L157.939 70.1128ZM157.634 70.3288L158.557 70.7115L158.557 70.7115L157.634 70.3288ZM155.942 74.4127L155.018 74.03L155.018 74.0301L155.942 74.4127ZM156.006 74.7818L156.279 73.8198L156.279 73.8198L156.006 74.7818ZM164.335 77.1458L164.062 78.1078L164.335 77.1458ZM92.9767 82.8L91.9834 82.9159V82.9159L92.9767 82.8ZM91.9731 74.2L92.9664 74.0841V74.0841L91.9731 74.2ZM97.0269 74.2L96.0336 74.0841V74.0841L97.0269 74.2ZM96.0233 82.8L97.0166 82.9159V82.9159L96.0233 82.8ZM139.39 102.452L138.999 101.532L139.39 102.452ZM136.997 103.468L137.387 104.388L137.387 104.388L136.997 103.468ZM139.518 102.181L138.558 102.462V102.462L139.518 102.181ZM137.081 93.8722L138.041 93.5908V93.5908L137.081 93.8722ZM136.711 93.8119L137.102 94.7324L137.102 94.7324L136.711 93.8119ZM132.642 95.539L132.252 94.6185H132.252L132.642 95.539ZM132.429 95.8469L131.56 96.3417L131.56 96.3417L132.429 95.8469ZM136.713 103.371L137.582 102.876L137.582 102.876L136.713 103.371ZM153.242 93.1085L152.535 92.4014L152.535 92.4015L153.242 93.1085ZM155.081 91.2701L155.788 91.9772L155.081 91.2701ZM152.943 93.125L153.563 92.3408L153.563 92.3408L152.943 93.125ZM146.152 87.7535L146.773 86.9692L146.773 86.9692L146.152 87.7535ZM146.235 87.3882L146.942 88.0953L146.942 88.0953L146.235 87.3882ZM149.36 84.2625L150.068 84.9696L150.068 84.9696L149.36 84.2625ZM149.726 84.18L148.942 84.8003L148.942 84.8004L149.726 84.18ZM155.097 90.9707L154.313 91.5911L154.313 91.5911L155.097 90.9707ZM93.2 31H95.8V29H93.2V31ZM93.9699 30.3159C93.9454 30.5261 93.8423 30.693 93.7189 30.8035C93.5955 30.914 93.416 31 93.2 31V29C92.5767 29 92.0545 29.475 91.9834 30.0841L93.9699 30.3159ZM92.9664 38.9159L93.9699 30.3159L91.9834 30.0841L90.9799 38.6841L92.9664 38.9159ZM92.2898 38C92.3399 38 92.4534 38.0096 92.5902 38.0959C92.7199 38.1779 93.0208 38.4498 92.9664 38.9159L90.9799 38.6841C90.9126 39.2607 91.2779 39.6326 91.5222 39.7869C91.7736 39.9457 92.052 40 92.2898 40V38ZM96.7102 38H92.2898V40H96.7102V38ZM96.0336 38.9159C95.9792 38.4498 96.2801 38.1779 96.4098 38.0959C96.5466 38.0096 96.6601 38 96.7102 38V40C96.9481 40 97.2264 39.9457 97.4778 39.7869C97.7221 39.6326 98.0874 39.2607 98.0201 38.6841L96.0336 38.9159ZM95.0301 30.3159L96.0336 38.9159L98.0201 38.6841L97.0166 30.0841L95.0301 30.3159ZM95.8 31C95.584 31 95.4045 30.914 95.2811 30.8035C95.1577 30.693 95.0546 30.5261 95.0301 30.3159L97.0166 30.0841C96.9455 29.475 96.4233 29 95.8 29V31ZM144.888 59.0166C145.497 58.9455 145.972 58.4233 145.972 57.8H143.972C143.972 57.584 144.058 57.4046 144.169 57.2812C144.279 57.1577 144.446 57.0546 144.656 57.0301L144.888 59.0166ZM140.999 59.4705L144.888 59.0166L144.656 57.0301L140.767 57.484L140.999 59.4705ZM118.472 79.5C130.72 79.5 140.808 70.3205 141.879 58.5679L139.887 58.3865C138.912 69.0817 129.714 77.5 118.472 77.5V79.5ZM111.663 78.5193C113.82 79.1574 116.106 79.5 118.472 79.5V77.5C116.3 77.5 114.204 77.1856 112.23 76.6015L111.663 78.5193ZM110.688 81.8682L112.82 78.0476L111.073 77.0732L108.942 80.8938L110.688 81.8682ZM109.15 82.4042C109.725 82.6427 110.39 82.4038 110.688 81.8681L108.942 80.8938C109.045 80.709 109.204 80.5943 109.36 80.5394C109.517 80.4845 109.715 80.4737 109.915 80.5564L109.15 82.4042ZM106.747 81.4092L109.15 82.4042L109.915 80.5564L107.513 79.5614L106.747 81.4092ZM106.038 79.942C105.871 80.532 106.172 81.1707 106.747 81.4092L107.513 79.5614C107.712 79.6441 107.845 79.7922 107.917 79.9415C107.989 80.0909 108.02 80.2846 107.962 80.4881L106.038 79.942ZM107.216 75.7943L106.038 79.9421L107.962 80.4881L109.14 76.3403L107.216 75.7943ZM103.637 74.3389C104.899 75.3448 106.269 76.225 107.727 76.9603L108.628 75.1743C107.292 74.5013 106.039 73.6957 104.884 72.7753L103.637 74.3389ZM101.573 76.9584L104.881 74.3414L103.641 72.7728L100.332 75.3898L101.573 76.9584ZM99.9461 76.8647C100.387 77.3054 101.092 77.3388 101.573 76.9584L100.332 75.3898C100.498 75.2585 100.689 75.2134 100.855 75.2225C101.02 75.2316 101.208 75.2977 101.36 75.4505L99.9461 76.8647ZM98.1076 75.0262L99.9461 76.8647L101.36 75.4505L99.5218 73.612L98.1076 75.0262ZM98.0139 73.3994C97.6335 73.8803 97.6669 74.5855 98.1076 75.0262L99.5218 73.612C99.6746 73.7647 99.7407 73.9524 99.7498 74.1178C99.7589 74.2833 99.7138 74.4742 99.5825 74.6401L98.0139 73.3994ZM100.574 70.1627L98.0139 73.3994L99.5825 74.6401L102.143 71.4035L100.574 70.1627ZM97.8483 67.5341C98.6303 68.9314 99.5559 70.24 100.605 71.4411L102.111 70.1251C101.152 69.0272 100.307 67.8321 99.5936 66.5573L97.8483 67.5341ZM95.1397 69.1381L99.0023 68.0053L98.4395 66.0861L94.5768 67.2189L95.1397 69.1381ZM93.6664 68.4418C93.9099 69.0155 94.5512 69.3106 95.1396 69.1381L94.5769 67.2189C94.7799 67.1593 94.9738 67.189 95.1238 67.2595C95.2737 67.3299 95.423 67.4614 95.5074 67.6603L93.6664 68.4418ZM92.6505 66.0485L93.6664 68.4418L95.5074 67.6603L94.4915 65.267L92.6505 66.0485ZM93.173 64.505C92.6401 64.8084 92.407 65.4747 92.6505 66.0484L94.4915 65.267C94.5759 65.4658 94.5669 65.6646 94.5134 65.8214C94.4598 65.9782 94.3465 66.1383 94.1626 66.243L93.173 64.505ZM96.6118 62.547L93.173 64.505L94.1626 66.243L97.6014 64.2851L96.6118 62.547ZM95.1991 59.7074C95.3968 61.0937 95.7208 62.4407 96.1594 63.7366L98.0538 63.0955C97.6543 61.915 97.3592 60.6881 97.1791 59.425L95.1991 59.7074ZM96.6724 60.4416C98.0579 59.6768 99 58.1991 99 56.5H97C97 57.4419 96.4796 58.2636 95.7058 58.6907L96.6724 60.4416ZM99 56.5C99 54.8009 98.0579 53.3232 96.6724 52.5584L95.7058 54.3093C96.4796 54.7364 97 55.5581 97 56.5H99ZM118.472 33.5C106.622 33.5 96.7966 42.0912 95.1991 53.2926L97.1791 53.575C98.6332 43.3788 107.598 35.5 118.472 35.5V33.5ZM125.282 34.4807C123.125 33.8426 120.839 33.5 118.472 33.5V35.5C120.645 35.5 122.74 35.8144 124.714 36.3985L125.282 34.4807ZM126.256 31.1318L124.125 34.9524L125.871 35.9268L128.003 32.1062L126.256 31.1318ZM127.795 30.5958C127.219 30.3573 126.555 30.5963 126.256 31.1318L128.003 32.1062C127.9 32.291 127.741 32.4057 127.584 32.4606C127.428 32.5155 127.229 32.5263 127.03 32.4436L127.795 30.5958ZM130.197 31.5908L127.795 30.5958L127.03 32.4436L129.432 33.4386L130.197 31.5908ZM130.906 33.0579C131.074 32.468 130.773 31.8293 130.197 31.5908L129.432 33.4386C129.232 33.3559 129.099 33.2078 129.028 33.0585C128.956 32.9091 128.924 32.7154 128.982 32.5119L130.906 33.0579ZM129.729 37.2057L130.906 33.0579L128.982 32.5119L127.805 36.6597L129.729 37.2057ZM133.307 38.6611C132.046 37.6552 130.676 36.775 129.217 36.0397L128.317 37.8257C129.652 38.4987 130.906 39.3043 132.06 40.2247L133.307 38.6611ZM135.372 36.0416L132.063 38.6586L133.304 40.2272L136.612 37.6102L135.372 36.0416ZM136.999 36.1353C136.558 35.6946 135.853 35.6612 135.372 36.0416L136.612 37.6102C136.446 37.7415 136.256 37.7866 136.09 37.7775C135.925 37.7684 135.737 37.7023 135.584 37.5495L136.999 36.1353ZM138.837 37.9738L136.999 36.1353L135.584 37.5495L137.423 39.388L138.837 37.9738ZM138.931 39.6007C139.311 39.1196 139.278 38.4145 138.837 37.9738L137.423 39.388C137.27 39.2353 137.204 39.0476 137.195 38.8822C137.186 38.7167 137.231 38.5258 137.362 38.3599L138.931 39.6007ZM136.37 42.8373L138.931 39.6006L137.362 38.3599L134.802 41.5965L136.37 42.8373ZM139.096 45.4659C138.314 44.0686 137.389 42.76 136.339 41.5589L134.833 42.8749C135.792 43.9728 136.638 45.1679 137.351 46.4427L139.096 45.4659ZM141.805 43.8619L137.942 44.9947L138.505 46.9139L142.368 45.7811L141.805 43.8619ZM143.278 44.5582C143.035 43.9845 142.393 43.6894 141.805 43.8619L142.368 45.7811C142.165 45.8407 141.971 45.811 141.821 45.7405C141.671 45.6701 141.522 45.5385 141.437 45.3397L143.278 44.5582ZM144.294 46.9516L143.278 44.5582L141.437 45.3397L142.453 47.733L144.294 46.9516ZM143.772 48.495C144.305 48.1916 144.538 47.5252 144.294 46.9515L142.453 47.733C142.369 47.5342 142.378 47.3354 142.431 47.1787C142.485 47.0218 142.598 46.8617 142.782 46.757L143.772 48.495ZM140.333 50.453L143.772 48.495L142.782 46.757L139.343 48.7149L140.333 50.453ZM141.879 54.4321C141.716 52.6427 141.343 50.9118 140.785 49.2634L138.891 49.9045C139.399 51.406 139.738 52.9827 139.887 54.6135L141.879 54.4321ZM144.888 53.9834L140.999 53.5295L140.767 55.516L144.656 55.9699L144.888 53.9834ZM145.972 55.2C145.972 54.5768 145.497 54.0545 144.888 53.9834L144.656 55.9699C144.446 55.9454 144.279 55.8423 144.169 55.7188C144.058 55.5954 143.972 55.416 143.972 55.2H145.972ZM145.972 57.8V55.2H143.972V57.8H145.972ZM164.676 74.2312L163.681 76.6333L165.529 77.3986L166.524 74.9966L164.676 74.2312ZM165.014 75.2043C164.829 75.1012 164.714 74.9421 164.659 74.7857C164.604 74.6294 164.594 74.4308 164.676 74.2312L166.524 74.9965C166.762 74.4208 166.524 73.7565 165.988 73.4577L165.014 75.2043ZM157.452 70.9861L165.014 75.2043L165.988 73.4577L158.427 69.2395L157.452 70.9861ZM158.557 70.7115C158.538 70.7577 158.486 70.859 158.354 70.9523C158.228 71.0408 157.862 71.2147 157.452 70.9861L158.427 69.2395C157.92 68.9567 157.436 69.1518 157.2 69.3185C156.957 69.49 156.801 69.7264 156.71 69.9462L158.557 70.7115ZM156.866 74.7954L158.557 70.7115L156.71 69.9461L155.018 74.03L156.866 74.7954ZM156.279 73.8198C156.73 73.9479 156.866 74.3299 156.892 74.4812C156.92 74.6406 156.885 74.7491 156.866 74.7954L155.018 74.0301C154.927 74.2498 154.871 74.5277 154.921 74.8207C154.97 75.1056 155.174 75.5854 155.732 75.7438L156.279 73.8198ZM164.608 76.1838L156.279 73.8198L155.732 75.7438L164.062 78.1078L164.608 76.1838ZM163.681 76.6333C163.764 76.4337 163.912 76.3008 164.061 76.2291C164.211 76.1573 164.404 76.126 164.608 76.1838L164.062 78.1078C164.652 78.2752 165.291 77.9745 165.529 77.3986L163.681 76.6333ZM93.2 84H95.8V82H93.2V84ZM91.9834 82.9159C92.0545 83.525 92.5767 84 93.2 84V82C93.416 82 93.5955 82.086 93.7189 82.1965C93.8423 82.307 93.9454 82.4739 93.9699 82.6841L91.9834 82.9159ZM90.9799 74.3159L91.9834 82.9159L93.9699 82.6841L92.9664 74.0841L90.9799 74.3159ZM92.2898 73C92.052 73 91.7736 73.0543 91.5222 73.2131C91.2778 73.3674 90.9126 73.7393 90.9799 74.3159L92.9664 74.0841C93.0208 74.5502 92.7199 74.8221 92.5902 74.9041C92.4534 74.9904 92.3399 75 92.2898 75V73ZM96.7102 73H92.2898V75H96.7102V73ZM98.0201 74.3159C98.0874 73.7393 97.7221 73.3674 97.4778 73.2131C97.2264 73.0543 96.9481 73 96.7102 73V75C96.6601 75 96.5466 74.9904 96.4098 74.9041C96.2801 74.8221 95.9792 74.5502 96.0336 74.0841L98.0201 74.3159ZM97.0166 82.9159L98.0201 74.3159L96.0336 74.0841L95.0301 82.6841L97.0166 82.9159ZM95.8 84C96.4233 84 96.9455 83.525 97.0166 82.9159L95.0301 82.6841C95.0546 82.4739 95.1577 82.307 95.2811 82.1965C95.4045 82.086 95.584 82 95.8 82V84ZM138.999 101.532L136.606 102.547L137.387 104.388L139.781 103.373L138.999 101.532ZM138.558 102.462C138.498 102.259 138.528 102.065 138.598 101.915C138.669 101.765 138.8 101.616 138.999 101.532L139.781 103.373C140.354 103.129 140.65 102.488 140.477 101.899L138.558 102.462ZM136.121 94.1536L138.558 102.462L140.477 101.899L138.041 93.5908L136.121 94.1536ZM137.102 94.7324C137.056 94.7519 136.948 94.7875 136.788 94.7614C136.637 94.7367 136.253 94.604 136.121 94.1536L138.041 93.5908C137.877 93.0338 137.396 92.8342 137.11 92.7876C136.817 92.7397 136.54 92.7984 136.321 92.8914L137.102 94.7324ZM133.033 96.4595L137.102 94.7324L136.321 92.8914L132.252 94.6185L133.033 96.4595ZM133.298 95.3521C133.53 95.7599 133.36 96.1277 133.272 96.2539C133.18 96.3868 133.079 96.44 133.033 96.4595L132.252 94.6185C132.033 94.7115 131.798 94.8703 131.628 95.1146C131.464 95.3522 131.273 95.8372 131.56 96.3417L133.298 95.3521ZM137.582 102.876L133.298 95.3521L131.56 96.3417L135.844 103.866L137.582 102.876ZM136.606 102.547C136.805 102.463 137.004 102.472 137.16 102.526C137.317 102.579 137.477 102.692 137.582 102.876L135.844 103.866C136.147 104.399 136.814 104.632 137.387 104.388L136.606 102.547ZM153.949 93.8157L155.788 91.9772L154.374 90.563L152.535 92.4014L153.949 93.8157ZM152.323 93.9093C152.804 94.2898 153.509 94.2564 153.95 93.8156L152.535 92.4015C152.688 92.2487 152.876 92.1826 153.041 92.1735C153.207 92.1644 153.397 92.2095 153.563 92.3408L152.323 93.9093ZM145.532 88.5378L152.323 93.9093L153.563 92.3408L146.773 86.9692L145.532 88.5378ZM145.528 86.6811C145.36 86.8493 145.201 87.0845 145.136 87.3745C145.072 87.6564 145.077 88.1777 145.532 88.5378L146.773 86.9692C147.141 87.2604 147.12 87.6654 147.086 87.8151C147.051 87.9728 146.977 88.0599 146.942 88.0953L145.528 86.6811ZM148.653 83.5554L145.528 86.6811L146.942 88.0953L150.068 84.9696L148.653 83.5554ZM150.51 83.5597C150.15 83.1043 149.629 83.0996 149.347 83.1633C149.057 83.2288 148.822 83.3872 148.653 83.5554L150.068 84.9696C150.032 85.005 149.945 85.0786 149.787 85.1142C149.638 85.148 149.233 85.1685 148.942 84.8003L150.51 83.5597ZM155.882 90.3503L150.51 83.5596L148.942 84.8004L154.313 91.5911L155.882 90.3503ZM155.788 91.9772C156.229 91.5365 156.262 90.8313 155.882 90.3503L154.313 91.5911C154.182 91.4252 154.137 91.2343 154.146 91.0688C154.155 90.9034 154.221 90.7157 154.374 90.563L155.788 91.9772Z" fill="#1560BD"/>
</g>
<path id="Combined Shape_2" fill-rule="evenodd" clip-rule="evenodd" d="M93.889 31H95.11L95.6369 35.5139L96.4484 35.585L97.0745 35.6489C98.323 35.7944 99.549 36.0455 100.742 36.3985L101.509 36.6254L103.695 32.707L104.821 33.174L103.607 37.4538L104.344 37.8254L104.839 38.083C105.986 38.6985 107.073 39.4155 108.087 40.2242L108.708 40.7193L112.099 38.037L112.962 38.9L110.505 42.007L110.384 41.9115L109.976 41.6027C105.591 38.353 100.205 36.5 94.5 36.5L94.052 36.5038L93.5217 36.5182C88.0533 36.7219 82.9199 38.6271 78.7332 41.8216L78.494 42.007L76.037 38.9L76.9 38.037L80.2919 40.7193L80.9128 40.2242L81.3944 39.8512C82.3681 39.1188 83.4044 38.4686 84.4922 37.9088L85.2267 37.5308L83.975 33.265L85.098 32.789L87.3163 36.685L88.0813 36.4515L88.6261 36.2931C89.9026 35.9398 91.2153 35.7022 92.5516 35.585L93.3631 35.5139L93.889 31ZM117.734 45.975L115.17 46.726L115.268 46.8541C115.445 47.0881 115.617 47.3254 115.786 47.5659L116.037 47.9292L116.233 48.224L118.21 47.097L117.734 45.975ZM70.707 47.304L71.174 46.178L73.7 46.895L73.5989 47.0316L73.3423 47.3842C73.1731 47.6209 73.0075 47.8609 72.8458 48.1039L72.656 48.392L70.707 47.304ZM69.36 55.847L69 55.889V57.11L69.06 57.117L69.1262 56.8034L69.1972 56.4949L69.2719 56.1874L69.36 55.847ZM119.639 55.847L119.728 56.1874L119.803 56.4949L119.874 56.8034L119.939 57.117L120 57.11V55.889L119.639 55.847Z" fill="white"/>
<g id="Combined Shape_3" opacity="0.7">
<path fill-rule="evenodd" clip-rule="evenodd" d="M107 56.5C107 63.1274 101.404 68.5 94.5 68.5C87.5964 68.5 82 63.1274 82 56.5C82 49.8726 87.5964 44.5 94.5 44.5C101.404 44.5 107 49.8726 107 56.5ZM98 56.5C98 58.433 96.433 60 94.5 60C92.567 60 91 58.433 91 56.5C91 54.567 92.567 53 94.5 53C96.433 53 98 54.567 98 56.5Z" fill="#4A90E2" fill-opacity="0.4"/>
<path d="M94.5 69.5C101.917 69.5 108 63.7178 108 56.5H106C106 62.5371 100.89 67.5 94.5 67.5V69.5ZM81 56.5C81 63.7178 87.083 69.5 94.5 69.5V67.5C88.1099 67.5 83 62.5371 83 56.5H81ZM94.5 43.5C87.083 43.5 81 49.2822 81 56.5H83C83 50.4629 88.1099 45.5 94.5 45.5V43.5ZM108 56.5C108 49.2822 101.917 43.5 94.5 43.5V45.5C100.89 45.5 106 50.4629 106 56.5H108ZM94.5 61C96.9853 61 99 58.9853 99 56.5H97C97 57.8807 95.8807 59 94.5 59V61ZM90 56.5C90 58.9853 92.0147 61 94.5 61V59C93.1193 59 92 57.8807 92 56.5H90ZM94.5 52C92.0147 52 90 54.0147 90 56.5H92C92 55.1193 93.1193 54 94.5 54V52ZM99 56.5C99 54.0147 96.9853 52 94.5 52V54C95.8807 54 97 55.1193 97 56.5H99Z" fill="#1560BD"/>
</g>
</g>
<g id="Group 7">
<g id="Rings" opacity="0.4">
<path id="Oval" opacity="0.4" fill-rule="evenodd" clip-rule="evenodd" d="M80.1065 124.078C104.391 124.078 124.078 104.391 124.078 80.1065C124.078 55.8216 104.391 36.1348 80.1065 36.1348C55.8216 36.1348 36.1348 55.8216 36.1348 80.1065C36.1348 104.391 55.8216 124.078 80.1065 124.078Z" fill="#4A90E2" fill-opacity="0.8" stroke="#1560BD" stroke-width="2"/>
<path id="Oval_2" opacity="0.2" fill-rule="evenodd" clip-rule="evenodd" d="M80.1065 142.604C114.623 142.604 142.604 114.623 142.604 80.1065C142.604 45.5902 114.623 17.6092 80.1065 17.6092C45.5902 17.6092 17.6092 45.5902 17.6092 80.1065C17.6092 114.623 45.5902 142.604 80.1065 142.604Z" fill="#4A90E2" fill-opacity="0.8" stroke="#1560BD" stroke-width="2"/>
<path id="Oval_3" opacity="0.1" fill-rule="evenodd" clip-rule="evenodd" d="M80 151.76C119.632 151.76 151.76 119.632 151.76 80C151.76 40.368 119.632 8.2399 80 8.2399C40.368 8.2399 8.23987 40.368 8.23987 80C8.23987 119.632 40.368 151.76 80 151.76Z" fill="#4A90E2" fill-opacity="0.8" stroke="#1560BD" stroke-width="2"/>
<path id="Oval_4" opacity="0.04" fill-rule="evenodd" clip-rule="evenodd" d="M80 159C123.63 159 159 123.63 159 80C159 36.3695 123.63 1 80 1C36.3695 1 1 36.3695 1 80C1 123.63 36.3695 159 80 159Z" fill="#4A90E2" fill-opacity="0.8" stroke="#1560BD" stroke-width="2"/>
<path id="Oval_5" opacity="0.4" fill-rule="evenodd" clip-rule="evenodd" d="M80.1065 99.8032C90.9847 99.8032 99.8033 90.9847 99.8033 80.1065C99.8033 69.2282 90.9847 60.4097 80.1065 60.4097C69.2283 60.4097 60.4097 69.2282 60.4097 80.1065C60.4097 90.9847 69.2283 99.8032 80.1065 99.8032Z" fill="#4A90E2" fill-opacity="0.8" stroke="#1560BD" stroke-width="2"/>
</g>
<g id="Group 6" opacity="0.5">
<g id="Group 5">
<g id="Group 4">
<rect id="Rectangle" x="113.026" y="90" width="60.3077" height="49" rx="1" fill="#4A90E2" fill-opacity="0.12" stroke="#1560BD" stroke-width="2"/>
<path id="Rectangle_2" opacity="0.1" fill-rule="evenodd" clip-rule="evenodd" d="M113.026 91.2564H173.333L113.026 123.923V91.2564Z" fill="#4A90E2"/>
<path id="Rectangle_3" d="M108 133.974H179.615V137C179.615 138.105 178.72 139 177.615 139H110C108.895 139 108 138.105 108 137V133.974Z" fill="white" stroke="#1560BD" stroke-width="2"/>
<rect id="Rectangle_4" x="114.282" y="91.2564" width="57.7949" height="2.51282" fill="white"/>
<path id="Rectangle_5" fill-rule="evenodd" clip-rule="evenodd" d="M114.282 125.315L172.077 93.7692V97.5385V98.7949L114.282 130.34V125.315Z" fill="#4A90E2" fill-opacity="0.12"/>
</g>
</g>
</g>
<g id="Group 2">
<path id="Combined Shape_4" d="M55 60C55 57.7909 56.7909 56 59 56H144C146.209 56 148 57.7909 148 60V139H55V60Z" fill="white" stroke="#1560BD" stroke-width="2"/>
<g id="Combined Shape_5">
<path fill-rule="evenodd" clip-rule="evenodd" d="M144 54H58.8837C55.9744 54 53.5487 56.0706 53 58.8186V68H56.8837V60C56.8837 58.8954 57.7792 58 58.8837 58H144C145.105 58 146 58.8954 146 60V68H150V60C150 56.6863 147.314 54 144 54Z" fill="#4A90E2" fill-opacity="0.2"/>
<path d="M53 58.8186L52.0194 58.6228L52 58.7197V58.8186H53ZM53 68H52V69H53V68ZM56.8837 68V69H57.8837V68H56.8837ZM146 68H145V69H146V68ZM150 68V69H151V68H150ZM58.8837 55H144V53H58.8837V55ZM53.9806 59.0144C54.4378 56.7249 56.4604 55 58.8837 55V53C55.4884 53 52.6596 55.4164 52.0194 58.6228L53.9806 59.0144ZM54 68V58.8186H52V68H54ZM56.8837 67H53V69H56.8837V67ZM55.8837 60V68H57.8837V60H55.8837ZM58.8837 57C57.2269 57 55.8837 58.3431 55.8837 60H57.8837C57.8837 59.4477 58.3314 59 58.8837 59V57ZM144 57H58.8837V59H144V57ZM147 60C147 58.3431 145.657 57 144 57V59C144.552 59 145 59.4477 145 60H147ZM147 68V60H145V68H147ZM150 67H146V69H150V67ZM149 60V68H151V60H149ZM144 55C146.761 55 149 57.2386 149 60H151C151 56.134 147.866 53 144 53V55Z" fill="#1560BD"/>
</g>
<path id="Oval_6" fill-rule="evenodd" clip-rule="evenodd" d="M62 64C63.1046 64 64 63.1046 64 62C64 60.8954 63.1046 60 62 60C60.8954 60 60 60.8954 60 62C60 63.1046 60.8954 64 62 64Z" fill="white" stroke="#1560BD" stroke-width="2"/>
<path id="Oval_7" fill-rule="evenodd" clip-rule="evenodd" d="M69 64C70.1046 64 71 63.1046 71 62C71 60.8954 70.1046 60 69 60C67.8954 60 67 60.8954 67 62C67 63.1046 67.8954 64 69 64Z" fill="white" stroke="#1560BD" stroke-width="2"/>
<path id="Oval_8" fill-rule="evenodd" clip-rule="evenodd" d="M76 64C77.1046 64 78 63.1046 78 62C78 60.8954 77.1046 60 76 60C74.8954 60 74 60.8954 74 62C74 63.1046 74.8954 64 76 64Z" fill="white" stroke="#1560BD" stroke-width="2"/>
<rect id="Rectangle_6" x="99" y="60" width="45" height="4" rx="2" fill="white" stroke="#1560BD" stroke-width="2"/>
<rect id="Rectangle_7" x="56" y="69" width="39" height="69" fill="#4A90E2"/>
<path id="Rectangle_8" d="M95 116H101.5C102.328 116 103 116.672 103 117.5C103 118.328 102.328 119 101.5 119H95V116Z" fill="#E5E5EA"/>
<rect id="Rectangle_9" x="113" y="116" width="20" height="3" rx="1.5" fill="#E5E5EA"/>
<path id="Rectangle_10" d="M95 131H97.5C98.3284 131 99 131.672 99 132.5C99 133.328 98.3284 134 97.5 134H95V131Z" fill="#E5E5EA"/>
<rect id="Rectangle_11" x="113" y="131" width="11" height="3" rx="1.5" fill="#E5E5EA"/>
<g id="Group 9">
<rect id="Rectangle_12" x="60" y="74" width="6" height="3" rx="1.5" fill="white"/>
<rect id="Rectangle_13" opacity="0.38" x="71" y="74" width="7" height="3" rx="1.5" fill="white"/>
<rect id="Rectangle_14" opacity="0.38" x="78" y="84" width="10" height="3" rx="1.5" fill="white"/>
<rect id="Rectangle_15" opacity="0.38" x="80" y="74" width="5" height="3" rx="1.5" fill="white"/>
<rect id="Rectangle_16" opacity="0.38" x="71" y="84" width="5" height="3" rx="1.5" fill="white"/>
<rect id="Rectangle_17" opacity="0.38" x="71" y="79" width="7" height="3" rx="1.5" fill="white"/>
<rect id="Rectangle_18" opacity="0.38" x="80" y="79" width="11" height="3" rx="1.5" fill="white"/>
</g>
<g id="Group 9_2">
<rect id="Rectangle_19" x="60" y="89" width="6" height="3" rx="1.5" fill="white"/>
<rect id="Rectangle_20" opacity="0.38" x="71" y="89" width="7" height="3" rx="1.5" fill="white"/>
<rect id="Rectangle_21" opacity="0.38" x="78" y="99" width="7" height="3" rx="1.5" fill="white"/>
<rect id="Rectangle_22" opacity="0.38" x="80" y="89" width="5" height="3" rx="1.5" fill="white"/>
<rect id="Rectangle_23" opacity="0.38" x="71" y="99" width="5" height="3" rx="1.5" fill="white"/>
<rect id="Rectangle_24" opacity="0.38" x="71" y="94" width="3" height="3" rx="1.5" fill="white"/>
<rect id="Rectangle_25" opacity="0.38" x="76" y="94" width="12" height="3" rx="1.5" fill="white"/>
</g>
<g id="Group 9_3">
<rect id="Rectangle_26" x="60" y="104" width="6" height="3" rx="1.5" fill="white"/>
<rect id="Rectangle_27" opacity="0.38" x="71" y="104" width="7" height="3" rx="1.5" fill="white"/>
<rect id="Rectangle_28" opacity="0.38" x="78" y="114" width="9" height="3" rx="1.5" fill="white"/>
<rect id="Rectangle_29" opacity="0.38" x="80" y="104" width="3" height="3" rx="1.5" fill="white"/>
<rect id="Rectangle_30" opacity="0.38" x="71" y="114" width="5" height="3" rx="1.5" fill="white"/>
<rect id="Rectangle_31" opacity="0.38" x="71" y="109" width="7" height="3" rx="1.5" fill="white"/>
<rect id="Rectangle_32" opacity="0.38" x="80" y="109" width="9" height="3" rx="1.5" fill="white"/>
</g>
<g id="Group 9_4">
<rect id="Rectangle_33" x="60" y="119" width="6" height="3" rx="1.5" fill="white"/>
<rect id="Rectangle_34" opacity="0.38" x="71" y="119" width="7" height="3" rx="1.5" fill="white"/>
<rect id="Rectangle_35" opacity="0.38" x="78" y="129" width="3" height="3" rx="1.5" fill="white"/>
<rect id="Rectangle_36" opacity="0.38" x="80" y="119" width="3" height="3" rx="1.5" fill="white"/>
<rect id="Rectangle_37" opacity="0.38" x="71" y="129" width="5" height="3" rx="1.5" fill="white"/>
<rect id="Rectangle_38" opacity="0.38" x="71" y="124" width="7" height="3" rx="1.5" fill="white"/>
<rect id="Rectangle_39" opacity="0.38" x="80" y="124" width="11" height="3" rx="1.5" fill="white"/>
</g>
<path id="Rectangle_40" d="M95 121H101.5C102.328 121 103 121.672 103 122.5C103 123.328 102.328 124 101.5 124H95V121Z" fill="#E5E5EA"/>
<rect id="Rectangle_41" x="113" y="121" width="25" height="3" rx="1.5" fill="#E5E5EA"/>
<rect id="Rectangle_42" x="95" y="102" width="11" height="10" fill="#4A90E2" fill-opacity="0.12"/>
<rect id="Rectangle_43" opacity="0.23" x="113" y="102" width="29" height="10" fill="#4A90E2"/>
<rect id="Rectangle_44" opacity="0.38" x="95" y="74" width="47" height="15" fill="#4A90E2"/>
<rect id="Rectangle_45" x="113" y="126" width="7" height="3" rx="1.5" fill="#E5E5EA"/>
<rect id="Rectangle_46" x="120" y="126" width="13" height="3" rx="1.5" fill="#E5E5EA"/>
<rect id="Rectangle_47" x="95" y="93" width="9" height="3" rx="1.5" fill="#E5E5EA"/>
<rect id="Rectangle_48" x="106" y="93" width="15" height="3" rx="1.5" fill="#E5E5EA"/>
</g>
<path id="Path 4" opacity="0.2" d="M28.0934 139H129.5" stroke="#1560BD" stroke-width="2" stroke-linecap="round"/>
<path id="Path 4_2" opacity="0.2" d="M24 139H25" stroke="#1560BD" stroke-width="2" stroke-linecap="round"/>
<path id="Path 4_3" opacity="0.2" d="M143 139H146" stroke="#1560BD" stroke-width="2" stroke-linecap="round"/>
</g>
<g id="Group 10">
<g id="Combined Shape_6">
<path fill-rule="evenodd" clip-rule="evenodd" d="M66.4167 104.333H35V111.141C34.4444 111.048 33.8737 111 33.2917 111C27.6077 111 23 115.608 23 121.292C23 126.976 27.6077 131.583 33.2917 131.583C33.8737 131.583 34.4444 131.535 35 131.442V134C35 136.761 37.2386 139 40 139H61.4167C64.1781 139 66.4167 136.761 66.4167 134V104.333ZM35 114.522V128.228C34.4784 128.351 33.9343 128.417 33.375 128.417C29.486 128.417 26.3333 125.264 26.3333 121.375C26.3333 117.486 29.486 114.333 33.375 114.333C33.9343 114.333 34.4784 114.399 35 114.522Z" fill="#93BBEB"/>
<path d="M35 104.333V103.333H34V104.333H35ZM66.4167 104.333H67.4167V103.333H66.4167V104.333ZM35 111.141L34.8352 112.127L36 112.322V111.141H35ZM35 131.442H36V130.261L34.8352 130.456L35 131.442ZM35 128.228L35.2299 129.201L36 129.02V128.228H35ZM35 114.522H36V113.73L35.2299 113.549L35 114.522ZM35 105.333H66.4167V103.333H35V105.333ZM36 111.141V104.333H34V111.141H36ZM33.2917 112C33.8182 112 34.3338 112.044 34.8352 112.127L35.1648 110.155C34.5549 110.053 33.9291 110 33.2917 110V112ZM24 121.292C24 116.16 28.16 112 33.2917 112V110C27.0555 110 22 115.055 22 121.292H24ZM33.2917 130.583C28.16 130.583 24 126.423 24 121.292H22C22 127.528 27.0555 132.583 33.2917 132.583V130.583ZM34.8352 130.456C34.3338 130.54 33.8182 130.583 33.2917 130.583V132.583C33.9291 132.583 34.5549 132.53 35.1648 132.429L34.8352 130.456ZM36 134V131.442H34V134H36ZM40 138C37.7909 138 36 136.209 36 134H34C34 137.314 36.6863 140 40 140V138ZM61.4167 138H40V140H61.4167V138ZM65.4167 134C65.4167 136.209 63.6258 138 61.4167 138V140C64.7304 140 67.4167 137.314 67.4167 134H65.4167ZM65.4167 104.333V134H67.4167V104.333H65.4167ZM36 128.228V114.522H34V128.228H36ZM34.7701 127.255C34.3232 127.361 33.8563 127.417 33.375 127.417V129.417C34.0123 129.417 34.6335 129.342 35.2299 129.201L34.7701 127.255ZM33.375 127.417C30.0383 127.417 27.3333 124.712 27.3333 121.375H25.3333C25.3333 125.816 28.9337 129.417 33.375 129.417V127.417ZM27.3333 121.375C27.3333 118.038 30.0383 115.333 33.375 115.333V113.333C28.9337 113.333 25.3333 116.934 25.3333 121.375H27.3333ZM33.375 115.333C33.8563 115.333 34.3232 115.389 34.7701 115.495L35.2299 113.549C34.6335 113.408 34.0123 113.333 33.375 113.333V115.333Z" fill="#1560BD"/>
</g>
<path id="Rectangle 7" fill-rule="evenodd" clip-rule="evenodd" d="M38.2125 105.333H57.2125L49.8099 135.333H38.2125V105.333Z" fill="#CFE1F6"/>
<path id="Combined Shape_7" opacity="0.618243" fill-rule="evenodd" clip-rule="evenodd" d="M39.8485 80.9394C39.8485 79.8683 40.7168 79 41.7879 79H50.5152C51.5862 79 52.4545 79.8683 52.4545 80.9394C52.4545 82.0105 51.5863 82.8788 50.5152 82.8788C49.9796 82.8788 49.5455 83.3129 49.5455 83.8485C49.5455 84.384 49.9796 84.8182 50.5152 84.8182H63.1212C64.1923 84.8182 65.0606 85.6865 65.0606 86.7576C65.0606 87.8287 64.1923 88.697 63.1212 88.697H55.3636C54.8281 88.697 54.3939 89.1311 54.3939 89.6667C54.3939 90.2022 54.8281 90.6364 55.3636 90.6364C56.4347 90.6364 57.303 91.5047 57.303 92.5758C57.303 93.6469 56.4347 94.5152 55.3636 94.5152H50.5152C49.9796 94.5152 49.5455 94.9493 49.5455 95.4848C49.5455 96.0204 49.9796 96.4545 50.5152 96.4545H53.4242C54.4953 96.4545 55.3636 97.3228 55.3636 98.3939C55.3636 99.465 54.4953 100.333 53.4242 100.333H45.6667C44.5956 100.333 43.7273 99.465 43.7273 98.3939C43.7273 97.3228 44.5956 96.4545 45.6667 96.4545C46.2022 96.4545 46.6364 96.0204 46.6364 95.4848C46.6364 94.9493 46.2022 94.5152 45.6667 94.5152H36.9394C35.8683 94.5152 35 93.6469 35 92.5758C35 91.5047 35.8683 90.6364 36.9394 90.6364H47.6061C48.1416 90.6364 48.5758 90.2022 48.5758 89.6667C48.5758 89.1311 48.1416 88.697 47.6061 88.697H45.6667C44.5956 88.697 43.7273 87.8287 43.7273 86.7576C43.7273 85.6865 44.5956 84.8182 45.6667 84.8182C46.2022 84.8182 46.6364 84.384 46.6364 83.8485C46.6364 83.3129 46.2022 82.8788 45.6667 82.8788H41.7879C40.7168 82.8788 39.8485 82.0105 39.8485 80.9394Z" fill="#8EBAED"/>
<path id="Combined Shape_8" fill-rule="evenodd" clip-rule="evenodd" d="M43.8334 120.583V103.35H44.9167V120.583L47.0834 121.667V129.25H41.6667V121.667L43.8334 120.583Z" fill="white"/>
</g>
</g>
</svg>
