<?xml version="1.0" encoding="UTF-8"?>
<svg width="169px" height="160px" viewBox="0 0 169 160" version="1.1" xmlns="http://www.w3.org/2000/svg" xmlns:xlink="http://www.w3.org/1999/xlink">
    <title>icon 05</title>
    <g id="Illustration" stroke="none" stroke-width="1" fill="none" fill-rule="evenodd">
        <g id="icon-05" transform="translate(1.000000, 1.000000)">
            <g id="Group" transform="translate(9.000000, 0.000000)" fill="#4A90E2" fill-opacity="0.8" stroke="#1560BD" stroke-width="2">
                <g id="rings">
                    <circle id="Oval" opacity="0.015" cx="79" cy="79" r="79"></circle>
                    <ellipse id="Oval" opacity="0.04" cx="79.4968553" cy="79.5" rx="71.5471698" ry="71.5"></ellipse>
                    <ellipse id="Oval" opacity="0.07" cx="79.4968553" cy="79.5" rx="62.6037736" ry="62.5"></ellipse>
                    <ellipse id="Oval" opacity="0.13" cx="79.4968553" cy="79" rx="43.7232704" ry="44"></ellipse>
                    <ellipse id="Oval" opacity="0.1" cx="79.4968553" cy="79" rx="19.8742138" ry="20"></ellipse>
                </g>
            </g>
            <g id="Group-20" opacity="0.5" transform="translate(92.000000, 26.000000)">
                <rect id="Rectangle" stroke="#1560BD" stroke-width="2" fill-opacity="0.12" fill="#4A90E2" x="7" y="7" width="45" height="43"></rect>
                <rect id="Rectangle" stroke="#1560BD" stroke-width="2" fill-opacity="0.12" fill="#FFFFFF" x="0" y="0" width="59" height="57"></rect>
                <polygon id="Rectangle" fill="#4A90E2" opacity="0.100000001" points="9 8 51 8 9 42"></polygon>
            </g>
            <g id="Group-17" transform="translate(123.250051, 100.500000) rotate(-330.000000) translate(-123.250051, -100.500000) translate(111.250051, 74.000000)">
                <path d="M16.0009157,0.000352009601 C20.6612069,1.64795617 24,6.09267236 24,11.3172055 C24,16.1597319 21.1316077,20.3323094 17.0011836,22.2285777 L17,47.3172055 C17,50.0786292 14.7614237,52.3172055 12,52.3172055 C9.23857625,52.3172055 7,50.0786292 7,47.3172055 L6.99981603,22.2290366 C2.86885507,20.3329827 0,16.1601226 0,11.3172055 C0,6.09230024 3.33926875,1.64732302 8.00008007,1.58928426e-13 L8,10.3172055 L16,10.3172055 L16.0009157,0.000352009601 Z M12,45.3172055 C10.8954305,45.3172055 10,46.212636 10,47.3172055 C10,48.421775 10.8954305,49.3172055 12,49.3172055 C13.1045695,49.3172055 14,48.421775 14,47.3172055 C14,46.212636 13.1045695,45.3172055 12,45.3172055 Z" id="Combined-Shape" stroke="#1560BD" stroke-width="2" fill="#E5E5EA" stroke-linejoin="round"></path>
                <path d="M15.209,49.7042055 L15.0743784,49.7876804 C14.174246,50.3257053 13.1221715,50.6344109 12,50.6344109 C10.9730242,50.6344109 10.0063111,50.376396 9.16114745,49.9216529 L8.91130614,49.7793894 L8.791,49.7052055 L8.86216154,49.7981851 C9.50996887,50.6163944 10.4710012,51.1752782 11.5641559,51.293734 L11.8003597,51.3123102 L12,51.3172055 C13.192433,51.3172055 14.2629987,50.7954299 14.9958377,49.9677383 L15.1378385,49.7981851 L15.209,49.7042055 Z M12,43.6344109 C11.566062,43.6344109 11.1966796,43.9108066 11.0582986,44.2971522 L11.0264107,44.4051201 L11.012,44.4862055 L11.1680468,44.434352 C11.3013594,44.3959403 11.4379033,44.3666537 11.5768412,44.34697 L11.786939,44.3247063 L12,44.3172055 C12.2640596,44.3172055 12.5227487,44.3516276 12.7708319,44.4174847 L12.954824,44.4727249 L12.987,44.4852055 L12.9735893,44.4051201 C12.8880846,44.0406553 12.6032124,43.7529935 12.2403116,43.6634736 L12.1166211,43.6411387 L12,43.6344109 Z M4.046,18.9192055 L4.18027715,19.057652 C4.57886174,19.4604681 5.00966907,19.8335907 5.46964487,20.1727889 L5.82004808,20.4207607 L5.999,20.5392055 L5.999,20.1702055 L5.96276885,20.1503059 C5.51352849,19.9144186 5.08090122,19.6537549 4.66645501,19.3703297 L4.25812724,19.079392 L4.046,18.9192055 Z M19.7641766,19.1116776 L19.947,18.9242055 L19.9398543,18.9296517 C19.459171,19.3007433 18.9506474,19.6396596 18.4171418,19.9428013 L18.001,20.1702055 L18.001,20.5382055 L18.1603335,20.4330124 C18.6230754,20.1201009 19.0589611,19.7740156 19.4651487,19.3986403 L19.7641766,19.1116776 Z" id="Combined-Shape" fill="#1560BD" fill-rule="nonzero" opacity="0.200000003"></path>
                <rect id="Rectangle" fill="#1560BD" x="7" y="13.3172055" width="2" height="4" rx="1"></rect>
                <rect id="Rectangle" fill="#1560BD" x="15" y="13.3172055" width="2" height="4" rx="1"></rect>
                <rect id="Rectangle-Copy" fill="#1560BD" x="11" y="13.3172055" width="2" height="4" rx="1"></rect>
            </g>
            <g id="Group-15" opacity="0.5" transform="translate(-0.000000, 43.000000)">
                <rect id="Rectangle" stroke="#1560BD" stroke-width="2" x="34.4150943" y="7.24528302" width="19.0188679" height="75.1698113"></rect>
                <g id="Group-13" transform="translate(12.679245, 0.000000)">
                    <rect id="Rectangle" stroke="#1560BD" stroke-width="2" fill="#A6CFFF" x="0" y="0" width="19.0188679" height="82.4150943" rx="1"></rect>
                    <rect id="Rectangle" stroke="#1560BD" stroke-width="2" opacity="0.200000003" x="0" y="6.33962264" width="19.0188679" height="57.0566038"></rect>
                    <rect id="Rectangle" stroke="#1560BD" stroke-width="2" opacity="0.200000003" transform="translate(9.509434, 72.000000) scale(1, -1) translate(-9.509434, -72.000000) " x="0" y="67.9245283" width="19.0188679" height="8.1509434"></rect>
                    <rect id="Rectangle" fill="#FFFFFF" opacity="0.2" x="0.905660377" y="0.905660377" width="2.71698113" height="80.6037736"></rect>
                    <rect id="Rectangle" fill="#1560BD" opacity="0.2" x="15.3962264" y="0.905660377" width="2.71698113" height="80.6037736"></rect>
                    <circle id="Oval" stroke="#FFFFFF" stroke-width="2" opacity="0.5" cx="9.50943396" cy="14.9433962" r="4.98113208"></circle>
                    <rect id="Rectangle" fill="#FFFFFF" opacity="0.5" x="8.1509434" y="24.4528302" width="1.81132075" height="18.1132075" rx="0.905660377"></rect>
                    <rect id="Rectangle" fill="#FFFFFF" opacity="0.5" x="10.8679245" y="24.4528302" width="2.71698113" height="21.7358491" rx="1.35849057"></rect>
                    <rect id="Rectangle" fill="#FFFFFF" opacity="0.5" x="5.43396226" y="24.4528302" width="1.81132075" height="27.1698113" rx="0.905660377"></rect>
                    <circle id="Oval" stroke="#FFFFFF" stroke-width="2" cx="9.50943396" cy="14.9433962" r="2.26415094"></circle>
                </g>
                <rect id="Rectangle" stroke="#1560BD" stroke-width="2" fill="#4A90E2" x="32.6037736" y="4.52830189" width="2.71698113" height="77.8867925" rx="1"></rect>
                <rect id="Rectangle" stroke="#1560BD" stroke-width="2" fill="#4A90E2" x="50.7169811" y="4.52830189" width="2.71698113" height="77.8867925" rx="1"></rect>
                <path d="M39.2727273,8.1509434 L39.2727273,79.6981132 L37.1320755,79.6981132 L37.1320755,8.1509434 L39.2727273,8.1509434 Z M42.483705,8.1509434 L42.483705,79.6981132 L40.3430532,79.6981132 L40.3430532,8.1509434 L42.483705,8.1509434 Z M45.6946827,8.1509434 L45.6946827,79.6981132 L43.5540309,79.6981132 L43.5540309,8.1509434 L45.6946827,8.1509434 Z M48.9056604,8.1509434 L48.9056604,79.6981132 L46.7650086,79.6981132 L46.7650086,8.1509434 L48.9056604,8.1509434 Z" id="Shape" fill="#1560BD" opacity="0.2"></path>
                <g id="Group-14" transform="translate(65.834543, 43.471698) rotate(-5.000000) translate(-65.834543, -43.471698) translate(57.056604, 5.433962)">
                    <g id="Group-13">
                        <rect id="Rectangle" stroke="#1560BD" stroke-width="2" fill="#D0E6FF" x="0" y="0" width="17.5558781" height="76.0754717" rx="1"></rect>
                        <rect id="Rectangle" stroke="#1560BD" stroke-width="2" opacity="0.200000003" x="0" y="5.85195936" width="17.5558781" height="52.6676343"></rect>
                        <rect id="Rectangle" fill="#FFFFFF" opacity="0.2" x="0.835994194" y="0.835994194" width="2.50798258" height="74.4034833"></rect>
                        <rect id="Rectangle" fill="#1560BD" opacity="0.2" x="15.0478955" y="0.835994194" width="1.67198839" height="74.4034833"></rect>
                        <rect id="Rectangle" fill="#FFFFFF" opacity="0.5" x="10.8679245" y="30.095791" width="1.67198839" height="11.7039187" rx="0.835994194"></rect>
                        <rect id="Rectangle" fill="#FFFFFF" opacity="0.5" x="10.8679245" y="43.4716981" width="1.67198839" height="3.34397678" rx="0.835994194"></rect>
                        <rect id="Rectangle" fill="#FFFFFF" opacity="0.5" x="5.01596517" y="30.095791" width="1.67198839" height="10.8679245" rx="0.835994194"></rect>
                    </g>
                    <rect id="Rectangle" fill="#1560BD" opacity="0.2" x="0.835994194" y="0.835994194" width="1.67198839" height="74.4034833"></rect>
                    <rect id="Rectangle" fill="#FFFFFF" opacity="0.5" x="7.52394775" y="30.095791" width="1.67198839" height="21.7358491" rx="0.835994194"></rect>
                    <rect id="Rectangle" stroke="#FFFFFF" stroke-width="2" x="6.01596517" y="9.35994194" width="5.52394775" height="14.7198839" rx="1"></rect>
                    <rect id="Rectangle" stroke="#FFFFFF" stroke-width="2" x="6.01596517" y="62.8635704" width="5.52394775" height="4.68795356" rx="1"></rect>
                </g>
                <g id="Group-12" transform="translate(0.000000, 80.603774)">
                    <path d="M4.12264151,5.43396226 L11.0597349,5.43396226 C11.3358773,5.43396226 11.5597349,5.65781989 11.5597349,5.93396226 C11.5597349,5.99223852 11.5495471,6.05006615 11.5296316,6.1048338 L8.27062648,15.0670979 C8.1987739,15.2646925 8.01098298,15.3962264 7.80072976,15.3962264 L4.12264151,15.3962264 C3.84649913,15.3962264 3.62264151,15.1723688 3.62264151,14.8962264 L3.62264151,5.93396226 C3.62264151,5.65781989 3.84649913,5.43396226 4.12264151,5.43396226 Z" id="Rectangle" stroke="#1560BD" stroke-width="2" fill="#4A90E2"></path>
                    <path d="M93.7830189,5.43396226 L100.720112,5.43396226 C100.996255,5.43396226 101.220112,5.65781989 101.220112,5.93396226 C101.220112,5.99223852 101.209924,6.05006615 101.190009,6.1048338 L97.9310038,15.0670979 C97.8591513,15.2646925 97.6713603,15.3962264 97.4611071,15.3962264 L93.7830189,15.3962264 C93.5068765,15.3962264 93.2830189,15.1723688 93.2830189,14.8962264 L93.2830189,5.93396226 C93.2830189,5.65781989 93.5068765,5.43396226 93.7830189,5.43396226 Z" id="Rectangle" stroke="#1560BD" stroke-width="2" fill="#4A90E2" transform="translate(97.358491, 10.415094) scale(-1, 1) translate(-97.358491, -10.415094) "></path>
                    <rect id="Rectangle" stroke="#1560BD" stroke-width="2" fill="#4A90E2" x="0" y="0" width="105.056604" height="9.96226415" rx="0.5"></rect>
                    <rect id="Rectangle" fill="#7CB3F4" x="0.905660377" y="0.905660377" width="103.245283" height="1.81132075"></rect>
                </g>
            </g>
            <g id="Group-18" transform="translate(107.250051, 93.000000) rotate(10.000000) translate(-107.250051, -93.000000) translate(101.250051, 68.000000)">
                <rect id="Rectangle" stroke="#1560BD" stroke-width="2" fill="#99BAE2" x="0" y="0" width="12" height="50" rx="1"></rect>
                <rect id="Rectangle" fill-opacity="0.12" fill="#1560BD" x="9" y="1" width="2" height="48"></rect>
                <rect id="Rectangle" fill-opacity="0.22" fill="#FFFFFF" x="1" y="1" width="2" height="48"></rect>
                <path d="M2,10 C2.55228475,10 3,10.4477153 3,11 C3,11.5522847 2.55228475,12 2,12 L0,12 L0,10 L2,10 Z M4,5 C4.55228475,5 5,5.44771525 5,6 C5,6.55228475 4.55228475,7 4,7 L0,7 L0,5 L4,5 Z" id="Combined-Shape" fill="#1560BD"></path>
                <path d="M2,20 C2.55228475,20 3,20.4477153 3,21 C3,21.5522847 2.55228475,22 2,22 L0,22 L0,20 L2,20 Z M4,15 C4.55228475,15 5,15.4477153 5,16 C5,16.5522847 4.55228475,17 4,17 L0,17 L0,15 L4,15 Z" id="Combined-Shape" fill="#1560BD"></path>
                <path d="M2,30 C2.55228475,30 3,30.4477153 3,31 C3,31.5522847 2.55228475,32 2,32 L0,32 L0,30 L2,30 Z M4,25 C4.55228475,25 5,25.4477153 5,26 C5,26.5522847 4.55228475,27 4,27 L0,27 L0,25 L4,25 Z" id="Combined-Shape" fill="#1560BD"></path>
                <path d="M2,40 C2.55228475,40 3,40.4477153 3,41 C3,41.5522847 2.55228475,42 2,42 L0,42 L0,40 L2,40 Z M4,35 C4.55228475,35 5,35.4477153 5,36 C5,36.5522847 4.55228475,37 4,37 L0,37 L0,35 L4,35 Z" id="Combined-Shape" fill="#1560BD"></path>
            </g>
            <g id="Group-19" transform="translate(76.000000, 105.000000) rotate(-30.000000) translate(-76.000000, -105.000000) translate(58.000000, 69.000000)">
                <rect id="Rectangle" stroke="#1560BD" stroke-width="2" fill="#ABCAEF" stroke-linejoin="round" x="11.0769231" y="12.4615385" width="11.0769231" height="59.5384615" rx="1"></rect>
                <path d="M36,8.30769231 L36,12.8461538 C36,13.3984386 35.5522847,13.8461538 35,13.8461538 L1,13.8461538 C0.44771525,13.8461538 1.04869017e-15,13.3984386 0,12.8461538 L0,1 C-6.76353751e-17,0.44771525 0.44771525,1.01453063e-16 1,0 L22.4302278,0.000513951875 C24.9513059,4.93178583 30.0814104,8.30769231 36,8.30769231 Z" id="Combined-Shape" stroke="#1560BD" stroke-width="2" fill="#E5E5EA"></path>
                <path d="M17.6356347,0.92321008 L21.7894808,0.92321008 C24.440195,5.50846378 29.4078881,8.68806343 34.7172601,9.24401933 L35.0745672,9.2766552 L35.1296272,13.1095336 L30.4363768,13.0791957 L30.3813168,9.24631729 L30.0240097,9.21368142 C24.8381115,8.67065472 20.5047725,5.65003018 17.8238573,1.24064515 L17.6356347,0.92321008 Z" id="Path" fill="#1560BD" fill-rule="nonzero" opacity="0.200000003"></path>
                <rect id="Rectangle" fill="#FFFFFF" opacity="0.300000012" x="1.38461538" y="1.38461538" width="2.76923077" height="11.0769231"></rect>
                <rect id="Rectangle" fill="#FFFFFF" opacity="0.300000012" x="12.4615385" y="15.2307692" width="2.76923077" height="55.3846154"></rect>
            </g>
            <path d="M93.4663645,65 L95,77 L92.999,77 L93,114 L90,114 L89.999,77 L88,77 L89.5336355,65 L93.4663645,65 Z" id="Combined-Shape" stroke="#1560BD" stroke-width="2" fill="#E5E5EA" stroke-linejoin="round"></path>
            <g id="Group-16" transform="translate(43.000000, 107.000000)">
                <path d="M5,2 L98,2 L98,35 C98,38.3137085 95.3137085,41 92,41 L11,41 C7.6862915,41 5,38.3137085 5,35 L5,2 L5,2 Z" id="Rectangle" stroke="#1560BD" stroke-width="2" fill="#ABCAEF"></path>
                <path d="M96.899,36 L96.8876389,36.059971 C96.4018489,38.3127662 94.3980785,40.001 92,40.001 L11,40.001 L10.7831104,39.9963805 C8.48187477,39.8981644 6.58343017,38.2444997 6.11236106,36.059971 L6.1,36 L6.19931414,36.0955659 C7.39196399,37.2202542 8.98052872,37.9314007 10.7382305,37.996183 L10.9816049,38.0008308 L92,38.001 C93.8440852,38.001 95.5253486,37.2866128 96.7777546,36.1169676 L96.899,36 Z" id="Combined-Shape" fill="#1560BD" fill-rule="nonzero" opacity="0.200000003"></path>
                <rect id="Rectangle" fill="#1560BD" opacity="0.2" x="6" y="11" width="91" height="3"></rect>
                <path d="M0,0 L103,0 L103,6 C103,8.209139 101.209139,10 99,10 L4,10 C1.790861,10 2.705415e-16,8.209139 0,6 L0,0 L0,0 Z" id="Rectangle" stroke="#1560BD" stroke-width="2" fill="#ABCAEF"></path>
                <rect id="Rectangle" fill="#FFFFFF" opacity="0.300000012" x="1" y="1" width="101" height="2"></rect>
                <path d="M20,3 L31,3 L31,16 C31,18.209139 29.209139,20 27,20 L24,20 C21.790861,20 20,18.209139 20,16 L20,3 L20,3 Z" id="Rectangle" fill="#1560BD" opacity="0.200000003"></path>
                <path d="M72,3 L83,3 L83,16 C83,18.209139 81.209139,20 79,20 L76,20 C73.790861,20 72,18.209139 72,16 L72,3 L72,3 Z" id="Rectangle" fill="#1560BD" opacity="0.200000003"></path>
                <path d="M20,0 L31,0 L31,13 C31,15.209139 29.209139,17 27,17 L24,17 C21.790861,17 20,15.209139 20,13 L20,0 L20,0 Z" id="Rectangle" stroke="#1560BD" stroke-width="2" fill="#FFFFFF"></path>
                <path d="M72,0 L83,0 L83,13 C83,15.209139 81.209139,17 79,17 L76,17 C73.790861,17 72,15.209139 72,13 L72,0 L72,0 Z" id="Rectangle" stroke="#1560BD" stroke-width="2" fill="#FFFFFF"></path>
            </g>
            <line x1="46.0934497" y1="147.5" x2="147.5" y2="147.5" id="Path-4" stroke="#1560BD" stroke-width="2" opacity="0.200000003" stroke-linecap="round"></line>
            <line x1="42" y1="147.5" x2="43" y2="147.5" id="Path-4" stroke="#1560BD" stroke-width="2" opacity="0.200000003" stroke-linecap="round"></line>
            <line x1="151" y1="147.5" x2="154" y2="147.5" id="Path-4" stroke="#1560BD" stroke-width="2" opacity="0.200000003" stroke-linecap="round"></line>
        </g>
    </g>
</svg>