<svg width="169" height="160" viewBox="0 0 169 160" fill="none" xmlns="http://www.w3.org/2000/svg">
<g id="Group 21">
<g id="Rings" opacity="0.4">
<path id="Oval" opacity="0.4" fill-rule="evenodd" clip-rule="evenodd" d="M89.1065 124.078C113.391 124.078 133.078 104.391 133.078 80.1065C133.078 55.8216 113.391 36.1348 89.1065 36.1348C64.8216 36.1348 45.1348 55.8216 45.1348 80.1065C45.1348 104.391 64.8216 124.078 89.1065 124.078Z" fill="#4A90E2" fill-opacity="0.8" stroke="#1560BD" stroke-width="2"/>
<path id="Oval_2" opacity="0.2" fill-rule="evenodd" clip-rule="evenodd" d="M89.1065 142.604C123.623 142.604 151.604 114.623 151.604 80.1065C151.604 45.5902 123.623 17.6092 89.1065 17.6092C54.5902 17.6092 26.6092 45.5902 26.6092 80.1065C26.6092 114.623 54.5902 142.604 89.1065 142.604Z" fill="#4A90E2" fill-opacity="0.8" stroke="#1560BD" stroke-width="2"/>
<path id="Oval_3" opacity="0.1" fill-rule="evenodd" clip-rule="evenodd" d="M89 151.76C128.632 151.76 160.76 119.632 160.76 80C160.76 40.368 128.632 8.2399 89 8.2399C49.368 8.2399 17.2399 40.368 17.2399 80C17.2399 119.632 49.368 151.76 89 151.76Z" fill="#4A90E2" fill-opacity="0.8" stroke="#1560BD" stroke-width="2"/>
<path id="Oval_4" opacity="0.04" fill-rule="evenodd" clip-rule="evenodd" d="M89 159C132.63 159 168 123.63 168 80C168 36.3695 132.63 1 89 1C45.3695 1 10 36.3695 10 80C10 123.63 45.3695 159 89 159Z" fill="#4A90E2" fill-opacity="0.8" stroke="#1560BD" stroke-width="2"/>
<path id="Oval_5" opacity="0.4" fill-rule="evenodd" clip-rule="evenodd" d="M89.1065 99.8032C99.9847 99.8032 108.803 90.9847 108.803 80.1065C108.803 69.2282 99.9847 60.4097 89.1065 60.4097C78.2282 60.4097 69.4097 69.2282 69.4097 80.1065C69.4097 90.9847 78.2282 99.8032 89.1065 99.8032Z" fill="#4A90E2" fill-opacity="0.8" stroke="#1560BD" stroke-width="2"/>
</g>
<g id="Group 20" opacity="0.5">
<rect id="Rectangle" x="100" y="34" width="45" height="43" fill="#4A90E2" fill-opacity="0.12" stroke="#1560BD" stroke-width="2"/>
<rect id="Rectangle_2" x="93" y="27" width="59" height="57" fill="white" fill-opacity="0.12" stroke="#1560BD" stroke-width="2"/>
<path id="Rectangle_3" opacity="0.1" fill-rule="evenodd" clip-rule="evenodd" d="M102 35H144L102 69V35Z" fill="#4A90E2"/>
</g>
<g id="Group 17">
<g id="Combined Shape">
<path fill-rule="evenodd" clip-rule="evenodd" d="M134.036 76.5503C129.176 75.6466 124.062 77.8264 121.449 82.3513C119.028 86.5455 119.426 91.5938 122.055 95.3013L109.511 117.028C108.131 119.42 108.95 122.478 111.341 123.858C113.733 125.239 116.791 124.42 118.172 122.028L130.716 100.301C135.241 100.725 139.812 98.5455 142.234 94.3513C144.846 89.8264 144.177 84.3074 140.964 80.5503L135.806 89.4853L128.877 85.4853L134.036 76.5503ZM115.573 120.528C115.021 121.485 113.798 121.813 112.841 121.26C111.885 120.708 111.557 119.485 112.109 118.528C112.662 117.572 113.885 117.244 114.841 117.796C115.798 118.348 116.126 119.572 115.573 120.528Z" fill="#E5E5EA"/>
<path d="M134.036 76.5503L134.902 77.0503C135.064 76.7692 135.08 76.4268 134.944 76.132C134.808 75.8371 134.538 75.6265 134.219 75.5672L134.036 76.5503ZM122.055 95.3013L122.921 95.8013C123.117 95.4628 123.097 95.0416 122.871 94.7228L122.055 95.3013ZM130.716 100.301L130.809 99.3057C130.42 99.2692 130.045 99.4628 129.85 99.8013L130.716 100.301ZM140.964 80.5503L141.724 79.9004C141.513 79.6537 141.196 79.5248 140.872 79.5546C140.549 79.5844 140.26 79.7692 140.098 80.0503L140.964 80.5503ZM135.806 89.4853L135.306 90.3513C135.784 90.6275 136.395 90.4636 136.672 89.9853L135.806 89.4853ZM128.877 85.4853L128.011 84.9853C127.879 85.215 127.843 85.4879 127.911 85.7441C127.98 86.0003 128.148 86.2187 128.377 86.3513L128.877 85.4853ZM122.315 82.8513C124.709 78.7049 129.397 76.7048 133.853 77.5335L134.219 75.5672C128.955 74.5884 123.414 76.948 120.583 81.8513L122.315 82.8513ZM122.871 94.7228C120.459 91.3222 120.096 86.6946 122.315 82.8513L120.583 81.8513C117.959 86.3963 118.392 91.8653 121.24 95.8798L122.871 94.7228ZM110.377 117.528L122.921 95.8013L121.189 94.8013L108.645 116.528L110.377 117.528ZM111.841 122.992C109.928 121.888 109.273 119.441 110.377 117.528L108.645 116.528C106.988 119.398 107.972 123.068 110.841 124.724L111.841 122.992ZM117.306 121.528C116.201 123.441 113.755 124.097 111.841 122.992L110.841 124.724C113.711 126.381 117.381 125.398 119.038 122.528L117.306 121.528ZM129.85 99.8013L117.306 121.528L119.038 122.528L131.582 100.801L129.85 99.8013ZM141.368 93.8513C139.149 97.6946 134.96 99.6941 130.809 99.3057L130.622 101.297C135.523 101.756 140.476 99.3963 143.1 94.8513L141.368 93.8513ZM140.204 81.2002C143.15 84.6453 143.762 89.7049 141.368 93.8513L143.1 94.8513C145.931 89.948 145.204 83.9695 141.724 79.9004L140.204 81.2002ZM136.672 89.9853L141.83 81.0503L140.098 80.0503L134.94 88.9853L136.672 89.9853ZM128.377 86.3513L135.306 90.3513L136.306 88.6193L129.377 84.6193L128.377 86.3513ZM133.17 76.0503L128.011 84.9853L129.743 85.9853L134.902 77.0503L133.17 76.0503ZM112.341 122.126C113.776 122.955 115.611 122.463 116.44 121.028L114.707 120.028C114.431 120.507 113.82 120.67 113.341 120.394L112.341 122.126ZM111.243 118.028C110.415 119.463 110.907 121.298 112.341 122.126L113.341 120.394C112.863 120.118 112.699 119.507 112.975 119.028L111.243 118.028ZM115.341 116.93C113.907 116.102 112.072 116.593 111.243 118.028L112.975 119.028C113.252 118.55 113.863 118.386 114.341 118.662L115.341 116.93ZM116.44 121.028C117.268 119.593 116.776 117.759 115.341 116.93L114.341 118.662C114.82 118.938 114.984 119.55 114.707 120.028L116.44 121.028Z" fill="#1560BD"/>
</g>
<path id="Combined Shape_2" opacity="0.2" fill-rule="evenodd" clip-rule="evenodd" d="M121.152 90.9578L121.199 91.1449C121.343 91.693 121.529 92.2315 121.758 92.7553L121.938 93.1452L122.033 93.3373L122.218 93.0177L122.196 92.9824C121.925 92.5535 121.681 92.1114 121.464 91.6587L121.256 91.2026L121.152 90.9578ZM114.536 116.442C114.849 116.177 115.307 116.122 115.683 116.339L115.78 116.403L115.876 116.484C116.146 116.743 116.249 117.135 116.141 117.493L116.112 117.569L116.091 117.542L115.959 117.402C115.777 117.221 115.57 117.062 115.341 116.93L115.153 116.83L114.96 116.744C114.83 116.692 114.697 116.649 114.562 116.616L114.401 116.582L114.454 116.519L114.536 116.442ZM115.269 123.205L115.427 123.2L115.318 123.246L115.111 123.322C114.062 123.672 112.874 123.589 111.841 122.992L111.671 122.888L111.476 122.754C110.588 122.105 110.035 121.14 109.884 120.108L109.868 119.992L109.935 120.116L110.081 120.364C110.585 121.181 111.293 121.888 112.183 122.401C113.155 122.962 114.22 123.221 115.269 123.205ZM134.92 98.9127L134.668 98.9836L134.266 99.0826C133.726 99.2046 133.176 99.2864 132.619 99.326L132.428 99.3374L132.612 99.0187L133.086 99.0299C133.7 99.0341 134.31 98.9948 134.911 98.9138L134.92 98.9127Z" fill="#1560BD"/>
<rect id="Rectangle_4" x="126.511" y="87.5834" width="2" height="4" rx="1" transform="rotate(30 126.511 87.5834)" fill="#1560BD"/>
<rect id="Rectangle_5" x="133.44" y="91.5834" width="2" height="4" rx="1" transform="rotate(30 133.44 91.5834)" fill="#1560BD"/>
<rect id="Rectangle Copy" x="129.975" y="89.5834" width="2" height="4" rx="1" transform="rotate(30 129.975 89.5834)" fill="#1560BD"/>
</g>
<g id="Group 15" opacity="0.5">
<rect id="Rectangle_6" x="35.4151" y="51.2453" width="19.0189" height="75.1698" stroke="#1560BD" stroke-width="2"/>
<g id="Group 13">
<rect id="Rectangle_7" x="13.6792" y="44" width="19.0189" height="82.4151" rx="1" fill="#A6CFFF" stroke="#1560BD" stroke-width="2"/>
<rect id="Rectangle_8" opacity="0.2" x="13.6792" y="50.3396" width="19.0189" height="57.0566" stroke="#1560BD" stroke-width="2"/>
<rect id="Rectangle_9" opacity="0.2" width="19.0189" height="8.15094" transform="matrix(1 0 0 -1 13.6792 120.075)" stroke="#1560BD" stroke-width="2"/>
<rect id="Rectangle_10" opacity="0.2" x="14.5849" y="44.9057" width="2.71698" height="80.6038" fill="white"/>
<rect id="Rectangle_11" opacity="0.2" x="29.0755" y="44.9057" width="2.71698" height="80.6038" fill="#1560BD"/>
<path id="Oval_6" opacity="0.5" fill-rule="evenodd" clip-rule="evenodd" d="M23.1887 63.9245C25.9397 63.9245 28.1698 61.6944 28.1698 58.9434C28.1698 56.1924 25.9397 53.9622 23.1887 53.9622C20.4377 53.9622 18.2075 56.1924 18.2075 58.9434C18.2075 61.6944 20.4377 63.9245 23.1887 63.9245Z" stroke="white" stroke-width="2"/>
<rect id="Rectangle_12" opacity="0.5" x="21.8302" y="68.4528" width="1.81132" height="18.1132" rx="0.90566" fill="white"/>
<rect id="Rectangle_13" opacity="0.5" x="24.5472" y="68.4528" width="2.71698" height="21.7358" rx="1.35849" fill="white"/>
<rect id="Rectangle_14" opacity="0.5" x="19.1132" y="68.4528" width="1.81132" height="27.1698" rx="0.90566" fill="white"/>
<path id="Oval_7" fill-rule="evenodd" clip-rule="evenodd" d="M23.1887 61.2076C24.4391 61.2076 25.4528 60.1939 25.4528 58.9434C25.4528 57.693 24.4391 56.6793 23.1887 56.6793C21.9382 56.6793 20.9245 57.693 20.9245 58.9434C20.9245 60.1939 21.9382 61.2076 23.1887 61.2076Z" stroke="white" stroke-width="2"/>
</g>
<rect id="Rectangle_15" x="33.6038" y="48.5283" width="2.71698" height="77.8868" rx="1" fill="#4A90E2" stroke="#1560BD" stroke-width="2"/>
<rect id="Rectangle_16" x="51.717" y="48.5283" width="2.71698" height="77.8868" rx="1" fill="#4A90E2" stroke="#1560BD" stroke-width="2"/>
<path id="Shape" opacity="0.2" fill-rule="evenodd" clip-rule="evenodd" d="M40.2727 52.1509V123.698H38.1321V52.1509H40.2727ZM43.4837 52.1509V123.698H41.3431V52.1509H43.4837ZM46.6947 52.1509V123.698H44.554V52.1509H46.6947ZM49.9057 52.1509V123.698H47.765V52.1509H49.9057Z" fill="#1560BD"/>
<g id="Group 14">
<g id="Group 13_2">
<rect id="Rectangle_17" x="54.7748" y="50.3438" width="17.5559" height="76.0755" rx="1" transform="rotate(-5 54.7748 50.3438)" fill="#D0E6FF" stroke="#1560BD" stroke-width="2"/>
<rect id="Rectangle_18" opacity="0.2" x="55.2848" y="56.1734" width="17.5559" height="52.6676" transform="rotate(-5 55.2848 56.1734)" stroke="#1560BD" stroke-width="2"/>
<rect id="Rectangle_19" opacity="0.2" x="55.6805" y="51.1037" width="2.50798" height="74.4035" transform="rotate(-5 55.6805 51.1037)" fill="white"/>
<rect id="Rectangle_20" opacity="0.2" x="69.8383" y="49.8651" width="1.67199" height="74.4035" transform="rotate(-5 69.8383 49.8651)" fill="#1560BD"/>
<rect id="Rectangle_21" opacity="0.5" x="68.2244" y="79.3778" width="1.67199" height="11.7039" rx="0.835994" transform="rotate(-5 68.2244 79.3778)" fill="white"/>
<rect id="Rectangle_22" opacity="0.5" x="69.3902" y="92.7028" width="1.67199" height="3.34398" rx="0.835994" transform="rotate(-5 69.3902 92.7028)" fill="white"/>
<rect id="Rectangle_23" opacity="0.5" x="62.3947" y="79.8878" width="1.67199" height="10.8679" rx="0.835994" transform="rotate(-5 62.3947 79.8878)" fill="white"/>
</g>
<rect id="Rectangle_24" opacity="0.2" x="55.6805" y="51.1037" width="1.67199" height="74.4035" transform="rotate(-5 55.6805 51.1037)" fill="#1560BD"/>
<rect id="Rectangle_25" opacity="0.5" x="64.8931" y="79.6693" width="1.67199" height="21.7358" rx="0.835994" transform="rotate(-5 64.8931 79.6693)" fill="white"/>
<g id="Rectangle_26">
<mask id="path-38-inside-1" fill="white">
<rect x="60.5003" y="58.2347" width="7.52395" height="16.7199" rx="1" transform="rotate(-5 60.5003 58.2347)"/>
</mask>
<rect x="60.5003" y="58.2347" width="7.52395" height="16.7199" rx="1" transform="rotate(-5 60.5003 58.2347)" stroke="white" stroke-width="4" mask="url(#path-38-inside-1)"/>
</g>
<g id="Rectangle_27">
<mask id="path-39-inside-2" fill="white">
<rect x="65.1634" y="111.535" width="7.52395" height="6.68795" rx="1" transform="rotate(-5 65.1634 111.535)"/>
</mask>
<rect x="65.1634" y="111.535" width="7.52395" height="6.68795" rx="1" transform="rotate(-5 65.1634 111.535)" stroke="white" stroke-width="4" mask="url(#path-39-inside-2)"/>
</g>
</g>
<g id="Group 12">
<path id="Rectangle_28" fill-rule="evenodd" clip-rule="evenodd" d="M4.62264 130.538C4.62264 130.262 4.8465 130.038 5.12264 130.038H12.0597C12.4067 130.038 12.6482 130.382 12.5296 130.709L9.27063 139.671C9.19877 139.868 9.01098 140 8.80073 140H5.12264C4.8465 140 4.62264 139.776 4.62264 139.5V130.538Z" fill="#4A90E2" stroke="#1560BD" stroke-width="2"/>
<path id="Rectangle_29" fill-rule="evenodd" clip-rule="evenodd" d="M102.434 130.538C102.434 130.262 102.21 130.038 101.934 130.038H94.9969C94.6499 130.038 94.4084 130.382 94.527 130.709L97.786 139.671C97.8578 139.868 98.0456 140 98.2559 140H101.934C102.21 140 102.434 139.776 102.434 139.5V130.538Z" fill="#4A90E2" stroke="#1560BD" stroke-width="2"/>
<rect id="Rectangle_30" x="1" y="124.604" width="105.057" height="9.96226" rx="0.5" fill="#4A90E2" stroke="#1560BD" stroke-width="2"/>
<rect id="Rectangle_31" x="1.90566" y="125.509" width="103.245" height="1.81132" fill="#7CB3F4"/>
</g>
</g>
<g id="Group 18">
<rect id="Rectangle_32" x="106.682" y="68.3379" width="12" height="50" rx="1" transform="rotate(10 106.682 68.3379)" fill="#99BAE2" stroke="#1560BD" stroke-width="2"/>
<rect id="Rectangle_33" x="115.372" y="70.8856" width="2" height="48" transform="rotate(10 115.372 70.8856)" fill="#1560BD" fill-opacity="0.12"/>
<rect id="Rectangle_34" x="107.494" y="69.4964" width="2" height="48" transform="rotate(10 107.494 69.4964)" fill="white" fill-opacity="0.22"/>
<path id="Combined Shape_3" fill-rule="evenodd" clip-rule="evenodd" d="M109.753 73.9566L105.814 73.262L105.467 75.2316L109.406 75.9262C109.95 76.0221 110.469 75.6589 110.565 75.115C110.66 74.5711 110.297 74.0525 109.753 73.9566ZM106.916 78.5333L104.946 78.186L104.599 80.1556L106.568 80.5029C107.112 80.5988 107.631 80.2356 107.727 79.6918C107.823 79.1479 107.459 78.6292 106.916 78.5333Z" fill="#1560BD"/>
<path id="Combined Shape_4" fill-rule="evenodd" clip-rule="evenodd" d="M108.017 83.8046L104.078 83.11L103.73 85.0797L107.67 85.7743C108.214 85.8702 108.732 85.507 108.828 84.9631C108.924 84.4192 108.561 83.9005 108.017 83.8046ZM105.179 88.3814L103.209 88.0341L102.862 90.0037L104.832 90.351C105.376 90.4469 105.894 90.0837 105.99 89.5398C106.086 88.9959 105.723 88.4773 105.179 88.3814Z" fill="#1560BD"/>
<path id="Combined Shape_5" fill-rule="evenodd" clip-rule="evenodd" d="M106.28 93.6527L102.341 92.9581L101.994 94.9277L105.933 95.6223C106.477 95.7182 106.996 95.355 107.092 94.8111C107.187 94.2673 106.824 93.7486 106.28 93.6527ZM103.443 98.2294L101.473 97.8821L101.126 99.8518L103.095 100.199C103.639 100.295 104.158 99.9318 104.254 99.3879C104.35 98.844 103.986 98.3253 103.443 98.2294Z" fill="#1560BD"/>
<path id="Combined Shape_6" fill-rule="evenodd" clip-rule="evenodd" d="M104.544 103.501L100.605 102.806L100.257 104.776L104.197 105.47C104.741 105.566 105.259 105.203 105.355 104.659C105.451 104.115 105.088 103.597 104.544 103.501ZM101.706 108.078L99.7365 107.73L99.3892 109.7L101.359 110.047C101.903 110.143 102.421 109.78 102.517 109.236C102.613 108.692 102.25 108.173 101.706 108.078Z" fill="#1560BD"/>
</g>
<g id="Group 19">
<rect id="Rectangle_35" x="59.2352" y="89.0766" width="11.0769" height="59.5385" rx="1" transform="rotate(-30 59.2352 89.0766)" fill="#ABCAEF" stroke="#1560BD" stroke-width="2" stroke-linejoin="round"/>
<g id="Combined Shape_7">
<path fill-rule="evenodd" clip-rule="evenodd" d="M78.7423 73.0178C73.6165 75.9772 67.4855 75.6185 62.8365 72.6081L44.2776 83.3231C43.7993 83.5992 43.6354 84.2108 43.9115 84.6891L49.8346 94.9482C50.1108 95.4265 50.7224 95.5904 51.2006 95.3142L80.6455 78.3142C81.1238 78.0381 81.2877 77.4265 81.0115 76.9482L78.7423 73.0178Z" fill="#E5E5EA"/>
<path d="M62.8365 72.6081L63.38 71.7687L62.8664 71.4361L62.3365 71.7421L62.8365 72.6081ZM78.7423 73.0178L79.6083 72.5178L79.1083 71.6517L78.2423 72.1517L78.7423 73.0178ZM43.9115 84.6891L44.7776 84.1891L43.9115 84.6891ZM49.8346 94.9482L48.9686 95.4482L49.8346 94.9482ZM62.2929 73.4475C67.2448 76.654 73.7787 77.0382 79.2423 73.8838L78.2423 72.1517C73.4543 74.9161 67.7261 74.5829 63.38 71.7687L62.2929 73.4475ZM44.7776 84.1891L63.3365 73.4741L62.3365 71.7421L43.7776 82.4571L44.7776 84.1891ZM44.7776 84.1891L44.7776 84.1891L43.7776 82.4571C42.821 83.0093 42.4932 84.2325 43.0455 85.1891L44.7776 84.1891ZM50.7006 94.4482L44.7776 84.1891L43.0455 85.1891L48.9686 95.4482L50.7006 94.4482ZM50.7006 94.4482L50.7006 94.4482L48.9686 95.4482C49.5209 96.4048 50.7441 96.7325 51.7006 96.1802L50.7006 94.4482ZM80.1455 77.4482L50.7006 94.4482L51.7006 96.1802L81.1455 79.1802L80.1455 77.4482ZM80.1455 77.4482L80.1455 77.4482L81.1455 79.1802C82.1021 78.628 82.4298 77.4048 81.8776 76.4482L80.1455 77.4482ZM77.8763 73.5178L80.1455 77.4482L81.8776 76.4482L79.6083 72.5178L77.8763 73.5178Z" fill="#1560BD"/>
</g>
<path id="Path" opacity="0.2" d="M59.1461 75.8048L62.7434 73.7279C67.3316 76.3735 73.2236 76.6432 78.0996 74.47L78.4253 74.3196L80.3895 77.6115L76.3098 79.9318L74.3457 76.64L74.0199 76.7904C69.2573 78.9131 63.9942 78.4638 59.4678 75.9856L59.1461 75.8048Z" fill="#1560BD"/>
<rect id="Rectangle_36" opacity="0.3" x="45.303" y="84.3299" width="2.76923" height="11.0769" transform="rotate(-30 45.303 84.3299)" fill="white"/>
<rect id="Rectangle_37" opacity="0.3" x="61.8189" y="90.7826" width="2.76923" height="55.3846" transform="rotate(-30 61.8189 90.7826)" fill="white"/>
</g>
<g id="Combined Shape_8">
<path fill-rule="evenodd" clip-rule="evenodd" d="M94.4664 66H90.5336L89 78H91V115H94V78H96L94.4664 66Z" fill="#E5E5EA"/>
<path d="M90.5336 66V65C90.0304 65 89.6055 65.374 89.5417 65.8732L90.5336 66ZM94.4664 66L95.4583 65.8732C95.3945 65.374 94.9696 65 94.4664 65V66ZM89 78L88.0081 77.8732C87.9716 78.1582 88.0596 78.4451 88.2494 78.6608C88.4393 78.8764 88.7127 79 89 79V78ZM91 78H92C92 77.4477 91.5523 77 91 77V78ZM91 115H90C90 115.552 90.4477 116 91 116V115ZM94 115V116C94.5523 116 95 115.552 95 115H94ZM94 78V77C93.4477 77 93 77.4477 93 78H94ZM96 78V79C96.2873 79 96.5607 78.8764 96.7506 78.6608C96.9404 78.4451 97.0284 78.1582 96.9919 77.8732L96 78ZM90.5336 67H94.4664V65H90.5336V67ZM89.9919 78.1268L91.5256 66.1268L89.5417 65.8732L88.0081 77.8732L89.9919 78.1268ZM91 77H89V79H91V77ZM92 115V78H90V115H92ZM94 114H91V116H94V114ZM93 78V115H95V78H93ZM96 77H94V79H96V77ZM93.4744 66.1268L95.0081 78.1268L96.9919 77.8732L95.4583 65.8732L93.4744 66.1268Z" fill="#1560BD"/>
</g>
<g id="Group 16">
<path id="Rectangle_38" d="M49 110H142V143C142 146.314 139.314 149 136 149H55C51.6863 149 49 146.314 49 143V110Z" fill="#ABCAEF" stroke="#1560BD" stroke-width="2"/>
<path id="Combined Shape_9" opacity="0.2" d="M140.899 144L140.888 144.06C140.402 146.313 138.398 148.001 136 148.001H55L54.7831 147.996C52.4819 147.898 50.5834 146.244 50.1124 144.06L50.1 144L50.1993 144.096C51.392 145.22 52.9805 145.931 54.7382 145.996L54.9816 146.001L136 146.001C137.844 146.001 139.525 145.287 140.778 144.117L140.899 144Z" fill="#1560BD"/>
<rect id="Rectangle_39" opacity="0.2" x="50" y="119" width="91" height="3" fill="#1560BD"/>
<path id="Rectangle_40" d="M44 108H147V114C147 116.209 145.209 118 143 118H48C45.7909 118 44 116.209 44 114V108Z" fill="#ABCAEF" stroke="#1560BD" stroke-width="2"/>
<rect id="Rectangle_41" opacity="0.3" x="45" y="109" width="101" height="2" fill="white"/>
<path id="Rectangle_42" opacity="0.2" d="M64 111H75V124C75 126.209 73.2091 128 71 128H68C65.7909 128 64 126.209 64 124V111Z" fill="#1560BD"/>
<path id="Rectangle_43" opacity="0.2" d="M116 111H127V124C127 126.209 125.209 128 123 128H120C117.791 128 116 126.209 116 124V111Z" fill="#1560BD"/>
<path id="Rectangle_44" d="M64 108H75V121C75 123.209 73.2091 125 71 125H68C65.7909 125 64 123.209 64 121V108Z" fill="white" stroke="#1560BD" stroke-width="2"/>
<path id="Rectangle_45" d="M116 108H127V121C127 123.209 125.209 125 123 125H120C117.791 125 116 123.209 116 121V108Z" fill="white" stroke="#1560BD" stroke-width="2"/>
</g>
<path id="Path 4" opacity="0.2" d="M47.0934 148.5H148.5" stroke="#1560BD" stroke-width="2" stroke-linecap="round"/>
<path id="Path 4_2" opacity="0.2" d="M43 148.5H44" stroke="#1560BD" stroke-width="2" stroke-linecap="round"/>
<path id="Path 4_3" opacity="0.2" d="M152 148.5H155" stroke="#1560BD" stroke-width="2" stroke-linecap="round"/>
</g>
</svg>
