<svg width="181" height="159" viewBox="0 0 181 159" fill="none" xmlns="http://www.w3.org/2000/svg">
<g id="Documentation">
<g id="Group 11" opacity="0.5">
<g id="Combined Shape">
<path fill-rule="evenodd" clip-rule="evenodd" d="M95.8 29H93.2C93.0895 29 92.9896 29.0895 92.9767 29.2L91.9731 37.8C91.9602 37.9105 92.102 38 92.2898 38H96.7102C96.898 38 97.0398 37.9105 97.0269 37.8L96.0233 29.2C96.0104 29.0895 95.9105 29 95.8 29ZM144.972 56.8C144.972 56.9105 144.883 57.0104 144.772 57.0233L140.883 57.4772C139.86 68.7011 130.217 77.5 118.472 77.5C116.203 77.5 114.012 77.1715 111.946 76.5604L109.815 80.381C109.761 80.4781 109.634 80.5226 109.532 80.4803L107.13 79.4853C107.028 79.443 106.97 79.3221 107 79.2151L108.178 75.0673C106.781 74.3632 105.469 73.5202 104.261 72.5571L100.953 75.1741C100.865 75.2431 100.731 75.2357 100.653 75.1576L98.8147 73.3191C98.7366 73.241 98.7292 73.107 98.7982 73.0197L101.358 69.7831C100.354 68.6336 99.4687 67.3817 98.7209 66.0457L94.8582 67.1785C94.7515 67.2098 94.63 67.1527 94.5869 67.051L93.571 64.6577C93.5278 64.556 93.5712 64.429 93.6678 64.374L97.1066 62.4161C96.6876 61.1778 96.378 59.8909 96.1891 58.5662C97.2687 57.9702 98 56.8205 98 55.5C98 54.1795 97.2687 53.0298 96.1891 52.4338C97.7149 41.735 107.11 33.5 118.472 33.5C120.742 33.5 122.933 33.8285 124.998 34.4396L127.129 30.619C127.184 30.5219 127.31 30.4774 127.412 30.5197L129.814 31.5147C129.917 31.557 129.975 31.6779 129.944 31.7849L128.767 35.9327C130.164 36.6368 131.476 37.4798 132.684 38.4429L135.992 35.8259C136.079 35.7569 136.213 35.7643 136.291 35.8424L138.13 37.6809C138.208 37.759 138.215 37.893 138.146 37.9803L135.586 41.2169C136.591 42.3664 137.476 43.6183 138.224 44.9543L142.086 43.8215C142.193 43.7902 142.315 43.8473 142.358 43.949L143.374 46.3423C143.417 46.444 143.373 46.571 143.277 46.626L139.838 48.5839C140.371 50.1589 140.727 51.8127 140.883 53.5228L144.772 53.9767C144.883 53.9896 144.972 54.0895 144.972 54.2V56.8ZM164.605 76.016L165.6 73.6139C165.642 73.5118 165.598 73.3852 165.501 73.331L157.939 69.1128C157.842 69.0586 157.705 69.1553 157.634 69.3288L155.942 73.4127C155.87 73.5862 155.899 73.7515 156.006 73.7818L164.335 76.1458C164.442 76.1761 164.563 76.118 164.605 76.016ZM95.8 82H93.2C93.0895 82 92.9896 81.9105 92.9767 81.8L91.9731 73.2C91.9602 73.0895 92.102 73 92.2898 73H96.7102C96.898 73 97.0398 73.0895 97.0269 73.2L96.0233 81.8C96.0104 81.9105 95.9105 82 95.8 82ZM136.997 102.468L139.39 101.452C139.492 101.409 139.549 101.287 139.518 101.181L137.081 92.8722C137.05 92.7655 136.884 92.7385 136.711 92.8119L132.642 94.539C132.469 94.6124 132.374 94.7503 132.429 94.8469L136.713 102.371C136.768 102.468 136.895 102.511 136.997 102.468ZM155.081 90.2701L153.242 92.1085C153.164 92.1867 153.03 92.194 152.943 92.125L146.152 86.7535C146.065 86.6846 146.102 86.521 146.235 86.3882L149.36 83.2625C149.493 83.1297 149.657 83.0928 149.726 83.18L155.097 89.9707C155.166 90.0579 155.159 90.192 155.081 90.2701Z" fill="#E5E5EA"/>
<path d="M92.9767 29.2L91.9834 29.0841V29.0841L92.9767 29.2ZM91.9731 37.8L92.9664 37.9159V37.9159L91.9731 37.8ZM97.0269 37.8L96.0336 37.9159V37.9159L97.0269 37.8ZM96.0233 29.2L97.0166 29.0841V29.0841L96.0233 29.2ZM144.772 57.0233L144.888 58.0166L144.772 57.0233ZM140.883 57.4772L140.767 56.484L139.96 56.5781L139.887 57.3865L140.883 57.4772ZM111.946 76.5604L112.23 75.6015L111.463 75.3745L111.073 76.0732L111.946 76.5604ZM109.815 80.381L108.942 79.8938L108.942 79.8938L109.815 80.381ZM109.532 80.4803L109.915 79.5564L109.915 79.5564L109.532 80.4803ZM107.13 79.4853L106.747 80.4092L106.747 80.4092L107.13 79.4853ZM107 79.2151L107.962 79.4881L107.962 79.4881L107 79.2151ZM108.178 75.0673L109.14 75.3403L109.365 74.5459L108.628 74.1743L108.178 75.0673ZM104.261 72.5571L104.884 71.7753L104.264 71.2801L103.641 71.7728L104.261 72.5571ZM100.953 75.1741L100.332 74.3898L100.332 74.3898L100.953 75.1741ZM100.653 75.1576L101.36 74.4505L100.653 75.1576ZM98.8147 73.3191L98.1076 74.0262H98.1076L98.8147 73.3191ZM98.7982 73.0197L98.0139 72.3994H98.0139L98.7982 73.0197ZM101.358 69.7831L102.143 70.4035L102.659 69.7513L102.111 69.1251L101.358 69.7831ZM98.7209 66.0457L99.5936 65.5573L99.2043 64.8618L98.4395 65.0861L98.7209 66.0457ZM94.8582 67.1785L95.1396 68.1381L95.1397 68.1381L94.8582 67.1785ZM94.5869 67.051L93.6664 67.4418L93.6664 67.4418L94.5869 67.051ZM93.571 64.6577L92.6505 65.0484L92.6505 65.0485L93.571 64.6577ZM93.6678 64.374L94.1626 65.243L94.1626 65.243L93.6678 64.374ZM97.1066 62.4161L97.6014 63.2851L98.3183 62.8769L98.0538 62.0955L97.1066 62.4161ZM96.1891 58.5662L95.7058 57.6907L95.1017 58.0242L95.1991 58.7074L96.1891 58.5662ZM96.1891 52.4338L95.1991 52.2926L95.1017 52.9758L95.7058 53.3093L96.1891 52.4338ZM124.998 34.4396L124.714 35.3985L125.482 35.6255L125.871 34.9268L124.998 34.4396ZM127.129 30.619L126.256 30.1318L126.256 30.1318L127.129 30.619ZM127.412 30.5197L127.795 29.5958L127.795 29.5958L127.412 30.5197ZM129.814 31.5147L129.432 32.4386L129.432 32.4386L129.814 31.5147ZM129.944 31.7849L130.906 32.0579V32.0579L129.944 31.7849ZM128.767 35.9327L127.805 35.6597L127.58 36.4541L128.317 36.8257L128.767 35.9327ZM132.684 38.4429L132.06 39.2247L132.681 39.7199L133.304 39.2272L132.684 38.4429ZM135.992 35.8259L135.372 35.0416V35.0416L135.992 35.8259ZM136.291 35.8424L135.584 36.5495L135.584 36.5495L136.291 35.8424ZM138.13 37.6809L138.837 36.9738L138.837 36.9738L138.13 37.6809ZM138.146 37.9803L137.362 37.3599L137.362 37.3599L138.146 37.9803ZM135.586 41.2169L134.802 40.5965L134.286 41.2487L134.833 41.8749L135.586 41.2169ZM138.224 44.9543L137.351 45.4427L137.74 46.1382L138.505 45.9139L138.224 44.9543ZM142.086 43.8215L141.805 42.8619L141.805 42.8619L142.086 43.8215ZM142.358 43.949L143.278 43.5582V43.5582L142.358 43.949ZM143.374 46.3423L142.453 46.733V46.733L143.374 46.3423ZM143.277 46.626L143.772 47.495V47.495L143.277 46.626ZM139.838 48.5839L139.343 47.7149L138.626 48.1231L138.891 48.9045L139.838 48.5839ZM140.883 53.5228L139.887 53.6135L139.96 54.4219L140.767 54.516L140.883 53.5228ZM144.772 53.9767L144.888 52.9834L144.772 53.9767ZM165.6 73.6139L166.524 73.9966L166.524 73.9965L165.6 73.6139ZM164.605 76.016L163.681 75.6333L163.681 75.6333L164.605 76.016ZM165.501 73.331L165.014 74.2043L165.014 74.2043L165.501 73.331ZM157.939 69.1128L158.427 68.2395L158.427 68.2395L157.939 69.1128ZM157.634 69.3288L158.557 69.7115L158.557 69.7115L157.634 69.3288ZM155.942 73.4127L155.018 73.03L155.018 73.0301L155.942 73.4127ZM156.006 73.7818L156.279 72.8198L156.279 72.8198L156.006 73.7818ZM164.335 76.1458L164.062 77.1078L164.335 76.1458ZM92.9767 81.8L91.9834 81.9159V81.9159L92.9767 81.8ZM91.9731 73.2L92.9664 73.0841V73.0841L91.9731 73.2ZM97.0269 73.2L96.0336 73.0841V73.0841L97.0269 73.2ZM96.0233 81.8L97.0166 81.9159V81.9159L96.0233 81.8ZM139.39 101.452L138.999 100.532L139.39 101.452ZM136.997 102.468L137.387 103.388L137.387 103.388L136.997 102.468ZM139.518 101.181L138.558 101.462V101.462L139.518 101.181ZM137.081 92.8722L138.041 92.5908V92.5908L137.081 92.8722ZM136.711 92.8119L137.102 93.7324L137.102 93.7324L136.711 92.8119ZM132.642 94.539L132.252 93.6185H132.252L132.642 94.539ZM132.429 94.8469L131.56 95.3417L131.56 95.3417L132.429 94.8469ZM136.713 102.371L137.582 101.876L137.582 101.876L136.713 102.371ZM153.242 92.1085L152.535 91.4014L152.535 91.4015L153.242 92.1085ZM155.081 90.2701L155.788 90.9772L155.081 90.2701ZM152.943 92.125L153.563 91.3408L153.563 91.3408L152.943 92.125ZM146.152 86.7535L146.773 85.9692L146.773 85.9692L146.152 86.7535ZM146.235 86.3882L146.942 87.0953L146.942 87.0953L146.235 86.3882ZM149.36 83.2625L150.068 83.9696L150.068 83.9696L149.36 83.2625ZM149.726 83.18L148.942 83.8003L148.942 83.8004L149.726 83.18ZM155.097 89.9707L154.313 90.5911L154.313 90.5911L155.097 89.9707ZM93.2 30H95.8V28H93.2V30ZM93.9699 29.3159C93.9454 29.5261 93.8423 29.693 93.7189 29.8035C93.5955 29.914 93.416 30 93.2 30V28C92.5767 28 92.0545 28.475 91.9834 29.0841L93.9699 29.3159ZM92.9664 37.9159L93.9699 29.3159L91.9834 29.0841L90.9799 37.6841L92.9664 37.9159ZM92.2898 37C92.3399 37 92.4534 37.0096 92.5902 37.0959C92.7199 37.1779 93.0208 37.4498 92.9664 37.9159L90.9799 37.6841C90.9126 38.2607 91.2779 38.6326 91.5222 38.7869C91.7736 38.9457 92.052 39 92.2898 39V37ZM96.7102 37H92.2898V39H96.7102V37ZM96.0336 37.9159C95.9792 37.4498 96.2801 37.1779 96.4098 37.0959C96.5466 37.0096 96.6601 37 96.7102 37V39C96.9481 39 97.2264 38.9457 97.4778 38.7869C97.7221 38.6326 98.0874 38.2607 98.0201 37.6841L96.0336 37.9159ZM95.0301 29.3159L96.0336 37.9159L98.0201 37.6841L97.0166 29.0841L95.0301 29.3159ZM95.8 30C95.584 30 95.4045 29.914 95.2811 29.8035C95.1577 29.693 95.0546 29.5261 95.0301 29.3159L97.0166 29.0841C96.9455 28.475 96.4233 28 95.8 28V30ZM144.888 58.0166C145.497 57.9455 145.972 57.4233 145.972 56.8H143.972C143.972 56.584 144.058 56.4046 144.169 56.2812C144.279 56.1577 144.446 56.0546 144.656 56.0301L144.888 58.0166ZM140.999 58.4705L144.888 58.0166L144.656 56.0301L140.767 56.484L140.999 58.4705ZM118.472 78.5C130.72 78.5 140.808 69.3205 141.879 57.5679L139.887 57.3865C138.912 68.0817 129.714 76.5 118.472 76.5V78.5ZM111.663 77.5193C113.82 78.1574 116.106 78.5 118.472 78.5V76.5C116.3 76.5 114.204 76.1856 112.23 75.6015L111.663 77.5193ZM110.688 80.8682L112.82 77.0476L111.073 76.0732L108.942 79.8938L110.688 80.8682ZM109.15 81.4042C109.725 81.6427 110.39 81.4038 110.688 80.8681L108.942 79.8938C109.045 79.709 109.204 79.5943 109.36 79.5394C109.517 79.4845 109.715 79.4737 109.915 79.5564L109.15 81.4042ZM106.747 80.4092L109.15 81.4042L109.915 79.5564L107.513 78.5614L106.747 80.4092ZM106.038 78.942C105.871 79.532 106.172 80.1707 106.747 80.4092L107.513 78.5614C107.712 78.6441 107.845 78.7922 107.917 78.9415C107.989 79.0909 108.02 79.2846 107.962 79.4881L106.038 78.942ZM107.216 74.7943L106.038 78.9421L107.962 79.4881L109.14 75.3403L107.216 74.7943ZM103.637 73.3389C104.899 74.3448 106.269 75.225 107.727 75.9603L108.628 74.1743C107.292 73.5013 106.039 72.6957 104.884 71.7753L103.637 73.3389ZM101.573 75.9584L104.881 73.3414L103.641 71.7728L100.332 74.3898L101.573 75.9584ZM99.9461 75.8647C100.387 76.3054 101.092 76.3388 101.573 75.9584L100.332 74.3898C100.498 74.2585 100.689 74.2134 100.855 74.2225C101.02 74.2316 101.208 74.2977 101.36 74.4505L99.9461 75.8647ZM98.1076 74.0262L99.9461 75.8647L101.36 74.4505L99.5218 72.612L98.1076 74.0262ZM98.0139 72.3994C97.6335 72.8803 97.6669 73.5855 98.1076 74.0262L99.5218 72.612C99.6746 72.7647 99.7407 72.9524 99.7498 73.1178C99.7589 73.2833 99.7138 73.4742 99.5825 73.6401L98.0139 72.3994ZM100.574 69.1627L98.0139 72.3994L99.5825 73.6401L102.143 70.4035L100.574 69.1627ZM97.8483 66.5341C98.6303 67.9314 99.5559 69.24 100.605 70.4411L102.111 69.1251C101.152 68.0272 100.307 66.8321 99.5936 65.5573L97.8483 66.5341ZM95.1397 68.1381L99.0023 67.0053L98.4395 65.0861L94.5768 66.2189L95.1397 68.1381ZM93.6664 67.4418C93.9099 68.0155 94.5512 68.3106 95.1396 68.1381L94.5769 66.2189C94.7799 66.1593 94.9738 66.189 95.1238 66.2595C95.2737 66.3299 95.423 66.4614 95.5074 66.6603L93.6664 67.4418ZM92.6505 65.0485L93.6664 67.4418L95.5074 66.6603L94.4915 64.267L92.6505 65.0485ZM93.173 63.505C92.6401 63.8084 92.407 64.4747 92.6505 65.0484L94.4915 64.267C94.5759 64.4658 94.5669 64.6646 94.5134 64.8214C94.4598 64.9782 94.3465 65.1383 94.1626 65.243L93.173 63.505ZM96.6118 61.547L93.173 63.505L94.1626 65.243L97.6014 63.2851L96.6118 61.547ZM95.1991 58.7074C95.3968 60.0937 95.7208 61.4407 96.1594 62.7366L98.0538 62.0955C97.6543 60.915 97.3592 59.6881 97.1791 58.425L95.1991 58.7074ZM96.6724 59.4416C98.0579 58.6768 99 57.1991 99 55.5H97C97 56.4419 96.4796 57.2636 95.7058 57.6907L96.6724 59.4416ZM99 55.5C99 53.8009 98.0579 52.3232 96.6724 51.5584L95.7058 53.3093C96.4796 53.7364 97 54.5581 97 55.5H99ZM118.472 32.5C106.622 32.5 96.7966 41.0912 95.1991 52.2926L97.1791 52.575C98.6332 42.3788 107.598 34.5 118.472 34.5V32.5ZM125.282 33.4807C123.125 32.8426 120.839 32.5 118.472 32.5V34.5C120.645 34.5 122.74 34.8144 124.714 35.3985L125.282 33.4807ZM126.256 30.1318L124.125 33.9524L125.871 34.9268L128.003 31.1062L126.256 30.1318ZM127.795 29.5958C127.219 29.3573 126.555 29.5963 126.256 30.1318L128.003 31.1062C127.9 31.291 127.741 31.4057 127.584 31.4606C127.428 31.5155 127.229 31.5263 127.03 31.4436L127.795 29.5958ZM130.197 30.5908L127.795 29.5958L127.03 31.4436L129.432 32.4386L130.197 30.5908ZM130.906 32.0579C131.074 31.468 130.773 30.8293 130.197 30.5908L129.432 32.4386C129.232 32.3559 129.099 32.2078 129.028 32.0585C128.956 31.9091 128.924 31.7154 128.982 31.5119L130.906 32.0579ZM129.729 36.2057L130.906 32.0579L128.982 31.5119L127.805 35.6597L129.729 36.2057ZM133.307 37.6611C132.046 36.6552 130.676 35.775 129.217 35.0397L128.317 36.8257C129.652 37.4987 130.906 38.3043 132.06 39.2247L133.307 37.6611ZM135.372 35.0416L132.063 37.6586L133.304 39.2272L136.612 36.6102L135.372 35.0416ZM136.999 35.1353C136.558 34.6946 135.853 34.6612 135.372 35.0416L136.612 36.6102C136.446 36.7415 136.256 36.7866 136.09 36.7775C135.925 36.7684 135.737 36.7023 135.584 36.5495L136.999 35.1353ZM138.837 36.9738L136.999 35.1353L135.584 36.5495L137.423 38.388L138.837 36.9738ZM138.931 38.6007C139.311 38.1196 139.278 37.4145 138.837 36.9738L137.423 38.388C137.27 38.2353 137.204 38.0476 137.195 37.8822C137.186 37.7167 137.231 37.5258 137.362 37.3599L138.931 38.6007ZM136.37 41.8373L138.931 38.6006L137.362 37.3599L134.802 40.5965L136.37 41.8373ZM139.096 44.4659C138.314 43.0686 137.389 41.76 136.339 40.5589L134.833 41.8749C135.792 42.9728 136.638 44.1679 137.351 45.4427L139.096 44.4659ZM141.805 42.8619L137.942 43.9947L138.505 45.9139L142.368 44.7811L141.805 42.8619ZM143.278 43.5582C143.035 42.9845 142.393 42.6894 141.805 42.8619L142.368 44.7811C142.165 44.8407 141.971 44.811 141.821 44.7405C141.671 44.6701 141.522 44.5385 141.437 44.3397L143.278 43.5582ZM144.294 45.9516L143.278 43.5582L141.437 44.3397L142.453 46.733L144.294 45.9516ZM143.772 47.495C144.305 47.1916 144.538 46.5252 144.294 45.9515L142.453 46.733C142.369 46.5342 142.378 46.3354 142.431 46.1787C142.485 46.0218 142.598 45.8617 142.782 45.757L143.772 47.495ZM140.333 49.453L143.772 47.495L142.782 45.757L139.343 47.7149L140.333 49.453ZM141.879 53.4321C141.716 51.6427 141.343 49.9118 140.785 48.2634L138.891 48.9045C139.399 50.406 139.738 51.9827 139.887 53.6135L141.879 53.4321ZM144.888 52.9834L140.999 52.5295L140.767 54.516L144.656 54.9699L144.888 52.9834ZM145.972 54.2C145.972 53.5768 145.497 53.0545 144.888 52.9834L144.656 54.9699C144.446 54.9454 144.279 54.8423 144.169 54.7188C144.058 54.5954 143.972 54.416 143.972 54.2H145.972ZM145.972 56.8V54.2H143.972V56.8H145.972ZM164.676 73.2312L163.681 75.6333L165.529 76.3986L166.524 73.9966L164.676 73.2312ZM165.014 74.2043C164.829 74.1012 164.714 73.9421 164.659 73.7857C164.604 73.6294 164.594 73.4308 164.676 73.2312L166.524 73.9965C166.762 73.4208 166.524 72.7565 165.988 72.4577L165.014 74.2043ZM157.452 69.9861L165.014 74.2043L165.988 72.4577L158.427 68.2395L157.452 69.9861ZM158.557 69.7115C158.538 69.7577 158.486 69.859 158.354 69.9523C158.228 70.0408 157.862 70.2147 157.452 69.9861L158.427 68.2395C157.92 67.9567 157.436 68.1518 157.2 68.3185C156.957 68.49 156.801 68.7264 156.71 68.9462L158.557 69.7115ZM156.866 73.7954L158.557 69.7115L156.71 68.9461L155.018 73.03L156.866 73.7954ZM156.279 72.8198C156.73 72.9479 156.866 73.3299 156.892 73.4812C156.92 73.6406 156.885 73.7491 156.866 73.7954L155.018 73.0301C154.927 73.2498 154.871 73.5277 154.921 73.8207C154.97 74.1056 155.174 74.5854 155.732 74.7438L156.279 72.8198ZM164.608 75.1838L156.279 72.8198L155.732 74.7438L164.062 77.1078L164.608 75.1838ZM163.681 75.6333C163.764 75.4337 163.912 75.3008 164.061 75.2291C164.211 75.1573 164.404 75.126 164.608 75.1838L164.062 77.1078C164.652 77.2752 165.291 76.9745 165.529 76.3986L163.681 75.6333ZM93.2 83H95.8V81H93.2V83ZM91.9834 81.9159C92.0545 82.525 92.5767 83 93.2 83V81C93.416 81 93.5955 81.086 93.7189 81.1965C93.8423 81.307 93.9454 81.4739 93.9699 81.6841L91.9834 81.9159ZM90.9799 73.3159L91.9834 81.9159L93.9699 81.6841L92.9664 73.0841L90.9799 73.3159ZM92.2898 72C92.052 72 91.7736 72.0543 91.5222 72.2131C91.2778 72.3674 90.9126 72.7393 90.9799 73.3159L92.9664 73.0841C93.0208 73.5502 92.7199 73.8221 92.5902 73.9041C92.4534 73.9904 92.3399 74 92.2898 74V72ZM96.7102 72H92.2898V74H96.7102V72ZM98.0201 73.3159C98.0874 72.7393 97.7221 72.3674 97.4778 72.2131C97.2264 72.0543 96.9481 72 96.7102 72V74C96.6601 74 96.5466 73.9904 96.4098 73.9041C96.2801 73.8221 95.9792 73.5502 96.0336 73.0841L98.0201 73.3159ZM97.0166 81.9159L98.0201 73.3159L96.0336 73.0841L95.0301 81.6841L97.0166 81.9159ZM95.8 83C96.4233 83 96.9455 82.525 97.0166 81.9159L95.0301 81.6841C95.0546 81.4739 95.1577 81.307 95.2811 81.1965C95.4045 81.086 95.584 81 95.8 81V83ZM138.999 100.532L136.606 101.547L137.387 103.388L139.781 102.373L138.999 100.532ZM138.558 101.462C138.498 101.259 138.528 101.065 138.598 100.915C138.669 100.765 138.8 100.616 138.999 100.532L139.781 102.373C140.354 102.129 140.65 101.488 140.477 100.899L138.558 101.462ZM136.121 93.1536L138.558 101.462L140.477 100.899L138.041 92.5908L136.121 93.1536ZM137.102 93.7324C137.056 93.7519 136.948 93.7875 136.788 93.7614C136.637 93.7367 136.253 93.604 136.121 93.1536L138.041 92.5908C137.877 92.0338 137.396 91.8342 137.11 91.7876C136.817 91.7397 136.54 91.7984 136.321 91.8914L137.102 93.7324ZM133.033 95.4595L137.102 93.7324L136.321 91.8914L132.252 93.6185L133.033 95.4595ZM133.298 94.3521C133.53 94.7599 133.36 95.1277 133.272 95.2539C133.18 95.3868 133.079 95.44 133.033 95.4595L132.252 93.6185C132.033 93.7115 131.798 93.8703 131.628 94.1146C131.464 94.3522 131.273 94.8372 131.56 95.3417L133.298 94.3521ZM137.582 101.876L133.298 94.3521L131.56 95.3417L135.844 102.866L137.582 101.876ZM136.606 101.547C136.805 101.463 137.004 101.472 137.16 101.526C137.317 101.579 137.477 101.692 137.582 101.876L135.844 102.866C136.147 103.399 136.814 103.632 137.387 103.388L136.606 101.547ZM153.949 92.8157L155.788 90.9772L154.374 89.563L152.535 91.4014L153.949 92.8157ZM152.323 92.9093C152.804 93.2898 153.509 93.2564 153.95 92.8156L152.535 91.4015C152.688 91.2487 152.876 91.1826 153.041 91.1735C153.207 91.1644 153.397 91.2095 153.563 91.3408L152.323 92.9093ZM145.532 87.5378L152.323 92.9093L153.563 91.3408L146.773 85.9692L145.532 87.5378ZM145.528 85.6811C145.36 85.8493 145.201 86.0845 145.136 86.3745C145.072 86.6564 145.077 87.1777 145.532 87.5378L146.773 85.9692C147.141 86.2604 147.12 86.6654 147.086 86.8151C147.051 86.9728 146.977 87.0599 146.942 87.0953L145.528 85.6811ZM148.653 82.5554L145.528 85.6811L146.942 87.0953L150.068 83.9696L148.653 82.5554ZM150.51 82.5597C150.15 82.1043 149.629 82.0996 149.347 82.1633C149.057 82.2288 148.822 82.3872 148.653 82.5554L150.068 83.9696C150.032 84.005 149.945 84.0786 149.787 84.1142C149.638 84.148 149.233 84.1685 148.942 83.8003L150.51 82.5597ZM155.882 89.3503L150.51 82.5596L148.942 83.8004L154.313 90.5911L155.882 89.3503ZM155.788 90.9772C156.229 90.5365 156.262 89.8313 155.882 89.3503L154.313 90.5911C154.182 90.4252 154.137 90.2343 154.146 90.0688C154.155 89.9034 154.221 89.7157 154.374 89.563L155.788 90.9772Z" fill="#1560BD"/>
</g>
<path id="Combined Shape_2" fill-rule="evenodd" clip-rule="evenodd" d="M93.889 30H95.11L95.6369 34.5139L96.4484 34.585L97.0745 34.6489C98.323 34.7944 99.549 35.0455 100.742 35.3985L101.509 35.6254L103.695 31.707L104.821 32.174L103.607 36.4538L104.344 36.8254L104.839 37.083C105.986 37.6985 107.073 38.4155 108.087 39.2242L108.708 39.7193L112.099 37.037L112.962 37.9L110.505 41.007L110.384 40.9115L109.976 40.6027C105.591 37.353 100.205 35.5 94.5 35.5L94.052 35.5038L93.5217 35.5182C88.0533 35.7219 82.9199 37.6271 78.7332 40.8216L78.494 41.007L76.037 37.9L76.9 37.037L80.2919 39.7193L80.9128 39.2242L81.3944 38.8512C82.3681 38.1188 83.4044 37.4686 84.4922 36.9088L85.2267 36.5308L83.975 32.265L85.098 31.789L87.3163 35.685L88.0813 35.4515L88.6261 35.2931C89.9026 34.9398 91.2153 34.7022 92.5516 34.585L93.3631 34.5139L93.889 30ZM117.734 44.975L115.17 45.726L115.268 45.8541C115.445 46.0881 115.617 46.3254 115.786 46.5659L116.037 46.9292L116.233 47.224L118.21 46.097L117.734 44.975ZM70.707 46.304L71.174 45.178L73.7 45.895L73.5989 46.0316L73.3423 46.3842C73.1731 46.6209 73.0075 46.8609 72.8458 47.1039L72.656 47.392L70.707 46.304ZM69.36 54.847L69 54.889V56.11L69.06 56.117L69.1262 55.8034L69.1972 55.4949L69.2719 55.1874L69.36 54.847ZM119.639 54.847L119.728 55.1874L119.803 55.4949L119.874 55.8034L119.939 56.117L120 56.11V54.889L119.639 54.847Z" fill="white"/>
<g id="Combined Shape_3" opacity="0.7">
<path fill-rule="evenodd" clip-rule="evenodd" d="M107 55.5C107 62.1274 101.404 67.5 94.5 67.5C87.5964 67.5 82 62.1274 82 55.5C82 48.8726 87.5964 43.5 94.5 43.5C101.404 43.5 107 48.8726 107 55.5ZM98 55.5C98 57.433 96.433 59 94.5 59C92.567 59 91 57.433 91 55.5C91 53.567 92.567 52 94.5 52C96.433 52 98 53.567 98 55.5Z" fill="#4A90E2" fill-opacity="0.4"/>
<path d="M94.5 68.5C101.917 68.5 108 62.7178 108 55.5H106C106 61.5371 100.89 66.5 94.5 66.5V68.5ZM81 55.5C81 62.7178 87.083 68.5 94.5 68.5V66.5C88.1099 66.5 83 61.5371 83 55.5H81ZM94.5 42.5C87.083 42.5 81 48.2822 81 55.5H83C83 49.4629 88.1099 44.5 94.5 44.5V42.5ZM108 55.5C108 48.2822 101.917 42.5 94.5 42.5V44.5C100.89 44.5 106 49.4629 106 55.5H108ZM94.5 60C96.9853 60 99 57.9853 99 55.5H97C97 56.8807 95.8807 58 94.5 58V60ZM90 55.5C90 57.9853 92.0147 60 94.5 60V58C93.1193 58 92 56.8807 92 55.5H90ZM94.5 51C92.0147 51 90 53.0147 90 55.5H92C92 54.1193 93.1193 53 94.5 53V51ZM99 55.5C99 53.0147 96.9853 51 94.5 51V53C95.8807 53 97 54.1193 97 55.5H99Z" fill="#1560BD"/>
</g>
</g>
<g id="Group 7">
<g id="Rings" opacity="0.4">
<path id="Oval" opacity="0.4" fill-rule="evenodd" clip-rule="evenodd" d="M80.1065 123.078C104.391 123.078 124.078 103.391 124.078 79.1065C124.078 54.8216 104.391 35.1348 80.1065 35.1348C55.8216 35.1348 36.1348 54.8216 36.1348 79.1065C36.1348 103.391 55.8216 123.078 80.1065 123.078Z" fill="#4A90E2" fill-opacity="0.8" stroke="#1560BD" stroke-width="2"/>
<path id="Oval_2" opacity="0.2" fill-rule="evenodd" clip-rule="evenodd" d="M80.1064 141.604C114.623 141.604 142.604 113.623 142.604 79.1064C142.604 44.5901 114.623 16.6091 80.1064 16.6091C45.5901 16.6091 17.6091 44.5901 17.6091 79.1064C17.6091 113.623 45.5901 141.604 80.1064 141.604Z" fill="#4A90E2" fill-opacity="0.8" stroke="#1560BD" stroke-width="2"/>
<path id="Oval_3" opacity="0.1" fill-rule="evenodd" clip-rule="evenodd" d="M80 150.76C119.632 150.76 151.76 118.632 151.76 79C151.76 39.368 119.632 7.23987 80 7.23987C40.368 7.23987 8.23987 39.368 8.23987 79C8.23987 118.632 40.368 150.76 80 150.76Z" fill="#4A90E2" fill-opacity="0.8" stroke="#1560BD" stroke-width="2"/>
<path id="Oval_4" opacity="0.04" fill-rule="evenodd" clip-rule="evenodd" d="M80 158C123.63 158 159 122.63 159 79C159 35.3695 123.63 0 80 0C36.3695 0 1 35.3695 1 79C1 122.63 36.3695 158 80 158Z" fill="#4A90E2" fill-opacity="0.8" stroke="#1560BD" stroke-width="2"/>
<path id="Oval_5" opacity="0.4" fill-rule="evenodd" clip-rule="evenodd" d="M80.1064 98.8032C90.9847 98.8032 99.8032 89.9847 99.8032 79.1064C99.8032 68.2282 90.9847 59.4097 80.1064 59.4097C69.2282 59.4097 60.4097 68.2282 60.4097 79.1064C60.4097 89.9847 69.2282 98.8032 80.1064 98.8032Z" fill="#4A90E2" fill-opacity="0.8" stroke="#1560BD" stroke-width="2"/>
</g>
<g id="Group 6" opacity="0.5">
<g id="Group 5">
<g id="Group 4">
<rect id="Rectangle" x="113.026" y="89" width="60.3077" height="49" rx="1" fill="#4A90E2" fill-opacity="0.12" stroke="#1560BD" stroke-width="2"/>
<path id="Rectangle_2" opacity="0.1" fill-rule="evenodd" clip-rule="evenodd" d="M113.026 90.2565H173.333L113.026 122.923V90.2565Z" fill="#4A90E2"/>
<path id="Rectangle_3" d="M108 132.974H179.615V136C179.615 137.105 178.72 138 177.615 138H110C108.895 138 108 137.105 108 136V132.974Z" fill="white" stroke="#1560BD" stroke-width="2"/>
<rect id="Rectangle_4" x="114.282" y="90.2565" width="57.7949" height="2.51282" fill="white"/>
<path id="Rectangle_5" fill-rule="evenodd" clip-rule="evenodd" d="M114.282 124.315L172.077 92.7693V96.5385V97.7949L114.282 129.34V124.315Z" fill="#4A90E2" fill-opacity="0.12"/>
</g>
</g>
</g>
<g id="Group 2">
<path id="Combined Shape_4" d="M55 59C55 56.7909 56.7909 55 59 55H144C146.209 55 148 56.7909 148 59V138H55V59Z" fill="white" stroke="#1560BD" stroke-width="2"/>
<g id="Combined Shape_5">
<path fill-rule="evenodd" clip-rule="evenodd" d="M144 53H58.8837C55.9744 53 53.5487 55.0706 52.9999 57.8186V67H56.8837V59C56.8837 57.8954 57.7791 57 58.8837 57H144C145.105 57 146 57.8954 146 59V67H150V59C150 55.6863 147.314 53 144 53Z" fill="#4A90E2" fill-opacity="0.2"/>
<path d="M52.9999 57.8186L52.0193 57.6228L51.9999 57.7197V57.8186H52.9999ZM52.9999 67H51.9999V68H52.9999V67ZM56.8837 67V68H57.8837V67H56.8837ZM146 67H145V68H146V67ZM150 67V68H151V67H150ZM58.8837 54H144V52H58.8837V54ZM53.9806 58.0144C54.4378 55.7249 56.4604 54 58.8837 54V52C55.4883 52 52.6596 54.4164 52.0193 57.6228L53.9806 58.0144ZM53.9999 67V57.8186H51.9999V67H53.9999ZM56.8837 66H52.9999V68H56.8837V66ZM55.8837 59V67H57.8837V59H55.8837ZM58.8837 56C57.2268 56 55.8837 57.3431 55.8837 59H57.8837C57.8837 58.4477 58.3314 58 58.8837 58V56ZM144 56H58.8837V58H144V56ZM147 59C147 57.3431 145.657 56 144 56V58C144.552 58 145 58.4477 145 59H147ZM147 67V59H145V67H147ZM150 66H146V68H150V66ZM149 59V67H151V59H149ZM144 54C146.761 54 149 56.2386 149 59H151C151 55.134 147.866 52 144 52V54Z" fill="#1560BD"/>
</g>
<path id="Oval_6" fill-rule="evenodd" clip-rule="evenodd" d="M62 63C63.1046 63 64 62.1046 64 61C64 59.8954 63.1046 59 62 59C60.8954 59 60 59.8954 60 61C60 62.1046 60.8954 63 62 63Z" fill="white" stroke="#1560BD" stroke-width="2"/>
<path id="Oval_7" fill-rule="evenodd" clip-rule="evenodd" d="M69 63C70.1046 63 71 62.1046 71 61C71 59.8954 70.1046 59 69 59C67.8954 59 67 59.8954 67 61C67 62.1046 67.8954 63 69 63Z" fill="white" stroke="#1560BD" stroke-width="2"/>
<path id="Oval_8" fill-rule="evenodd" clip-rule="evenodd" d="M76 63C77.1046 63 78 62.1046 78 61C78 59.8954 77.1046 59 76 59C74.8954 59 74 59.8954 74 61C74 62.1046 74.8954 63 76 63Z" fill="white" stroke="#1560BD" stroke-width="2"/>
<rect id="Rectangle_6" x="99" y="59" width="45" height="4" rx="2" fill="white" stroke="#1560BD" stroke-width="2"/>
<rect id="Rectangle_7" x="56" y="68" width="39" height="69" fill="#4A90E2"/>
<path id="Rectangle_8" d="M95 115H101.5C102.328 115 103 115.672 103 116.5C103 117.328 102.328 118 101.5 118H95V115Z" fill="#E5E5EA"/>
<rect id="Rectangle_9" x="113" y="115" width="20" height="3" rx="1.5" fill="#E5E5EA"/>
<path id="Rectangle_10" d="M95 130H97.5C98.3284 130 99 130.672 99 131.5C99 132.328 98.3284 133 97.5 133H95V130Z" fill="#E5E5EA"/>
<rect id="Rectangle_11" x="113" y="130" width="11" height="3" rx="1.5" fill="#E5E5EA"/>
<g id="Group 9">
<rect id="Rectangle_12" x="60" y="73" width="6" height="3" rx="1.5" fill="white"/>
<rect id="Rectangle_13" opacity="0.38" x="71" y="73" width="7" height="3" rx="1.5" fill="white"/>
<rect id="Rectangle_14" opacity="0.38" x="78" y="83" width="10" height="3" rx="1.5" fill="white"/>
<rect id="Rectangle_15" opacity="0.38" x="80" y="73" width="5" height="3" rx="1.5" fill="white"/>
<rect id="Rectangle_16" opacity="0.38" x="71" y="83" width="5" height="3" rx="1.5" fill="white"/>
<rect id="Rectangle_17" opacity="0.38" x="71" y="78" width="7" height="3" rx="1.5" fill="white"/>
<rect id="Rectangle_18" opacity="0.38" x="80" y="78" width="11" height="3" rx="1.5" fill="white"/>
</g>
<g id="Group 9_2">
<rect id="Rectangle_19" x="60" y="88" width="6" height="3" rx="1.5" fill="white"/>
<rect id="Rectangle_20" opacity="0.38" x="71" y="88" width="7" height="3" rx="1.5" fill="white"/>
<rect id="Rectangle_21" opacity="0.38" x="78" y="98" width="7" height="3" rx="1.5" fill="white"/>
<rect id="Rectangle_22" opacity="0.38" x="80" y="88" width="5" height="3" rx="1.5" fill="white"/>
<rect id="Rectangle_23" opacity="0.38" x="71" y="98" width="5" height="3" rx="1.5" fill="white"/>
<rect id="Rectangle_24" opacity="0.38" x="71" y="93" width="3" height="3" rx="1.5" fill="white"/>
<rect id="Rectangle_25" opacity="0.38" x="76" y="93" width="12" height="3" rx="1.5" fill="white"/>
</g>
<g id="Group 9_3">
<rect id="Rectangle_26" x="60" y="103" width="6" height="3" rx="1.5" fill="white"/>
<rect id="Rectangle_27" opacity="0.38" x="71" y="103" width="7" height="3" rx="1.5" fill="white"/>
<rect id="Rectangle_28" opacity="0.38" x="78" y="113" width="9" height="3" rx="1.5" fill="white"/>
<rect id="Rectangle_29" opacity="0.38" x="80" y="103" width="3" height="3" rx="1.5" fill="white"/>
<rect id="Rectangle_30" opacity="0.38" x="71" y="113" width="5" height="3" rx="1.5" fill="white"/>
<rect id="Rectangle_31" opacity="0.38" x="71" y="108" width="7" height="3" rx="1.5" fill="white"/>
<rect id="Rectangle_32" opacity="0.38" x="80" y="108" width="9" height="3" rx="1.5" fill="white"/>
</g>
<g id="Group 9_4">
<rect id="Rectangle_33" x="60" y="118" width="6" height="3" rx="1.5" fill="white"/>
<rect id="Rectangle_34" opacity="0.38" x="71" y="118" width="7" height="3" rx="1.5" fill="white"/>
<rect id="Rectangle_35" opacity="0.38" x="78" y="128" width="3" height="3" rx="1.5" fill="white"/>
<rect id="Rectangle_36" opacity="0.38" x="80" y="118" width="3" height="3" rx="1.5" fill="white"/>
<rect id="Rectangle_37" opacity="0.38" x="71" y="128" width="5" height="3" rx="1.5" fill="white"/>
<rect id="Rectangle_38" opacity="0.38" x="71" y="123" width="7" height="3" rx="1.5" fill="white"/>
<rect id="Rectangle_39" opacity="0.38" x="80" y="123" width="11" height="3" rx="1.5" fill="white"/>
</g>
<path id="Rectangle_40" d="M95 120H101.5C102.328 120 103 120.672 103 121.5C103 122.328 102.328 123 101.5 123H95V120Z" fill="#E5E5EA"/>
<rect id="Rectangle_41" x="113" y="120" width="25" height="3" rx="1.5" fill="#E5E5EA"/>
<rect id="Rectangle_42" x="95" y="101" width="11" height="10" fill="#4A90E2" fill-opacity="0.12"/>
<rect id="Rectangle_43" opacity="0.23" x="113" y="101" width="29" height="10" fill="#4A90E2"/>
<rect id="Rectangle_44" opacity="0.38" x="95" y="73" width="47" height="15" fill="#4A90E2"/>
<rect id="Rectangle_45" x="113" y="125" width="7" height="3" rx="1.5" fill="#E5E5EA"/>
<rect id="Rectangle_46" x="120" y="125" width="13" height="3" rx="1.5" fill="#E5E5EA"/>
<rect id="Rectangle_47" x="95" y="92" width="9" height="3" rx="1.5" fill="#E5E5EA"/>
<rect id="Rectangle_48" x="106" y="92" width="15" height="3" rx="1.5" fill="#E5E5EA"/>
</g>
<path id="Path 4" opacity="0.2" d="M28.0935 138H129.5" stroke="#1560BD" stroke-width="2" stroke-linecap="round"/>
<path id="Path 4_2" opacity="0.2" d="M24 138H25" stroke="#1560BD" stroke-width="2" stroke-linecap="round"/>
<path id="Path 4_3" opacity="0.2" d="M143 138H146" stroke="#1560BD" stroke-width="2" stroke-linecap="round"/>
</g>
<g id="Group 10">
<g id="Combined Shape_6">
<path fill-rule="evenodd" clip-rule="evenodd" d="M66.4167 103.333H35V110.141C34.4444 110.048 33.8737 110 33.2917 110C27.6077 110 23 114.608 23 120.292C23 125.976 27.6077 130.583 33.2917 130.583C33.8737 130.583 34.4444 130.535 35 130.442V133C35 135.761 37.2386 138 40 138H61.4167C64.1781 138 66.4167 135.761 66.4167 133V103.333ZM35 113.522V127.228C34.4784 127.352 33.9343 127.417 33.375 127.417C29.486 127.417 26.3333 124.264 26.3333 120.375C26.3333 116.486 29.486 113.333 33.375 113.333C33.9343 113.333 34.4784 113.399 35 113.522Z" fill="#93BBEB"/>
<path d="M35 103.333V102.333H34V103.333H35ZM66.4167 103.333H67.4167V102.333H66.4167V103.333ZM35 110.141L34.8352 111.128L36 111.322V110.141H35ZM35 130.442H36V129.261L34.8352 129.456L35 130.442ZM35 127.228L35.2299 128.201L36 128.02V127.228H35ZM35 113.522H36V112.73L35.2299 112.549L35 113.522ZM35 104.333H66.4167V102.333H35V104.333ZM36 110.141V103.333H34V110.141H36ZM33.2917 111C33.8182 111 34.3338 111.044 34.8352 111.128L35.1648 109.155C34.5549 109.053 33.9291 109 33.2917 109V111ZM24 120.292C24 115.16 28.16 111 33.2917 111V109C27.0555 109 22 114.055 22 120.292H24ZM33.2917 129.583C28.16 129.583 24 125.423 24 120.292H22C22 126.528 27.0555 131.583 33.2917 131.583V129.583ZM34.8352 129.456C34.3338 129.54 33.8182 129.583 33.2917 129.583V131.583C33.9291 131.583 34.5549 131.53 35.1648 131.429L34.8352 129.456ZM36 133V130.442H34V133H36ZM40 137C37.7909 137 36 135.209 36 133H34C34 136.314 36.6863 139 40 139V137ZM61.4167 137H40V139H61.4167V137ZM65.4167 133C65.4167 135.209 63.6258 137 61.4167 137V139C64.7304 139 67.4167 136.314 67.4167 133H65.4167ZM65.4167 103.333V133H67.4167V103.333H65.4167ZM36 127.228V113.522H34V127.228H36ZM34.7701 126.255C34.3232 126.361 33.8563 126.417 33.375 126.417V128.417C34.0123 128.417 34.6335 128.342 35.2299 128.201L34.7701 126.255ZM33.375 126.417C30.0383 126.417 27.3333 123.712 27.3333 120.375H25.3333C25.3333 124.816 28.9337 128.417 33.375 128.417V126.417ZM27.3333 120.375C27.3333 117.038 30.0383 114.333 33.375 114.333V112.333C28.9337 112.333 25.3333 115.934 25.3333 120.375H27.3333ZM33.375 114.333C33.8563 114.333 34.3232 114.389 34.7701 114.495L35.2299 112.549C34.6335 112.408 34.0123 112.333 33.375 112.333V114.333Z" fill="#1560BD"/>
</g>
<path id="Rectangle 7" fill-rule="evenodd" clip-rule="evenodd" d="M38.2125 104.333H57.2125L49.8099 134.333H38.2125V104.333Z" fill="#CFE1F6"/>
<path id="Combined Shape_7" opacity="0.618243" fill-rule="evenodd" clip-rule="evenodd" d="M39.8485 79.9394C39.8485 78.8683 40.7168 78 41.7879 78H50.5152C51.5862 78 52.4545 78.8683 52.4545 79.9394C52.4545 81.0105 51.5863 81.8788 50.5152 81.8788C49.9796 81.8788 49.5455 82.3129 49.5455 82.8485C49.5455 83.384 49.9796 83.8182 50.5152 83.8182H63.1212C64.1923 83.8182 65.0606 84.6865 65.0606 85.7576C65.0606 86.8287 64.1923 87.697 63.1212 87.697H55.3636C54.8281 87.697 54.3939 88.1311 54.3939 88.6667C54.3939 89.2022 54.8281 89.6364 55.3636 89.6364C56.4347 89.6364 57.303 90.5047 57.303 91.5758C57.303 92.6469 56.4347 93.5152 55.3636 93.5152H50.5152C49.9796 93.5152 49.5455 93.9493 49.5455 94.4848C49.5455 95.0204 49.9796 95.4545 50.5152 95.4545H53.4242C54.4953 95.4545 55.3636 96.3228 55.3636 97.3939C55.3636 98.465 54.4953 99.3333 53.4242 99.3333H45.6667C44.5956 99.3333 43.7273 98.465 43.7273 97.3939C43.7273 96.3228 44.5956 95.4545 45.6667 95.4545C46.2022 95.4545 46.6364 95.0204 46.6364 94.4848C46.6364 93.9493 46.2022 93.5152 45.6667 93.5152H36.9394C35.8683 93.5152 35 92.6469 35 91.5758C35 90.5047 35.8683 89.6364 36.9394 89.6364H47.6061C48.1416 89.6364 48.5758 89.2022 48.5758 88.6667C48.5758 88.1311 48.1416 87.697 47.6061 87.697H45.6667C44.5956 87.697 43.7273 86.8287 43.7273 85.7576C43.7273 84.6865 44.5956 83.8182 45.6667 83.8182C46.2022 83.8182 46.6364 83.384 46.6364 82.8485C46.6364 82.3129 46.2022 81.8788 45.6667 81.8788H41.7879C40.7168 81.8788 39.8485 81.0105 39.8485 79.9394Z" fill="#8EBAED"/>
<path id="Combined Shape_8" fill-rule="evenodd" clip-rule="evenodd" d="M43.8333 119.583V102.35H44.9166V119.583L47.0833 120.667V128.25H41.6666V120.667L43.8333 119.583Z" fill="white"/>
</g>
</g>
</svg>
