<svg width="160" height="160" viewBox="0 0 160 160" fill="none" xmlns="http://www.w3.org/2000/svg">
<g id="Group 37">
<g id="Rings" opacity="0.4">
<path id="Oval" opacity="0.4" fill-rule="evenodd" clip-rule="evenodd" d="M80 124.131C104.373 124.131 124.131 104.373 124.131 80C124.131 55.6271 104.373 35.869 80 35.869C55.6271 35.869 35.869 55.6271 35.869 80C35.869 104.373 55.6271 124.131 80 124.131Z" fill="#4A90E2" fill-opacity="0.8" stroke="#1560BD" stroke-width="2"/>
<path id="Oval_2" opacity="0.2" fill-rule="evenodd" clip-rule="evenodd" d="M80 142.655C114.604 142.655 142.655 114.604 142.655 80C142.655 45.3965 114.604 17.3448 80 17.3448C45.3965 17.3448 17.3448 45.3965 17.3448 80C17.3448 114.604 45.3965 142.655 80 142.655Z" fill="#4A90E2" fill-opacity="0.8" stroke="#1560BD" stroke-width="2"/>
<path id="Oval_3" opacity="0.1" fill-rule="evenodd" clip-rule="evenodd" d="M80.5448 151.372C120.264 151.372 152.462 119.174 152.462 79.4551C152.462 39.7364 120.264 7.5379 80.5448 7.5379C40.826 7.5379 8.62756 39.7364 8.62756 79.4551C8.62756 119.174 40.826 151.372 80.5448 151.372Z" fill="#4A90E2" fill-opacity="0.8" stroke="#1560BD" stroke-width="2"/>
<path id="Oval_4" opacity="0.04" fill-rule="evenodd" clip-rule="evenodd" d="M80 159C123.63 159 159 123.63 159 80C159 36.3695 123.63 1 80 1C36.3695 1 1 36.3695 1 80C1 123.63 36.3695 159 80 159Z" fill="#4A90E2" fill-opacity="0.8" stroke="#1560BD" stroke-width="2"/>
<path id="Oval_5" opacity="0.4" fill-rule="evenodd" clip-rule="evenodd" d="M80.5448 100.159C91.3772 100.159 100.159 91.3772 100.159 80.5448C100.159 69.7124 91.3772 60.931 80.5448 60.931C69.7124 60.931 60.931 69.7124 60.931 80.5448C60.931 91.3772 69.7124 100.159 80.5448 100.159Z" fill="#4A90E2" fill-opacity="0.8" stroke="#1560BD" stroke-width="2"/>
</g>
<g id="Group 31" opacity="0.5">
<g id="Combined Shape">
<path fill-rule="evenodd" clip-rule="evenodd" d="M17 57C14.7909 57 13 58.7909 13 61V77C13 79.2091 14.7909 81 17 81H31L38 88V81H43C45.2091 81 47 79.2091 47 77V61C47 58.7909 45.2091 57 43 57H17Z" fill="white"/>
<path d="M31 81L31.7071 80.2929C31.5196 80.1054 31.2652 80 31 80V81ZM38 88L37.2929 88.7071C37.5789 88.9931 38.009 89.0787 38.3827 88.9239C38.7564 88.7691 39 88.4045 39 88H38ZM38 81V80C37.4477 80 37 80.4477 37 81H38ZM14 61C14 59.3431 15.3431 58 17 58V56C14.2386 56 12 58.2386 12 61H14ZM14 77V61H12V77H14ZM17 80C15.3431 80 14 78.6569 14 77H12C12 79.7614 14.2386 82 17 82V80ZM31 80H17V82H31V80ZM38.7071 87.2929L31.7071 80.2929L30.2929 81.7071L37.2929 88.7071L38.7071 87.2929ZM37 81V88H39V81H37ZM43 80H38V82H43V80ZM46 77C46 78.6569 44.6569 80 43 80V82C45.7614 82 48 79.7614 48 77H46ZM46 61V77H48V61H46ZM43 58C44.6569 58 46 59.3431 46 61H48C48 58.2386 45.7614 56 43 56V58ZM17 58H43V56H17V58Z" fill="#1560BD"/>
</g>
<rect id="Rectangle" x="18" y="63" width="24" height="2" rx="1" fill="#4A90E2"/>
<rect id="Rectangle_2" x="18" y="68" width="24" height="2" rx="1" fill="#4A90E2"/>
<rect id="Rectangle_3" x="18" y="73" width="18" height="2" rx="1" fill="#4A90E2"/>
</g>
<g id="Group 31_2" opacity="0.5">
<g id="Combined Shape_2">
<path fill-rule="evenodd" clip-rule="evenodd" d="M128 47C130.209 47 132 48.7909 132 51V57C132 59.2091 130.209 61 128 61H114L107 68V61H102C99.7909 61 98 59.2091 98 57V51C98 48.7909 99.7909 47 102 47H128Z" fill="white"/>
<path d="M114 61L113.293 60.2929C113.48 60.1054 113.735 60 114 60V61ZM107 68L107.707 68.7071C107.421 68.9931 106.991 69.0787 106.617 68.9239C106.244 68.7691 106 68.4045 106 68H107ZM107 61V60C107.552 60 108 60.4477 108 61H107ZM131 51C131 49.3431 129.657 48 128 48V46C130.761 46 133 48.2386 133 51H131ZM131 57V51H133V57H131ZM128 60C129.657 60 131 58.6569 131 57H133C133 59.7614 130.761 62 128 62V60ZM114 60H128V62H114V60ZM106.293 67.2929L113.293 60.2929L114.707 61.7071L107.707 68.7071L106.293 67.2929ZM108 61V68H106V61H108ZM102 60H107V62H102V60ZM99 57C99 58.6569 100.343 60 102 60V62C99.2386 62 97 59.7614 97 57H99ZM99 51V57H97V51H99ZM102 48C100.343 48 99 49.3431 99 51H97C97 48.2386 99.2386 46 102 46V48ZM128 48H102V46H128V48Z" fill="#1560BD"/>
</g>
<rect id="Rectangle_4" width="18" height="2" rx="1" transform="matrix(-1 0 0 1 127 53)" fill="#4A90E2"/>
</g>
<path id="Path 4" opacity="0.2" d="M26.0934 148H106" stroke="#1560BD" stroke-width="2" stroke-linecap="round"/>
<path id="Path 4_2" opacity="0.2" d="M22 148H23" stroke="#1560BD" stroke-width="2" stroke-linecap="round"/>
<path id="Path 4_3" opacity="0.2" d="M109 148H112" stroke="#1560BD" stroke-width="2" stroke-linecap="round"/>
<g id="Group 36" opacity="0.5">
<rect id="Rectangle_5" x="13" y="99" width="21" height="2" rx="1" fill="#4A90E2"/>
<rect id="Rectangle_6" x="16" y="123" width="18" height="2" rx="1" fill="#4A90E2"/>
<rect id="Rectangle_7" x="28" y="127" width="6" height="2" rx="1" fill="#4A90E2"/>
<rect id="Rectangle_8" x="23" y="119" width="11" height="2" rx="1" fill="#4A90E2"/>
<rect id="Rectangle_9" x="16" y="103" width="6" height="2" rx="1" fill="#4A90E2"/>
<rect id="Rectangle_10" x="23" y="103" width="11" height="2" rx="1" fill="#4A90E2"/>
<rect id="Rectangle_11" x="14" y="107" width="11" height="2" rx="1" fill="#4A90E2"/>
<rect id="Rectangle_12" x="26" y="107" width="8" height="2" rx="1" fill="#4A90E2"/>
<rect id="Rectangle_13" x="11" y="111" width="10" height="2" rx="1" fill="#4A90E2"/>
<rect id="Rectangle_14" x="20" y="115" width="9" height="2" rx="1" fill="#4A90E2"/>
<rect id="Rectangle_15" x="30" y="115" width="4" height="2" rx="1" fill="#4A90E2"/>
<rect id="Rectangle_16" x="22" y="111" width="12" height="2" rx="1" fill="#4A90E2"/>
<rect id="Rectangle_17" x="16" y="115" width="3" height="2" rx="1" fill="#4A90E2"/>
</g>
<g id="Rectangle_18">
<rect x="43" y="41" width="58" height="107" rx="6" fill="white"/>
<rect x="43" y="41" width="58" height="107" rx="6" fill="#4A90E2" fill-opacity="0.12"/>
<rect x="43" y="41" width="58" height="107" rx="6" stroke="#1560BD" stroke-width="2"/>
</g>
<path id="Combined Shape_3" opacity="0.12" fill-rule="evenodd" clip-rule="evenodd" d="M100 62.8374L44.4535 118.384L44 118.837V47C44 46.1397 44.2173 45.3301 44.6 44.6231V116.823L99.399 62.0241V44.6213C99.7823 45.3286 100 46.1389 100 47V62.8374Z" fill="#4A90E2"/>
<path id="Combined Shape_4" opacity="0.12" fill-rule="evenodd" clip-rule="evenodd" d="M99.399 69.4426L100 68.8416V77.8416L44.4535 133.388L44 133.842V124.842L44.4535 124.388L44.6 124.242V131.827L99.399 77.0284V69.4426Z" fill="#4A90E2"/>
<path id="Combined Shape_5" d="M95 42L95.2169 42.0046C97.5181 42.1028 99.4165 43.7565 99.8876 45.941L99.899 46.002L99.8007 45.9054C98.608 44.7807 97.0194 44.0696 95.2617 44.0048L95.0184 44.0002L49 44L48.7604 44.004C47.0105 44.063 45.4202 44.7652 44.2222 45.884L44.1 46.002L44.1123 45.941C44.5981 43.6882 46.6019 42 49 42H95Z" fill="white"/>
<path id="Combined Shape_6" opacity="0.2" d="M95 147.002L95.2169 146.997C97.5181 146.899 99.4165 145.246 99.8876 143.061L99.899 143L99.8007 143.097C98.608 144.221 97.0194 144.932 95.2617 144.997L95.0184 145.002L49 145.002L48.7604 144.998C47.0105 144.939 45.4202 144.237 44.2222 143.118L44.1 143L44.1123 143.061C44.5981 145.314 46.6019 147.002 49 147.002H95Z" fill="#1560BD"/>
<path id="Rectangle_19" d="M59 41H86V44C86 45.1046 85.1046 46 84 46H61C59.8954 46 59 45.1046 59 44V41Z" fill="#4A90E2" stroke="#1560BD" stroke-width="2"/>
<g id="Combined Shape_7">
<mask id="path-36-outside-1" maskUnits="userSpaceOnUse" x="49" y="72" width="62" height="57" fill="black">
<rect fill="white" x="49" y="72" width="62" height="57"/>
<path fill-rule="evenodd" clip-rule="evenodd" d="M108.579 95.3647C107.164 88.4048 102.295 82.526 96.1657 79.1337H96.2534V79.1305C74.504 66.8404 47.4243 83.9835 52.6571 104.201C54.0627 110.2 58.2113 115.228 63.2462 118.585C62.2723 121.354 61.3472 124.123 60.4707 126.911C62.3594 125.919 64.2482 124.901 66.1376 123.882L66.138 123.882C67.4146 123.193 68.6915 122.505 69.969 121.824C73.7671 123.048 77.8086 123.645 81.8501 123.512C76.8574 109.19 89.6636 94.0175 108.579 95.3647ZM88.8521 87.0512C91.4003 86.0254 94.4128 88.1711 94.2115 90.9141L94.218 90.9531C94.244 94.0857 90.0791 96.0399 87.7419 93.9169C85.317 92.1704 86.0052 87.9276 88.8521 87.0512ZM68.2356 93.9558C70.3618 95.7834 73.9943 94.4687 74.5526 91.7484C75.4096 88.8041 72.1894 85.915 69.3555 87.0122C66.4632 87.8919 65.7717 92.2126 68.2356 93.9558Z"/>
</mask>
<path fill-rule="evenodd" clip-rule="evenodd" d="M108.579 95.3647C107.164 88.4048 102.295 82.526 96.1657 79.1337H96.2534V79.1305C74.504 66.8404 47.4243 83.9835 52.6571 104.201C54.0627 110.2 58.2113 115.228 63.2462 118.585C62.2723 121.354 61.3472 124.123 60.4707 126.911C62.3594 125.919 64.2482 124.901 66.1376 123.882L66.138 123.882C67.4146 123.193 68.6915 122.505 69.969 121.824C73.7671 123.048 77.8086 123.645 81.8501 123.512C76.8574 109.19 89.6636 94.0175 108.579 95.3647ZM88.8521 87.0512C91.4003 86.0254 94.4128 88.1711 94.2115 90.9141L94.218 90.9531C94.244 94.0857 90.0791 96.0399 87.7419 93.9169C85.317 92.1704 86.0052 87.9276 88.8521 87.0512ZM68.2356 93.9558C70.3618 95.7834 73.9943 94.4687 74.5526 91.7484C75.4096 88.8041 72.1894 85.915 69.3555 87.0122C66.4632 87.8919 65.7717 92.2126 68.2356 93.9558Z" fill="white"/>
<path d="M96.1657 79.1337V77.1337C95.2538 77.1337 94.4573 77.7506 94.2293 78.6336C94.0012 79.5165 94.3993 80.442 95.1972 80.8836L96.1657 79.1337ZM108.579 95.3647L108.437 97.3596C109.061 97.404 109.669 97.1542 110.082 96.6844C110.495 96.2146 110.664 95.5788 110.539 94.9661L108.579 95.3647ZM96.2534 79.1337V81.1337C97.358 81.1337 98.2534 80.2383 98.2534 79.1337H96.2534ZM96.2534 79.1305H98.2534C98.2534 78.4093 97.8652 77.744 97.2373 77.3893L96.2534 79.1305ZM52.6571 104.201L54.6044 103.745C54.6009 103.73 54.5972 103.715 54.5933 103.7L52.6571 104.201ZM63.2462 118.585L65.1329 119.248C65.4362 118.386 65.1162 117.428 64.3556 116.921L63.2462 118.585ZM60.4707 126.911L58.5627 126.311C58.3199 127.084 58.567 127.927 59.1885 128.446C59.8101 128.965 60.6835 129.058 61.4005 128.682L60.4707 126.911ZM66.1376 123.882L67.0868 125.642C67.0915 125.64 67.0962 125.637 67.1009 125.635L66.1376 123.882ZM66.138 123.882L65.1887 122.121C65.184 122.124 65.1793 122.127 65.1746 122.129L66.138 123.882ZM69.969 121.824L70.5824 119.921C70.0671 119.755 69.5064 119.805 69.0286 120.059L69.969 121.824ZM81.8501 123.512L81.9159 125.511C82.5517 125.49 83.1395 125.168 83.4994 124.644C83.8592 124.119 83.948 123.455 83.7386 122.854L81.8501 123.512ZM94.2115 90.9141L92.2169 90.7678C92.2053 90.9264 92.2126 91.0859 92.2387 91.2428L94.2115 90.9141ZM88.8521 87.0512L89.4406 88.9626C89.4941 88.9462 89.547 88.9274 89.5989 88.9065L88.8521 87.0512ZM94.218 90.9531L96.218 90.9365C96.2171 90.8319 96.208 90.7276 96.1908 90.6245L94.218 90.9531ZM87.7419 93.9169L89.0866 92.4364C89.0307 92.3856 88.972 92.3381 88.9107 92.294L87.7419 93.9169ZM74.5526 91.7484L72.6323 91.1895C72.6173 91.2412 72.6043 91.2935 72.5935 91.3463L74.5526 91.7484ZM68.2356 93.9558L69.5392 92.4391C69.4916 92.3981 69.442 92.3594 69.3907 92.3231L68.2356 93.9558ZM69.3555 87.0122L69.9375 88.9257C69.9848 88.9113 70.0315 88.8952 70.0776 88.8773L69.3555 87.0122ZM95.1972 80.8836C100.895 84.0371 105.338 89.4621 106.619 95.7632L110.539 94.9661C108.99 87.3475 103.694 81.0149 97.1343 77.3839L95.1972 80.8836ZM96.2534 77.1337H96.1657V81.1337H96.2534V77.1337ZM94.2534 79.1305V79.1337H98.2534V79.1305H94.2534ZM54.5933 103.7C52.26 94.6849 57.06 86.1513 65.3625 81.1924C73.6429 76.2467 85.0815 75.1148 95.2695 80.8717L97.2373 77.3893C85.6758 70.8562 72.6999 72.1508 63.3113 77.7583C53.9448 83.3528 47.8214 93.4994 50.7209 104.702L54.5933 103.7ZM64.3556 116.921C59.6354 113.774 55.8676 109.136 54.6044 103.745L50.7099 104.657C52.2578 111.264 56.7873 116.682 62.1368 120.249L64.3556 116.921ZM62.3787 127.511C63.248 124.745 64.166 121.997 65.1329 119.248L61.3595 117.921C60.3787 120.71 59.4464 123.5 58.5627 126.311L62.3787 127.511ZM65.1884 122.122C63.2973 123.141 61.4182 124.155 59.5408 125.14L61.4005 128.682C63.3006 127.684 65.199 126.66 67.0868 125.642L65.1884 122.122ZM65.1746 122.129L65.1743 122.129L67.1009 125.635L67.1013 125.635L65.1746 122.129ZM69.0286 120.059C67.746 120.743 66.4646 121.433 65.1887 122.121L67.0872 125.642C68.3645 124.953 69.6371 124.267 70.9095 123.589L69.0286 120.059ZM81.7842 121.513C77.9814 121.639 74.1694 121.077 70.5824 119.921L69.3556 123.728C73.3647 125.02 77.6357 125.652 81.9159 125.511L81.7842 121.513ZM108.721 93.3697C98.6902 92.6553 90.1505 96.3206 84.7718 102.214C79.3909 108.11 77.1972 116.241 79.9615 124.171L83.7386 122.854C81.5103 116.462 83.2234 109.845 87.7263 104.911C92.2314 99.9743 99.5526 96.7269 108.437 97.3596L108.721 93.3697ZM96.2062 91.0605C96.366 88.8828 95.2437 87.0316 93.7291 85.9445C92.2164 84.8589 90.1109 84.3885 88.1052 85.1959L89.5989 88.9065C90.1415 88.6881 90.8164 88.7776 91.3967 89.1942C91.975 89.6093 92.2584 90.2024 92.2169 90.7678L96.2062 91.0605ZM96.1908 90.6245L96.1844 90.5855L92.2387 91.2428L92.2452 91.2817L96.1908 90.6245ZM86.3972 95.3973C88.2962 97.1223 90.8283 97.0887 92.7052 96.2213C94.5768 95.3563 96.2389 93.4617 96.218 90.9365L92.2181 90.9697C92.2231 91.577 91.8158 92.2258 91.0271 92.5903C90.2438 92.9524 89.5248 92.8345 89.0866 92.4364L86.3972 95.3973ZM88.2636 85.1397C85.9563 85.8501 84.6635 87.8754 84.3458 89.8381C84.0279 91.8014 84.6155 94.1299 86.5731 95.5398L88.9107 92.294C88.4434 91.9574 88.1626 91.2913 88.2944 90.4774C88.4262 89.663 88.901 89.1288 89.4406 88.9626L88.2636 85.1397ZM72.5935 91.3463C72.4802 91.8984 72.0235 92.4213 71.3147 92.6722C70.6107 92.9214 69.9577 92.7988 69.5392 92.4391L66.9319 95.4725C68.6397 96.9405 70.8661 97.0742 72.6495 96.4429C74.428 95.8133 76.0668 94.3187 76.5118 92.1505L72.5935 91.3463ZM70.0776 88.8773C70.6518 88.655 71.3855 88.7945 71.9954 89.347C72.6019 89.8964 72.8046 90.5975 72.6323 91.1895L76.4729 92.3074C77.1576 89.955 76.1788 87.7394 74.6809 86.3825C73.1865 85.0287 70.8931 84.2722 68.6334 85.1471L70.0776 88.8773ZM69.3907 92.3231C68.9178 91.9886 68.6273 91.3129 68.7616 90.4777C68.8958 89.6433 69.3824 89.0945 69.9375 88.9257L68.7735 85.0988C66.4363 85.8096 65.131 87.8611 64.8123 89.8427C64.4938 91.8236 65.0894 94.1799 67.0804 95.5885L69.3907 92.3231Z" fill="#1560BD" mask="url(#path-36-outside-1)"/>
</g>
<g id="Shape">
<mask id="path-38-outside-2" maskUnits="userSpaceOnUse" x="79.2618" y="94.8168" width="53" height="48" fill="black">
<rect fill="white" x="79.2618" y="94.8168" width="53" height="48"/>
<path fill-rule="evenodd" clip-rule="evenodd" d="M93.6662 99.812C70.1573 111.927 85.7942 144.431 115.123 135.945C116.751 136.577 118.272 137.443 119.796 138.31L119.796 138.31C120.832 138.899 121.868 139.489 122.94 140.006C122.255 137.701 121.525 135.423 120.746 133.154C129.835 126.677 131.828 117.513 128.469 109.982C123.223 98.046 106.472 93.1573 93.6662 99.812ZM101.879 111.687C101.201 113.813 98.1265 114.449 96.6365 112.832C94.9939 111.336 95.6334 108.21 97.7889 107.541C100.172 106.535 102.924 109.297 101.879 111.687ZM117.441 111.992H117.396C118.568 109.895 116.519 107.057 114.231 107.376C112.575 107.447 111.549 108.995 111.212 110.489C111.24 110.585 111.268 110.683 111.296 110.782C111.505 111.524 111.73 112.318 112.329 112.868C113.737 114.345 116.607 113.897 117.441 111.992Z"/>
</mask>
<path fill-rule="evenodd" clip-rule="evenodd" d="M93.6662 99.812C70.1573 111.927 85.7942 144.431 115.123 135.945C116.751 136.577 118.272 137.443 119.796 138.31L119.796 138.31C120.832 138.899 121.868 139.489 122.94 140.006C122.255 137.701 121.525 135.423 120.746 133.154C129.835 126.677 131.828 117.513 128.469 109.982C123.223 98.046 106.472 93.1573 93.6662 99.812ZM101.879 111.687C101.201 113.813 98.1265 114.449 96.6365 112.832C94.9939 111.336 95.6334 108.21 97.7889 107.541C100.172 106.535 102.924 109.297 101.879 111.687ZM117.441 111.992H117.396C118.568 109.895 116.519 107.057 114.231 107.376C112.575 107.447 111.549 108.995 111.212 110.489C111.24 110.585 111.268 110.683 111.296 110.782C111.505 111.524 111.73 112.318 112.329 112.868C113.737 114.345 116.607 113.897 117.441 111.992Z" fill="#78A4D7"/>
<path d="M115.123 135.945L115.848 134.081C115.439 133.922 114.989 133.902 114.568 134.024L115.123 135.945ZM93.6662 99.812L94.5824 101.59L94.5884 101.587L93.6662 99.812ZM119.796 138.31L120.856 136.614C120.833 136.599 120.809 136.585 120.785 136.571L119.796 138.31ZM119.796 138.31L118.736 140.006C118.759 140.02 118.783 140.034 118.807 140.048L119.796 138.31ZM122.94 140.006L122.071 141.807C122.784 142.152 123.633 142.043 124.236 141.53C124.839 141.016 125.083 140.196 124.857 139.436L122.94 140.006ZM120.746 133.154L119.585 131.525C118.864 132.039 118.567 132.965 118.854 133.803L120.746 133.154ZM128.469 109.982L126.638 110.787L126.642 110.797L128.469 109.982ZM96.6365 112.832L98.1071 111.477C98.0677 111.434 98.0264 111.393 97.9834 111.354L96.6365 112.832ZM101.879 111.687L100.047 110.885C100.019 110.948 99.9947 111.013 99.9737 111.079L101.879 111.687ZM97.7889 107.541L98.3815 109.451C98.4444 109.432 98.5063 109.409 98.567 109.384L97.7889 107.541ZM117.396 111.992L115.65 111.016C115.304 111.635 115.312 112.392 115.671 113.004C116.03 113.616 116.686 113.992 117.396 113.992V111.992ZM117.441 111.992L119.273 112.794C119.544 112.175 119.485 111.462 119.115 110.897C118.746 110.332 118.116 109.992 117.441 109.992V111.992ZM114.231 107.376L114.317 109.374C114.38 109.371 114.443 109.365 114.506 109.357L114.231 107.376ZM111.212 110.489L109.261 110.048C109.186 110.38 109.197 110.725 109.293 111.052L111.212 110.489ZM111.296 110.782L113.221 110.238L113.221 110.238L111.296 110.782ZM112.329 112.868L113.776 111.488C113.745 111.456 113.714 111.425 113.682 111.395L112.329 112.868ZM114.568 134.024C100.727 138.028 90.491 132.334 86.34 124.653C84.2489 120.783 83.6778 116.396 84.8927 112.335C86.1005 108.298 89.1289 104.4 94.5824 101.59L92.75 98.0341C86.449 101.281 82.6162 105.989 81.0606 111.189C79.5121 116.364 80.2754 121.844 82.821 126.555C87.9436 136.033 100.191 142.348 115.679 137.866L114.568 134.024ZM120.785 136.571C119.283 135.717 117.635 134.775 115.848 134.081L114.399 137.81C115.867 138.379 117.261 139.169 118.807 140.048L120.785 136.571ZM120.856 136.614L120.856 136.614L118.736 140.006L118.736 140.006L120.856 136.614ZM123.81 138.205C122.809 137.722 121.831 137.166 120.785 136.571L118.807 140.048C119.833 140.632 120.928 141.256 122.071 141.807L123.81 138.205ZM118.854 133.803C119.624 136.046 120.346 138.298 121.023 140.576L124.857 139.436C124.164 137.105 123.425 134.799 122.637 132.504L118.854 133.803ZM126.642 110.797C129.578 117.379 127.973 125.548 119.585 131.525L121.906 134.782C131.697 127.806 134.078 117.648 130.295 109.167L126.642 110.797ZM94.5884 101.587C106.562 95.3644 121.94 100.099 126.638 110.787L130.3 109.178C124.505 95.9935 106.382 90.9502 92.744 98.0373L94.5884 101.587ZM95.1658 114.188C96.4877 115.622 98.403 115.957 99.9811 115.619C101.565 115.279 103.182 114.181 103.784 112.294L99.9737 111.079C99.8973 111.318 99.6388 111.601 99.143 111.707C98.642 111.815 98.2753 111.659 98.1071 111.477L95.1658 114.188ZM97.1962 105.631C95.2809 106.225 94.1721 107.863 93.8322 109.46C93.4936 111.05 93.8345 112.985 95.2895 114.311L97.9834 111.354C97.7959 111.183 97.6352 110.807 97.7446 110.293C97.8527 109.785 98.1414 109.526 98.3815 109.451L97.1962 105.631ZM103.711 112.488C104.644 110.356 103.814 108.219 102.54 106.933C101.269 105.649 99.1437 104.798 97.0107 105.699L98.567 109.384C98.8167 109.278 99.2594 109.305 99.6986 109.748C100.135 110.189 100.159 110.628 100.047 110.885L103.711 112.488ZM117.396 113.992H117.441V109.992H117.396V113.992ZM114.506 109.357C114.723 109.326 115.133 109.44 115.472 109.924C115.802 110.397 115.771 110.8 115.65 111.016L119.142 112.967C120.193 111.086 119.723 109.023 118.75 107.632C117.785 106.252 116.027 105.107 113.955 105.395L114.506 109.357ZM113.163 110.93C113.274 110.436 113.49 109.995 113.738 109.71C113.965 109.448 114.151 109.381 114.317 109.374L114.145 105.377C111.108 105.508 109.667 108.252 109.261 110.048L113.163 110.93ZM113.221 110.238C113.193 110.141 113.162 110.033 113.131 109.925L109.293 111.052C109.318 111.137 109.343 111.226 109.371 111.326L113.221 110.238ZM113.682 111.395C113.649 111.366 113.585 111.292 113.499 111.097C113.406 110.883 113.332 110.632 113.221 110.238L109.371 111.326C109.55 111.96 109.89 113.344 110.975 114.341L113.682 111.395ZM115.609 111.19C115.52 111.393 115.256 111.645 114.773 111.725C114.284 111.806 113.931 111.65 113.776 111.488L110.881 114.249C112.135 115.563 113.921 115.921 115.428 115.671C116.94 115.42 118.528 114.496 119.273 112.794L115.609 111.19Z" fill="#1560BD" mask="url(#path-38-outside-2)"/>
</g>
</g>
</svg>
