<svg width="160" height="160" viewBox="0 0 160 160" fill="none" xmlns="http://www.w3.org/2000/svg">
<g id="Group 43">
<g id="Rings" opacity="0.4">
<path id="Oval" opacity="0.4" fill-rule="evenodd" clip-rule="evenodd" d="M80.1065 124.078C104.391 124.078 124.078 104.391 124.078 80.1065C124.078 55.8216 104.391 36.1348 80.1065 36.1348C55.8216 36.1348 36.1348 55.8216 36.1348 80.1065C36.1348 104.391 55.8216 124.078 80.1065 124.078Z" fill="#4A90E2" fill-opacity="0.8" stroke="#1560BD" stroke-width="2"/>
<path id="Oval_2" opacity="0.2" fill-rule="evenodd" clip-rule="evenodd" d="M80.1064 142.604C114.623 142.604 142.604 114.623 142.604 80.1064C142.604 45.5901 114.623 17.6091 80.1064 17.6091C45.5901 17.6091 17.6091 45.5901 17.6091 80.1064C17.6091 114.623 45.5901 142.604 80.1064 142.604Z" fill="#4A90E2" fill-opacity="0.8" stroke="#1560BD" stroke-width="2"/>
<path id="Oval_3" opacity="0.1" fill-rule="evenodd" clip-rule="evenodd" d="M80 151.76C119.632 151.76 151.76 119.632 151.76 80C151.76 40.368 119.632 8.23987 80 8.23987C40.368 8.23987 8.23987 40.368 8.23987 80C8.23987 119.632 40.368 151.76 80 151.76Z" fill="#4A90E2" fill-opacity="0.8" stroke="#1560BD" stroke-width="2"/>
<path id="Oval_4" opacity="0.04" fill-rule="evenodd" clip-rule="evenodd" d="M80 159C123.63 159 159 123.63 159 80C159 36.3695 123.63 1 80 1C36.3695 1 1 36.3695 1 80C1 123.63 36.3695 159 80 159Z" fill="#4A90E2" fill-opacity="0.8" stroke="#1560BD" stroke-width="2"/>
<path id="Oval_5" opacity="0.4" fill-rule="evenodd" clip-rule="evenodd" d="M80.1064 99.8032C90.9847 99.8032 99.8032 90.9847 99.8032 80.1064C99.8032 69.2282 90.9847 60.4097 80.1064 60.4097C69.2282 60.4097 60.4097 69.2282 60.4097 80.1064C60.4097 90.9847 69.2282 99.8032 80.1064 99.8032Z" fill="#4A90E2" fill-opacity="0.8" stroke="#1560BD" stroke-width="2"/>
</g>
<g id="News">
<g id="Group 4" opacity="0.5">
<rect id="Rectangle" x="114" y="36" width="33" height="42" rx="2" fill="white" stroke="#1560BD" stroke-width="2"/>
<rect id="Rectangle_2" x="114" y="39" width="33" height="32" fill="#4A90E2" fill-opacity="0.12" stroke="#1560BD" stroke-width="2"/>
<path id="Rectangle_3" opacity="0.1" fill-rule="evenodd" clip-rule="evenodd" d="M115 40H146L115 65V40Z" fill="#4A90E2"/>
<path id="Oval_6" d="M131 74.5C131 74.7761 130.776 75 130.5 75C130.224 75 130 74.7761 130 74.5C130 74.2239 130.224 74 130.5 74C130.776 74 131 74.2239 131 74.5Z" fill="#4A90E2" stroke="#1560BD" stroke-width="2"/>
</g>
<path id="Path 4" opacity="0.2" d="M23.0935 136H141" stroke="#1560BD" stroke-width="2" stroke-linecap="round"/>
<path id="Path 4_2" opacity="0.2" d="M19 136H20" stroke="#1560BD" stroke-width="2" stroke-linecap="round"/>
<path id="Path 4_3" opacity="0.2" d="M144 136H147" stroke="#1560BD" stroke-width="2" stroke-linecap="round"/>
</g>
<g id="Group 42">
<rect id="Rectangle_4" x="33" y="49" width="105.835" height="87" rx="4" fill="white" stroke="#1560BD" stroke-width="2"/>
<path id="Combined Shape" opacity="0.12" d="M33.8969 131.516L33.9378 131.552C34.8292 132.334 35.9821 132.827 37.2517 132.881L37.4654 132.886L135.247 132.886L135.448 132.881L135.652 132.867C136.46 132.791 137.204 132.505 137.83 132.065L137.938 131.985V132.886C137.938 134.322 136.81 135.503 135.382 135.573L135.225 135.577L37.4845 135.577C35.5031 135.577 33.8969 133.97 33.8969 131.989V131.516Z" fill="#1560BD"/>
<path id="Combined Shape_2" opacity="0.12" d="M33.8969 131.516L33.9378 131.552C34.8292 132.334 35.9821 132.827 37.2517 132.881L37.4654 132.886L135.247 132.886L135.448 132.881L135.652 132.867C136.46 132.791 137.204 132.505 137.83 132.065L137.938 131.985V132.886C137.938 134.322 136.81 135.503 135.382 135.573L135.225 135.577L37.4845 135.577C35.5031 135.577 33.8969 133.97 33.8969 131.989V131.516Z" fill="#1560BD"/>
<rect id="Rectangle_5" x="33.8969" y="49.8969" width="34.9794" height="85.2062" fill="#4A90E2"/>
<rect id="Rectangle_6" x="40.1753" y="58.866" width="21.5258" height="22.4227" rx="2" fill="white" stroke="#1560BD" stroke-width="2"/>
<rect id="Rectangle_7" x="76.9485" y="57.0721" width="34.0825" height="3.58763" rx="1.79381" fill="#4A90E2"/>
<rect id="Rectangle_8" x="39.2783" y="88.4639" width="23.3196" height="2.69072" rx="1.34536" fill="#1560BD"/>
<rect id="Rectangle_9" opacity="0.5" x="39.2783" y="94.8453" width="23.3196" height="2.69072" rx="1.34536" fill="white"/>
<rect id="Rectangle_10" opacity="0.5" x="39.2783" y="100.227" width="23.3196" height="2.69072" rx="1.34536" fill="white"/>
<rect id="Rectangle_11" opacity="0.5" x="39.2783" y="105.608" width="23.3196" height="2.69072" rx="1.34536" fill="white"/>
<rect id="Rectangle_12" opacity="0.5" x="39.2783" y="110.99" width="23.3196" height="2.69072" rx="1.34536" fill="white"/>
<rect id="Rectangle_13" x="76.9485" y="64.2474" width="54.7113" height="2.69072" rx="1.34536" fill="#E5E5EA"/>
<rect id="Rectangle_14" x="76.9485" y="94.7423" width="16.1443" height="2.69072" rx="1.34536" fill="#E5E5EA"/>
<rect id="Rectangle_15" x="76.9485" y="90.2577" width="17.9381" height="2.69072" rx="1.34536" fill="#E5E5EA"/>
<rect id="Rectangle_16" x="98.4742" y="90.2577" width="33.1856" height="2.69072" rx="1.34536" fill="#E5E5EA"/>
<rect id="Rectangle_17" x="76.9485" y="68.7319" width="17.9381" height="2.69072" rx="1.34536" fill="#E5E5EA"/>
<rect id="Rectangle_18" x="98.4742" y="68.7319" width="33.1856" height="2.69072" rx="1.34536" fill="#E5E5EA"/>
<rect id="Rectangle_19" x="76.9485" y="73.2166" width="27.8041" height="2.69072" rx="1.34536" fill="#E5E5EA"/>
<rect id="Rectangle_20" x="76.9485" y="103.711" width="34.0825" height="3.58763" rx="1.79381" fill="#4A90E2"/>
<rect id="Rectangle_21" x="76.9485" y="110.887" width="54.7113" height="2.69072" rx="1.34536" fill="#E5E5EA"/>
<rect id="Rectangle_22" x="76.9485" y="115.371" width="17.9381" height="2.69072" rx="1.34536" fill="#E5E5EA"/>
<rect id="Rectangle_23" x="98.4742" y="115.371" width="33.1856" height="2.69072" rx="1.34536" fill="#E5E5EA"/>
<rect id="Rectangle_24" x="76.9485" y="119.856" width="24.2165" height="2.69072" rx="1.34536" fill="#E5E5EA"/>
<rect id="Rectangle_25" x="107.443" y="73.2166" width="24.2165" height="2.69072" rx="1.34536" fill="#E5E5EA"/>
<rect id="Rectangle_26" x="76.9485" y="81.2887" width="15.2474" height="2.69072" rx="1.34536" fill="#E5E5EA"/>
<rect id="Rectangle_27" x="89.5051" y="85.7732" width="26.9072" height="2.69072" rx="1.34536" fill="#E5E5EA"/>
<rect id="Rectangle_28" x="119.103" y="85.7732" width="12.5567" height="2.69072" rx="1.34536" fill="#E5E5EA"/>
<rect id="Rectangle_29" x="94.8866" y="81.2887" width="36.7732" height="2.69072" rx="1.34536" fill="#E5E5EA"/>
<rect id="Rectangle_30" x="76.9485" y="85.7732" width="8.96907" height="2.69072" rx="1.34536" fill="#E5E5EA"/>
<path id="Combined Shape_3" opacity="0.556151" d="M33.8969 53.9584L33.9378 53.9217C34.8292 53.1397 35.9821 52.647 37.2517 52.5929L37.4654 52.5881L135.247 52.5879L135.448 52.5926L135.652 52.607C136.46 52.6826 137.204 52.9685 137.83 53.4089L137.938 53.4884V52.5879C137.938 51.152 136.81 49.9707 135.382 49.9005L135.225 49.8969L37.4845 49.8972C35.5031 49.8972 33.8969 51.5034 33.8969 53.4848V53.9584Z" fill="white"/>
<g id="Group 41">
<g id="Combined Shape_4">
<path fill-rule="evenodd" clip-rule="evenodd" d="M127.297 85.2411C126.818 84.9649 126.207 85.1288 125.931 85.6071L114.822 104.847L113.621 104.153L113.343 105.513L112.841 107.965L110.968 109.625L109.93 110.546L111.132 111.24L106.25 119.695L110.911 122.385L115.792 113.93L116.994 114.624L117.272 113.265L117.774 110.813L119.646 109.152L120.684 108.232L119.483 107.538L130.591 88.2978C130.867 87.8195 130.703 87.208 130.225 86.9318L127.297 85.2411ZM115.737 110.791L113.878 109.718L113.333 110.201L115.591 111.505L115.737 110.791ZM116.737 109.059L117.281 108.576L115.024 107.273L114.878 107.986L116.737 109.059Z" fill="#4A90E2"/>
<path d="M125.931 85.6071L125.065 85.1071L125.931 85.6071ZM114.822 104.847L114.322 105.713C114.552 105.846 114.825 105.882 115.081 105.813C115.337 105.744 115.556 105.577 115.688 105.347L114.822 104.847ZM113.621 104.153L114.121 103.287C113.842 103.127 113.504 103.11 113.211 103.241C112.918 103.373 112.706 103.638 112.641 103.953L113.621 104.153ZM113.343 105.513L114.322 105.713L114.322 105.713L113.343 105.513ZM112.841 107.965L113.504 108.713C113.666 108.569 113.777 108.377 113.821 108.165L112.841 107.965ZM110.968 109.625L111.632 110.374L111.632 110.374L110.968 109.625ZM109.93 110.546L109.267 109.798C109.026 110.011 108.903 110.327 108.935 110.647C108.968 110.967 109.152 111.251 109.43 111.412L109.93 110.546ZM111.132 111.24L111.998 111.74C112.274 111.261 112.11 110.65 111.632 110.374L111.132 111.24ZM106.25 119.695L105.384 119.195C105.108 119.673 105.272 120.284 105.75 120.561L106.25 119.695ZM110.911 122.385L110.411 123.251C110.889 123.527 111.501 123.364 111.777 122.885L110.911 122.385ZM115.792 113.93L116.292 113.064C115.814 112.788 115.202 112.952 114.926 113.43L115.792 113.93ZM116.994 114.624L116.494 115.49C116.772 115.651 117.111 115.668 117.404 115.536C117.697 115.404 117.909 115.14 117.973 114.825L116.994 114.624ZM117.272 113.265L116.292 113.064L116.292 113.064L117.272 113.265ZM117.774 110.813L117.11 110.065C116.948 110.208 116.837 110.4 116.794 110.612L117.774 110.813ZM119.646 109.152L118.983 108.404L118.983 108.404L119.646 109.152ZM120.684 108.232L121.348 108.98C121.588 108.767 121.712 108.451 121.679 108.131C121.647 107.811 121.463 107.526 121.184 107.366L120.684 108.232ZM119.483 107.538L118.617 107.038C118.484 107.268 118.448 107.541 118.517 107.797C118.586 108.053 118.753 108.271 118.983 108.404L119.483 107.538ZM130.591 88.2978L131.457 88.7978L130.591 88.2978ZM113.878 109.718L114.378 108.852C114.005 108.637 113.537 108.685 113.215 108.97L113.878 109.718ZM115.737 110.791L116.716 110.992C116.803 110.57 116.609 110.141 116.237 109.925L115.737 110.791ZM113.333 110.201L112.67 109.453C112.429 109.666 112.306 109.982 112.338 110.302C112.371 110.622 112.555 110.907 112.833 111.067L113.333 110.201ZM115.591 111.505L115.091 112.371C115.369 112.531 115.708 112.548 116.001 112.417C116.294 112.285 116.506 112.02 116.57 111.705L115.591 111.505ZM117.281 108.576L117.945 109.324C118.185 109.111 118.309 108.795 118.276 108.475C118.244 108.156 118.06 107.871 117.781 107.71L117.281 108.576ZM116.737 109.059L116.237 109.925C116.609 110.141 117.078 110.093 117.4 109.807L116.737 109.059ZM115.024 107.273L115.524 106.407C115.246 106.246 114.907 106.229 114.614 106.361C114.321 106.493 114.109 106.758 114.044 107.072L115.024 107.273ZM114.878 107.986L113.898 107.786C113.812 108.207 114.005 108.637 114.378 108.852L114.878 107.986ZM126.797 86.1071L126.797 86.1071L127.797 84.3751C126.84 83.8228 125.617 84.1505 125.065 85.1071L126.797 86.1071ZM115.688 105.347L126.797 86.1071L125.065 85.1071L113.956 104.347L115.688 105.347ZM115.322 103.981L114.121 103.287L113.121 105.019L114.322 105.713L115.322 103.981ZM112.641 103.953L112.363 105.312L114.322 105.713L114.601 104.354L112.641 103.953ZM112.363 105.312L111.861 107.764L113.821 108.165L114.322 105.713L112.363 105.312ZM112.177 107.217L110.305 108.877L111.632 110.374L113.504 108.713L112.177 107.217ZM110.305 108.877L109.267 109.798L110.594 111.294L111.632 110.374L110.305 108.877ZM109.43 111.412L110.632 112.106L111.632 110.374L110.43 109.68L109.43 111.412ZM110.266 110.74L105.384 119.195L107.116 120.195L111.998 111.74L110.266 110.74ZM105.75 120.561L110.411 123.251L111.411 121.519L106.75 118.829L105.75 120.561ZM111.777 122.885L116.658 114.43L114.926 113.43L110.045 121.885L111.777 122.885ZM115.292 114.796L116.494 115.49L117.494 113.758L116.292 113.064L115.292 114.796ZM117.973 114.825L118.252 113.465L116.292 113.064L116.014 114.424L117.973 114.825ZM118.252 113.465L118.753 111.013L116.794 110.612L116.292 113.064L118.252 113.465ZM118.437 111.561L120.31 109.9L118.983 108.404L117.11 110.065L118.437 111.561ZM120.31 109.9L121.348 108.98L120.021 107.483L118.983 108.404L120.31 109.9ZM121.184 107.366L119.983 106.672L118.983 108.404L120.184 109.098L121.184 107.366ZM129.725 87.7978L118.617 107.038L120.349 108.038L131.457 88.7978L129.725 87.7978ZM129.725 87.7978L129.725 87.7978L131.457 88.7978C132.009 87.8412 131.682 86.6181 130.725 86.0658L129.725 87.7978ZM126.797 86.1071L129.725 87.7978L130.725 86.0658L127.797 84.3751L126.797 86.1071ZM113.378 110.584L115.237 111.657L116.237 109.925L114.378 108.852L113.378 110.584ZM113.997 110.95L114.541 110.466L113.215 108.97L112.67 109.453L113.997 110.95ZM116.091 110.639L113.833 109.335L112.833 111.067L115.091 112.371L116.091 110.639ZM114.757 110.591L114.611 111.304L116.57 111.705L116.716 110.992L114.757 110.591ZM116.618 107.828L116.073 108.311L117.4 109.807L117.945 109.324L116.618 107.828ZM114.524 108.139L116.781 109.442L117.781 107.71L115.524 106.407L114.524 108.139ZM115.858 108.187L116.004 107.473L114.044 107.072L113.898 107.786L115.858 108.187ZM117.237 108.193L115.378 107.12L114.378 108.852L116.237 109.925L117.237 108.193Z" fill="#1560BD"/>
</g>
<path id="Rectangle_31" fill-rule="evenodd" clip-rule="evenodd" d="M106.25 119.695L110.911 122.385L106.705 126.171L105.074 125.23L106.25 119.695Z" fill="white" stroke="#1560BD" stroke-width="2" stroke-linejoin="round"/>
<path id="Path 9" d="M128.113 89.8661L131.997 92.1084L126.895 100.946" stroke="#1560BD" stroke-width="2" stroke-linecap="round" stroke-linejoin="round"/>
<path id="Rectangle_32" d="M128.501 82.9487C128.777 82.4704 129.389 82.3065 129.867 82.5826L131.242 83.3765C131.72 83.6526 131.884 84.2642 131.608 84.7425L129.866 87.7602L126.759 85.9664L128.501 82.9487Z" fill="#1560BD"/>
<path id="Rectangle Copy 2" d="M104.216 126.806C103.968 127.235 104.115 127.783 104.544 128.031C104.973 128.278 105.522 128.131 105.77 127.702L107.115 125.372L105.562 124.475L104.216 126.806Z" fill="#1560BD"/>
<rect id="Rectangle_33" x="114.771" y="104.937" width="5.38144" height="1.79381" transform="rotate(30 114.771 104.937)" fill="#1560BD"/>
<rect id="Rectangle_34" x="112.08" y="109.597" width="5.38144" height="1.79381" transform="rotate(30 112.08 109.597)" fill="#1560BD"/>
<rect id="Rectangle_35" x="110.286" y="112.704" width="5.38144" height="1.79381" transform="rotate(30 110.286 112.704)" fill="#1560BD"/>
<rect id="Rectangle_36" x="108.493" y="115.811" width="5.38144" height="1.79381" transform="rotate(30 108.493 115.811)" fill="#1560BD"/>
<rect id="Rectangle_37" x="113.426" y="107.267" width="5.38144" height="1.79381" transform="rotate(30 113.426 107.267)" fill="#1560BD"/>
<rect id="Rectangle_38" x="120.601" y="94.8389" width="5.38144" height="1.79381" transform="rotate(30 120.601 94.8389)" fill="#1560BD"/>
</g>
<rect id="Rectangle_39" x="68.8763" y="49.8969" width="1.79381" height="86.1031" fill="#1560BD"/>
</g>
<g id="Group 31">
<g id="Combined Shape_5">
<path fill-rule="evenodd" clip-rule="evenodd" d="M23 95C20.7909 95 19 96.7909 19 99V115C19 117.209 20.7909 119 23 119H37L44 126V119H49C51.2091 119 53 117.209 53 115V99C53 96.7909 51.2091 95 49 95H23Z" fill="white"/>
<path d="M37 119L37.7071 118.293C37.5196 118.105 37.2652 118 37 118V119ZM44 126L43.2929 126.707C43.5789 126.993 44.009 127.079 44.3827 126.924C44.7564 126.769 45 126.404 45 126H44ZM44 119V118C43.4477 118 43 118.448 43 119H44ZM20 99C20 97.3431 21.3431 96 23 96V94C20.2386 94 18 96.2386 18 99H20ZM20 115V99H18V115H20ZM23 118C21.3431 118 20 116.657 20 115H18C18 117.761 20.2386 120 23 120V118ZM37 118H23V120H37V118ZM44.7071 125.293L37.7071 118.293L36.2929 119.707L43.2929 126.707L44.7071 125.293ZM43 119V126H45V119H43ZM49 118H44V120H49V118ZM52 115C52 116.657 50.6569 118 49 118V120C51.7614 120 54 117.761 54 115H52ZM52 99V115H54V99H52ZM49 96C50.6569 96 52 97.3431 52 99H54C54 96.2386 51.7614 94 49 94V96ZM23 96H49V94H23V96Z" fill="#1560BD"/>
</g>
<rect id="Rectangle_40" x="24" y="101" width="24" height="2" rx="1" fill="#4A90E2"/>
<rect id="Rectangle_41" x="24" y="106" width="24" height="2" rx="1" fill="#4A90E2"/>
<rect id="Rectangle_42" x="24" y="111" width="18" height="2" rx="1" fill="#4A90E2"/>
</g>
</g>
</svg>
