<svg width="147" height="147" viewBox="0 0 147 147" fill="none" xmlns="http://www.w3.org/2000/svg">
<g id="News">
<g id="Group 31" opacity="0.5">
<g id="Combined Shape">
<path fill-rule="evenodd" clip-rule="evenodd" d="M12 19C9.79086 19 8 20.7909 8 23V39C8 41.2091 9.79086 43 12 43H26L33 50V43H38C40.2091 43 42 41.2091 42 39V23C42 20.7909 40.2091 19 38 19H12Z" fill="white"/>
<path d="M26 43L26.7071 42.2929C26.5196 42.1054 26.2652 42 26 42V43ZM33 50L32.2929 50.7071C32.5789 50.9931 33.009 51.0787 33.3827 50.9239C33.7564 50.7691 34 50.4045 34 50H33ZM33 43V42C32.4477 42 32 42.4477 32 43H33ZM9 23C9 21.3431 10.3431 20 12 20V18C9.23858 18 7 20.2386 7 23H9ZM9 39V23H7V39H9ZM12 42C10.3431 42 9 40.6569 9 39H7C7 41.7614 9.23858 44 12 44V42ZM26 42H12V44H26V42ZM33.7071 49.2929L26.7071 42.2929L25.2929 43.7071L32.2929 50.7071L33.7071 49.2929ZM32 43V50H34V43H32ZM38 42H33V44H38V42ZM41 39C41 40.6569 39.6569 42 38 42V44C40.7614 44 43 41.7614 43 39H41ZM41 23V39H43V23H41ZM38 20C39.6569 20 41 21.3431 41 23H43C43 20.2386 40.7614 18 38 18V20ZM12 20H38V18H12V20Z" fill="#1560BD"/>
</g>
<rect id="Rectangle" x="13" y="25" width="24" height="2" rx="1" fill="#4A90E2"/>
<rect id="Rectangle_2" x="13" y="30" width="24" height="2" rx="1" fill="#4A90E2"/>
<rect id="Rectangle_3" x="13" y="35" width="18" height="2" rx="1" fill="#4A90E2"/>
</g>
<g id="Rings" opacity="0.4">
<path id="Oval" opacity="0.4" fill-rule="evenodd" clip-rule="evenodd" d="M73.5 114C95.8675 114 114 95.8675 114 73.5C114 51.1325 95.8675 33 73.5 33C51.1325 33 33 51.1325 33 73.5C33 95.8675 51.1325 114 73.5 114Z" fill="#4A90E2" fill-opacity="0.8" stroke="#1560BD" stroke-width="2"/>
<path id="Oval_2" opacity="0.2" fill-rule="evenodd" clip-rule="evenodd" d="M73.5 131C105.256 131 131 105.256 131 73.5C131 41.7436 105.256 16 73.5 16C41.7436 16 16 41.7436 16 73.5C16 105.256 41.7436 131 73.5 131Z" fill="#4A90E2" fill-opacity="0.8" stroke="#1560BD" stroke-width="2"/>
<path id="Oval_3" opacity="0.1" fill-rule="evenodd" clip-rule="evenodd" d="M74 139C110.451 139 140 109.451 140 73C140 36.5492 110.451 7 74 7C37.5492 7 8 36.5492 8 73C8 109.451 37.5492 139 74 139Z" fill="#4A90E2" fill-opacity="0.8" stroke="#1560BD" stroke-width="2"/>
<path id="Oval_4" opacity="0.04" fill-rule="evenodd" clip-rule="evenodd" d="M73.5 146C113.541 146 146 113.541 146 73.5C146 33.4594 113.541 1 73.5 1C33.4594 1 1 33.4594 1 73.5C1 113.541 33.4594 146 73.5 146Z" fill="#4A90E2" fill-opacity="0.8" stroke="#1560BD" stroke-width="2"/>
<path id="Oval_5" opacity="0.4" fill-rule="evenodd" clip-rule="evenodd" d="M74 92C83.9411 92 92 83.9411 92 74C92 64.0589 83.9411 56 74 56C64.0589 56 56 64.0589 56 74C56 83.9411 64.0589 92 74 92Z" fill="#4A90E2" fill-opacity="0.8" stroke="#1560BD" stroke-width="2"/>
</g>
<g id="Group 4" opacity="0.5">
<rect id="Rectangle_4" x="104" y="67" width="33" height="42" rx="2" fill="white" stroke="#1560BD" stroke-width="2"/>
<rect id="Rectangle_5" x="104" y="70" width="33" height="32" fill="#4A90E2" fill-opacity="0.12" stroke="#1560BD" stroke-width="2"/>
<path id="Rectangle_6" opacity="0.1" fill-rule="evenodd" clip-rule="evenodd" d="M105 71H136L105 96V71Z" fill="#4A90E2"/>
<path id="Oval_6" d="M121 105.5C121 105.776 120.776 106 120.5 106C120.224 106 120 105.776 120 105.5C120 105.224 120.224 105 120.5 105C120.776 105 121 105.224 121 105.5Z" fill="#4A90E2" stroke="#1560BD" stroke-width="2"/>
</g>
<g id="Group 2">
<g id="Combined Shape_2">
<path fill-rule="evenodd" clip-rule="evenodd" d="M37 34H36V35V116H28H27V117V122C27 124.761 29.2386 127 32 127H110C112.761 127 115 124.761 115 122V119V118V117V116V35V34H114H37ZM113 116V36H38V116H113ZM36 118V119H37H113V122C113 123.657 111.657 125 110 125H32C30.3431 125 29 123.657 29 122V118H36Z" fill="white"/>
<path d="M36 34V33H35V34H36ZM36 116V117H37V116H36ZM27 116V115H26V116H27ZM115 34H116V33H115V34ZM113 116V117H114V116H113ZM113 36H114V35H113V36ZM38 36V35H37V36H38ZM38 116H37V117H38V116ZM36 119H35V120H36V119ZM36 118H37V117H36V118ZM113 119H114V118H113V119ZM29 118V117H28V118H29ZM36 35H37V33H36V35ZM37 35V34H35V35H37ZM37 116V35H35V116H37ZM36 115H28V117H36V115ZM28 115H27V117H28V115ZM26 116V117H28V116H26ZM26 117V122H28V117H26ZM26 122C26 125.314 28.6863 128 32 128V126C29.7909 126 28 124.209 28 122H26ZM32 128H110V126H32V128ZM110 128C113.314 128 116 125.314 116 122H114C114 124.209 112.209 126 110 126V128ZM116 122V119H114V122H116ZM116 119V118H114V119H116ZM116 118V117H114V118H116ZM116 117V116H114V117H116ZM114 35V116H116V35H114ZM114 34V35H116V34H114ZM114 35H115V33H114V35ZM37 35H114V33H37V35ZM114 116V36H112V116H114ZM113 35H38V37H113V35ZM37 36V116H39V36H37ZM113 115H38V117H113V115ZM37 119V118H35V119H37ZM37 118H36V120H37V118ZM113 118H37V120H113V118ZM112 119V122H114V119H112ZM112 122C112 123.105 111.105 124 110 124V126C112.209 126 114 124.209 114 122H112ZM110 124H32V126H110V124ZM32 124C30.8954 124 30 123.105 30 122H28C28 124.209 29.7909 126 32 126V124ZM30 122V118H28V122H30ZM29 119H36V117H29V119Z" fill="#1560BD"/>
</g>
<rect id="Rectangle_7" x="43" y="50" width="65" height="5" fill="#4A90E2" stroke="#1560BD" stroke-width="2"/>
<path id="Rectangle_8" d="M26 73H37V121C37 123.761 34.7614 126 32 126H31C28.2386 126 26 123.761 26 121V73Z" fill="#D9E5F2" stroke="#1560BD" stroke-width="2"/>
<path id="Combined Shape_3" opacity="0.12" d="M27 120.472L27.0457 120.513C28.0396 121.385 29.3249 121.934 30.7405 121.995L30.9787 122L110 122L110.224 121.995L110.451 121.979C111.352 121.894 112.182 121.576 112.879 121.085L113 120.996V122C113 123.601 111.742 124.918 110.151 124.996L109.975 125L31 125C28.7909 125 27 123.209 27 121V120.472Z" fill="#1560BD"/>
<rect id="Rectangle_9" x="43" y="92" width="9" height="3" rx="1.5" fill="#E5E5EA"/>
<rect id="Rectangle_10" x="53" y="92" width="8" height="3" rx="1.5" fill="#E5E5EA"/>
<rect id="Rectangle_11" x="43" y="112" width="9" height="3" rx="1.5" fill="#E5E5EA"/>
<rect id="Rectangle_12" x="53" y="112" width="6" height="3" rx="1.5" fill="#E5E5EA"/>
<rect id="Rectangle_13" x="43" y="97" width="6" height="3" rx="1.5" fill="#E5E5EA"/>
<rect id="Rectangle_14" x="50" y="97" width="11" height="3" rx="1.5" fill="#E5E5EA"/>
<rect id="Rectangle_15" x="66" y="92" width="18" height="3" rx="1.5" fill="#E5E5EA"/>
<rect id="Rectangle_16" x="89" y="67" width="18" height="3" rx="1.5" fill="#E5E5EA"/>
<rect id="Rectangle_17" x="66" y="97" width="6" height="3" rx="1.5" fill="#E5E5EA"/>
<rect id="Rectangle_18" x="73" y="97" width="11" height="3" rx="1.5" fill="#E5E5EA"/>
<rect id="Rectangle_19" x="89" y="97" width="18" height="3" rx="1.5" fill="#E5E5EA"/>
<rect id="Rectangle_20" x="89" y="92" width="6" height="3" rx="1.5" fill="#E5E5EA"/>
<rect id="Rectangle_21" x="96" y="92" width="11" height="3" rx="1.5" fill="#E5E5EA"/>
<rect id="Rectangle_22" x="43" y="102" width="9" height="3" rx="1.5" fill="#E5E5EA"/>
<rect id="Rectangle_23" x="47" y="107" width="9" height="3" rx="1.5" fill="#E5E5EA"/>
<rect id="Rectangle_24" x="57" y="107" width="4" height="3" rx="1.5" fill="#E5E5EA"/>
<rect id="Rectangle_25" x="53" y="102" width="8" height="3" rx="1.5" fill="#E5E5EA"/>
<rect id="Rectangle_26" x="89" y="72" width="6" height="3" rx="1.5" fill="#E5E5EA"/>
<rect id="Rectangle_27" x="96" y="72" width="11" height="3" rx="1.5" fill="#E5E5EA"/>
<rect id="Rectangle_28" x="89" y="77" width="9" height="3" rx="1.5" fill="#E5E5EA"/>
<rect id="Rectangle_29" x="99" y="77" width="8" height="3" rx="1.5" fill="#E5E5EA"/>
<rect id="Rectangle_30" x="43" y="107" width="3" height="3" rx="1.5" fill="#E5E5EA"/>
<rect id="Rectangle_31" x="89" y="82" width="5" height="3" rx="1.5" fill="#E5E5EA"/>
<rect id="Rectangle_32" x="93" y="87" width="9" height="3" rx="1.5" fill="#E5E5EA"/>
<rect id="Rectangle_33" x="103" y="87" width="4" height="3" rx="1.5" fill="#E5E5EA"/>
<rect id="Rectangle_34" x="95" y="82" width="12" height="3" rx="1.5" fill="#E5E5EA"/>
<rect id="Rectangle_35" x="89" y="87" width="3" height="3" rx="1.5" fill="#E5E5EA"/>
</g>
<rect id="Rectangle_36" x="43" y="67" width="41" height="21" fill="#4A90E2" fill-opacity="0.12" stroke="#1560BD" stroke-width="2"/>
<rect id="Rectangle_37" x="66" y="104" width="41" height="11" fill="#4A90E2" fill-opacity="0.12" stroke="#1560BD" stroke-width="2"/>
<rect id="Rectangle_38" x="52" y="43" width="24" height="3" rx="1.5" fill="#1560BD"/>
<rect id="Rectangle_39" x="42" y="43" width="7" height="3" rx="1.5" fill="#1560BD"/>
<path id="Rectangle_40" opacity="0.1" fill-rule="evenodd" clip-rule="evenodd" d="M44 68H83L44 85V68Z" fill="#4A90E2"/>
<path id="Path 4" opacity="0.2" d="M19.0934 126H120.5" stroke="#1560BD" stroke-width="2" stroke-linecap="round"/>
<path id="Path 4_2" opacity="0.2" d="M15 126H16" stroke="#1560BD" stroke-width="2" stroke-linecap="round"/>
<path id="Path 4_3" opacity="0.2" d="M124 126H127" stroke="#1560BD" stroke-width="2" stroke-linecap="round"/>
</g>
</svg>
