<?xml version="1.0" encoding="UTF-8"?>
<svg width="161px" height="160px" viewBox="0 0 161 160" version="1.1" xmlns="http://www.w3.org/2000/svg" xmlns:xlink="http://www.w3.org/1999/xlink">
    <title>icon 07</title>
    <defs>
        <path d="M93,18.0531732 L6,18.0531732 C2.6862915,18.0531732 0,15.8552984 0,13.1440823 L0,4.96226415 C0,2.25104811 2.6862915,0.0531732419 6,0.0531732419 L93,0.0531732419" id="path-1"></path>
        <path d="M103,65.0531732 L16,65.0531732 C12.6862915,65.0531732 10,62.8552984 10,60.1440823 L10,51.9622642 C10,49.2510481 12.6862915,47.0531732 16,47.0531732 L103,47.0531732" id="path-2"></path>
    </defs>
    <g id="Illustration" stroke="none" stroke-width="1" fill="none" fill-rule="evenodd">
        <g id="icon-07" transform="translate(1.500000, 1.000000)">
            <g id="Building-blocks" fill="#4A90E2" fill-opacity="0.8" stroke="#1560BD" stroke-width="2">
                <g id="rings">
                    <circle id="Oval" opacity="0.015" cx="79" cy="79" r="79"></circle>
                    <ellipse id="Oval" opacity="0.04" cx="79.4968553" cy="79.5" rx="71.5471698" ry="71.5"></ellipse>
                    <ellipse id="Oval" opacity="0.07" cx="79.4968553" cy="79.5" rx="62.6037736" ry="62.5"></ellipse>
                    <ellipse id="Oval" opacity="0.13" cx="79.4968553" cy="79" rx="43.7232704" ry="44"></ellipse>
                    <ellipse id="Oval" opacity="0.1" cx="79.4968553" cy="79" rx="19.8742138" ry="20"></ellipse>
                </g>
            </g>
            <g id="Group-39" transform="translate(41.000000, 77.000000)">
                <rect id="Rectangle" stroke="#1560BD" stroke-width="2" fill="#E5E5EA" transform="translate(55.415094, 33.732419) rotate(-270.000000) translate(-55.415094, -33.732419) " x="43.9245283" y="-11.6826758" width="22.9811321" height="90.8301887"></rect>
                <rect id="Rectangle" stroke="#1560BD" stroke-width="2" fill="#4A90E2" transform="translate(57.056604, 21.694683) rotate(-270.000000) translate(-57.056604, -21.694683) " x="55.4150943" y="-25.3619211" width="3.28301887" height="94.1132075" rx="1"></rect>
                <g id="Path" stroke-linecap="round" transform="translate(46.500000, 9.053173) scale(-1, 1) translate(-46.500000, -9.053173) ">
                    <use stroke="#1560BD" stroke-width="5" fill="#F9F9F9" fill-rule="evenodd" xlink:href="#path-1"></use>
                    <use stroke="#96BDEB" stroke-width="1.5" xlink:href="#path-1"></use>
                </g>
                <rect id="Rectangle" stroke="#1560BD" stroke-width="2" fill="#4A90E2" transform="translate(57.056604, 43.581475) rotate(-270.000000) translate(-57.056604, -43.581475) " x="55.4150943" y="-3.47512864" width="3.28301887" height="94.1132075" rx="1"></rect>
                <path d="M51.9828473,-10.5883362 L51.9828473,75.864494 L49.3962264,75.864494 L49.3962264,-10.5883362 L51.9828473,-10.5883362 Z M55.8627787,-10.5883362 L55.8627787,75.864494 L53.2761578,75.864494 L53.2761578,-10.5883362 L55.8627787,-10.5883362 Z M59.7427101,-10.5883362 L59.7427101,75.864494 L57.1560892,75.864494 L57.1560892,-10.5883362 L59.7427101,-10.5883362 Z M63.6226415,-10.5883362 L63.6226415,75.864494 L61.0360206,75.864494 L61.0360206,-10.5883362 L63.6226415,-10.5883362 Z" id="Shape" fill="#1560BD" opacity="0.2" transform="translate(56.509434, 32.638079) rotate(-270.000000) translate(-56.509434, -32.638079) "></path>
                <path d="M42.6397942,-34 L42.6397942,52.4528302 L40.0531732,52.4528302 L40.0531732,-34 L42.6397942,-34 Z M46.5197256,-34 L46.5197256,52.4528302 L43.9331046,52.4528302 L43.9331046,-34 L46.5197256,-34 Z M50.3996569,-34 L50.3996569,52.4528302 L47.813036,52.4528302 L47.813036,-34 L50.3996569,-34 Z" id="Shape" fill="#1560BD" opacity="0.2" transform="translate(45.226415, 9.226415) rotate(-270.000000) translate(-45.226415, -9.226415) "></path>
                <g id="Path" stroke-linecap="round" transform="translate(56.500000, 56.053173) scale(-1, 1) translate(-56.500000, -56.053173) ">
                    <use stroke="#1560BD" stroke-width="5" fill="#F9F9F9" fill-rule="evenodd" xlink:href="#path-2"></use>
                    <use stroke="#96BDEB" stroke-width="1.5" xlink:href="#path-2"></use>
                </g>
                <path d="M52.6397942,13 L52.6397942,99.4528302 L50.0531732,99.4528302 L50.0531732,13 L52.6397942,13 Z M56.5197256,13 L56.5197256,99.4528302 L53.9331046,99.4528302 L53.9331046,13 L56.5197256,13 Z M60.3996569,13 L60.3996569,99.4528302 L57.813036,99.4528302 L57.813036,13 L60.3996569,13 Z" id="Shape" fill="#1560BD" opacity="0.2" transform="translate(55.226415, 56.226415) rotate(-270.000000) translate(-55.226415, -56.226415) "></path>
                <polygon id="Combined-Shape" stroke="#1560BD" stroke-width="2" fill="#4A90E2" stroke-linejoin="round" points="82 7.05317324 72 7.05317324 72 29.0531732 77 23.9762502 82 29.0531732"></polygon>
            </g>
            <g id="News" transform="translate(6.000000, 53.000000)">
                <g id="Group-2" transform="translate(11.000000, 0.000000)">
                    <path d="M88,87 C88,89.209139 86.209139,91 84,91 L84,91 L6,91 C3.790861,91 2,89.209139 2,87 L2,87 L2,82 L11,82 L11,0 L88,0 Z" id="Combined-Shape" stroke="#1560BD" stroke-width="2" fill="#FFFFFF"></path>
                    <path d="M0,38 L11,38 L11,86 C11,88.7614237 8.76142375,91 6,91 L5,91 C2.23857625,91 3.38176876e-16,88.7614237 0,86 L0,38 L0,38 Z" id="Rectangle" stroke="#1560BD" stroke-width="2" fill="#D9E5F2"></path>
                    <path d="M1,85.472 L1.0456928,85.5128405 C2.03955625,86.3847345 3.32492729,86.934056 4.74046947,86.9944709 L4.97870591,86.9997733 L84,87 L84.2241536,86.9948042 L84.4508773,86.9786602 C85.3519692,86.8943998 86.1817247,86.5756525 86.8789356,86.084597 L87,85.996 L87,87 C87,88.600955 85.7424301,89.9180655 84.1505472,89.9963105 L83.9754867,90.0003005 L5,90 C2.790861,90 1,88.209139 1,86 L1,85.472 Z" id="Combined-Shape" fill="#1560BD" fill-rule="nonzero" opacity="0.119999997"></path>
                    <rect id="Rectangle" fill="#E5E5EA" x="27" y="57" width="8" height="3" rx="1.5"></rect>
                    <rect id="Rectangle" fill="#E5E5EA" x="17" y="76" width="9" height="3" rx="1.5"></rect>
                    <rect id="Rectangle" fill="#E5E5EA" x="27" y="76" width="6" height="3" rx="1.5"></rect>
                    <rect id="Rectangle" fill="#E5E5EA" x="63" y="19" width="18" height="3" rx="1.5"></rect>
                    <rect id="Rectangle" fill="#E5E5EA" x="63" y="49" width="18" height="3" rx="1.5"></rect>
                    <rect id="Rectangle" fill="#E5E5EA" x="63" y="44" width="6" height="3" rx="1.5"></rect>
                    <rect id="Rectangle" fill="#E5E5EA" x="70" y="44" width="11" height="3" rx="1.5"></rect>
                    <rect id="Rectangle" fill="#E5E5EA" x="17" y="66" width="9" height="3" rx="1.5"></rect>
                    <rect id="Rectangle" fill="#E5E5EA" x="40" y="66" width="9" height="3" rx="1.5"></rect>
                    <rect id="Rectangle" fill="#E5E5EA" x="50" y="66" width="8" height="3" rx="1.5"></rect>
                    <rect id="Rectangle" fill="#E5E5EA" x="40" y="71" width="6" height="3" rx="1.5"></rect>
                    <rect id="Rectangle" fill="#E5E5EA" x="47" y="71" width="11" height="3" rx="1.5"></rect>
                    <rect id="Rectangle" fill="#E5E5EA" x="40" y="76" width="9" height="3" rx="1.5"></rect>
                    <rect id="Rectangle" fill="#E5E5EA" x="21" y="71" width="9" height="3" rx="1.5"></rect>
                    <rect id="Rectangle" fill="#E5E5EA" x="31" y="72" width="4" height="3" rx="1.5"></rect>
                    <rect id="Rectangle" fill="#E5E5EA" x="27" y="66" width="8" height="3" rx="1.5"></rect>
                    <rect id="Rectangle" fill="#E5E5EA" x="63" y="24" width="6" height="3" rx="1.5"></rect>
                    <rect id="Rectangle" fill="#E5E5EA" x="70" y="24" width="11" height="3" rx="1.5"></rect>
                    <rect id="Rectangle" fill="#E5E5EA" x="63" y="29" width="9" height="3" rx="1.5"></rect>
                    <rect id="Rectangle" fill="#E5E5EA" x="73" y="29" width="8" height="3" rx="1.5"></rect>
                    <rect id="Rectangle" fill="#E5E5EA" x="17" y="71" width="3" height="3" rx="1.5"></rect>
                    <rect id="Rectangle" fill="#E5E5EA" x="63" y="34" width="5" height="3" rx="1.5"></rect>
                    <rect id="Rectangle" fill="#E5E5EA" x="67" y="39" width="9" height="3" rx="1.5"></rect>
                    <rect id="Rectangle" fill="#E5E5EA" x="77" y="39" width="4" height="3" rx="1.5"></rect>
                    <rect id="Rectangle" fill="#E5E5EA" x="69" y="34" width="12" height="3" rx="1.5"></rect>
                    <rect id="Rectangle" fill="#E5E5EA" x="63" y="39" width="3" height="3" rx="1.5"></rect>
                </g>
                <rect id="Rectangle" stroke="#1560BD" stroke-width="2" fill-opacity="0.12" fill="#4A90E2" x="75" y="58" width="16" height="20" rx="1"></rect>
                <rect id="Rectangle" fill="#94BDED" x="23" y="1" width="75" height="9"></rect>
                <rect id="Rectangle" fill="#1560BD" x="37" y="4" width="24" height="3" rx="1.5"></rect>
                <rect id="Rectangle" fill="#1560BD" x="27" y="4" width="7" height="3" rx="1.5"></rect>
                <polygon id="Rectangle" fill="#4A90E2" opacity="0.100000001" points="29 21 68 21 29 38"></polygon>
                <line x1="4.09344968" y1="91" x2="105.5" y2="91" id="Path-4" stroke="#1560BD" stroke-width="2" opacity="0.200000003" stroke-linecap="round"></line>
                <line x1="0" y1="91" x2="1" y2="91" id="Path-4" stroke="#1560BD" stroke-width="2" opacity="0.200000003" stroke-linecap="round"></line>
                <line x1="109" y1="91" x2="112" y2="91" id="Path-4" stroke="#1560BD" stroke-width="2" opacity="0.200000003" stroke-linecap="round"></line>
            </g>
            <g id="Group-38" transform="translate(34.000000, 72.000000)">
                <path d="M7.13043478,0 L33.8695652,0 C37.8075956,0 41,3.19240439 41,7.13043478 L41,33.8695652 C41,37.8075956 37.8075956,41 33.8695652,41 L7.13043478,41 C3.19240439,41 0,37.8075956 0,33.8695652 L0,7.13043478 C0,3.19240439 3.19240439,0 7.13043478,0 Z" id="Rectangle" fill="#1560BD"></path>
                <circle id="Oval" fill="#FFFFFF" cx="20.5" cy="20.5" r="16.9347826"></circle>
            </g>
        </g>
    </g>
</svg>