<svg width="160" height="160" viewBox="0 0 160 160" fill="none" xmlns="http://www.w3.org/2000/svg">
<g id="Group 40">
<g id="Building blocks">
<g id="Rings" opacity="0.4">
<path id="Oval" opacity="0.4" fill-rule="evenodd" clip-rule="evenodd" d="M80.1065 124.078C104.391 124.078 124.078 104.391 124.078 80.1065C124.078 55.8216 104.391 36.1348 80.1065 36.1348C55.8216 36.1348 36.1348 55.8216 36.1348 80.1065C36.1348 104.391 55.8216 124.078 80.1065 124.078Z" fill="#4A90E2" fill-opacity="0.8" stroke="#1560BD" stroke-width="2"/>
<path id="Oval_2" opacity="0.2" fill-rule="evenodd" clip-rule="evenodd" d="M80.1064 142.604C114.623 142.604 142.604 114.623 142.604 80.1064C142.604 45.5901 114.623 17.6091 80.1064 17.6091C45.5901 17.6091 17.6091 45.5901 17.6091 80.1064C17.6091 114.623 45.5901 142.604 80.1064 142.604Z" fill="#4A90E2" fill-opacity="0.8" stroke="#1560BD" stroke-width="2"/>
<path id="Oval_3" opacity="0.1" fill-rule="evenodd" clip-rule="evenodd" d="M80 151.76C119.632 151.76 151.76 119.632 151.76 80C151.76 40.368 119.632 8.23987 80 8.23987C40.368 8.23987 8.23987 40.368 8.23987 80C8.23987 119.632 40.368 151.76 80 151.76Z" fill="#4A90E2" fill-opacity="0.8" stroke="#1560BD" stroke-width="2"/>
<path id="Oval_4" opacity="0.04" fill-rule="evenodd" clip-rule="evenodd" d="M80 159C123.63 159 159 123.63 159 80C159 36.3695 123.63 1 80 1C36.3695 1 1 36.3695 1 80C1 123.63 36.3695 159 80 159Z" fill="#4A90E2" fill-opacity="0.8" stroke="#1560BD" stroke-width="2"/>
<path id="Oval_5" opacity="0.4" fill-rule="evenodd" clip-rule="evenodd" d="M80.1064 99.8032C90.9847 99.8032 99.8032 90.9847 99.8032 80.1064C99.8032 69.2282 90.9847 60.4097 80.1064 60.4097C69.2282 60.4097 60.4097 69.2282 60.4097 80.1064C60.4097 90.9847 69.2282 99.8032 80.1064 99.8032Z" fill="#4A90E2" fill-opacity="0.8" stroke="#1560BD" stroke-width="2"/>
</g>
</g>
<g id="Group 39">
<rect id="Rectangle" x="142.83" y="100.242" width="22.9811" height="90.8302" transform="rotate(90 142.83 100.242)" fill="#E5E5EA" stroke="#1560BD" stroke-width="2"/>
<rect id="Rectangle_2" x="146.113" y="98.0532" width="3.28302" height="94.1132" rx="1" transform="rotate(90 146.113 98.0532)" fill="#4A90E2" stroke="#1560BD" stroke-width="2"/>
<g id="Path">
<path fill-rule="evenodd" clip-rule="evenodd" d="M42 96.0532H129C132.314 96.0532 135 93.8553 135 91.1441V82.9623C135 80.2511 132.314 78.0532 129 78.0532H42" fill="#F9F9F9"/>
<path d="M42 96.0532H129C132.314 96.0532 135 93.8553 135 91.1441V82.9623C135 80.2511 132.314 78.0532 129 78.0532H42" stroke="#1560BD" stroke-width="5" stroke-linecap="round"/>
<path d="M42 96.0532H129C132.314 96.0532 135 93.8553 135 91.1441V82.9623C135 80.2511 132.314 78.0532 129 78.0532H42" stroke="#96BDEB" stroke-width="5" stroke-linecap="round"/>
</g>
<rect id="Rectangle_3" x="146.113" y="119.94" width="3.28302" height="94.1132" rx="1" transform="rotate(90 146.113 119.94)" fill="#4A90E2" stroke="#1560BD" stroke-width="2"/>
<path id="Shape" opacity="0.2" fill-rule="evenodd" clip-rule="evenodd" d="M141.736 106.112L55.283 106.112V103.525L141.736 103.525V106.112ZM141.736 109.991L55.283 109.991V107.405L141.736 107.405V109.991ZM141.736 113.871L55.283 113.871V111.285L141.736 111.285V113.871ZM141.736 117.751L55.283 117.751V115.165L141.736 115.165V117.751Z" fill="#1560BD"/>
<path id="Shape_2" opacity="0.2" fill-rule="evenodd" clip-rule="evenodd" d="M130.453 84.6398L44.0001 84.6398V82.0532L130.453 82.0532V84.6398ZM130.453 88.5198L44.0001 88.5198V85.9332L130.453 85.9332V88.5198ZM130.453 92.3997L44.0001 92.3997V89.8131L130.453 89.8131V92.3997Z" fill="#1560BD"/>
<g id="Path_2">
<path fill-rule="evenodd" clip-rule="evenodd" d="M52 143.053H139C142.314 143.053 145 140.855 145 138.144V129.962C145 127.251 142.314 125.053 139 125.053H52" fill="#F9F9F9"/>
<path d="M52 143.053H139C142.314 143.053 145 140.855 145 138.144V129.962C145 127.251 142.314 125.053 139 125.053H52" stroke="#1560BD" stroke-width="5" stroke-linecap="round"/>
<path d="M52 143.053H139C142.314 143.053 145 140.855 145 138.144V129.962C145 127.251 142.314 125.053 139 125.053H52" stroke="#96BDEB" stroke-width="5" stroke-linecap="round"/>
</g>
<path id="Shape_3" opacity="0.2" fill-rule="evenodd" clip-rule="evenodd" d="M140.453 131.64L54.0001 131.64V129.053L140.453 129.053V131.64ZM140.453 135.52L54.0001 135.52V132.933L140.453 132.933V135.52ZM140.453 139.4L54.0001 139.4V136.813L140.453 136.813V139.4Z" fill="#1560BD"/>
<path id="Combined Shape" fill-rule="evenodd" clip-rule="evenodd" d="M124 85.0532H114V107.053L119 101.976L124 107.053V85.0532Z" fill="#4A90E2" stroke="#1560BD" stroke-width="2" stroke-linejoin="round"/>
</g>
<g id="News">
<g id="Group 2">
<g id="Combined Shape_2">
<path fill-rule="evenodd" clip-rule="evenodd" d="M29 53H28V54V135H20H19V136V141C19 143.761 21.2386 146 24 146H102C104.761 146 107 143.761 107 141V138V137V136V135V54V53H106H29ZM105 135V55H30V135H105ZM28 137V138H29H105V141C105 142.657 103.657 144 102 144H24C22.3431 144 21 142.657 21 141V137H28Z" fill="white"/>
<path d="M28 53V52H27V53H28ZM28 135V136H29V135H28ZM19 135V134H18V135H19ZM107 53H108V52H107V53ZM105 135V136H106V135H105ZM105 55H106V54H105V55ZM30 55V54H29V55H30ZM30 135H29V136H30V135ZM28 138H27V139H28V138ZM28 137H29V136H28V137ZM105 138H106V137H105V138ZM21 137V136H20V137H21ZM28 54H29V52H28V54ZM29 54V53H27V54H29ZM29 135V54H27V135H29ZM28 134H20V136H28V134ZM20 134H19V136H20V134ZM18 135V136H20V135H18ZM18 136V141H20V136H18ZM18 141C18 144.314 20.6863 147 24 147V145C21.7909 145 20 143.209 20 141H18ZM24 147H102V145H24V147ZM102 147C105.314 147 108 144.314 108 141H106C106 143.209 104.209 145 102 145V147ZM108 141V138H106V141H108ZM108 138V137H106V138H108ZM108 137V136H106V137H108ZM108 136V135H106V136H108ZM106 54V135H108V54H106ZM106 53V54H108V53H106ZM106 54H107V52H106V54ZM29 54H106V52H29V54ZM106 135V55H104V135H106ZM105 54H30V56H105V54ZM29 55V135H31V55H29ZM105 134H30V136H105V134ZM29 138V137H27V138H29ZM29 137H28V139H29V137ZM105 137H29V139H105V137ZM104 138V141H106V138H104ZM104 141C104 142.105 103.105 143 102 143V145C104.209 145 106 143.209 106 141H104ZM102 143H24V145H102V143ZM24 143C22.8954 143 22 142.105 22 141H20C20 143.209 21.7909 145 24 145V143ZM22 141V137H20V141H22ZM21 138H28V136H21V138Z" fill="#1560BD"/>
</g>
<path id="Rectangle_4" d="M18 92H29V140C29 142.761 26.7614 145 24 145H23C20.2386 145 18 142.761 18 140V92Z" fill="#D9E5F2" stroke="#1560BD" stroke-width="2"/>
<path id="Combined Shape_3" opacity="0.12" d="M19 139.472L19.0457 139.513C20.0396 140.385 21.3249 140.934 22.7405 140.995L22.9787 141L102 141L102.224 140.995L102.451 140.979C103.352 140.894 104.182 140.576 104.879 140.085L105 139.996V141C105 142.601 103.742 143.918 102.151 143.996L101.975 144L23 144C20.7909 144 19 142.209 19 140V139.472Z" fill="#1560BD"/>
<rect id="Rectangle_5" x="45" y="111" width="8" height="3" rx="1.5" fill="#E5E5EA"/>
<rect id="Rectangle_6" x="35" y="130" width="9" height="3" rx="1.5" fill="#E5E5EA"/>
<rect id="Rectangle_7" x="45" y="130" width="6" height="3" rx="1.5" fill="#E5E5EA"/>
<rect id="Rectangle_8" x="81" y="73" width="18" height="3" rx="1.5" fill="#E5E5EA"/>
<rect id="Rectangle_9" x="81" y="103" width="18" height="3" rx="1.5" fill="#E5E5EA"/>
<rect id="Rectangle_10" x="81" y="98" width="6" height="3" rx="1.5" fill="#E5E5EA"/>
<rect id="Rectangle_11" x="88" y="98" width="11" height="3" rx="1.5" fill="#E5E5EA"/>
<rect id="Rectangle_12" x="35" y="120" width="9" height="3" rx="1.5" fill="#E5E5EA"/>
<rect id="Rectangle_13" x="58" y="120" width="9" height="3" rx="1.5" fill="#E5E5EA"/>
<rect id="Rectangle_14" x="68" y="120" width="8" height="3" rx="1.5" fill="#E5E5EA"/>
<rect id="Rectangle_15" x="58" y="125" width="6" height="3" rx="1.5" fill="#E5E5EA"/>
<rect id="Rectangle_16" x="65" y="125" width="11" height="3" rx="1.5" fill="#E5E5EA"/>
<rect id="Rectangle_17" x="58" y="130" width="9" height="3" rx="1.5" fill="#E5E5EA"/>
<rect id="Rectangle_18" x="39" y="125" width="9" height="3" rx="1.5" fill="#E5E5EA"/>
<rect id="Rectangle_19" x="49" y="126" width="4" height="3" rx="1.5" fill="#E5E5EA"/>
<rect id="Rectangle_20" x="45" y="120" width="8" height="3" rx="1.5" fill="#E5E5EA"/>
<rect id="Rectangle_21" x="81" y="78" width="6" height="3" rx="1.5" fill="#E5E5EA"/>
<rect id="Rectangle_22" x="88" y="78" width="11" height="3" rx="1.5" fill="#E5E5EA"/>
<rect id="Rectangle_23" x="81" y="83" width="9" height="3" rx="1.5" fill="#E5E5EA"/>
<rect id="Rectangle_24" x="91" y="83" width="8" height="3" rx="1.5" fill="#E5E5EA"/>
<rect id="Rectangle_25" x="35" y="125" width="3" height="3" rx="1.5" fill="#E5E5EA"/>
<rect id="Rectangle_26" x="81" y="88" width="5" height="3" rx="1.5" fill="#E5E5EA"/>
<rect id="Rectangle_27" x="85" y="93" width="9" height="3" rx="1.5" fill="#E5E5EA"/>
<rect id="Rectangle_28" x="95" y="93" width="4" height="3" rx="1.5" fill="#E5E5EA"/>
<rect id="Rectangle_29" x="87" y="88" width="12" height="3" rx="1.5" fill="#E5E5EA"/>
<rect id="Rectangle_30" x="81" y="93" width="3" height="3" rx="1.5" fill="#E5E5EA"/>
</g>
<rect id="Rectangle_31" x="82" y="112" width="16" height="20" rx="1" fill="#4A90E2" fill-opacity="0.12" stroke="#1560BD" stroke-width="2"/>
<rect id="Rectangle_32" x="30" y="55" width="75" height="9" fill="#94BDED"/>
<rect id="Rectangle_33" x="44" y="58" width="24" height="3" rx="1.5" fill="#1560BD"/>
<rect id="Rectangle_34" x="34" y="58" width="7" height="3" rx="1.5" fill="#1560BD"/>
<path id="Rectangle_35" opacity="0.1" fill-rule="evenodd" clip-rule="evenodd" d="M36 75H75L36 92V75Z" fill="#4A90E2"/>
<path id="Path 4" opacity="0.2" d="M11.0935 145H112.5" stroke="#1560BD" stroke-width="2" stroke-linecap="round"/>
<path id="Path 4_2" opacity="0.2" d="M7 145H8" stroke="#1560BD" stroke-width="2" stroke-linecap="round"/>
<path id="Path 4_3" opacity="0.2" d="M116 145H119" stroke="#1560BD" stroke-width="2" stroke-linecap="round"/>
</g>
<g id="Group 38">
<path id="Rectangle_36" fill-rule="evenodd" clip-rule="evenodd" d="M42.1304 73H68.8696C72.8076 73 76 76.1924 76 80.1304V106.87C76 110.808 72.8076 114 68.8696 114H42.1304C38.1924 114 35 110.808 35 106.87V80.1304C35 76.1924 38.1924 73 42.1304 73Z" fill="#1560BD"/>
<path id="Oval_6" fill-rule="evenodd" clip-rule="evenodd" d="M55.5 110.435C64.8528 110.435 72.4347 102.853 72.4347 93.5C72.4347 84.1471 64.8528 76.5652 55.5 76.5652C46.1471 76.5652 38.5652 84.1471 38.5652 93.5C38.5652 102.853 46.1471 110.435 55.5 110.435Z" fill="white"/>
</g>
</g>
</svg>
