<svg width="160" height="160" viewBox="0 0 160 160" fill="none" xmlns="http://www.w3.org/2000/svg">
<g id="Group 32">
<g id="Group 21">
<g id="Rings" opacity="0.4">
<path id="Oval" opacity="0.4" fill-rule="evenodd" clip-rule="evenodd" d="M80.1065 124.078C104.391 124.078 124.078 104.391 124.078 80.1065C124.078 55.8216 104.391 36.1348 80.1065 36.1348C55.8216 36.1348 36.1348 55.8216 36.1348 80.1065C36.1348 104.391 55.8216 124.078 80.1065 124.078Z" fill="#4A90E2" fill-opacity="0.8" stroke="#1560BD" stroke-width="2"/>
<path id="Oval_2" opacity="0.2" fill-rule="evenodd" clip-rule="evenodd" d="M80.1065 142.604C114.623 142.604 142.604 114.623 142.604 80.1064C142.604 45.5901 114.623 17.6091 80.1065 17.6091C45.5902 17.6091 17.6092 45.5901 17.6092 80.1064C17.6092 114.623 45.5902 142.604 80.1065 142.604Z" fill="#4A90E2" fill-opacity="0.8" stroke="#1560BD" stroke-width="2"/>
<path id="Oval_3" opacity="0.1" fill-rule="evenodd" clip-rule="evenodd" d="M80 151.76C119.632 151.76 151.76 119.632 151.76 80C151.76 40.368 119.632 8.23987 80 8.23987C40.368 8.23987 8.23987 40.368 8.23987 80C8.23987 119.632 40.368 151.76 80 151.76Z" fill="#4A90E2" fill-opacity="0.8" stroke="#1560BD" stroke-width="2"/>
<path id="Oval_4" opacity="0.04" fill-rule="evenodd" clip-rule="evenodd" d="M80 159C123.63 159 159 123.63 159 80C159 36.3695 123.63 1 80 1C36.3695 1 1 36.3695 1 80C1 123.63 36.3695 159 80 159Z" fill="#4A90E2" fill-opacity="0.8" stroke="#1560BD" stroke-width="2"/>
<path id="Oval_5" opacity="0.4" fill-rule="evenodd" clip-rule="evenodd" d="M80.1065 99.8032C90.9847 99.8032 99.8033 90.9847 99.8033 80.1064C99.8033 69.2282 90.9847 60.4097 80.1065 60.4097C69.2283 60.4097 60.4097 69.2282 60.4097 80.1064C60.4097 90.9847 69.2283 99.8032 80.1065 99.8032Z" fill="#4A90E2" fill-opacity="0.8" stroke="#1560BD" stroke-width="2"/>
</g>
<g id="Group 20" opacity="0.5">
<rect id="Rectangle" x="91" y="34" width="45" height="43" fill="#4A90E2" fill-opacity="0.12" stroke="#1560BD" stroke-width="2"/>
<rect id="Rectangle_2" x="84" y="27" width="59" height="57" fill="white" fill-opacity="0.12" stroke="#1560BD" stroke-width="2"/>
<path id="Rectangle_3" opacity="0.1" fill-rule="evenodd" clip-rule="evenodd" d="M93 35H135L93 69V35Z" fill="#4A90E2"/>
</g>
<path id="Path 4" opacity="0.2" d="M48.0934 148.5H149.5" stroke="#1560BD" stroke-width="2" stroke-linecap="round"/>
<path id="Path 4_2" opacity="0.2" d="M44 148.5H45" stroke="#1560BD" stroke-width="2" stroke-linecap="round"/>
<path id="Path 4_3" opacity="0.2" d="M153 148.5H156" stroke="#1560BD" stroke-width="2" stroke-linecap="round"/>
</g>
<g id="Group 15">
<rect id="Rectangle_4" x="62.5849" y="40.7548" width="22.9811" height="90.8302" stroke="#1560BD" stroke-width="2"/>
<g id="Group 13">
<rect id="Rectangle_5" x="36.3207" y="32" width="22.9811" height="99.5849" rx="1" fill="#A6CFFF" stroke="#1560BD" stroke-width="2"/>
<rect id="Rectangle_6" opacity="0.2" x="36.3207" y="39.6604" width="22.9811" height="68.9434" stroke="#1560BD" stroke-width="2"/>
<rect id="Rectangle_7" opacity="0.2" width="22.9811" height="9.84906" transform="matrix(1 0 0 -1 36.3207 123.925)" stroke="#1560BD" stroke-width="2"/>
<rect id="Rectangle_8" opacity="0.2" x="37.4151" y="33.0944" width="3.28302" height="97.3962" fill="white"/>
<rect id="Rectangle_9" opacity="0.2" x="54.9245" y="33.0944" width="3.28302" height="97.3962" fill="#1560BD"/>
<path id="Oval_6" opacity="0.5" fill-rule="evenodd" clip-rule="evenodd" d="M47.8113 56.0755C51.1354 56.0755 53.8302 53.3807 53.8302 50.0566C53.8302 46.7325 51.1354 44.0377 47.8113 44.0377C44.4872 44.0377 41.7924 46.7325 41.7924 50.0566C41.7924 53.3807 44.4872 56.0755 47.8113 56.0755Z" stroke="white" stroke-width="2"/>
<rect id="Rectangle_10" opacity="0.5" x="46.1698" y="61.5471" width="2.18868" height="21.8868" rx="1" fill="white"/>
<rect id="Rectangle_11" opacity="0.5" x="49.4528" y="61.5471" width="3.28302" height="26.2642" rx="1.5" fill="white"/>
<rect id="Rectangle_12" opacity="0.5" x="42.8868" y="61.5471" width="2.18868" height="32.8302" rx="1" fill="white"/>
<path id="Oval_7" fill-rule="evenodd" clip-rule="evenodd" d="M47.8113 52.7925C49.3223 52.7925 50.5471 51.5676 50.5471 50.0566C50.5471 48.5457 49.3223 47.3208 47.8113 47.3208C46.3003 47.3208 45.0754 48.5457 45.0754 50.0566C45.0754 51.5676 46.3003 52.7925 47.8113 52.7925Z" stroke="white" stroke-width="2"/>
</g>
<rect id="Rectangle_13" x="60.3962" y="37.4717" width="3.28302" height="94.1132" rx="1" fill="#4A90E2" stroke="#1560BD" stroke-width="2"/>
<rect id="Rectangle_14" x="82.283" y="37.4717" width="3.28302" height="94.1132" rx="1" fill="#4A90E2" stroke="#1560BD" stroke-width="2"/>
<path id="Shape" opacity="0.2" fill-rule="evenodd" clip-rule="evenodd" d="M68.4545 41.849V128.302H65.8679V41.849H68.4545ZM72.3345 41.849V128.302H69.7479V41.849H72.3345ZM76.2144 41.849V128.302H73.6278V41.849H76.2144ZM80.0943 41.849V128.302H77.5077V41.849H80.0943Z" fill="#1560BD"/>
<g id="Group 14">
<g id="Group 13_2">
<rect id="Rectangle_15" x="85.9779" y="39.6654" width="21.2134" height="91.9245" rx="1" transform="rotate(-5 85.9779 39.6654)" fill="#D0E6FF" stroke="#1560BD" stroke-width="2"/>
<rect id="Rectangle_16" opacity="0.2" x="86.5942" y="46.7096" width="21.2134" height="63.6401" transform="rotate(-5 86.5942 46.7096)" stroke="#1560BD" stroke-width="2"/>
<rect id="Rectangle_17" opacity="0.2" x="87.0723" y="40.5837" width="3.03048" height="89.9042" transform="rotate(-5 87.0723 40.5837)" fill="white"/>
<rect id="Rectangle_18" opacity="0.2" x="104.18" y="39.087" width="2.02032" height="89.9042" transform="rotate(-5 104.18 39.087)" fill="#1560BD"/>
<rect id="Rectangle_19" opacity="0.5" x="102.229" y="74.7483" width="2.02032" height="14.1422" rx="1.01016" transform="rotate(-5 102.229 74.7483)" fill="white"/>
<rect id="Rectangle_20" opacity="0.5" x="103.638" y="90.8492" width="2.02032" height="4.04064" rx="1.01016" transform="rotate(-5 103.638 90.8492)" fill="white"/>
<rect id="Rectangle_21" opacity="0.5" x="95.1853" y="75.3645" width="2.02032" height="13.1321" rx="1" transform="rotate(-5 95.1853 75.3645)" fill="white"/>
</g>
<rect id="Rectangle_22" opacity="0.2" x="87.0723" y="40.5837" width="2.02032" height="89.9042" transform="rotate(-5 87.0723 40.5837)" fill="#1560BD"/>
<rect id="Rectangle_23" opacity="0.5" x="98.2042" y="75.1003" width="2.02032" height="26.2642" rx="1" transform="rotate(-5 98.2042 75.1003)" fill="white"/>
<g id="Rectangle_24">
<mask id="path-35-inside-1" fill="white">
<rect x="92.8962" y="49.2003" width="9.09144" height="20.2032" rx="1" transform="rotate(-5 92.8962 49.2003)"/>
</mask>
<rect x="92.8962" y="49.2003" width="9.09144" height="20.2032" rx="1" transform="rotate(-5 92.8962 49.2003)" stroke="white" stroke-width="4" mask="url(#path-35-inside-1)"/>
</g>
<g id="Rectangle_25">
<mask id="path-36-inside-2" fill="white">
<rect x="98.5308" y="113.604" width="9.09144" height="8.08128" rx="1" transform="rotate(-5 98.5308 113.604)"/>
</mask>
<rect x="98.5308" y="113.604" width="9.09144" height="8.08128" rx="1" transform="rotate(-5 98.5308 113.604)" stroke="white" stroke-width="4" mask="url(#path-36-inside-2)"/>
</g>
</g>
<g id="Group 12">
<path id="Rectangle_26" fill-rule="evenodd" clip-rule="evenodd" d="M25.3774 136.462C25.3774 136.186 25.6012 135.962 25.8774 135.962H34.5126C34.8596 135.962 35.1011 136.307 34.9825 136.633L30.9688 147.671C30.8969 147.868 30.7091 148 30.4989 148H25.8774C25.6012 148 25.3774 147.776 25.3774 147.5V136.462Z" fill="#4A90E2" stroke="#1560BD" stroke-width="2"/>
<path id="Rectangle_27" fill-rule="evenodd" clip-rule="evenodd" d="M143.566 136.462C143.566 136.186 143.342 135.962 143.066 135.962H134.431C134.084 135.962 133.842 136.307 133.961 136.633L137.975 147.671C138.047 147.868 138.234 148 138.445 148H143.066C143.342 148 143.566 147.776 143.566 147.5V136.462Z" fill="#4A90E2" stroke="#1560BD" stroke-width="2"/>
<rect id="Rectangle_28" x="21" y="129.396" width="126.943" height="12.0377" rx="0.5" fill="#4A90E2" stroke="#1560BD" stroke-width="2"/>
<rect id="Rectangle_29" x="22.0944" y="130.491" width="124.755" height="2.18868" fill="#7CB3F4"/>
</g>
</g>
<g id="Group 33" clip-path="url(#clip0)">
<path id="Oval_8" fill-rule="evenodd" clip-rule="evenodd" d="M111.666 148C131.548 148 147.666 131.882 147.666 112C147.666 92.1177 131.548 76 111.666 76C91.7833 76 75.6655 92.1177 75.6655 112C75.6655 131.882 91.7833 148 111.666 148Z" fill="white" stroke="#1560BD" stroke-width="2"/>
<g id="Combined Shape" opacity="0.24">
<path fill-rule="evenodd" clip-rule="evenodd" d="M111.666 96C100.596 96 90.6927 93.2242 84.0889 88.8572C78.8319 95.1148 75.6655 103.188 75.6655 112C75.6655 120.812 78.8319 128.885 84.0889 135.143C90.6927 130.776 100.596 128 111.666 128C122.735 128 132.638 130.776 139.242 135.143C144.499 128.885 147.666 120.812 147.666 112C147.666 103.188 144.499 95.1148 139.242 88.8572C132.638 93.2242 122.735 96 111.666 96Z" fill="white"/>
<path d="M84.0889 88.8572L84.6405 88.023L83.8968 87.5312L83.3233 88.2139L84.0889 88.8572ZM84.0889 135.143L83.3233 135.786L83.8968 136.469L84.6405 135.977L84.0889 135.143ZM139.242 135.143L138.691 135.977L139.434 136.469L140.008 135.786L139.242 135.143ZM139.242 88.8572L140.008 88.2139L139.434 87.5312L138.691 88.023L139.242 88.8572ZM83.5373 89.6913C90.3414 94.1908 100.449 97 111.666 97V95C100.743 95 91.0441 92.2577 84.6405 88.023L83.5373 89.6913ZM76.6655 112C76.6655 103.432 79.7432 95.5846 84.8546 89.5004L83.3233 88.2139C77.9205 94.645 74.6655 102.944 74.6655 112H76.6655ZM84.8546 134.5C79.7432 128.415 76.6655 120.568 76.6655 112H74.6655C74.6655 121.056 77.9205 129.355 83.3233 135.786L84.8546 134.5ZM111.666 127C100.449 127 90.3414 129.809 83.5373 134.309L84.6405 135.977C91.0441 131.742 100.743 129 111.666 129V127ZM139.794 134.309C132.99 129.809 122.882 127 111.666 127V129C122.588 129 132.287 131.742 138.691 135.977L139.794 134.309ZM146.666 112C146.666 120.568 143.588 128.415 138.476 134.5L140.008 135.786C145.411 129.355 148.666 121.056 148.666 112H146.666ZM138.476 89.5004C143.588 95.5846 146.666 103.432 146.666 112H148.666C148.666 102.944 145.411 94.645 140.008 88.2139L138.476 89.5004ZM111.666 97C122.882 97 132.99 94.1908 139.794 89.6913L138.691 88.023C132.287 92.2577 122.588 95 111.666 95V97Z" fill="#1560BD"/>
</g>
<path id="Oval_9" opacity="0.24" fill-rule="evenodd" clip-rule="evenodd" d="M111.666 148C122.711 148 131.666 131.882 131.666 112C131.666 92.1177 122.711 76 111.666 76C100.62 76 91.6655 92.1177 91.6655 112C91.6655 131.882 100.62 148 111.666 148Z" stroke="#1560BD" stroke-width="2"/>
<g id="Path 7" opacity="0.24">
<path fill-rule="evenodd" clip-rule="evenodd" d="M75.6655 112H147.269H75.6655Z" fill="#D8D8D8"/>
<path d="M75.6655 112H147.269" stroke="#1560BD" stroke-width="2"/>
</g>
<g id="Path 7_2" opacity="0.24">
<path fill-rule="evenodd" clip-rule="evenodd" d="M111.5 76.1655V147.769V76.1655Z" fill="#D8D8D8"/>
<path d="M111.5 76.1655V147.769" stroke="#1560BD" stroke-width="2"/>
</g>
<rect id="Rectangle_30" x="87.6655" y="102" width="49" height="21" fill="white"/>
<path id="WIKI" d="M107.742 106.251C107.831 105.998 107.97 105.808 108.16 105.681C108.363 105.554 108.584 105.491 108.825 105.491C109.129 105.491 109.389 105.586 109.604 105.776C109.832 105.966 109.946 106.219 109.946 106.536C109.946 106.65 109.914 106.815 109.851 107.03L105.766 118.335C105.665 118.588 105.494 118.785 105.253 118.924C105.025 119.063 104.772 119.133 104.493 119.133C104.214 119.133 103.955 119.063 103.714 118.924C103.473 118.785 103.309 118.588 103.22 118.335L100.066 109.386L96.855 118.335C96.7536 118.588 96.5826 118.785 96.342 118.924C96.114 119.063 95.8606 119.133 95.582 119.133C95.3033 119.133 95.0436 119.063 94.803 118.924C94.575 118.785 94.4166 118.588 94.328 118.335L90.243 107.03C90.1796 106.84 90.148 106.675 90.148 106.536C90.148 106.219 90.262 105.966 90.49 105.776C90.7306 105.586 91.0093 105.491 91.326 105.491C91.5793 105.491 91.8073 105.554 92.01 105.681C92.2126 105.808 92.3583 105.998 92.447 106.251L95.677 115.542L99.002 106.308C99.0906 106.055 99.2363 105.858 99.439 105.719C99.6416 105.567 99.8633 105.491 100.104 105.491C100.345 105.491 100.566 105.567 100.769 105.719C100.984 105.858 101.136 106.061 101.225 106.327L104.455 115.656L107.742 106.251ZM113.259 119.114C112.891 119.114 112.594 119 112.366 118.772C112.15 118.544 112.043 118.246 112.043 117.879V106.726C112.043 106.359 112.15 106.067 112.366 105.852C112.594 105.624 112.891 105.51 113.259 105.51C113.639 105.51 113.936 105.624 114.152 105.852C114.38 106.067 114.494 106.359 114.494 106.726V117.879C114.494 118.246 114.38 118.544 114.152 118.772C113.936 119 113.639 119.114 113.259 119.114ZM127.779 117.157C128.033 117.398 128.159 117.67 128.159 117.974C128.159 118.265 128.045 118.525 127.817 118.753C127.602 118.968 127.342 119.076 127.038 119.076C126.722 119.076 126.43 118.943 126.164 118.677L119.837 112.749V117.879C119.837 118.246 119.723 118.544 119.495 118.772C119.28 119 118.982 119.114 118.602 119.114C118.235 119.114 117.937 119 117.709 118.772C117.494 118.544 117.386 118.246 117.386 117.879V106.726C117.386 106.359 117.494 106.067 117.709 105.852C117.937 105.624 118.235 105.51 118.602 105.51C118.982 105.51 119.28 105.624 119.495 105.852C119.723 106.067 119.837 106.359 119.837 106.726V111.609L125.955 105.871C126.183 105.643 126.443 105.529 126.734 105.529C127.026 105.529 127.279 105.643 127.494 105.871C127.722 106.086 127.836 106.34 127.836 106.631C127.836 106.922 127.71 107.188 127.456 107.429L122.345 112.103L127.779 117.157ZM131.145 119.114C130.778 119.114 130.48 119 130.252 118.772C130.037 118.544 129.929 118.246 129.929 117.879V106.726C129.929 106.359 130.037 106.067 130.252 105.852C130.48 105.624 130.778 105.51 131.145 105.51C131.525 105.51 131.823 105.624 132.038 105.852C132.266 106.067 132.38 106.359 132.38 106.726V117.879C132.38 118.246 132.266 118.544 132.038 118.772C131.823 119 131.525 119.114 131.145 119.114Z" fill="#1560BD"/>
</g>
</g>
<defs>
<clipPath id="clip0">
<rect width="73" height="72" fill="white" transform="translate(75 76)"/>
</clipPath>
</defs>
</svg>
