<svg width="147" height="147" viewBox="0 0 147 147" fill="none" xmlns="http://www.w3.org/2000/svg">
<g id="Group 35">
<g id="Rings" opacity="0.4">
<path id="Oval" opacity="0.4" fill-rule="evenodd" clip-rule="evenodd" d="M73.5 114C95.8675 114 114 95.8675 114 73.5C114 51.1325 95.8675 33 73.5 33C51.1325 33 33 51.1325 33 73.5C33 95.8675 51.1325 114 73.5 114Z" fill="#4A90E2" fill-opacity="0.8" stroke="#1560BD" stroke-width="2"/>
<path id="Oval_2" opacity="0.2" fill-rule="evenodd" clip-rule="evenodd" d="M73.5 131C105.256 131 131 105.256 131 73.5C131 41.7436 105.256 16 73.5 16C41.7436 16 16 41.7436 16 73.5C16 105.256 41.7436 131 73.5 131Z" fill="#4A90E2" fill-opacity="0.8" stroke="#1560BD" stroke-width="2"/>
<path id="Oval_3" opacity="0.1" fill-rule="evenodd" clip-rule="evenodd" d="M74 139C110.451 139 140 109.451 140 73C140 36.5492 110.451 7 74 7C37.5492 7 8 36.5492 8 73C8 109.451 37.5492 139 74 139Z" fill="#4A90E2" fill-opacity="0.8" stroke="#1560BD" stroke-width="2"/>
<path id="Oval_4" opacity="0.04" fill-rule="evenodd" clip-rule="evenodd" d="M73.5 146C113.541 146 146 113.541 146 73.5C146 33.4594 113.541 1 73.5 1C33.4594 1 1 33.4594 1 73.5C1 113.541 33.4594 146 73.5 146Z" fill="#4A90E2" fill-opacity="0.8" stroke="#1560BD" stroke-width="2"/>
<path id="Oval_5" opacity="0.4" fill-rule="evenodd" clip-rule="evenodd" d="M74 92C83.9411 92 92 83.9411 92 74C92 64.0589 83.9411 56 74 56C64.0589 56 56 64.0589 56 74C56 83.9411 64.0589 92 74 92Z" fill="#4A90E2" fill-opacity="0.8" stroke="#1560BD" stroke-width="2"/>
</g>
<g id="Group 4" opacity="0.5">
<rect id="Rectangle" x="3" y="39" width="33" height="42" rx="2" fill="white" stroke="#1560BD" stroke-width="2"/>
<rect id="Rectangle_2" x="3" y="42" width="33" height="32" fill="#4A90E2" fill-opacity="0.12" stroke="#1560BD" stroke-width="2"/>
<path id="Rectangle_3" opacity="0.1" fill-rule="evenodd" clip-rule="evenodd" d="M4 43H35L4 68V43Z" fill="#4A90E2"/>
<path id="Oval_6" d="M20 77.5C20 77.7761 19.7761 78 19.5 78C19.2239 78 19 77.7761 19 77.5C19 77.2239 19.2239 77 19.5 77C19.7761 77 20 77.2239 20 77.5Z" fill="#4A90E2" stroke="#1560BD" stroke-width="2"/>
</g>
<g id="Group 6">
<g id="Group 5">
<g id="Group 4_2">
<rect id="Rectangle_4" x="15.1025" y="50" width="97.2308" height="79" rx="2" fill="white" stroke="#1560BD" stroke-width="2"/>
<rect id="Rectangle_5" x="18" y="53" width="91" height="65" fill="#4A90E2" fill-opacity="0.12" stroke="#1560BD" stroke-width="2"/>
<rect id="Rectangle_6" x="27" y="62" width="76" height="32" rx="1" fill="white"/>
<path id="Rectangle_7" opacity="0.1" fill-rule="evenodd" clip-rule="evenodd" d="M18 53H110V56L18 105.667V53Z" fill="#4A90E2"/>
<path id="Rectangle_8" d="M7 120.897H122.462V125C122.462 127.209 120.671 129 118.462 129H11C8.79086 129 7 127.209 7 125V120.897Z" fill="#C1DAF9" stroke="#1560BD" stroke-width="2"/>
<path id="Rectangle_9" d="M48 120.897H80C80 122.554 78.6569 123.897 77 123.897H51C49.3431 123.897 48 122.554 48 120.897Z" fill="#4A90E2"/>
<rect id="Rectangle_10" opacity="0.12" x="18" y="53" width="92" height="3" fill="#1560BD"/>
<path id="Rectangle_11" fill-rule="evenodd" clip-rule="evenodd" d="M18 108.859L110 58V64.0769V66.1026L18 116.962V108.859Z" fill="#4A90E2" fill-opacity="0.12"/>
</g>
</g>
</g>
<g id="Group 34">
<rect id="Rectangle_12" x="96.2906" y="58.9268" width="5.24487" height="18.7941" fill="#4A90E2" stroke="#1560BD" stroke-width="2"/>
<path id="Rectangle_13" fill-rule="evenodd" clip-rule="evenodd" d="M99.7872 58.9269L122.078 49.4471V87.2007L99.7872 77.721V58.9269Z" fill="#E5E5EA" stroke="#1560BD" stroke-width="2"/>
<path id="Combined Shape" fill-rule="evenodd" clip-rule="evenodd" d="M101.681 60.7073V69.5063H121.271V52.0458L101.681 60.7073Z" fill="white"/>
<rect id="Rectangle_14" x="121.204" y="48" width="3.05951" height="40.6477" rx="1.52975" fill="#4A90E2" stroke="#1560BD" stroke-width="2"/>
<path id="Rectangle_15" fill-rule="evenodd" clip-rule="evenodd" d="M81.0676 75.0985H88.4978C89.222 75.0985 90.0027 75.6856 90.2415 76.4097L96.8735 96.5151C97.1124 97.2392 96.719 97.8263 95.9948 97.8263H88.5646C87.8404 97.8263 87.0597 97.2392 86.8208 96.5151L80.1889 76.4097C79.95 75.6856 80.3434 75.0985 81.0676 75.0985Z" fill="#E5E5EA" stroke="#1560BD" stroke-width="2"/>
<rect id="Rectangle_16" x="74" y="61.5492" width="8.30437" height="13.5492" rx="4.15219" fill="#E3F0FF" stroke="#1560BD" stroke-width="2"/>
<path id="Path 14" fill-rule="evenodd" clip-rule="evenodd" d="M79.6819 78.6228L80.8934 83.6117L90.9663 79.7837L93.1195 85.9528H97.2407L95.0211 77.7209L79.6819 78.6228Z" fill="#A4C5EA" stroke="#1560BD" stroke-width="2" stroke-linejoin="round"/>
<rect id="Rectangle_17" x="77.4966" y="58.0526" width="19.6683" height="20.5424" rx="3" fill="#4A90E2" stroke="#1560BD" stroke-width="2"/>
<path id="Rectangle_18" d="M94.1648 59.0526L94.3141 59.0581C95.3489 59.1344 96.1648 59.9983 96.1648 61.0526L96.164 68.438H78.496L78.4965 61.0526C78.4965 59.948 79.392 59.0526 80.4965 59.0526H94.1648Z" fill="#A4C5EA"/>
<rect id="Rectangle_19" x="79.6819" y="60.675" width="14.8605" height="3.49658" rx="1.74829" fill="white"/>
</g>
<g id="g4165">
<path id="path4167" fill-rule="evenodd" clip-rule="evenodd" d="M63.3555 88.1388H63.3362C63.1945 88.3772 63.0044 88.5639 62.7661 88.6992C62.5278 88.8344 62.2508 88.9021 61.9352 88.9021C61.6582 88.9021 61.3909 88.8554 61.1332 88.762C60.8756 88.6687 60.6469 88.5253 60.4472 88.332C60.2476 88.1388 60.0881 87.8892 59.9689 87.5832C59.8498 87.2773 59.7902 86.9117 59.7902 86.4866V84.0614H60.94V86.4866C60.94 86.9439 61.0495 87.282 61.2685 87.5011C61.4875 87.7201 61.7806 87.8296 62.1477 87.8296C62.502 87.8296 62.7919 87.7169 63.0173 87.4914C63.2428 87.266 63.3555 86.931 63.3555 86.4866V84.0614H64.5053V88.6702C64.5053 89.0889 64.4441 89.4448 64.3217 89.7379C64.1993 90.031 64.0302 90.2709 63.8145 90.4577C63.5987 90.6445 63.3458 90.7814 63.056 90.8683C62.7661 90.9553 62.4569 90.9988 62.1284 90.9988C61.8514 90.9988 61.5889 90.9666 61.341 90.9022C61.093 90.8377 60.8675 90.7379 60.6646 90.6026C60.4617 90.4674 60.2878 90.2967 60.1429 90.0905C59.9979 89.8844 59.8932 89.6397 59.8288 89.3562H60.9786C61.1654 89.7878 61.5487 90.0036 62.1284 90.0036C62.5214 90.0036 62.8241 89.9021 63.0367 89.6992C63.2493 89.4964 63.3555 89.163 63.3555 88.6992V88.1388ZM55.0654 81.9744H53.9156V86.4093C53.9156 86.7957 53.9784 87.1468 54.1041 87.4624C54.2297 87.7781 54.4036 88.047 54.6258 88.2692C54.8481 88.4915 55.1153 88.6622 55.4278 88.7813C55.7402 88.9005 56.0864 88.9601 56.4664 88.9601C56.84 88.9601 57.1846 88.8973 57.5003 88.7717C57.8159 88.6461 58.088 88.4722 58.3167 88.2499C58.5454 88.0277 58.7226 87.762 58.8482 87.4528C58.9738 87.1436 59.0365 86.8086 59.0365 86.4479C59.0365 86.0228 58.9673 85.654 58.8288 85.3416C58.6903 85.0292 58.51 84.7684 58.2877 84.559C58.0655 84.3496 57.8127 84.1934 57.5292 84.0904C57.2458 83.9873 56.9624 83.9358 56.679 83.9358C56.3183 83.9358 56.001 84.0066 55.7273 84.1484C55.4535 84.2901 55.2394 84.4833 55.0847 84.728H55.0654V81.9744ZM57.4906 87.4866C57.2329 87.754 56.8915 87.8876 56.4664 87.8876C56.0413 87.8876 55.7015 87.754 55.4471 87.4866C55.1926 87.2193 55.0654 86.8731 55.0654 86.4479C55.0654 86.0228 55.1926 85.6765 55.4471 85.4093C55.7015 85.1419 56.0413 85.0083 56.4664 85.0083C56.8915 85.0083 57.2329 85.1419 57.4906 85.4093C57.7483 85.6765 57.8771 86.0228 57.8771 86.4479C57.8771 86.8731 57.7483 87.2193 57.4906 87.4866ZM69.3702 87.8635C69.4636 87.6154 69.5103 87.3272 69.5103 86.9987V86.8731H68.3605V86.9987C68.3605 87.3272 68.2864 87.5575 68.1383 87.6895C67.9901 87.8216 67.7969 87.8876 67.5585 87.8876C67.3202 87.8876 67.127 87.8199 66.9788 87.6847C66.8306 87.5494 66.7566 87.3207 66.7566 86.9987V85.1048H69.2204V84.0614H66.7566V82.4671H65.6068V86.9987C65.6068 87.3272 65.6535 87.6154 65.7469 87.8635C65.8403 88.1114 65.974 88.316 66.1479 88.477C66.3218 88.638 66.5279 88.7588 66.7662 88.8393C67.0045 88.9198 67.2687 88.9601 67.5585 88.9601C67.8484 88.9601 68.1125 88.9198 68.3508 88.8393C68.5892 88.7588 68.7953 88.638 68.9692 88.477C69.1431 88.316 69.2768 88.1114 69.3702 87.8635ZM71.2591 86.8537V86.8731C71.3364 87.1951 71.4926 87.4496 71.7277 87.6364C71.9629 87.8232 72.2607 87.9166 72.6215 87.9166C73.1368 87.9166 73.5136 87.7652 73.752 87.4624H74.979C74.7987 87.9197 74.5023 88.2837 74.0901 88.5543C73.6779 88.8248 73.1883 88.9601 72.6215 88.9601C72.2414 88.9601 71.8952 88.8973 71.5828 88.7717C71.2704 88.6461 70.9998 88.4722 70.7712 88.2499C70.5425 88.0277 70.3654 87.762 70.2398 87.4528C70.1142 87.1436 70.0513 86.8086 70.0513 86.4479C70.0513 86.0872 70.1142 85.7522 70.2398 85.4431C70.3654 85.1339 70.5425 84.8682 70.7712 84.6459C70.9998 84.4237 71.2704 84.2498 71.5828 84.1242C71.8952 83.9986 72.2414 83.9358 72.6215 83.9358C72.9951 83.9358 73.3397 83.9986 73.6553 84.1242C73.9709 84.2498 74.2399 84.4237 74.4621 84.6459C74.6843 84.8682 74.8583 85.1339 74.9838 85.4431C75.1094 85.7522 75.1723 86.0872 75.1723 86.4479V86.8537H71.2591ZM71.7664 85.2306C71.995 85.063 72.2801 84.9793 72.6215 84.9793C72.9565 84.9793 73.2399 85.063 73.4717 85.2306C73.7037 85.398 73.8646 85.6267 73.9549 85.9165V85.9358H71.2881V85.9165C71.3783 85.6267 71.5377 85.398 71.7664 85.2306Z" fill="#456C91"/>
<path id="path4169" fill-rule="evenodd" clip-rule="evenodd" d="M42.4314 66.1042C48.7418 66.1042 53.8593 71.2217 53.8593 77.5321C53.8593 83.8425 48.7418 88.9601 42.4314 88.9601C36.121 88.9601 31.0034 83.8425 31.0034 77.5321C31.0034 71.2217 36.121 66.1042 42.4314 66.1042ZM42.4314 67.353C48.0522 67.353 52.6104 71.9113 52.6104 77.5321C52.6104 83.1529 48.0522 87.7112 42.4314 87.7112C36.8106 87.7112 32.2523 83.1529 32.2523 77.5321C32.2523 71.9113 36.8106 67.353 42.4314 67.353Z" fill="#456C91"/>
</g>
<rect id="Rectangle_20" x="26" y="99" width="37" height="3" rx="1.5" fill="#1560BD" fill-opacity="0.24"/>
<rect id="Rectangle_21" x="26" y="104" width="12" height="3" rx="1.5" fill="#1560BD" fill-opacity="0.22"/>
<rect id="Rectangle_22" x="40" y="104" width="23" height="3" rx="1.5" fill="#1560BD" fill-opacity="0.22"/>
<rect id="Rectangle_23" x="26" y="109" width="19" height="3" rx="1.5" fill="#1560BD" fill-opacity="0.22"/>
<rect id="Rectangle_24" x="67" y="99" width="16" height="3" rx="1.5" fill="#1560BD" fill-opacity="0.24"/>
<rect id="Rectangle_25" x="67" y="104" width="12" height="3" rx="1.5" fill="#1560BD" fill-opacity="0.22"/>
<rect id="Rectangle_26" x="67" y="109" width="19" height="3" rx="1.5" fill="#1560BD" fill-opacity="0.22"/>
<rect id="Rectangle_27" x="47" y="109" width="16" height="3" rx="1.5" fill="#1560BD" fill-opacity="0.22"/>
</g>
</svg>
