<?xml version="1.0" encoding="UTF-8"?>
<svg width="160px" height="160px" viewBox="0 0 160 160" version="1.1" xmlns="http://www.w3.org/2000/svg" xmlns:xlink="http://www.w3.org/1999/xlink">
    <title>icon 10</title>
    <defs>
        <rect id="path-1" x="42" y="40" width="58" height="107" rx="6"></rect>
    </defs>
    <g id="Illustration" stroke="none" stroke-width="1" fill="none" fill-rule="evenodd">
        <g id="icon-10" transform="translate(1.000000, 1.000000)">
            <g id="Group" transform="translate(0.000000, -0.000000)" fill="#4A90E2" fill-opacity="0.8" stroke="#1560BD" stroke-width="2">
                <g id="rings">
                    <circle id="Oval" opacity="0.015" cx="79" cy="79" r="79"></circle>
                    <ellipse id="Oval" opacity="0.04" cx="79.4968553" cy="79.5" rx="71.5471698" ry="71.5"></ellipse>
                    <ellipse id="Oval" opacity="0.07" cx="79.4968553" cy="79.5" rx="62.6037736" ry="62.5"></ellipse>
                    <ellipse id="Oval" opacity="0.13" cx="79.4968553" cy="79" rx="43.7232704" ry="44"></ellipse>
                    <ellipse id="Oval" opacity="0.1" cx="79.4968553" cy="79" rx="19.8742138" ry="20"></ellipse>
                </g>
            </g>
            <g id="Group-31" opacity="0.5" transform="translate(12.000000, 56.000000)">
                <path d="M30,0 C32.209139,-4.05812251e-16 34,1.790861 34,4 L34,20 C34,22.209139 32.209139,24 30,24 L25,24 L25,31 L18,24 L4,24 C1.790861,24 2.705415e-16,22.209139 0,20 L0,4 C-2.705415e-16,1.790861 1.790861,4.05812251e-16 4,0 L30,0 Z" id="Combined-Shape" stroke="#1560BD" stroke-width="2" fill="#FFFFFF" stroke-linejoin="round"></path>
                <rect id="Rectangle" fill="#4A90E2" x="5" y="6" width="24" height="2" rx="1"></rect>
                <rect id="Rectangle" fill="#4A90E2" x="5" y="11" width="24" height="2" rx="1"></rect>
                <rect id="Rectangle" fill="#4A90E2" x="5" y="16" width="18" height="2" rx="1"></rect>
            </g>
            <g id="Group-31" opacity="0.5" transform="translate(114.000000, 56.500000) scale(-1, 1) translate(-114.000000, -56.500000) translate(97.000000, 46.000000)">
                <path d="M30,0 C32.209139,-4.05812251e-16 34,1.790861 34,4 L34,10 C34,12.209139 32.209139,14 30,14 L25,14 L25,21 L18,14 L4,14 C1.790861,14 2.705415e-16,12.209139 0,10 L0,4 C-2.705415e-16,1.790861 1.790861,4.05812251e-16 4,0 L30,0 Z" id="Combined-Shape" stroke="#1560BD" stroke-width="2" fill="#FFFFFF" stroke-linejoin="round"></path>
                <rect id="Rectangle" fill="#4A90E2" x="5" y="6" width="18" height="2" rx="1"></rect>
            </g>
            <line x1="25.0934497" y1="147" x2="105" y2="147" id="Path-4" stroke="#1560BD" stroke-width="2" opacity="0.200000003" stroke-linecap="round"></line>
            <line x1="21" y1="147" x2="22" y2="147" id="Path-4" stroke="#1560BD" stroke-width="2" opacity="0.200000003" stroke-linecap="round"></line>
            <line x1="108" y1="147" x2="111" y2="147" id="Path-4" stroke="#1560BD" stroke-width="2" opacity="0.200000003" stroke-linecap="round"></line>
            <g id="Group-36" opacity="0.5" transform="translate(10.000000, 98.000000)" fill="#4A90E2">
                <rect id="Rectangle" x="2" y="0" width="21" height="2" rx="1"></rect>
                <rect id="Rectangle" x="5" y="24" width="18" height="2" rx="1"></rect>
                <rect id="Rectangle" x="17" y="28" width="6" height="2" rx="1"></rect>
                <rect id="Rectangle" x="12" y="20" width="11" height="2" rx="1"></rect>
                <rect id="Rectangle" x="5" y="4" width="6" height="2" rx="1"></rect>
                <rect id="Rectangle" x="12" y="4" width="11" height="2" rx="1"></rect>
                <rect id="Rectangle" x="3" y="8" width="11" height="2" rx="1"></rect>
                <rect id="Rectangle" x="15" y="8" width="8" height="2" rx="1"></rect>
                <rect id="Rectangle" x="0" y="12" width="10" height="2" rx="1"></rect>
                <rect id="Rectangle" x="9" y="16" width="9" height="2" rx="1"></rect>
                <rect id="Rectangle" x="19" y="16" width="4" height="2" rx="1"></rect>
                <rect id="Rectangle" x="11" y="12" width="12" height="2" rx="1"></rect>
                <rect id="Rectangle" x="5" y="16" width="3" height="2" rx="1"></rect>
            </g>
            <g id="Rectangle">
                <use fill="#FFFFFF" xlink:href="#path-1"></use>
                <use stroke="#1560BD" stroke-width="2" fill-opacity="0.12" fill="#4A90E2" xlink:href="#path-1"></use>
            </g>
            <path d="M94,41 C96.418186,41 98.4354237,42.7166635 98.8995379,44.9978152 L98.899,61.2312515 L43.1,117.030251 L43.098039,45.0098002 C43.557515,42.722679 45.5775809,41 48,41 L94,41 Z" id="Combined-Shape" fill="#4A90E2" fill-rule="nonzero" opacity="0.119999997"></path>
            <path d="M98.8995379,60.0020251 L98.899,76.2354614 L43.1,132.034461 L43.098039,60.0140101 L43.098039,60.013 L43.1,123.034461 L98.899,67.2354614 L98.8991254,60 C98.8992631,60.000675 98.8994005,60.00135 98.8995379,60.0020251 Z" id="Combined-Shape" fill="#4A90E2" fill-rule="nonzero" opacity="0.119999997"></path>
            <path d="M94,41 L94.2168896,41.0046195 C96.5181252,41.1028356 98.4165698,42.7565003 98.8876389,44.941029 L98.899,45.002 L98.8006859,44.9054341 C97.608036,43.7807458 96.0194713,43.0695993 94.2617695,43.004817 L94.0183951,43.0001692 L48,43 L47.7604124,43.00403 C46.0105287,43.0629812 44.420199,43.7652413 43.2222454,44.8840324 L43.1,45.002 L43.1123611,44.941029 C43.5981511,42.6882338 45.6019215,41 48,41 L94,41 Z" id="Combined-Shape" fill="#FFFFFF" fill-rule="nonzero"></path>
            <path d="M94,142 L94.2168896,142.00462 C96.5181252,142.102836 98.4165698,143.7565 98.8876389,145.941029 L98.899,146.002 L98.8006859,145.905434 C97.608036,144.780746 96.0194713,144.069599 94.2617695,144.004817 L94.0183951,144.000169 L48,144 L47.7604124,144.00403 C46.0105287,144.062981 44.420199,144.765241 43.2222454,145.884032 L43.1,146.002 L43.1123611,145.941029 C43.5981511,143.688234 45.6019215,142 48,142 L94,142 Z" id="Combined-Shape" fill="#1560BD" fill-rule="nonzero" opacity="0.200000003" transform="translate(70.999500, 144.001000) scale(1, -1) translate(-70.999500, -144.001000) "></path>
            <path d="M58,40 L85,40 L85,43 C85,44.1045695 84.1045695,45 83,45 L60,45 C58.8954305,45 58,44.1045695 58,43 L58,40 L58,40 Z" id="Rectangle" stroke="#1560BD" stroke-width="2" fill="#4A90E2"></path>
            <path d="M95.7433637,77.2587463 C102.033404,80.7941475 107.086495,86.923945 108.5591,94.1653774 C108.647902,94.6020556 108.723139,95.0400977 108.784904,95.4785936 C108.363851,95.4316611 107.938216,95.392762 107.508117,95.3621302 C98.5881834,94.726851 91.0649034,97.8836821 86.2837325,102.918602 C83.7715743,105.564087 82.019743,108.725511 81.2329187,112.114818 C80.4818305,115.35019 80.6121496,118.791861 81.794339,122.183161 C81.9435558,122.611213 82.106398,123.029477 82.2813412,123.437494 C81.8160722,123.471591 81.3498376,123.496413 80.8829815,123.511787 C76.8698812,123.643946 72.8566695,123.076498 69.0686998,121.904509 C67.916309,122.519851 66.7643328,123.141008 65.6126116,123.762023 C63.7198216,124.782628 61.8277133,125.802842 59.9356145,126.796436 C59.2291955,127.167397 58.5197212,127.536252 57.8083409,127.903485 C58.0408097,127.138295 58.2768534,126.374319 58.516707,125.61123 C59.3201747,123.055012 60.1643951,120.515096 61.0491714,117.97634 C56.098007,114.486894 52.0861417,109.415265 50.683386,103.429511 C49.3488385,98.2520725 50.0320508,93.2670846 52.1612457,88.8769442 C54.4372153,84.1841722 58.3749942,80.1703944 63.2741686,77.3530955 C72.3481326,72.1350595 84.7116029,71.0249752 95.7433637,77.2587463 Z M90.9851427,87.3856028 C90.2099802,86.8268848 89.1775174,86.59561 88.1463282,87.0069083 C87.6597395,87.1567132 87.2634935,87.4467457 86.9637382,87.8146 C86.6163459,88.2409138 86.3958471,88.7694503 86.3071094,89.3182229 C86.2182872,89.8675183 86.2610414,90.439925 86.4563589,90.956152 C86.6252539,91.4025437 86.9106148,91.8060145 87.4142596,92.1766391 C87.8087285,92.5349483 88.2771524,92.7278505 88.7605937,92.7861985 C89.32594,92.8544318 89.9101875,92.7436054 90.4348537,92.503495 C90.9667205,92.2600893 91.4406009,91.8822741 91.7685777,91.4028982 C92.0514835,90.9893987 92.220804,90.4982192 92.214222,89.8409608 C92.2885897,88.8274016 91.7511485,87.9377208 90.9851427,87.3856028 Z M70.1980692,86.8359461 C69.7183457,86.7324484 69.2093845,86.7539578 68.6464913,86.968948 C68.1510789,87.119629 67.7478395,87.4137526 67.4428689,87.7873229 C67.0889506,88.220851 66.8645915,88.758998 66.7745347,89.3173501 C66.6843605,89.8764301 66.7283637,90.4587173 66.9280398,90.9823125 C67.1001541,91.4336345 67.3904247,91.8403983 67.8874063,92.1974555 C68.6699324,92.8700695 69.728478,92.9363662 70.6355676,92.6193975 C71.5589165,92.2967474 72.3640568,91.5656506 72.5924892,90.4689349 C72.7397684,89.9629416 72.7181008,89.4593792 72.5742697,88.9967907 C72.4092932,88.4661944 72.0872037,87.9889752 71.6742788,87.6126745 C71.2577123,87.2330552 70.7466932,86.9543088 70.1980692,86.8359461 Z" id="Combined-Shape" stroke="#1560BD" stroke-width="2" fill="#FFFFFF" fill-rule="nonzero" stroke-linejoin="round"></path>
            <path d="M113.185871,95.9664776 C119.920753,97.9346135 125.645796,102.349404 128.381776,108.574813 C130.232464,112.723215 130.545674,117.339698 129.066125,121.778967 C127.780447,125.636543 125.13557,129.369928 120.929759,132.526973 C121.624566,134.578574 122.280138,136.639417 122.898847,138.721327 C123.103835,139.411099 123.304171,140.101144 123.49987,140.791825 C122.827611,140.51273 122.160223,140.222861 121.50547,139.906718 C120.413392,139.379416 119.356697,138.779131 118.301466,138.178807 C116.916894,137.391118 115.535633,136.601679 114.068084,136.000699 C107.321887,137.88953 101.288275,137.6637 96.2587365,136.05743 C90.3614831,134.174041 85.8341838,130.389824 83.1270954,125.831185 C80.2583558,121.000332 79.4322683,115.301295 81.1568231,110.034071 C82.686929,105.360742 86.227055,101.005216 92.2050771,97.9245849 C98.8434629,94.4749801 106.504422,94.0139563 113.185871,95.9664776 Z M114.370624,107.543112 C114.063812,107.391747 113.72139,107.316957 113.273863,107.374613 C112.786714,107.395627 112.391351,107.626742 112.079429,107.94839 C111.669751,108.370843 111.405652,108.950691 111.310496,109.699963 C111.449383,110.211085 111.595053,110.755042 112.052109,111.177877 C112.535675,111.684841 113.276831,111.824937 113.950265,111.709491 C114.589197,111.59996 115.219951,111.254697 115.522853,110.503796 C115.69891,110.188746 115.757498,109.847053 115.729652,109.512715 C115.695869,109.107082 115.53922,108.712138 115.305737,108.371613 C115.066002,108.021967 114.743394,107.727018 114.370624,107.543112 Z M98.270885,107.381367 C97.9176964,107.296181 97.5411038,107.308912 97.0851459,107.49619 C96.7553157,107.598517 96.4827342,107.792966 96.270877,108.038974 C96.0197974,108.330528 95.8517619,108.69273 95.7689996,109.072737 C95.6147384,109.781035 95.7466339,110.579981 96.3717541,111.154652 C96.8804988,111.706623 97.6655654,111.835372 98.3627168,111.682992 C99.0496919,111.532835 99.6981264,111.097749 99.9628733,110.285657 C100.121589,109.922879 100.140508,109.546654 100.060644,109.193024 C99.9635684,108.763181 99.7266077,108.366131 99.4127069,108.047995 C99.0971795,107.72821 98.7008755,107.485078 98.270885,107.381367 Z" id="Shape" stroke="#1560BD" stroke-width="2" fill="#78A4D7" fill-rule="nonzero" stroke-linejoin="round"></path>
        </g>
    </g>
</svg>