<?xml version="1.0" encoding="UTF-8"?>
<svg width="170px" height="160px" viewBox="0 0 170 160" version="1.1" xmlns="http://www.w3.org/2000/svg" xmlns:xlink="http://www.w3.org/1999/xlink">
    <title>icon 14</title>
    <g id="Illustration" stroke="none" stroke-width="1" fill="none" fill-rule="evenodd">
        <g id="icon-14" transform="translate(1.000000, 1.000000)">
            <g id="Group-32">
                <g id="Group-21">
                    <g id="Group" fill="#4A90E2" fill-opacity="0.8" stroke="#1560BD" stroke-width="2">
                        <g id="rings">
                            <circle id="Oval" opacity="0.015" cx="79" cy="79" r="79"></circle>
                            <ellipse id="Oval" opacity="0.04" cx="79.4968553" cy="79.5" rx="71.5471698" ry="71.5"></ellipse>
                            <ellipse id="Oval" opacity="0.07" cx="79.4968553" cy="79.5" rx="62.6037736" ry="62.5"></ellipse>
                            <ellipse id="Oval" opacity="0.13" cx="79.4968553" cy="79" rx="43.7232704" ry="44"></ellipse>
                            <ellipse id="Oval" opacity="0.1" cx="79.4968553" cy="79" rx="19.8742138" ry="20"></ellipse>
                        </g>
                    </g>
                    <g id="Group-20" opacity="0.5" transform="translate(83.000000, 26.000000)">
                        <rect id="Rectangle" stroke="#1560BD" stroke-width="2" fill-opacity="0.12" fill="#4A90E2" x="7" y="7" width="45" height="43"></rect>
                        <rect id="Rectangle" stroke="#1560BD" stroke-width="2" fill-opacity="0.12" fill="#FFFFFF" x="0" y="0" width="59" height="57"></rect>
                        <polygon id="Rectangle" fill="#4A90E2" opacity="0.100000001" points="9 8 51 8 9 42"></polygon>
                    </g>
                    <line x1="37.1322209" y1="147.5" x2="161" y2="147.5" id="Path-4" stroke="#1560BD" stroke-width="2" opacity="0.200000003" stroke-linecap="round"></line>
                    <line x1="33" y1="147.5" x2="34" y2="147.5" id="Path-4" stroke="#1560BD" stroke-width="2" opacity="0.200000003" stroke-linecap="round"></line>
                    <line x1="165" y1="147.5" x2="168" y2="147.5" id="Path-4" stroke="#1560BD" stroke-width="2" opacity="0.200000003" stroke-linecap="round"></line>
                </g>
                <g id="Group-15" transform="translate(13.000000, 40.000000)">
                    <rect id="Rectangle" stroke="#1560BD" stroke-width="2" x="34.4150943" y="7.24528302" width="19.0188679" height="75.1698113"></rect>
                    <g id="Group-13" transform="translate(12.679245, 0.000000)">
                        <rect id="Rectangle" stroke="#1560BD" stroke-width="2" fill="#A6CFFF" x="0" y="0" width="19.0188679" height="82.4150943" rx="1"></rect>
                        <rect id="Rectangle" stroke="#1560BD" stroke-width="2" opacity="0.200000003" x="0" y="6.33962264" width="19.0188679" height="57.0566038"></rect>
                        <rect id="Rectangle" stroke="#1560BD" stroke-width="2" opacity="0.200000003" transform="translate(9.509434, 72.000000) scale(1, -1) translate(-9.509434, -72.000000) " x="0" y="67.9245283" width="19.0188679" height="8.1509434"></rect>
                        <rect id="Rectangle" fill="#FFFFFF" opacity="0.2" x="0.905660377" y="0.905660377" width="2.71698113" height="80.6037736"></rect>
                        <rect id="Rectangle" fill="#1560BD" opacity="0.2" x="15.3962264" y="0.905660377" width="2.71698113" height="80.6037736"></rect>
                        <circle id="Oval" stroke="#FFFFFF" stroke-width="2" opacity="0.5" cx="9.50943396" cy="14.9433962" r="4.98113208"></circle>
                        <rect id="Rectangle" fill="#FFFFFF" opacity="0.5" x="8.1509434" y="24.4528302" width="1.81132075" height="18.1132075" rx="0.905660377"></rect>
                        <rect id="Rectangle" fill="#FFFFFF" opacity="0.5" x="10.8679245" y="24.4528302" width="2.71698113" height="21.7358491" rx="1.35849057"></rect>
                        <rect id="Rectangle" fill="#FFFFFF" opacity="0.5" x="5.43396226" y="24.4528302" width="1.81132075" height="27.1698113" rx="0.905660377"></rect>
                        <circle id="Oval" stroke="#FFFFFF" stroke-width="2" cx="9.50943396" cy="14.9433962" r="2.26415094"></circle>
                    </g>
                    <rect id="Rectangle" stroke="#1560BD" stroke-width="2" fill="#4A90E2" x="32.6037736" y="4.52830189" width="2.71698113" height="77.8867925" rx="1"></rect>
                    <rect id="Rectangle" stroke="#1560BD" stroke-width="2" fill="#4A90E2" x="50.7169811" y="4.52830189" width="2.71698113" height="77.8867925" rx="1"></rect>
                    <path d="M39.2727273,8.1509434 L39.2727273,79.6981132 L37.1320755,79.6981132 L37.1320755,8.1509434 L39.2727273,8.1509434 Z M42.483705,8.1509434 L42.483705,79.6981132 L40.3430532,79.6981132 L40.3430532,8.1509434 L42.483705,8.1509434 Z M45.6946827,8.1509434 L45.6946827,79.6981132 L43.5540309,79.6981132 L43.5540309,8.1509434 L45.6946827,8.1509434 Z M48.9056604,8.1509434 L48.9056604,79.6981132 L46.7650086,79.6981132 L46.7650086,8.1509434 L48.9056604,8.1509434 Z" id="Shape" fill="#1560BD" opacity="0.2"></path>
                    <g id="Group-14" transform="translate(65.834543, 43.471698) rotate(-5.000000) translate(-65.834543, -43.471698) translate(57.056604, 5.433962)">
                        <g id="Group-13">
                            <rect id="Rectangle" stroke="#1560BD" stroke-width="2" fill="#D0E6FF" x="0" y="0" width="17.5558781" height="76.0754717" rx="1"></rect>
                            <rect id="Rectangle" stroke="#1560BD" stroke-width="2" opacity="0.200000003" x="0" y="5.85195936" width="17.5558781" height="52.6676343"></rect>
                            <rect id="Rectangle" fill="#FFFFFF" opacity="0.2" x="0.835994194" y="0.835994194" width="2.50798258" height="74.4034833"></rect>
                            <rect id="Rectangle" fill="#1560BD" opacity="0.2" x="15.0478955" y="0.835994194" width="1.67198839" height="74.4034833"></rect>
                            <rect id="Rectangle" fill="#FFFFFF" opacity="0.5" x="10.8679245" y="30.095791" width="1.67198839" height="11.7039187" rx="0.835994194"></rect>
                            <rect id="Rectangle" fill="#FFFFFF" opacity="0.5" x="10.8679245" y="43.4716981" width="1.67198839" height="3.34397678" rx="0.835994194"></rect>
                            <rect id="Rectangle" fill="#FFFFFF" opacity="0.5" x="5.01596517" y="30.095791" width="1.67198839" height="10.8679245" rx="0.835994194"></rect>
                        </g>
                        <rect id="Rectangle" fill="#1560BD" opacity="0.2" x="0.835994194" y="0.835994194" width="1.67198839" height="74.4034833"></rect>
                        <rect id="Rectangle" fill="#FFFFFF" opacity="0.5" x="7.52394775" y="30.095791" width="1.67198839" height="21.7358491" rx="0.835994194"></rect>
                        <rect id="Rectangle" stroke="#FFFFFF" stroke-width="2" x="6.01596517" y="9.35994194" width="5.52394775" height="14.7198839" rx="1"></rect>
                        <rect id="Rectangle" stroke="#FFFFFF" stroke-width="2" x="6.01596517" y="62.8635704" width="5.52394775" height="4.68795356" rx="1"></rect>
                    </g>
                    <g id="Group-12" transform="translate(0.000000, 80.603774)">
                        <path d="M4.12264151,5.43396226 L11.0597349,5.43396226 C11.3358773,5.43396226 11.5597349,5.65781989 11.5597349,5.93396226 C11.5597349,5.99223852 11.5495471,6.05006615 11.5296316,6.1048338 L8.27062648,15.0670979 C8.1987739,15.2646925 8.01098298,15.3962264 7.80072976,15.3962264 L4.12264151,15.3962264 C3.84649913,15.3962264 3.62264151,15.1723688 3.62264151,14.8962264 L3.62264151,5.93396226 C3.62264151,5.65781989 3.84649913,5.43396226 4.12264151,5.43396226 Z" id="Rectangle" stroke="#1560BD" stroke-width="2" fill="#4A90E2"></path>
                        <path d="M93.7830189,5.43396226 L100.720112,5.43396226 C100.996255,5.43396226 101.220112,5.65781989 101.220112,5.93396226 C101.220112,5.99223852 101.209924,6.05006615 101.190009,6.1048338 L97.9310038,15.0670979 C97.8591513,15.2646925 97.6713603,15.3962264 97.4611071,15.3962264 L93.7830189,15.3962264 C93.5068765,15.3962264 93.2830189,15.1723688 93.2830189,14.8962264 L93.2830189,5.93396226 C93.2830189,5.65781989 93.5068765,5.43396226 93.7830189,5.43396226 Z" id="Rectangle" stroke="#1560BD" stroke-width="2" fill="#4A90E2" transform="translate(97.358491, 10.415094) scale(-1, 1) translate(-97.358491, -10.415094) "></path>
                        <rect id="Rectangle" stroke="#1560BD" stroke-width="2" fill="#4A90E2" x="0" y="0" width="105.056604" height="9.96226415" rx="0.5"></rect>
                        <rect id="Rectangle" fill="#7CB3F4" x="0.905660377" y="0.905660377" width="103.245283" height="1.81132075"></rect>
                    </g>
                </g>
            </g>
            <g id="Group-35" transform="translate(40.000000, 68.000000)">
                <g id="Group-4">
                    <rect id="Rectangle" stroke="#1560BD" stroke-width="2" fill="#FFFFFF" x="8.1025641" y="0" width="97.2307692" height="79" rx="2"></rect>
                    <rect id="Rectangle" stroke="#1560BD" stroke-width="2" fill-opacity="0.12" fill="#4A90E2" x="11" y="3" width="91" height="65"></rect>
                    <rect id="Rectangle" fill="#FFFFFF" x="20" y="12" width="76" height="32" rx="1"></rect>
                    <polygon id="Rectangle" fill="#4A90E2" opacity="0.100000001" points="11 3 103 3 103 6 11 55.6666667"></polygon>
                    <path d="M0,70.8974359 L115.461538,70.8974359 L115.461538,75 C115.461538,77.209139 113.670677,79 111.461538,79 L4,79 C1.790861,79 2.705415e-16,77.209139 0,75 L0,70.8974359 L0,70.8974359 Z" id="Rectangle" stroke="#1560BD" stroke-width="2" fill="#C1DAF9"></path>
                    <path d="M41,70.8974359 L73,70.8974359 C73,72.5542901 71.6568542,73.8974359 70,73.8974359 L44,73.8974359 C42.3431458,73.8974359 41,72.5542901 41,70.8974359 L41,70.8974359 L41,70.8974359 Z" id="Rectangle" fill="#4A90E2"></path>
                    <rect id="Rectangle" fill="#1560BD" opacity="0.119999997" x="11" y="3" width="92" height="3"></rect>
                    <polygon id="Rectangle" fill-opacity="0.12" fill="#4A90E2" points="11 58.8589804 103 8 103 14.0769231 103 16.1025641 11 66.9615445"></polygon>
                </g>
                <g id="g4165" transform="translate(46.413793, 28.500000) scale(1, -1) translate(-46.413793, -28.500000) translate(24.000000, 16.000000)" fill="#456C91">
                    <path d="M22.9156199,9.02558765 L24.065353,9.02558765 L24.065353,6.27193086 L24.0847192,6.27193086 C24.2393332,6.51668914 24.4534967,6.7099094 24.7272727,6.85159164 C25.0009857,6.99333696 25.3182883,7.06417808 25.6789913,7.06417808 C25.9624189,7.06417808 26.2457834,7.01270314 26.5292109,6.90962711 C26.8126385,6.80655107 27.0654713,6.65035996 27.2877093,6.4409907 C27.5099472,6.23162144 27.6902988,5.97077725 27.8287638,5.65833195 C27.967292,5.34594974 28.036493,4.97717219 28.036493,4.55206239 C28.036493,4.19135934 27.9737263,3.85639376 27.84813,3.54716565 C27.7225337,3.23800062 27.5453363,2.9722991 27.3166639,2.75006111 C27.0879915,2.52782312 26.8158557,2.35390596 26.5002563,2.22830964 C26.1845938,2.10271332 25.8399767,2.03988361 25.4664049,2.03988361 C25.0863356,2.03988361 24.7401415,2.09949613 24.4277592,2.21865809 C24.115314,2.33782004 23.8480354,2.50852002 23.6257974,2.73075801 C23.4035594,2.952996 23.2296422,3.2219147 23.1040459,3.53757718 C22.9783865,3.85317657 22.9156199,4.20422807 22.9156199,4.59066859 L22.9156199,9.02558765 Z M25.4664049,3.11240429 C25.8915147,3.11240429 26.2329146,3.24601203 26.4906047,3.51335368 C26.7482317,3.78069532 26.8770452,4.1268895 26.8770452,4.55206239 C26.8770452,4.97717219 26.7482317,5.32342945 26.4906047,5.59070802 C26.2329146,5.85804966 25.8915147,5.99172048 25.4664049,5.99172048 C25.0412951,5.99172048 24.7014722,5.85804966 24.4470623,5.59070802 C24.1925894,5.32342945 24.065353,4.97717219 24.065353,4.55206239 C24.065353,4.1268895 24.1925894,3.78069532 24.4470623,3.51335368 C24.7014722,3.24601203 25.0412951,3.11240429 25.4664049,3.11240429 Z M32.3554672,2.86121165 L32.3361641,2.86121165 C32.1944819,2.62282466 32.0044157,2.43603876 31.7660918,2.30079089 C31.5277679,2.16554302 31.2507747,2.097856 30.9351753,2.097856 C30.6581821,2.097856 30.3909036,2.1445367 30.1331504,2.23796119 C29.8755234,2.33132259 29.646851,2.47470805 29.4471333,2.66792831 C29.2475418,2.86121165 29.0880704,3.11076416 28.9689084,3.41677509 C28.8497465,3.72272294 28.7901971,4.0882833 28.7901971,4.5133931 L28.7901971,6.93858176 L29.9399932,6.93858176 L29.9399932,4.5133931 C29.9399932,4.05604838 30.0494405,3.7179287 30.2684614,3.49890789 C30.4874822,3.27988708 30.7805613,3.17037668 31.1476987,3.17037668 C31.5019674,3.17037668 31.7918293,3.28310427 32.0172845,3.50855944 C32.2428027,3.73395154 32.3554672,4.0689802 32.3554672,4.5133931 L32.3554672,6.93858176 L33.5052634,6.93858176 L33.5052634,2.32974554 C33.5052634,1.91107011 33.4440738,1.55516129 33.3216947,1.26208218 C33.1993156,0.969003067 33.0301926,0.729039024 32.8144521,0.542253132 C32.5986485,0.355467241 32.3458157,0.218579235 32.0559538,0.131652197 C31.7660918,0.0446620774 31.4568637,0.00119855858 31.1283956,0.00119855858 C30.8514024,0.00119855858 30.5889181,0.033370394 30.3409426,0.097777147 C30.0929671,0.162246982 29.867512,0.262042754 29.6645771,0.397353709 C29.4617053,0.532601582 29.2877881,0.703301556 29.1428256,0.909453631 C28.9978631,1.11554262 28.89321,1.3603009 28.8288033,1.64372846 L29.9785994,1.64372846 C30.1653853,1.21218429 30.5486717,0.996380669 31.1283956,0.996380669 C31.5213336,0.996380669 31.8240642,1.09787966 32.0366507,1.30075146 C32.2492371,1.50362327 32.3554672,1.8370118 32.3554672,2.30079089 L32.3554672,2.86121165 Z M38.5102548,4.00129318 C38.5102548,3.67282505 38.4635741,3.38454017 38.3701496,3.13650163 C38.2767251,2.88858925 38.1431174,2.68401422 37.9692002,2.5229658 C37.795283,2.36198046 37.589131,2.24117837 37.3508071,2.1606857 C37.1124831,2.08012995 36.8483587,2.03988361 36.5584968,2.03988361 C36.2686348,2.03988361 36.0045104,2.08012995 35.7661865,2.1606857 C35.5278625,2.24117837 35.3217736,2.36198046 35.1478564,2.5229658 C34.9739392,2.68401422 34.8402684,2.88858925 34.7468439,3.13650163 C34.6534825,3.38454017 34.6067387,3.67282505 34.6067387,4.00129318 L34.6067387,8.53285391 L35.7565349,8.53285391 L35.7565349,6.93858176 L38.2203928,6.93858176 L38.2203928,5.8951419 L35.7565349,5.8951419 L35.7565349,4.00129318 C35.7565349,3.67925942 35.8305932,3.45058706 35.9787729,3.3152761 C36.1269526,3.18002823 36.3201728,3.11240429 36.5584968,3.11240429 C36.7968207,3.11240429 36.990104,3.1783881 37.1382206,3.31048187 C37.2864003,3.44251256 37.3604586,3.67282505 37.3604586,4.00129318 L37.3604586,4.1268895 L38.5102548,4.1268895 L38.5102548,4.00129318 L38.5102548,4.00129318 Z M40.2590779,4.14625569 L40.2590779,4.1268895 C40.3363534,3.80485574 40.4926076,3.55038283 40.7276512,3.36359694 C40.962821,3.17681105 41.2606944,3.08338656 41.6214605,3.08338656 C42.1367776,3.08338656 42.5135666,3.23478343 42.7519536,3.53757718 L43.9789621,3.53757718 C43.7986737,3.08023246 43.5023143,2.71624914 43.0900733,2.44569031 C42.6778322,2.17519457 42.1883156,2.03988361 41.6214605,2.03988361 C41.2413913,2.03988361 40.8951971,2.10271332 40.5827518,2.22830964 C40.2703696,2.35390596 39.9998108,2.52782312 39.7711384,2.75006111 C39.542466,2.9722991 39.3653317,3.23800062 39.2397354,3.54716565 C39.114139,3.85639376 39.0513093,4.19135934 39.0513093,4.55206239 C39.0513093,4.91276544 39.114139,5.24773102 39.2397354,5.55689605 C39.3653317,5.86612416 39.542466,6.13182567 39.7711384,6.35406367 C39.9998108,6.57630166 40.2703696,6.75015573 40.5827518,6.87581514 C40.8951971,7.00141146 41.2413913,7.06417808 41.6214605,7.06417808 C41.9950323,7.06417808 42.3396494,7.00141146 42.6553119,6.87581514 C42.9709113,6.75015573 43.23983,6.57630166 43.462068,6.35406367 C43.684306,6.13182567 43.8582231,5.86612416 43.9838195,5.55689605 C44.1094158,5.24773102 44.1722455,4.91276544 44.1722455,4.55206239 L44.1722455,4.14625569 L40.2590779,4.14625569 L40.2590779,4.14625569 Z M41.6214605,6.02067514 C41.2800606,6.02067514 40.9949929,5.93696528 40.7663205,5.76941941 C40.5376481,5.6019997 40.3782399,5.37332734 40.2880956,5.08346541 L40.2880956,5.06416231 L42.9548254,5.06416231 L42.9548254,5.08346541 C42.8646181,5.37332734 42.7036327,5.6019997 42.4716801,5.76941941 C42.2398536,5.93696528 41.9564261,6.02067514 41.6214605,6.02067514" id="path4167" fill-rule="nonzero"></path>
                    <path d="M11.4314101,24.8957648 C17.741821,24.8957648 22.8593507,19.7782351 22.8593507,13.4678242 C22.8593507,7.1574764 17.741821,2.03988361 11.4314101,2.03988361 C5.12099922,2.03988361 0.00345058706,7.1574764 0.00345058706,13.4678242 C0.00345058706,19.7782351 5.12099922,24.8957648 11.4314101,24.8957648 Z M11.4314101,23.6469299 C17.0522083,23.6469299 21.6104527,19.0886224 21.6104527,13.4678242 C21.6104527,7.84702608 17.0522083,3.28871857 11.4314101,3.28871857 C5.81061197,3.28871857 1.25230447,7.84702608 1.25230447,13.4678242 C1.25230447,19.0886224 5.81061197,23.6469299 11.4314101,23.6469299" id="path4169"></path>
                </g>
                <rect id="Rectangle" fill-opacity="0.24" fill="#1560BD" x="19" y="49" width="37" height="3" rx="1.5"></rect>
                <rect id="Rectangle" fill-opacity="0.22" fill="#1560BD" x="19" y="54" width="12" height="3" rx="1.5"></rect>
                <rect id="Rectangle" fill-opacity="0.22" fill="#1560BD" x="33" y="54" width="23" height="3" rx="1.5"></rect>
                <rect id="Rectangle" fill-opacity="0.22" fill="#1560BD" x="19" y="59" width="19" height="3" rx="1.5"></rect>
                <rect id="Rectangle" fill-opacity="0.24" fill="#1560BD" x="60" y="49" width="16" height="3" rx="1.5"></rect>
                <rect id="Rectangle" fill-opacity="0.22" fill="#1560BD" x="60" y="54" width="12" height="3" rx="1.5"></rect>
                <rect id="Rectangle" fill-opacity="0.22" fill="#1560BD" x="60" y="59" width="19" height="3" rx="1.5"></rect>
                <rect id="Rectangle" fill-opacity="0.22" fill="#1560BD" x="40" y="59" width="16" height="3" rx="1.5"></rect>
            </g>
        </g>
    </g>
</svg>