<svg width="170" height="160" viewBox="0 0 170 160" fill="none" xmlns="http://www.w3.org/2000/svg">
<g id="Group 8">
<g id="Group 32">
<g id="Group 21">
<g id="Rings" opacity="0.4">
<circle id="Oval" opacity="0.4" cx="80.1084" cy="80.1065" r="43.9717" fill="#4A90E2" fill-opacity="0.8" stroke="#1560BD" stroke-width="2"/>
<circle id="Oval_2" opacity="0.2" cx="80.1067" cy="80.1065" r="62.4973" fill="#4A90E2" fill-opacity="0.8" stroke="#1560BD" stroke-width="2"/>
<circle id="Oval_3" opacity="0.1" cx="79.9984" cy="80" r="71.7601" fill="#4A90E2" fill-opacity="0.8" stroke="#1560BD" stroke-width="2"/>
<circle id="Oval_4" opacity="0.04" cx="80" cy="80" r="79" fill="#4A90E2" fill-opacity="0.8" stroke="#1560BD" stroke-width="2"/>
<circle id="Oval_5" opacity="0.4" cx="80.1069" cy="80.1065" r="19.6968" fill="#4A90E2" fill-opacity="0.8" stroke="#1560BD" stroke-width="2"/>
</g>
<g id="Group 20" opacity="0.5">
<rect id="Rectangle" x="91" y="34" width="45" height="43" fill="#4A90E2" fill-opacity="0.12" stroke="#1560BD" stroke-width="2"/>
<rect id="Rectangle_2" x="84" y="27" width="59" height="57" fill="white" fill-opacity="0.12" stroke="#1560BD" stroke-width="2"/>
<path id="Rectangle_3" opacity="0.1" fill-rule="evenodd" clip-rule="evenodd" d="M93 35H135L93 69V35Z" fill="#4A90E2"/>
</g>
<path id="Path 4" opacity="0.2" d="M38.1328 148.5H162.001" stroke="#1560BD" stroke-width="2" stroke-linecap="round"/>
<path id="Path 4_2" opacity="0.2" d="M34 148.5H35" stroke="#1560BD" stroke-width="2" stroke-linecap="round"/>
<path id="Path 4_3" opacity="0.2" d="M166 148.5H169" stroke="#1560BD" stroke-width="2" stroke-linecap="round"/>
</g>
<g id="Group 15">
<rect id="Rectangle_4" x="48.4141" y="48.2453" width="19.0189" height="75.1698" stroke="#1560BD" stroke-width="2"/>
<g id="Group 13">
<rect id="Rectangle_5" x="26.6797" y="41" width="19.0189" height="82.4151" rx="1" fill="#A6CFFF" stroke="#1560BD" stroke-width="2"/>
<rect id="Rectangle_6" opacity="0.2" x="26.6797" y="47.3396" width="19.0189" height="57.0566" stroke="#1560BD" stroke-width="2"/>
<rect id="Rectangle_7" opacity="0.2" width="19.0189" height="8.15094" transform="matrix(1 0 0 -1 26.6797 117.075)" stroke="#1560BD" stroke-width="2"/>
<rect id="Rectangle_8" opacity="0.2" x="27.5859" y="41.9057" width="2.71698" height="80.6038" fill="white"/>
<rect id="Rectangle_9" opacity="0.2" x="42.0742" y="41.9057" width="2.71698" height="80.6038" fill="#1560BD"/>
<circle id="Oval_6" opacity="0.5" cx="36.1882" cy="55.9434" r="4.98113" stroke="white" stroke-width="2"/>
<rect id="Rectangle_10" opacity="0.5" x="34.832" y="65.4528" width="1.81132" height="18.1132" rx="0.90566" fill="white"/>
<rect id="Rectangle_11" opacity="0.5" x="37.5469" y="65.4528" width="2.71698" height="21.7358" rx="1.35849" fill="white"/>
<rect id="Rectangle_12" opacity="0.5" x="32.1133" y="65.4528" width="1.81132" height="27.1698" rx="0.90566" fill="white"/>
<circle id="Oval_7" cx="36.1899" cy="55.9434" r="2.26415" stroke="white" stroke-width="2"/>
</g>
<rect id="Rectangle_13" x="46.6055" y="45.5283" width="2.71698" height="77.8868" rx="1" fill="#4A90E2" stroke="#1560BD" stroke-width="2"/>
<rect id="Rectangle_14" x="64.7188" y="45.5283" width="2.71698" height="77.8868" rx="1" fill="#4A90E2" stroke="#1560BD" stroke-width="2"/>
<path id="Shape" opacity="0.2" fill-rule="evenodd" clip-rule="evenodd" d="M53.2735 49.1509V120.698H51.1328V49.1509H53.2735ZM56.4844 49.1509V120.698H54.3438V49.1509H56.4844ZM59.6954 49.1509V120.698H57.5548V49.1509H59.6954ZM62.9064 49.1509V120.698H60.7657V49.1509H62.9064Z" fill="#1560BD"/>
<g id="Group 14">
<g id="Group 13_2">
<rect id="Rectangle_15" x="67.7734" y="47.3438" width="17.5559" height="76.0755" rx="1" transform="rotate(-5 67.7734 47.3438)" fill="#D0E6FF" stroke="#1560BD" stroke-width="2"/>
<rect id="Rectangle_16" opacity="0.2" x="68.2852" y="53.1734" width="17.5559" height="52.6676" transform="rotate(-5 68.2852 53.1734)" stroke="#1560BD" stroke-width="2"/>
<rect id="Rectangle_17" opacity="0.2" x="68.6797" y="48.1037" width="2.50798" height="74.4035" transform="rotate(-5 68.6797 48.1037)" fill="white"/>
<rect id="Rectangle_18" opacity="0.2" x="82.8359" y="46.8651" width="1.67199" height="74.4035" transform="rotate(-5 82.8359 46.8651)" fill="#1560BD"/>
<rect id="Rectangle_19" opacity="0.5" x="81.2227" y="76.3778" width="1.67199" height="11.7039" rx="0.835994" transform="rotate(-5 81.2227 76.3778)" fill="white"/>
<rect id="Rectangle_20" opacity="0.5" x="82.3906" y="89.7028" width="1.67199" height="3.34398" rx="0.835994" transform="rotate(-5 82.3906 89.7028)" fill="white"/>
<rect id="Rectangle_21" opacity="0.5" x="75.3945" y="76.8878" width="1.67199" height="10.8679" rx="0.835994" transform="rotate(-5 75.3945 76.8878)" fill="white"/>
</g>
<rect id="Rectangle_22" opacity="0.2" x="68.6797" y="48.1037" width="1.67199" height="74.4035" transform="rotate(-5 68.6797 48.1037)" fill="#1560BD"/>
<rect id="Rectangle_23" opacity="0.5" x="77.8906" y="76.6693" width="1.67199" height="21.7358" rx="0.835994" transform="rotate(-5 77.8906 76.6693)" fill="white"/>
<g id="Rectangle_24">
<mask id="path-35-inside-1" fill="white">
<rect x="73.5" y="55.2347" width="7.52395" height="16.7199" rx="1" transform="rotate(-5 73.5 55.2347)"/>
</mask>
<rect x="73.5" y="55.2347" width="7.52395" height="16.7199" rx="1" transform="rotate(-5 73.5 55.2347)" stroke="white" stroke-width="4" mask="url(#path-35-inside-1)"/>
</g>
<g id="Rectangle_25">
<mask id="path-36-inside-2" fill="white">
<rect x="78.1602" y="108.535" width="7.52395" height="6.68795" rx="1" transform="rotate(-5 78.1602 108.535)"/>
</mask>
<rect x="78.1602" y="108.535" width="7.52395" height="6.68795" rx="1" transform="rotate(-5 78.1602 108.535)" stroke="white" stroke-width="4" mask="url(#path-36-inside-2)"/>
</g>
</g>
<g id="Group 12">
<path id="Rectangle_26" fill-rule="evenodd" clip-rule="evenodd" d="M17.6211 127.538C17.6211 127.262 17.845 127.038 18.1211 127.038H25.0582C25.4052 127.038 25.6467 127.382 25.5281 127.709L22.2691 136.671C22.1972 136.868 22.0094 137 21.7992 137H18.1211C17.845 137 17.6211 136.776 17.6211 136.5V127.538Z" fill="#4A90E2" stroke="#1560BD" stroke-width="2"/>
<path id="Rectangle_27" fill-rule="evenodd" clip-rule="evenodd" d="M115.434 127.538C115.434 127.262 115.21 127.038 114.934 127.038H107.997C107.65 127.038 107.408 127.382 107.527 127.709L110.786 136.671C110.857 136.868 111.045 137 111.256 137H114.934C115.21 137 115.434 136.776 115.434 136.5V127.538Z" fill="#4A90E2" stroke="#1560BD" stroke-width="2"/>
<rect id="Rectangle_28" x="14" y="121.604" width="105.057" height="9.96226" rx="0.5" fill="#4A90E2" stroke="#1560BD" stroke-width="2"/>
<rect id="Rectangle_29" x="14.9062" y="122.509" width="103.245" height="1.81132" fill="#7CB3F4"/>
</g>
</g>
</g>
<g id="Group 35">
<g id="Group 6">
<g id="Group 5">
<g id="Group 4">
<rect id="Rectangle_30" x="49.1016" y="69" width="97.2308" height="79" rx="2" fill="white" stroke="#1560BD" stroke-width="2"/>
<rect id="Rectangle_31" x="52" y="72" width="91" height="65" fill="#4A90E2" fill-opacity="0.12" stroke="#1560BD" stroke-width="2"/>
<rect id="Rectangle_32" x="61" y="81" width="76" height="32" rx="1" fill="white"/>
<path id="Rectangle_33" opacity="0.1" fill-rule="evenodd" clip-rule="evenodd" d="M52 72H144V75L52 124.667V72Z" fill="#4A90E2"/>
<path id="Rectangle_34" d="M41 139.897H156.462V144C156.462 146.209 154.671 148 152.462 148H45C42.7909 148 41 146.209 41 144V139.897Z" fill="#C1DAF9" stroke="#1560BD" stroke-width="2"/>
<path id="Rectangle_35" d="M82 139.897H114C114 141.554 112.657 142.897 111 142.897H85C83.3431 142.897 82 141.554 82 139.897Z" fill="#4A90E2"/>
<rect id="Rectangle_36" opacity="0.12" x="52" y="72" width="92" height="3" fill="#1560BD"/>
<path id="Rectangle_37" fill-rule="evenodd" clip-rule="evenodd" d="M52 127.859L144 77V83.0769V85.1026L52 135.962V127.859Z" fill="#4A90E2" fill-opacity="0.12"/>
</g>
</g>
</g>
<g id="g4165">
<path id="path4167" fill-rule="evenodd" clip-rule="evenodd" d="M97.3539 107.139H97.3346C97.1929 107.377 97.0029 107.564 96.7645 107.699C96.5262 107.834 96.2492 107.902 95.9336 107.902C95.6566 107.902 95.3893 107.855 95.1316 107.762C94.874 107.669 94.6453 107.525 94.4456 107.332C94.246 107.139 94.0865 106.889 93.9674 106.583C93.8482 106.277 93.7886 105.912 93.7886 105.487V103.061H94.9384V105.487C94.9384 105.944 95.0479 106.282 95.2669 106.501C95.4859 106.72 95.779 106.83 96.1461 106.83C96.5004 106.83 96.7903 106.717 97.0157 106.491C97.2412 106.266 97.3539 105.931 97.3539 105.487V103.061H98.5037V107.67C98.5037 108.089 98.4425 108.445 98.3201 108.738C98.1978 109.031 98.0286 109.271 97.8129 109.458C97.5971 109.645 97.3443 109.781 97.0544 109.868C96.7645 109.955 96.4553 109.999 96.1268 109.999C95.8498 109.999 95.5874 109.967 95.3394 109.902C95.0914 109.838 94.866 109.738 94.663 109.603C94.4601 109.467 94.2862 109.297 94.1413 109.091C93.9963 108.884 93.8917 108.64 93.8272 108.356H94.977C95.1638 108.788 95.5471 109.004 96.1268 109.004C96.5198 109.004 96.8225 108.902 97.0351 108.699C97.2477 108.496 97.3539 108.163 97.3539 107.699V107.139ZM89.0638 100.974H87.9141V105.409C87.9141 105.796 87.9768 106.147 88.1025 106.462C88.2281 106.778 88.402 107.047 88.6242 107.269C88.8465 107.491 89.1138 107.662 89.4262 107.781C89.7386 107.901 90.0848 107.96 90.4648 107.96C90.8384 107.96 91.183 107.897 91.4987 107.772C91.8143 107.646 92.0864 107.472 92.3151 107.25C92.5438 107.028 92.721 106.762 92.8466 106.453C92.9722 106.144 93.0349 105.809 93.0349 105.448C93.0349 105.023 92.9657 104.654 92.8272 104.342C92.6887 104.029 92.5084 103.768 92.2862 103.559C92.0639 103.35 91.8111 103.193 91.5277 103.09C91.2442 102.987 90.9609 102.936 90.6774 102.936C90.3167 102.936 89.9994 103.007 89.7257 103.148C89.4519 103.29 89.2378 103.483 89.0832 103.728H89.0638V100.974ZM91.489 106.487C91.2314 106.754 90.89 106.888 90.4648 106.888C90.0397 106.888 89.6999 106.754 89.4455 106.487C89.191 106.219 89.0638 105.873 89.0638 105.448C89.0638 105.023 89.191 104.677 89.4455 104.409C89.6999 104.142 90.0397 104.008 90.4648 104.008C90.89 104.008 91.2314 104.142 91.489 104.409C91.7467 104.677 91.8755 105.023 91.8755 105.448C91.8755 105.873 91.7467 106.219 91.489 106.487ZM103.369 106.864C103.462 106.615 103.509 106.327 103.509 105.999V105.873H102.359V105.999C102.359 106.327 102.285 106.557 102.137 106.69C101.989 106.822 101.795 106.888 101.557 106.888C101.319 106.888 101.125 106.82 100.977 106.685C100.829 106.549 100.755 106.321 100.755 105.999V104.105H103.219V103.061H100.755V101.467H99.6052V105.999C99.6052 106.327 99.6519 106.615 99.7453 106.864C99.8387 107.111 99.9724 107.316 100.146 107.477C100.32 107.638 100.526 107.759 100.765 107.839C101.003 107.92 101.267 107.96 101.557 107.96C101.847 107.96 102.111 107.92 102.349 107.839C102.588 107.759 102.794 107.638 102.968 107.477C103.142 107.316 103.275 107.111 103.369 106.864ZM105.258 105.854V105.873C105.335 106.195 105.491 106.45 105.726 106.636C105.961 106.823 106.259 106.917 106.62 106.917C107.135 106.917 107.512 106.765 107.75 106.462H108.977C108.797 106.92 108.501 107.284 108.089 107.554C107.676 107.825 107.187 107.96 106.62 107.96C106.24 107.96 105.894 107.897 105.581 107.772C105.269 107.646 104.998 107.472 104.77 107.25C104.541 107.028 104.364 106.762 104.238 106.453C104.113 106.144 104.05 105.809 104.05 105.448C104.05 105.087 104.113 104.752 104.238 104.443C104.364 104.134 104.541 103.868 104.77 103.646C104.998 103.424 105.269 103.25 105.581 103.124C105.894 102.999 106.24 102.936 106.62 102.936C106.993 102.936 107.338 102.999 107.654 103.124C107.969 103.25 108.238 103.424 108.461 103.646C108.683 103.868 108.857 104.134 108.982 104.443C109.108 104.752 109.171 105.087 109.171 105.448V105.854H105.258ZM105.765 104.231C105.993 104.063 106.279 103.979 106.62 103.979C106.955 103.979 107.238 104.063 107.47 104.231C107.702 104.398 107.863 104.627 107.953 104.917V104.936H105.287V104.917C105.377 104.627 105.536 104.398 105.765 104.231Z" fill="#456C91"/>
<path id="path4169" fill-rule="evenodd" clip-rule="evenodd" d="M76.4319 85.1042C82.7423 85.1042 87.8598 90.2218 87.8598 96.5322C87.8598 102.843 82.7423 107.96 76.4319 107.96C70.1215 107.96 65.0039 102.843 65.0039 96.5322C65.0039 90.2218 70.1215 85.1042 76.4319 85.1042ZM76.4319 86.3531C82.0527 86.3531 86.6109 90.9114 86.6109 96.5322C86.6109 102.153 82.0527 106.711 76.4319 106.711C70.8111 106.711 66.2528 102.153 66.2528 96.5322C66.2528 90.9114 70.8111 86.3531 76.4319 86.3531Z" fill="#456C91"/>
</g>
<rect id="Rectangle_38" x="60" y="118" width="37" height="3" rx="1.5" fill="#1560BD" fill-opacity="0.24"/>
<rect id="Rectangle_39" x="60" y="123" width="12" height="3" rx="1.5" fill="#1560BD" fill-opacity="0.22"/>
<rect id="Rectangle_40" x="74" y="123" width="23" height="3" rx="1.5" fill="#1560BD" fill-opacity="0.22"/>
<rect id="Rectangle_41" x="60" y="128" width="19" height="3" rx="1.5" fill="#1560BD" fill-opacity="0.22"/>
<rect id="Rectangle_42" x="101" y="118" width="16" height="3" rx="1.5" fill="#1560BD" fill-opacity="0.24"/>
<rect id="Rectangle_43" x="101" y="123" width="12" height="3" rx="1.5" fill="#1560BD" fill-opacity="0.22"/>
<rect id="Rectangle_44" x="101" y="128" width="19" height="3" rx="1.5" fill="#1560BD" fill-opacity="0.22"/>
<rect id="Rectangle_45" x="81" y="128" width="16" height="3" rx="1.5" fill="#1560BD" fill-opacity="0.22"/>
</g>
</g>
</svg>
