<svg width="136" height="32" viewBox="0 0 136 32" fill="none" xmlns="http://www.w3.org/2000/svg">
<g clip-path="url(#clip0)">
<path d="M53.5097 7.99952C53.2064 7.69506 52.8576 7.43976 52.4757 7.24281C52.2873 7.14327 52.0911 7.0595 51.8889 6.99237L52.0177 6.92976C52.2651 6.80203 52.4929 6.63936 52.6939 6.44675C53.0281 6.10287 53.2774 5.68572 53.422 5.2285C53.5802 4.73858 53.6581 4.22631 53.6528 3.71151C53.6585 3.21349 53.5749 2.71849 53.4059 2.24997C53.2538 1.83065 53.0092 1.45096 52.6903 1.13906C51.9963 0.462851 50.8281 0.00131226 49.2574 0.00131226H41.0159V14.64H49.8514C50.5412 14.6539 51.2278 14.543 51.8782 14.3126C52.4159 14.1128 52.9041 13.7991 53.3093 13.3931C53.6493 13.0444 53.9088 12.6256 54.0696 12.1659C54.2513 11.6598 54.3428 11.1258 54.3397 10.5881C54.3441 10.0932 54.2767 9.60025 54.1394 9.12475C54.0204 8.70558 53.8047 8.32018 53.5097 7.99952ZM50.2682 11.3931C50.1077 11.511 49.9252 11.5955 49.7315 11.6417C49.4758 11.7046 49.2131 11.7347 48.9497 11.7312H44.4506V8.76696H48.9855C49.4329 8.74649 49.8741 8.8776 50.2378 9.13906C50.3968 9.27029 50.5163 9.44306 50.583 9.63816C50.659 9.8652 50.6953 10.1036 50.6903 10.343C50.6943 10.5555 50.6597 10.7671 50.5884 10.9673C50.5222 11.1356 50.4115 11.2828 50.2682 11.3931ZM49.8889 3.70078C49.9723 3.91583 50.0147 4.14455 50.0141 4.37519C50.0185 4.63293 49.9761 4.88932 49.8889 5.1319C49.8211 5.3187 49.7116 5.48757 49.5687 5.62564C49.4502 5.73792 49.3086 5.8228 49.1537 5.8743C48.987 5.92928 48.8122 5.95588 48.6367 5.95301H44.4506V2.89398H48.3361C48.5872 2.88903 48.8379 2.91608 49.0821 2.97448C49.2658 3.01763 49.4368 3.10342 49.5812 3.22493C49.7219 3.35822 49.8296 3.52234 49.8961 3.70435L49.8889 3.70078Z" fill="white"/>
<path d="M57.0768 14.6386H57.2683H60.6368V-6.10352e-05H57.0768V14.6386Z" fill="white"/>
<path d="M62.7958 3.01783H67.4345V14.6386H70.9944V3.01783H75.6491V-6.10352e-05H62.7958V3.01783Z" fill="white"/>
<path d="M76.9246 3.01783H81.5615V14.6386H85.1214V3.01783H89.7779V-6.10352e-05H76.9246V3.01783Z" fill="white"/>
<path d="M103.88 7.03576C104.229 6.4329 104.429 5.55633 104.429 4.45078C104.437 3.9241 104.385 3.39823 104.272 2.8837C104.176 2.45939 104.004 2.05581 103.766 1.69229C103.442 1.14306 102.958 0.70605 102.379 0.440051C101.651 0.124868 100.862 -0.0254113 100.07 -2.06197e-05H91.9373V14.6386H95.3898V9.093H98.8317L101.612 14.6386H105.547L102.181 8.40785C102.54 8.3025 102.876 8.12703 103.167 7.89155C103.459 7.65607 103.701 7.36522 103.88 7.03576ZM100.8 5.72449C100.76 5.80082 100.705 5.86836 100.639 5.92306C100.508 6.02407 100.357 6.09659 100.197 6.13594C99.9838 6.1896 99.765 6.21546 99.5455 6.21286H95.4077V3.01787H99.3648C99.6953 3.00522 100.025 3.06126 100.333 3.18245C100.443 3.23065 100.544 3.29651 100.633 3.37744C100.716 3.45541 100.785 3.54747 100.835 3.64935C100.859 3.70727 100.879 3.76711 100.893 3.82824C100.952 4.116 100.981 4.40922 100.978 4.70302C100.977 4.88775 100.96 5.07205 100.928 5.254C100.905 5.41557 100.862 5.57361 100.8 5.72449Z" fill="white"/>
<path d="M103.881 7.03574H103.88V7.03707L103.881 7.03574Z" fill="#020003"/>
<path d="M111.197 8.86398H118.739V5.77454H111.197V3.07328H119.028V-6.10352e-05H107.762V14.6386H107.955H119.118V11.5849H111.197V8.86398Z" fill="white"/>
<path d="M135.011 19.1574H41.0965V32H135.011V19.1574Z" fill="#1C6FE8"/>
<path d="M74.9677 29.1468L74.8962 28.4795C74.5169 28.9214 73.966 29.247 72.8193 29.247C71.7012 29.247 70.8067 28.8498 70.2844 28.1915C69.8962 27.7031 69.6064 26.7926 69.6064 25.5922C69.6064 24.5547 69.7244 23.7872 70.2575 23.0645C70.7173 22.4419 71.5831 21.9106 73.0089 21.9106C74.5259 21.9106 75.4007 22.4062 75.8246 23.1629C76.0502 23.5618 76.1686 24.0123 76.1681 24.4706H74.6511C74.6329 24.1684 74.5058 23.883 74.2933 23.6674C74.127 23.5152 73.9321 23.3977 73.7198 23.3218C73.5075 23.2459 73.2823 23.2132 73.0572 23.2255C72.4239 23.2255 71.9731 23.3883 71.6672 23.7228C71.3613 24.0573 71.1985 24.653 71.1985 25.628C71.1985 26.603 71.3524 27.1164 71.6404 27.4777C71.8765 27.7675 72.3989 28.0019 73.0858 28.0019C73.9964 28.0019 74.6457 27.5403 74.7728 26.9554V26.297H72.7119V25.0162H76.2075V27.2183C76.2075 28.0931 76.2164 29.1128 76.2164 29.1396L74.9677 29.1468Z" fill="white"/>
<path d="M77.2502 29.1467V22.0179H78.8208V27.8212H82.3861V29.1467H77.2502Z" fill="white"/>
<path d="M88.8013 23.0555C89.2163 23.6065 89.4059 24.4276 89.4059 25.5386C89.4059 26.7013 89.1805 27.5064 88.7745 28.1092C88.2789 28.8498 87.3308 29.247 85.9319 29.247C84.533 29.247 83.6224 28.8677 83.1072 28.1271C82.6653 27.5224 82.4578 26.6745 82.4578 25.5564C82.4578 24.4992 82.6474 23.6781 83.0714 23.1199C83.6081 22.3793 84.4882 21.9106 85.9337 21.9106C87.3487 21.9106 88.261 22.3167 88.8013 23.0555ZM87.3487 27.4509C87.6922 27.1074 87.8371 26.3597 87.8371 25.5743C87.8371 24.789 87.6922 24.0752 87.3934 23.7604C87.0947 23.4455 86.7172 23.2094 85.9319 23.2094C85.1466 23.2094 84.7941 23.4258 84.4882 23.7693C84.2074 24.0842 84.0464 24.8158 84.0464 25.5833C84.0464 26.3865 84.2253 27.1253 84.583 27.4867C84.8729 27.7765 85.2521 27.9661 85.9462 27.9661C86.6814 27.9661 87.0607 27.7389 87.3487 27.4509Z" fill="white"/>
<path d="M94.703 29.1467H90.381V22.0179H94.406C95.1735 22.0179 95.7316 22.2433 96.0572 22.5546C96.2109 22.7166 96.3301 22.9081 96.4076 23.1175C96.4851 23.3269 96.5192 23.5499 96.508 23.7729C96.5334 24.2481 96.3715 24.7143 96.0572 25.0716C95.8646 25.2495 95.6281 25.373 95.372 25.4294C95.7864 25.4883 96.1698 25.6819 96.4633 25.9804C96.7244 26.2505 96.8515 26.6959 96.8515 27.2076C96.8688 27.6993 96.6943 28.1784 96.3649 28.5439C96.0035 28.9124 95.4704 29.1467 94.703 29.1467ZM94.6314 23.4616C94.4329 23.3188 94.1899 23.2516 93.9463 23.272H91.9069V24.9965H94.0965C94.2935 25.0069 94.4865 24.9387 94.6332 24.8069C94.7208 24.7144 94.7884 24.6049 94.8318 24.4852C94.8752 24.3655 94.8935 24.2381 94.8854 24.111C94.889 23.9914 94.8685 23.8723 94.8252 23.7607C94.7818 23.6492 94.7166 23.5475 94.6332 23.4616H94.6314ZM95.2182 27.0895C95.2288 26.9644 95.2107 26.8385 95.1655 26.7213C95.1203 26.6042 95.049 26.4988 94.957 26.4133C94.7581 26.2684 94.5159 26.1952 94.2701 26.2058H91.9069V27.8838H94.2522C94.5048 27.8988 94.7557 27.8323 94.9677 27.6942C95.0537 27.6198 95.1211 27.5264 95.1645 27.4215C95.208 27.3165 95.2264 27.2028 95.2182 27.0895Z" fill="white"/>
<path d="M98.7474 29.1467H97.1499L99.912 22.0179H101.88L104.488 29.1467H102.864L102.259 27.4687H99.3878L98.7474 29.1467ZM101.032 23.9857L100.869 23.399L100.69 23.9947L99.878 26.1789H101.789L101.032 23.9857Z" fill="white"/>
<path d="M105.162 29.1467V22.0179H106.733V27.8212H110.298V29.1467H105.162Z" fill="white"/>
<path d="M32 22.7191V0H9.28086V6.72093H13.4311V4.15027H27.8479V18.5653H22.7191V9.28265H0V32.0018H22.7191V25.2826H18.5689V27.8497H4.15027V13.4329H9.28265V22.7191H32ZM18.5653 18.5671H13.4329V13.4329H18.5653V18.5671Z" fill="#1C6FE8"/>
<path d="M129.681 7.00537L128.13 4.79428L124.91 0H120.794L125.851 7.24508L120.478 14.6386H124.497L124.576 14.5241L127.764 9.93381L130.93 14.6386H135.03L129.681 7.00537Z" fill="white"/>
<path d="M130.463 2.52594H132.503V4.51699H135.031V0H130.512V2.52594H130.463Z" fill="#1C6FE8"/>
</g>
<defs>
<clipPath id="clip0">
<rect width="135.03" height="32" fill="white"/>
</clipPath>
</defs>
</svg>
