<?xml version="1.0" encoding="UTF-8"?>
<svg width="600px" height="600px" viewBox="0 0 600 600" version="1.1" xmlns="http://www.w3.org/2000/svg" xmlns:xlink="http://www.w3.org/1999/xlink">
    <!-- Generator: Sketch 61.2 (89653) - https://sketch.com -->
    <title>Big cube</title>
    <desc>Created with Sketch.</desc>
    <defs>
        <linearGradient x1="1.65939644e-13%" y1="49.9999935%" x2="100.020498%" y2="49.9999935%" id="linearGradient-1">
            <stop stop-color="#BCC0E5" offset="0%"></stop>
            <stop stop-color="#BCC0E5" stop-opacity="0.1" offset="100%"></stop>
        </linearGradient>
        <linearGradient x1="59.2501394%" y1="50.0163226%" x2="43.1769246%" y2="50.0163226%" id="linearGradient-2">
            <stop stop-color="#DCDEFA" offset="0%"></stop>
            <stop stop-color="#F2F3FA" offset="100%"></stop>
        </linearGradient>
        <linearGradient x1="-0.0112800136%" y1="49.9886121%" x2="100.003332%" y2="49.9886121%" id="linearGradient-3">
            <stop stop-color="#F7F8FF" offset="0%"></stop>
            <stop stop-color="#F2F3FA" offset="100%"></stop>
        </linearGradient>
        <linearGradient x1="58.6162911%" y1="50%" x2="43.6217282%" y2="50%" id="linearGradient-4">
            <stop stop-color="#959BCA" offset="0%"></stop>
            <stop stop-color="#757BB8" offset="100%"></stop>
        </linearGradient>
        <linearGradient x1="2.9814769%" y1="50.0070941%" x2="102.977357%" y2="50.0070941%" id="linearGradient-5">
            <stop stop-color="#BCC0E5" offset="40%"></stop>
            <stop stop-color="#D0D3F5" offset="61%"></stop>
        </linearGradient>
        <linearGradient x1="47.4381609%" y1="50%" x2="21.1308346%" y2="50.0077848%" id="linearGradient-6">
            <stop stop-color="#DCDEFA" offset="0%"></stop>
            <stop stop-color="#E6E7FA" offset="37.8695558%"></stop>
            <stop stop-color="#F2F3FA" offset="100%"></stop>
        </linearGradient>
        <linearGradient x1="-167.293729%" y1="50.0047925%" x2="441.716172%" y2="50.0047925%" id="linearGradient-7">
            <stop stop-color="#BCC0E5" offset="0%"></stop>
            <stop stop-color="#BCC0E5" offset="100%"></stop>
        </linearGradient>
        <linearGradient x1="59.2501394%" y1="50.0163226%" x2="43.1769246%" y2="50.0163226%" id="linearGradient-8">
            <stop stop-color="#DCDEFA" offset="0%"></stop>
            <stop stop-color="#F2F3FA" offset="100%"></stop>
        </linearGradient>
        <linearGradient x1="-0.00150682184%" y1="49.9914132%" x2="141.109901%" y2="61.6735027%" id="linearGradient-9">
            <stop stop-color="#FFFFFF" offset="0%"></stop>
            <stop stop-color="#F7F8FF" offset="100%"></stop>
        </linearGradient>
        <linearGradient x1="-10189.0468%" y1="315.170132%" x2="-10187.5095%" y2="322.37091%" id="linearGradient-10">
            <stop stop-color="#050249" offset="0%"></stop>
            <stop stop-color="#04007E" offset="100%"></stop>
        </linearGradient>
        <linearGradient x1="85.8703836%" y1="98.4344661%" x2="44.8572373%" y2="50.1870835%" id="linearGradient-11">
            <stop stop-color="#FF5A6F" offset="0%"></stop>
            <stop stop-color="#FFAD6F" offset="100%"></stop>
        </linearGradient>
        <linearGradient x1="74.8282589%" y1="92.1040164%" x2="33.853%" y2="28.5837157%" id="linearGradient-12">
            <stop stop-color="#FF5A6F" offset="0%"></stop>
            <stop stop-color="#FFAD6F" offset="100%"></stop>
        </linearGradient>
        <linearGradient x1="64.47598%" y1="72.1772004%" x2="48.0516459%" y2="47.0115011%" id="linearGradient-13">
            <stop stop-color="#FF5A6F" offset="0%"></stop>
            <stop stop-color="#FFAD6F" stop-opacity="0.25" offset="100%"></stop>
        </linearGradient>
        <linearGradient x1="60.4316474%" y1="175.094316%" x2="59.5143137%" y2="183.177069%" id="linearGradient-14">
            <stop stop-color="#04007E" offset="0%"></stop>
            <stop stop-color="#BB1AFF" offset="100%"></stop>
        </linearGradient>
        <linearGradient x1="50.0425471%" y1="39.0735234%" x2="60.9212989%" y2="154.313975%" id="linearGradient-15">
            <stop stop-color="#080078" offset="0%"></stop>
            <stop stop-color="#5B68F5" offset="100%"></stop>
        </linearGradient>
        <linearGradient x1="47.3919186%" y1="23.1104183%" x2="59.6358983%" y2="159.1041%" id="linearGradient-16">
            <stop stop-color="#080078" offset="0%"></stop>
            <stop stop-color="#5B68F5" offset="100%"></stop>
        </linearGradient>
        <linearGradient x1="85.8703836%" y1="98.4344661%" x2="0%" y2="53.620501%" id="linearGradient-17">
            <stop stop-color="#090548" offset="0%"></stop>
            <stop stop-color="#2119AB" offset="100%"></stop>
        </linearGradient>
        <linearGradient x1="55.7737492%" y1="95.601781%" x2="49.0128199%" y2="50.4615064%" id="linearGradient-18">
            <stop stop-color="#090548" offset="0%"></stop>
            <stop stop-color="#2119AB" offset="100%"></stop>
        </linearGradient>
        <linearGradient x1="85.8703836%" y1="149.672541%" x2="0%" y2="57.4505731%" id="linearGradient-19">
            <stop stop-color="#090548" offset="0%"></stop>
            <stop stop-color="#2119AB" offset="100%"></stop>
        </linearGradient>
        <filter x="-100.0%" y="-75.0%" width="300.0%" height="250.0%" filterUnits="objectBoundingBox" id="filter-20">
            <feGaussianBlur stdDeviation="10" in="SourceGraphic"></feGaussianBlur>
        </filter>
        <radialGradient cx="82.4118061%" cy="24.7526289%" fx="82.4118061%" fy="24.7526289%" r="84.783993%" gradientTransform="translate(0.824118,0.247526),scale(1.000000,0.750000),rotate(150.248441),scale(1.000000,1.553281),translate(-0.824118,-0.247526)" id="radialGradient-light-green">
            <stop stop-color="#FFED5F" offset="0%"></stop>
            <stop stop-color="#5EFF39" offset="100%"></stop>
        </radialGradient>
        <radialGradient cx="82.4118061%" cy="24.7526289%" fx="82.4118061%" fy="24.7526289%" r="84.783993%" gradientTransform="translate(0.824118,0.247526),scale(1.000000,0.750000),rotate(150.248441),scale(1.000000,1.553281),translate(-0.824118,-0.247526)" id="radialGradient-light-red">
            <stop stop-color="#FFED5F" offset="0%"></stop>
            <stop stop-color="#FF5E39" offset="100%"></stop>
        </radialGradient>
        <path d="M382,-1.42108547e-13 L382,221.163804 L381.17278,221.164125 C381.400978,221.510814 381.607786,221.859851 381.793138,222.210517 C380.816583,223.882065 379.235155,225.4402 377.032282,226.755673 L376.784961,226.900832 L207.534437,324.617581 C198.430568,329.875723 182.61417,329.276251 172.0025,323.321245 L171.682539,323.139152 L7.57694738,228.397741 C3.90305192,226.29098 1.3675466,223.781347 0,221.201489 C0.28504627,220.710461 0.621041864,220.230266 1.00881095,219.763625 L1.00924703,-1.42108547e-13 L382,-1.42108547e-13 Z" id="path-22"></path>
        <path d="M29.0438606,130.553611 C26.8880864,125.988232 28.3716825,124.048643 33.7076792,120.899112 L34.3050805,120.550543 L203.968307,22.5955205 C213.058526,17.3452614 228.828485,17.9208596 239.461437,23.8249173 L239.907626,24.0775542 L404.413375,119.049984 C412.119951,123.49979 414.846893,126.570645 412.253334,131.61697 C411.227263,132.680344 409.523918,134.301644 407.397729,135.60003 L406.992114,135.840767 L237.328888,233.795789 C228.238669,239.046048 212.472313,238.47045 201.835908,232.566392 L201.389568,232.313755 L36.8838192,137.341326 C33.2009653,135.229428 29.6407239,131.951267 29.0438606,130.553611 Z" id="path-24"></path>
        <symbol id="symbol-ball">
            <polygon fill="#FFFFFF" points="14.2536728 14.463275 25.4677713 25.1162958 32.4739615 11.3055844"></polygon>
            <polygon fill="#FFF1CC" points="14.2536728 14.463275 21.3726114 1.95499868 32.4739615 11.3055844"></polygon>
            <polygon fill="#FFF1CC" points="12.0940254 32.1565223 14.2536728 14.463275 25.4677713 25.1162958"></polygon>
            <polygon fill="#FFBF7B" points="14.2536728 14.463275 2.1533836 21.4956079 12.0940254 32.1565223"></polygon>
            <polygon fill="#FFBF6F" points="21.3726114 1.95499868 8.2035282 8.20913683 14.2536728 14.463275"></polygon>
            <polygon fill="#FFA16F" points="8.2035282 8.20913683 2.1533836 21.4956079 14.2536728 14.463275"></polygon>
            <polygon fill="#FF896F" points="2.1533836 21.4956079 2.1533836 14.463275 -6.14718906e-14 29.2272001"></polygon>
            <polygon fill="#FF936F" points="2.1533836 14.463275 8.2035282 8.20913683 2.1533836 21.4956079"></polygon>
            <polygon fill="#FFA16F" points="8.2035282 8.20913683 13.6813647 2.44081493 21.3726114 1.95499868"></polygon>
            <polygon fill="#FF926F" points="21.3726114 1.95499868 28.7014306 -1.09835805e-13 13.6813647 2.44081493"></polygon>
            <polygon fill="#FFBF6F" points="32.4739615 11.3055844 36.007855 3.14076517 21.3726114 1.95499868"></polygon>
            <polygon fill="#FFA16F" points="36.007855 3.14076517 28.6902332 -7.93258589e-14 21.3726114 1.95499868"></polygon>
            <polygon fill="#FFA26F" points="32.4739615 11.3055844 46.3833122 14.463275 36.007855 3.14076517"></polygon>
            <polygon fill="#FF936F" points="46.3833122 14.463275 43.0253512 7.34404226 36.007855 3.14076517"></polygon>
            <polygon fill="#FFBF6F" points="40.8677582 27.1810756 32.4739615 11.3055844 46.3833122 14.463275"></polygon>
            <polygon fill="#FFA16F" points="46.3833122 14.463275 40.8677582 27.1810756 49.3113371 28.87017"></polygon>
            <polygon fill="#F09381" points="46.3833122 14.463275 49.8990522 20.8057508 49.3113371 28.87017"></polygon>
            <polygon fill="#FFF1CC" points="32.4739615 11.3055844 25.4677713 25.1162958 40.8677582 27.1810756"></polygon>
            <polygon fill="#FFA16F" points="2.1533836 21.4956079 3.65058222 36.5409922 12.0940254 32.1565223"></polygon>
            <polygon fill="#FF826F" points="3.84199316e-15 29.2272001 3.65058222 36.5409922 2.1533836 21.4956079"></polygon>
            <polygon fill="#FF8C6F" points="12.0940254 32.1565223 14.7880698 45.9107758 3.65058222 36.5409922"></polygon>
            <polygon fill="#FF766F" points="3.65058222 36.5409922 7.1237045 43.2085437 14.7880698 45.9107758"></polygon>
            <polygon fill="#FFA16F" points="12.0940254 32.1565223 28.3030327 40.2519774 25.4677713 25.1162958"></polygon>
            <polygon fill="#FF936F" points="12.0940254 32.1565223 14.7880698 45.9107758 28.3030327 40.2519774"></polygon>
            <polygon fill="#FF6C6F" points="14.7880698 45.9107758 7.1237045 43.2085437 21.3726114 49.9578544"></polygon>
            <polygon fill="#FFBF6F" points="25.4677713 25.1162958 40.8677582 27.1810756 28.3030327 40.2519774"></polygon>
            <polygon fill="#FF946F" points="40.8677582 27.1810756 41.799801 41.225884 49.3113371 28.87017"></polygon>
            <polygon fill="#CB7FAD" points="41.799801 41.225884 47.6552851 36.5409922 49.3113371 28.87017"></polygon>
            <polygon fill="#FFA16F" points="41.799801 41.225884 40.8677582 27.1810756 28.3030327 40.2519774"></polygon>
            <polygon fill="#A16CBC" points="37.6578385 48.0152567 41.799801 41.225884 47.6552851 36.5409922"></polygon>
            <polygon fill="#FF936F" points="41.799801 41.225884 29.2508905 48.9180593 28.3030327 40.2519774"></polygon>
            <polygon fill="#B77FC5" points="41.799801 41.225884 29.2508905 48.9180593 37.6578385 48.0152567"></polygon>
            <polygon fill="#FF7F6F" points="14.7880698 45.9107758 29.2508905 48.9180593 28.3030327 40.2519774"></polygon>
            <polygon fill="#FF686F" points="14.7880698 45.9107758 21.3726114 49.9578544 29.2508905 48.9180593"></polygon>
        </symbol>
    </defs>
    <g id="root">
      <g id="Big-cube" stroke="none" stroke-width="1" fill="none" fill-rule="evenodd">
          <g id="Box" transform="translate(74.250000, 96.000000)" fill-rule="nonzero">
              <g id="Group-7" transform="translate(4.125000, 0.000000)">
                  <g id="Group-3" transform="translate(0.000000, 0.174587)">
                      <g id="Group-4">
                          <g id="Group">
                              <g opacity="0.371884301" transform="translate(205.376722, 188.046832)" fill="url(#linearGradient-1)" id="Path">
                                  <path d="M66.7269072,0.128830579 L0.0549841298,0.128830579 L196.885339,113.712396 C200.998876,116.099837 203.530416,120.495302 203.530416,125.250116 C203.530416,130.004931 200.998876,134.400396 196.885339,136.787837 L0.0549841298,250.391588 L66.7269072,250.391588 C73.1986273,250.400157 79.5593813,248.711546 85.1740827,245.494322 L267.750719,140.113119 C273.042537,137.060879 276.302776,131.417812 276.302776,125.310576 C276.302776,119.20334 273.042537,113.560273 267.750719,110.508034 L85.1740827,5.06637025 C79.5636345,1.83418639 73.2024026,0.131549853 66.7269072,0.128830579 Z" style="mix-blend-mode: multiply;"></path>
                              </g>
                              <path d="M425.397074,315.699222 C425.074584,310.554832 421.184547,305.228874 413.908364,301.032665 L237.869082,199.395643 C223.941541,191.32601 202.858751,190.498873 190.805683,197.378235 L8.09488718,303.070247 C2.33037668,306.398971 -0.330166632,310.917965 0.0326347288,315.618526 C0.355124827,320.742743 4.24516164,326.0687 11.5213445,330.264909 L187.560627,431.901931 C201.488168,439.971564 222.570958,440.818875 234.624026,433.919339 L417.334822,328.227327 C423.059021,324.898603 425.719564,320.379609 425.397074,315.699222 Z" id="Path" fill="#BCC0E5" style="mix-blend-mode: multiply;"></path>
                              <path d="M425.399943,314.350166 L425.399943,129.971833 L353.977651,164.663401 L237.876121,97.7179418 C223.950386,89.6595055 202.87033,88.8133697 190.818826,95.7033327 L71.5331192,164.623109 L0.0302151918,129.891249 L0.0302151918,312.93994 C-0.0100717306,313.375509 -0.0100717306,313.813866 0.0302151918,314.249435 C0.352663463,319.366543 4.24219573,324.68511 11.5174348,328.895643 L187.533885,430.371503 C195.267892,434.593227 203.914208,436.868156 212.725156,436.999567 C220.300775,437.394739 227.845772,435.775034 234.591179,432.305527 L417.278277,326.760158 C423.062193,323.536783 425.702239,319.024059 425.399943,314.350166 Z" id="Path" fill="url(#linearGradient-2)"></path>
                              <path d="M425.397074,124.450168 C425.074584,119.326963 421.184547,113.981887 413.908364,109.786507 L237.869082,8.18972604 C223.941541,0.121687061 202.858751,-0.725457032 190.805683,6.17271629 L8.09488718,111.884197 C2.33037668,115.232433 -0.330166632,119.750535 0.0326347288,124.429998 C0.355124827,129.553202 4.24516164,134.878108 11.5213445,139.093658 L187.560627,240.690439 C201.488168,248.758478 222.570958,249.605622 234.624026,242.707449 L417.334822,137.036308 C423.059021,133.647732 425.719564,129.12963 425.397074,124.450168 Z" id="Path" fill="#FFFFFF"></path>
                              <path d="M425.397074,122.894524 C425.074584,117.772906 421.184547,112.44965 413.908364,108.235406 L237.869082,6.67009717 C223.941541,-1.39544251 202.858751,-2.24232418 190.805683,4.65371225 L8.09488718,110.433265 C2.33037668,113.7603 -0.330166632,118.277003 0.0326347288,122.955016 C0.355124827,128.076633 4.24516164,133.420053 11.5213445,137.614134 L187.560627,239.199606 C201.488168,247.265146 222.570958,248.091864 234.624026,241.115172 L417.334822,135.49693 C423.059021,132.089239 425.719564,127.592701 425.397074,122.894524 Z" id="Path" fill="url(#linearGradient-3)"></path>
                          </g>
                          <g id="Group-2" transform="translate(18.716598, 13.152204)">
                              <path d="M8.79222144,118.341326 L173.297971,213.313755 C183.935268,219.45308 200.01904,220.119995 209.23729,214.795789 L378.900516,116.840767 C381.238425,115.492116 382.905713,113.876699 383.920906,112.139014 C382.550025,109.545455 380.008337,107.040818 376.321778,104.9141 L211.816028,9.93796522 C201.182436,3.7986403 185.094959,3.1317251 175.876709,8.45593144 L6.21348267,106.414659 C3.8718693,107.767015 2.21199147,109.378727 1.19679833,111.127526 C2.56767958,113.713675 5.1093675,116.229428 8.79222144,118.341326 Z" id="Path" fill="url(#linearGradient-4)" opacity="0.8"></path>
                              <path d="M175.876709,204.01873 C185.094959,198.694523 201.182436,199.361439 211.816028,205.500764 L211.816028,205.500764 L218.575673,209.403209 L209.23729,214.795789 C200.147071,220.046048 184.380715,219.47045 173.74431,213.566392 L173.297971,213.313755 L166.537673,209.410209 Z" id="Combined-Shape" fill="#777DB1"></path>
                              <path d="M6.21348267,106.414659 L175.876709,8.45593144 C185.087549,3.13913527 201.175026,3.80605047 211.816028,9.93796522 L376.321778,104.9141 C380.234347,107.174201 382.861252,109.860388 384.161736,112.61697 C386.755295,107.570645 384.028353,104.49979 376.321778,100.049984 L211.816028,5.07755424 C201.182436,-1.06177068 185.094959,-1.72868587 175.876709,3.59552047 L6.21348267,101.550543 C0.392795009,104.911055 -1.28190316,106.822218 0.95226276,111.553611 C1.93411014,109.641788 3.67920491,107.874462 6.21348267,106.414659 Z" id="Path" fill="url(#linearGradient-5)"></path>
                          </g>
                      </g>
                  </g>
              </g>
              <g id="Group-8" transform="translate(261.750000, 259.500000)">
                  <path d="M59.85,124.646566 L6.39488462e-14,71.8631928 L6.39488462e-14,161.339458 L45.5313253,187.628133 C52.7329227,191.778629 61.6001496,191.778629 68.801747,187.628133 L163.521325,132.939036 C169.074658,129.732818 172.493675,123.806954 172.493675,117.394518 L172.493675,71.6159639 L59.85,124.646566 Z" id="Path" fill="#ADB1DD"></path>
                  <path d="M59.85,122.771566 L1.02318154e-12,69.9881928 L1.02318154e-12,159.464458 L45.5313253,185.753133 C52.7329227,189.903629 61.6001496,189.903629 68.801747,185.753133 L163.521325,131.064036 C169.074658,127.857818 172.493675,121.931954 172.493675,115.519518 L172.493675,69.7409639 L59.85,122.771566 Z" id="Path" fill="url(#linearGradient-6)"></path>
                  <path d="M44.7999398,129.795181 L0,69.6876506 L120.709518,0 L170.237711,66.4427711 C172.195113,69.0436882 172.939426,72.3607907 172.280951,75.5486748 C171.622477,78.7365589 169.62482,81.487293 166.797108,83.0998193 L75.1163855,136.048012 C64.8887853,141.961597 51.8530411,139.272947 44.7999398,129.795181 Z" id="Path" fill="#FFFFFF"></path>
                  <polygon id="Path" fill="url(#linearGradient-7)" opacity="0.218889509" style="mix-blend-mode: multiply;" points="31.2126506 177.460663 31.2126506 111.872892 0 69.9881928 0 159.443855"></polygon>
              </g>
              <path d="M50.4479898,349.694174 C50.4067398,349.086674 49.9454898,348.456674 49.0829898,347.957924 L28.2104898,335.920424 C26.5567398,334.967924 24.0592398,334.862924 22.6304898,335.691674 L0.962989768,348.209174 C0.280489768,348.606674 -0.0345102323,349.139174 0.00298976765,349.709174 C0.0404897677,350.279174 0.501739768,350.950424 1.36423977,351.449174 L22.2404898,363.486674 C23.8904898,364.439174 26.3879898,364.544174 27.8204898,363.715424 L49.4842398,351.175424 C50.1667398,350.800424 50.4967398,350.249174 50.4479898,349.694174 Z" id="Path" fill="#BCC0E5" style="mix-blend-mode: multiply;"></path>
              <path d="M50.4479898,348.096674 L50.4479898,348.096674 L50.4479898,292.060424 L0.00298976765,292.060424 L0.00298976765,347.935424 C-0.000765027753,347.987857 -0.000765027753,348.040491 0.00298976765,348.092924 C0.0404897677,348.700424 0.501739768,349.330424 1.36423977,349.829174 L22.2404898,361.866674 C23.1610974,362.37042 24.1911568,362.64081 25.2404898,362.654174 L25.2404898,362.654174 C26.1397472,362.701507 27.0354007,362.508657 27.8354898,362.095424 L49.4992398,349.577924 C50.1667398,349.184174 50.4967398,348.651674 50.4479898,348.096674 Z" id="Path" fill="url(#linearGradient-8)"></path>
              <path d="M50.4479898,291.314174 C50.4067398,290.706674 49.9454898,290.072924 49.0829898,289.577924 L28.2104898,277.536674 C26.5567398,276.584174 24.0592398,276.482924 22.6304898,277.307924 L0.962989768,289.829174 C0.280489768,290.222924 -0.0345102323,290.759174 0.00298976765,291.329174 C0.0404897677,291.899174 0.501739768,292.566674 1.36423977,293.065424 L22.2404898,305.106674 C23.8904898,306.059174 26.3879898,306.160424 27.8204898,305.335424 L49.4842398,292.814174 C50.1667398,292.405424 50.4967398,291.869174 50.4479898,291.314174 Z" id="Path" fill="url(#linearGradient-9)"></path>
          </g>
          <g id="Man" transform="translate(93.491124, 385.500000) scale(-1, 1) translate(-93.491124, -385.500000) translate(45.000000, 311.000000)">
              <path d="M24.8645126,127.869622 L0.558528064,95.2564561 L0.978489454,93.5305873 L67.0504972,55.3831356 L95.5445898,93.3177302 C96.6217523,94.6923311 97.0390785,96.4714617 96.6855107,98.1816654 C96.331943,99.8918691 95.2433469,101.359665 93.7094161,102.194448 L42.836559,131.568734 C36.7744193,135.070354 29.0510274,133.48068 24.8645126,127.869622 L24.8645126,127.869622 Z" id="Path" fill="#BCC0E5" fill-rule="nonzero"></path>
              <path d="M25.5778717,127.19078 L0.558528064,93.6226337 L67.9709605,54.7042939 L95.6308833,91.8104715 C96.7240303,93.2630011 97.1397052,95.1154975 96.771968,96.8958295 C96.4042309,98.6761616 95.2886032,100.212359 93.7094161,101.112904 L42.5086439,130.682788 C36.7968539,133.985338 29.5168048,132.483812 25.5778717,127.19078 Z" id="Path" fill="#FFFFFF" fill-rule="nonzero"></path>
              <path d="M35.2772539,118.187505 C34.4997878,118.189333 33.7675694,117.822156 33.3040107,117.198 L22.5518485,102.775491 C22.1308326,102.213615 21.9710235,101.498151 22.1129475,100.810535 C22.2548715,100.122918 22.6848967,99.5291959 23.2939721,99.179931 L65.3706516,74.8681935 C66.4488974,74.2440512 67.8236343,74.5259218 68.5692617,75.5240236 L79.3214238,89.9522862 C79.7405846,90.5147789 79.8992672,91.2296398 79.7574678,91.9166527 C79.6156683,92.6036656 79.1869164,93.1972801 78.5793003,93.547846 L36.5198794,117.830819 C36.1442787,118.056998 35.7156341,118.180035 35.2772539,118.187505 L35.2772539,118.187505 Z M66.5845126,75.2708962 C66.2774856,75.2721752 65.9760955,75.3534712 65.7100725,75.5067649 L23.6448987,99.7782321 C23.2070829,100.023329 22.8976045,100.446826 22.7970793,100.938405 C22.6965542,101.429984 22.8149351,101.940975 23.1213852,102.338271 L33.8735474,116.766533 C34.4005064,117.500056 35.4038869,117.703241 36.1747057,117.232518 L78.2398794,92.9495449 C78.6776953,92.7044475 78.9871736,92.2809513 79.0876988,91.7893721 C79.188224,91.2977929 79.0698431,90.7868018 78.7633929,90.3895063 L68.0112308,75.9669966 C67.6831851,75.5061667 67.150138,75.2353443 66.5845126,75.2420071 L66.5845126,75.2708962 Z" id="Shape" fill="#BCC0E5" fill-rule="nonzero"></path>
              <path d="M89.135864,143.667074 C89.1933929,145.231861 89.2566748,145.473483 88.7906902,145.968232 C88.3247057,146.462981 86.6851304,145.870433 86.541308,145.484989 C86.3974856,145.099545 86.1961342,145.484989 85.6150918,145.139815 C85.0340493,144.794641 82.6523505,143.741861 82.4625049,143.057267 C82.2726593,142.372672 83.2909219,142.044757 84.4587597,142.361166 C85.357936,142.559997 86.271849,142.685059 87.1913852,142.735105 L89.135864,143.667074 Z" id="Path" fill="url(#linearGradient-10)" fill-rule="nonzero"></path>
              <path d="M69.5932771,83.9290043 C81.3752076,81.2193904 85.2066362,73.8556839 85.2066362,73.8556839 L88.7446671,78.8204329 C88.7446671,78.8204329 82.7674084,87.0240622 70.5079875,86.6213595 C67.7581034,86.5465719 68.6670609,84.1418615 69.5932771,83.9290043 Z" id="Path" fill="url(#linearGradient-11)" fill-rule="nonzero"></path>
              <path d="M84.1481034,73.4702398 C84.6561778,73.8418696 85.1110365,74.2812437 85.5000339,74.7761472 C85.6438562,75.0177688 82.0943196,76.553792 79.7471381,77.0140236 L79.6148215,74.6438306 C79.6148215,74.6438306 84.3206902,74.2008576 84.1481034,73.4702398 Z" id="Path" fill="#001370" fill-rule="nonzero"></path>
              <path d="M60.3771381,96.3264947 C72.1763273,90.1076144 72.7401111,89.8890043 76.1400725,82.6115912 C79.8276786,74.6956066 81.2141265,83.6586182 81.0472925,85.2521703 C80.0117713,95.3772669 74.4487211,95.8087341 62.4999566,98.5528653 C59.8133543,99.2029425 59.5429682,96.7924792 60.3771381,96.3264947 Z" id="Path" fill="url(#linearGradient-12)" fill-rule="nonzero"></path>
              <polygon id="Path" fill="url(#linearGradient-13)" fill-rule="nonzero" points="64.9679489 67.0154908 15.5103041 95.7684638 15.5103041 75.4780005 64.9679489 46.7077688"></polygon>
              <path d="M15.5103041,96.4761278 C15.1915636,96.4750519 14.9128463,96.2610541 14.8295483,95.9533887 C14.7462502,95.6457233 14.8789346,95.3203416 15.1536246,95.1586568 L64.6285281,66.3941781 C64.9626129,66.2235043 65.3718335,66.343228 65.5612437,66.6670583 C65.7506538,66.9908885 65.6544131,67.4062594 65.3418871,67.613792 L15.8669837,96.3782707 C15.7596789,96.4438233 15.6360368,96.4777252 15.5103041,96.4761278 Z" id="Path" fill="#FFFFFF" fill-rule="nonzero"></path>
              <path d="M25.5778717,127.19078 L0.558528064,93.6226337 L67.9709605,54.7042939 L95.6308833,91.8104715 C96.7240303,93.2630011 97.1397052,95.1154975 96.771968,96.8958295 C96.4042309,98.6761616 95.2886032,100.212359 93.7094161,101.112904 L42.5086439,130.682788 C36.7968539,133.985338 29.5168048,132.483812 25.5778717,127.19078 Z" id="Path" fill="#FFFFFF" fill-rule="nonzero"></path>
              <path d="M35.2772539,118.187505 C34.4997878,118.189333 33.7675694,117.822156 33.3040107,117.198 L22.5518485,102.775491 C22.1308326,102.213615 21.9710235,101.498151 22.1129475,100.810535 C22.2548715,100.122918 22.6848967,99.5291959 23.2939721,99.179931 L65.3706516,74.8681935 C66.4488974,74.2440512 67.8236343,74.5259218 68.5692617,75.5240236 L79.3214238,89.9522862 C79.7405846,90.5147789 79.8992672,91.2296398 79.7574678,91.9166527 C79.6156683,92.6036656 79.1869164,93.1972801 78.5793003,93.547846 L36.5198794,117.830819 C36.1442787,118.056998 35.7156341,118.180035 35.2772539,118.187505 L35.2772539,118.187505 Z M66.5845126,75.2708962 C66.2774856,75.2721752 65.9760955,75.3534712 65.7100725,75.5067649 L23.6448987,99.7782321 C23.2070829,100.023329 22.8976045,100.446826 22.7970793,100.938405 C22.6965542,101.429984 22.8149351,101.940975 23.1213852,102.338271 L33.8735474,116.766533 C34.4005064,117.500056 35.4038869,117.703241 36.1747057,117.232518 L78.2398794,92.9495449 C78.6776953,92.7044475 78.9871736,92.2809513 79.0876988,91.7893721 C79.188224,91.2977929 79.0698431,90.7868018 78.7633929,90.3895063 L68.0112308,75.9669966 C67.6831851,75.5061667 67.150138,75.2353443 66.5845126,75.2420071 L66.5845126,75.2708962 Z" id="Shape" fill="#BCC0E5" fill-rule="nonzero"></path>
              <path d="M69.8579103,86.097846 C67.556752,85.7066491 66.2623505,85.5685796 65.7043196,84.6423634 C65.295864,83.9635217 66.4464431,84.5905873 66.8088756,84.5215526 C67.062003,84.4755294 66.8088756,83.4572669 66.0437404,83.0833286 C65.2786053,82.7093904 64.4731999,82.1743711 64.9909605,81.9327495 C65.671459,81.7277717 66.4068758,81.8196988 67.0159798,82.1858769 C67.5452462,82.5368036 68.2988756,82.951012 68.5289914,83.7506646 C68.7591072,84.5503171 69.7486053,84.5503171 69.7486053,84.5503171 L69.8579103,86.097846 Z" id="Path" fill="#F5D5D5" fill-rule="nonzero"></path>
              <path d="M61.4241651,98.1789271 C59.3186053,98.8290043 60.1700339,99.3697765 58.0989914,98.8692746 C56.0279489,98.3687727 56.0337018,98.3687727 55.6137404,97.9027881 C55.0384508,97.2354522 55.0384508,96.309236 56.4191458,96.4703171 C57.7998408,96.6313981 58.507447,96.9190429 58.5994933,96.7407032 C58.6915396,96.5623634 58.231308,95.9065333 58.6340107,95.8432514 C59.0367134,95.7799696 59.0712308,96.142402 59.3646284,96.5451047 C59.6580261,96.9478074 61.1940493,96.2632128 61.1940493,96.2632128 L61.4241651,98.1789271 Z" id="Path" fill="#F5D5D5" fill-rule="nonzero"></path>
              <path d="M76.1458254,146.376688 C76.1458254,147.291398 76.4047057,147.734371 76.1458254,148.194603 C75.6482544,148.753336 74.8742468,148.977038 74.1553234,148.769892 C73.6183086,148.627151 73.1419757,148.314305 72.79764,147.878194 C72.5847829,147.504255 72.2913852,147.550278 71.7391072,147.440973 C71.1868292,147.331668 68.8626593,145.715105 68.5807674,145.197344 C68.1147829,144.259622 69.6680647,143.787885 71.3709219,144.322904 C72.8347617,144.83658 74.2693798,145.430016 75.668335,146.100549 L76.1458254,146.376688 Z" id="Path" fill="url(#linearGradient-14)" fill-rule="nonzero"></path>
              <path d="M91.8339721,98.2364561 C91.178142,111.030896 90.1081034,117.025414 90.2864431,121.466649 C90.4647829,125.907885 89.9182578,139.386919 89.6133543,142.671823 C89.3084508,145.956726 86.0005358,144.357421 85.9372539,142.878927 C85.8739721,141.400433 83.3196864,124.233792 82.9975242,120.298811 C82.675362,116.363831 81.7203813,97.8222476 81.7203813,97.8222476 L91.8339721,98.2364561 Z" id="Path" fill="url(#linearGradient-15)" fill-rule="nonzero"></path>
              <path d="M87.2661729,107.515877 C81.0587983,121.898116 79.7874084,121.179004 78.2398794,127.397885 C76.6923505,133.616765 76.8131613,142.827151 76.663586,145.450472 C76.5140107,148.073792 73.3326593,147.75163 73.0162501,145.657576 C72.6998408,143.563522 71.2213466,126.27607 71.6815783,122.162749 C72.1418099,118.049429 79.2236246,97.9603171 79.2236246,97.9603171 L85.7416555,101.250973 L87.2661729,107.515877 Z" id="Path" fill="url(#linearGradient-16)" fill-rule="nonzero"></path>
              <path d="M84.1481034,73.4702398 C83.4635088,72.4922476 83.118335,70.9849889 83.394474,70.1795835 C83.670613,69.3741781 84.3954779,65.2033286 81.1450918,64.2080777 C77.8947057,63.2128267 75.5475242,66.0777688 76.2666362,69.2015912 C76.9857481,72.3254136 77.4172153,74.0570352 78.2513852,74.1203171 C79.0855551,74.1835989 79.4019644,73.9822476 79.6090686,74.6438306 C79.8161729,75.3054136 83.3657095,74.4309734 83.3657095,74.4309734 L84.1883736,74.1088113 L84.1481034,73.4702398 Z" id="Path" fill="#F5D5D5" fill-rule="nonzero"></path>
              <path d="M69.5932771,83.9290043 C81.3752076,81.2193904 85.2066362,73.8556839 85.2066362,73.8556839 L88.7446671,78.8204329 C88.7446671,78.8204329 82.7674084,87.0240622 70.5079875,86.6213595 C67.7581034,86.5465719 68.6670609,84.1418615 69.5932771,83.9290043 Z" id="Path" fill="url(#linearGradient-17)" fill-rule="nonzero"></path>
              <path d="M84.9304972,73.6370738 C78.1823505,78.0150275 77.6876014,77.6295835 76.0422732,83.6298537 C74.8111535,88.1286182 78.5275242,99.45607 76.0422732,105.59441 C75.1793389,107.757499 76.8534315,108.839043 78.705864,108.338541 C81.0875628,107.69997 80.2361342,110.392325 84.1883736,111.646456 C88.0082964,112.854564 91.3679875,109.132441 92.3862501,105.208966 C92.9097636,103.195452 92.4495319,87.0413209 92.1848987,85.9137534 C90.5108061,78.7398924 87.1108447,72.2103557 84.9304972,73.6370738 Z" id="Path" fill="url(#linearGradient-18)" fill-rule="nonzero"></path>
              <path d="M85.3502135,74.5442843 L87.0874956,73.8030302 C86.4347608,73.3088608 85.9345674,73.0617761 85.5869153,73.0617761 C85.2392632,73.0617761 84.6284412,73.3915336 83.7544494,74.0510488 L85.3502135,74.5442843 Z" id="Path-50" fill="#FF996F"></path>
              <path d="M84.1481034,73.4702398 C84.6561778,73.8418696 85.1110365,74.2812437 85.5000339,74.7761472 C85.6438562,75.0177688 82.0943196,76.553792 79.7471381,77.0140236 L79.6148215,74.6438306 C79.6148215,74.6438306 84.3206902,74.2008576 84.1481034,73.4702398 Z" id="Path" fill="#001370" fill-rule="nonzero"></path>
              <path d="M77.1410763,64.4899696 C73.85042,64.909931 74.4889914,66.6473055 75.4152076,68.0337534 C76.3414238,69.4202012 76.3471767,68.936958 77.5380261,69.598541 C77.5380261,69.598541 77.7623891,69.4777302 78.1881034,71.4682321 L78.8209219,71.6005487 C79.0280261,71.640819 78.5908061,71.0252591 78.8726979,70.7433673 C79.1545898,70.4614754 80.1786053,71.0482707 79.8506902,71.9744869 C79.5227752,72.9007032 79.5055165,72.63607 79.5055165,72.63607 C79.5055165,72.63607 80.3454393,73.4932514 80.799918,73.3034059 C81.2543968,73.1135603 83.4289914,72.85468 83.4980261,72.0435217 C83.5670609,71.2323634 84.4242423,70.0760313 84.1365976,67.9302012 C83.8489528,65.7843711 82.3071767,65.5657611 80.1786053,65.3241395 C78.0500339,65.0825178 77.9177173,64.3921703 77.1410763,64.4899696 Z" id="Path" fill="#001370" fill-rule="nonzero"></path>
              <ellipse id="Oval" fill="#2E2E2E" transform="translate(76.657336, 66.082577) rotate(20.000000) translate(-76.657336, -66.082577) " cx="76.6573359" cy="66.0825772" rx="3.52940805" ry="1.92594536"></ellipse>
              <ellipse id="Oval" fill="#FF996F" transform="translate(80.012256, 66.775012) rotate(35.000000) translate(-80.012256, -66.775012) " cx="80.0122563" cy="66.7750116" rx="4.81339209" ry="2.56762709"></ellipse>
              <ellipse id="Oval" fill="#1B1490" transform="translate(80.974760, 63.564896) rotate(35.000000) translate(-80.974760, -63.564896) " cx="80.9747601" cy="63.5648958" rx="7.05964173" ry="3.85144062"></ellipse>
              <path d="M60.3771381,96.3264947 C72.1763273,90.1076144 72.7401111,89.8890043 76.1400725,82.6115912 C79.8276786,74.6956066 81.2141265,83.6586182 81.0472925,85.2521703 C80.0117713,95.3772669 74.4487211,95.8087341 62.4999566,98.5528653 C59.8133543,99.2029425 59.5429682,96.7924792 60.3771381,96.3264947 Z" id="Path" fill="url(#linearGradient-19)" fill-rule="nonzero"></path>
              <polygon id="Path" fill="url(#linearGradient-13)" fill-rule="nonzero" points="64.9679489 67.0154908 15.5103041 95.7684638 15.5103041 75.4780005 64.9679489 46.7077688"></polygon>
              <path d="M9.34319961,37.7217456 L9.34319961,89.630124 C9.34720088,90.3460124 9.732086,91.0056121 10.3533689,91.3613084 C10.9746517,91.7170047 11.7383298,91.7149794 12.3577173,91.3559927 L66.4694547,60.1120159 C68.5506431,58.9118116 69.833517,56.6925495 69.8348987,54.2900854 L69.8348987,2.39896571 C69.8274013,1.68458103 69.441917,1.02766141 68.8219147,0.67269826 C68.2019124,0.317735113 67.4402422,0.317886845 66.8203813,0.673096987 L12.702891,31.8940622 C10.6230055,33.0976238 9.34252568,35.3187301 9.34319961,37.7217456 L9.34319961,37.7217456 Z" id="Path" fill="#080078" fill-rule="nonzero" opacity="0.8"></path>
              <polygon id="Path" fill="#FFFFFF" fill-rule="nonzero" points="21.0043196 66.451707 35.2657481 58.2193132 35.2657481 60.3651433 21.0043196 68.5975371"></polygon>
              <path d="M62.5783563,11.0154047 C62.5783563,10.3866522 62.0657863,10.1679556 61.4370337,10.5301718 C60.7897108,10.9142148 60.3654016,11.584979 60.2957111,12.3344183 L60.2957111,31.9624335 C60.2957111,32.5980203 60.8014469,32.8098826 61.4370337,32.4476665 C62.0809466,32.063384 62.5044272,31.3964655 62.5783563,30.6502542 L62.5783563,11.0154047 Z" id="Path" fill="#E6E8FB" fill-rule="nonzero" opacity="0.469447545"></path>
              <path d="M52.8258571,26.6469308 C52.8258571,26.0181783 52.3132871,25.7994817 51.6845345,26.1685321 C51.0390454,26.5511918 50.6150019,27.2189968 50.5432119,27.9659444 L50.5432119,37.1937622 C50.5432119,37.8225148 51.0489477,38.0412113 51.6845345,37.6721609 C52.3284474,37.2878784 52.751928,36.6209599 52.8258571,35.8747486 L52.8258571,26.6469308 Z" id="Path" fill="#E6E8FB" fill-rule="nonzero" opacity="0.469447545"></path>
              <path d="M33.3208587,38.6668496 C33.3208587,38.038097 32.8082887,37.8194004 32.1795361,38.1816166 C31.5353699,38.5688983 31.1121829,39.2378887 31.0382135,39.9858631 L31.0382135,48.6195322 C31.0382135,49.2482848 31.5507835,49.4601471 32.1795361,49.0979309 C32.823449,48.7136485 33.2469296,48.04673 33.3208587,47.3005187 L33.3208587,38.6668496 Z" id="Path" fill="#E6E8FB" fill-rule="nonzero" opacity="0.469447545"></path>
              <path d="M23.5683595,48.7405593 C23.5683595,48.1118067 23.0557895,47.8931102 22.4270369,48.2621606 C21.783124,48.6464431 21.3596434,49.3133616 21.2857143,50.0595729 L21.2857143,55.2415045 C21.2857143,55.8702571 21.7982843,56.0889537 22.4270369,55.7199032 C23.0709498,55.3356208 23.4944304,54.6687023 23.5683595,53.922491 L23.5683595,48.7405593 Z" id="Path" fill="#E6E8FB" fill-rule="nonzero" opacity="0.469447545"></path>
              <path d="M43.0801922,25.7090791 C43.0801922,25.0803265 42.5676221,24.8616299 41.9388696,25.2238461 C41.2962524,25.6127102 40.8736097,26.2808399 40.797547,27.0280926 L40.797547,42.4440365 C40.797547,43.0727891 41.310117,43.2914857 41.9388696,42.9224352 C42.5827825,42.5381528 43.006263,41.8712343 43.0801922,41.125023 L43.0801922,25.7090791 Z" id="Path" fill="#E6E8FB" fill-rule="nonzero" opacity="0.469447545"></path>
              <path d="M77.2807616,79.6582297 C77.75392,79.8085348 79.6694449,79.8963607 79.8955695,79.6582297 C80.1216942,79.4200987 82.6864962,76.815083 82.6864962,76.6809655 C82.6864962,76.5915539 82.5662081,76.5357365 82.325632,76.5135135 L79.7967651,76.5135135 C78.0896523,78.2991996 77.1969747,79.2409397 77.1187321,79.3387339 C77.0013683,79.4854252 77.2660345,79.6535514 77.2807616,79.6582297 Z" fill="#FF996F"></path>
              <polygon id="Path" fill="#FFFFFF" fill-rule="nonzero" points="21.0043196 71.5142553 35.2657481 63.2818615 35.2657481 65.4219387 21.0043196 73.6543325"></polygon>
              <polygon id="Path" fill="#FFFFFF" fill-rule="nonzero" points="21.0043196 76.5768036 35.2657481 68.3386568 35.2657481 70.4844869 21.0043196 78.7168808"></polygon>
              <path d="M45.0226593,57.5749889 C45.0226593,63.2013209 48.9748987,65.4852205 53.8533543,62.6720545 C58.7318099,59.8588885 62.6782964,53.0071897 62.6782964,47.3808576 C62.6782964,41.7545256 58.726057,39.464873 53.8533543,42.283792 C48.9806516,45.1027109 45.0226593,51.9429039 45.0226593,57.5749889 Z M47.0879489,56.3783866 C47.0879489,52.0694676 50.119725,46.8228267 53.8533543,44.6712437 C57.5869837,42.5196607 60.6130068,44.2627881 60.6130068,48.571707 C60.6130068,52.8806259 57.5869837,58.1272669 53.8533543,60.2846028 C50.119725,62.4419387 47.0879489,60.6930584 47.0879489,56.3783866 Z" id="Shape" fill="#FFFFFF" fill-rule="nonzero"></path>
              <path d="M48.2672925,51.2928267 L46.5414238,50.9361472 C48.129223,47.3348344 50.7985667,44.0326723 53.8303427,42.3068036 L53.8303427,44.6942553 C51.5291844,46.0059155 49.4869064,48.5371897 48.2672925,51.2928267 Z" id="Path" fill="#FFFFFF" fill-rule="nonzero"></path>
              <path d="M15.5103041,96.4761278 C15.1915636,96.4750519 14.9128463,96.2610541 14.8295483,95.9533887 C14.7462502,95.6457233 14.8789346,95.3203416 15.1536246,95.1586568 L64.6285281,66.3941781 C64.9626129,66.2235043 65.3718335,66.343228 65.5612437,66.6670583 C65.7506538,66.9908885 65.6544131,67.4062594 65.3418871,67.613792 L15.8669837,96.3782707 C15.7596789,96.4438233 15.6360368,96.4777252 15.5103041,96.4761278 Z" id="Path" fill="#FFFFFF" fill-rule="nonzero"></path>
          </g>
          <g transform="translate(154.000000, 302.000000)" fill-rule="nonzero">
              <path d="M41,36.1669038 C41,23.8268352 32.4819226,8.80127768 21.9919183,2.63948108 C11.5019141,-3.52231553 3,1.46972824 3,13.8097968 C3,26.1498655 11.5019141,41.175423 21.9919183,47.353695 C32.4819226,53.531967 41,48.5234478 41,36.1669038 Z" id="Path" fill="#E0E2FB"></path>
              <path d="M38,38.1669038 C38,25.8268352 29.4819226,10.8012777 18.9919183,4.63948108 C8.50191408,-1.52231553 0,3.46972824 0,15.8097968 C0,28.1498655 8.50191408,43.175423 18.9919183,49.353695 C29.4819226,55.531967 38,50.5234478 38,38.1669038 Z" id="Path" fill="#FFFFFF"></path>
              <g id="group-light-off">
                <path d="M34,35.933523 C34,26.0614681 27.275202,14.0410221 18.9936197,9.11158486 C10.7120374,4.18214758 4,8.1757826 4,18.0478375 C4,27.9198924 10.7120374,39.9403384 18.9936197,44.882956 C27.275202,49.8255736 34,45.8187582 34,35.933523 Z" id="Path" fill="#A5A5C5"></path>
              </g>
              <g id="group-light-red" opacity="0">
                <path d="M34,35.933523 C34,26.0614681 27.275202,14.0410221 18.9936197,9.11158486 C10.7120374,4.18214758 4,8.1757826 4,18.0478375 C4,27.9198924 10.7120374,39.9403384 18.9936197,44.882956 C27.275202,49.8255736 34,45.8187582 34,35.933523 Z" id="Path" fill="#FF723E" filter="url(#filter-20)"></path>
                <path d="M34,35.933523 C34,26.0614681 27.275202,14.0410221 18.9936197,9.11158486 C10.7120374,4.18214758 4,8.1757826 4,18.0478375 C4,27.9198924 10.7120374,39.9403384 18.9936197,44.882956 C27.275202,49.8255736 34,45.8187582 34,35.933523 Z" id="Path" fill="url(#radialGradient-light-red)"></path>
              </g>
              <g id="group-light-green" opacity="0">
                <path d="M34,35.933523 C34,26.0614681 27.275202,14.0410221 18.9936197,9.11158486 C10.7120374,4.18214758 4,8.1757826 4,18.0478375 C4,27.9198924 10.7120374,39.9403384 18.9936197,44.882956 C27.275202,49.8255736 34,45.8187582 34,35.933523 Z" id="Path" fill="#72FF3E" filter="url(#filter-20)"></path>
                <path d="M34,35.933523 C34,26.0614681 27.275202,14.0410221 18.9936197,9.11158486 C10.7120374,4.18214758 4,8.1757826 4,18.0478375 C4,27.9198924 10.7120374,39.9403384 18.9936197,44.882956 C27.275202,49.8255736 34,45.8187582 34,35.933523 Z" id="Path" fill="url(#radialGradient-light-green)"></path>
              </g>
          </g>
          <g id="Container" transform="translate(98.000000, 0.000000)">
              <mask id="mask-23" fill="white">
                  <use xlink:href="#path-22"></use>
              </mask>
              <g id="ContainerMask" opacity="0.8" fill-rule="nonzero"></g>
              <g mask="url(#mask-23)">
                  <g transform="translate(11.000000, 231.000000)">
                      <use xlink:href="#symbol-ball" x="0" y="0" />
                  </g>
              </g>
              <g mask="url(#mask-23)">
                  <g transform="translate(45.000000, 252.000000)">
                      <use xlink:href="#symbol-ball" x="0" y="0" />
                  </g>
              </g>
              <g mask="url(#mask-23)">
                  <g transform="translate(133.000000, 245.000000)">
                      <use xlink:href="#symbol-ball" x="0" y="0" />
                  </g>
              </g>
              <g mask="url(#mask-23)">
                  <g transform="translate(91.000000, 231.000000)">
                      <use xlink:href="#symbol-ball" x="0" y="0" />
                  </g>
              </g>
              <g mask="url(#mask-23)">
                  <g transform="translate(100.000000, 199.000000)">
                      <use xlink:href="#symbol-ball" x="0" y="0" />
                  </g>
              </g>
              <g mask="url(#mask-23)">
                  <g transform="translate(143.000000, 202.000000)">
                      <use xlink:href="#symbol-ball" x="0" y="0" />
                  </g>
              </g>
              <g mask="url(#mask-23)">
                  <g transform="translate(202.000000, 249.000000)">
                      <use xlink:href="#symbol-ball" x="0" y="0" />
                  </g>
              </g>
              <g mask="url(#mask-23)">
                  <g transform="translate(182.000000, 174.000000)">
                      <use xlink:href="#symbol-ball" x="0" y="0" />
                  </g>
              </g>
              <g mask="url(#mask-23)">
                  <g transform="translate(50.000000, 209.000000)">
                      <use xlink:href="#symbol-ball" x="0" y="0" />
                  </g>
              </g>
              <g mask="url(#mask-23)">
                  <g transform="translate(80.000000, 281.000000)">
                      <use xlink:href="#symbol-ball" x="0" y="0" />
                  </g>
              </g>
              <g mask="url(#mask-23)">
                  <g transform="translate(121.000000, 306.000000)">
                      <use xlink:href="#symbol-ball" x="0" y="0" />
                  </g>
              </g>
              <g mask="url(#mask-23)">
                  <g transform="translate(160.000000, 277.000000)">
                      <use xlink:href="#symbol-ball" x="0" y="0" />
                  </g>
              </g>
              <g mask="url(#mask-23)">
                  <g transform="translate(111.000000, 270.000000)">
                      <use xlink:href="#symbol-ball" x="0" y="0" />
                  </g>
              </g>
              <g mask="url(#mask-23)">
                  <g transform="translate(135.000000, 170.000000)">
                      <use xlink:href="#symbol-ball" x="0" y="0" />
                  </g>
              </g>
              <g mask="url(#mask-23)">
                  <g transform="translate(238.000000, 231.000000)">
                      <use xlink:href="#symbol-ball" x="0" y="0" />
                  </g>
              </g>
              <g mask="url(#mask-23)">
                  <g transform="translate(244.000000, 195.000000)">
                      <use xlink:href="#symbol-ball" x="0" y="0" />
                  </g>
              </g>
              <g mask="url(#mask-23)">
                  <g transform="translate(279.000000, 256.000000)">
                      <use xlink:href="#symbol-ball" x="0" y="0" />
                  </g>
              </g>
              <g mask="url(#mask-23)">
                  <g transform="translate(193.000000, 306.000000)">
                      <use xlink:href="#symbol-ball" x="0" y="0" />
                  </g>
              </g>
              <g mask="url(#mask-23)">
                  <g transform="translate(214.000000, 195.000000)">
                      <use xlink:href="#symbol-ball" x="0" y="0" />
                  </g>
              </g>
              <g mask="url(#mask-23)">
                  <g transform="translate(224.000000, 281.000000)">
                      <use xlink:href="#symbol-ball" x="0" y="0" />
                  </g>
              </g>
              <g mask="url(#mask-23)">
                  <g transform="translate(45.000000, 302.000000)">
                      <use xlink:href="#symbol-ball" x="0" y="0" />
                  </g>
              </g>
              <g mask="url(#mask-23)">
                  <g transform="translate(91.000000, 281.000000)">
                      <use xlink:href="#symbol-ball" x="0" y="0" />
                  </g>
              </g>
              <g mask="url(#mask-23)">
                  <g transform="translate(80.000000, 331.000000)">
                      <use xlink:href="#symbol-ball" x="0" y="0" />
                  </g>
              </g>
              <g mask="url(#mask-23)">
                  <g transform="translate(121.000000, 356.000000)">
                      <use xlink:href="#symbol-ball" x="0" y="0" />
                  </g>
              </g>
              <g mask="url(#mask-23)">
                  <g transform="translate(158.000000, 327.000000)">
                      <use xlink:href="#symbol-ball" x="0" y="0" />
                  </g>
              </g>
              <g mask="url(#mask-23)">
                  <g transform="translate(263.000000, 310.000000)">
                      <use xlink:href="#symbol-ball" x="0" y="0" />
                  </g>
              </g>
              <g mask="url(#mask-23)">
                  <g transform="translate(224.000000, 331.000000)">
                      <use xlink:href="#symbol-ball" x="0" y="0" />
                  </g>
              </g>
              <g mask="url(#mask-23)">
                  <g transform="translate(283.000000, 213.000000)">
                      <use xlink:href="#symbol-ball" x="0" y="0" />
                  </g>
              </g>
              <g mask="url(#mask-23)">
                  <g transform="translate(175.000000, 220.000000)">
                      <use xlink:href="#symbol-ball" x="0" y="0" />
                  </g>
              </g>
              <g mask="url(#mask-23)">
                  <g transform="translate(261.000000, 274.000000)">
                      <use xlink:href="#symbol-ball" x="0" y="0" />
                  </g>
              </g>
              <g mask="url(#mask-23)">
                  <g transform="translate(183.000000, 256.000000)">
                      <use xlink:href="#symbol-ball" x="0" y="0" />
                  </g>
              </g>
              <g mask="url(#mask-23)">
                <g transform="translate(318.000000, 238.000000)">
                    <use xlink:href="#symbol-ball" x="0" y="0" />
                </g>
              </g>
              <g mask="url(#mask-23)">
                <g transform="translate(167, 210)" id="group-ball-stub" opacity="0">
                    <use xlink:href="#symbol-ball" x="0" y="0" />
                </g>
              </g>
          </g>
          <g id="Gate" transform="translate(69.000000, 90.326791)">
              <mask id="mask-25" fill="white">
                  <use xlink:href="#path-24"></use>
              </mask>
              <g id="GateMask" opacity="0.688151042" fill-rule="nonzero"></g>
              <g id="Door" opacity="0.79671224" mask="url(#mask-25)" fill="#7EB4FF">
                  <g transform="rotate(30)">
                    <polygon id="polygon-top-door" points="0 -1000 0 0 1000 0 1000 -1000" />
                    <polygon id="polygon-bottom-door" points="0 0 0 1000 1000 1000 1000 0" />
                  </g>
              </g>
          </g>
      </g>
      <g transform="translate(265, 115)" id="group-ball-in">
          <use xlink:href="#symbol-ball" x="0" y="0" />
      </g>
      <g id="Scan1">
          <path
              id="path-light-scan"
              d="M 190, 275 L 290, 115 A 50, 100, 0, 0, 1, 290, 115 Z"
              fill="#F52549"
              style="mix-blend-mode: soft-light;"
          />
          <g fill="none" transform="translate(290, 140)" id="group-light-scan-ellipse-translate">
              <g transform="scale(0, 0)" id="group-light-scan-ellipse-scale">
                  <ellipse
                      id="ScanRing"
                      stroke="#FFF18A"
                      rx="24"
                      ry="12"
                      style="mix-blend-mode: soft-light"
                  />
              </g>
          </g>
      </g>
    </g>
    <animateTransform
      attributeName="transform"
      attributeType="XML"
      xlink:href="#group-ball-in"
      type="translate"
      from="265, -50"
      to="265, 115"
      dur="0.5s"
      begin="0s"
      fill="freeze"
      restart="always"
    />
    <animate
      attributeType="xml"
      attributeName="d"
      xlink:href="#path-light-scan"
      dur="1.5s"
      values="
        M 190, 275 L 290, 115 A 50, 100, 0, 0, 1, 290, 115 Z;
        M 190, 275 L 265, 140 A 50, 100, 0, 0, 1, 315, 140 Z;
        M 190, 275 L 290, 165 A 50, 100, 0, 0, 1, 290, 165 Z
      "
      begin="0.5s"
      fill="freeze"
      restart="always"
    />
    <animateTransform
      attributeName="transform"
      attributeType="XML"
      xlink:href="#group-light-scan-ellipse-translate"
      type="translate"
      from="290, 115"
      to="290, 165"
      begin="0.5s"
      dur="1.5s"
      fill="freeze"
      restart="always"
    />
    <animateTransform
      attributeName="transform"
      attributeType="XML"
      xlink:href="#group-light-scan-ellipse-scale"
      type="scale"
      from="0, 0"
      to="1, 1"
      begin="0.5s"
      dur="0.75s"
      fill="freeze"
      restart="always"
    />
    <animateTransform
      attributeName="transform"
      attributeType="XML"
      xlink:href="#group-light-scan-ellipse-scale"
      type="scale"
      from="1, 1"
      to="0, 0"
      begin="1.25s"
      dur="0.75s"
      fill="freeze"
      restart="always"
    />
    <animate
      attributeType="xml"
      attributeName="opacity"
      xlink:href="#group-light-off"
      dur="0.001s"
      to="0"
      begin="2s"
      fill="freeze"
      restart="always"
    />
    <animate
      attributeType="xml"
      attributeName="opacity"
      xlink:href="#group-light-green"
      dur="0.001s"
      to="1"
      begin="2s"
      fill="freeze"
      restart="always"
    />
    <animateTransform
      attributeName="transform"
      attributeType="XML"
      xlink:href="#polygon-top-door"
      type="translate"
      from="0, 0"
      to="0, -90"
      begin="2.5s"
      dur="0.5s"
      fill="freeze"
      restart="always"
    />
    <animateTransform
      attributeName="transform"
      attributeType="XML"
      xlink:href="#polygon-bottom-door"
      type="translate"
      from="0, 0"
      to="0, 90"
      begin="2.5s"
      dur="0.5s"
      fill="freeze"
      restart="always"
    />
    <animateTransform
      attributeName="transform"
      attributeType="XML"
      xlink:href="#group-ball-in"
      type="translate"
      from="265, 115"
      to="265, 210"
      begin="3s"
      dur="0.25s"
      fill="freeze"
      restart="always"
    />
    <animate
      attributeType="xml"
      attributeName="opacity"
      xlink:href="#group-light-off"
      dur="0.001s"
      to="1"
      begin="3.25s"
      fill="freeze"
      restart="always"
    />
    <animate
      attributeType="xml"
      attributeName="opacity"
      xlink:href="#group-light-green"
      dur="0.001s"
      to="0"
      begin="3.25s"
      fill="freeze"
      restart="always"
    />
    <animateTransform
      attributeName="transform"
      attributeType="XML"
      xlink:href="#polygon-top-door"
      type="translate"
      from="0, -90"
      to="0, 0"
      begin="3.5s"
      dur="0.5s"
      fill="freeze"
      restart="always"
    />
    <animateTransform
      attributeName="transform"
      attributeType="XML"
      xlink:href="#polygon-bottom-door"
      type="translate"
      from="0, 90"
      to="0, 0"
      begin="3.5s"
      dur="0.5s"
      fill="freeze"
      restart="always"
    />
    <animate
      attributeType="xml"
      attributeName="opacity"
      xlink:href="#group-ball-in"
      dur="0.001s"
      from="1"
      to="0"
      begin="3.25s"
      fill="freeze"
      restart="always"
    />
    <animate
      attributeType="xml"
      attributeName="opacity"
      xlink:href="#group-ball-stub"
      dur="0.001s"
      from="0"
      to="1"
      begin="3.25s"
      fill="freeze"
      restart="always"
    />
    <!-- Second ball -->
    <animate
      attributeType="xml"
      attributeName="opacity"
      xlink:href="#group-ball-in"
      dur="0.001s"
      from="0"
      to="1"
      begin="4.25s"
      fill="freeze"
      restart="always"
    />
    <animateTransform
      attributeName="transform"
      attributeType="XML"
      xlink:href="#group-ball-in"
      type="translate"
      from="265, -50"
      to="265, 115"
      begin="4.25s"
      dur="0.5s"
      fill="freeze"
      restart="always"
    />
    <animate
      attributeType="xml"
      attributeName="d"
      xlink:href="#path-light-scan"
      dur="1.5s"
      values="
        M 190, 275 L 290, 115 A 50, 100, 0, 0, 1, 290, 115 Z;
        M 190, 275 L 265, 140 A 50, 100, 0, 0, 1, 315, 140 Z;
        M 190, 275 L 290, 165 A 50, 100, 0, 0, 1, 290, 165 Z
      "
      begin="4.75s"
      fill="freeze"
      restart="always"
    />
    <animateTransform
      attributeName="transform"
      attributeType="XML"
      xlink:href="#group-light-scan-ellipse-translate"
      type="translate"
      from="290, 115"
      to="290, 165"
      begin="4.75s"
      dur="1.5s"
      fill="freeze"
      restart="always"
    />
    <animateTransform
      attributeName="transform"
      attributeType="XML"
      xlink:href="#group-light-scan-ellipse-scale"
      type="scale"
      from="0, 0"
      to="1, 1"
      begin="4.75s"
      dur="0.75s"
      fill="freeze"
      restart="always"
    />
    <animateTransform
      attributeName="transform"
      attributeType="XML"
      xlink:href="#group-light-scan-ellipse-scale"
      type="scale"
      from="1, 1"
      to="0, 0"
      begin="5.5s"
      dur="0.75s"
      fill="freeze"
      restart="always"
    />
    <animate
      attributeType="xml"
      attributeName="opacity"
      xlink:href="#group-light-off"
      dur="0.001s"
      to="0"
      begin="6.25s"
      fill="freeze"
      restart="always"
    />
    <animate
      attributeType="xml"
      attributeName="opacity"
      xlink:href="#group-light-green"
      dur="0.001s"
      to="1"
      begin="6.25s"
      fill="freeze"
      restart="always"
    />
    <animateTransform
      attributeName="transform"
      attributeType="XML"
      xlink:href="#polygon-top-door"
      type="translate"
      from="0, 0"
      to="0, -90"
      begin="6.75s"
      dur="0.5s"
      fill="freeze"
      restart="always"
    />
    <animateTransform
      attributeName="transform"
      attributeType="XML"
      xlink:href="#polygon-bottom-door"
      type="translate"
      from="0, 0"
      to="0, 90"
      begin="6.75s"
      dur="0.5s"
      fill="freeze"
      restart="always"
    />
    <animateTransform
      attributeName="transform"
      attributeType="XML"
      xlink:href="#group-ball-in"
      type="translate"
      from="265, 115"
      to="265, 210"
      begin="7.25s"
      dur="0.25s"
      fill="freeze"
      restart="always"
    />
    <animate
      attributeType="xml"
      attributeName="opacity"
      xlink:href="#group-light-off"
      dur="0.001s"
      to="1"
      begin="7.5s"
      fill="freeze"
      restart="always"
    />
    <animate
      attributeType="xml"
      attributeName="opacity"
      xlink:href="#group-light-green"
      dur="0.001s"
      to="0"
      begin="7.5s"
      fill="freeze"
      restart="always"
    />
    <animateTransform
      attributeName="transform"
      attributeType="XML"
      xlink:href="#polygon-top-door"
      type="translate"
      from="0, -90"
      to="0, 0"
      begin="7.75s"
      dur="0.5s"
      fill="freeze"
      restart="always"
    />
    <animateTransform
      attributeName="transform"
      attributeType="XML"
      xlink:href="#polygon-bottom-door"
      type="translate"
      from="0, 90"
      to="0, 0"
      begin="7.75s"
      dur="0.5s"
      fill="freeze"
      restart="always"
    />
    <animate
      attributeType="xml"
      attributeName="opacity"
      xlink:href="#group-ball-in"
      dur="0.001s"
      from="1"
      to="0"
      begin="7.5s"
      fill="freeze"
      restart="always"
    />
    <!-- Third ball -->
    <animate
      attributeType="xml"
      attributeName="opacity"
      xlink:href="#group-ball-in"
      dur="0.001s"
      from="0"
      to="1"
      begin="8.5s"
      fill="freeze"
      restart="always"
    />
    <animateTransform
      attributeName="transform"
      attributeType="XML"
      xlink:href="#group-ball-in"
      type="translate"
      from="265, -50"
      to="265, 115"
      begin="8.5s"
      dur="0.5s"
      fill="freeze"
      restart="always"
    />
    <animate
      attributeType="xml"
      attributeName="d"
      xlink:href="#path-light-scan"
      dur="1.5s"
      values="
        M 190, 275 L 290, 115 A 50, 100, 0, 0, 1, 290, 115 Z;
        M 190, 275 L 265, 140 A 50, 100, 0, 0, 1, 315, 140 Z;
        M 190, 275 L 290, 165 A 50, 100, 0, 0, 1, 290, 165 Z
      "
      begin="9s"
      fill="freeze"
      restart="always"
    />
    <animateTransform
      attributeName="transform"
      attributeType="XML"
      xlink:href="#group-light-scan-ellipse-translate"
      type="translate"
      from="290, 115"
      to="290, 165"
      begin="9s"
      dur="1.5s"
      fill="freeze"
      restart="always"
    />
    <animateTransform
      attributeName="transform"
      attributeType="XML"
      xlink:href="#group-light-scan-ellipse-scale"
      type="scale"
      from="0, 0"
      to="1, 1"
      begin="9s"
      dur="0.75s"
      fill="freeze"
      restart="always"
    />
    <animateTransform
      attributeName="transform"
      attributeType="XML"
      xlink:href="#group-light-scan-ellipse-scale"
      type="scale"
      from="1, 1"
      to="0, 0"
      begin="9.75s"
      dur="0.75s"
      fill="freeze"
      restart="always"
    />
    <animate
      attributeType="xml"
      attributeName="opacity"
      xlink:href="#group-light-off"
      dur="0.001s"
      to="0"
      begin="10.5s"
      fill="freeze"
      restart="always"
    />
    <animate
      attributeType="xml"
      attributeName="opacity"
      xlink:href="#group-light-red"
      dur="0.001s"
      to="1"
      begin="10.5s"
      fill="freeze"
      restart="always"
    />
    <animate
      attributeType="xml"
      attributeName="opacity"
      xlink:href="#group-light-off"
      dur="0.001s"
      to="1"
      begin="10.75s"
      fill="freeze"
      restart="always"
    />
    <animate
      attributeType="xml"
      attributeName="opacity"
      xlink:href="#group-light-red"
      dur="0.001s"
      to="0"
      begin="10.75s"
      fill="freeze"
      restart="always"
    />
    <animate
      attributeType="xml"
      attributeName="opacity"
      xlink:href="#group-light-off"
      dur="0.001s"
      to="0"
      begin="11s"
      fill="freeze"
      restart="always"
    />
    <animate
      attributeType="xml"
      attributeName="opacity"
      xlink:href="#group-light-red"
      dur="0.001s"
      to="1"
      begin="11s"
      fill="freeze"
      restart="always"
    />
    <animate
      attributeType="xml"
      attributeName="opacity"
      xlink:href="#group-light-off"
      dur="0.001s"
      to="1"
      begin="11.25s"
      fill="freeze"
      restart="always"
    />
    <animate
      attributeType="xml"
      attributeName="opacity"
      xlink:href="#group-light-red"
      dur="0.001s"
      to="0"
      begin="11.25s"
      fill="freeze"
      restart="always"
    />
    <animate
      attributeType="xml"
      attributeName="opacity"
      xlink:href="#group-light-off"
      dur="0.001s"
      to="0"
      begin="11.5s"
      fill="freeze"
      restart="always"
    />
    <animate
      attributeType="xml"
      attributeName="opacity"
      xlink:href="#group-light-red"
      dur="0.001s"
      to="1"
      begin="11.5s"
      fill="freeze"
      restart="always"
    />
    <animate
      attributeType="xml"
      attributeName="opacity"
      xlink:href="#group-light-off"
      dur="0.001s"
      to="1"
      begin="11.75s"
      fill="freeze"
      restart="always"
    />
    <animate
      attributeType="xml"
      attributeName="opacity"
      xlink:href="#group-light-red"
      dur="0.001s"
      to="0"
      begin="11.75s"
      fill="freeze"
      restart="always"
    />
    <animateTransform
      attributeName="transform"
      attributeType="XML"
      xlink:href="#group-ball-in"
      type="translate"
      from="265, 115"
      to="265, -50"
      begin="12s"
      dur="0.5s"
      fill="freeze"
      restart="always"
    />
    <animateTransform
      attributeName="transform"
      attributeType="XML"
      xlink:href="#root"
      type="translate"
      from="0, 0"
      to="0, -600"
      begin="11s"
      dur="0.5s"
      fill="freeze"
      restart="always"
    />
</svg>
