<?xml version="1.0" encoding="UTF-8"?>
<svg width="148px" height="147px" viewBox="0 0 148 147" version="1.1" xmlns="http://www.w3.org/2000/svg" xmlns:xlink="http://www.w3.org/1999/xlink">
    <title>icon 18</title>
    <g id="Illustration" stroke="none" stroke-width="1" fill="none" fill-rule="evenodd">
        <g id="icon-18" transform="translate(1.500000, 1.000000)">
            <g id="Group" fill="#4A90E2" fill-opacity="0.8" stroke="#1560BD" stroke-width="2">
                <g id="rings">
                    <circle id="Oval" opacity="0.015" cx="72.5" cy="72.5" r="72.5"></circle>
                    <ellipse id="Oval" opacity="0.04" cx="72.9559748" cy="72.9588608" rx="65.6603774" ry="65.6170886"></ellipse>
                    <ellipse id="Oval" opacity="0.07" cx="72.9559748" cy="72.9588608" rx="57.4528302" ry="57.3575949"></ellipse>
                    <ellipse id="Oval" opacity="0.13" cx="72.9559748" cy="72.5" rx="40.1257862" ry="40.3797468"></ellipse>
                    <ellipse id="Oval" opacity="0.1" cx="72.9559748" cy="72.5" rx="18.2389937" ry="18.3544304"></ellipse>
                </g>
            </g>
            <g id="Group-4" opacity="0.5" transform="translate(103.000000, 67.000000)">
                <rect id="Rectangle" stroke="#1560BD" stroke-width="2" fill="#FFFFFF" x="0" y="0" width="33" height="42" rx="2"></rect>
                <rect id="Rectangle" stroke="#1560BD" stroke-width="2" fill-opacity="0.12" fill="#4A90E2" x="0" y="3" width="33" height="32"></rect>
                <polygon id="Rectangle" fill="#4A90E2" opacity="0.100000001" points="1 4 32 4 1 29"></polygon>
                <circle id="Oval" stroke="#1560BD" stroke-width="2" fill="#4A90E2" cx="16.5" cy="38.5" r="1"></circle>
            </g>
            <g id="Group-2" transform="translate(25.000000, 34.000000)">
                <path d="M88,87 C88,89.209139 86.209139,91 84,91 L84,91 L6,91 C3.790861,91 2,89.209139 2,87 L2,87 L2,82 L11,82 L11,0 L88,0 Z" id="Combined-Shape" stroke="#1560BD" stroke-width="2" fill="#FFFFFF"></path>
                <path d="M0,38 L11,38 L11,86 C11,88.7614237 8.76142375,91 6,91 L5,91 C2.23857625,91 3.38176876e-16,88.7614237 0,86 L0,38 L0,38 Z" id="Rectangle" stroke="#1560BD" stroke-width="2" fill="#D9E5F2"></path>
                <path d="M1,85.472 L1.0456928,85.5128405 C2.03955625,86.3847345 3.32492729,86.934056 4.74046947,86.9944709 L4.97870591,86.9997733 L84,87 L84.2241536,86.9948042 L84.4508773,86.9786602 C85.3519692,86.8943998 86.1817247,86.5756525 86.8789356,86.084597 L87,85.996 L87,87 C87,88.600955 85.7424301,89.9180655 84.1505472,89.9963105 L83.9754867,90.0003005 L5,90 C2.790861,90 1,88.209139 1,86 L1,85.472 Z" id="Combined-Shape" fill="#1560BD" fill-rule="nonzero" opacity="0.119999997"></path>
                <rect id="Rectangle" fill="#4A90E2" x="18" y="8" width="4" height="3" rx="1.5"></rect>
                <rect id="Rectangle" fill="#4A90E2" x="37" y="8" width="19" height="3" rx="1.5"></rect>
                <rect id="Rectangle" fill="#4A90E2" x="24" y="8" width="11" height="3" rx="1.5"></rect>
            </g>
            <line x1="18.0934497" y1="125" x2="119.5" y2="125" id="Path-4" stroke="#1560BD" stroke-width="2" opacity="0.200000003" stroke-linecap="round"></line>
            <line x1="14" y1="125" x2="15" y2="125" id="Path-4" stroke="#1560BD" stroke-width="2" opacity="0.200000003" stroke-linecap="round"></line>
            <line x1="123" y1="125" x2="126" y2="125" id="Path-4" stroke="#1560BD" stroke-width="2" opacity="0.200000003" stroke-linecap="round"></line>
            <g id="Group-36" opacity="0.5" transform="translate(6.000000, 29.000000)" fill="#4A90E2">
                <rect id="Rectangle" x="2" y="0" width="21" height="2" rx="1"></rect>
                <rect id="Rectangle" x="5" y="24" width="18" height="2" rx="1"></rect>
                <rect id="Rectangle" x="17" y="28" width="6" height="2" rx="1"></rect>
                <rect id="Rectangle" x="12" y="20" width="11" height="2" rx="1"></rect>
                <rect id="Rectangle" x="5" y="4" width="6" height="2" rx="1"></rect>
                <rect id="Rectangle" x="12" y="4" width="11" height="2" rx="1"></rect>
                <rect id="Rectangle" x="3" y="8" width="11" height="2" rx="1"></rect>
                <rect id="Rectangle" x="15" y="8" width="8" height="2" rx="1"></rect>
                <rect id="Rectangle" x="0" y="12" width="10" height="2" rx="1"></rect>
                <rect id="Rectangle" x="9" y="16" width="9" height="2" rx="1"></rect>
                <rect id="Rectangle" x="19" y="16" width="4" height="2" rx="1"></rect>
                <rect id="Rectangle" x="11" y="12" width="12" height="2" rx="1"></rect>
                <rect id="Rectangle" x="5" y="16" width="3" height="2" rx="1"></rect>
            </g>
            <g id="Group-82" transform="translate(43.000000, 50.000000)" fill="#1560BD">
                <path d="M6,0 L6,6 L0,6 L0,0 L6,0 Z M4,2 L2,2 L2,4 L4,4 L4,2 Z" id="Rectangle" fill-rule="nonzero"></path>
                <path d="M6,12 L6,18 L0,18 L0,12 L6,12 Z M4,14 L2,14 L2,16 L4,16 L4,14 Z" id="Rectangle" fill-rule="nonzero"></path>
                <path d="M18,0 L18,6 L12,6 L12,0 L18,0 Z M16,2 L14,2 L14,4 L16,4 L16,2 Z" id="Rectangle" fill-rule="nonzero"></path>
                <rect id="Rectangle" x="8" y="0" width="2" height="2"></rect>
                <rect id="Rectangle" x="8" y="4" width="2" height="4"></rect>
                <rect id="Rectangle" x="16" y="10" width="2" height="4"></rect>
                <rect id="Rectangle" x="0" y="8" width="4" height="2"></rect>
                <rect id="Rectangle" x="14" y="16" width="4" height="2"></rect>
                <rect id="Rectangle" x="14" y="8" width="4" height="2"></rect>
                <rect id="Rectangle" x="8" y="16" width="4" height="2"></rect>
                <rect id="Rectangle" x="6" y="8" width="2" height="2"></rect>
                <rect id="Rectangle" x="14" y="12" width="2" height="2"></rect>
                <rect id="Rectangle" x="8" y="10" width="2" height="2"></rect>
                <rect id="Rectangle" x="10" y="8" width="2" height="2"></rect>
                <rect id="Rectangle" x="10" y="12" width="2" height="2"></rect>
                <rect id="Rectangle" x="8" y="14" width="2" height="2"></rect>
            </g>
            <g id="Group-82" transform="translate(66.000000, 50.000000)" fill="#1560BD">
                <path d="M6,0 L6,6 L0,6 L0,0 L6,0 Z M4,2 L2,2 L2,4 L4,4 L4,2 Z" id="Rectangle" fill-rule="nonzero"></path>
                <path d="M6,12 L6,18 L0,18 L0,12 L6,12 Z M4,14 L2,14 L2,16 L4,16 L4,14 Z" id="Rectangle" fill-rule="nonzero"></path>
                <path d="M18,0 L18,6 L12,6 L12,0 L18,0 Z M16,2 L14,2 L14,4 L16,4 L16,2 Z" id="Rectangle" fill-rule="nonzero"></path>
                <rect id="Rectangle" x="8" y="0" width="2" height="2"></rect>
                <rect id="Rectangle" x="8" y="4" width="2" height="4"></rect>
                <rect id="Rectangle" x="16" y="10" width="2" height="4"></rect>
                <rect id="Rectangle" x="0" y="8" width="4" height="2"></rect>
                <rect id="Rectangle" x="14" y="16" width="4" height="2"></rect>
                <rect id="Rectangle" x="14" y="8" width="4" height="2"></rect>
                <rect id="Rectangle" x="8" y="16" width="4" height="2"></rect>
                <rect id="Rectangle" x="6" y="8" width="2" height="2"></rect>
                <rect id="Rectangle" x="14" y="12" width="2" height="2"></rect>
                <rect id="Rectangle" x="8" y="10" width="2" height="2"></rect>
                <rect id="Rectangle" x="10" y="8" width="2" height="2"></rect>
                <rect id="Rectangle" x="10" y="12" width="2" height="2"></rect>
                <rect id="Rectangle" x="8" y="14" width="2" height="2"></rect>
            </g>
            <g id="Group-82" transform="translate(89.000000, 50.000000)" fill="#1560BD">
                <path d="M6,0 L6,6 L0,6 L0,0 L6,0 Z M4,2 L2,2 L2,4 L4,4 L4,2 Z" id="Rectangle" fill-rule="nonzero"></path>
                <path d="M6,12 L6,18 L0,18 L0,12 L6,12 Z M4,14 L2,14 L2,16 L4,16 L4,14 Z" id="Rectangle" fill-rule="nonzero"></path>
                <path d="M18,0 L18,6 L12,6 L12,0 L18,0 Z M16,2 L14,2 L14,4 L16,4 L16,2 Z" id="Rectangle" fill-rule="nonzero"></path>
                <rect id="Rectangle" x="8" y="0" width="2" height="2"></rect>
                <rect id="Rectangle" x="8" y="4" width="2" height="4"></rect>
                <rect id="Rectangle" x="16" y="10" width="2" height="4"></rect>
                <rect id="Rectangle" x="0" y="8" width="4" height="2"></rect>
                <rect id="Rectangle" x="14" y="16" width="4" height="2"></rect>
                <rect id="Rectangle" x="14" y="8" width="4" height="2"></rect>
                <rect id="Rectangle" x="8" y="16" width="4" height="2"></rect>
                <rect id="Rectangle" x="6" y="8" width="2" height="2"></rect>
                <rect id="Rectangle" x="14" y="12" width="2" height="2"></rect>
                <rect id="Rectangle" x="8" y="10" width="2" height="2"></rect>
                <rect id="Rectangle" x="10" y="8" width="2" height="2"></rect>
                <rect id="Rectangle" x="10" y="12" width="2" height="2"></rect>
                <rect id="Rectangle" x="8" y="14" width="2" height="2"></rect>
            </g>
            <g id="Group-82" transform="translate(43.000000, 74.000000)" fill="#1560BD">
                <path d="M6,0 L6,6 L0,6 L0,0 L6,0 Z M4,2 L2,2 L2,4 L4,4 L4,2 Z" id="Rectangle" fill-rule="nonzero"></path>
                <path d="M6,12 L6,18 L0,18 L0,12 L6,12 Z M4,14 L2,14 L2,16 L4,16 L4,14 Z" id="Rectangle" fill-rule="nonzero"></path>
                <path d="M18,0 L18,6 L12,6 L12,0 L18,0 Z M16,2 L14,2 L14,4 L16,4 L16,2 Z" id="Rectangle" fill-rule="nonzero"></path>
                <rect id="Rectangle" x="8" y="0" width="2" height="2"></rect>
                <rect id="Rectangle" x="8" y="4" width="2" height="4"></rect>
                <rect id="Rectangle" x="16" y="10" width="2" height="4"></rect>
                <rect id="Rectangle" x="0" y="8" width="4" height="2"></rect>
                <rect id="Rectangle" x="14" y="16" width="4" height="2"></rect>
                <rect id="Rectangle" x="14" y="8" width="4" height="2"></rect>
                <rect id="Rectangle" x="8" y="16" width="4" height="2"></rect>
                <rect id="Rectangle" x="6" y="8" width="2" height="2"></rect>
                <rect id="Rectangle" x="14" y="12" width="2" height="2"></rect>
                <rect id="Rectangle" x="8" y="10" width="2" height="2"></rect>
                <rect id="Rectangle" x="10" y="8" width="2" height="2"></rect>
                <rect id="Rectangle" x="10" y="12" width="2" height="2"></rect>
                <rect id="Rectangle" x="8" y="14" width="2" height="2"></rect>
            </g>
            <g id="Group-82" transform="translate(66.000000, 74.000000)" fill="#1560BD">
                <path d="M6,0 L6,6 L0,6 L0,0 L6,0 Z M4,2 L2,2 L2,4 L4,4 L4,2 Z" id="Rectangle" fill-rule="nonzero"></path>
                <path d="M6,12 L6,18 L0,18 L0,12 L6,12 Z M4,14 L2,14 L2,16 L4,16 L4,14 Z" id="Rectangle" fill-rule="nonzero"></path>
                <path d="M18,0 L18,6 L12,6 L12,0 L18,0 Z M16,2 L14,2 L14,4 L16,4 L16,2 Z" id="Rectangle" fill-rule="nonzero"></path>
                <rect id="Rectangle" x="8" y="0" width="2" height="2"></rect>
                <rect id="Rectangle" x="8" y="4" width="2" height="4"></rect>
                <rect id="Rectangle" x="16" y="10" width="2" height="4"></rect>
                <rect id="Rectangle" x="0" y="8" width="4" height="2"></rect>
                <rect id="Rectangle" x="14" y="16" width="4" height="2"></rect>
                <rect id="Rectangle" x="14" y="8" width="4" height="2"></rect>
                <rect id="Rectangle" x="8" y="16" width="4" height="2"></rect>
                <rect id="Rectangle" x="6" y="8" width="2" height="2"></rect>
                <rect id="Rectangle" x="14" y="12" width="2" height="2"></rect>
                <rect id="Rectangle" x="8" y="10" width="2" height="2"></rect>
                <rect id="Rectangle" x="10" y="8" width="2" height="2"></rect>
                <rect id="Rectangle" x="10" y="12" width="2" height="2"></rect>
                <rect id="Rectangle" x="8" y="14" width="2" height="2"></rect>
            </g>
            <g id="Group-82" transform="translate(89.000000, 74.000000)" fill="#1560BD">
                <path d="M6,0 L6,6 L0,6 L0,0 L6,0 Z M4,2 L2,2 L2,4 L4,4 L4,2 Z" id="Rectangle" fill-rule="nonzero"></path>
                <path d="M6,12 L6,18 L0,18 L0,12 L6,12 Z M4,14 L2,14 L2,16 L4,16 L4,14 Z" id="Rectangle" fill-rule="nonzero"></path>
                <path d="M18,0 L18,6 L12,6 L12,0 L18,0 Z M16,2 L14,2 L14,4 L16,4 L16,2 Z" id="Rectangle" fill-rule="nonzero"></path>
                <rect id="Rectangle" x="8" y="0" width="2" height="2"></rect>
                <rect id="Rectangle" x="8" y="4" width="2" height="4"></rect>
                <rect id="Rectangle" x="16" y="10" width="2" height="4"></rect>
                <rect id="Rectangle" x="0" y="8" width="4" height="2"></rect>
                <rect id="Rectangle" x="14" y="16" width="4" height="2"></rect>
                <rect id="Rectangle" x="14" y="8" width="4" height="2"></rect>
                <rect id="Rectangle" x="8" y="16" width="4" height="2"></rect>
                <rect id="Rectangle" x="6" y="8" width="2" height="2"></rect>
                <rect id="Rectangle" x="14" y="12" width="2" height="2"></rect>
                <rect id="Rectangle" x="8" y="10" width="2" height="2"></rect>
                <rect id="Rectangle" x="10" y="8" width="2" height="2"></rect>
                <rect id="Rectangle" x="10" y="12" width="2" height="2"></rect>
                <rect id="Rectangle" x="8" y="14" width="2" height="2"></rect>
            </g>
            <g id="Group-82" transform="translate(43.000000, 98.000000)" fill="#1560BD">
                <path d="M6,0 L6,6 L0,6 L0,0 L6,0 Z M4,2 L2,2 L2,4 L4,4 L4,2 Z" id="Rectangle" fill-rule="nonzero"></path>
                <path d="M6,12 L6,18 L0,18 L0,12 L6,12 Z M4,14 L2,14 L2,16 L4,16 L4,14 Z" id="Rectangle" fill-rule="nonzero"></path>
                <path d="M18,0 L18,6 L12,6 L12,0 L18,0 Z M16,2 L14,2 L14,4 L16,4 L16,2 Z" id="Rectangle" fill-rule="nonzero"></path>
                <rect id="Rectangle" x="8" y="0" width="2" height="2"></rect>
                <rect id="Rectangle" x="8" y="4" width="2" height="4"></rect>
                <rect id="Rectangle" x="16" y="10" width="2" height="4"></rect>
                <rect id="Rectangle" x="0" y="8" width="4" height="2"></rect>
                <rect id="Rectangle" x="14" y="16" width="4" height="2"></rect>
                <rect id="Rectangle" x="14" y="8" width="4" height="2"></rect>
                <rect id="Rectangle" x="8" y="16" width="4" height="2"></rect>
                <rect id="Rectangle" x="6" y="8" width="2" height="2"></rect>
                <rect id="Rectangle" x="14" y="12" width="2" height="2"></rect>
                <rect id="Rectangle" x="8" y="10" width="2" height="2"></rect>
                <rect id="Rectangle" x="10" y="8" width="2" height="2"></rect>
                <rect id="Rectangle" x="10" y="12" width="2" height="2"></rect>
                <rect id="Rectangle" x="8" y="14" width="2" height="2"></rect>
            </g>
            <g id="Group-82" transform="translate(66.000000, 98.000000)" fill="#1560BD">
                <path d="M6,0 L6,6 L0,6 L0,0 L6,0 Z M4,2 L2,2 L2,4 L4,4 L4,2 Z" id="Rectangle" fill-rule="nonzero"></path>
                <path d="M6,12 L6,18 L0,18 L0,12 L6,12 Z M4,14 L2,14 L2,16 L4,16 L4,14 Z" id="Rectangle" fill-rule="nonzero"></path>
                <path d="M18,0 L18,6 L12,6 L12,0 L18,0 Z M16,2 L14,2 L14,4 L16,4 L16,2 Z" id="Rectangle" fill-rule="nonzero"></path>
                <rect id="Rectangle" x="8" y="0" width="2" height="2"></rect>
                <rect id="Rectangle" x="8" y="4" width="2" height="4"></rect>
                <rect id="Rectangle" x="16" y="10" width="2" height="4"></rect>
                <rect id="Rectangle" x="0" y="8" width="4" height="2"></rect>
                <rect id="Rectangle" x="14" y="16" width="4" height="2"></rect>
                <rect id="Rectangle" x="14" y="8" width="4" height="2"></rect>
                <rect id="Rectangle" x="8" y="16" width="4" height="2"></rect>
                <rect id="Rectangle" x="6" y="8" width="2" height="2"></rect>
                <rect id="Rectangle" x="14" y="12" width="2" height="2"></rect>
                <rect id="Rectangle" x="8" y="10" width="2" height="2"></rect>
                <rect id="Rectangle" x="10" y="8" width="2" height="2"></rect>
                <rect id="Rectangle" x="10" y="12" width="2" height="2"></rect>
                <rect id="Rectangle" x="8" y="14" width="2" height="2"></rect>
            </g>
            <g id="Group-82" transform="translate(89.000000, 98.000000)" fill="#1560BD">
                <path d="M6,0 L6,6 L0,6 L0,0 L6,0 Z M4,2 L2,2 L2,4 L4,4 L4,2 Z" id="Rectangle" fill-rule="nonzero"></path>
                <path d="M6,12 L6,18 L0,18 L0,12 L6,12 Z M4,14 L2,14 L2,16 L4,16 L4,14 Z" id="Rectangle" fill-rule="nonzero"></path>
                <path d="M18,0 L18,6 L12,6 L12,0 L18,0 Z M16,2 L14,2 L14,4 L16,4 L16,2 Z" id="Rectangle" fill-rule="nonzero"></path>
                <rect id="Rectangle" x="8" y="0" width="2" height="2"></rect>
                <rect id="Rectangle" x="8" y="4" width="2" height="4"></rect>
                <rect id="Rectangle" x="16" y="10" width="2" height="4"></rect>
                <rect id="Rectangle" x="0" y="8" width="4" height="2"></rect>
                <rect id="Rectangle" x="14" y="16" width="4" height="2"></rect>
                <rect id="Rectangle" x="14" y="8" width="4" height="2"></rect>
                <rect id="Rectangle" x="8" y="16" width="4" height="2"></rect>
                <rect id="Rectangle" x="6" y="8" width="2" height="2"></rect>
                <rect id="Rectangle" x="14" y="12" width="2" height="2"></rect>
                <rect id="Rectangle" x="8" y="10" width="2" height="2"></rect>
                <rect id="Rectangle" x="10" y="8" width="2" height="2"></rect>
                <rect id="Rectangle" x="10" y="12" width="2" height="2"></rect>
                <rect id="Rectangle" x="8" y="14" width="2" height="2"></rect>
            </g>
        </g>
    </g>
</svg>