<?xml version="1.0" encoding="UTF-8"?>
<svg width="162px" height="162px" viewBox="0 0 162 162" version="1.1" xmlns="http://www.w3.org/2000/svg" xmlns:xlink="http://www.w3.org/1999/xlink">
    <title>icon 19</title>
    <defs>
        <circle id="path-1" cx="79" cy="79" r="79"></circle>
    </defs>
    <g id="Illustration" stroke="none" stroke-width="1" fill="none" fill-rule="evenodd">
        <g id="icon-19" transform="translate(1.000000, 0.000000)">
            <g id="Group" transform="translate(0.000000, 3.000000)" fill="#4A90E2" fill-opacity="0.8" stroke="#1560BD" stroke-width="2">
                <g id="rings">
                    <circle id="Oval" opacity="0.015" cx="79" cy="79" r="79"></circle>
                    <ellipse id="Oval" opacity="0.04" cx="79.4968553" cy="79.5" rx="71.5471698" ry="71.5"></ellipse>
                    <ellipse id="Oval" opacity="0.07" cx="79.4968553" cy="79.5" rx="62.6037736" ry="62.5"></ellipse>
                    <ellipse id="Oval" opacity="0.13" cx="79.4968553" cy="79" rx="43.7232704" ry="44"></ellipse>
                    <ellipse id="Oval" opacity="0.1" cx="79.4968553" cy="79" rx="19.8742138" ry="20"></ellipse>
                </g>
            </g>
            <g id="Group-36" opacity="0.5" transform="translate(36.500000, 84.000000) scale(-1, 1) translate(-36.500000, -84.000000) translate(25.000000, 69.000000)" fill="#4A90E2">
                <rect id="Rectangle" x="2" y="0" width="21" height="2" rx="1"></rect>
                <rect id="Rectangle" x="5" y="24" width="18" height="2" rx="1"></rect>
                <rect id="Rectangle" x="17" y="28" width="6" height="2" rx="1"></rect>
                <rect id="Rectangle" x="12" y="20" width="11" height="2" rx="1"></rect>
                <rect id="Rectangle" x="5" y="4" width="6" height="2" rx="1"></rect>
                <rect id="Rectangle" x="12" y="4" width="11" height="2" rx="1"></rect>
                <rect id="Rectangle" x="3" y="8" width="11" height="2" rx="1"></rect>
                <rect id="Rectangle" x="15" y="8" width="8" height="2" rx="1"></rect>
                <rect id="Rectangle" x="0" y="12" width="10" height="2" rx="1"></rect>
                <rect id="Rectangle" x="9" y="16" width="9" height="2" rx="1"></rect>
                <rect id="Rectangle" x="19" y="16" width="4" height="2" rx="1"></rect>
                <rect id="Rectangle" x="11" y="12" width="12" height="2" rx="1"></rect>
                <rect id="Rectangle" x="5" y="16" width="3" height="2" rx="1"></rect>
            </g>
            <g id="Group-87" transform="translate(3.000000, 0.000000)">
                <g id="Group-83" transform="translate(58.000000, 24.000000)">
                    <rect id="Rectangle" stroke="#1560BD" stroke-width="2" fill="#FFFFFF" x="0" y="0" width="48" height="87" rx="6"></rect>
                    <path d="M1.09964858,68.3333401 L46.8990965,22.5338922 L46.8990965,29.9210323 L1.09964858,75.7204802 L1.09964858,68.3333401 Z M42.8780299,1 C44.8628609,1 46.5185962,2.40902599 46.899538,4.28138016 L46.899538,17.6056766 L1.09964858,63.4051246 L1.09803903,4.29121734 C1.47517384,2.41396344 3.13323048,1 5.12153598,1 L42.8780299,1 Z" id="Shape" fill="#4A90E2" fill-rule="nonzero" opacity="0.119999997"></path>
                    <path d="M42,1 L42.2168896,1.00461951 C44.5181252,1.10283562 46.4165698,2.75650027 46.8876389,4.941029 L46.899,5.002 L46.8006859,4.90543405 C45.608036,3.78074577 44.0194713,3.06959933 42.2617695,3.00481697 L42.0183951,3.0001692 L6,3 L5.76041239,3.00403005 C4.0105287,3.06298122 2.42019896,3.76524131 1.2222454,4.88403245 L1.1,5.002 L1.11236106,4.941029 C1.59815108,2.68823375 3.60192148,1 6,1 L42,1 Z" id="Combined-Shape" fill="#FFFFFF" fill-rule="nonzero"></path>
                    <path d="M42,82 L42.2168896,82.0046195 C44.5181252,82.1028356 46.4165698,83.7565003 46.8876389,85.941029 L46.899,86.002 L46.8006859,85.9054341 C45.608036,84.7807458 44.0194713,84.0695993 42.2617695,84.004817 L42.0183951,84.0001692 L6,84 L5.76041239,84.00403 C4.0105287,84.0629812 2.42019896,84.7652413 1.2222454,85.8840324 L1.1,86.002 L1.11236106,85.941029 C1.59815108,83.6882338 3.60192148,82 6,82 L42,82 Z" id="Combined-Shape" fill="#1560BD" fill-rule="nonzero" opacity="0.200000003" transform="translate(23.999500, 84.001000) scale(1, -1) translate(-23.999500, -84.001000) "></path>
                    <path d="M14,0 L35,0 L35,3 C35,4.1045695 34.1045695,5 33,5 L16,5 C14.8954305,5 14,4.1045695 14,3 L14,0 L14,0 Z" id="Rectangle" stroke="#1560BD" stroke-width="2" fill="#4A90E2"></path>
                </g>
                <g id="Group-84" transform="translate(67.000000, 47.000000)" fill="#1560BD">
                    <path d="M10,0 L10,10 L0,10 L0,0 L10,0 Z M8,2 L2,2 L2,8 L8,8 L8,2 Z" id="Rectangle" fill-rule="nonzero"></path>
                    <path d="M30,0 L30,10 L20,10 L20,0 L30,0 Z M28,2 L22,2 L22,8 L28,8 L28,2 Z" id="Rectangle" fill-rule="nonzero"></path>
                    <path d="M10,20 L10,30 L0,30 L0,20 L10,20 Z M8,22 L2,22 L2,28 L8,28 L8,22 Z" id="Rectangle" fill-rule="nonzero"></path>
                    <rect id="Rectangle" x="12" y="-2.22044605e-16" width="2" height="2"></rect>
                    <rect id="Rectangle" x="12" y="0" width="2" height="2"></rect>
                    <rect id="Rectangle" x="12" y="4" width="2" height="4"></rect>
                    <rect id="Rectangle" x="8" y="14" width="4" height="2"></rect>
                    <rect id="Rectangle-Copy-8" x="22" y="14" width="4" height="2"></rect>
                    <rect id="Rectangle-Copy-7" x="12" y="24" width="4" height="2"></rect>
                    <rect id="Rectangle" x="6" y="12" width="2" height="6"></rect>
                    <rect id="Rectangle" x="18" y="24" width="2" height="6"></rect>
                    <rect id="Rectangle" x="14" y="2" width="2" height="2"></rect>
                    <rect id="Rectangle" x="16" y="0" width="2" height="2"></rect>
                    <rect id="Rectangle" x="0" y="12" width="2" height="2"></rect>
                    <rect id="Rectangle" x="0" y="12" width="2" height="2"></rect>
                    <rect id="Rectangle" x="2" y="14" width="2" height="2"></rect>
                    <rect id="Rectangle-Copy-3" x="10" y="16" width="2" height="2"></rect>
                    <rect id="Rectangle-Copy-4" x="16" y="16" width="2" height="2"></rect>
                    <rect id="Rectangle" x="4" y="12" width="2" height="2"></rect>
                    <rect id="Rectangle" x="0" y="16" width="2" height="2"></rect>
                    <rect id="Rectangle" x="26" y="18" width="4" height="2"></rect>
                    <rect id="Rectangle" x="28" y="14" width="2" height="6"></rect>
                    <rect id="Rectangle" x="18" y="16" width="2" height="2"></rect>
                    <rect id="Rectangle" x="18" y="16" width="2" height="2"></rect>
                    <rect id="Rectangle" x="20" y="18" width="2" height="2"></rect>
                    <rect id="Rectangle" x="22" y="16" width="2" height="2"></rect>
                    <rect id="Rectangle" x="18" y="20" width="2" height="2"></rect>
                    <rect id="Rectangle" x="14" y="8" width="2" height="2"></rect>
                    <rect id="Rectangle-Copy-5" x="14" y="28" width="2" height="2"></rect>
                    <rect id="Rectangle" x="16" y="6" width="2" height="2"></rect>
                    <rect id="Rectangle-Copy-11" x="22" y="20" width="2" height="2"></rect>
                    <rect id="Rectangle-Copy-12" x="20" y="24" width="2" height="2"></rect>
                    <rect id="Rectangle-Copy-6" x="16" y="26" width="2" height="2"></rect>
                    <rect id="Rectangle" x="12" y="12" width="2" height="2"></rect>
                    <rect id="Rectangle" x="12" y="12" width="2" height="2"></rect>
                    <rect id="Rectangle-Copy-9" x="20" y="12" width="2" height="2"></rect>
                    <rect id="Rectangle" x="12" y="16" width="2" height="4"></rect>
                    <rect id="Rectangle" x="14" y="14" width="2" height="2"></rect>
                    <rect id="Rectangle-Copy-10" x="26" y="26" width="4" height="4"></rect>
                    <rect id="Rectangle" x="16" y="10" width="2" height="4"></rect>
                    <rect id="Rectangle" x="12" y="22" width="2" height="2"></rect>
                    <rect id="Rectangle" x="14" y="20" width="2" height="2"></rect>
                </g>
                <path d="M91.8149961,77 C90.8260133,78.9590407 91.1103744,81.1006403 92.6680794,83.4247988 C95.0046368,86.9110364 98.0112292,89.9841919 98.0112292,93.003999 C98.0112292,95.0172038 97.7600738,95.9094816 97.2577629,95.6808326 C94.7551395,96.7580242 93.0932595,98.9624213 92.2721228,102.294024 C91.0404177,107.291428 91.5155157,108.23502 88.815382,110.297218 C87.0152929,111.672016 89.8294199,111.672016 97.2577629,110.297218 L103.850935,99.382965 L105.372817,87.4838434 L96.8307569,77.9020115 L91.8149961,77 Z" id="Path-69" fill="#1560BD" opacity="0.2"></path>
                <path d="M65.8312809,111.019966 C69.6080303,114.651761 72.0034491,117.082439 73.0175372,118.311999 C74.5386694,120.15634 79.2084322,123.540282 80.6042161,124.274427 C82,125.008572 84.3172993,124.710826 85,125.727534 C85.4551338,126.40534 88.8518312,130.716632 95.1900922,138.66141 L116.717915,120.651672 L113.474631,117.068443 C116.049307,110.744595 117.484097,106.328238 117.779001,103.81937 C118.221358,100.056069 117.779001,98.8553064 118.147963,97.1496028 C118.516926,95.4438992 118.516926,93.1753599 118.147963,92.0876799 C117.779001,91 110.328354,80.5727584 109.23626,77.7439531 C108.574764,76.2597596 107.137414,75.4048217 104.924209,75.1791393 L101.357479,72.5588532 L99.9902994,72.5588532 L93.4843886,68.98046 C91.4179725,69.1268691 90.3847645,69.8319843 90.3847645,71.0958056 C90.3847645,72.9915375 90.5210273,76.3420673 93.4843886,78.9489832 C95.1900922,83.2633095 102.483426,87.6703742 103.703817,87.6703742 C102.048466,89.3174762 102.048466,95.0951346 104.096107,97.1496028 C100.379175,97.1496028 93.6647448,107.754778 96.12345,112.035252 C95.2951853,111.210994 95.4475679,111.019966 93.4843886,111.019966 C89.7534228,111.019966 80.5357202,111.019966 65.8312809,111.019966 Z" id="Path-65" stroke="#1560BD" stroke-width="2" fill="#E9F2FC" stroke-linecap="round" stroke-linejoin="round"></path>
                <path d="M94.5358429,112.019 L68.301,112.019 L69.4380035,113.132256 C71.3972087,115.064033 72.7708461,116.487604 73.5673553,117.413034 L73.7890026,117.675728 C75.0212375,119.169787 79.4095617,122.516182 81.0697251,123.389384 C81.350687,123.537163 81.7178175,123.643102 82.295105,123.750059 L82.9246299,123.857011 C84.5212896,124.118467 85.2104677,124.333279 85.7390426,125.040941 L85.9973691,125.403249 C86.378726,125.919833 87.2520018,127.044798 88.6109859,128.770049 L95.333,137.237 L97.405,135.503 L88.0408544,125.231416 C87.9896716,125.175272 87.9452224,125.113665 87.908223,125.047868 L87.8584007,124.946191 L87.8202902,124.839184 L87.7391044,124.562134 C87.1107021,122.514039 86.1333606,121.429845 84.7942562,121.14831 C81.383246,120.431173 77.279666,118.697376 75.9571985,117.102332 C75.3510754,116.37128 76.0096577,115.286265 76.937937,115.486565 L77.3088761,115.561499 C80.2154157,116.112074 86.9737265,116.404368 95.4233164,116.428329 L96.5661766,116.429927 L96.7067553,116.439857 L96.8190566,116.460289 C96.8313794,116.463419 96.8408915,116.466409 96.8481722,116.469255 L96.8638996,116.477357 L96.8815769,116.442867 C96.9314071,116.251766 96.9194484,115.884892 96.816867,115.364756 L96.7740947,115.162565 L96.7280565,114.968526 C96.5469839,114.240974 96.2013944,113.448337 95.6876957,112.59375 L95.4871715,112.270383 L95.3334543,112.037034 L95.2097845,112.030881 L94.9073228,112.021958 L94.5358429,112.019 Z M115.635,89.912 L115.984248,92.4323778 C116.019831,92.7045328 116.046372,92.9201871 116.060666,93.0590842 C116.260055,94.9965079 116.18528,96.3235507 115.730351,97.6001728 L115.634265,97.8549908 C114.974328,99.5141829 114.90497,100.642257 115.143842,101.776219 L115.240785,102.208663 C115.285789,102.415963 115.308199,102.561965 115.308199,102.726752 C115.308199,104.183453 109.405147,116.916112 107.316075,118.785851 L107.213185,118.871452 L101.233,123.453 L105.815,128.468 L115.278,120.551 L112.733231,117.739506 C112.532947,117.518228 112.444884,117.22299 112.483487,116.935385 L112.507828,116.812832 L112.547932,116.69264 L112.759322,116.171372 C115.168883,110.205513 116.512654,106.026722 116.785839,103.702629 C116.949601,102.309438 116.995747,101.389244 116.993012,100.099253 L116.985947,99.0083316 C116.98539,98.5060969 116.99598,98.2282903 117.028269,97.8738478 C117.047607,97.6615673 117.074494,97.4547565 117.11021,97.2482823 L117.170568,96.9381816 C117.484692,95.4859968 117.50317,93.5474261 117.251344,92.5788128 L117.184986,92.34611 C117.1757,92.2933779 117.171678,92.2652563 116.920583,91.8728372 L115.635,89.912 Z" id="Combined-Shape" fill="#4A90E2" fill-rule="nonzero" opacity="0.300000012"></path>
                <path d="M103.727,89.862 L103.706683,89.9458519 C103.228638,92.0282996 103.608144,95.0408891 104.677902,96.305649 L104.804389,96.4436739 C105.405419,97.0467075 105.023006,98.0569237 104.209639,98.1436286 L104.096107,98.1496028 C101.497717,98.1496028 97.2792235,104.568095 96.6788125,108.85349 L96.647,109.102 L96.6802396,109.04158 C96.8598354,108.714448 97.0595267,108.381577 97.2784612,108.043045 L97.5037785,107.702629 L97.6931417,107.427591 C102.292908,104.059774 105.864662,101.202896 105.702402,98.4105089 L105.702402,95.8200968 C105.907153,92.8842671 105.522251,91.650592 105.063724,90.9488658 L105.042,90.919 L104.900518,90.7800196 C104.7007,90.59212 104.473106,90.4015506 104.218275,90.2096383 L103.954386,90.0173274 L103.727,89.862 Z M93.268,70.002 L93.1421206,70.0156952 C91.8496196,70.1636217 91.3847645,70.5321084 91.3847645,71.0958056 C91.3847645,71.3417447 91.387775,71.573646 91.3945989,71.795358 L91.4077952,72.1207651 L91.424,72.391 L91.5478608,72.3462671 C91.9131839,72.2218041 92.3211374,72.1300351 92.7702942,72.0684337 L93.1148651,72.0278497 L93.4137141,72.0025006 C93.5673443,71.9916156 93.7208757,72.0163931 93.8625107,72.0742436 L93.9663221,72.1237922 L100.247,75.578 L101.357479,75.5783932 C101.48527,75.5783932 101.611059,75.6028738 101.728318,75.6496956 L101.842493,75.7038851 L101.949531,75.7724932 L105.303,78.235 L105.3269,78.2387222 C106.900194,78.4432419 108.156025,78.9657661 109.06029,79.8218362 L109.248668,80.0103908 L109.289,80.056 L109.187237,79.8768334 C108.857741,79.2958134 108.608893,78.8157532 108.438647,78.4300156 L108.322872,78.1510443 C107.82314,77.0297991 106.707406,76.3661591 104.822764,76.1739805 C104.689669,76.1604087 104.561114,76.1203211 104.444507,76.0565711 L104.332157,75.9850393 L101.029,73.558 L99.9902994,73.5588532 C99.906045,73.5588532 99.8224738,73.5482076 99.7415101,73.5274108 L99.6222607,73.488664 L99.5083659,73.435061 L93.268,70.002 Z" id="Path-66" fill="#FFFFFF" fill-rule="nonzero"></path>
                <line x1="81.7569326" y1="124.557719" x2="88.7798615" y2="124.557719" id="Path-67" stroke="#1560BD" stroke-width="2" stroke-linecap="round" stroke-linejoin="round" fill-rule="nonzero"></line>
                <path d="M56.5,80.0287264 L60.5,80.4781939 C62.9852814,80.7574571 65,82.9985634 65,85.4838448 C65,87.9691261 62.9852814,89.7574571 60.5,89.4781939 L56.5,89.0287264 C54.0147186,88.7494631 52,86.5083569 52,84.0230755 C52,81.5377941 54.0147186,79.7494631 56.5,80.0287264 Z" id="Rectangle" fill="#1560BD" opacity="0.2"></path>
                <path d="M56.3269231,89.5356467 L60.1730769,89.9851141 C62.5627706,90.2643774 64.5,92.5054836 64.5,94.990765 C64.5,97.4760464 62.5627706,99.2643774 60.1730769,98.9851141 L56.3269231,98.5356467 C53.9372294,98.2563834 52,96.0152771 52,93.5299958 C52,91.0447144 53.9372294,89.2563834 56.3269231,89.5356467 Z" id="Rectangle" fill="#1560BD" opacity="0.2"></path>
                <path d="M58.1538462,99.0425669 L61.8461538,99.4920344 C64.1402597,99.7712977 66,102.012404 66,104.497685 C66,106.982967 64.1402597,108.771298 61.8461538,108.492034 L58.1538462,108.042567 C55.8597403,107.763304 54,105.522197 54,103.036916 C54,100.551635 55.8597403,98.7633036 58.1538462,99.0425669 Z" id="Rectangle" fill="#1560BD" opacity="0.2"></path>
                <path d="M53.5,78.0287264 L57.5,78.4781939 C59.9852814,78.7574571 62,80.9985634 62,83.4838448 C62,85.9691261 59.9852814,87.7574571 57.5,87.4781939 L53.5,87.0287264 C51.0147186,86.7494631 49,84.5083569 49,82.0230755 C49,79.5377941 51.0147186,77.7494631 53.5,78.0287264 Z" id="Rectangle" stroke="#1560BD" stroke-width="2" fill="#E9F2FC" stroke-linejoin="round"></path>
                <path d="M54.5,68.0287264 L58,68.422 L58,77.422 L54.5,77.0287264 C52.0147186,76.7494631 50,74.5083569 50,72.0230755 C50,69.5377941 52.0147186,67.7494631 54.5,68.0287264 Z" id="Combined-Shape" stroke="#1560BD" stroke-width="2" fill="#E9F2FC" stroke-linejoin="round"></path>
                <path d="M53.3269231,88.0287264 L57.1730769,88.4781939 C59.5627706,88.7574571 61.5,90.9985634 61.5,93.4838448 C61.5,95.9691261 59.5627706,97.7574571 57.1730769,97.4781939 L53.3269231,97.0287264 C50.9372294,96.7494631 49,94.5083569 49,92.0230755 C49,89.5377941 50.9372294,87.7494631 53.3269231,88.0287264 Z" id="Rectangle" stroke="#1560BD" stroke-width="2" fill="#E9F2FC" stroke-linejoin="round"></path>
                <path d="M55.1538462,98.0287264 L58.8461538,98.4781939 C61.1402597,98.7574571 63,100.998563 63,103.483845 C63,105.969126 61.1402597,107.757457 58.8461538,107.478194 L55.1538462,107.028726 C52.8597403,106.749463 51,104.508357 51,102.023076 C51,99.5377941 52.8597403,97.7494631 55.1538462,98.0287264 Z" id="Rectangle" stroke="#1560BD" stroke-width="2" fill="#E9F2FC" stroke-linejoin="round"></path>
                <path d="M54.8662795,99.0059559 C53.265751,98.9045821 52,100.183065 52,102.023076 C52,103.947332 53.3952109,105.695004 55.0918037,106.00806 L55.2746849,106.036054 L55.509,106.065 L55.376311,105.904916 C54.625071,104.965269 54.1329597,103.794412 54.0232532,102.550438 L54.0047806,102.262141 L54,102.023076 C54,101.067695 54.2311042,100.174969 54.6486026,99.4143734 L54.7793992,99.1902279 L54.897,99.008 L54.8662795,99.0059559 Z M52.8586361,89.0001869 C51.2404749,88.9910111 50,90.2540746 50,92.0230755 C50,93.9409362 51.4610241,95.6950676 53.2561468,96.008277 L53.4429947,96.0354856 L53.547,96.047 L53.5044506,95.999808 C52.6793244,95.0417949 52.1371468,93.8286186 52.0226525,92.53502 L52.0047169,92.256653 L52,92.0230755 C52,91.0106091 52.2682091,90.0699462 52.7479596,89.2823229 L52.8840029,89.071372 L52.932,89.003 L52.8586361,89.0001869 Z M52.963,79.001 L52.8331898,79.0038174 C51.2103097,79.0805056 50,80.3246583 50,82.0230755 C50,83.932237 51.5241526,85.6912925 53.4148181,86.0074722 L53.582,86.03 L53.559462,86.0051268 C52.7050066,85.0475811 52.1423567,83.8335777 52.0235146,82.5365181 L52.0048969,82.2573687 L52,82.0230755 C52,81.0339681 52.2640161,80.1148922 52.7361037,79.3400876 L52.8699717,79.13241 L52.963,79.001 Z" id="Combined-Shape" fill="#FFFFFF" fill-rule="nonzero"></path>
                <path d="M99.7606451,123.875339 L105.758791,123.335268 C109.469684,121.478557 112.033875,119.188157 113.451364,116.464068" id="Path-68" stroke="#1560BD" stroke-width="2" stroke-linecap="round" stroke-linejoin="round"></path>
                <g id="Group-86">
                    <mask id="mask-2" fill="white">
                        <use xlink:href="#path-1"></use>
                    </mask>
                    <g id="Oval" opacity="0.0399999991"></g>
                    <g id="Group-85" mask="url(#mask-2)">
                        <g transform="translate(117.500000, 143.000000) rotate(50.000000) translate(-117.500000, -143.000000) translate(100.000000, 126.000000)">
                            <rect id="Rectangle" stroke="#1560BD" stroke-width="2" fill="#4A90E2" fill-rule="evenodd" x="0" y="0" width="35" height="34" rx="3"></rect>
                            <path d="M32,1 L32.1492623,1.00548574 C33.1841222,1.08183488 34,1.9456382 34,3 L34,5.536 L33.9273929,5.49393247 C33.4207865,5.21487298 32.8465458,5.04225201 32.2341171,5.00676708 L32.0288789,5.00041708 L3,5 L2.79587229,5.00513049 C2.18723073,5.03579226 1.61340012,5.20279607 1.10507798,5.47669573 L1,5.536 L1,3 C1,1.8954305 1.8954305,1 3,1 L32,1 Z" id="Combined-Shape" stroke="none" fill="#FFFFFF" fill-rule="nonzero" opacity="0.12"></path>
                            <path d="M32,29 L32.1492623,29.0054857 C33.1841222,29.0818349 34,29.9456382 34,31 L34,33.536 L33.9273929,33.4939325 C33.4207865,33.214873 32.8465458,33.042252 32.2341171,33.0067671 L32.0288789,33.0004171 L3,33 L2.79587229,33.0051305 C2.18723073,33.0357923 1.61340012,33.2027961 1.10507798,33.4766957 L1,33.536 L1,31 C1,29.8954305 1.8954305,29 3,29 L32,29 Z" id="Combined-Shape" stroke="none" fill="#1560BD" fill-rule="nonzero" opacity="0.300000012" transform="translate(17.500000, 31.268000) scale(1, -1) translate(-17.500000, -31.268000) "></path>
                            <circle id="Oval" stroke="none" fill="#1560BD" fill-rule="evenodd" cx="6.5" cy="26.5" r="1.5"></circle>
                        </g>
                    </g>
                </g>
                <g id="Group-82" opacity="0.400000006" transform="translate(22.000000, 44.000000)" fill="#1560BD">
                    <path d="M6,0 L6,6 L0,6 L0,0 L6,0 Z M4,2 L2,2 L2,4 L4,4 L4,2 Z" id="Rectangle" fill-rule="nonzero"></path>
                    <path d="M6,12 L6,18 L0,18 L0,12 L6,12 Z M4,14 L2,14 L2,16 L4,16 L4,14 Z" id="Rectangle" fill-rule="nonzero"></path>
                    <path d="M18,0 L18,6 L12,6 L12,0 L18,0 Z M16,2 L14,2 L14,4 L16,4 L16,2 Z" id="Rectangle" fill-rule="nonzero"></path>
                    <rect id="Rectangle" x="8" y="0" width="2" height="2"></rect>
                    <rect id="Rectangle" x="8" y="4" width="2" height="4"></rect>
                    <rect id="Rectangle" x="16" y="10" width="2" height="4"></rect>
                    <rect id="Rectangle" x="0" y="8" width="4" height="2"></rect>
                    <rect id="Rectangle" x="14" y="16" width="4" height="2"></rect>
                    <rect id="Rectangle" x="14" y="8" width="4" height="2"></rect>
                    <rect id="Rectangle" x="8" y="16" width="4" height="2"></rect>
                    <rect id="Rectangle" x="6" y="8" width="2" height="2"></rect>
                    <rect id="Rectangle" x="14" y="12" width="2" height="2"></rect>
                    <rect id="Rectangle" x="8" y="10" width="2" height="2"></rect>
                    <rect id="Rectangle" x="10" y="8" width="2" height="2"></rect>
                    <rect id="Rectangle" x="10" y="12" width="2" height="2"></rect>
                    <rect id="Rectangle" x="8" y="14" width="2" height="2"></rect>
                </g>
            </g>
        </g>
    </g>
</svg>