<svg width="166" height="162" viewBox="0 0 166 162" fill="none" xmlns="http://www.w3.org/2000/svg">
<g opacity="0.4">
<path opacity="0.4" fill-rule="evenodd" clip-rule="evenodd" d="M85.9982 126.131C110.371 126.131 130.129 106.373 130.129 82C130.129 57.6271 110.371 37.869 85.9982 37.869C61.6253 37.869 41.8672 57.6271 41.8672 82C41.8672 106.373 61.6253 126.131 85.9982 126.131Z" fill="#4A90E2" fill-opacity="0.8" stroke="#1560BD" stroke-width="2"/>
<path opacity="0.2" fill-rule="evenodd" clip-rule="evenodd" d="M85.9989 144.655C120.602 144.655 148.654 116.604 148.654 82C148.654 47.3965 120.602 19.3448 85.9989 19.3448C51.3954 19.3448 23.3438 47.3965 23.3438 82C23.3438 116.604 51.3954 144.655 85.9989 144.655Z" fill="#4A90E2" fill-opacity="0.8" stroke="#1560BD" stroke-width="2"/>
<path opacity="0.1" fill-rule="evenodd" clip-rule="evenodd" d="M86.5462 153.372C126.265 153.372 158.463 121.174 158.463 81.4551C158.463 41.7364 126.265 9.5379 86.5462 9.5379C46.8274 9.5379 14.6289 41.7364 14.6289 81.4551C14.6289 121.174 46.8274 153.372 86.5462 153.372Z" fill="#4A90E2" fill-opacity="0.8" stroke="#1560BD" stroke-width="2"/>
<path opacity="0.04" fill-rule="evenodd" clip-rule="evenodd" d="M86 161C129.63 161 165 125.63 165 82C165 38.3695 129.63 3 86 3C42.3695 3 7 38.3695 7 82C7 125.63 42.3695 161 86 161Z" fill="#4A90E2" fill-opacity="0.8" stroke="#1560BD" stroke-width="2"/>
<path opacity="0.4" fill-rule="evenodd" clip-rule="evenodd" d="M86.5435 102.159C97.3759 102.159 106.157 93.3772 106.157 82.5448C106.157 71.7124 97.3759 62.931 86.5435 62.931C75.7111 62.931 66.9297 71.7124 66.9297 82.5448C66.9297 93.3772 75.7111 102.159 86.5435 102.159Z" fill="#4A90E2" fill-opacity="0.8" stroke="#1560BD" stroke-width="2"/>
</g>
<g opacity="0.5">
<rect width="21" height="2" rx="1" transform="matrix(-1 0 0 1 53 69)" fill="#4A90E2"/>
<rect width="18" height="2" rx="1" transform="matrix(-1 0 0 1 50 93)" fill="#4A90E2"/>
<rect width="6" height="2" rx="1" transform="matrix(-1 0 0 1 38 97)" fill="#4A90E2"/>
<rect width="11" height="2" rx="1" transform="matrix(-1 0 0 1 43 89)" fill="#4A90E2"/>
<rect width="6" height="2" rx="1" transform="matrix(-1 0 0 1 50 73)" fill="#4A90E2"/>
<rect width="11" height="2" rx="1" transform="matrix(-1 0 0 1 43 73)" fill="#4A90E2"/>
<rect width="11" height="2" rx="1" transform="matrix(-1 0 0 1 52 77)" fill="#4A90E2"/>
<rect width="8" height="2" rx="1" transform="matrix(-1 0 0 1 40 77)" fill="#4A90E2"/>
<rect width="10" height="2" rx="1" transform="matrix(-1 0 0 1 55 81)" fill="#4A90E2"/>
<rect width="9" height="2" rx="1" transform="matrix(-1 0 0 1 46 85)" fill="#4A90E2"/>
<rect width="4" height="2" rx="1" transform="matrix(-1 0 0 1 36 85)" fill="#4A90E2"/>
<rect width="12" height="2" rx="1" transform="matrix(-1 0 0 1 44 81)" fill="#4A90E2"/>
<rect width="3" height="2" rx="1" transform="matrix(-1 0 0 1 50 85)" fill="#4A90E2"/>
</g>
<rect x="68" y="24" width="48" height="87" rx="6" fill="white" stroke="#1560BD" stroke-width="2"/>
<path opacity="0.12" fill-rule="evenodd" clip-rule="evenodd" d="M114.899 28.2814C114.518 26.409 112.862 25 110.878 25H73.1212C71.1328 25 69.4748 26.414 69.0977 28.2912L69.0993 87.4051L114.899 41.6057L114.899 28.2814ZM114.899 46.5339L69.0993 92.3333V99.7205L114.899 53.921V46.5339Z" fill="#4A90E2"/>
<path d="M110.002 25L110.218 25.0046C112.52 25.1028 114.418 26.7565 114.889 28.941L114.901 29.002L114.802 28.9054C113.61 27.7807 112.021 27.0696 110.263 27.0048L110.02 27.0002L74.0016 27L73.762 27.004C72.0121 27.063 70.4218 27.7652 69.2238 28.884L69.1016 29.002L69.1139 28.941C69.5997 26.6882 71.6035 25 74.0016 25H110.002Z" fill="white"/>
<path opacity="0.2" d="M110.002 110.002L110.218 109.997C112.52 109.899 114.418 108.246 114.889 106.061L114.901 106L114.802 106.097C113.61 107.221 112.021 107.932 110.263 107.997L110.02 108.002L74.0016 108.002L73.762 107.998C72.0121 107.939 70.4218 107.237 69.2238 106.118L69.1016 106L69.1139 106.061C69.5997 108.314 71.6035 110.002 74.0016 110.002H110.002Z" fill="#1560BD"/>
<path d="M82 24H103V27C103 28.1046 102.105 29 101 29H84C82.8954 29 82 28.1046 82 27V24Z" fill="#4A90E2" stroke="#1560BD" stroke-width="2"/>
<rect x="78" y="48" width="8" height="8" stroke="#1560BD" stroke-width="2"/>
<rect x="98" y="48" width="8" height="8" stroke="#1560BD" stroke-width="2"/>
<rect x="78" y="68" width="8" height="8" stroke="#1560BD" stroke-width="2"/>
<rect x="89.5" y="47.5" width="1" height="1" stroke="#1560BD"/>
<rect x="89.5" y="47.5" width="1" height="1" stroke="#1560BD"/>
<rect x="89.5" y="51.5" width="1" height="3" stroke="#1560BD"/>
<rect x="85.5" y="61.5" width="3" height="1" stroke="#1560BD"/>
<rect x="99.5" y="61.5" width="3" height="1" stroke="#1560BD"/>
<rect x="89.5" y="71.5" width="3" height="1" stroke="#1560BD"/>
<rect x="83.5" y="59.5" width="1" height="5" stroke="#1560BD"/>
<rect x="95.5" y="71.5" width="1" height="5" stroke="#1560BD"/>
<rect x="91.5" y="49.5" width="1" height="1" stroke="#1560BD"/>
<rect x="93.5" y="47.5" width="1" height="1" stroke="#1560BD"/>
<rect x="77.5" y="59.5" width="1" height="1" stroke="#1560BD"/>
<rect x="77.5" y="59.5" width="1" height="1" stroke="#1560BD"/>
<rect x="79.5" y="61.5" width="1" height="1" stroke="#1560BD"/>
<rect x="87.5" y="63.5" width="1" height="1" stroke="#1560BD"/>
<rect x="93.5" y="63.5" width="1" height="1" stroke="#1560BD"/>
<rect x="81.5" y="59.5" width="1" height="1" stroke="#1560BD"/>
<rect x="77.5" y="63.5" width="1" height="1" stroke="#1560BD"/>
<rect x="103.5" y="65.5" width="3" height="1" stroke="#1560BD"/>
<rect x="105.5" y="61.5" width="1" height="5" stroke="#1560BD"/>
<rect x="95.5" y="63.5" width="1" height="1" stroke="#1560BD"/>
<rect x="95.5" y="63.5" width="1" height="1" stroke="#1560BD"/>
<rect x="97.5" y="65.5" width="1" height="1" stroke="#1560BD"/>
<rect x="99.5" y="63.5" width="1" height="1" stroke="#1560BD"/>
<rect x="95.5" y="67.5" width="1" height="1" stroke="#1560BD"/>
<rect x="91.5" y="55.5" width="1" height="1" stroke="#1560BD"/>
<rect x="91.5" y="75.5" width="1" height="1" stroke="#1560BD"/>
<rect x="93.5" y="53.5" width="1" height="1" stroke="#1560BD"/>
<rect x="99.5" y="67.5" width="1" height="1" stroke="#1560BD"/>
<rect x="97.5" y="71.5" width="1" height="1" stroke="#1560BD"/>
<rect x="93.5" y="73.5" width="1" height="1" stroke="#1560BD"/>
<rect x="89.5" y="59.5" width="1" height="1" stroke="#1560BD"/>
<rect x="89.5" y="59.5" width="1" height="1" stroke="#1560BD"/>
<rect x="97.5" y="59.5" width="1" height="1" stroke="#1560BD"/>
<rect x="89.5" y="63.5" width="1" height="3" stroke="#1560BD"/>
<rect x="91.5" y="61.5" width="1" height="1" stroke="#1560BD"/>
<rect x="104" y="74" width="2" height="2" stroke="#1560BD" stroke-width="2"/>
<rect x="93.5" y="57.5" width="1" height="3" stroke="#1560BD"/>
<rect x="89.5" y="69.5" width="1" height="1" stroke="#1560BD"/>
<rect x="91.5" y="67.5" width="1" height="1" stroke="#1560BD"/>
<path opacity="0.2" fill-rule="evenodd" clip-rule="evenodd" d="M101.815 77C101.815 77 100.332 79.9386 102.668 83.4248C105.005 86.911 108.012 89.9842 108.012 93.004C108.012 96.0238 107.258 95.6808 107.258 95.6808C107.258 95.6808 103.504 97.2966 102.272 102.294C101.041 107.291 101.516 108.235 98.8157 110.297C96.1156 112.359 107.258 110.297 107.258 110.297L113.851 99.383L115.373 87.4838L106.831 77.902L101.815 77Z" fill="#1560BD"/>
<path fill-rule="evenodd" clip-rule="evenodd" d="M75.832 111.02C75.832 111.02 81.4972 116.468 83.0183 118.312C84.5394 120.156 89.2092 123.54 90.605 124.274C92.0007 125.009 94.318 124.711 95.0007 125.728C95.6835 126.744 105.191 138.661 105.191 138.661L126.719 120.652L123.475 117.068C123.475 117.068 127.337 107.583 127.78 103.819C128.222 100.056 127.78 98.8553 128.149 97.1496C128.518 95.4439 128.518 93.1754 128.149 92.0877C127.78 91 120.329 80.5728 119.237 77.744C118.245 75.5177 114.925 75.1791 114.925 75.1791L111.358 72.5589H109.991L103.485 68.9805C103.485 68.9805 100.386 69.2001 100.386 71.0958C100.386 72.9915 100.522 76.3421 103.485 78.949C105.191 83.2633 112.484 87.6704 113.705 87.6704C112.049 89.3175 112.049 95.0951 114.097 97.1496C110.38 97.1496 103.665 107.755 106.124 112.035C105.296 111.211 105.448 111.02 103.485 111.02C97.8887 111.02 75.832 111.02 75.832 111.02Z" fill="#E9F2FC" stroke="#1560BD" stroke-width="2" stroke-linecap="round" stroke-linejoin="round"/>
<path opacity="0.3" fill-rule="evenodd" clip-rule="evenodd" d="M125.984 92.4324L125.635 89.912L126.92 91.8728C127.17 92.2632 127.175 92.2931 127.185 92.3453L127.185 92.3461L127.251 92.5788C127.503 93.5474 127.484 95.486 127.17 96.9382L127.11 97.2483C127.074 97.4547 127.047 97.6616 127.028 97.8738C126.996 98.2283 126.985 98.5061 126.986 99.0083L126.993 100.099C126.996 101.389 126.949 102.309 126.786 103.703C126.512 106.027 125.169 110.205 122.759 116.171L122.548 116.693L122.508 116.813L122.483 116.935C122.445 117.223 122.533 117.518 122.733 117.739L125.278 120.551L115.815 128.468L111.233 123.453L117.213 118.871L117.316 118.786C119.405 116.916 125.308 104.183 125.308 102.727C125.308 102.562 125.286 102.416 125.241 102.209L125.144 101.776C124.905 100.642 124.974 99.5142 125.634 97.855L125.73 97.6002C126.185 96.3235 126.26 94.9965 126.06 93.0591C126.046 92.9202 126.02 92.7045 125.984 92.4324ZM78.3008 112.019H104.536L104.907 112.022L105.21 112.031L105.333 112.037L105.487 112.27L105.687 112.594C106.201 113.448 106.547 114.241 106.728 114.969L106.774 115.163L106.817 115.365C106.919 115.885 106.931 116.252 106.881 116.443L106.864 116.477L106.848 116.469C106.841 116.466 106.831 116.463 106.819 116.46L106.707 116.44L106.566 116.43L105.423 116.428C96.9735 116.404 90.2152 116.112 87.3087 115.561L86.9377 115.487C86.0094 115.286 85.3509 116.371 85.957 117.102C87.2794 118.697 91.383 120.431 94.794 121.148C96.1331 121.43 97.1105 122.514 97.7389 124.562L97.8201 124.839L97.8582 124.946L97.908 125.048C97.945 125.114 97.9895 125.175 98.0406 125.231L107.405 135.503L105.333 137.237L98.6108 128.77C97.2518 127.045 96.3785 125.92 95.9972 125.403L95.7388 125.041C95.2102 124.333 94.5211 124.118 92.9244 123.857L92.2949 123.75C91.7176 123.643 91.3505 123.537 91.0695 123.389C89.4093 122.516 85.021 119.17 83.7888 117.676L83.5671 117.413C82.7706 116.488 81.397 115.064 79.4378 113.132L78.3008 112.019Z" fill="#4A90E2"/>
<path fill-rule="evenodd" clip-rule="evenodd" d="M103.14 70.0157L103.266 70.002L109.506 73.4351L109.62 73.4887L109.74 73.5274C109.821 73.5482 109.904 73.5589 109.988 73.5589L111.027 73.558L114.33 75.9851L114.443 76.0566C114.559 76.1203 114.688 76.1604 114.821 76.174C116.705 76.3662 117.821 77.0298 118.321 78.1511L118.437 78.43C118.607 78.8158 118.856 79.2958 119.185 79.8768L119.287 80.056L119.247 80.0104L119.058 79.8219C118.154 78.9658 116.898 78.4433 115.325 78.2387L115.301 78.235L111.948 75.7725L111.841 75.7039L111.726 75.6497C111.609 75.6029 111.483 75.5784 111.356 75.5784L110.245 75.578L103.964 72.1238L103.861 72.0743C103.719 72.0164 103.565 71.9916 103.412 72.0025L103.113 72.0279L102.768 72.0684C102.319 72.13 101.911 72.2218 101.546 72.3463L101.422 72.391L101.406 72.1208L101.393 71.7954C101.386 71.5737 101.383 71.3418 101.383 71.0958C101.383 70.5321 101.848 70.1636 103.14 70.0157ZM113.705 89.9459L113.725 89.862L113.952 90.0173L114.216 90.2097C114.471 90.4016 114.699 90.5921 114.899 90.78L115.04 90.919L115.062 90.9489C115.52 91.6506 115.905 92.8843 115.7 95.8201V98.4105C115.863 101.203 112.291 104.06 107.691 107.428L107.502 107.703L107.277 108.043C107.058 108.382 106.858 108.714 106.678 109.042L106.645 109.102L106.677 108.854C107.277 104.568 111.496 98.1496 114.094 98.1496L114.208 98.1436C115.021 98.0569 115.403 97.0467 114.802 96.4437L114.676 96.3057C113.606 95.0409 113.227 92.0283 113.705 89.9459Z" fill="white"/>
<path d="M91.7578 124.558H98.7807" stroke="#1560BD" stroke-width="2" stroke-linecap="round" stroke-linejoin="round"/>
<path opacity="0.2" fill-rule="evenodd" clip-rule="evenodd" d="M66.5 80.0287L70.5 80.4782C72.9853 80.7575 75 82.9986 75 85.4838C75 87.9691 72.9853 89.7575 70.5 89.4782L66.5 89.0287C64.0147 88.7495 62 86.5084 62 84.0231C62 81.5378 64.0147 79.7495 66.5 80.0287Z" fill="#1560BD"/>
<path opacity="0.2" fill-rule="evenodd" clip-rule="evenodd" d="M66.3269 89.5356L70.1731 89.9851C72.5628 90.2644 74.5 92.5055 74.5 94.9907C74.5 97.476 72.5628 99.2644 70.1731 98.9851L66.3269 98.5356C63.9372 98.2564 62 96.0153 62 93.53C62 91.0447 63.9372 89.2564 66.3269 89.5356Z" fill="#1560BD"/>
<path opacity="0.2" fill-rule="evenodd" clip-rule="evenodd" d="M68.1538 99.0426L71.8462 99.492C74.1403 99.7713 76 102.012 76 104.498C76 106.983 74.1403 108.771 71.8462 108.492L68.1538 108.043C65.8597 107.763 64 105.522 64 103.037C64 100.552 65.8597 98.7633 68.1538 99.0426Z" fill="#1560BD"/>
<path fill-rule="evenodd" clip-rule="evenodd" d="M63.5 78.0287L67.5 78.4782C69.9853 78.7575 72 80.9986 72 83.4838C72 85.9691 69.9853 87.7575 67.5 87.4782L63.5 87.0287C61.0147 86.7495 59 84.5084 59 82.0231C59 79.5378 61.0147 77.7495 63.5 78.0287Z" fill="#E9F2FC" stroke="#1560BD" stroke-width="2" stroke-linejoin="round"/>
<path fill-rule="evenodd" clip-rule="evenodd" d="M68 68.422L64.5 68.0287C62.0147 67.7495 60 69.5378 60 72.0231C60 74.5084 62.0147 76.7495 64.5 77.0287L68 77.422V68.422Z" fill="#E9F2FC"/>
<path d="M64.5 68.0287L64.3883 69.0225L64.5 68.0287ZM68 68.422H69C69 67.9129 68.6176 67.4851 68.1117 67.4283L68 68.422ZM64.5 77.0287L64.3883 78.0225L64.5 77.0287ZM68 77.422L67.8883 78.4158C68.1712 78.4475 68.4542 78.3573 68.6665 78.1676C68.8787 77.9778 69 77.7067 69 77.422H68ZM64.3883 69.0225L67.8883 69.4158L68.1117 67.4283L64.6117 67.035L64.3883 69.0225ZM61 72.0231C61 70.1413 62.4888 68.809 64.3883 69.0225L64.6117 67.035C61.5406 66.6899 59 68.9343 59 72.0231H61ZM64.6117 76.035C62.6273 75.812 61 73.9943 61 72.0231H59C59 75.0224 61.4022 77.6869 64.3883 78.0225L64.6117 76.035ZM68.1117 76.4283L64.6117 76.035L64.3883 78.0225L67.8883 78.4158L68.1117 76.4283ZM69 77.422V68.422H67V77.422H69Z" fill="#1560BD"/>
<path fill-rule="evenodd" clip-rule="evenodd" d="M63.3269 88.0287L67.1731 88.4782C69.5628 88.7575 71.5 90.9986 71.5 93.4838C71.5 95.9691 69.5628 97.7575 67.1731 97.4782L63.3269 97.0287C60.9372 96.7495 59 94.5084 59 92.0231C59 89.5378 60.9372 87.7495 63.3269 88.0287Z" fill="#E9F2FC" stroke="#1560BD" stroke-width="2" stroke-linejoin="round"/>
<path fill-rule="evenodd" clip-rule="evenodd" d="M65.1538 98.0287L68.8462 98.4782C71.1403 98.7575 73 100.999 73 103.484C73 105.969 71.1403 107.757 68.8462 107.478L65.1538 107.029C62.8597 106.749 61 104.508 61 102.023C61 99.5378 62.8597 97.7495 65.1538 98.0287Z" fill="#E9F2FC" stroke="#1560BD" stroke-width="2" stroke-linejoin="round"/>
<path fill-rule="evenodd" clip-rule="evenodd" d="M62.8332 79.0038L62.963 79.001L62.87 79.1324L62.7361 79.3401C62.264 80.1149 62 81.0339 62 82.0231L62.0049 82.2573L62.0235 82.5365C62.1424 83.8336 62.705 85.0476 63.5595 86.0051L63.582 86.03L63.4148 86.0074C61.5242 85.6913 60 83.9322 60 82.0231C60 80.3246 61.2103 79.0805 62.8332 79.0038ZM62.8586 89.0002C61.2405 88.991 60 90.2541 60 92.0231C60 93.9409 61.461 95.695 63.2561 96.0083L63.443 96.0355L63.547 96.047L63.5045 95.9998C62.6793 95.0418 62.1371 93.8286 62.0227 92.535L62.0047 92.2566L62 92.0231C62 91.0106 62.2682 90.0699 62.748 89.2823L62.884 89.0713L62.932 89.003L62.8586 89.0002ZM64.8663 99.0059C63.2658 98.9046 62 100.183 62 102.023C62 103.947 63.3952 105.695 65.0918 106.008L65.2747 106.036L65.509 106.065L65.3763 105.905C64.6251 104.965 64.133 103.794 64.0233 102.55L64.0048 102.262L64 102.023C64 101.068 64.2311 100.175 64.6486 99.4144L64.7794 99.1902L64.897 99.008L64.8663 99.0059Z" fill="white"/>
<path d="M109.762 123.875L115.76 123.335C115.76 123.335 121.326 120.55 123.452 116.464" stroke="#1560BD" stroke-width="2" stroke-linecap="round" stroke-linejoin="round"/>
<mask id="mask0" mask-type="alpha" maskUnits="userSpaceOnUse" x="0" y="0" width="158" height="158">
<path fill-rule="evenodd" clip-rule="evenodd" d="M79 158C122.63 158 158 122.63 158 79C158 35.3695 122.63 0 79 0C35.3695 0 0 35.3695 0 79C0 122.63 35.3695 158 79 158Z" fill="white"/>
</mask>
<g mask="url(#mask0)">
<rect x="129.273" y="118.667" width="35" height="34" rx="3" transform="rotate(50 129.273 118.667)" fill="#4A90E2" stroke="#1560BD" stroke-width="2"/>
<path opacity="0.12" d="M149.075 143.823L149.167 143.941C149.773 144.783 149.636 145.963 148.828 146.641L146.886 148.271L146.871 148.188C146.759 147.621 146.522 147.07 146.156 146.578L146.029 146.417L127.37 124.179L127.235 124.026C126.82 123.579 126.323 123.247 125.787 123.034L125.674 122.991L127.616 121.361C128.462 120.651 129.724 120.762 130.434 121.608L149.075 143.823Z" fill="white"/>
<path opacity="0.3" d="M124.153 164.737L124.253 164.848C124.977 165.591 126.163 165.661 126.971 164.983L128.913 163.353L128.834 163.325C128.295 163.116 127.794 162.787 127.373 162.341L127.236 162.187L108.576 139.95L108.449 139.791C108.081 139.305 107.84 138.758 107.723 138.192L107.701 138.074L105.759 139.704C104.913 140.414 104.802 141.675 105.512 142.521L124.153 164.737Z" fill="#1560BD"/>
<path fill-rule="evenodd" clip-rule="evenodd" d="M112.002 141.644C112.534 142.279 113.481 142.362 114.115 141.829C114.75 141.297 114.833 140.35 114.3 139.716C113.768 139.081 112.821 138.998 112.187 139.531C111.552 140.063 111.469 141.01 112.002 141.644Z" fill="#1560BD"/>
</g>
<g opacity="0.4">
<rect x="33" y="45" width="4" height="4" stroke="#1560BD" stroke-width="2"/>
<rect x="33" y="57" width="4" height="4" stroke="#1560BD" stroke-width="2"/>
<rect x="45" y="45" width="4" height="4" stroke="#1560BD" stroke-width="2"/>
<rect x="40.5" y="44.5" width="1" height="1" stroke="#1560BD"/>
<rect x="40.5" y="48.5" width="1" height="3" stroke="#1560BD"/>
<rect x="48.5" y="54.5" width="1" height="3" stroke="#1560BD"/>
<rect x="32.5" y="52.5" width="3" height="1" stroke="#1560BD"/>
<rect x="46.5" y="60.5" width="3" height="1" stroke="#1560BD"/>
<rect x="46.5" y="52.5" width="3" height="1" stroke="#1560BD"/>
<rect x="40.5" y="60.5" width="3" height="1" stroke="#1560BD"/>
<rect x="38.5" y="52.5" width="1" height="1" stroke="#1560BD"/>
<rect x="46.5" y="56.5" width="1" height="1" stroke="#1560BD"/>
<rect x="40.5" y="54.5" width="1" height="1" stroke="#1560BD"/>
<rect x="42.5" y="52.5" width="1" height="1" stroke="#1560BD"/>
<rect x="42.5" y="56.5" width="1" height="1" stroke="#1560BD"/>
<rect x="40.5" y="58.5" width="1" height="1" stroke="#1560BD"/>
</g>
</svg>
